<?xml version="1.0" encoding="utf-8" standalone="no"?>
<!DOCTYPE svg PUBLIC "-//W3C//DTD SVG 1.1//EN"
  "http://www.w3.org/Graphics/SVG/1.1/DTD/svg11.dtd">
<!-- Created with matplotlib (https://matplotlib.org/) -->
<svg height="216pt" version="1.1" viewBox="0 0 360 216" width="360pt" xmlns="http://www.w3.org/2000/svg" xmlns:xlink="http://www.w3.org/1999/xlink">
 <metadata>
  <rdf:RDF xmlns:cc="http://creativecommons.org/ns#" xmlns:dc="http://purl.org/dc/elements/1.1/" xmlns:rdf="http://www.w3.org/1999/02/22-rdf-syntax-ns#">
   <cc:Work>
    <dc:type rdf:resource="http://purl.org/dc/dcmitype/StillImage"/>
    <dc:date>2021-04-24T23:05:53.120300</dc:date>
    <dc:format>image/svg+xml</dc:format>
    <dc:creator>
     <cc:Agent>
      <dc:title>Matplotlib v3.3.2, https://matplotlib.org/</dc:title>
     </cc:Agent>
    </dc:creator>
   </cc:Work>
  </rdf:RDF>
 </metadata>
 <defs>
  <style type="text/css">*{stroke-linecap:butt;stroke-linejoin:round;}</style>
 </defs>
 <g id="figure_1">
  <g id="patch_1">
   <path d="M 0 216 
L 360 216 
L 360 0 
L 0 0 
z
" style="fill:#ffffff;"/>
  </g>
  <g id="axes_1">
   <g id="patch_2">
    <path d="M 44.401491 178.305354 
L 357.165354 178.305354 
L 357.165354 2.834646 
L 44.401491 2.834646 
z
" style="fill:#ffffff;"/>
   </g>
   <g id="matplotlib.axis_1">
    <g id="xtick_1">
     <g id="line2d_1">
      <path clip-path="url(#pb8f9ffee93)" d="M 53.253299 178.305354 
L 53.253299 2.834646 
" style="fill:none;stroke:#000000;stroke-linecap:square;stroke-opacity:0.1;stroke-width:0.5;"/>
     </g>
     <g id="line2d_2">
      <defs>
       <path d="M 0 0 
L 0 -2.5 
" id="m0ccc6ff53f" style="stroke:#000000;stroke-width:0.5;"/>
      </defs>
      <g>
       <use style="stroke:#000000;stroke-width:0.5;" x="53.253299" xlink:href="#m0ccc6ff53f" y="178.305354"/>
      </g>
     </g>
     <g id="text_1">
      <!-- $\mathregular{0}$ -->
      <g transform="translate(49.413299 190.923479)scale(0.12 -0.12)">
       <defs>
        <path d="M 31.78125 66.40625 
Q 24.171875 66.40625 20.328125 58.90625 
Q 16.5 51.421875 16.5 36.375 
Q 16.5 21.390625 20.328125 13.890625 
Q 24.171875 6.390625 31.78125 6.390625 
Q 39.453125 6.390625 43.28125 13.890625 
Q 47.125 21.390625 47.125 36.375 
Q 47.125 51.421875 43.28125 58.90625 
Q 39.453125 66.40625 31.78125 66.40625 
z
M 31.78125 74.21875 
Q 44.046875 74.21875 50.515625 64.515625 
Q 56.984375 54.828125 56.984375 36.375 
Q 56.984375 17.96875 50.515625 8.265625 
Q 44.046875 -1.421875 31.78125 -1.421875 
Q 19.53125 -1.421875 13.0625 8.265625 
Q 6.59375 17.96875 6.59375 36.375 
Q 6.59375 54.828125 13.0625 64.515625 
Q 19.53125 74.21875 31.78125 74.21875 
z
" id="DejaVuSans-48"/>
       </defs>
       <use transform="translate(0 0.78125)" xlink:href="#DejaVuSans-48"/>
      </g>
     </g>
    </g>
    <g id="xtick_2">
     <g id="line2d_3">
      <path clip-path="url(#pb8f9ffee93)" d="M 112.265348 178.305354 
L 112.265348 2.834646 
" style="fill:none;stroke:#000000;stroke-linecap:square;stroke-opacity:0.1;stroke-width:0.5;"/>
     </g>
     <g id="line2d_4">
      <g>
       <use style="stroke:#000000;stroke-width:0.5;" x="112.265348" xlink:href="#m0ccc6ff53f" y="178.305354"/>
      </g>
     </g>
     <g id="text_2">
      <!-- $\mathregular{1}$ -->
      <g transform="translate(108.425348 190.923479)scale(0.12 -0.12)">
       <defs>
        <path d="M 12.40625 8.296875 
L 28.515625 8.296875 
L 28.515625 63.921875 
L 10.984375 60.40625 
L 10.984375 69.390625 
L 28.421875 72.90625 
L 38.28125 72.90625 
L 38.28125 8.296875 
L 54.390625 8.296875 
L 54.390625 0 
L 12.40625 0 
z
" id="DejaVuSans-49"/>
       </defs>
       <use transform="translate(0 0.09375)" xlink:href="#DejaVuSans-49"/>
      </g>
     </g>
    </g>
    <g id="xtick_3">
     <g id="line2d_5">
      <path clip-path="url(#pb8f9ffee93)" d="M 171.277398 178.305354 
L 171.277398 2.834646 
" style="fill:none;stroke:#000000;stroke-linecap:square;stroke-opacity:0.1;stroke-width:0.5;"/>
     </g>
     <g id="line2d_6">
      <g>
       <use style="stroke:#000000;stroke-width:0.5;" x="171.277398" xlink:href="#m0ccc6ff53f" y="178.305354"/>
      </g>
     </g>
     <g id="text_3">
      <!-- $\mathregular{2}$ -->
      <g transform="translate(167.437398 190.923479)scale(0.12 -0.12)">
       <defs>
        <path d="M 19.1875 8.296875 
L 53.609375 8.296875 
L 53.609375 0 
L 7.328125 0 
L 7.328125 8.296875 
Q 12.9375 14.109375 22.625 23.890625 
Q 32.328125 33.6875 34.8125 36.53125 
Q 39.546875 41.84375 41.421875 45.53125 
Q 43.3125 49.21875 43.3125 52.78125 
Q 43.3125 58.59375 39.234375 62.25 
Q 35.15625 65.921875 28.609375 65.921875 
Q 23.96875 65.921875 18.8125 64.3125 
Q 13.671875 62.703125 7.8125 59.421875 
L 7.8125 69.390625 
Q 13.765625 71.78125 18.9375 73 
Q 24.125 74.21875 28.421875 74.21875 
Q 39.75 74.21875 46.484375 68.546875 
Q 53.21875 62.890625 53.21875 53.421875 
Q 53.21875 48.921875 51.53125 44.890625 
Q 49.859375 40.875 45.40625 35.40625 
Q 44.1875 33.984375 37.640625 27.21875 
Q 31.109375 20.453125 19.1875 8.296875 
z
" id="DejaVuSans-50"/>
       </defs>
       <use transform="translate(0 0.78125)" xlink:href="#DejaVuSans-50"/>
      </g>
     </g>
    </g>
    <g id="xtick_4">
     <g id="line2d_7">
      <path clip-path="url(#pb8f9ffee93)" d="M 230.289448 178.305354 
L 230.289448 2.834646 
" style="fill:none;stroke:#000000;stroke-linecap:square;stroke-opacity:0.1;stroke-width:0.5;"/>
     </g>
     <g id="line2d_8">
      <g>
       <use style="stroke:#000000;stroke-width:0.5;" x="230.289448" xlink:href="#m0ccc6ff53f" y="178.305354"/>
      </g>
     </g>
     <g id="text_4">
      <!-- $\mathregular{3}$ -->
      <g transform="translate(226.449448 190.923479)scale(0.12 -0.12)">
       <defs>
        <path d="M 40.578125 39.3125 
Q 47.65625 37.796875 51.625 33 
Q 55.609375 28.21875 55.609375 21.1875 
Q 55.609375 10.40625 48.1875 4.484375 
Q 40.765625 -1.421875 27.09375 -1.421875 
Q 22.515625 -1.421875 17.65625 -0.515625 
Q 12.796875 0.390625 7.625 2.203125 
L 7.625 11.71875 
Q 11.71875 9.328125 16.59375 8.109375 
Q 21.484375 6.890625 26.8125 6.890625 
Q 36.078125 6.890625 40.9375 10.546875 
Q 45.796875 14.203125 45.796875 21.1875 
Q 45.796875 27.640625 41.28125 31.265625 
Q 36.765625 34.90625 28.71875 34.90625 
L 20.21875 34.90625 
L 20.21875 43.015625 
L 29.109375 43.015625 
Q 36.375 43.015625 40.234375 45.921875 
Q 44.09375 48.828125 44.09375 54.296875 
Q 44.09375 59.90625 40.109375 62.90625 
Q 36.140625 65.921875 28.71875 65.921875 
Q 24.65625 65.921875 20.015625 65.03125 
Q 15.375 64.15625 9.8125 62.3125 
L 9.8125 71.09375 
Q 15.4375 72.65625 20.34375 73.4375 
Q 25.25 74.21875 29.59375 74.21875 
Q 40.828125 74.21875 47.359375 69.109375 
Q 53.90625 64.015625 53.90625 55.328125 
Q 53.90625 49.265625 50.4375 45.09375 
Q 46.96875 40.921875 40.578125 39.3125 
z
" id="DejaVuSans-51"/>
       </defs>
       <use transform="translate(0 0.78125)" xlink:href="#DejaVuSans-51"/>
      </g>
     </g>
    </g>
    <g id="xtick_5">
     <g id="line2d_9">
      <path clip-path="url(#pb8f9ffee93)" d="M 289.301497 178.305354 
L 289.301497 2.834646 
" style="fill:none;stroke:#000000;stroke-linecap:square;stroke-opacity:0.1;stroke-width:0.5;"/>
     </g>
     <g id="line2d_10">
      <g>
       <use style="stroke:#000000;stroke-width:0.5;" x="289.301497" xlink:href="#m0ccc6ff53f" y="178.305354"/>
      </g>
     </g>
     <g id="text_5">
      <!-- $\mathregular{4}$ -->
      <g transform="translate(285.461497 190.923479)scale(0.12 -0.12)">
       <defs>
        <path d="M 37.796875 64.3125 
L 12.890625 25.390625 
L 37.796875 25.390625 
z
M 35.203125 72.90625 
L 47.609375 72.90625 
L 47.609375 25.390625 
L 58.015625 25.390625 
L 58.015625 17.1875 
L 47.609375 17.1875 
L 47.609375 0 
L 37.796875 0 
L 37.796875 17.1875 
L 4.890625 17.1875 
L 4.890625 26.703125 
z
" id="DejaVuSans-52"/>
       </defs>
       <use transform="translate(0 0.09375)" xlink:href="#DejaVuSans-52"/>
      </g>
     </g>
    </g>
    <g id="xtick_6">
     <g id="line2d_11">
      <path clip-path="url(#pb8f9ffee93)" d="M 348.313547 178.305354 
L 348.313547 2.834646 
" style="fill:none;stroke:#000000;stroke-linecap:square;stroke-opacity:0.1;stroke-width:0.5;"/>
     </g>
     <g id="line2d_12">
      <g>
       <use style="stroke:#000000;stroke-width:0.5;" x="348.313547" xlink:href="#m0ccc6ff53f" y="178.305354"/>
      </g>
     </g>
     <g id="text_6">
      <!-- $\mathregular{5}$ -->
      <g transform="translate(344.473547 190.923479)scale(0.12 -0.12)">
       <defs>
        <path d="M 10.796875 72.90625 
L 49.515625 72.90625 
L 49.515625 64.59375 
L 19.828125 64.59375 
L 19.828125 46.734375 
Q 21.96875 47.46875 24.109375 47.828125 
Q 26.265625 48.1875 28.421875 48.1875 
Q 40.625 48.1875 47.75 41.5 
Q 54.890625 34.8125 54.890625 23.390625 
Q 54.890625 11.625 47.5625 5.09375 
Q 40.234375 -1.421875 26.90625 -1.421875 
Q 22.3125 -1.421875 17.546875 -0.640625 
Q 12.796875 0.140625 7.71875 1.703125 
L 7.71875 11.625 
Q 12.109375 9.234375 16.796875 8.0625 
Q 21.484375 6.890625 26.703125 6.890625 
Q 35.15625 6.890625 40.078125 11.328125 
Q 45.015625 15.765625 45.015625 23.390625 
Q 45.015625 31 40.078125 35.4375 
Q 35.15625 39.890625 26.703125 39.890625 
Q 22.75 39.890625 18.8125 39.015625 
Q 14.890625 38.140625 10.796875 36.28125 
z
" id="DejaVuSans-53"/>
       </defs>
       <use transform="translate(0 0.09375)" xlink:href="#DejaVuSans-53"/>
      </g>
     </g>
    </g>
    <g id="text_7">
     <!-- Time [s] -->
     <g transform="translate(168.257173 209.576604)scale(0.16 -0.16)">
      <defs>
       <path d="M -0.296875 72.90625 
L 61.375 72.90625 
L 61.375 64.59375 
L 35.5 64.59375 
L 35.5 0 
L 25.59375 0 
L 25.59375 64.59375 
L -0.296875 64.59375 
z
" id="DejaVuSans-84"/>
       <path d="M 9.421875 54.6875 
L 18.40625 54.6875 
L 18.40625 0 
L 9.421875 0 
z
M 9.421875 75.984375 
L 18.40625 75.984375 
L 18.40625 64.59375 
L 9.421875 64.59375 
z
" id="DejaVuSans-105"/>
       <path d="M 52 44.1875 
Q 55.375 50.25 60.0625 53.125 
Q 64.75 56 71.09375 56 
Q 79.640625 56 84.28125 50.015625 
Q 88.921875 44.046875 88.921875 33.015625 
L 88.921875 0 
L 79.890625 0 
L 79.890625 32.71875 
Q 79.890625 40.578125 77.09375 44.375 
Q 74.3125 48.1875 68.609375 48.1875 
Q 61.625 48.1875 57.5625 43.546875 
Q 53.515625 38.921875 53.515625 30.90625 
L 53.515625 0 
L 44.484375 0 
L 44.484375 32.71875 
Q 44.484375 40.625 41.703125 44.40625 
Q 38.921875 48.1875 33.109375 48.1875 
Q 26.21875 48.1875 22.15625 43.53125 
Q 18.109375 38.875 18.109375 30.90625 
L 18.109375 0 
L 9.078125 0 
L 9.078125 54.6875 
L 18.109375 54.6875 
L 18.109375 46.1875 
Q 21.1875 51.21875 25.484375 53.609375 
Q 29.78125 56 35.6875 56 
Q 41.65625 56 45.828125 52.96875 
Q 50 49.953125 52 44.1875 
z
" id="DejaVuSans-109"/>
       <path d="M 56.203125 29.59375 
L 56.203125 25.203125 
L 14.890625 25.203125 
Q 15.484375 15.921875 20.484375 11.0625 
Q 25.484375 6.203125 34.421875 6.203125 
Q 39.59375 6.203125 44.453125 7.46875 
Q 49.3125 8.734375 54.109375 11.28125 
L 54.109375 2.78125 
Q 49.265625 0.734375 44.1875 -0.34375 
Q 39.109375 -1.421875 33.890625 -1.421875 
Q 20.796875 -1.421875 13.15625 6.1875 
Q 5.515625 13.8125 5.515625 26.8125 
Q 5.515625 40.234375 12.765625 48.109375 
Q 20.015625 56 32.328125 56 
Q 43.359375 56 49.78125 48.890625 
Q 56.203125 41.796875 56.203125 29.59375 
z
M 47.21875 32.234375 
Q 47.125 39.59375 43.09375 43.984375 
Q 39.0625 48.390625 32.421875 48.390625 
Q 24.90625 48.390625 20.390625 44.140625 
Q 15.875 39.890625 15.1875 32.171875 
z
" id="DejaVuSans-101"/>
       <path id="DejaVuSans-32"/>
       <path d="M 8.59375 75.984375 
L 29.296875 75.984375 
L 29.296875 69 
L 17.578125 69 
L 17.578125 -6.203125 
L 29.296875 -6.203125 
L 29.296875 -13.1875 
L 8.59375 -13.1875 
z
" id="DejaVuSans-91"/>
       <path d="M 44.28125 53.078125 
L 44.28125 44.578125 
Q 40.484375 46.53125 36.375 47.5 
Q 32.28125 48.484375 27.875 48.484375 
Q 21.1875 48.484375 17.84375 46.4375 
Q 14.5 44.390625 14.5 40.28125 
Q 14.5 37.15625 16.890625 35.375 
Q 19.28125 33.59375 26.515625 31.984375 
L 29.59375 31.296875 
Q 39.15625 29.25 43.1875 25.515625 
Q 47.21875 21.78125 47.21875 15.09375 
Q 47.21875 7.46875 41.1875 3.015625 
Q 35.15625 -1.421875 24.609375 -1.421875 
Q 20.21875 -1.421875 15.453125 -0.5625 
Q 10.6875 0.296875 5.421875 2 
L 5.421875 11.28125 
Q 10.40625 8.6875 15.234375 7.390625 
Q 20.0625 6.109375 24.8125 6.109375 
Q 31.15625 6.109375 34.5625 8.28125 
Q 37.984375 10.453125 37.984375 14.40625 
Q 37.984375 18.0625 35.515625 20.015625 
Q 33.0625 21.96875 24.703125 23.78125 
L 21.578125 24.515625 
Q 13.234375 26.265625 9.515625 29.90625 
Q 5.8125 33.546875 5.8125 39.890625 
Q 5.8125 47.609375 11.28125 51.796875 
Q 16.75 56 26.8125 56 
Q 31.78125 56 36.171875 55.265625 
Q 40.578125 54.546875 44.28125 53.078125 
z
" id="DejaVuSans-115"/>
       <path d="M 30.421875 75.984375 
L 30.421875 -13.1875 
L 9.71875 -13.1875 
L 9.71875 -6.203125 
L 21.390625 -6.203125 
L 21.390625 69 
L 9.71875 69 
L 9.71875 75.984375 
z
" id="DejaVuSans-93"/>
      </defs>
      <use xlink:href="#DejaVuSans-84"/>
      <use x="57.958984" xlink:href="#DejaVuSans-105"/>
      <use x="85.742188" xlink:href="#DejaVuSans-109"/>
      <use x="183.154297" xlink:href="#DejaVuSans-101"/>
      <use x="244.677734" xlink:href="#DejaVuSans-32"/>
      <use x="276.464844" xlink:href="#DejaVuSans-91"/>
      <use x="315.478516" xlink:href="#DejaVuSans-115"/>
      <use x="367.578125" xlink:href="#DejaVuSans-93"/>
     </g>
    </g>
   </g>
   <g id="matplotlib.axis_2">
    <g id="ytick_1">
     <g id="line2d_13">
      <path clip-path="url(#pb8f9ffee93)" d="M 44.401491 176.886199 
L 357.165354 176.886199 
" style="fill:none;stroke:#000000;stroke-linecap:square;stroke-opacity:0.1;stroke-width:0.5;"/>
     </g>
     <g id="line2d_14">
      <defs>
       <path d="M 0 0 
L 2.5 0 
" id="ma744b9eda3" style="stroke:#000000;stroke-width:0.5;"/>
      </defs>
      <g>
       <use style="stroke:#000000;stroke-width:0.5;" x="44.401491" xlink:href="#ma744b9eda3" y="176.886199"/>
      </g>
     </g>
     <g id="text_8">
      <!-- $\mathregular{0.8}$ -->
      <g transform="translate(22.061491 181.445261)scale(0.12 -0.12)">
       <defs>
        <path d="M 10.6875 12.40625 
L 21 12.40625 
L 21 0 
L 10.6875 0 
z
" id="DejaVuSans-46"/>
        <path d="M 31.78125 34.625 
Q 24.75 34.625 20.71875 30.859375 
Q 16.703125 27.09375 16.703125 20.515625 
Q 16.703125 13.921875 20.71875 10.15625 
Q 24.75 6.390625 31.78125 6.390625 
Q 38.8125 6.390625 42.859375 10.171875 
Q 46.921875 13.96875 46.921875 20.515625 
Q 46.921875 27.09375 42.890625 30.859375 
Q 38.875 34.625 31.78125 34.625 
z
M 21.921875 38.8125 
Q 15.578125 40.375 12.03125 44.71875 
Q 8.5 49.078125 8.5 55.328125 
Q 8.5 64.0625 14.71875 69.140625 
Q 20.953125 74.21875 31.78125 74.21875 
Q 42.671875 74.21875 48.875 69.140625 
Q 55.078125 64.0625 55.078125 55.328125 
Q 55.078125 49.078125 51.53125 44.71875 
Q 48 40.375 41.703125 38.8125 
Q 48.828125 37.15625 52.796875 32.3125 
Q 56.78125 27.484375 56.78125 20.515625 
Q 56.78125 9.90625 50.3125 4.234375 
Q 43.84375 -1.421875 31.78125 -1.421875 
Q 19.734375 -1.421875 13.25 4.234375 
Q 6.78125 9.90625 6.78125 20.515625 
Q 6.78125 27.484375 10.78125 32.3125 
Q 14.796875 37.15625 21.921875 38.8125 
z
M 18.3125 54.390625 
Q 18.3125 48.734375 21.84375 45.5625 
Q 25.390625 42.390625 31.78125 42.390625 
Q 38.140625 42.390625 41.71875 45.5625 
Q 45.3125 48.734375 45.3125 54.390625 
Q 45.3125 60.0625 41.71875 63.234375 
Q 38.140625 66.40625 31.78125 66.40625 
Q 25.390625 66.40625 21.84375 63.234375 
Q 18.3125 60.0625 18.3125 54.390625 
z
" id="DejaVuSans-56"/>
       </defs>
       <use transform="translate(0 0.78125)" xlink:href="#DejaVuSans-48"/>
       <use transform="translate(63.623047 0.78125)" xlink:href="#DejaVuSans-46"/>
       <use transform="translate(92.785156 0.78125)" xlink:href="#DejaVuSans-56"/>
      </g>
     </g>
    </g>
    <g id="ytick_2">
     <g id="line2d_15">
      <path clip-path="url(#pb8f9ffee93)" d="M 44.401491 126.641913 
L 357.165354 126.641913 
" style="fill:none;stroke:#000000;stroke-linecap:square;stroke-opacity:0.1;stroke-width:0.5;"/>
     </g>
     <g id="line2d_16">
      <g>
       <use style="stroke:#000000;stroke-width:0.5;" x="44.401491" xlink:href="#ma744b9eda3" y="126.641913"/>
      </g>
     </g>
     <g id="text_9">
      <!-- $\mathregular{0.9}$ -->
      <g transform="translate(21.701491 131.200976)scale(0.12 -0.12)">
       <defs>
        <path d="M 10.984375 1.515625 
L 10.984375 10.5 
Q 14.703125 8.734375 18.5 7.8125 
Q 22.3125 6.890625 25.984375 6.890625 
Q 35.75 6.890625 40.890625 13.453125 
Q 46.046875 20.015625 46.78125 33.40625 
Q 43.953125 29.203125 39.59375 26.953125 
Q 35.25 24.703125 29.984375 24.703125 
Q 19.046875 24.703125 12.671875 31.3125 
Q 6.296875 37.9375 6.296875 49.421875 
Q 6.296875 60.640625 12.9375 67.421875 
Q 19.578125 74.21875 30.609375 74.21875 
Q 43.265625 74.21875 49.921875 64.515625 
Q 56.59375 54.828125 56.59375 36.375 
Q 56.59375 19.140625 48.40625 8.859375 
Q 40.234375 -1.421875 26.421875 -1.421875 
Q 22.703125 -1.421875 18.890625 -0.6875 
Q 15.09375 0.046875 10.984375 1.515625 
z
M 30.609375 32.421875 
Q 37.25 32.421875 41.125 36.953125 
Q 45.015625 41.5 45.015625 49.421875 
Q 45.015625 57.28125 41.125 61.84375 
Q 37.25 66.40625 30.609375 66.40625 
Q 23.96875 66.40625 20.09375 61.84375 
Q 16.21875 57.28125 16.21875 49.421875 
Q 16.21875 41.5 20.09375 36.953125 
Q 23.96875 32.421875 30.609375 32.421875 
z
" id="DejaVuSans-57"/>
       </defs>
       <use transform="translate(0 0.78125)" xlink:href="#DejaVuSans-48"/>
       <use transform="translate(63.623047 0.78125)" xlink:href="#DejaVuSans-46"/>
       <use transform="translate(95.410156 0.78125)" xlink:href="#DejaVuSans-57"/>
      </g>
     </g>
    </g>
    <g id="ytick_3">
     <g id="line2d_17">
      <path clip-path="url(#pb8f9ffee93)" d="M 44.401491 76.397628 
L 357.165354 76.397628 
" style="fill:none;stroke:#000000;stroke-linecap:square;stroke-opacity:0.1;stroke-width:0.5;"/>
     </g>
     <g id="line2d_18">
      <g>
       <use style="stroke:#000000;stroke-width:0.5;" x="44.401491" xlink:href="#ma744b9eda3" y="76.397628"/>
      </g>
     </g>
     <g id="text_10">
      <!-- $\mathregular{1.0}$ -->
      <g transform="translate(21.701491 80.95669)scale(0.12 -0.12)">
       <use transform="translate(0 0.78125)" xlink:href="#DejaVuSans-49"/>
       <use transform="translate(63.623047 0.78125)" xlink:href="#DejaVuSans-46"/>
       <use transform="translate(95.410156 0.78125)" xlink:href="#DejaVuSans-48"/>
      </g>
     </g>
    </g>
    <g id="ytick_4">
     <g id="line2d_19">
      <path clip-path="url(#pb8f9ffee93)" d="M 44.401491 26.153342 
L 357.165354 26.153342 
" style="fill:none;stroke:#000000;stroke-linecap:square;stroke-opacity:0.1;stroke-width:0.5;"/>
     </g>
     <g id="line2d_20">
      <g>
       <use style="stroke:#000000;stroke-width:0.5;" x="44.401491" xlink:href="#ma744b9eda3" y="26.153342"/>
      </g>
     </g>
     <g id="text_11">
      <!-- $\mathregular{1.1}$ -->
      <g transform="translate(21.701491 30.712405)scale(0.12 -0.12)">
       <use transform="translate(0 0.09375)" xlink:href="#DejaVuSans-49"/>
       <use transform="translate(63.623047 0.09375)" xlink:href="#DejaVuSans-46"/>
       <use transform="translate(95.410156 0.09375)" xlink:href="#DejaVuSans-49"/>
      </g>
     </g>
    </g>
    <g id="text_12">
     <!-- Inlet conditions -->
     <g transform="translate(14.373991 151.98)rotate(-90)scale(0.16 -0.16)">
      <defs>
       <path d="M 9.8125 72.90625 
L 19.671875 72.90625 
L 19.671875 0 
L 9.8125 0 
z
" id="DejaVuSans-73"/>
       <path d="M 54.890625 33.015625 
L 54.890625 0 
L 45.90625 0 
L 45.90625 32.71875 
Q 45.90625 40.484375 42.875 44.328125 
Q 39.84375 48.1875 33.796875 48.1875 
Q 26.515625 48.1875 22.3125 43.546875 
Q 18.109375 38.921875 18.109375 30.90625 
L 18.109375 0 
L 9.078125 0 
L 9.078125 54.6875 
L 18.109375 54.6875 
L 18.109375 46.1875 
Q 21.34375 51.125 25.703125 53.5625 
Q 30.078125 56 35.796875 56 
Q 45.21875 56 50.046875 50.171875 
Q 54.890625 44.34375 54.890625 33.015625 
z
" id="DejaVuSans-110"/>
       <path d="M 9.421875 75.984375 
L 18.40625 75.984375 
L 18.40625 0 
L 9.421875 0 
z
" id="DejaVuSans-108"/>
       <path d="M 18.3125 70.21875 
L 18.3125 54.6875 
L 36.8125 54.6875 
L 36.8125 47.703125 
L 18.3125 47.703125 
L 18.3125 18.015625 
Q 18.3125 11.328125 20.140625 9.421875 
Q 21.96875 7.515625 27.59375 7.515625 
L 36.8125 7.515625 
L 36.8125 0 
L 27.59375 0 
Q 17.1875 0 13.234375 3.875 
Q 9.28125 7.765625 9.28125 18.015625 
L 9.28125 47.703125 
L 2.6875 47.703125 
L 2.6875 54.6875 
L 9.28125 54.6875 
L 9.28125 70.21875 
z
" id="DejaVuSans-116"/>
       <path d="M 48.78125 52.59375 
L 48.78125 44.1875 
Q 44.96875 46.296875 41.140625 47.34375 
Q 37.3125 48.390625 33.40625 48.390625 
Q 24.65625 48.390625 19.8125 42.84375 
Q 14.984375 37.3125 14.984375 27.296875 
Q 14.984375 17.28125 19.8125 11.734375 
Q 24.65625 6.203125 33.40625 6.203125 
Q 37.3125 6.203125 41.140625 7.25 
Q 44.96875 8.296875 48.78125 10.40625 
L 48.78125 2.09375 
Q 45.015625 0.34375 40.984375 -0.53125 
Q 36.96875 -1.421875 32.421875 -1.421875 
Q 20.0625 -1.421875 12.78125 6.34375 
Q 5.515625 14.109375 5.515625 27.296875 
Q 5.515625 40.671875 12.859375 48.328125 
Q 20.21875 56 33.015625 56 
Q 37.15625 56 41.109375 55.140625 
Q 45.0625 54.296875 48.78125 52.59375 
z
" id="DejaVuSans-99"/>
       <path d="M 30.609375 48.390625 
Q 23.390625 48.390625 19.1875 42.75 
Q 14.984375 37.109375 14.984375 27.296875 
Q 14.984375 17.484375 19.15625 11.84375 
Q 23.34375 6.203125 30.609375 6.203125 
Q 37.796875 6.203125 41.984375 11.859375 
Q 46.1875 17.53125 46.1875 27.296875 
Q 46.1875 37.015625 41.984375 42.703125 
Q 37.796875 48.390625 30.609375 48.390625 
z
M 30.609375 56 
Q 42.328125 56 49.015625 48.375 
Q 55.71875 40.765625 55.71875 27.296875 
Q 55.71875 13.875 49.015625 6.21875 
Q 42.328125 -1.421875 30.609375 -1.421875 
Q 18.84375 -1.421875 12.171875 6.21875 
Q 5.515625 13.875 5.515625 27.296875 
Q 5.515625 40.765625 12.171875 48.375 
Q 18.84375 56 30.609375 56 
z
" id="DejaVuSans-111"/>
       <path d="M 45.40625 46.390625 
L 45.40625 75.984375 
L 54.390625 75.984375 
L 54.390625 0 
L 45.40625 0 
L 45.40625 8.203125 
Q 42.578125 3.328125 38.25 0.953125 
Q 33.9375 -1.421875 27.875 -1.421875 
Q 17.96875 -1.421875 11.734375 6.484375 
Q 5.515625 14.40625 5.515625 27.296875 
Q 5.515625 40.1875 11.734375 48.09375 
Q 17.96875 56 27.875 56 
Q 33.9375 56 38.25 53.625 
Q 42.578125 51.265625 45.40625 46.390625 
z
M 14.796875 27.296875 
Q 14.796875 17.390625 18.875 11.75 
Q 22.953125 6.109375 30.078125 6.109375 
Q 37.203125 6.109375 41.296875 11.75 
Q 45.40625 17.390625 45.40625 27.296875 
Q 45.40625 37.203125 41.296875 42.84375 
Q 37.203125 48.484375 30.078125 48.484375 
Q 22.953125 48.484375 18.875 42.84375 
Q 14.796875 37.203125 14.796875 27.296875 
z
" id="DejaVuSans-100"/>
      </defs>
      <use xlink:href="#DejaVuSans-73"/>
      <use x="29.492188" xlink:href="#DejaVuSans-110"/>
      <use x="92.871094" xlink:href="#DejaVuSans-108"/>
      <use x="120.654297" xlink:href="#DejaVuSans-101"/>
      <use x="182.177734" xlink:href="#DejaVuSans-116"/>
      <use x="221.386719" xlink:href="#DejaVuSans-32"/>
      <use x="253.173828" xlink:href="#DejaVuSans-99"/>
      <use x="308.154297" xlink:href="#DejaVuSans-111"/>
      <use x="369.335938" xlink:href="#DejaVuSans-110"/>
      <use x="432.714844" xlink:href="#DejaVuSans-100"/>
      <use x="496.191406" xlink:href="#DejaVuSans-105"/>
      <use x="523.974609" xlink:href="#DejaVuSans-116"/>
      <use x="563.183594" xlink:href="#DejaVuSans-105"/>
      <use x="590.966797" xlink:href="#DejaVuSans-111"/>
      <use x="652.148438" xlink:href="#DejaVuSans-110"/>
      <use x="715.527344" xlink:href="#DejaVuSans-115"/>
     </g>
    </g>
   </g>
   <g id="PathCollection_1">
    <defs>
     <path d="M 0 2 
C 0.530406 2 1.03916 1.789267 1.414214 1.414214 
C 1.789267 1.03916 2 0.530406 2 0 
C 2 -0.530406 1.789267 -1.03916 1.414214 -1.414214 
C 1.03916 -1.789267 0.530406 -2 0 -2 
C -0.530406 -2 -1.03916 -1.789267 -1.414214 -1.414214 
C -1.789267 -1.03916 -2 -0.530406 -2 0 
C -2 0.530406 -1.789267 1.03916 -1.414214 1.414214 
C -1.03916 1.789267 -0.530406 2 0 2 
z
" id="m64a0190e5f"/>
    </defs>
    <g clip-path="url(#pb8f9ffee93)">
     <use x="53.253299" xlink:href="#m64a0190e5f" y="95.934391"/>
     <use x="59.274937" xlink:href="#m64a0190e5f" y="98.328318"/>
     <use x="65.296574" xlink:href="#m64a0190e5f" y="98.457053"/>
     <use x="71.318212" xlink:href="#m64a0190e5f" y="97.530648"/>
     <use x="77.33985" xlink:href="#m64a0190e5f" y="98.227326"/>
     <use x="83.361487" xlink:href="#m64a0190e5f" y="98.858702"/>
     <use x="89.383125" xlink:href="#m64a0190e5f" y="98.972868"/>
     <use x="95.404763" xlink:href="#m64a0190e5f" y="97.999051"/>
     <use x="101.426401" xlink:href="#m64a0190e5f" y="100.22184"/>
     <use x="107.448038" xlink:href="#m64a0190e5f" y="97.818763"/>
     <use x="113.469676" xlink:href="#m64a0190e5f" y="99.187751"/>
     <use x="119.491314" xlink:href="#m64a0190e5f" y="97.765911"/>
     <use x="125.512951" xlink:href="#m64a0190e5f" y="97.587519"/>
     <use x="131.534589" xlink:href="#m64a0190e5f" y="94.821946"/>
     <use x="137.556227" xlink:href="#m64a0190e5f" y="95.735473"/>
     <use x="143.577865" xlink:href="#m64a0190e5f" y="94.613511"/>
     <use x="149.599502" xlink:href="#m64a0190e5f" y="93.348572"/>
     <use x="155.62114" xlink:href="#m64a0190e5f" y="93.90068"/>
     <use x="161.642778" xlink:href="#m64a0190e5f" y="90.49715"/>
     <use x="167.664415" xlink:href="#m64a0190e5f" y="89.865293"/>
     <use x="173.686053" xlink:href="#m64a0190e5f" y="90.017428"/>
     <use x="179.707691" xlink:href="#m64a0190e5f" y="89.720863"/>
     <use x="185.729329" xlink:href="#m64a0190e5f" y="87.979399"/>
     <use x="191.750966" xlink:href="#m64a0190e5f" y="87.911673"/>
     <use x="197.772604" xlink:href="#m64a0190e5f" y="85.227942"/>
     <use x="203.794242" xlink:href="#m64a0190e5f" y="84.88816"/>
     <use x="209.815879" xlink:href="#m64a0190e5f" y="83.765855"/>
     <use x="215.837517" xlink:href="#m64a0190e5f" y="83.312142"/>
     <use x="221.859155" xlink:href="#m64a0190e5f" y="85.408348"/>
     <use x="227.880793" xlink:href="#m64a0190e5f" y="82.774453"/>
     <use x="233.90243" xlink:href="#m64a0190e5f" y="85.281862"/>
     <use x="239.924068" xlink:href="#m64a0190e5f" y="85.420992"/>
     <use x="245.945706" xlink:href="#m64a0190e5f" y="82.730873"/>
     <use x="251.967343" xlink:href="#m64a0190e5f" y="83.351325"/>
     <use x="257.988981" xlink:href="#m64a0190e5f" y="83.882573"/>
     <use x="264.010619" xlink:href="#m64a0190e5f" y="84.92914"/>
     <use x="270.032257" xlink:href="#m64a0190e5f" y="86.71371"/>
     <use x="276.053894" xlink:href="#m64a0190e5f" y="85.912232"/>
     <use x="282.075532" xlink:href="#m64a0190e5f" y="85.920062"/>
     <use x="288.09717" xlink:href="#m64a0190e5f" y="88.182836"/>
     <use x="294.118807" xlink:href="#m64a0190e5f" y="89.476189"/>
     <use x="300.140445" xlink:href="#m64a0190e5f" y="89.458014"/>
     <use x="306.162083" xlink:href="#m64a0190e5f" y="90.683372"/>
     <use x="312.183721" xlink:href="#m64a0190e5f" y="92.710548"/>
     <use x="318.205358" xlink:href="#m64a0190e5f" y="92.07527"/>
     <use x="324.226996" xlink:href="#m64a0190e5f" y="94.295117"/>
     <use x="330.248634" xlink:href="#m64a0190e5f" y="94.13458"/>
     <use x="336.270271" xlink:href="#m64a0190e5f" y="95.280606"/>
     <use x="342.291909" xlink:href="#m64a0190e5f" y="95.680297"/>
     <use x="348.313547" xlink:href="#m64a0190e5f" y="95.456831"/>
    </g>
   </g>
   <g id="PathCollection_2">
    <defs>
     <path d="M 0 2 
C 0.530406 2 1.03916 1.789267 1.414214 1.414214 
C 1.789267 1.03916 2 0.530406 2 0 
C 2 -0.530406 1.789267 -1.03916 1.414214 -1.414214 
C 1.03916 -1.789267 0.530406 -2 0 -2 
C -0.530406 -2 -1.03916 -1.789267 -1.414214 -1.414214 
C -1.789267 -1.03916 -2 -0.530406 -2 0 
C -2 0.530406 -1.789267 1.03916 -1.414214 1.414214 
C -1.03916 1.789267 -0.530406 2 0 2 
z
" id="m688e45bc6e"/>
    </defs>
    <g clip-path="url(#pb8f9ffee93)">
     <use style="fill:#ff0000;" x="53.253299" xlink:href="#m688e45bc6e" y="67.249585"/>
     <use style="fill:#ff0000;" x="59.274937" xlink:href="#m688e45bc6e" y="57.88971"/>
     <use style="fill:#ff0000;" x="65.296574" xlink:href="#m688e45bc6e" y="47.049456"/>
     <use style="fill:#ff0000;" x="71.318212" xlink:href="#m688e45bc6e" y="42.888674"/>
     <use style="fill:#ff0000;" x="77.33985" xlink:href="#m688e45bc6e" y="53.905531"/>
     <use style="fill:#ff0000;" x="83.361487" xlink:href="#m688e45bc6e" y="70.199155"/>
     <use style="fill:#ff0000;" x="89.383125" xlink:href="#m688e45bc6e" y="91.462848"/>
     <use style="fill:#ff0000;" x="95.404763" xlink:href="#m688e45bc6e" y="94.308131"/>
     <use style="fill:#ff0000;" x="101.426401" xlink:href="#m688e45bc6e" y="90.383073"/>
     <use style="fill:#ff0000;" x="107.448038" xlink:href="#m688e45bc6e" y="86.059236"/>
     <use style="fill:#ff0000;" x="113.469676" xlink:href="#m688e45bc6e" y="69.483944"/>
     <use style="fill:#ff0000;" x="119.491314" xlink:href="#m688e45bc6e" y="53.735854"/>
     <use style="fill:#ff0000;" x="125.512951" xlink:href="#m688e45bc6e" y="41.857614"/>
     <use style="fill:#ff0000;" x="131.534589" xlink:href="#m688e45bc6e" y="44.454729"/>
     <use style="fill:#ff0000;" x="137.556227" xlink:href="#m688e45bc6e" y="55.470154"/>
     <use style="fill:#ff0000;" x="143.577865" xlink:href="#m688e45bc6e" y="76.385949"/>
     <use style="fill:#ff0000;" x="149.599502" xlink:href="#m688e45bc6e" y="89.160939"/>
     <use style="fill:#ff0000;" x="155.62114" xlink:href="#m688e45bc6e" y="96.173101"/>
     <use style="fill:#ff0000;" x="161.642778" xlink:href="#m688e45bc6e" y="88.87109"/>
     <use style="fill:#ff0000;" x="167.664415" xlink:href="#m688e45bc6e" y="83.602491"/>
     <use style="fill:#ff0000;" x="173.686053" xlink:href="#m688e45bc6e" y="60.202191"/>
     <use style="fill:#ff0000;" x="179.707691" xlink:href="#m688e45bc6e" y="53.653757"/>
     <use style="fill:#ff0000;" x="185.729329" xlink:href="#m688e45bc6e" y="50.103782"/>
     <use style="fill:#ff0000;" x="191.750966" xlink:href="#m688e45bc6e" y="50.463919"/>
     <use style="fill:#ff0000;" x="197.772604" xlink:href="#m688e45bc6e" y="58.474016"/>
     <use style="fill:#ff0000;" x="203.794242" xlink:href="#m688e45bc6e" y="83.563524"/>
     <use style="fill:#ff0000;" x="209.815879" xlink:href="#m688e45bc6e" y="94.947323"/>
     <use style="fill:#ff0000;" x="215.837517" xlink:href="#m688e45bc6e" y="91.741151"/>
     <use style="fill:#ff0000;" x="221.859155" xlink:href="#m688e45bc6e" y="89.215143"/>
     <use style="fill:#ff0000;" x="227.880793" xlink:href="#m688e45bc6e" y="76.343186"/>
     <use style="fill:#ff0000;" x="233.90243" xlink:href="#m688e45bc6e" y="62.633161"/>
     <use style="fill:#ff0000;" x="239.924068" xlink:href="#m688e45bc6e" y="52.748009"/>
     <use style="fill:#ff0000;" x="245.945706" xlink:href="#m688e45bc6e" y="46.433734"/>
     <use style="fill:#ff0000;" x="251.967343" xlink:href="#m688e45bc6e" y="54.857587"/>
     <use style="fill:#ff0000;" x="257.988981" xlink:href="#m688e45bc6e" y="68.013099"/>
     <use style="fill:#ff0000;" x="264.010619" xlink:href="#m688e45bc6e" y="81.985144"/>
     <use style="fill:#ff0000;" x="270.032257" xlink:href="#m688e45bc6e" y="91.529531"/>
     <use style="fill:#ff0000;" x="276.053894" xlink:href="#m688e45bc6e" y="100.731327"/>
     <use style="fill:#ff0000;" x="282.075532" xlink:href="#m688e45bc6e" y="91.628768"/>
     <use style="fill:#ff0000;" x="288.09717" xlink:href="#m688e45bc6e" y="78.587091"/>
     <use style="fill:#ff0000;" x="294.118807" xlink:href="#m688e45bc6e" y="62.812274"/>
     <use style="fill:#ff0000;" x="300.140445" xlink:href="#m688e45bc6e" y="50.884142"/>
     <use style="fill:#ff0000;" x="306.162083" xlink:href="#m688e45bc6e" y="47.342876"/>
     <use style="fill:#ff0000;" x="312.183721" xlink:href="#m688e45bc6e" y="52.321087"/>
     <use style="fill:#ff0000;" x="318.205358" xlink:href="#m688e45bc6e" y="65.964906"/>
     <use style="fill:#ff0000;" x="324.226996" xlink:href="#m688e45bc6e" y="84.803362"/>
     <use style="fill:#ff0000;" x="330.248634" xlink:href="#m688e45bc6e" y="91.26385"/>
     <use style="fill:#ff0000;" x="336.270271" xlink:href="#m688e45bc6e" y="98.124412"/>
     <use style="fill:#ff0000;" x="342.291909" xlink:href="#m688e45bc6e" y="88.664576"/>
     <use style="fill:#ff0000;" x="348.313547" xlink:href="#m688e45bc6e" y="69.783833"/>
    </g>
   </g>
   <g id="patch_3">
    <path d="M 44.401491 178.305354 
L 44.401491 2.834646 
" style="fill:none;stroke:#000000;stroke-linecap:square;stroke-linejoin:miter;"/>
   </g>
   <g id="patch_4">
    <path d="M 44.401491 178.305354 
L 357.165354 178.305354 
" style="fill:none;stroke:#000000;stroke-linecap:square;stroke-linejoin:miter;"/>
   </g>
   <g id="line2d_21">
    <path clip-path="url(#pb8f9ffee93)" d="M 53.253299 96.701454 
L 62.733146 97.823483 
L 71.028013 98.57883 
L 79.322879 99.09094 
L 86.432764 99.316358 
L 93.54265 99.333877 
L 100.652535 99.143768 
L 108.947402 98.67676 
L 117.242268 97.981219 
L 126.722116 96.96272 
L 137.386944 95.595507 
L 149.236753 93.85122 
L 163.456524 91.505998 
L 188.341123 87.315714 
L 197.820971 85.963984 
L 206.115837 84.985286 
L 214.410703 84.230628 
L 222.70557 83.724388 
L 229.815455 83.503402 
L 236.925341 83.48756 
L 244.035226 83.676561 
L 252.330093 84.139946 
L 260.624959 84.828568 
L 271.289787 85.965272 
L 284.324577 87.612797 
L 298.544348 89.632875 
L 340.01868 95.742552 
L 348.313547 96.659797 
L 348.313547 96.659797 
" style="fill:none;stroke:#000000;"/>
   </g>
   <g id="line2d_22">
    <path clip-path="url(#pb8f9ffee93)" d="M 53.253299 68.89088 
L 56.808242 59.672908 
L 59.178203 54.096304 
L 60.363184 51.624762 
L 61.548165 49.423589 
L 62.733146 47.532258 
L 63.918127 45.985267 
L 65.103108 44.811189 
L 66.288089 44.032303 
L 67.47307 43.663644 
L 68.658051 43.713058 
L 69.843032 44.180725 
L 71.028013 45.059218 
L 72.212993 46.333741 
L 73.397974 47.982375 
L 74.582955 49.976727 
L 75.767936 52.282478 
L 78.137898 57.666097 
L 80.50786 63.7726 
L 86.432764 79.573516 
L 88.802726 85.084923 
L 89.987707 87.495102 
L 91.172688 89.628053 
L 92.357669 91.454008 
L 93.54265 92.947751 
L 94.727631 94.088947 
L 95.912612 94.862142 
L 97.097593 95.256886 
L 98.282574 95.267907 
L 99.467555 94.894995 
L 100.652535 94.143063 
L 101.837516 93.022202 
L 103.022497 91.547416 
L 104.207478 89.738831 
L 105.392459 87.621213 
L 107.762421 82.581515 
L 110.132383 76.715196 
L 118.427249 54.983901 
L 119.61223 52.392926 
L 120.797211 50.073339 
L 121.982192 48.065271 
L 123.167173 46.40364 
L 124.352154 45.117616 
L 125.537135 44.22984 
L 126.722116 43.755884 
L 127.907097 43.703834 
L 129.092077 44.07411 
L 130.277058 44.859585 
L 131.462039 46.045702 
L 132.64702 47.610661 
L 133.832001 49.526131 
L 135.016982 51.75791 
L 137.386944 57.00868 
L 139.756906 63.002698 
L 145.68181 78.615092 
L 148.051772 84.090592 
L 149.236753 86.492026 
L 150.421734 88.622731 
L 151.606715 90.453238 
L 152.791696 91.958691 
L 153.976677 93.119053 
L 155.161658 93.919262 
L 156.346639 94.349344 
L 157.531619 94.404358 
L 158.7166 94.084544 
L 159.901581 93.395263 
L 161.086562 92.346906 
L 162.271543 90.954926 
L 163.456524 89.239688 
L 164.641505 87.226229 
L 167.011467 82.427703 
L 169.381429 76.845978 
L 176.491314 59.005608 
L 178.861276 53.998075 
L 180.046257 51.880217 
L 181.231238 50.071782 
L 182.416219 48.605651 
L 183.6012 47.508898 
L 184.78618 46.801828 
L 185.971161 46.498036 
L 187.156142 46.603572 
L 188.341123 47.117119 
L 189.526104 48.029812 
L 190.711085 49.325599 
L 191.896066 50.98154 
L 193.081047 52.968465 
L 194.266028 55.251516 
L 196.63599 60.543195 
L 199.005951 66.497022 
L 203.745875 78.813228 
L 206.115837 84.401601 
L 208.485799 89.151162 
L 209.67078 91.122994 
L 210.855761 92.78741 
L 212.040742 94.121051 
L 213.225722 95.105409 
L 214.410703 95.726799 
L 215.595684 95.976685 
L 216.780665 95.851562 
L 217.965646 95.352989 
L 219.150627 94.487703 
L 220.335608 93.267445 
L 221.520589 91.708925 
L 222.70557 89.833885 
L 223.890551 87.66862 
L 226.260513 82.595381 
L 228.630474 76.785334 
L 235.74036 58.614608 
L 238.110322 53.629236 
L 239.295303 51.547376 
L 240.480284 49.790751 
L 241.665264 48.391404 
L 242.850245 47.375211 
L 244.035226 46.761398 
L 245.220207 46.561885 
L 246.405188 46.781223 
L 247.590169 47.416359 
L 248.77515 48.45657 
L 249.960131 49.884008 
L 251.145112 51.673936 
L 252.330093 53.795328 
L 253.515074 56.211706 
L 255.885035 61.760159 
L 259.439978 71.158537 
L 262.994921 80.64047 
L 265.364883 86.361513 
L 267.734845 91.206099 
L 268.919826 93.211772 
L 270.104806 94.901404 
L 271.289787 96.251876 
L 272.474768 97.245129 
L 273.659749 97.867986 
L 274.84473 98.112241 
L 276.029711 97.97487 
L 277.214692 97.457879 
L 278.399673 96.568366 
L 279.584654 95.318519 
L 280.769635 93.725319 
L 281.954616 91.810808 
L 283.139597 89.601699 
L 285.509558 84.428165 
L 287.87952 78.502488 
L 294.989406 59.897877 
L 297.359368 54.738328 
L 298.544348 52.56345 
L 299.729329 50.709613 
L 300.91431 49.208743 
L 302.099291 48.086773 
L 303.284272 47.362692 
L 304.469253 47.048479 
L 305.654234 47.148684 
L 306.839215 47.660195 
L 308.024196 48.572529 
L 309.209177 49.867837 
L 310.394158 51.521561 
L 311.579138 53.503036 
L 312.764119 55.776024 
L 315.134081 61.02871 
L 318.689024 69.967328 
L 322.243967 78.981984 
L 324.613929 84.394174 
L 325.798909 86.792703 
L 326.98389 88.937244 
L 328.168871 90.796262 
L 329.353852 92.342623 
L 330.538833 93.553927 
L 331.723814 94.412564 
L 332.908795 94.906046 
L 334.093776 95.026766 
L 335.278757 94.772329 
L 336.463738 94.145369 
L 337.648719 93.153703 
L 338.8337 91.810119 
L 340.01868 90.132466 
L 341.203661 88.143385 
L 342.388642 85.870247 
L 344.758604 80.602946 
L 347.128566 74.633036 
L 348.313547 71.494074 
L 348.313547 71.494074 
" style="fill:none;stroke:#ff0000;"/>
   </g>
   <g id="line2d_23">
    <path clip-path="url(#pb8f9ffee93)" d="M 53.253299 134.188452 
L 67.47307 154.02215 
L 73.397974 162.492768 
L 75.767936 165.601386 
L 78.137898 168.368697 
L 80.50786 170.655126 
L 81.692841 171.573163 
L 82.877822 172.317389 
L 84.062803 172.870609 
L 85.247784 173.216371 
L 86.432764 173.339202 
L 87.617745 173.224826 
L 88.802726 172.86038 
L 89.987707 172.234627 
L 91.172688 171.338145 
L 92.357669 170.163528 
L 93.54265 168.705566 
L 94.727631 166.961423 
L 95.912612 164.930805 
L 97.097593 162.616127 
L 98.282574 160.022653 
L 100.652535 154.035457 
L 103.022497 147.073111 
L 105.392459 139.291577 
L 108.947402 126.552664 
L 114.872306 104.837034 
L 117.242268 96.944947 
L 119.61223 90.0218 
L 120.797211 87.023659 
L 121.982192 84.38232 
L 123.167173 82.128957 
L 124.352154 80.290178 
L 125.537135 78.887459 
L 126.722116 77.936657 
L 127.907097 77.447651 
L 129.092077 77.424098 
L 130.277058 77.863331 
L 131.462039 78.756392 
L 132.64702 80.088205 
L 133.832001 81.837882 
L 135.016982 83.979143 
L 136.201963 86.480848 
L 138.571925 92.420488 
L 140.941887 99.335325 
L 144.496829 110.756204 
L 149.236753 126.056228 
L 151.606715 132.999182 
L 153.976677 139.107229 
L 155.161658 141.78065 
L 156.346639 144.171134 
L 157.531619 146.2611 
L 158.7166 148.036413 
L 159.901581 149.486342 
L 161.086562 150.603499 
L 162.271543 151.383766 
L 163.456524 151.826199 
L 164.641505 151.932939 
L 165.826486 151.709103 
L 167.011467 151.162672 
L 168.196448 150.304371 
L 169.381429 149.147535 
L 170.566409 147.707968 
L 171.75139 146.003785 
L 172.936371 144.055227 
L 175.306333 139.51541 
L 177.676295 134.284939 
L 181.231238 125.617789 
L 187.156142 110.825524 
L 189.526104 105.375048 
L 191.896066 100.428365 
L 194.266028 96.086292 
L 196.63599 92.401146 
L 199.005951 89.376317 
L 201.375913 86.96986 
L 203.745875 85.101698 
L 206.115837 83.663645 
L 208.485799 82.531196 
L 213.225722 80.677725 
L 216.780665 79.223047 
L 220.335608 77.457414 
L 223.890551 75.345038 
L 231.000436 70.892702 
L 233.370398 69.763301 
L 234.555379 69.346449 
L 235.74036 69.053402 
L 236.925341 68.902415 
L 238.110322 68.910699 
L 239.295303 69.094006 
L 240.480284 69.466232 
L 241.665264 70.039043 
L 242.850245 70.821545 
L 244.035226 71.819994 
L 245.220207 73.037563 
L 246.405188 74.47417 
L 247.590169 76.126375 
L 249.960131 80.046886 
L 252.330093 84.704846 
L 254.700055 89.957261 
L 258.254997 98.540753 
L 262.994921 110.143026 
L 265.364883 115.492686 
L 267.734845 120.250297 
L 270.104806 124.226481 
L 271.289787 125.871296 
L 272.474768 127.265219 
L 273.659749 128.394983 
L 274.84473 129.250091 
L 276.029711 129.822919 
L 277.214692 130.108802 
L 278.399673 130.106103 
L 279.584654 129.816257 
L 280.769635 129.243808 
L 281.954616 128.396414 
L 283.139597 127.284846 
L 284.324577 125.922951 
L 285.509558 124.327601 
L 287.87952 120.518583 
L 290.249482 116.049043 
L 293.804425 108.618356 
L 297.359368 101.118567 
L 299.729329 96.549405 
L 302.099291 92.641514 
L 303.284272 91.011854 
L 304.469253 89.633703 
L 305.654234 88.529304 
L 306.839215 87.716983 
L 308.024196 87.210794 
L 309.209177 87.020242 
L 310.394158 87.150106 
L 311.579138 87.600351 
L 312.764119 88.366148 
L 313.9491 89.437995 
L 315.134081 90.801927 
L 316.319062 92.439825 
L 317.504043 94.329797 
L 319.874005 98.762302 
L 322.243967 103.867215 
L 325.798909 112.214541 
L 329.353852 120.590833 
L 331.723814 125.777897 
L 334.093776 130.401734 
L 336.463738 134.2979 
L 337.648719 135.934478 
L 338.8337 137.348946 
L 340.01868 138.534412 
L 341.203661 139.48714 
L 342.388642 140.206525 
L 343.573623 140.695044 
L 344.758604 140.958178 
L 345.943585 141.004313 
L 347.128566 140.844619 
L 348.313547 140.4929 
L 348.313547 140.4929 
" style="fill:none;stroke:#000000;stroke-dasharray:3.7,1.6;stroke-dashoffset:0;"/>
   </g>
   <g id="line2d_24">
    <path clip-path="url(#pb8f9ffee93)" d="M 53.253299 79.146714 
L 57.993222 75.436779 
L 60.363184 73.897902 
L 62.733146 72.745564 
L 63.918127 72.348845 
L 65.103108 72.086852 
L 66.288089 71.968501 
L 67.47307 72.000604 
L 68.658051 72.18775 
L 69.843032 72.53223 
L 71.028013 73.034 
L 72.212993 73.690683 
L 73.397974 74.497607 
L 75.767936 76.532552 
L 78.137898 79.059566 
L 80.50786 81.971346 
L 84.062803 86.775411 
L 88.802726 93.237612 
L 91.172688 96.168454 
L 93.54265 98.723933 
L 95.912612 100.793896 
L 97.097593 101.618364 
L 98.282574 102.290364 
L 99.467555 102.802825 
L 100.652535 103.150349 
L 101.837516 103.329228 
L 103.022497 103.337458 
L 104.207478 103.174725 
L 105.392459 102.842381 
L 106.57744 102.343402 
L 107.762421 101.682341 
L 108.947402 100.865253 
L 111.317364 98.794242 
L 113.687326 96.205493 
L 116.057287 93.191663 
L 119.61223 88.107757 
L 129.092077 73.96534 
L 131.462039 70.860311 
L 133.832001 68.085094 
L 136.201963 65.684892 
L 138.571925 63.683635 
L 140.941887 62.084924 
L 143.311848 60.874366 
L 145.68181 60.023065 
L 148.051772 59.491917 
L 150.421734 59.236297 
L 152.791696 59.210742 
L 155.161658 59.373219 
L 158.7166 59.895347 
L 162.271543 60.687154 
L 165.826486 61.726916 
L 169.381429 63.042191 
L 171.75139 64.100529 
L 174.121352 65.326768 
L 176.491314 66.736966 
L 178.861276 68.339479 
L 182.416219 71.092767 
L 185.971161 74.192318 
L 194.266028 81.690953 
L 196.63599 83.512084 
L 199.005951 84.996393 
L 200.190932 85.57704 
L 201.375913 86.031504 
L 202.560894 86.346361 
L 203.745875 86.508758 
L 204.930856 86.506583 
L 206.115837 86.328629 
L 207.300818 85.964753 
L 208.485799 85.406037 
L 209.67078 84.644931 
L 210.855761 83.675403 
L 212.040742 82.493073 
L 213.225722 81.09534 
L 214.410703 79.481505 
L 215.595684 77.652878 
L 217.965646 73.367108 
L 220.335608 68.292091 
L 222.70557 62.518772 
L 225.075532 56.175626 
L 228.630474 45.962658 
L 233.370398 32.155945 
L 235.74036 25.717872 
L 238.110322 19.931049 
L 240.480284 15.042646 
L 241.665264 13.006483 
L 242.850245 11.276062 
L 244.035226 9.8733 
L 245.220207 8.81695 
L 246.405188 8.122282 
L 247.590169 7.800798 
L 248.77515 7.860023 
L 249.960131 8.303356 
L 251.145112 9.130001 
L 252.330093 10.334965 
L 253.515074 11.909139 
L 254.700055 13.839444 
L 255.885035 16.109055 
L 257.070016 18.697676 
L 259.439978 24.735474 
L 261.80994 31.734834 
L 264.179902 39.447362 
L 268.919826 55.951483 
L 272.474768 68.250252 
L 274.84473 75.970344 
L 277.214692 83.077551 
L 279.584654 89.413443 
L 281.954616 94.855756 
L 283.139597 97.213515 
L 284.324577 99.318326 
L 285.509558 101.164833 
L 286.694539 102.749708 
L 287.87952 104.071568 
L 289.064501 105.130876 
L 290.249482 105.929842 
L 291.434463 106.472318 
L 292.619444 106.763689 
L 293.804425 106.810761 
L 294.989406 106.621646 
L 296.174387 106.205648 
L 297.359368 105.573141 
L 298.544348 104.735454 
L 299.729329 103.704746 
L 300.91431 102.493885 
L 303.284272 99.585983 
L 305.654234 96.1242 
L 308.024196 92.224531 
L 311.579138 85.806571 
L 323.428948 63.674039 
L 325.798909 59.743529 
L 328.168871 56.130168 
L 330.538833 52.885301 
L 332.908795 50.056921 
L 335.278757 47.691621 
L 337.648719 45.836064 
L 338.8337 45.114236 
L 340.01868 44.5377 
L 341.203661 44.112468 
L 342.388642 43.844516 
L 343.573623 43.739708 
L 344.758604 43.803722 
L 345.943585 44.041945 
L 347.128566 44.459365 
L 348.313547 45.060447 
L 348.313547 45.060447 
" style="fill:none;stroke:#ff0000;stroke-dasharray:3.7,1.6;stroke-dashoffset:0;"/>
   </g>
   <g id="legend_1">
    <g id="line2d_25">
     <path d="M 234.281604 23.352771 
L 258.281604 23.352771 
" style="fill:none;"/>
    </g>
    <g id="line2d_26">
     <defs>
      <path d="M 0 4.8 
C 1.272975 4.8 2.493983 4.294242 3.394113 3.394113 
C 4.294242 2.493983 4.8 1.272975 4.8 0 
C 4.8 -1.272975 4.294242 -2.493983 3.394113 -3.394113 
C 2.493983 -4.294242 1.272975 -4.8 0 -4.8 
C -1.272975 -4.8 -2.493983 -4.294242 -3.394113 -3.394113 
C -4.294242 -2.493983 -4.8 -1.272975 -4.8 0 
C -4.8 1.272975 -4.294242 2.493983 -3.394113 3.394113 
C -2.493983 4.294242 -1.272975 4.8 0 4.8 
z
" id="m19d350fab3"/>
     </defs>
     <g>
      <use x="246.281604" xlink:href="#m19d350fab3" y="23.352771"/>
     </g>
    </g>
    <g id="text_13">
     <!-- Groundtruth -->
     <g transform="translate(267.881604 27.552771)scale(0.12 -0.12)">
      <defs>
       <path d="M 59.515625 10.40625 
L 59.515625 29.984375 
L 43.40625 29.984375 
L 43.40625 38.09375 
L 69.28125 38.09375 
L 69.28125 6.78125 
Q 63.578125 2.734375 56.6875 0.65625 
Q 49.8125 -1.421875 42 -1.421875 
Q 24.90625 -1.421875 15.25 8.5625 
Q 5.609375 18.5625 5.609375 36.375 
Q 5.609375 54.25 15.25 64.234375 
Q 24.90625 74.21875 42 74.21875 
Q 49.125 74.21875 55.546875 72.453125 
Q 61.96875 70.703125 67.390625 67.28125 
L 67.390625 56.78125 
Q 61.921875 61.421875 55.765625 63.765625 
Q 49.609375 66.109375 42.828125 66.109375 
Q 29.4375 66.109375 22.71875 58.640625 
Q 16.015625 51.171875 16.015625 36.375 
Q 16.015625 21.625 22.71875 14.15625 
Q 29.4375 6.6875 42.828125 6.6875 
Q 48.046875 6.6875 52.140625 7.59375 
Q 56.25 8.5 59.515625 10.40625 
z
" id="DejaVuSans-71"/>
       <path d="M 41.109375 46.296875 
Q 39.59375 47.171875 37.8125 47.578125 
Q 36.03125 48 33.890625 48 
Q 26.265625 48 22.1875 43.046875 
Q 18.109375 38.09375 18.109375 28.8125 
L 18.109375 0 
L 9.078125 0 
L 9.078125 54.6875 
L 18.109375 54.6875 
L 18.109375 46.1875 
Q 20.953125 51.171875 25.484375 53.578125 
Q 30.03125 56 36.53125 56 
Q 37.453125 56 38.578125 55.875 
Q 39.703125 55.765625 41.0625 55.515625 
z
" id="DejaVuSans-114"/>
       <path d="M 8.5 21.578125 
L 8.5 54.6875 
L 17.484375 54.6875 
L 17.484375 21.921875 
Q 17.484375 14.15625 20.5 10.265625 
Q 23.53125 6.390625 29.59375 6.390625 
Q 36.859375 6.390625 41.078125 11.03125 
Q 45.3125 15.671875 45.3125 23.6875 
L 45.3125 54.6875 
L 54.296875 54.6875 
L 54.296875 0 
L 45.3125 0 
L 45.3125 8.40625 
Q 42.046875 3.421875 37.71875 1 
Q 33.40625 -1.421875 27.6875 -1.421875 
Q 18.265625 -1.421875 13.375 4.4375 
Q 8.5 10.296875 8.5 21.578125 
z
M 31.109375 56 
z
" id="DejaVuSans-117"/>
       <path d="M 54.890625 33.015625 
L 54.890625 0 
L 45.90625 0 
L 45.90625 32.71875 
Q 45.90625 40.484375 42.875 44.328125 
Q 39.84375 48.1875 33.796875 48.1875 
Q 26.515625 48.1875 22.3125 43.546875 
Q 18.109375 38.921875 18.109375 30.90625 
L 18.109375 0 
L 9.078125 0 
L 9.078125 75.984375 
L 18.109375 75.984375 
L 18.109375 46.1875 
Q 21.34375 51.125 25.703125 53.5625 
Q 30.078125 56 35.796875 56 
Q 45.21875 56 50.046875 50.171875 
Q 54.890625 44.34375 54.890625 33.015625 
z
" id="DejaVuSans-104"/>
      </defs>
      <use xlink:href="#DejaVuSans-71"/>
      <use x="77.490234" xlink:href="#DejaVuSans-114"/>
      <use x="116.353516" xlink:href="#DejaVuSans-111"/>
      <use x="177.535156" xlink:href="#DejaVuSans-117"/>
      <use x="240.914062" xlink:href="#DejaVuSans-110"/>
      <use x="304.292969" xlink:href="#DejaVuSans-100"/>
      <use x="367.769531" xlink:href="#DejaVuSans-116"/>
      <use x="406.978516" xlink:href="#DejaVuSans-114"/>
      <use x="448.091797" xlink:href="#DejaVuSans-117"/>
      <use x="511.470703" xlink:href="#DejaVuSans-116"/>
      <use x="550.679688" xlink:href="#DejaVuSans-104"/>
     </g>
    </g>
    <g id="line2d_27">
     <path d="M 234.281604 40.966521 
L 258.281604 40.966521 
" style="fill:none;stroke:#000000;stroke-linejoin:miter;stroke-width:1.5;"/>
    </g>
    <g id="line2d_28"/>
    <g id="text_14">
     <!-- Learned -->
     <g transform="translate(267.881604 45.166521)scale(0.12 -0.12)">
      <defs>
       <path d="M 9.8125 72.90625 
L 19.671875 72.90625 
L 19.671875 8.296875 
L 55.171875 8.296875 
L 55.171875 0 
L 9.8125 0 
z
" id="DejaVuSans-76"/>
       <path d="M 34.28125 27.484375 
Q 23.390625 27.484375 19.1875 25 
Q 14.984375 22.515625 14.984375 16.5 
Q 14.984375 11.71875 18.140625 8.90625 
Q 21.296875 6.109375 26.703125 6.109375 
Q 34.1875 6.109375 38.703125 11.40625 
Q 43.21875 16.703125 43.21875 25.484375 
L 43.21875 27.484375 
z
M 52.203125 31.203125 
L 52.203125 0 
L 43.21875 0 
L 43.21875 8.296875 
Q 40.140625 3.328125 35.546875 0.953125 
Q 30.953125 -1.421875 24.3125 -1.421875 
Q 15.921875 -1.421875 10.953125 3.296875 
Q 6 8.015625 6 15.921875 
Q 6 25.140625 12.171875 29.828125 
Q 18.359375 34.515625 30.609375 34.515625 
L 43.21875 34.515625 
L 43.21875 35.40625 
Q 43.21875 41.609375 39.140625 45 
Q 35.0625 48.390625 27.6875 48.390625 
Q 23 48.390625 18.546875 47.265625 
Q 14.109375 46.140625 10.015625 43.890625 
L 10.015625 52.203125 
Q 14.9375 54.109375 19.578125 55.046875 
Q 24.21875 56 28.609375 56 
Q 40.484375 56 46.34375 49.84375 
Q 52.203125 43.703125 52.203125 31.203125 
z
" id="DejaVuSans-97"/>
      </defs>
      <use xlink:href="#DejaVuSans-76"/>
      <use x="53.962891" xlink:href="#DejaVuSans-101"/>
      <use x="115.486328" xlink:href="#DejaVuSans-97"/>
      <use x="176.765625" xlink:href="#DejaVuSans-114"/>
      <use x="216.128906" xlink:href="#DejaVuSans-110"/>
      <use x="279.507812" xlink:href="#DejaVuSans-101"/>
      <use x="341.03125" xlink:href="#DejaVuSans-100"/>
     </g>
    </g>
    <g id="line2d_29">
     <path d="M 234.281604 58.580271 
L 258.281604 58.580271 
" style="fill:none;stroke:#000000;stroke-dasharray:5.55,2.4;stroke-dashoffset:0;stroke-linejoin:miter;stroke-width:1.5;"/>
    </g>
    <g id="line2d_30"/>
    <g id="text_15">
     <!-- Initial -->
     <g transform="translate(267.881604 62.780271)scale(0.12 -0.12)">
      <use xlink:href="#DejaVuSans-73"/>
      <use x="29.492188" xlink:href="#DejaVuSans-110"/>
      <use x="92.871094" xlink:href="#DejaVuSans-105"/>
      <use x="120.654297" xlink:href="#DejaVuSans-116"/>
      <use x="159.863281" xlink:href="#DejaVuSans-105"/>
      <use x="187.646484" xlink:href="#DejaVuSans-97"/>
      <use x="248.925781" xlink:href="#DejaVuSans-108"/>
     </g>
    </g>
   </g>
  </g>
 </g>
 <defs>
  <clipPath id="pb8f9ffee93">
   <rect height="175.470709" width="312.763863" x="44.401491" y="2.834646"/>
  </clipPath>
 </defs>
</svg>
