<?xml version="1.0" encoding="utf-8" standalone="no"?>
<!DOCTYPE svg PUBLIC "-//W3C//DTD SVG 1.1//EN"
  "http://www.w3.org/Graphics/SVG/1.1/DTD/svg11.dtd">
<!-- Created with matplotlib (https://matplotlib.org/) -->
<svg height="288pt" version="1.1" viewBox="0 0 648 288" width="648pt" xmlns="http://www.w3.org/2000/svg" xmlns:xlink="http://www.w3.org/1999/xlink">
 <metadata>
  <rdf:RDF xmlns:cc="http://creativecommons.org/ns#" xmlns:dc="http://purl.org/dc/elements/1.1/" xmlns:rdf="http://www.w3.org/1999/02/22-rdf-syntax-ns#">
   <cc:Work>
    <dc:type rdf:resource="http://purl.org/dc/dcmitype/StillImage"/>
    <dc:date>2021-04-29T15:01:30.036290</dc:date>
    <dc:format>image/svg+xml</dc:format>
    <dc:creator>
     <cc:Agent>
      <dc:title>Matplotlib v3.3.2, https://matplotlib.org/</dc:title>
     </cc:Agent>
    </dc:creator>
   </cc:Work>
  </rdf:RDF>
 </metadata>
 <defs>
  <style type="text/css">*{stroke-linecap:butt;stroke-linejoin:round;}</style>
 </defs>
 <g id="figure_1">
  <g id="patch_1">
   <path d="M 0 288 
L 648 288 
L 648 0 
L 0 0 
z
" style="fill:#ffffff;"/>
  </g>
  <g id="axes_1">
   <g id="patch_2">
    <path d="M 75.363068 81.545354 
L 645.165354 81.545354 
L 645.165354 2.834646 
L 75.363068 2.834646 
z
" style="fill:#ffffff;"/>
   </g>
   <g id="matplotlib.axis_1">
    <g id="xtick_1"/>
    <g id="xtick_2"/>
    <g id="xtick_3"/>
    <g id="xtick_4"/>
    <g id="xtick_5"/>
    <g id="xtick_6"/>
   </g>
   <g id="matplotlib.axis_2">
    <g id="ytick_1">
     <g id="line2d_1">
      <path clip-path="url(#pe648adc878)" d="M 75.363068 67.664767 
L 645.165354 67.664767 
" style="fill:none;stroke:#000000;stroke-linecap:square;stroke-opacity:0.1;stroke-width:0.5;"/>
     </g>
     <g id="line2d_2">
      <defs>
       <path d="M 0 0 
L 2.5 0 
" id="mc505ca0b3c" style="stroke:#000000;stroke-width:0.5;"/>
      </defs>
      <g>
       <use style="stroke:#000000;stroke-width:0.5;" x="75.363068" xlink:href="#mc505ca0b3c" y="67.664767"/>
      </g>
     </g>
     <g id="line2d_3">
      <defs>
       <path d="M 0 0 
L -2.5 0 
" id="md90efde9b1" style="stroke:#000000;stroke-width:0.5;"/>
      </defs>
      <g>
       <use style="stroke:#000000;stroke-width:0.5;" x="645.165354" xlink:href="#md90efde9b1" y="67.664767"/>
      </g>
     </g>
     <g id="text_1">
      <!-- $\mathregular{0}$ -->
      <g transform="translate(64.183068 72.223829)scale(0.12 -0.12)">
       <defs>
        <path d="M 31.78125 66.40625 
Q 24.171875 66.40625 20.328125 58.90625 
Q 16.5 51.421875 16.5 36.375 
Q 16.5 21.390625 20.328125 13.890625 
Q 24.171875 6.390625 31.78125 6.390625 
Q 39.453125 6.390625 43.28125 13.890625 
Q 47.125 21.390625 47.125 36.375 
Q 47.125 51.421875 43.28125 58.90625 
Q 39.453125 66.40625 31.78125 66.40625 
z
M 31.78125 74.21875 
Q 44.046875 74.21875 50.515625 64.515625 
Q 56.984375 54.828125 56.984375 36.375 
Q 56.984375 17.96875 50.515625 8.265625 
Q 44.046875 -1.421875 31.78125 -1.421875 
Q 19.53125 -1.421875 13.0625 8.265625 
Q 6.59375 17.96875 6.59375 36.375 
Q 6.59375 54.828125 13.0625 64.515625 
Q 19.53125 74.21875 31.78125 74.21875 
z
" id="DejaVuSans-48"/>
       </defs>
       <use transform="translate(0 0.78125)" xlink:href="#DejaVuSans-48"/>
      </g>
     </g>
    </g>
    <g id="ytick_2">
     <g id="line2d_4">
      <path clip-path="url(#pe648adc878)" d="M 75.363068 51.016304 
L 645.165354 51.016304 
" style="fill:none;stroke:#000000;stroke-linecap:square;stroke-opacity:0.1;stroke-width:0.5;"/>
     </g>
     <g id="line2d_5">
      <g>
       <use style="stroke:#000000;stroke-width:0.5;" x="75.363068" xlink:href="#mc505ca0b3c" y="51.016304"/>
      </g>
     </g>
     <g id="line2d_6">
      <g>
       <use style="stroke:#000000;stroke-width:0.5;" x="645.165354" xlink:href="#md90efde9b1" y="51.016304"/>
      </g>
     </g>
     <g id="text_2">
      <!-- $\mathregular{2×10^{-6}}$ -->
      <g transform="translate(26.023068 55.575366)scale(0.12 -0.12)">
       <defs>
        <path d="M 19.1875 8.296875 
L 53.609375 8.296875 
L 53.609375 0 
L 7.328125 0 
L 7.328125 8.296875 
Q 12.9375 14.109375 22.625 23.890625 
Q 32.328125 33.6875 34.8125 36.53125 
Q 39.546875 41.84375 41.421875 45.53125 
Q 43.3125 49.21875 43.3125 52.78125 
Q 43.3125 58.59375 39.234375 62.25 
Q 35.15625 65.921875 28.609375 65.921875 
Q 23.96875 65.921875 18.8125 64.3125 
Q 13.671875 62.703125 7.8125 59.421875 
L 7.8125 69.390625 
Q 13.765625 71.78125 18.9375 73 
Q 24.125 74.21875 28.421875 74.21875 
Q 39.75 74.21875 46.484375 68.546875 
Q 53.21875 62.890625 53.21875 53.421875 
Q 53.21875 48.921875 51.53125 44.890625 
Q 49.859375 40.875 45.40625 35.40625 
Q 44.1875 33.984375 37.640625 27.21875 
Q 31.109375 20.453125 19.1875 8.296875 
z
" id="DejaVuSans-50"/>
        <path d="M 70.125 53.71875 
L 47.796875 31.296875 
L 70.125 8.984375 
L 64.3125 3.078125 
L 41.890625 25.484375 
L 19.484375 3.078125 
L 13.71875 8.984375 
L 35.984375 31.296875 
L 13.71875 53.71875 
L 19.484375 59.625 
L 41.890625 37.203125 
L 64.3125 59.625 
z
" id="DejaVuSans-215"/>
        <path d="M 12.40625 8.296875 
L 28.515625 8.296875 
L 28.515625 63.921875 
L 10.984375 60.40625 
L 10.984375 69.390625 
L 28.421875 72.90625 
L 38.28125 72.90625 
L 38.28125 8.296875 
L 54.390625 8.296875 
L 54.390625 0 
L 12.40625 0 
z
" id="DejaVuSans-49"/>
        <path d="M 10.59375 35.5 
L 73.1875 35.5 
L 73.1875 27.203125 
L 10.59375 27.203125 
z
" id="DejaVuSans-8722"/>
        <path d="M 33.015625 40.375 
Q 26.375 40.375 22.484375 35.828125 
Q 18.609375 31.296875 18.609375 23.390625 
Q 18.609375 15.53125 22.484375 10.953125 
Q 26.375 6.390625 33.015625 6.390625 
Q 39.65625 6.390625 43.53125 10.953125 
Q 47.40625 15.53125 47.40625 23.390625 
Q 47.40625 31.296875 43.53125 35.828125 
Q 39.65625 40.375 33.015625 40.375 
z
M 52.59375 71.296875 
L 52.59375 62.3125 
Q 48.875 64.0625 45.09375 64.984375 
Q 41.3125 65.921875 37.59375 65.921875 
Q 27.828125 65.921875 22.671875 59.328125 
Q 17.53125 52.734375 16.796875 39.40625 
Q 19.671875 43.65625 24.015625 45.921875 
Q 28.375 48.1875 33.59375 48.1875 
Q 44.578125 48.1875 50.953125 41.515625 
Q 57.328125 34.859375 57.328125 23.390625 
Q 57.328125 12.15625 50.6875 5.359375 
Q 44.046875 -1.421875 33.015625 -1.421875 
Q 20.359375 -1.421875 13.671875 8.265625 
Q 6.984375 17.96875 6.984375 36.375 
Q 6.984375 53.65625 15.1875 63.9375 
Q 23.390625 74.21875 37.203125 74.21875 
Q 40.921875 74.21875 44.703125 73.484375 
Q 48.484375 72.75 52.59375 71.296875 
z
" id="DejaVuSans-54"/>
       </defs>
       <use transform="translate(0 0.765625)" xlink:href="#DejaVuSans-50"/>
       <use transform="translate(63.623047 0.765625)" xlink:href="#DejaVuSans-215"/>
       <use transform="translate(147.412109 0.765625)" xlink:href="#DejaVuSans-49"/>
       <use transform="translate(211.035156 0.765625)" xlink:href="#DejaVuSans-48"/>
       <use transform="translate(275.615234 39.046875)scale(0.7)" xlink:href="#DejaVuSans-8722"/>
       <use transform="translate(334.267578 39.046875)scale(0.7)" xlink:href="#DejaVuSans-54"/>
      </g>
     </g>
    </g>
    <g id="ytick_3">
     <g id="line2d_7">
      <path clip-path="url(#pe648adc878)" d="M 75.363068 34.367841 
L 645.165354 34.367841 
" style="fill:none;stroke:#000000;stroke-linecap:square;stroke-opacity:0.1;stroke-width:0.5;"/>
     </g>
     <g id="line2d_8">
      <g>
       <use style="stroke:#000000;stroke-width:0.5;" x="75.363068" xlink:href="#mc505ca0b3c" y="34.367841"/>
      </g>
     </g>
     <g id="line2d_9">
      <g>
       <use style="stroke:#000000;stroke-width:0.5;" x="645.165354" xlink:href="#md90efde9b1" y="34.367841"/>
      </g>
     </g>
     <g id="text_3">
      <!-- $\mathregular{4×10^{-6}}$ -->
      <g transform="translate(26.023068 38.926903)scale(0.12 -0.12)">
       <defs>
        <path d="M 37.796875 64.3125 
L 12.890625 25.390625 
L 37.796875 25.390625 
z
M 35.203125 72.90625 
L 47.609375 72.90625 
L 47.609375 25.390625 
L 58.015625 25.390625 
L 58.015625 17.1875 
L 47.609375 17.1875 
L 47.609375 0 
L 37.796875 0 
L 37.796875 17.1875 
L 4.890625 17.1875 
L 4.890625 26.703125 
z
" id="DejaVuSans-52"/>
       </defs>
       <use transform="translate(0 0.765625)" xlink:href="#DejaVuSans-52"/>
       <use transform="translate(63.623047 0.765625)" xlink:href="#DejaVuSans-215"/>
       <use transform="translate(147.412109 0.765625)" xlink:href="#DejaVuSans-49"/>
       <use transform="translate(211.035156 0.765625)" xlink:href="#DejaVuSans-48"/>
       <use transform="translate(275.615234 39.046875)scale(0.7)" xlink:href="#DejaVuSans-8722"/>
       <use transform="translate(334.267578 39.046875)scale(0.7)" xlink:href="#DejaVuSans-54"/>
      </g>
     </g>
    </g>
    <g id="ytick_4">
     <g id="line2d_10">
      <path clip-path="url(#pe648adc878)" d="M 75.363068 17.719378 
L 645.165354 17.719378 
" style="fill:none;stroke:#000000;stroke-linecap:square;stroke-opacity:0.1;stroke-width:0.5;"/>
     </g>
     <g id="line2d_11">
      <g>
       <use style="stroke:#000000;stroke-width:0.5;" x="75.363068" xlink:href="#mc505ca0b3c" y="17.719378"/>
      </g>
     </g>
     <g id="line2d_12">
      <g>
       <use style="stroke:#000000;stroke-width:0.5;" x="645.165354" xlink:href="#md90efde9b1" y="17.719378"/>
      </g>
     </g>
     <g id="text_4">
      <!-- $\mathregular{6×10^{-6}}$ -->
      <g transform="translate(26.023068 22.278441)scale(0.12 -0.12)">
       <use transform="translate(0 0.765625)" xlink:href="#DejaVuSans-54"/>
       <use transform="translate(63.623047 0.765625)" xlink:href="#DejaVuSans-215"/>
       <use transform="translate(147.412109 0.765625)" xlink:href="#DejaVuSans-49"/>
       <use transform="translate(211.035156 0.765625)" xlink:href="#DejaVuSans-48"/>
       <use transform="translate(275.615234 39.046875)scale(0.7)" xlink:href="#DejaVuSans-8722"/>
       <use transform="translate(334.267578 39.046875)scale(0.7)" xlink:href="#DejaVuSans-54"/>
      </g>
     </g>
    </g>
    <g id="text_5">
     <!-- $Y_{CH_4}$ -->
     <g transform="translate(17.543068 58.11)rotate(-90)scale(0.16 -0.16)">
      <defs>
       <path d="M 6.296875 72.90625 
L 16.890625 72.90625 
L 30.515625 42.921875 
L 56.5 72.90625 
L 67.578125 72.90625 
L 34.515625 34.71875 
L 27.78125 0 
L 17.921875 0 
L 24.609375 34.71875 
z
" id="DejaVuSans-Oblique-89"/>
       <path d="M 69.484375 67.28125 
L 67.484375 56.890625 
Q 62.796875 61.625 57.546875 63.921875 
Q 52.296875 66.21875 46.1875 66.21875 
Q 37.84375 66.21875 31.515625 62.203125 
Q 25.203125 58.203125 20.609375 50 
Q 17.671875 44.734375 16.125 38.84375 
Q 14.59375 32.953125 14.59375 27 
Q 14.59375 17.046875 19.75 11.8125 
Q 24.90625 6.59375 34.71875 6.59375 
Q 41.5 6.59375 47.75 8.765625 
Q 54 10.9375 59.90625 15.28125 
L 57.625 3.609375 
Q 51.8125 1.125 45.875 -0.140625 
Q 39.9375 -1.421875 33.984375 -1.421875 
Q 19.96875 -1.421875 12.078125 6.1875 
Q 4.203125 13.8125 4.203125 27.390625 
Q 4.203125 36.078125 7.203125 44.46875 
Q 10.203125 52.875 15.828125 59.8125 
Q 21.78125 67.1875 29.421875 70.703125 
Q 37.0625 74.21875 47.21875 74.21875 
Q 53.46875 74.21875 59.0625 72.484375 
Q 64.65625 70.75 69.484375 67.28125 
z
" id="DejaVuSans-Oblique-67"/>
       <path d="M 16.890625 72.90625 
L 26.8125 72.90625 
L 21 43.015625 
L 56.78125 43.015625 
L 62.59375 72.90625 
L 72.515625 72.90625 
L 58.296875 0 
L 48.390625 0 
L 55.171875 34.71875 
L 19.390625 34.71875 
L 12.59375 0 
L 2.6875 0 
z
" id="DejaVuSans-Oblique-72"/>
      </defs>
      <use transform="translate(0 0.09375)" xlink:href="#DejaVuSans-Oblique-89"/>
      <use transform="translate(61.083984 -16.3125)scale(0.7)" xlink:href="#DejaVuSans-Oblique-67"/>
      <use transform="translate(109.960938 -16.3125)scale(0.7)" xlink:href="#DejaVuSans-Oblique-72"/>
      <use transform="translate(162.597656 -27.796875)scale(0.49)" xlink:href="#DejaVuSans-52"/>
     </g>
    </g>
   </g>
   <g id="PathCollection_1">
    <defs>
     <path d="M 0 2 
C 0.530406 2 1.03916 1.789267 1.414214 1.414214 
C 1.789267 1.03916 2 0.530406 2 0 
C 2 -0.530406 1.789267 -1.03916 1.414214 -1.414214 
C 1.03916 -1.789267 0.530406 -2 0 -2 
C -0.530406 -2 -1.03916 -1.789267 -1.414214 -1.414214 
C -1.789267 -1.03916 -2 -0.530406 -2 0 
C -2 0.530406 -1.789267 1.03916 -1.414214 1.414214 
C -1.03916 1.789267 -0.530406 2 0 2 
z
" id="m8a193f5f99"/>
    </defs>
    <g clip-path="url(#pe648adc878)">
     <use x="91.489548" xlink:href="#m8a193f5f99" y="67.879192"/>
     <use x="102.459942" xlink:href="#m8a193f5f99" y="49.18179"/>
     <use x="113.430337" xlink:href="#m8a193f5f99" y="49.788323"/>
     <use x="124.400731" xlink:href="#m8a193f5f99" y="50.242979"/>
     <use x="135.371126" xlink:href="#m8a193f5f99" y="48.591728"/>
     <use x="146.34152" xlink:href="#m8a193f5f99" y="47.848525"/>
     <use x="157.311914" xlink:href="#m8a193f5f99" y="47.83057"/>
     <use x="168.282309" xlink:href="#m8a193f5f99" y="50.180329"/>
     <use x="179.252703" xlink:href="#m8a193f5f99" y="48.308108"/>
     <use x="190.223098" xlink:href="#m8a193f5f99" y="50.980441"/>
     <use x="201.193492" xlink:href="#m8a193f5f99" y="49.208856"/>
     <use x="212.163887" xlink:href="#m8a193f5f99" y="50.967362"/>
     <use x="223.134281" xlink:href="#m8a193f5f99" y="49.656972"/>
     <use x="234.104675" xlink:href="#m8a193f5f99" y="52.15509"/>
     <use x="245.07507" xlink:href="#m8a193f5f99" y="51.697946"/>
     <use x="256.045464" xlink:href="#m8a193f5f99" y="51.83478"/>
     <use x="267.015859" xlink:href="#m8a193f5f99" y="53.3812"/>
     <use x="277.986253" xlink:href="#m8a193f5f99" y="53.101944"/>
     <use x="288.956647" xlink:href="#m8a193f5f99" y="54.919239"/>
     <use x="299.927042" xlink:href="#m8a193f5f99" y="55.64048"/>
     <use x="310.897436" xlink:href="#m8a193f5f99" y="55.99299"/>
     <use x="321.867831" xlink:href="#m8a193f5f99" y="55.671779"/>
     <use x="332.838225" xlink:href="#m8a193f5f99" y="58.479038"/>
     <use x="343.80862" xlink:href="#m8a193f5f99" y="57.233612"/>
     <use x="354.779014" xlink:href="#m8a193f5f99" y="58.867873"/>
     <use x="365.749408" xlink:href="#m8a193f5f99" y="60.533309"/>
     <use x="376.719803" xlink:href="#m8a193f5f99" y="61.786144"/>
     <use x="387.690197" xlink:href="#m8a193f5f99" y="61.88535"/>
     <use x="398.660592" xlink:href="#m8a193f5f99" y="59.594524"/>
     <use x="409.630986" xlink:href="#m8a193f5f99" y="61.456529"/>
     <use x="420.601381" xlink:href="#m8a193f5f99" y="59.164835"/>
     <use x="431.571775" xlink:href="#m8a193f5f99" y="58.834923"/>
     <use x="442.542169" xlink:href="#m8a193f5f99" y="61.994844"/>
     <use x="453.512564" xlink:href="#m8a193f5f99" y="60.881998"/>
     <use x="464.482958" xlink:href="#m8a193f5f99" y="60.245104"/>
     <use x="475.453353" xlink:href="#m8a193f5f99" y="59.306845"/>
     <use x="486.423747" xlink:href="#m8a193f5f99" y="57.337624"/>
     <use x="497.394141" xlink:href="#m8a193f5f99" y="58.975344"/>
     <use x="508.364536" xlink:href="#m8a193f5f99" y="60.153286"/>
     <use x="519.33493" xlink:href="#m8a193f5f99" y="57.058436"/>
     <use x="530.305325" xlink:href="#m8a193f5f99" y="56.665925"/>
     <use x="541.275719" xlink:href="#m8a193f5f99" y="57.482169"/>
     <use x="552.246114" xlink:href="#m8a193f5f99" y="54.704091"/>
     <use x="563.216508" xlink:href="#m8a193f5f99" y="52.61802"/>
     <use x="574.186902" xlink:href="#m8a193f5f99" y="53.039304"/>
     <use x="585.157297" xlink:href="#m8a193f5f99" y="52.249849"/>
     <use x="596.127691" xlink:href="#m8a193f5f99" y="51.194624"/>
     <use x="607.098086" xlink:href="#m8a193f5f99" y="51.187061"/>
     <use x="618.06848" xlink:href="#m8a193f5f99" y="52.201026"/>
     <use x="629.038875" xlink:href="#m8a193f5f99" y="50.304156"/>
    </g>
   </g>
   <g id="line2d_13">
    <path clip-path="url(#pe648adc878)" d="M 91.489548 67.664767 
L 102.459942 46.917403 
L 113.430337 34.275682 
L 124.400731 20.911996 
L 135.371126 10.394165 
L 146.34152 5.062307 
L 157.311914 5.224215 
L 168.282309 9.420397 
L 179.252703 15.594757 
L 190.223098 22.140951 
L 201.193492 28.234894 
L 212.163887 33.650637 
L 223.134281 38.406561 
L 234.104675 42.390778 
L 245.07507 45.043693 
L 256.045464 45.315717 
L 267.015859 42.210385 
L 277.986253 35.802756 
L 288.956647 27.774277 
L 299.927042 20.606625 
L 310.897436 16.186277 
L 321.867831 15.279922 
L 332.838225 18.001533 
L 343.80862 24.309244 
L 354.779014 33.906973 
L 365.749408 45.658451 
L 376.719803 57.127969 
L 387.690197 64.992355 
L 398.660592 66.593671 
L 409.630986 61.771071 
L 420.601381 53.215262 
L 431.571775 44.75508 
L 442.542169 39.312762 
L 453.512564 38.143981 
L 464.482958 41.009037 
L 475.453353 46.375102 
L 486.423747 51.642697 
L 497.394141 53.977844 
L 508.364536 51.846895 
L 519.33493 46.177209 
L 530.305325 39.807635 
L 541.275719 35.686884 
L 552.246114 35.694671 
L 563.216508 40.638691 
L 574.186902 50.370171 
L 585.157297 63.192043 
L 596.127691 74.954381 
L 607.098086 79.317693 
L 618.06848 70.913774 
L 629.038875 50.600437 
" style="fill:none;stroke:#ff0000;stroke-dasharray:3.7,1.6;stroke-dashoffset:0;"/>
   </g>
   <g id="patch_3">
    <path d="M 75.363068 81.545354 
L 75.363068 2.834646 
" style="fill:none;stroke:#000000;stroke-linecap:square;stroke-linejoin:miter;"/>
   </g>
   <g id="patch_4">
    <path d="M 645.165354 81.545354 
L 645.165354 2.834646 
" style="fill:none;stroke:#000000;stroke-linecap:square;stroke-linejoin:miter;"/>
   </g>
   <g id="patch_5">
    <path d="M 75.363068 81.545354 
L 645.165354 81.545354 
" style="fill:none;stroke:#000000;stroke-linecap:square;stroke-linejoin:miter;"/>
   </g>
   <g id="patch_6">
    <path d="M 75.363068 2.834646 
L 645.165354 2.834646 
" style="fill:none;stroke:#000000;stroke-linecap:square;stroke-linejoin:miter;"/>
   </g>
  </g>
  <g id="axes_2">
   <g id="patch_7">
    <path d="M 75.363068 165.925354 
L 645.165354 165.925354 
L 645.165354 87.214646 
L 75.363068 87.214646 
z
" style="fill:#ffffff;"/>
   </g>
   <g id="matplotlib.axis_3">
    <g id="xtick_7"/>
    <g id="xtick_8"/>
    <g id="xtick_9"/>
    <g id="xtick_10"/>
    <g id="xtick_11"/>
    <g id="xtick_12"/>
   </g>
   <g id="matplotlib.axis_4">
    <g id="ytick_5">
     <g id="line2d_14">
      <path clip-path="url(#p754e7c3eb3)" d="M 75.363068 153.288349 
L 645.165354 153.288349 
" style="fill:none;stroke:#000000;stroke-linecap:square;stroke-opacity:0.1;stroke-width:0.5;"/>
     </g>
     <g id="line2d_15">
      <g>
       <use style="stroke:#000000;stroke-width:0.5;" x="75.363068" xlink:href="#mc505ca0b3c" y="153.288349"/>
      </g>
     </g>
     <g id="line2d_16">
      <g>
       <use style="stroke:#000000;stroke-width:0.5;" x="645.165354" xlink:href="#md90efde9b1" y="153.288349"/>
      </g>
     </g>
     <g id="text_6">
      <!-- $\mathregular{0.0024}$ -->
      <g transform="translate(29.863068 157.847412)scale(0.12 -0.12)">
       <defs>
        <path d="M 10.6875 12.40625 
L 21 12.40625 
L 21 0 
L 10.6875 0 
z
" id="DejaVuSans-46"/>
       </defs>
       <use transform="translate(0 0.78125)" xlink:href="#DejaVuSans-48"/>
       <use transform="translate(63.623047 0.78125)" xlink:href="#DejaVuSans-46"/>
       <use transform="translate(95.410156 0.78125)" xlink:href="#DejaVuSans-48"/>
       <use transform="translate(159.033203 0.78125)" xlink:href="#DejaVuSans-48"/>
       <use transform="translate(222.65625 0.78125)" xlink:href="#DejaVuSans-50"/>
       <use transform="translate(286.279297 0.78125)" xlink:href="#DejaVuSans-52"/>
      </g>
     </g>
    </g>
    <g id="ytick_6">
     <g id="line2d_17">
      <path clip-path="url(#p754e7c3eb3)" d="M 75.363068 132.911107 
L 645.165354 132.911107 
" style="fill:none;stroke:#000000;stroke-linecap:square;stroke-opacity:0.1;stroke-width:0.5;"/>
     </g>
     <g id="line2d_18">
      <g>
       <use style="stroke:#000000;stroke-width:0.5;" x="75.363068" xlink:href="#mc505ca0b3c" y="132.911107"/>
      </g>
     </g>
     <g id="line2d_19">
      <g>
       <use style="stroke:#000000;stroke-width:0.5;" x="645.165354" xlink:href="#md90efde9b1" y="132.911107"/>
      </g>
     </g>
     <g id="text_7">
      <!-- $\mathregular{0.0026}$ -->
      <g transform="translate(29.863068 137.47017)scale(0.12 -0.12)">
       <use transform="translate(0 0.78125)" xlink:href="#DejaVuSans-48"/>
       <use transform="translate(63.623047 0.78125)" xlink:href="#DejaVuSans-46"/>
       <use transform="translate(95.410156 0.78125)" xlink:href="#DejaVuSans-48"/>
       <use transform="translate(159.033203 0.78125)" xlink:href="#DejaVuSans-48"/>
       <use transform="translate(222.65625 0.78125)" xlink:href="#DejaVuSans-50"/>
       <use transform="translate(286.279297 0.78125)" xlink:href="#DejaVuSans-54"/>
      </g>
     </g>
    </g>
    <g id="ytick_7">
     <g id="line2d_20">
      <path clip-path="url(#p754e7c3eb3)" d="M 75.363068 112.533865 
L 645.165354 112.533865 
" style="fill:none;stroke:#000000;stroke-linecap:square;stroke-opacity:0.1;stroke-width:0.5;"/>
     </g>
     <g id="line2d_21">
      <g>
       <use style="stroke:#000000;stroke-width:0.5;" x="75.363068" xlink:href="#mc505ca0b3c" y="112.533865"/>
      </g>
     </g>
     <g id="line2d_22">
      <g>
       <use style="stroke:#000000;stroke-width:0.5;" x="645.165354" xlink:href="#md90efde9b1" y="112.533865"/>
      </g>
     </g>
     <g id="text_8">
      <!-- $\mathregular{0.0028}$ -->
      <g transform="translate(29.863068 117.092928)scale(0.12 -0.12)">
       <defs>
        <path d="M 31.78125 34.625 
Q 24.75 34.625 20.71875 30.859375 
Q 16.703125 27.09375 16.703125 20.515625 
Q 16.703125 13.921875 20.71875 10.15625 
Q 24.75 6.390625 31.78125 6.390625 
Q 38.8125 6.390625 42.859375 10.171875 
Q 46.921875 13.96875 46.921875 20.515625 
Q 46.921875 27.09375 42.890625 30.859375 
Q 38.875 34.625 31.78125 34.625 
z
M 21.921875 38.8125 
Q 15.578125 40.375 12.03125 44.71875 
Q 8.5 49.078125 8.5 55.328125 
Q 8.5 64.0625 14.71875 69.140625 
Q 20.953125 74.21875 31.78125 74.21875 
Q 42.671875 74.21875 48.875 69.140625 
Q 55.078125 64.0625 55.078125 55.328125 
Q 55.078125 49.078125 51.53125 44.71875 
Q 48 40.375 41.703125 38.8125 
Q 48.828125 37.15625 52.796875 32.3125 
Q 56.78125 27.484375 56.78125 20.515625 
Q 56.78125 9.90625 50.3125 4.234375 
Q 43.84375 -1.421875 31.78125 -1.421875 
Q 19.734375 -1.421875 13.25 4.234375 
Q 6.78125 9.90625 6.78125 20.515625 
Q 6.78125 27.484375 10.78125 32.3125 
Q 14.796875 37.15625 21.921875 38.8125 
z
M 18.3125 54.390625 
Q 18.3125 48.734375 21.84375 45.5625 
Q 25.390625 42.390625 31.78125 42.390625 
Q 38.140625 42.390625 41.71875 45.5625 
Q 45.3125 48.734375 45.3125 54.390625 
Q 45.3125 60.0625 41.71875 63.234375 
Q 38.140625 66.40625 31.78125 66.40625 
Q 25.390625 66.40625 21.84375 63.234375 
Q 18.3125 60.0625 18.3125 54.390625 
z
" id="DejaVuSans-56"/>
       </defs>
       <use transform="translate(0 0.78125)" xlink:href="#DejaVuSans-48"/>
       <use transform="translate(63.623047 0.78125)" xlink:href="#DejaVuSans-46"/>
       <use transform="translate(95.410156 0.78125)" xlink:href="#DejaVuSans-48"/>
       <use transform="translate(159.033203 0.78125)" xlink:href="#DejaVuSans-48"/>
       <use transform="translate(222.65625 0.78125)" xlink:href="#DejaVuSans-50"/>
       <use transform="translate(286.279297 0.78125)" xlink:href="#DejaVuSans-56"/>
      </g>
     </g>
    </g>
    <g id="ytick_8">
     <g id="line2d_23">
      <path clip-path="url(#p754e7c3eb3)" d="M 75.363068 92.156623 
L 645.165354 92.156623 
" style="fill:none;stroke:#000000;stroke-linecap:square;stroke-opacity:0.1;stroke-width:0.5;"/>
     </g>
     <g id="line2d_24">
      <g>
       <use style="stroke:#000000;stroke-width:0.5;" x="75.363068" xlink:href="#mc505ca0b3c" y="92.156623"/>
      </g>
     </g>
     <g id="line2d_25">
      <g>
       <use style="stroke:#000000;stroke-width:0.5;" x="645.165354" xlink:href="#md90efde9b1" y="92.156623"/>
      </g>
     </g>
     <g id="text_9">
      <!-- $\mathregular{0.0030}$ -->
      <g transform="translate(29.863068 96.715686)scale(0.12 -0.12)">
       <defs>
        <path d="M 40.578125 39.3125 
Q 47.65625 37.796875 51.625 33 
Q 55.609375 28.21875 55.609375 21.1875 
Q 55.609375 10.40625 48.1875 4.484375 
Q 40.765625 -1.421875 27.09375 -1.421875 
Q 22.515625 -1.421875 17.65625 -0.515625 
Q 12.796875 0.390625 7.625 2.203125 
L 7.625 11.71875 
Q 11.71875 9.328125 16.59375 8.109375 
Q 21.484375 6.890625 26.8125 6.890625 
Q 36.078125 6.890625 40.9375 10.546875 
Q 45.796875 14.203125 45.796875 21.1875 
Q 45.796875 27.640625 41.28125 31.265625 
Q 36.765625 34.90625 28.71875 34.90625 
L 20.21875 34.90625 
L 20.21875 43.015625 
L 29.109375 43.015625 
Q 36.375 43.015625 40.234375 45.921875 
Q 44.09375 48.828125 44.09375 54.296875 
Q 44.09375 59.90625 40.109375 62.90625 
Q 36.140625 65.921875 28.71875 65.921875 
Q 24.65625 65.921875 20.015625 65.03125 
Q 15.375 64.15625 9.8125 62.3125 
L 9.8125 71.09375 
Q 15.4375 72.65625 20.34375 73.4375 
Q 25.25 74.21875 29.59375 74.21875 
Q 40.828125 74.21875 47.359375 69.109375 
Q 53.90625 64.015625 53.90625 55.328125 
Q 53.90625 49.265625 50.4375 45.09375 
Q 46.96875 40.921875 40.578125 39.3125 
z
" id="DejaVuSans-51"/>
       </defs>
       <use transform="translate(0 0.78125)" xlink:href="#DejaVuSans-48"/>
       <use transform="translate(63.623047 0.78125)" xlink:href="#DejaVuSans-46"/>
       <use transform="translate(95.410156 0.78125)" xlink:href="#DejaVuSans-48"/>
       <use transform="translate(159.033203 0.78125)" xlink:href="#DejaVuSans-48"/>
       <use transform="translate(222.65625 0.78125)" xlink:href="#DejaVuSans-51"/>
       <use transform="translate(286.279297 0.78125)" xlink:href="#DejaVuSans-48"/>
      </g>
     </g>
    </g>
    <g id="text_10">
     <!-- $Y_{CO}$ -->
     <g transform="translate(22.535568 140.01)rotate(-90)scale(0.16 -0.16)">
      <defs>
       <path d="M 45.609375 66.21875 
Q 37.5 66.21875 31.296875 62.28125 
Q 25.09375 58.34375 20.515625 50.296875 
Q 17.578125 45.171875 16.03125 39.40625 
Q 14.5 33.640625 14.5 27.78125 
Q 14.5 17.625 19.359375 12.109375 
Q 24.21875 6.59375 33.109375 6.59375 
Q 41.109375 6.59375 47.375 10.5625 
Q 53.65625 14.546875 58.109375 22.40625 
Q 61.078125 27.6875 62.640625 33.46875 
Q 64.203125 39.265625 64.203125 45.015625 
Q 64.203125 55.125 59.3125 60.671875 
Q 54.4375 66.21875 45.609375 66.21875 
z
M 32.8125 -1.421875 
Q 19.390625 -1.421875 11.6875 6.53125 
Q 4 14.5 4 28.328125 
Q 4 36.234375 7 44.484375 
Q 10.015625 52.734375 15.28125 59.1875 
Q 21.484375 66.75 29.09375 70.484375 
Q 36.71875 74.21875 45.90625 74.21875 
Q 59.28125 74.21875 66.984375 66.328125 
Q 74.703125 58.453125 74.703125 44.828125 
Q 74.703125 36.421875 71.765625 28.3125 
Q 68.84375 20.21875 63.375 13.625 
Q 57.125 6 49.578125 2.28125 
Q 42.046875 -1.421875 32.8125 -1.421875 
z
" id="DejaVuSans-Oblique-79"/>
      </defs>
      <use transform="translate(0 0.09375)" xlink:href="#DejaVuSans-Oblique-89"/>
      <use transform="translate(61.083984 -16.3125)scale(0.7)" xlink:href="#DejaVuSans-Oblique-67"/>
      <use transform="translate(109.960938 -16.3125)scale(0.7)" xlink:href="#DejaVuSans-Oblique-79"/>
     </g>
    </g>
   </g>
   <g id="PathCollection_2">
    <g clip-path="url(#p754e7c3eb3)">
     <use x="91.489548" xlink:href="#m8a193f5f99" y="89.442307"/>
     <use x="102.459942" xlink:href="#m8a193f5f99" y="101.541118"/>
     <use x="113.430337" xlink:href="#m8a193f5f99" y="107.546648"/>
     <use x="124.400731" xlink:href="#m8a193f5f99" y="108.55471"/>
     <use x="135.371126" xlink:href="#m8a193f5f99" y="110.801718"/>
     <use x="146.34152" xlink:href="#m8a193f5f99" y="109.078634"/>
     <use x="157.311914" xlink:href="#m8a193f5f99" y="107.937417"/>
     <use x="168.282309" xlink:href="#m8a193f5f99" y="107.104944"/>
     <use x="179.252703" xlink:href="#m8a193f5f99" y="110.780602"/>
     <use x="190.223098" xlink:href="#m8a193f5f99" y="116.912387"/>
     <use x="201.193492" xlink:href="#m8a193f5f99" y="118.682588"/>
     <use x="212.163887" xlink:href="#m8a193f5f99" y="124.451487"/>
     <use x="223.134281" xlink:href="#m8a193f5f99" y="126.223577"/>
     <use x="234.104675" xlink:href="#m8a193f5f99" y="125.632024"/>
     <use x="245.07507" xlink:href="#m8a193f5f99" y="124.584957"/>
     <use x="256.045464" xlink:href="#m8a193f5f99" y="120.946683"/>
     <use x="267.015859" xlink:href="#m8a193f5f99" y="115.678602"/>
     <use x="277.986253" xlink:href="#m8a193f5f99" y="117.5135"/>
     <use x="288.956647" xlink:href="#m8a193f5f99" y="119.358441"/>
     <use x="299.927042" xlink:href="#m8a193f5f99" y="119.89825"/>
     <use x="310.897436" xlink:href="#m8a193f5f99" y="126.033315"/>
     <use x="321.867831" xlink:href="#m8a193f5f99" y="124.923849"/>
     <use x="332.838225" xlink:href="#m8a193f5f99" y="122.811224"/>
     <use x="343.80862" xlink:href="#m8a193f5f99" y="122.691092"/>
     <use x="354.779014" xlink:href="#m8a193f5f99" y="119.864475"/>
     <use x="365.749408" xlink:href="#m8a193f5f99" y="113.483293"/>
     <use x="376.719803" xlink:href="#m8a193f5f99" y="109.424247"/>
     <use x="387.690197" xlink:href="#m8a193f5f99" y="109.995719"/>
     <use x="398.660592" xlink:href="#m8a193f5f99" y="109.002665"/>
     <use x="409.630986" xlink:href="#m8a193f5f99" y="113.364128"/>
     <use x="420.601381" xlink:href="#m8a193f5f99" y="115.641814"/>
     <use x="431.571775" xlink:href="#m8a193f5f99" y="116.41655"/>
     <use x="442.542169" xlink:href="#m8a193f5f99" y="117.482053"/>
     <use x="453.512564" xlink:href="#m8a193f5f99" y="114.820498"/>
     <use x="464.482958" xlink:href="#m8a193f5f99" y="110.619535"/>
     <use x="475.453353" xlink:href="#m8a193f5f99" y="108.242754"/>
     <use x="486.423747" xlink:href="#m8a193f5f99" y="105.024676"/>
     <use x="497.394141" xlink:href="#m8a193f5f99" y="103.496193"/>
     <use x="508.364536" xlink:href="#m8a193f5f99" y="105.871607"/>
     <use x="519.33493" xlink:href="#m8a193f5f99" y="108.986442"/>
     <use x="530.305325" xlink:href="#m8a193f5f99" y="115.858628"/>
     <use x="541.275719" xlink:href="#m8a193f5f99" y="116.91379"/>
     <use x="552.246114" xlink:href="#m8a193f5f99" y="117.904175"/>
     <use x="563.216508" xlink:href="#m8a193f5f99" y="118.143398"/>
     <use x="574.186902" xlink:href="#m8a193f5f99" y="113.487124"/>
     <use x="585.157297" xlink:href="#m8a193f5f99" y="109.210424"/>
     <use x="596.127691" xlink:href="#m8a193f5f99" y="112.663095"/>
     <use x="607.098086" xlink:href="#m8a193f5f99" y="110.698313"/>
     <use x="618.06848" xlink:href="#m8a193f5f99" y="114.779006"/>
     <use x="629.038875" xlink:href="#m8a193f5f99" y="121.622904"/>
    </g>
   </g>
   <g id="line2d_26">
    <path clip-path="url(#p754e7c3eb3)" d="M 91.489548 89.856634 
L 102.459942 106.317178 
L 113.430337 112.989337 
L 124.400731 118.199826 
L 135.371126 122.200826 
L 146.34152 125.71174 
L 157.311914 129.516369 
L 168.282309 134.21292 
L 179.252703 140.120376 
L 190.223098 147.073378 
L 201.193492 154.237806 
L 212.163887 160.254724 
L 223.134281 163.697693 
L 234.104675 163.581084 
L 245.07507 159.751718 
L 256.045464 153.135889 
L 267.015859 145.745715 
L 277.986253 140.145417 
L 288.956647 138.305627 
L 299.927042 140.605139 
L 310.897436 145.867142 
L 321.867831 152.175394 
L 332.838225 157.64401 
L 343.80862 160.841072 
L 354.779014 160.966517 
L 365.749408 157.902849 
L 376.719803 152.240705 
L 387.690197 145.315012 
L 398.660592 139.067671 
L 409.630986 135.399277 
L 420.601381 135.10925 
L 431.571775 137.346412 
L 442.542169 140.198898 
L 453.512564 141.765351 
L 464.482958 140.859131 
L 475.453353 137.255312 
L 486.423747 131.753882 
L 497.394141 126.133764 
L 508.364536 122.706796 
L 519.33493 123.233824 
L 530.305325 127.814611 
L 541.275719 134.823056 
L 552.246114 141.84536 
L 563.216508 146.641407 
L 574.186902 147.611035 
L 585.157297 143.916843 
L 596.127691 135.661541 
L 607.098086 124.504412 
L 618.06848 114.415358 
L 629.038875 110.521717 
" style="fill:none;stroke:#ff0000;stroke-dasharray:3.7,1.6;stroke-dashoffset:0;"/>
   </g>
   <g id="patch_8">
    <path d="M 75.363068 165.925354 
L 75.363068 87.214646 
" style="fill:none;stroke:#000000;stroke-linecap:square;stroke-linejoin:miter;"/>
   </g>
   <g id="patch_9">
    <path d="M 645.165354 165.925354 
L 645.165354 87.214646 
" style="fill:none;stroke:#000000;stroke-linecap:square;stroke-linejoin:miter;"/>
   </g>
   <g id="patch_10">
    <path d="M 75.363068 165.925354 
L 645.165354 165.925354 
" style="fill:none;stroke:#000000;stroke-linecap:square;stroke-linejoin:miter;"/>
   </g>
   <g id="patch_11">
    <path d="M 75.363068 87.214646 
L 645.165354 87.214646 
" style="fill:none;stroke:#000000;stroke-linecap:square;stroke-linejoin:miter;"/>
   </g>
  </g>
  <g id="axes_3">
   <g id="patch_12">
    <path d="M 75.363068 250.305354 
L 645.165354 250.305354 
L 645.165354 171.594646 
L 75.363068 171.594646 
z
" style="fill:#ffffff;"/>
   </g>
   <g id="matplotlib.axis_5">
    <g id="xtick_13">
     <g id="line2d_27">
      <path clip-path="url(#p4c3a9a7f68)" d="M 91.489548 250.305354 
L 91.489548 171.594646 
" style="fill:none;stroke:#000000;stroke-linecap:square;stroke-opacity:0.1;stroke-width:0.5;"/>
     </g>
     <g id="line2d_28">
      <defs>
       <path d="M 0 0 
L 0 -2.5 
" id="m5f3cf6ccf5" style="stroke:#000000;stroke-width:0.5;"/>
      </defs>
      <g>
       <use style="stroke:#000000;stroke-width:0.5;" x="91.489548" xlink:href="#m5f3cf6ccf5" y="250.305354"/>
      </g>
     </g>
     <g id="line2d_29">
      <defs>
       <path d="M 0 0 
L 0 2.5 
" id="m4efb0bc6c1" style="stroke:#000000;stroke-width:0.5;"/>
      </defs>
      <g>
       <use style="stroke:#000000;stroke-width:0.5;" x="91.489548" xlink:href="#m4efb0bc6c1" y="171.594646"/>
      </g>
     </g>
     <g id="text_11">
      <!-- $\mathregular{0}$ -->
      <g transform="translate(87.649548 262.923479)scale(0.12 -0.12)">
       <use transform="translate(0 0.78125)" xlink:href="#DejaVuSans-48"/>
      </g>
     </g>
    </g>
    <g id="xtick_14">
     <g id="line2d_30">
      <path clip-path="url(#p4c3a9a7f68)" d="M 198.999413 250.305354 
L 198.999413 171.594646 
" style="fill:none;stroke:#000000;stroke-linecap:square;stroke-opacity:0.1;stroke-width:0.5;"/>
     </g>
     <g id="line2d_31">
      <g>
       <use style="stroke:#000000;stroke-width:0.5;" x="198.999413" xlink:href="#m5f3cf6ccf5" y="250.305354"/>
      </g>
     </g>
     <g id="line2d_32">
      <g>
       <use style="stroke:#000000;stroke-width:0.5;" x="198.999413" xlink:href="#m4efb0bc6c1" y="171.594646"/>
      </g>
     </g>
     <g id="text_12">
      <!-- $\mathregular{1}$ -->
      <g transform="translate(195.159413 262.923479)scale(0.12 -0.12)">
       <use transform="translate(0 0.09375)" xlink:href="#DejaVuSans-49"/>
      </g>
     </g>
    </g>
    <g id="xtick_15">
     <g id="line2d_33">
      <path clip-path="url(#p4c3a9a7f68)" d="M 306.509279 250.305354 
L 306.509279 171.594646 
" style="fill:none;stroke:#000000;stroke-linecap:square;stroke-opacity:0.1;stroke-width:0.5;"/>
     </g>
     <g id="line2d_34">
      <g>
       <use style="stroke:#000000;stroke-width:0.5;" x="306.509279" xlink:href="#m5f3cf6ccf5" y="250.305354"/>
      </g>
     </g>
     <g id="line2d_35">
      <g>
       <use style="stroke:#000000;stroke-width:0.5;" x="306.509279" xlink:href="#m4efb0bc6c1" y="171.594646"/>
      </g>
     </g>
     <g id="text_13">
      <!-- $\mathregular{2}$ -->
      <g transform="translate(302.669279 262.923479)scale(0.12 -0.12)">
       <use transform="translate(0 0.78125)" xlink:href="#DejaVuSans-50"/>
      </g>
     </g>
    </g>
    <g id="xtick_16">
     <g id="line2d_36">
      <path clip-path="url(#p4c3a9a7f68)" d="M 414.019144 250.305354 
L 414.019144 171.594646 
" style="fill:none;stroke:#000000;stroke-linecap:square;stroke-opacity:0.1;stroke-width:0.5;"/>
     </g>
     <g id="line2d_37">
      <g>
       <use style="stroke:#000000;stroke-width:0.5;" x="414.019144" xlink:href="#m5f3cf6ccf5" y="250.305354"/>
      </g>
     </g>
     <g id="line2d_38">
      <g>
       <use style="stroke:#000000;stroke-width:0.5;" x="414.019144" xlink:href="#m4efb0bc6c1" y="171.594646"/>
      </g>
     </g>
     <g id="text_14">
      <!-- $\mathregular{3}$ -->
      <g transform="translate(410.179144 262.923479)scale(0.12 -0.12)">
       <use transform="translate(0 0.78125)" xlink:href="#DejaVuSans-51"/>
      </g>
     </g>
    </g>
    <g id="xtick_17">
     <g id="line2d_39">
      <path clip-path="url(#p4c3a9a7f68)" d="M 521.529009 250.305354 
L 521.529009 171.594646 
" style="fill:none;stroke:#000000;stroke-linecap:square;stroke-opacity:0.1;stroke-width:0.5;"/>
     </g>
     <g id="line2d_40">
      <g>
       <use style="stroke:#000000;stroke-width:0.5;" x="521.529009" xlink:href="#m5f3cf6ccf5" y="250.305354"/>
      </g>
     </g>
     <g id="line2d_41">
      <g>
       <use style="stroke:#000000;stroke-width:0.5;" x="521.529009" xlink:href="#m4efb0bc6c1" y="171.594646"/>
      </g>
     </g>
     <g id="text_15">
      <!-- $\mathregular{4}$ -->
      <g transform="translate(517.689009 262.923479)scale(0.12 -0.12)">
       <use transform="translate(0 0.09375)" xlink:href="#DejaVuSans-52"/>
      </g>
     </g>
    </g>
    <g id="xtick_18">
     <g id="line2d_42">
      <path clip-path="url(#p4c3a9a7f68)" d="M 629.038875 250.305354 
L 629.038875 171.594646 
" style="fill:none;stroke:#000000;stroke-linecap:square;stroke-opacity:0.1;stroke-width:0.5;"/>
     </g>
     <g id="line2d_43">
      <g>
       <use style="stroke:#000000;stroke-width:0.5;" x="629.038875" xlink:href="#m5f3cf6ccf5" y="250.305354"/>
      </g>
     </g>
     <g id="line2d_44">
      <g>
       <use style="stroke:#000000;stroke-width:0.5;" x="629.038875" xlink:href="#m4efb0bc6c1" y="171.594646"/>
      </g>
     </g>
     <g id="text_16">
      <!-- $\mathregular{5}$ -->
      <g transform="translate(625.198875 262.923479)scale(0.12 -0.12)">
       <defs>
        <path d="M 10.796875 72.90625 
L 49.515625 72.90625 
L 49.515625 64.59375 
L 19.828125 64.59375 
L 19.828125 46.734375 
Q 21.96875 47.46875 24.109375 47.828125 
Q 26.265625 48.1875 28.421875 48.1875 
Q 40.625 48.1875 47.75 41.5 
Q 54.890625 34.8125 54.890625 23.390625 
Q 54.890625 11.625 47.5625 5.09375 
Q 40.234375 -1.421875 26.90625 -1.421875 
Q 22.3125 -1.421875 17.546875 -0.640625 
Q 12.796875 0.140625 7.71875 1.703125 
L 7.71875 11.625 
Q 12.109375 9.234375 16.796875 8.0625 
Q 21.484375 6.890625 26.703125 6.890625 
Q 35.15625 6.890625 40.078125 11.328125 
Q 45.015625 15.765625 45.015625 23.390625 
Q 45.015625 31 40.078125 35.4375 
Q 35.15625 39.890625 26.703125 39.890625 
Q 22.75 39.890625 18.8125 39.015625 
Q 14.890625 38.140625 10.796875 36.28125 
z
" id="DejaVuSans-53"/>
       </defs>
       <use transform="translate(0 0.09375)" xlink:href="#DejaVuSans-53"/>
      </g>
     </g>
    </g>
    <g id="text_17">
     <!-- Time [s] -->
     <g transform="translate(327.737961 281.576604)scale(0.16 -0.16)">
      <defs>
       <path d="M -0.296875 72.90625 
L 61.375 72.90625 
L 61.375 64.59375 
L 35.5 64.59375 
L 35.5 0 
L 25.59375 0 
L 25.59375 64.59375 
L -0.296875 64.59375 
z
" id="DejaVuSans-84"/>
       <path d="M 9.421875 54.6875 
L 18.40625 54.6875 
L 18.40625 0 
L 9.421875 0 
z
M 9.421875 75.984375 
L 18.40625 75.984375 
L 18.40625 64.59375 
L 9.421875 64.59375 
z
" id="DejaVuSans-105"/>
       <path d="M 52 44.1875 
Q 55.375 50.25 60.0625 53.125 
Q 64.75 56 71.09375 56 
Q 79.640625 56 84.28125 50.015625 
Q 88.921875 44.046875 88.921875 33.015625 
L 88.921875 0 
L 79.890625 0 
L 79.890625 32.71875 
Q 79.890625 40.578125 77.09375 44.375 
Q 74.3125 48.1875 68.609375 48.1875 
Q 61.625 48.1875 57.5625 43.546875 
Q 53.515625 38.921875 53.515625 30.90625 
L 53.515625 0 
L 44.484375 0 
L 44.484375 32.71875 
Q 44.484375 40.625 41.703125 44.40625 
Q 38.921875 48.1875 33.109375 48.1875 
Q 26.21875 48.1875 22.15625 43.53125 
Q 18.109375 38.875 18.109375 30.90625 
L 18.109375 0 
L 9.078125 0 
L 9.078125 54.6875 
L 18.109375 54.6875 
L 18.109375 46.1875 
Q 21.1875 51.21875 25.484375 53.609375 
Q 29.78125 56 35.6875 56 
Q 41.65625 56 45.828125 52.96875 
Q 50 49.953125 52 44.1875 
z
" id="DejaVuSans-109"/>
       <path d="M 56.203125 29.59375 
L 56.203125 25.203125 
L 14.890625 25.203125 
Q 15.484375 15.921875 20.484375 11.0625 
Q 25.484375 6.203125 34.421875 6.203125 
Q 39.59375 6.203125 44.453125 7.46875 
Q 49.3125 8.734375 54.109375 11.28125 
L 54.109375 2.78125 
Q 49.265625 0.734375 44.1875 -0.34375 
Q 39.109375 -1.421875 33.890625 -1.421875 
Q 20.796875 -1.421875 13.15625 6.1875 
Q 5.515625 13.8125 5.515625 26.8125 
Q 5.515625 40.234375 12.765625 48.109375 
Q 20.015625 56 32.328125 56 
Q 43.359375 56 49.78125 48.890625 
Q 56.203125 41.796875 56.203125 29.59375 
z
M 47.21875 32.234375 
Q 47.125 39.59375 43.09375 43.984375 
Q 39.0625 48.390625 32.421875 48.390625 
Q 24.90625 48.390625 20.390625 44.140625 
Q 15.875 39.890625 15.1875 32.171875 
z
" id="DejaVuSans-101"/>
       <path id="DejaVuSans-32"/>
       <path d="M 8.59375 75.984375 
L 29.296875 75.984375 
L 29.296875 69 
L 17.578125 69 
L 17.578125 -6.203125 
L 29.296875 -6.203125 
L 29.296875 -13.1875 
L 8.59375 -13.1875 
z
" id="DejaVuSans-91"/>
       <path d="M 44.28125 53.078125 
L 44.28125 44.578125 
Q 40.484375 46.53125 36.375 47.5 
Q 32.28125 48.484375 27.875 48.484375 
Q 21.1875 48.484375 17.84375 46.4375 
Q 14.5 44.390625 14.5 40.28125 
Q 14.5 37.15625 16.890625 35.375 
Q 19.28125 33.59375 26.515625 31.984375 
L 29.59375 31.296875 
Q 39.15625 29.25 43.1875 25.515625 
Q 47.21875 21.78125 47.21875 15.09375 
Q 47.21875 7.46875 41.1875 3.015625 
Q 35.15625 -1.421875 24.609375 -1.421875 
Q 20.21875 -1.421875 15.453125 -0.5625 
Q 10.6875 0.296875 5.421875 2 
L 5.421875 11.28125 
Q 10.40625 8.6875 15.234375 7.390625 
Q 20.0625 6.109375 24.8125 6.109375 
Q 31.15625 6.109375 34.5625 8.28125 
Q 37.984375 10.453125 37.984375 14.40625 
Q 37.984375 18.0625 35.515625 20.015625 
Q 33.0625 21.96875 24.703125 23.78125 
L 21.578125 24.515625 
Q 13.234375 26.265625 9.515625 29.90625 
Q 5.8125 33.546875 5.8125 39.890625 
Q 5.8125 47.609375 11.28125 51.796875 
Q 16.75 56 26.8125 56 
Q 31.78125 56 36.171875 55.265625 
Q 40.578125 54.546875 44.28125 53.078125 
z
" id="DejaVuSans-115"/>
       <path d="M 30.421875 75.984375 
L 30.421875 -13.1875 
L 9.71875 -13.1875 
L 9.71875 -6.203125 
L 21.390625 -6.203125 
L 21.390625 69 
L 9.71875 69 
L 9.71875 75.984375 
z
" id="DejaVuSans-93"/>
      </defs>
      <use xlink:href="#DejaVuSans-84"/>
      <use x="57.958984" xlink:href="#DejaVuSans-105"/>
      <use x="85.742188" xlink:href="#DejaVuSans-109"/>
      <use x="183.154297" xlink:href="#DejaVuSans-101"/>
      <use x="244.677734" xlink:href="#DejaVuSans-32"/>
      <use x="276.464844" xlink:href="#DejaVuSans-91"/>
      <use x="315.478516" xlink:href="#DejaVuSans-115"/>
      <use x="367.578125" xlink:href="#DejaVuSans-93"/>
     </g>
    </g>
   </g>
   <g id="matplotlib.axis_6">
    <g id="ytick_9">
     <g id="line2d_45">
      <path clip-path="url(#p4c3a9a7f68)" d="M 75.363068 237.960961 
L 645.165354 237.960961 
" style="fill:none;stroke:#000000;stroke-linecap:square;stroke-opacity:0.1;stroke-width:0.5;"/>
     </g>
     <g id="line2d_46">
      <g>
       <use style="stroke:#000000;stroke-width:0.5;" x="75.363068" xlink:href="#mc505ca0b3c" y="237.960961"/>
      </g>
     </g>
     <g id="line2d_47">
      <g>
       <use style="stroke:#000000;stroke-width:0.5;" x="645.165354" xlink:href="#md90efde9b1" y="237.960961"/>
      </g>
     </g>
     <g id="text_18">
      <!-- $\mathregular{1080}$ -->
      <g transform="translate(41.263068 242.520024)scale(0.12 -0.12)">
       <use transform="translate(0 0.78125)" xlink:href="#DejaVuSans-49"/>
       <use transform="translate(63.623047 0.78125)" xlink:href="#DejaVuSans-48"/>
       <use transform="translate(127.246094 0.78125)" xlink:href="#DejaVuSans-56"/>
       <use transform="translate(190.869141 0.78125)" xlink:href="#DejaVuSans-48"/>
      </g>
     </g>
    </g>
    <g id="ytick_10">
     <g id="line2d_48">
      <path clip-path="url(#p4c3a9a7f68)" d="M 75.363068 220.209832 
L 645.165354 220.209832 
" style="fill:none;stroke:#000000;stroke-linecap:square;stroke-opacity:0.1;stroke-width:0.5;"/>
     </g>
     <g id="line2d_49">
      <g>
       <use style="stroke:#000000;stroke-width:0.5;" x="75.363068" xlink:href="#mc505ca0b3c" y="220.209832"/>
      </g>
     </g>
     <g id="line2d_50">
      <g>
       <use style="stroke:#000000;stroke-width:0.5;" x="645.165354" xlink:href="#md90efde9b1" y="220.209832"/>
      </g>
     </g>
     <g id="text_19">
      <!-- $\mathregular{1090}$ -->
      <g transform="translate(41.263068 224.768895)scale(0.12 -0.12)">
       <defs>
        <path d="M 10.984375 1.515625 
L 10.984375 10.5 
Q 14.703125 8.734375 18.5 7.8125 
Q 22.3125 6.890625 25.984375 6.890625 
Q 35.75 6.890625 40.890625 13.453125 
Q 46.046875 20.015625 46.78125 33.40625 
Q 43.953125 29.203125 39.59375 26.953125 
Q 35.25 24.703125 29.984375 24.703125 
Q 19.046875 24.703125 12.671875 31.3125 
Q 6.296875 37.9375 6.296875 49.421875 
Q 6.296875 60.640625 12.9375 67.421875 
Q 19.578125 74.21875 30.609375 74.21875 
Q 43.265625 74.21875 49.921875 64.515625 
Q 56.59375 54.828125 56.59375 36.375 
Q 56.59375 19.140625 48.40625 8.859375 
Q 40.234375 -1.421875 26.421875 -1.421875 
Q 22.703125 -1.421875 18.890625 -0.6875 
Q 15.09375 0.046875 10.984375 1.515625 
z
M 30.609375 32.421875 
Q 37.25 32.421875 41.125 36.953125 
Q 45.015625 41.5 45.015625 49.421875 
Q 45.015625 57.28125 41.125 61.84375 
Q 37.25 66.40625 30.609375 66.40625 
Q 23.96875 66.40625 20.09375 61.84375 
Q 16.21875 57.28125 16.21875 49.421875 
Q 16.21875 41.5 20.09375 36.953125 
Q 23.96875 32.421875 30.609375 32.421875 
z
" id="DejaVuSans-57"/>
       </defs>
       <use transform="translate(0 0.78125)" xlink:href="#DejaVuSans-49"/>
       <use transform="translate(63.623047 0.78125)" xlink:href="#DejaVuSans-48"/>
       <use transform="translate(127.246094 0.78125)" xlink:href="#DejaVuSans-57"/>
       <use transform="translate(190.869141 0.78125)" xlink:href="#DejaVuSans-48"/>
      </g>
     </g>
    </g>
    <g id="ytick_11">
     <g id="line2d_51">
      <path clip-path="url(#p4c3a9a7f68)" d="M 75.363068 202.458703 
L 645.165354 202.458703 
" style="fill:none;stroke:#000000;stroke-linecap:square;stroke-opacity:0.1;stroke-width:0.5;"/>
     </g>
     <g id="line2d_52">
      <g>
       <use style="stroke:#000000;stroke-width:0.5;" x="75.363068" xlink:href="#mc505ca0b3c" y="202.458703"/>
      </g>
     </g>
     <g id="line2d_53">
      <g>
       <use style="stroke:#000000;stroke-width:0.5;" x="645.165354" xlink:href="#md90efde9b1" y="202.458703"/>
      </g>
     </g>
     <g id="text_20">
      <!-- $\mathregular{1100}$ -->
      <g transform="translate(41.263068 207.017765)scale(0.12 -0.12)">
       <use transform="translate(0 0.78125)" xlink:href="#DejaVuSans-49"/>
       <use transform="translate(63.623047 0.78125)" xlink:href="#DejaVuSans-49"/>
       <use transform="translate(127.246094 0.78125)" xlink:href="#DejaVuSans-48"/>
       <use transform="translate(190.869141 0.78125)" xlink:href="#DejaVuSans-48"/>
      </g>
     </g>
    </g>
    <g id="ytick_12">
     <g id="line2d_54">
      <path clip-path="url(#p4c3a9a7f68)" d="M 75.363068 184.707574 
L 645.165354 184.707574 
" style="fill:none;stroke:#000000;stroke-linecap:square;stroke-opacity:0.1;stroke-width:0.5;"/>
     </g>
     <g id="line2d_55">
      <g>
       <use style="stroke:#000000;stroke-width:0.5;" x="75.363068" xlink:href="#mc505ca0b3c" y="184.707574"/>
      </g>
     </g>
     <g id="line2d_56">
      <g>
       <use style="stroke:#000000;stroke-width:0.5;" x="645.165354" xlink:href="#md90efde9b1" y="184.707574"/>
      </g>
     </g>
     <g id="text_21">
      <!-- $\mathregular{1110}$ -->
      <g transform="translate(41.263068 189.266636)scale(0.12 -0.12)">
       <use transform="translate(0 0.78125)" xlink:href="#DejaVuSans-49"/>
       <use transform="translate(63.623047 0.78125)" xlink:href="#DejaVuSans-49"/>
       <use transform="translate(127.246094 0.78125)" xlink:href="#DejaVuSans-49"/>
       <use transform="translate(190.869141 0.78125)" xlink:href="#DejaVuSans-48"/>
      </g>
     </g>
    </g>
    <g id="text_22">
     <!-- T [K] -->
     <g transform="translate(33.935568 229.8675)rotate(-90)scale(0.16 -0.16)">
      <defs>
       <path d="M 9.8125 72.90625 
L 19.671875 72.90625 
L 19.671875 42.09375 
L 52.390625 72.90625 
L 65.09375 72.90625 
L 28.90625 38.921875 
L 67.671875 0 
L 54.6875 0 
L 19.671875 35.109375 
L 19.671875 0 
L 9.8125 0 
z
" id="DejaVuSans-75"/>
      </defs>
      <use xlink:href="#DejaVuSans-84"/>
      <use x="61.083984" xlink:href="#DejaVuSans-32"/>
      <use x="92.871094" xlink:href="#DejaVuSans-91"/>
      <use x="131.884766" xlink:href="#DejaVuSans-75"/>
      <use x="197.460938" xlink:href="#DejaVuSans-93"/>
     </g>
    </g>
   </g>
   <g id="PathCollection_3">
    <g clip-path="url(#p4c3a9a7f68)">
     <use x="91.489548" xlink:href="#m8a193f5f99" y="243.146274"/>
     <use x="102.459942" xlink:href="#m8a193f5f99" y="239.865557"/>
     <use x="113.430337" xlink:href="#m8a193f5f99" y="236.913846"/>
     <use x="124.400731" xlink:href="#m8a193f5f99" y="236.383734"/>
     <use x="135.371126" xlink:href="#m8a193f5f99" y="236.815553"/>
     <use x="146.34152" xlink:href="#m8a193f5f99" y="234.387523"/>
     <use x="157.311914" xlink:href="#m8a193f5f99" y="232.116968"/>
     <use x="168.282309" xlink:href="#m8a193f5f99" y="225.697985"/>
     <use x="179.252703" xlink:href="#m8a193f5f99" y="221.14467"/>
     <use x="190.223098" xlink:href="#m8a193f5f99" y="219.61676"/>
     <use x="201.193492" xlink:href="#m8a193f5f99" y="221.751462"/>
     <use x="212.163887" xlink:href="#m8a193f5f99" y="223.485479"/>
     <use x="223.134281" xlink:href="#m8a193f5f99" y="227.193822"/>
     <use x="234.104675" xlink:href="#m8a193f5f99" y="233.062441"/>
     <use x="245.07507" xlink:href="#m8a193f5f99" y="234.870158"/>
     <use x="256.045464" xlink:href="#m8a193f5f99" y="234.839974"/>
     <use x="267.015859" xlink:href="#m8a193f5f99" y="231.341249"/>
     <use x="277.986253" xlink:href="#m8a193f5f99" y="228.242477"/>
     <use x="288.956647" xlink:href="#m8a193f5f99" y="225.655651"/>
     <use x="299.927042" xlink:href="#m8a193f5f99" y="226.555022"/>
     <use x="310.897436" xlink:href="#m8a193f5f99" y="229.014736"/>
     <use x="321.867831" xlink:href="#m8a193f5f99" y="233.372771"/>
     <use x="332.838225" xlink:href="#m8a193f5f99" y="237.080604"/>
     <use x="343.80862" xlink:href="#m8a193f5f99" y="240.059224"/>
     <use x="354.779014" xlink:href="#m8a193f5f99" y="242.312944"/>
     <use x="365.749408" xlink:href="#m8a193f5f99" y="243.361504"/>
     <use x="376.719803" xlink:href="#m8a193f5f99" y="239.995673"/>
     <use x="387.690197" xlink:href="#m8a193f5f99" y="236.216518"/>
     <use x="398.660592" xlink:href="#m8a193f5f99" y="234.44089"/>
     <use x="409.630986" xlink:href="#m8a193f5f99" y="235.601694"/>
     <use x="420.601381" xlink:href="#m8a193f5f99" y="237.128529"/>
     <use x="431.571775" xlink:href="#m8a193f5f99" y="239.608536"/>
     <use x="442.542169" xlink:href="#m8a193f5f99" y="242.767307"/>
     <use x="453.512564" xlink:href="#m8a193f5f99" y="245.559035"/>
     <use x="464.482958" xlink:href="#m8a193f5f99" y="245.741441"/>
     <use x="475.453353" xlink:href="#m8a193f5f99" y="242.492028"/>
     <use x="486.423747" xlink:href="#m8a193f5f99" y="238.683091"/>
     <use x="497.394141" xlink:href="#m8a193f5f99" y="234.501578"/>
     <use x="508.364536" xlink:href="#m8a193f5f99" y="231.294144"/>
     <use x="519.33493" xlink:href="#m8a193f5f99" y="231.702852"/>
     <use x="530.305325" xlink:href="#m8a193f5f99" y="231.34617"/>
     <use x="541.275719" xlink:href="#m8a193f5f99" y="234.885246"/>
     <use x="552.246114" xlink:href="#m8a193f5f99" y="237.42208"/>
     <use x="563.216508" xlink:href="#m8a193f5f99" y="240.00815"/>
     <use x="574.186902" xlink:href="#m8a193f5f99" y="240.457123"/>
     <use x="585.157297" xlink:href="#m8a193f5f99" y="235.315505"/>
     <use x="596.127691" xlink:href="#m8a193f5f99" y="231.985904"/>
     <use x="607.098086" xlink:href="#m8a193f5f99" y="227.280978"/>
     <use x="618.06848" xlink:href="#m8a193f5f99" y="224.099119"/>
     <use x="629.038875" xlink:href="#m8a193f5f99" y="223.829662"/>
    </g>
   </g>
   <g id="line2d_57">
    <path clip-path="url(#p4c3a9a7f68)" d="M 91.489548 242.937982 
L 102.459942 241.958191 
L 113.430337 240.431174 
L 124.400731 235.319397 
L 135.371126 225.991791 
L 146.34152 213.055852 
L 157.311914 198.453925 
L 168.282309 185.158192 
L 179.252703 176.258802 
L 190.223098 173.822307 
L 201.193492 178.18964 
L 212.163887 188.042177 
L 223.134281 201.011447 
L 234.104675 214.381644 
L 245.07507 225.604964 
L 256.045464 232.614407 
L 267.015859 234.089161 
L 277.986253 229.803873 
L 288.956647 220.960518 
L 299.927042 210.093836 
L 310.897436 200.2805 
L 321.867831 193.996387 
L 332.838225 192.362817 
L 343.80862 195.138923 
L 354.779014 201.219518 
L 365.749408 209.170138 
L 376.719803 217.506231 
L 387.690197 224.765696 
L 398.660592 229.687831 
L 409.630986 231.665096 
L 420.601381 231.132653 
L 431.571775 229.355123 
L 442.542169 227.654853 
L 453.512564 226.72636 
L 464.482958 226.487157 
L 475.453353 226.329503 
L 486.423747 225.433175 
L 497.394141 223.019096 
L 508.364536 218.698072 
L 519.33493 212.965081 
L 530.305325 207.40519 
L 541.275719 204.133211 
L 552.246114 204.763189 
L 563.216508 209.72957 
L 574.186902 218.299758 
L 585.157297 228.912171 
L 596.127691 239.364334 
L 607.098086 246.800876 
L 618.06848 248.077693 
L 629.038875 241.148487 
" style="fill:none;stroke:#ff0000;stroke-dasharray:3.7,1.6;stroke-dashoffset:0;"/>
   </g>
   <g id="patch_13">
    <path d="M 75.363068 250.305354 
L 75.363068 171.594646 
" style="fill:none;stroke:#000000;stroke-linecap:square;stroke-linejoin:miter;"/>
   </g>
   <g id="patch_14">
    <path d="M 645.165354 250.305354 
L 645.165354 171.594646 
" style="fill:none;stroke:#000000;stroke-linecap:square;stroke-linejoin:miter;"/>
   </g>
   <g id="patch_15">
    <path d="M 75.363068 250.305354 
L 645.165354 250.305354 
" style="fill:none;stroke:#000000;stroke-linecap:square;stroke-linejoin:miter;"/>
   </g>
   <g id="patch_16">
    <path d="M 75.363068 171.594646 
L 645.165354 171.594646 
" style="fill:none;stroke:#000000;stroke-linecap:square;stroke-linejoin:miter;"/>
   </g>
  </g>
 </g>
 <defs>
  <clipPath id="pe648adc878">
   <rect height="78.710709" width="569.802286" x="75.363068" y="2.834646"/>
  </clipPath>
  <clipPath id="p754e7c3eb3">
   <rect height="78.710709" width="569.802286" x="75.363068" y="87.214646"/>
  </clipPath>
  <clipPath id="p4c3a9a7f68">
   <rect height="78.710709" width="569.802286" x="75.363068" y="171.594646"/>
  </clipPath>
 </defs>
</svg>
