<?xml version="1.0" encoding="utf-8" standalone="no"?>
<!DOCTYPE svg PUBLIC "-//W3C//DTD SVG 1.1//EN"
  "http://www.w3.org/Graphics/SVG/1.1/DTD/svg11.dtd">
<!-- Created with matplotlib (https://matplotlib.org/) -->
<svg height="288pt" version="1.1" viewBox="0 0 360 288" width="360pt" xmlns="http://www.w3.org/2000/svg" xmlns:xlink="http://www.w3.org/1999/xlink">
 <metadata>
  <rdf:RDF xmlns:cc="http://creativecommons.org/ns#" xmlns:dc="http://purl.org/dc/elements/1.1/" xmlns:rdf="http://www.w3.org/1999/02/22-rdf-syntax-ns#">
   <cc:Work>
    <dc:type rdf:resource="http://purl.org/dc/dcmitype/StillImage"/>
    <dc:date>2021-04-29T15:21:30.023595</dc:date>
    <dc:format>image/svg+xml</dc:format>
    <dc:creator>
     <cc:Agent>
      <dc:title>Matplotlib v3.3.2, https://matplotlib.org/</dc:title>
     </cc:Agent>
    </dc:creator>
   </cc:Work>
  </rdf:RDF>
 </metadata>
 <defs>
  <style type="text/css">*{stroke-linecap:butt;stroke-linejoin:round;}</style>
 </defs>
 <g id="figure_1">
  <g id="patch_1">
   <path d="M 0 288 
L 360 288 
L 360 0 
L 0 0 
z
" style="fill:#ffffff;"/>
  </g>
  <g id="axes_1">
   <g id="patch_2">
    <path d="M 59.632849 250.305354 
L 357.165354 250.305354 
L 357.165354 2.834646 
L 59.632849 2.834646 
z
" style="fill:#ffffff;"/>
   </g>
   <g id="matplotlib.axis_1">
    <g id="xtick_1">
     <g id="line2d_1">
      <path clip-path="url(#p0890936261)" d="M 68.05358 250.305354 
L 68.05358 2.834646 
" style="fill:none;stroke:#000000;stroke-linecap:square;stroke-opacity:0.1;stroke-width:0.5;"/>
     </g>
     <g id="line2d_2">
      <defs>
       <path d="M 0 0 
L 0 -2.5 
" id="m5eb373af26" style="stroke:#000000;stroke-width:0.5;"/>
      </defs>
      <g>
       <use style="stroke:#000000;stroke-width:0.5;" x="68.05358" xlink:href="#m5eb373af26" y="250.305354"/>
      </g>
     </g>
     <g id="text_1">
      <!-- $\mathregular{0}$ -->
      <g transform="translate(64.21358 262.923479)scale(0.12 -0.12)">
       <defs>
        <path d="M 31.78125 66.40625 
Q 24.171875 66.40625 20.328125 58.90625 
Q 16.5 51.421875 16.5 36.375 
Q 16.5 21.390625 20.328125 13.890625 
Q 24.171875 6.390625 31.78125 6.390625 
Q 39.453125 6.390625 43.28125 13.890625 
Q 47.125 21.390625 47.125 36.375 
Q 47.125 51.421875 43.28125 58.90625 
Q 39.453125 66.40625 31.78125 66.40625 
z
M 31.78125 74.21875 
Q 44.046875 74.21875 50.515625 64.515625 
Q 56.984375 54.828125 56.984375 36.375 
Q 56.984375 17.96875 50.515625 8.265625 
Q 44.046875 -1.421875 31.78125 -1.421875 
Q 19.53125 -1.421875 13.0625 8.265625 
Q 6.59375 17.96875 6.59375 36.375 
Q 6.59375 54.828125 13.0625 64.515625 
Q 19.53125 74.21875 31.78125 74.21875 
z
" id="DejaVuSans-48"/>
       </defs>
       <use transform="translate(0 0.78125)" xlink:href="#DejaVuSans-48"/>
      </g>
     </g>
    </g>
    <g id="xtick_2">
     <g id="line2d_3">
      <path clip-path="url(#p0890936261)" d="M 124.191789 250.305354 
L 124.191789 2.834646 
" style="fill:none;stroke:#000000;stroke-linecap:square;stroke-opacity:0.1;stroke-width:0.5;"/>
     </g>
     <g id="line2d_4">
      <g>
       <use style="stroke:#000000;stroke-width:0.5;" x="124.191789" xlink:href="#m5eb373af26" y="250.305354"/>
      </g>
     </g>
     <g id="text_2">
      <!-- $\mathregular{1}$ -->
      <g transform="translate(120.351789 262.923479)scale(0.12 -0.12)">
       <defs>
        <path d="M 12.40625 8.296875 
L 28.515625 8.296875 
L 28.515625 63.921875 
L 10.984375 60.40625 
L 10.984375 69.390625 
L 28.421875 72.90625 
L 38.28125 72.90625 
L 38.28125 8.296875 
L 54.390625 8.296875 
L 54.390625 0 
L 12.40625 0 
z
" id="DejaVuSans-49"/>
       </defs>
       <use transform="translate(0 0.09375)" xlink:href="#DejaVuSans-49"/>
      </g>
     </g>
    </g>
    <g id="xtick_3">
     <g id="line2d_5">
      <path clip-path="url(#p0890936261)" d="M 180.329997 250.305354 
L 180.329997 2.834646 
" style="fill:none;stroke:#000000;stroke-linecap:square;stroke-opacity:0.1;stroke-width:0.5;"/>
     </g>
     <g id="line2d_6">
      <g>
       <use style="stroke:#000000;stroke-width:0.5;" x="180.329997" xlink:href="#m5eb373af26" y="250.305354"/>
      </g>
     </g>
     <g id="text_3">
      <!-- $\mathregular{2}$ -->
      <g transform="translate(176.489997 262.923479)scale(0.12 -0.12)">
       <defs>
        <path d="M 19.1875 8.296875 
L 53.609375 8.296875 
L 53.609375 0 
L 7.328125 0 
L 7.328125 8.296875 
Q 12.9375 14.109375 22.625 23.890625 
Q 32.328125 33.6875 34.8125 36.53125 
Q 39.546875 41.84375 41.421875 45.53125 
Q 43.3125 49.21875 43.3125 52.78125 
Q 43.3125 58.59375 39.234375 62.25 
Q 35.15625 65.921875 28.609375 65.921875 
Q 23.96875 65.921875 18.8125 64.3125 
Q 13.671875 62.703125 7.8125 59.421875 
L 7.8125 69.390625 
Q 13.765625 71.78125 18.9375 73 
Q 24.125 74.21875 28.421875 74.21875 
Q 39.75 74.21875 46.484375 68.546875 
Q 53.21875 62.890625 53.21875 53.421875 
Q 53.21875 48.921875 51.53125 44.890625 
Q 49.859375 40.875 45.40625 35.40625 
Q 44.1875 33.984375 37.640625 27.21875 
Q 31.109375 20.453125 19.1875 8.296875 
z
" id="DejaVuSans-50"/>
       </defs>
       <use transform="translate(0 0.78125)" xlink:href="#DejaVuSans-50"/>
      </g>
     </g>
    </g>
    <g id="xtick_4">
     <g id="line2d_7">
      <path clip-path="url(#p0890936261)" d="M 236.468206 250.305354 
L 236.468206 2.834646 
" style="fill:none;stroke:#000000;stroke-linecap:square;stroke-opacity:0.1;stroke-width:0.5;"/>
     </g>
     <g id="line2d_8">
      <g>
       <use style="stroke:#000000;stroke-width:0.5;" x="236.468206" xlink:href="#m5eb373af26" y="250.305354"/>
      </g>
     </g>
     <g id="text_4">
      <!-- $\mathregular{3}$ -->
      <g transform="translate(232.628206 262.923479)scale(0.12 -0.12)">
       <defs>
        <path d="M 40.578125 39.3125 
Q 47.65625 37.796875 51.625 33 
Q 55.609375 28.21875 55.609375 21.1875 
Q 55.609375 10.40625 48.1875 4.484375 
Q 40.765625 -1.421875 27.09375 -1.421875 
Q 22.515625 -1.421875 17.65625 -0.515625 
Q 12.796875 0.390625 7.625 2.203125 
L 7.625 11.71875 
Q 11.71875 9.328125 16.59375 8.109375 
Q 21.484375 6.890625 26.8125 6.890625 
Q 36.078125 6.890625 40.9375 10.546875 
Q 45.796875 14.203125 45.796875 21.1875 
Q 45.796875 27.640625 41.28125 31.265625 
Q 36.765625 34.90625 28.71875 34.90625 
L 20.21875 34.90625 
L 20.21875 43.015625 
L 29.109375 43.015625 
Q 36.375 43.015625 40.234375 45.921875 
Q 44.09375 48.828125 44.09375 54.296875 
Q 44.09375 59.90625 40.109375 62.90625 
Q 36.140625 65.921875 28.71875 65.921875 
Q 24.65625 65.921875 20.015625 65.03125 
Q 15.375 64.15625 9.8125 62.3125 
L 9.8125 71.09375 
Q 15.4375 72.65625 20.34375 73.4375 
Q 25.25 74.21875 29.59375 74.21875 
Q 40.828125 74.21875 47.359375 69.109375 
Q 53.90625 64.015625 53.90625 55.328125 
Q 53.90625 49.265625 50.4375 45.09375 
Q 46.96875 40.921875 40.578125 39.3125 
z
" id="DejaVuSans-51"/>
       </defs>
       <use transform="translate(0 0.78125)" xlink:href="#DejaVuSans-51"/>
      </g>
     </g>
    </g>
    <g id="xtick_5">
     <g id="line2d_9">
      <path clip-path="url(#p0890936261)" d="M 292.606414 250.305354 
L 292.606414 2.834646 
" style="fill:none;stroke:#000000;stroke-linecap:square;stroke-opacity:0.1;stroke-width:0.5;"/>
     </g>
     <g id="line2d_10">
      <g>
       <use style="stroke:#000000;stroke-width:0.5;" x="292.606414" xlink:href="#m5eb373af26" y="250.305354"/>
      </g>
     </g>
     <g id="text_5">
      <!-- $\mathregular{4}$ -->
      <g transform="translate(288.766414 262.923479)scale(0.12 -0.12)">
       <defs>
        <path d="M 37.796875 64.3125 
L 12.890625 25.390625 
L 37.796875 25.390625 
z
M 35.203125 72.90625 
L 47.609375 72.90625 
L 47.609375 25.390625 
L 58.015625 25.390625 
L 58.015625 17.1875 
L 47.609375 17.1875 
L 47.609375 0 
L 37.796875 0 
L 37.796875 17.1875 
L 4.890625 17.1875 
L 4.890625 26.703125 
z
" id="DejaVuSans-52"/>
       </defs>
       <use transform="translate(0 0.09375)" xlink:href="#DejaVuSans-52"/>
      </g>
     </g>
    </g>
    <g id="xtick_6">
     <g id="line2d_11">
      <path clip-path="url(#p0890936261)" d="M 348.744623 250.305354 
L 348.744623 2.834646 
" style="fill:none;stroke:#000000;stroke-linecap:square;stroke-opacity:0.1;stroke-width:0.5;"/>
     </g>
     <g id="line2d_12">
      <g>
       <use style="stroke:#000000;stroke-width:0.5;" x="348.744623" xlink:href="#m5eb373af26" y="250.305354"/>
      </g>
     </g>
     <g id="text_6">
      <!-- $\mathregular{5}$ -->
      <g transform="translate(344.904623 262.923479)scale(0.12 -0.12)">
       <defs>
        <path d="M 10.796875 72.90625 
L 49.515625 72.90625 
L 49.515625 64.59375 
L 19.828125 64.59375 
L 19.828125 46.734375 
Q 21.96875 47.46875 24.109375 47.828125 
Q 26.265625 48.1875 28.421875 48.1875 
Q 40.625 48.1875 47.75 41.5 
Q 54.890625 34.8125 54.890625 23.390625 
Q 54.890625 11.625 47.5625 5.09375 
Q 40.234375 -1.421875 26.90625 -1.421875 
Q 22.3125 -1.421875 17.546875 -0.640625 
Q 12.796875 0.140625 7.71875 1.703125 
L 7.71875 11.625 
Q 12.109375 9.234375 16.796875 8.0625 
Q 21.484375 6.890625 26.703125 6.890625 
Q 35.15625 6.890625 40.078125 11.328125 
Q 45.015625 15.765625 45.015625 23.390625 
Q 45.015625 31 40.078125 35.4375 
Q 35.15625 39.890625 26.703125 39.890625 
Q 22.75 39.890625 18.8125 39.015625 
Q 14.890625 38.140625 10.796875 36.28125 
z
" id="DejaVuSans-53"/>
       </defs>
       <use transform="translate(0 0.09375)" xlink:href="#DejaVuSans-53"/>
      </g>
     </g>
    </g>
    <g id="text_7">
     <!-- Time [s] -->
     <g transform="translate(175.872852 281.576604)scale(0.16 -0.16)">
      <defs>
       <path d="M -0.296875 72.90625 
L 61.375 72.90625 
L 61.375 64.59375 
L 35.5 64.59375 
L 35.5 0 
L 25.59375 0 
L 25.59375 64.59375 
L -0.296875 64.59375 
z
" id="DejaVuSans-84"/>
       <path d="M 9.421875 54.6875 
L 18.40625 54.6875 
L 18.40625 0 
L 9.421875 0 
z
M 9.421875 75.984375 
L 18.40625 75.984375 
L 18.40625 64.59375 
L 9.421875 64.59375 
z
" id="DejaVuSans-105"/>
       <path d="M 52 44.1875 
Q 55.375 50.25 60.0625 53.125 
Q 64.75 56 71.09375 56 
Q 79.640625 56 84.28125 50.015625 
Q 88.921875 44.046875 88.921875 33.015625 
L 88.921875 0 
L 79.890625 0 
L 79.890625 32.71875 
Q 79.890625 40.578125 77.09375 44.375 
Q 74.3125 48.1875 68.609375 48.1875 
Q 61.625 48.1875 57.5625 43.546875 
Q 53.515625 38.921875 53.515625 30.90625 
L 53.515625 0 
L 44.484375 0 
L 44.484375 32.71875 
Q 44.484375 40.625 41.703125 44.40625 
Q 38.921875 48.1875 33.109375 48.1875 
Q 26.21875 48.1875 22.15625 43.53125 
Q 18.109375 38.875 18.109375 30.90625 
L 18.109375 0 
L 9.078125 0 
L 9.078125 54.6875 
L 18.109375 54.6875 
L 18.109375 46.1875 
Q 21.1875 51.21875 25.484375 53.609375 
Q 29.78125 56 35.6875 56 
Q 41.65625 56 45.828125 52.96875 
Q 50 49.953125 52 44.1875 
z
" id="DejaVuSans-109"/>
       <path d="M 56.203125 29.59375 
L 56.203125 25.203125 
L 14.890625 25.203125 
Q 15.484375 15.921875 20.484375 11.0625 
Q 25.484375 6.203125 34.421875 6.203125 
Q 39.59375 6.203125 44.453125 7.46875 
Q 49.3125 8.734375 54.109375 11.28125 
L 54.109375 2.78125 
Q 49.265625 0.734375 44.1875 -0.34375 
Q 39.109375 -1.421875 33.890625 -1.421875 
Q 20.796875 -1.421875 13.15625 6.1875 
Q 5.515625 13.8125 5.515625 26.8125 
Q 5.515625 40.234375 12.765625 48.109375 
Q 20.015625 56 32.328125 56 
Q 43.359375 56 49.78125 48.890625 
Q 56.203125 41.796875 56.203125 29.59375 
z
M 47.21875 32.234375 
Q 47.125 39.59375 43.09375 43.984375 
Q 39.0625 48.390625 32.421875 48.390625 
Q 24.90625 48.390625 20.390625 44.140625 
Q 15.875 39.890625 15.1875 32.171875 
z
" id="DejaVuSans-101"/>
       <path id="DejaVuSans-32"/>
       <path d="M 8.59375 75.984375 
L 29.296875 75.984375 
L 29.296875 69 
L 17.578125 69 
L 17.578125 -6.203125 
L 29.296875 -6.203125 
L 29.296875 -13.1875 
L 8.59375 -13.1875 
z
" id="DejaVuSans-91"/>
       <path d="M 44.28125 53.078125 
L 44.28125 44.578125 
Q 40.484375 46.53125 36.375 47.5 
Q 32.28125 48.484375 27.875 48.484375 
Q 21.1875 48.484375 17.84375 46.4375 
Q 14.5 44.390625 14.5 40.28125 
Q 14.5 37.15625 16.890625 35.375 
Q 19.28125 33.59375 26.515625 31.984375 
L 29.59375 31.296875 
Q 39.15625 29.25 43.1875 25.515625 
Q 47.21875 21.78125 47.21875 15.09375 
Q 47.21875 7.46875 41.1875 3.015625 
Q 35.15625 -1.421875 24.609375 -1.421875 
Q 20.21875 -1.421875 15.453125 -0.5625 
Q 10.6875 0.296875 5.421875 2 
L 5.421875 11.28125 
Q 10.40625 8.6875 15.234375 7.390625 
Q 20.0625 6.109375 24.8125 6.109375 
Q 31.15625 6.109375 34.5625 8.28125 
Q 37.984375 10.453125 37.984375 14.40625 
Q 37.984375 18.0625 35.515625 20.015625 
Q 33.0625 21.96875 24.703125 23.78125 
L 21.578125 24.515625 
Q 13.234375 26.265625 9.515625 29.90625 
Q 5.8125 33.546875 5.8125 39.890625 
Q 5.8125 47.609375 11.28125 51.796875 
Q 16.75 56 26.8125 56 
Q 31.78125 56 36.171875 55.265625 
Q 40.578125 54.546875 44.28125 53.078125 
z
" id="DejaVuSans-115"/>
       <path d="M 30.421875 75.984375 
L 30.421875 -13.1875 
L 9.71875 -13.1875 
L 9.71875 -6.203125 
L 21.390625 -6.203125 
L 21.390625 69 
L 9.71875 69 
L 9.71875 75.984375 
z
" id="DejaVuSans-93"/>
      </defs>
      <use xlink:href="#DejaVuSans-84"/>
      <use x="57.958984" xlink:href="#DejaVuSans-105"/>
      <use x="85.742188" xlink:href="#DejaVuSans-109"/>
      <use x="183.154297" xlink:href="#DejaVuSans-101"/>
      <use x="244.677734" xlink:href="#DejaVuSans-32"/>
      <use x="276.464844" xlink:href="#DejaVuSans-91"/>
      <use x="315.478516" xlink:href="#DejaVuSans-115"/>
      <use x="367.578125" xlink:href="#DejaVuSans-93"/>
     </g>
    </g>
   </g>
   <g id="matplotlib.axis_2">
    <g id="ytick_1">
     <g id="line2d_13">
      <path clip-path="url(#p0890936261)" d="M 59.632849 246.428029 
L 357.165354 246.428029 
" style="fill:none;stroke:#000000;stroke-linecap:square;stroke-opacity:0.1;stroke-width:0.5;"/>
     </g>
     <g id="line2d_14">
      <defs>
       <path d="M 0 0 
L 2.5 0 
" id="me20e937400" style="stroke:#000000;stroke-width:0.5;"/>
      </defs>
      <g>
       <use style="stroke:#000000;stroke-width:0.5;" x="59.632849" xlink:href="#me20e937400" y="246.428029"/>
      </g>
     </g>
     <g id="text_8">
      <!-- $\mathregular{0.950}$ -->
      <g transform="translate(21.692849 250.987091)scale(0.12 -0.12)">
       <defs>
        <path d="M 10.6875 12.40625 
L 21 12.40625 
L 21 0 
L 10.6875 0 
z
" id="DejaVuSans-46"/>
        <path d="M 10.984375 1.515625 
L 10.984375 10.5 
Q 14.703125 8.734375 18.5 7.8125 
Q 22.3125 6.890625 25.984375 6.890625 
Q 35.75 6.890625 40.890625 13.453125 
Q 46.046875 20.015625 46.78125 33.40625 
Q 43.953125 29.203125 39.59375 26.953125 
Q 35.25 24.703125 29.984375 24.703125 
Q 19.046875 24.703125 12.671875 31.3125 
Q 6.296875 37.9375 6.296875 49.421875 
Q 6.296875 60.640625 12.9375 67.421875 
Q 19.578125 74.21875 30.609375 74.21875 
Q 43.265625 74.21875 49.921875 64.515625 
Q 56.59375 54.828125 56.59375 36.375 
Q 56.59375 19.140625 48.40625 8.859375 
Q 40.234375 -1.421875 26.421875 -1.421875 
Q 22.703125 -1.421875 18.890625 -0.6875 
Q 15.09375 0.046875 10.984375 1.515625 
z
M 30.609375 32.421875 
Q 37.25 32.421875 41.125 36.953125 
Q 45.015625 41.5 45.015625 49.421875 
Q 45.015625 57.28125 41.125 61.84375 
Q 37.25 66.40625 30.609375 66.40625 
Q 23.96875 66.40625 20.09375 61.84375 
Q 16.21875 57.28125 16.21875 49.421875 
Q 16.21875 41.5 20.09375 36.953125 
Q 23.96875 32.421875 30.609375 32.421875 
z
" id="DejaVuSans-57"/>
       </defs>
       <use transform="translate(0 0.78125)" xlink:href="#DejaVuSans-48"/>
       <use transform="translate(63.623047 0.78125)" xlink:href="#DejaVuSans-46"/>
       <use transform="translate(95.410156 0.78125)" xlink:href="#DejaVuSans-57"/>
       <use transform="translate(159.033203 0.78125)" xlink:href="#DejaVuSans-53"/>
       <use transform="translate(222.65625 0.78125)" xlink:href="#DejaVuSans-48"/>
      </g>
     </g>
    </g>
    <g id="ytick_2">
     <g id="line2d_15">
      <path clip-path="url(#p0890936261)" d="M 59.632849 196.617265 
L 357.165354 196.617265 
" style="fill:none;stroke:#000000;stroke-linecap:square;stroke-opacity:0.1;stroke-width:0.5;"/>
     </g>
     <g id="line2d_16">
      <g>
       <use style="stroke:#000000;stroke-width:0.5;" x="59.632849" xlink:href="#me20e937400" y="196.617265"/>
      </g>
     </g>
     <g id="text_9">
      <!-- $\mathregular{0.975}$ -->
      <g transform="translate(21.692849 201.176328)scale(0.12 -0.12)">
       <defs>
        <path d="M 8.203125 72.90625 
L 55.078125 72.90625 
L 55.078125 68.703125 
L 28.609375 0 
L 18.3125 0 
L 43.21875 64.59375 
L 8.203125 64.59375 
z
" id="DejaVuSans-55"/>
       </defs>
       <use transform="translate(0 0.78125)" xlink:href="#DejaVuSans-48"/>
       <use transform="translate(63.623047 0.78125)" xlink:href="#DejaVuSans-46"/>
       <use transform="translate(95.410156 0.78125)" xlink:href="#DejaVuSans-57"/>
       <use transform="translate(159.033203 0.78125)" xlink:href="#DejaVuSans-55"/>
       <use transform="translate(222.65625 0.78125)" xlink:href="#DejaVuSans-53"/>
      </g>
     </g>
    </g>
    <g id="ytick_3">
     <g id="line2d_17">
      <path clip-path="url(#p0890936261)" d="M 59.632849 146.806502 
L 357.165354 146.806502 
" style="fill:none;stroke:#000000;stroke-linecap:square;stroke-opacity:0.1;stroke-width:0.5;"/>
     </g>
     <g id="line2d_18">
      <g>
       <use style="stroke:#000000;stroke-width:0.5;" x="59.632849" xlink:href="#me20e937400" y="146.806502"/>
      </g>
     </g>
     <g id="text_10">
      <!-- $\mathregular{1.000}$ -->
      <g transform="translate(21.692849 151.365565)scale(0.12 -0.12)">
       <use transform="translate(0 0.78125)" xlink:href="#DejaVuSans-49"/>
       <use transform="translate(63.623047 0.78125)" xlink:href="#DejaVuSans-46"/>
       <use transform="translate(95.410156 0.78125)" xlink:href="#DejaVuSans-48"/>
       <use transform="translate(159.033203 0.78125)" xlink:href="#DejaVuSans-48"/>
       <use transform="translate(222.65625 0.78125)" xlink:href="#DejaVuSans-48"/>
      </g>
     </g>
    </g>
    <g id="ytick_4">
     <g id="line2d_19">
      <path clip-path="url(#p0890936261)" d="M 59.632849 96.995739 
L 357.165354 96.995739 
" style="fill:none;stroke:#000000;stroke-linecap:square;stroke-opacity:0.1;stroke-width:0.5;"/>
     </g>
     <g id="line2d_20">
      <g>
       <use style="stroke:#000000;stroke-width:0.5;" x="59.632849" xlink:href="#me20e937400" y="96.995739"/>
      </g>
     </g>
     <g id="text_11">
      <!-- $\mathregular{1.025}$ -->
      <g transform="translate(21.692849 101.554801)scale(0.12 -0.12)">
       <use transform="translate(0 0.78125)" xlink:href="#DejaVuSans-49"/>
       <use transform="translate(63.623047 0.78125)" xlink:href="#DejaVuSans-46"/>
       <use transform="translate(95.410156 0.78125)" xlink:href="#DejaVuSans-48"/>
       <use transform="translate(159.033203 0.78125)" xlink:href="#DejaVuSans-50"/>
       <use transform="translate(222.65625 0.78125)" xlink:href="#DejaVuSans-53"/>
      </g>
     </g>
    </g>
    <g id="ytick_5">
     <g id="line2d_21">
      <path clip-path="url(#p0890936261)" d="M 59.632849 47.184976 
L 357.165354 47.184976 
" style="fill:none;stroke:#000000;stroke-linecap:square;stroke-opacity:0.1;stroke-width:0.5;"/>
     </g>
     <g id="line2d_22">
      <g>
       <use style="stroke:#000000;stroke-width:0.5;" x="59.632849" xlink:href="#me20e937400" y="47.184976"/>
      </g>
     </g>
     <g id="text_12">
      <!-- $\mathregular{1.050}$ -->
      <g transform="translate(21.692849 51.744038)scale(0.12 -0.12)">
       <use transform="translate(0 0.78125)" xlink:href="#DejaVuSans-49"/>
       <use transform="translate(63.623047 0.78125)" xlink:href="#DejaVuSans-46"/>
       <use transform="translate(95.410156 0.78125)" xlink:href="#DejaVuSans-48"/>
       <use transform="translate(159.033203 0.78125)" xlink:href="#DejaVuSans-53"/>
       <use transform="translate(222.65625 0.78125)" xlink:href="#DejaVuSans-48"/>
      </g>
     </g>
    </g>
    <g id="text_13">
     <!-- Inlet conditions -->
     <g transform="translate(14.365349 187.98)rotate(-90)scale(0.16 -0.16)">
      <defs>
       <path d="M 9.8125 72.90625 
L 19.671875 72.90625 
L 19.671875 0 
L 9.8125 0 
z
" id="DejaVuSans-73"/>
       <path d="M 54.890625 33.015625 
L 54.890625 0 
L 45.90625 0 
L 45.90625 32.71875 
Q 45.90625 40.484375 42.875 44.328125 
Q 39.84375 48.1875 33.796875 48.1875 
Q 26.515625 48.1875 22.3125 43.546875 
Q 18.109375 38.921875 18.109375 30.90625 
L 18.109375 0 
L 9.078125 0 
L 9.078125 54.6875 
L 18.109375 54.6875 
L 18.109375 46.1875 
Q 21.34375 51.125 25.703125 53.5625 
Q 30.078125 56 35.796875 56 
Q 45.21875 56 50.046875 50.171875 
Q 54.890625 44.34375 54.890625 33.015625 
z
" id="DejaVuSans-110"/>
       <path d="M 9.421875 75.984375 
L 18.40625 75.984375 
L 18.40625 0 
L 9.421875 0 
z
" id="DejaVuSans-108"/>
       <path d="M 18.3125 70.21875 
L 18.3125 54.6875 
L 36.8125 54.6875 
L 36.8125 47.703125 
L 18.3125 47.703125 
L 18.3125 18.015625 
Q 18.3125 11.328125 20.140625 9.421875 
Q 21.96875 7.515625 27.59375 7.515625 
L 36.8125 7.515625 
L 36.8125 0 
L 27.59375 0 
Q 17.1875 0 13.234375 3.875 
Q 9.28125 7.765625 9.28125 18.015625 
L 9.28125 47.703125 
L 2.6875 47.703125 
L 2.6875 54.6875 
L 9.28125 54.6875 
L 9.28125 70.21875 
z
" id="DejaVuSans-116"/>
       <path d="M 48.78125 52.59375 
L 48.78125 44.1875 
Q 44.96875 46.296875 41.140625 47.34375 
Q 37.3125 48.390625 33.40625 48.390625 
Q 24.65625 48.390625 19.8125 42.84375 
Q 14.984375 37.3125 14.984375 27.296875 
Q 14.984375 17.28125 19.8125 11.734375 
Q 24.65625 6.203125 33.40625 6.203125 
Q 37.3125 6.203125 41.140625 7.25 
Q 44.96875 8.296875 48.78125 10.40625 
L 48.78125 2.09375 
Q 45.015625 0.34375 40.984375 -0.53125 
Q 36.96875 -1.421875 32.421875 -1.421875 
Q 20.0625 -1.421875 12.78125 6.34375 
Q 5.515625 14.109375 5.515625 27.296875 
Q 5.515625 40.671875 12.859375 48.328125 
Q 20.21875 56 33.015625 56 
Q 37.15625 56 41.109375 55.140625 
Q 45.0625 54.296875 48.78125 52.59375 
z
" id="DejaVuSans-99"/>
       <path d="M 30.609375 48.390625 
Q 23.390625 48.390625 19.1875 42.75 
Q 14.984375 37.109375 14.984375 27.296875 
Q 14.984375 17.484375 19.15625 11.84375 
Q 23.34375 6.203125 30.609375 6.203125 
Q 37.796875 6.203125 41.984375 11.859375 
Q 46.1875 17.53125 46.1875 27.296875 
Q 46.1875 37.015625 41.984375 42.703125 
Q 37.796875 48.390625 30.609375 48.390625 
z
M 30.609375 56 
Q 42.328125 56 49.015625 48.375 
Q 55.71875 40.765625 55.71875 27.296875 
Q 55.71875 13.875 49.015625 6.21875 
Q 42.328125 -1.421875 30.609375 -1.421875 
Q 18.84375 -1.421875 12.171875 6.21875 
Q 5.515625 13.875 5.515625 27.296875 
Q 5.515625 40.765625 12.171875 48.375 
Q 18.84375 56 30.609375 56 
z
" id="DejaVuSans-111"/>
       <path d="M 45.40625 46.390625 
L 45.40625 75.984375 
L 54.390625 75.984375 
L 54.390625 0 
L 45.40625 0 
L 45.40625 8.203125 
Q 42.578125 3.328125 38.25 0.953125 
Q 33.9375 -1.421875 27.875 -1.421875 
Q 17.96875 -1.421875 11.734375 6.484375 
Q 5.515625 14.40625 5.515625 27.296875 
Q 5.515625 40.1875 11.734375 48.09375 
Q 17.96875 56 27.875 56 
Q 33.9375 56 38.25 53.625 
Q 42.578125 51.265625 45.40625 46.390625 
z
M 14.796875 27.296875 
Q 14.796875 17.390625 18.875 11.75 
Q 22.953125 6.109375 30.078125 6.109375 
Q 37.203125 6.109375 41.296875 11.75 
Q 45.40625 17.390625 45.40625 27.296875 
Q 45.40625 37.203125 41.296875 42.84375 
Q 37.203125 48.484375 30.078125 48.484375 
Q 22.953125 48.484375 18.875 42.84375 
Q 14.796875 37.203125 14.796875 27.296875 
z
" id="DejaVuSans-100"/>
      </defs>
      <use xlink:href="#DejaVuSans-73"/>
      <use x="29.492188" xlink:href="#DejaVuSans-110"/>
      <use x="92.871094" xlink:href="#DejaVuSans-108"/>
      <use x="120.654297" xlink:href="#DejaVuSans-101"/>
      <use x="182.177734" xlink:href="#DejaVuSans-116"/>
      <use x="221.386719" xlink:href="#DejaVuSans-32"/>
      <use x="253.173828" xlink:href="#DejaVuSans-99"/>
      <use x="308.154297" xlink:href="#DejaVuSans-111"/>
      <use x="369.335938" xlink:href="#DejaVuSans-110"/>
      <use x="432.714844" xlink:href="#DejaVuSans-100"/>
      <use x="496.191406" xlink:href="#DejaVuSans-105"/>
      <use x="523.974609" xlink:href="#DejaVuSans-116"/>
      <use x="563.183594" xlink:href="#DejaVuSans-105"/>
      <use x="590.966797" xlink:href="#DejaVuSans-111"/>
      <use x="652.148438" xlink:href="#DejaVuSans-110"/>
      <use x="715.527344" xlink:href="#DejaVuSans-115"/>
     </g>
    </g>
   </g>
   <g id="PathCollection_1">
    <defs>
     <path d="M 0 2 
C 0.530406 2 1.03916 1.789267 1.414214 1.414214 
C 1.789267 1.03916 2 0.530406 2 0 
C 2 -0.530406 1.789267 -1.03916 1.414214 -1.414214 
C 1.03916 -1.789267 0.530406 -2 0 -2 
C -0.530406 -2 -1.03916 -1.789267 -1.414214 -1.414214 
C -1.789267 -1.03916 -2 -0.530406 -2 0 
C -2 0.530406 -1.789267 1.03916 -1.414214 1.414214 
C -1.03916 1.789267 -0.530406 2 0 2 
z
" id="maee93836d7"/>
    </defs>
    <g clip-path="url(#p0890936261)">
     <use x="68.05358" xlink:href="#maee93836d7" y="224.27928"/>
     <use x="73.781969" xlink:href="#maee93836d7" y="233.772367"/>
     <use x="79.510357" xlink:href="#maee93836d7" y="234.282863"/>
     <use x="85.238746" xlink:href="#maee93836d7" y="230.609215"/>
     <use x="90.967135" xlink:href="#maee93836d7" y="233.371885"/>
     <use x="96.695523" xlink:href="#maee93836d7" y="235.875597"/>
     <use x="102.423912" xlink:href="#maee93836d7" y="236.32832"/>
     <use x="108.152301" xlink:href="#maee93836d7" y="232.466661"/>
     <use x="113.880689" xlink:href="#maee93836d7" y="241.281102"/>
     <use x="119.609078" xlink:href="#maee93836d7" y="231.751733"/>
     <use x="125.337466" xlink:href="#maee93836d7" y="237.180436"/>
     <use x="131.065855" xlink:href="#maee93836d7" y="231.54215"/>
     <use x="136.794244" xlink:href="#maee93836d7" y="230.834738"/>
     <use x="142.522632" xlink:href="#maee93836d7" y="219.867895"/>
     <use x="148.251021" xlink:href="#maee93836d7" y="223.490472"/>
     <use x="153.97941" xlink:href="#maee93836d7" y="219.041347"/>
     <use x="159.707798" xlink:href="#maee93836d7" y="214.02525"/>
     <use x="165.436187" xlink:href="#maee93836d7" y="216.214627"/>
     <use x="171.164575" xlink:href="#maee93836d7" y="202.717973"/>
     <use x="176.892964" xlink:href="#maee93836d7" y="200.21235"/>
     <use x="182.621353" xlink:href="#maee93836d7" y="200.81564"/>
     <use x="188.349741" xlink:href="#maee93836d7" y="199.639617"/>
     <use x="194.07813" xlink:href="#maee93836d7" y="192.733865"/>
     <use x="199.806519" xlink:href="#maee93836d7" y="192.465296"/>
     <use x="205.534907" xlink:href="#maee93836d7" y="181.822999"/>
     <use x="211.263296" xlink:href="#maee93836d7" y="180.475598"/>
     <use x="216.991685" xlink:href="#maee93836d7" y="176.02511"/>
     <use x="222.720073" xlink:href="#maee93836d7" y="174.225919"/>
     <use x="228.448462" xlink:href="#maee93836d7" y="182.538397"/>
     <use x="234.17685" xlink:href="#maee93836d7" y="172.093718"/>
     <use x="239.905239" xlink:href="#maee93836d7" y="182.036816"/>
     <use x="245.633628" xlink:href="#maee93836d7" y="182.588536"/>
     <use x="251.362016" xlink:href="#maee93836d7" y="171.920905"/>
     <use x="257.090405" xlink:href="#maee93836d7" y="174.381296"/>
     <use x="262.818794" xlink:href="#maee93836d7" y="176.487955"/>
     <use x="268.547182" xlink:href="#maee93836d7" y="180.638103"/>
     <use x="274.275571" xlink:href="#maee93836d7" y="187.714791"/>
     <use x="280.003959" xlink:href="#maee93836d7" y="184.536541"/>
     <use x="285.732348" xlink:href="#maee93836d7" y="184.567588"/>
     <use x="291.460737" xlink:href="#maee93836d7" y="193.54059"/>
     <use x="297.189125" xlink:href="#maee93836d7" y="198.669364"/>
     <use x="302.917514" xlink:href="#maee93836d7" y="198.597293"/>
     <use x="308.645903" xlink:href="#maee93836d7" y="203.456432"/>
     <use x="314.374291" xlink:href="#maee93836d7" y="211.495173"/>
     <use x="320.10268" xlink:href="#maee93836d7" y="208.975985"/>
     <use x="325.831069" xlink:href="#maee93836d7" y="217.77876"/>
     <use x="331.559457" xlink:href="#maee93836d7" y="217.142151"/>
     <use x="337.287846" xlink:href="#maee93836d7" y="221.686703"/>
     <use x="343.016234" xlink:href="#maee93836d7" y="223.271672"/>
     <use x="348.744623" xlink:href="#maee93836d7" y="222.385522"/>
    </g>
   </g>
   <g id="PathCollection_2">
    <defs>
     <path d="M 0 2 
C 0.530406 2 1.03916 1.789267 1.414214 1.414214 
C 1.789267 1.03916 2 0.530406 2 0 
C 2 -0.530406 1.789267 -1.03916 1.414214 -1.414214 
C 1.03916 -1.789267 0.530406 -2 0 -2 
C -0.530406 -2 -1.03916 -1.789267 -1.414214 -1.414214 
C -1.789267 -1.03916 -2 -0.530406 -2 0 
C -2 0.530406 -1.789267 1.03916 -1.414214 1.414214 
C -1.03916 1.789267 -0.530406 2 0 2 
z
" id="m89c1b0d5ed"/>
    </defs>
    <g clip-path="url(#p0890936261)">
     <use style="fill:#ff0000;" x="68.05358" xlink:href="#m89c1b0d5ed" y="110.530059"/>
     <use style="fill:#ff0000;" x="73.781969" xlink:href="#m89c1b0d5ed" y="73.413597"/>
     <use style="fill:#ff0000;" x="79.510357" xlink:href="#m89c1b0d5ed" y="30.426714"/>
     <use style="fill:#ff0000;" x="85.238746" xlink:href="#m89c1b0d5ed" y="13.927189"/>
     <use style="fill:#ff0000;" x="90.967135" xlink:href="#m89c1b0d5ed" y="57.614387"/>
     <use style="fill:#ff0000;" x="96.695523" xlink:href="#m89c1b0d5ed" y="122.226539"/>
     <use style="fill:#ff0000;" x="102.423912" xlink:href="#m89c1b0d5ed" y="206.547434"/>
     <use style="fill:#ff0000;" x="108.152301" xlink:href="#m89c1b0d5ed" y="217.830367"/>
     <use style="fill:#ff0000;" x="113.880689" xlink:href="#m89c1b0d5ed" y="202.2656"/>
     <use style="fill:#ff0000;" x="119.609078" xlink:href="#m89c1b0d5ed" y="185.119483"/>
     <use style="fill:#ff0000;" x="125.337466" xlink:href="#m89c1b0d5ed" y="119.39038"/>
     <use style="fill:#ff0000;" x="131.065855" xlink:href="#m89c1b0d5ed" y="56.941538"/>
     <use style="fill:#ff0000;" x="136.794244" xlink:href="#m89c1b0d5ed" y="9.838534"/>
     <use style="fill:#ff0000;" x="142.522632" xlink:href="#m89c1b0d5ed" y="20.137357"/>
     <use style="fill:#ff0000;" x="148.251021" xlink:href="#m89c1b0d5ed" y="63.818882"/>
     <use style="fill:#ff0000;" x="153.97941" xlink:href="#m89c1b0d5ed" y="146.760191"/>
     <use style="fill:#ff0000;" x="159.707798" xlink:href="#m89c1b0d5ed" y="197.419244"/>
     <use style="fill:#ff0000;" x="165.436187" xlink:href="#m89c1b0d5ed" y="225.225882"/>
     <use style="fill:#ff0000;" x="171.164575" xlink:href="#m89c1b0d5ed" y="196.269854"/>
     <use style="fill:#ff0000;" x="176.892964" xlink:href="#m89c1b0d5ed" y="175.377293"/>
     <use style="fill:#ff0000;" x="182.621353" xlink:href="#m89c1b0d5ed" y="82.583711"/>
     <use style="fill:#ff0000;" x="188.349741" xlink:href="#m89c1b0d5ed" y="56.615984"/>
     <use style="fill:#ff0000;" x="194.07813" xlink:href="#m89c1b0d5ed" y="42.538603"/>
     <use style="fill:#ff0000;" x="199.806519" xlink:href="#m89c1b0d5ed" y="43.966721"/>
     <use style="fill:#ff0000;" x="205.534907" xlink:href="#m89c1b0d5ed" y="75.730656"/>
     <use style="fill:#ff0000;" x="211.263296" xlink:href="#m89c1b0d5ed" y="175.22277"/>
     <use style="fill:#ff0000;" x="216.991685" xlink:href="#m89c1b0d5ed" y="220.365076"/>
     <use style="fill:#ff0000;" x="222.720073" xlink:href="#m89c1b0d5ed" y="207.65104"/>
     <use style="fill:#ff0000;" x="228.448462" xlink:href="#m89c1b0d5ed" y="197.63419"/>
     <use style="fill:#ff0000;" x="234.17685" xlink:href="#m89c1b0d5ed" y="146.590612"/>
     <use style="fill:#ff0000;" x="239.905239" xlink:href="#m89c1b0d5ed" y="92.22369"/>
     <use style="fill:#ff0000;" x="245.633628" xlink:href="#m89c1b0d5ed" y="53.024251"/>
     <use style="fill:#ff0000;" x="251.362016" xlink:href="#m89c1b0d5ed" y="27.985074"/>
     <use style="fill:#ff0000;" x="257.090405" xlink:href="#m89c1b0d5ed" y="61.389754"/>
     <use style="fill:#ff0000;" x="262.818794" xlink:href="#m89c1b0d5ed" y="113.557764"/>
     <use style="fill:#ff0000;" x="268.547182" xlink:href="#m89c1b0d5ed" y="168.963725"/>
     <use style="fill:#ff0000;" x="274.275571" xlink:href="#m89c1b0d5ed" y="206.811864"/>
     <use style="fill:#ff0000;" x="280.003959" xlink:href="#m89c1b0d5ed" y="243.301466"/>
     <use style="fill:#ff0000;" x="285.732348" xlink:href="#m89c1b0d5ed" y="207.205388"/>
     <use style="fill:#ff0000;" x="291.460737" xlink:href="#m89c1b0d5ed" y="155.488792"/>
     <use style="fill:#ff0000;" x="297.189125" xlink:href="#m89c1b0d5ed" y="92.933962"/>
     <use style="fill:#ff0000;" x="302.917514" xlink:href="#m89c1b0d5ed" y="45.633112"/>
     <use style="fill:#ff0000;" x="308.645903" xlink:href="#m89c1b0d5ed" y="31.590265"/>
     <use style="fill:#ff0000;" x="314.374291" xlink:href="#m89c1b0d5ed" y="51.331298"/>
     <use style="fill:#ff0000;" x="320.10268" xlink:href="#m89c1b0d5ed" y="105.43568"/>
     <use style="fill:#ff0000;" x="325.831069" xlink:href="#m89c1b0d5ed" y="180.139332"/>
     <use style="fill:#ff0000;" x="331.559457" xlink:href="#m89c1b0d5ed" y="205.75831"/>
     <use style="fill:#ff0000;" x="337.287846" xlink:href="#m89c1b0d5ed" y="232.963781"/>
     <use style="fill:#ff0000;" x="343.016234" xlink:href="#m89c1b0d5ed" y="195.450926"/>
     <use style="fill:#ff0000;" x="348.744623" xlink:href="#m89c1b0d5ed" y="120.579588"/>
    </g>
   </g>
   <g id="patch_3">
    <path d="M 59.632849 250.305354 
L 59.632849 2.834646 
" style="fill:none;stroke:#000000;stroke-linecap:square;stroke-linejoin:miter;"/>
   </g>
   <g id="patch_4">
    <path d="M 59.632849 250.305354 
L 357.165354 250.305354 
" style="fill:none;stroke:#000000;stroke-linecap:square;stroke-linejoin:miter;"/>
   </g>
   <g id="line2d_23">
    <path clip-path="url(#p0890936261)" d="M 68.05358 231.309596 
L 70.308127 231.954857 
L 73.689946 232.618623 
L 77.071766 233.003371 
L 81.580859 233.254715 
L 95.108138 233.825151 
L 105.253598 234.372257 
L 109.762691 234.323394 
L 113.144511 234.065062 
L 116.52633 233.586313 
L 119.90815 232.883508 
L 123.28997 231.975151 
L 127.799063 230.510118 
L 134.562703 228.010113 
L 146.962709 223.400358 
L 153.726348 220.832534 
L 158.235441 218.865271 
L 161.617261 217.152028 
L 164.999081 215.177975 
L 168.380901 212.911933 
L 171.76272 210.347691 
L 175.14454 207.506715 
L 179.653633 203.37518 
L 194.308186 189.472031 
L 197.690006 186.668509 
L 201.071825 184.149271 
L 204.453645 181.938923 
L 207.835465 180.040613 
L 211.217285 178.440223 
L 214.599105 177.112593 
L 217.980924 176.028664 
L 221.362744 175.162316 
L 224.744564 174.495787 
L 228.126384 174.02281 
L 231.508203 173.749001 
L 234.890023 173.68949 
L 238.271843 173.864268 
L 241.653663 174.292078 
L 245.035483 174.983976 
L 248.417302 175.937711 
L 251.799122 177.134018 
L 256.308215 179.039547 
L 261.944582 181.729858 
L 269.835494 185.522288 
L 274.344588 187.462891 
L 278.853681 189.166831 
L 284.490047 191.029359 
L 292.38096 193.598624 
L 295.76278 194.892561 
L 299.144599 196.404468 
L 302.526419 198.183498 
L 305.908239 200.252874 
L 309.290059 202.606164 
L 312.671879 205.207518 
L 317.180972 208.95357 
L 328.453704 218.499047 
L 332.962797 221.924179 
L 336.344617 224.248879 
L 339.726437 226.360527 
L 344.23553 228.882467 
L 348.744623 231.149815 
L 348.744623 231.149815 
" style="fill:none;stroke:#000000;"/>
   </g>
   <g id="line2d_24">
    <path clip-path="url(#p0890936261)" d="M 68.05358 112.809084 
L 71.4354 75.064936 
L 73.689946 52.57802 
L 74.81722 42.722682 
L 75.944493 34.026443 
L 77.071766 26.642861 
L 78.199039 20.703976 
L 79.326313 16.317291 
L 80.453586 13.563254 
L 81.580859 12.493344 
L 82.708133 13.128839 
L 83.835406 15.460311 
L 84.962679 19.44787 
L 86.089952 25.022146 
L 87.217226 32.08598 
L 88.344499 40.516732 
L 89.471772 50.169139 
L 91.726319 72.464791 
L 93.980865 97.490128 
L 99.617232 161.411017 
L 101.871778 183.468159 
L 102.999051 193.071473 
L 104.126325 201.544094 
L 105.253598 208.772472 
L 106.380871 214.661628 
L 107.508144 219.135794 
L 108.635418 222.138867 
L 109.762691 223.634704 
L 110.889964 223.607287 
L 112.017237 222.060773 
L 113.144511 219.019431 
L 114.271784 214.527483 
L 115.399057 208.648816 
L 116.52633 201.46656 
L 117.653604 193.082501 
L 118.780877 183.616303 
L 121.035424 161.99915 
L 124.417243 125.341325 
L 127.799063 88.117178 
L 130.05361 65.629586 
L 131.180883 55.657967 
L 132.308156 46.765224 
L 133.435429 39.104182 
L 134.562703 32.80742 
L 135.689976 27.984284 
L 136.817249 24.718377 
L 137.944523 23.065601 
L 139.071796 23.05285 
L 140.199069 24.677385 
L 141.326342 27.906936 
L 142.453616 32.680507 
L 143.580889 38.90987 
L 144.708162 46.481673 
L 145.835435 55.260092 
L 148.089982 75.79997 
L 150.344528 99.117988 
L 155.980895 159.365864 
L 158.235441 180.301032 
L 159.362715 189.430725 
L 160.489988 197.490188 
L 161.617261 204.366815 
L 162.744534 209.966076 
L 163.871808 214.212229 
L 164.999081 217.04883 
L 166.126354 218.439086 
L 167.253627 218.366063 
L 168.380901 216.832771 
L 169.508174 213.862126 
L 170.635447 209.496803 
L 171.76272 203.798952 
L 172.889994 196.849776 
L 174.017267 188.748931 
L 176.271814 169.578116 
L 178.52636 147.416444 
L 185.29 77.123995 
L 187.544546 57.524014 
L 188.671819 49.260794 
L 189.799093 42.225059 
L 190.926366 36.544706 
L 192.053639 32.324615 
L 193.180912 29.644204 
L 194.308186 28.555547 
L 195.435459 29.082123 
L 196.562732 31.218244 
L 197.690006 34.929186 
L 198.817279 40.152019 
L 199.944552 46.797103 
L 201.071825 54.750192 
L 202.199099 63.875054 
L 204.453645 85.003888 
L 206.708192 108.777018 
L 212.344558 169.645773 
L 214.599105 190.655214 
L 215.726378 199.790546 
L 216.853651 207.83617 
L 217.980924 214.68038 
L 219.108198 220.229332 
L 220.235471 224.407744 
L 221.362744 227.159412 
L 222.490017 228.44757 
L 223.617291 228.255103 
L 224.744564 226.584655 
L 225.871837 223.458621 
L 226.99911 218.919019 
L 228.126384 213.027253 
L 229.253657 205.863725 
L 230.38093 197.527287 
L 232.635477 177.818597 
L 234.890023 155.026497 
L 241.653663 82.300044 
L 243.908209 61.741266 
L 245.035483 52.981861 
L 246.162756 45.443311 
L 247.290029 39.257328 
L 248.417302 34.532841 
L 249.544576 31.353472 
L 250.671849 29.775562 
L 251.799122 29.826831 
L 252.926396 31.505707 
L 254.053669 34.781373 
L 255.180942 39.594508 
L 256.308215 45.858717 
L 257.435489 53.462564 
L 258.562762 62.272161 
L 260.817308 82.879217 
L 263.071855 106.281839 
L 268.708221 166.874771 
L 270.962768 188.008837 
L 272.090041 197.249717 
L 273.217314 205.427003 
L 274.344588 212.426922 
L 275.471861 218.153582 
L 276.599134 222.529697 
L 277.726407 225.497125 
L 278.853681 227.017233 
L 279.980954 227.071128 
L 281.108227 225.659764 
L 282.2355 222.80393 
L 283.362774 218.544127 
L 284.490047 212.940313 
L 285.61732 206.071517 
L 286.744593 198.035275 
L 287.871867 188.946875 
L 290.126413 168.157322 
L 292.38096 144.935851 
L 296.890053 97.008595 
L 299.144599 75.401468 
L 300.271873 65.847629 
L 301.399146 57.353812 
L 302.526419 50.070436 
L 303.653692 44.128093 
L 304.780966 39.634578 
L 305.908239 36.672363 
L 307.035512 35.29662 
L 308.162786 35.533877 
L 309.290059 37.381351 
L 310.417332 40.806989 
L 311.544605 45.750216 
L 312.671879 52.12336 
L 313.799152 59.813697 
L 314.926425 68.686029 
L 317.180972 89.342038 
L 319.435518 112.68276 
L 325.071884 172.566329 
L 327.326431 193.166905 
L 328.453704 202.082201 
L 329.580978 209.892913 
L 330.708251 216.483973 
L 331.835524 221.758229 
L 332.962797 225.637202 
L 334.090071 228.061646 
L 335.217344 228.991956 
L 336.344617 228.408451 
L 337.47189 226.311525 
L 338.599164 222.721706 
L 339.726437 217.679597 
L 340.85371 211.245704 
L 341.980983 203.500118 
L 343.108257 194.542041 
L 345.362803 173.476434 
L 347.61735 149.192622 
L 348.744623 136.267051 
L 348.744623 136.267051 
" style="fill:none;stroke:#ff0000;"/>
   </g>
   <g id="legend_1">
    <g id="line2d_25">
     <path d="M 234.281604 23.352771 
L 258.281604 23.352771 
" style="fill:none;"/>
    </g>
    <g id="line2d_26">
     <defs>
      <path d="M 0 4.8 
C 1.272975 4.8 2.493983 4.294242 3.394113 3.394113 
C 4.294242 2.493983 4.8 1.272975 4.8 0 
C 4.8 -1.272975 4.294242 -2.493983 3.394113 -3.394113 
C 2.493983 -4.294242 1.272975 -4.8 0 -4.8 
C -1.272975 -4.8 -2.493983 -4.294242 -3.394113 -3.394113 
C -4.294242 -2.493983 -4.8 -1.272975 -4.8 0 
C -4.8 1.272975 -4.294242 2.493983 -3.394113 3.394113 
C -2.493983 4.294242 -1.272975 4.8 0 4.8 
z
" id="m644ed437c8"/>
     </defs>
     <g>
      <use x="246.281604" xlink:href="#m644ed437c8" y="23.352771"/>
     </g>
    </g>
    <g id="text_14">
     <!-- Groundtruth -->
     <g transform="translate(267.881604 27.552771)scale(0.12 -0.12)">
      <defs>
       <path d="M 59.515625 10.40625 
L 59.515625 29.984375 
L 43.40625 29.984375 
L 43.40625 38.09375 
L 69.28125 38.09375 
L 69.28125 6.78125 
Q 63.578125 2.734375 56.6875 0.65625 
Q 49.8125 -1.421875 42 -1.421875 
Q 24.90625 -1.421875 15.25 8.5625 
Q 5.609375 18.5625 5.609375 36.375 
Q 5.609375 54.25 15.25 64.234375 
Q 24.90625 74.21875 42 74.21875 
Q 49.125 74.21875 55.546875 72.453125 
Q 61.96875 70.703125 67.390625 67.28125 
L 67.390625 56.78125 
Q 61.921875 61.421875 55.765625 63.765625 
Q 49.609375 66.109375 42.828125 66.109375 
Q 29.4375 66.109375 22.71875 58.640625 
Q 16.015625 51.171875 16.015625 36.375 
Q 16.015625 21.625 22.71875 14.15625 
Q 29.4375 6.6875 42.828125 6.6875 
Q 48.046875 6.6875 52.140625 7.59375 
Q 56.25 8.5 59.515625 10.40625 
z
" id="DejaVuSans-71"/>
       <path d="M 41.109375 46.296875 
Q 39.59375 47.171875 37.8125 47.578125 
Q 36.03125 48 33.890625 48 
Q 26.265625 48 22.1875 43.046875 
Q 18.109375 38.09375 18.109375 28.8125 
L 18.109375 0 
L 9.078125 0 
L 9.078125 54.6875 
L 18.109375 54.6875 
L 18.109375 46.1875 
Q 20.953125 51.171875 25.484375 53.578125 
Q 30.03125 56 36.53125 56 
Q 37.453125 56 38.578125 55.875 
Q 39.703125 55.765625 41.0625 55.515625 
z
" id="DejaVuSans-114"/>
       <path d="M 8.5 21.578125 
L 8.5 54.6875 
L 17.484375 54.6875 
L 17.484375 21.921875 
Q 17.484375 14.15625 20.5 10.265625 
Q 23.53125 6.390625 29.59375 6.390625 
Q 36.859375 6.390625 41.078125 11.03125 
Q 45.3125 15.671875 45.3125 23.6875 
L 45.3125 54.6875 
L 54.296875 54.6875 
L 54.296875 0 
L 45.3125 0 
L 45.3125 8.40625 
Q 42.046875 3.421875 37.71875 1 
Q 33.40625 -1.421875 27.6875 -1.421875 
Q 18.265625 -1.421875 13.375 4.4375 
Q 8.5 10.296875 8.5 21.578125 
z
M 31.109375 56 
z
" id="DejaVuSans-117"/>
       <path d="M 54.890625 33.015625 
L 54.890625 0 
L 45.90625 0 
L 45.90625 32.71875 
Q 45.90625 40.484375 42.875 44.328125 
Q 39.84375 48.1875 33.796875 48.1875 
Q 26.515625 48.1875 22.3125 43.546875 
Q 18.109375 38.921875 18.109375 30.90625 
L 18.109375 0 
L 9.078125 0 
L 9.078125 75.984375 
L 18.109375 75.984375 
L 18.109375 46.1875 
Q 21.34375 51.125 25.703125 53.5625 
Q 30.078125 56 35.796875 56 
Q 45.21875 56 50.046875 50.171875 
Q 54.890625 44.34375 54.890625 33.015625 
z
" id="DejaVuSans-104"/>
      </defs>
      <use xlink:href="#DejaVuSans-71"/>
      <use x="77.490234" xlink:href="#DejaVuSans-114"/>
      <use x="116.353516" xlink:href="#DejaVuSans-111"/>
      <use x="177.535156" xlink:href="#DejaVuSans-117"/>
      <use x="240.914062" xlink:href="#DejaVuSans-110"/>
      <use x="304.292969" xlink:href="#DejaVuSans-100"/>
      <use x="367.769531" xlink:href="#DejaVuSans-116"/>
      <use x="406.978516" xlink:href="#DejaVuSans-114"/>
      <use x="448.091797" xlink:href="#DejaVuSans-117"/>
      <use x="511.470703" xlink:href="#DejaVuSans-116"/>
      <use x="550.679688" xlink:href="#DejaVuSans-104"/>
     </g>
    </g>
    <g id="line2d_27">
     <path d="M 234.281604 40.966521 
L 258.281604 40.966521 
" style="fill:none;stroke:#000000;stroke-linejoin:miter;stroke-width:1.5;"/>
    </g>
    <g id="line2d_28"/>
    <g id="text_15">
     <!-- Prediction -->
     <g transform="translate(267.881604 45.166521)scale(0.12 -0.12)">
      <defs>
       <path d="M 19.671875 64.796875 
L 19.671875 37.40625 
L 32.078125 37.40625 
Q 38.96875 37.40625 42.71875 40.96875 
Q 46.484375 44.53125 46.484375 51.125 
Q 46.484375 57.671875 42.71875 61.234375 
Q 38.96875 64.796875 32.078125 64.796875 
z
M 9.8125 72.90625 
L 32.078125 72.90625 
Q 44.34375 72.90625 50.609375 67.359375 
Q 56.890625 61.8125 56.890625 51.125 
Q 56.890625 40.328125 50.609375 34.8125 
Q 44.34375 29.296875 32.078125 29.296875 
L 19.671875 29.296875 
L 19.671875 0 
L 9.8125 0 
z
" id="DejaVuSans-80"/>
      </defs>
      <use xlink:href="#DejaVuSans-80"/>
      <use x="58.552734" xlink:href="#DejaVuSans-114"/>
      <use x="97.416016" xlink:href="#DejaVuSans-101"/>
      <use x="158.939453" xlink:href="#DejaVuSans-100"/>
      <use x="222.416016" xlink:href="#DejaVuSans-105"/>
      <use x="250.199219" xlink:href="#DejaVuSans-99"/>
      <use x="305.179688" xlink:href="#DejaVuSans-116"/>
      <use x="344.388672" xlink:href="#DejaVuSans-105"/>
      <use x="372.171875" xlink:href="#DejaVuSans-111"/>
      <use x="433.353516" xlink:href="#DejaVuSans-110"/>
     </g>
    </g>
   </g>
  </g>
 </g>
 <defs>
  <clipPath id="p0890936261">
   <rect height="247.470709" width="297.532506" x="59.632849" y="2.834646"/>
  </clipPath>
 </defs>
</svg>
