<?xml version="1.0" encoding="utf-8" standalone="no"?>
<!DOCTYPE svg PUBLIC "-//W3C//DTD SVG 1.1//EN"
  "http://www.w3.org/Graphics/SVG/1.1/DTD/svg11.dtd">
<!-- Created with matplotlib (https://matplotlib.org/) -->
<svg height="288pt" version="1.1" viewBox="0 0 720 288" width="720pt" xmlns="http://www.w3.org/2000/svg" xmlns:xlink="http://www.w3.org/1999/xlink">
 <metadata>
  <rdf:RDF xmlns:cc="http://creativecommons.org/ns#" xmlns:dc="http://purl.org/dc/elements/1.1/" xmlns:rdf="http://www.w3.org/1999/02/22-rdf-syntax-ns#">
   <cc:Work>
    <dc:type rdf:resource="http://purl.org/dc/dcmitype/StillImage"/>
    <dc:date>2021-04-24T23:30:35.936415</dc:date>
    <dc:format>image/svg+xml</dc:format>
    <dc:creator>
     <cc:Agent>
      <dc:title>Matplotlib v3.3.2, https://matplotlib.org/</dc:title>
     </cc:Agent>
    </dc:creator>
   </cc:Work>
  </rdf:RDF>
 </metadata>
 <defs>
  <style type="text/css">*{stroke-linecap:butt;stroke-linejoin:round;}</style>
 </defs>
 <g id="figure_1">
  <g id="patch_1">
   <path d="M 0 288 
L 720 288 
L 720 0 
L 0 0 
z
" style="fill:#ffffff;"/>
  </g>
  <g id="axes_1">
   <g id="patch_2">
    <path d="M 85.212619 81.545354 
L 585.015354 81.545354 
L 585.015354 2.834646 
L 85.212619 2.834646 
z
" style="fill:#ffffff;"/>
   </g>
   <g id="matplotlib.axis_1">
    <g id="xtick_1"/>
    <g id="xtick_2"/>
    <g id="xtick_3"/>
    <g id="xtick_4"/>
    <g id="xtick_5"/>
    <g id="xtick_6"/>
   </g>
   <g id="matplotlib.axis_2">
    <g id="ytick_1">
     <g id="line2d_1">
      <path clip-path="url(#pae38dd0c4e)" d="M 85.212619 75.108206 
L 585.015354 75.108206 
" style="fill:none;stroke:#000000;stroke-linecap:square;stroke-opacity:0.1;stroke-width:0.5;"/>
     </g>
     <g id="line2d_2">
      <defs>
       <path d="M 0 0 
L 2.5 0 
" id="mcfc3a3b6e7" style="stroke:#000000;stroke-width:0.5;"/>
      </defs>
      <g>
       <use style="stroke:#000000;stroke-width:0.5;" x="85.212619" xlink:href="#mcfc3a3b6e7" y="75.108206"/>
      </g>
     </g>
     <g id="line2d_3">
      <defs>
       <path d="M 0 0 
L -2.5 0 
" id="maae690aec0" style="stroke:#000000;stroke-width:0.5;"/>
      </defs>
      <g>
       <use style="stroke:#000000;stroke-width:0.5;" x="585.015354" xlink:href="#maae690aec0" y="75.108206"/>
      </g>
     </g>
     <g id="text_1">
      <!-- $\mathregular{-3×10^{-5}}$ -->
      <g transform="translate(25.792619 79.667268)scale(0.12 -0.12)">
       <defs>
        <path d="M 10.59375 35.5 
L 73.1875 35.5 
L 73.1875 27.203125 
L 10.59375 27.203125 
z
" id="DejaVuSans-8722"/>
        <path d="M 40.578125 39.3125 
Q 47.65625 37.796875 51.625 33 
Q 55.609375 28.21875 55.609375 21.1875 
Q 55.609375 10.40625 48.1875 4.484375 
Q 40.765625 -1.421875 27.09375 -1.421875 
Q 22.515625 -1.421875 17.65625 -0.515625 
Q 12.796875 0.390625 7.625 2.203125 
L 7.625 11.71875 
Q 11.71875 9.328125 16.59375 8.109375 
Q 21.484375 6.890625 26.8125 6.890625 
Q 36.078125 6.890625 40.9375 10.546875 
Q 45.796875 14.203125 45.796875 21.1875 
Q 45.796875 27.640625 41.28125 31.265625 
Q 36.765625 34.90625 28.71875 34.90625 
L 20.21875 34.90625 
L 20.21875 43.015625 
L 29.109375 43.015625 
Q 36.375 43.015625 40.234375 45.921875 
Q 44.09375 48.828125 44.09375 54.296875 
Q 44.09375 59.90625 40.109375 62.90625 
Q 36.140625 65.921875 28.71875 65.921875 
Q 24.65625 65.921875 20.015625 65.03125 
Q 15.375 64.15625 9.8125 62.3125 
L 9.8125 71.09375 
Q 15.4375 72.65625 20.34375 73.4375 
Q 25.25 74.21875 29.59375 74.21875 
Q 40.828125 74.21875 47.359375 69.109375 
Q 53.90625 64.015625 53.90625 55.328125 
Q 53.90625 49.265625 50.4375 45.09375 
Q 46.96875 40.921875 40.578125 39.3125 
z
" id="DejaVuSans-51"/>
        <path d="M 70.125 53.71875 
L 47.796875 31.296875 
L 70.125 8.984375 
L 64.3125 3.078125 
L 41.890625 25.484375 
L 19.484375 3.078125 
L 13.71875 8.984375 
L 35.984375 31.296875 
L 13.71875 53.71875 
L 19.484375 59.625 
L 41.890625 37.203125 
L 64.3125 59.625 
z
" id="DejaVuSans-215"/>
        <path d="M 12.40625 8.296875 
L 28.515625 8.296875 
L 28.515625 63.921875 
L 10.984375 60.40625 
L 10.984375 69.390625 
L 28.421875 72.90625 
L 38.28125 72.90625 
L 38.28125 8.296875 
L 54.390625 8.296875 
L 54.390625 0 
L 12.40625 0 
z
" id="DejaVuSans-49"/>
        <path d="M 31.78125 66.40625 
Q 24.171875 66.40625 20.328125 58.90625 
Q 16.5 51.421875 16.5 36.375 
Q 16.5 21.390625 20.328125 13.890625 
Q 24.171875 6.390625 31.78125 6.390625 
Q 39.453125 6.390625 43.28125 13.890625 
Q 47.125 21.390625 47.125 36.375 
Q 47.125 51.421875 43.28125 58.90625 
Q 39.453125 66.40625 31.78125 66.40625 
z
M 31.78125 74.21875 
Q 44.046875 74.21875 50.515625 64.515625 
Q 56.984375 54.828125 56.984375 36.375 
Q 56.984375 17.96875 50.515625 8.265625 
Q 44.046875 -1.421875 31.78125 -1.421875 
Q 19.53125 -1.421875 13.0625 8.265625 
Q 6.59375 17.96875 6.59375 36.375 
Q 6.59375 54.828125 13.0625 64.515625 
Q 19.53125 74.21875 31.78125 74.21875 
z
" id="DejaVuSans-48"/>
        <path d="M 10.796875 72.90625 
L 49.515625 72.90625 
L 49.515625 64.59375 
L 19.828125 64.59375 
L 19.828125 46.734375 
Q 21.96875 47.46875 24.109375 47.828125 
Q 26.265625 48.1875 28.421875 48.1875 
Q 40.625 48.1875 47.75 41.5 
Q 54.890625 34.8125 54.890625 23.390625 
Q 54.890625 11.625 47.5625 5.09375 
Q 40.234375 -1.421875 26.90625 -1.421875 
Q 22.3125 -1.421875 17.546875 -0.640625 
Q 12.796875 0.140625 7.71875 1.703125 
L 7.71875 11.625 
Q 12.109375 9.234375 16.796875 8.0625 
Q 21.484375 6.890625 26.703125 6.890625 
Q 35.15625 6.890625 40.078125 11.328125 
Q 45.015625 15.765625 45.015625 23.390625 
Q 45.015625 31 40.078125 35.4375 
Q 35.15625 39.890625 26.703125 39.890625 
Q 22.75 39.890625 18.8125 39.015625 
Q 14.890625 38.140625 10.796875 36.28125 
z
" id="DejaVuSans-53"/>
       </defs>
       <use transform="translate(0 0.684375)" xlink:href="#DejaVuSans-8722"/>
       <use transform="translate(83.789062 0.684375)" xlink:href="#DejaVuSans-51"/>
       <use transform="translate(147.412109 0.684375)" xlink:href="#DejaVuSans-215"/>
       <use transform="translate(231.201172 0.684375)" xlink:href="#DejaVuSans-49"/>
       <use transform="translate(294.824219 0.684375)" xlink:href="#DejaVuSans-48"/>
       <use transform="translate(359.404297 38.965625)scale(0.7)" xlink:href="#DejaVuSans-8722"/>
       <use transform="translate(418.056641 38.965625)scale(0.7)" xlink:href="#DejaVuSans-53"/>
      </g>
     </g>
    </g>
    <g id="ytick_2">
     <g id="line2d_4">
      <path clip-path="url(#pae38dd0c4e)" d="M 85.212619 59.777627 
L 585.015354 59.777627 
" style="fill:none;stroke:#000000;stroke-linecap:square;stroke-opacity:0.1;stroke-width:0.5;"/>
     </g>
     <g id="line2d_5">
      <g>
       <use style="stroke:#000000;stroke-width:0.5;" x="85.212619" xlink:href="#mcfc3a3b6e7" y="59.777627"/>
      </g>
     </g>
     <g id="line2d_6">
      <g>
       <use style="stroke:#000000;stroke-width:0.5;" x="585.015354" xlink:href="#maae690aec0" y="59.777627"/>
      </g>
     </g>
     <g id="text_2">
      <!-- $\mathregular{-2×10^{-5}}$ -->
      <g transform="translate(25.792619 64.33669)scale(0.12 -0.12)">
       <defs>
        <path d="M 19.1875 8.296875 
L 53.609375 8.296875 
L 53.609375 0 
L 7.328125 0 
L 7.328125 8.296875 
Q 12.9375 14.109375 22.625 23.890625 
Q 32.328125 33.6875 34.8125 36.53125 
Q 39.546875 41.84375 41.421875 45.53125 
Q 43.3125 49.21875 43.3125 52.78125 
Q 43.3125 58.59375 39.234375 62.25 
Q 35.15625 65.921875 28.609375 65.921875 
Q 23.96875 65.921875 18.8125 64.3125 
Q 13.671875 62.703125 7.8125 59.421875 
L 7.8125 69.390625 
Q 13.765625 71.78125 18.9375 73 
Q 24.125 74.21875 28.421875 74.21875 
Q 39.75 74.21875 46.484375 68.546875 
Q 53.21875 62.890625 53.21875 53.421875 
Q 53.21875 48.921875 51.53125 44.890625 
Q 49.859375 40.875 45.40625 35.40625 
Q 44.1875 33.984375 37.640625 27.21875 
Q 31.109375 20.453125 19.1875 8.296875 
z
" id="DejaVuSans-50"/>
       </defs>
       <use transform="translate(0 0.684375)" xlink:href="#DejaVuSans-8722"/>
       <use transform="translate(83.789062 0.684375)" xlink:href="#DejaVuSans-50"/>
       <use transform="translate(147.412109 0.684375)" xlink:href="#DejaVuSans-215"/>
       <use transform="translate(231.201172 0.684375)" xlink:href="#DejaVuSans-49"/>
       <use transform="translate(294.824219 0.684375)" xlink:href="#DejaVuSans-48"/>
       <use transform="translate(359.404297 38.965625)scale(0.7)" xlink:href="#DejaVuSans-8722"/>
       <use transform="translate(418.056641 38.965625)scale(0.7)" xlink:href="#DejaVuSans-53"/>
      </g>
     </g>
    </g>
    <g id="ytick_3">
     <g id="line2d_7">
      <path clip-path="url(#pae38dd0c4e)" d="M 85.212619 44.447049 
L 585.015354 44.447049 
" style="fill:none;stroke:#000000;stroke-linecap:square;stroke-opacity:0.1;stroke-width:0.5;"/>
     </g>
     <g id="line2d_8">
      <g>
       <use style="stroke:#000000;stroke-width:0.5;" x="85.212619" xlink:href="#mcfc3a3b6e7" y="44.447049"/>
      </g>
     </g>
     <g id="line2d_9">
      <g>
       <use style="stroke:#000000;stroke-width:0.5;" x="585.015354" xlink:href="#maae690aec0" y="44.447049"/>
      </g>
     </g>
     <g id="text_3">
      <!-- $\mathregular{-1×10^{-5}}$ -->
      <g transform="translate(25.792619 49.006112)scale(0.12 -0.12)">
       <use transform="translate(0 0.684375)" xlink:href="#DejaVuSans-8722"/>
       <use transform="translate(83.789062 0.684375)" xlink:href="#DejaVuSans-49"/>
       <use transform="translate(147.412109 0.684375)" xlink:href="#DejaVuSans-215"/>
       <use transform="translate(231.201172 0.684375)" xlink:href="#DejaVuSans-49"/>
       <use transform="translate(294.824219 0.684375)" xlink:href="#DejaVuSans-48"/>
       <use transform="translate(359.404297 38.965625)scale(0.7)" xlink:href="#DejaVuSans-8722"/>
       <use transform="translate(418.056641 38.965625)scale(0.7)" xlink:href="#DejaVuSans-53"/>
      </g>
     </g>
    </g>
    <g id="ytick_4">
     <g id="line2d_10">
      <path clip-path="url(#pae38dd0c4e)" d="M 85.212619 29.116471 
L 585.015354 29.116471 
" style="fill:none;stroke:#000000;stroke-linecap:square;stroke-opacity:0.1;stroke-width:0.5;"/>
     </g>
     <g id="line2d_11">
      <g>
       <use style="stroke:#000000;stroke-width:0.5;" x="85.212619" xlink:href="#mcfc3a3b6e7" y="29.116471"/>
      </g>
     </g>
     <g id="line2d_12">
      <g>
       <use style="stroke:#000000;stroke-width:0.5;" x="585.015354" xlink:href="#maae690aec0" y="29.116471"/>
      </g>
     </g>
     <g id="text_4">
      <!-- $\mathregular{0}$ -->
      <g transform="translate(74.032619 33.675533)scale(0.12 -0.12)">
       <use transform="translate(0 0.78125)" xlink:href="#DejaVuSans-48"/>
      </g>
     </g>
    </g>
    <g id="ytick_5">
     <g id="line2d_13">
      <path clip-path="url(#pae38dd0c4e)" d="M 85.212619 13.785893 
L 585.015354 13.785893 
" style="fill:none;stroke:#000000;stroke-linecap:square;stroke-opacity:0.1;stroke-width:0.5;"/>
     </g>
     <g id="line2d_14">
      <g>
       <use style="stroke:#000000;stroke-width:0.5;" x="85.212619" xlink:href="#mcfc3a3b6e7" y="13.785893"/>
      </g>
     </g>
     <g id="line2d_15">
      <g>
       <use style="stroke:#000000;stroke-width:0.5;" x="585.015354" xlink:href="#maae690aec0" y="13.785893"/>
      </g>
     </g>
     <g id="text_5">
      <!-- $\mathregular{1×10^{-5}}$ -->
      <g transform="translate(35.872619 18.344955)scale(0.12 -0.12)">
       <use transform="translate(0 0.684375)" xlink:href="#DejaVuSans-49"/>
       <use transform="translate(63.623047 0.684375)" xlink:href="#DejaVuSans-215"/>
       <use transform="translate(147.412109 0.684375)" xlink:href="#DejaVuSans-49"/>
       <use transform="translate(211.035156 0.684375)" xlink:href="#DejaVuSans-48"/>
       <use transform="translate(275.615234 38.965625)scale(0.7)" xlink:href="#DejaVuSans-8722"/>
       <use transform="translate(334.267578 38.965625)scale(0.7)" xlink:href="#DejaVuSans-53"/>
      </g>
     </g>
    </g>
    <g id="text_6">
     <!-- $Y_{CH_4}$ -->
     <g transform="translate(17.312619 58.11)rotate(-90)scale(0.16 -0.16)">
      <defs>
       <path d="M 6.296875 72.90625 
L 16.890625 72.90625 
L 30.515625 42.921875 
L 56.5 72.90625 
L 67.578125 72.90625 
L 34.515625 34.71875 
L 27.78125 0 
L 17.921875 0 
L 24.609375 34.71875 
z
" id="DejaVuSans-Oblique-89"/>
       <path d="M 69.484375 67.28125 
L 67.484375 56.890625 
Q 62.796875 61.625 57.546875 63.921875 
Q 52.296875 66.21875 46.1875 66.21875 
Q 37.84375 66.21875 31.515625 62.203125 
Q 25.203125 58.203125 20.609375 50 
Q 17.671875 44.734375 16.125 38.84375 
Q 14.59375 32.953125 14.59375 27 
Q 14.59375 17.046875 19.75 11.8125 
Q 24.90625 6.59375 34.71875 6.59375 
Q 41.5 6.59375 47.75 8.765625 
Q 54 10.9375 59.90625 15.28125 
L 57.625 3.609375 
Q 51.8125 1.125 45.875 -0.140625 
Q 39.9375 -1.421875 33.984375 -1.421875 
Q 19.96875 -1.421875 12.078125 6.1875 
Q 4.203125 13.8125 4.203125 27.390625 
Q 4.203125 36.078125 7.203125 44.46875 
Q 10.203125 52.875 15.828125 59.8125 
Q 21.78125 67.1875 29.421875 70.703125 
Q 37.0625 74.21875 47.21875 74.21875 
Q 53.46875 74.21875 59.0625 72.484375 
Q 64.65625 70.75 69.484375 67.28125 
z
" id="DejaVuSans-Oblique-67"/>
       <path d="M 16.890625 72.90625 
L 26.8125 72.90625 
L 21 43.015625 
L 56.78125 43.015625 
L 62.59375 72.90625 
L 72.515625 72.90625 
L 58.296875 0 
L 48.390625 0 
L 55.171875 34.71875 
L 19.390625 34.71875 
L 12.59375 0 
L 2.6875 0 
z
" id="DejaVuSans-Oblique-72"/>
       <path d="M 37.796875 64.3125 
L 12.890625 25.390625 
L 37.796875 25.390625 
z
M 35.203125 72.90625 
L 47.609375 72.90625 
L 47.609375 25.390625 
L 58.015625 25.390625 
L 58.015625 17.1875 
L 47.609375 17.1875 
L 47.609375 0 
L 37.796875 0 
L 37.796875 17.1875 
L 4.890625 17.1875 
L 4.890625 26.703125 
z
" id="DejaVuSans-52"/>
      </defs>
      <use transform="translate(0 0.09375)" xlink:href="#DejaVuSans-Oblique-89"/>
      <use transform="translate(61.083984 -16.3125)scale(0.7)" xlink:href="#DejaVuSans-Oblique-67"/>
      <use transform="translate(109.960938 -16.3125)scale(0.7)" xlink:href="#DejaVuSans-Oblique-72"/>
      <use transform="translate(162.597656 -27.796875)scale(0.49)" xlink:href="#DejaVuSans-52"/>
     </g>
    </g>
   </g>
   <g id="PathCollection_1">
    <defs>
     <path d="M 0 2 
C 0.530406 2 1.03916 1.789267 1.414214 1.414214 
C 1.789267 1.03916 2 0.530406 2 0 
C 2 -0.530406 1.789267 -1.03916 1.414214 -1.414214 
C 1.03916 -1.789267 0.530406 -2 0 -2 
C -0.530406 -2 -1.03916 -1.789267 -1.414214 -1.414214 
C -1.789267 -1.03916 -2 -0.530406 -2 0 
C -2 0.530406 -1.789267 1.03916 -1.414214 1.414214 
C -1.03916 1.789267 -0.530406 2 0 2 
z
" id="md94cea8b36"/>
    </defs>
    <g clip-path="url(#pae38dd0c4e)">
     <use x="99.357979" xlink:href="#md94cea8b36" y="29.116471"/>
     <use x="108.980674" xlink:href="#md94cea8b36" y="27.758881"/>
     <use x="118.603368" xlink:href="#md94cea8b36" y="27.33855"/>
     <use x="128.226062" xlink:href="#md94cea8b36" y="26.73759"/>
     <use x="137.848756" xlink:href="#md94cea8b36" y="26.117835"/>
     <use x="147.47145" xlink:href="#md94cea8b36" y="25.66309"/>
     <use x="157.094144" xlink:href="#md94cea8b36" y="25.514828"/>
     <use x="166.716839" xlink:href="#md94cea8b36" y="25.709525"/>
     <use x="176.339533" xlink:href="#md94cea8b36" y="26.170156"/>
     <use x="185.962227" xlink:href="#md94cea8b36" y="26.756828"/>
     <use x="195.584921" xlink:href="#md94cea8b36" y="27.32491"/>
     <use x="205.207615" xlink:href="#md94cea8b36" y="27.750766"/>
     <use x="214.830309" xlink:href="#md94cea8b36" y="27.935951"/>
     <use x="224.453004" xlink:href="#md94cea8b36" y="27.819726"/>
     <use x="234.075698" xlink:href="#md94cea8b36" y="27.409812"/>
     <use x="243.698392" xlink:href="#md94cea8b36" y="26.810047"/>
     <use x="253.321086" xlink:href="#md94cea8b36" y="26.203444"/>
     <use x="262.94378" xlink:href="#md94cea8b36" y="25.77505"/>
     <use x="272.566474" xlink:href="#md94cea8b36" y="25.627212"/>
     <use x="282.189169" xlink:href="#md94cea8b36" y="25.759877"/>
     <use x="291.811863" xlink:href="#md94cea8b36" y="26.111566"/>
     <use x="301.434557" xlink:href="#md94cea8b36" y="26.599344"/>
     <use x="311.057251" xlink:href="#md94cea8b36" y="27.12749"/>
     <use x="320.679945" xlink:href="#md94cea8b36" y="27.58223"/>
     <use x="330.30264" xlink:href="#md94cea8b36" y="27.842326"/>
     <use x="339.925334" xlink:href="#md94cea8b36" y="27.818537"/>
     <use x="349.548028" xlink:href="#md94cea8b36" y="27.505303"/>
     <use x="359.170722" xlink:href="#md94cea8b36" y="26.998284"/>
     <use x="368.793416" xlink:href="#md94cea8b36" y="26.449161"/>
     <use x="378.41611" xlink:href="#md94cea8b36" y="25.99584"/>
     <use x="388.038805" xlink:href="#md94cea8b36" y="25.728309"/>
     <use x="397.661499" xlink:href="#md94cea8b36" y="25.693683"/>
     <use x="407.284193" xlink:href="#md94cea8b36" y="25.904331"/>
     <use x="416.906887" xlink:href="#md94cea8b36" y="26.329719"/>
     <use x="426.529581" xlink:href="#md94cea8b36" y="26.882409"/>
     <use x="436.152275" xlink:href="#md94cea8b36" y="27.421868"/>
     <use x="445.77497" xlink:href="#md94cea8b36" y="27.792456"/>
     <use x="455.397664" xlink:href="#md94cea8b36" y="27.883852"/>
     <use x="465.020358" xlink:href="#md94cea8b36" y="27.673829"/>
     <use x="474.643052" xlink:href="#md94cea8b36" y="27.224292"/>
     <use x="484.265746" xlink:href="#md94cea8b36" y="26.648063"/>
     <use x="493.88844" xlink:href="#md94cea8b36" y="26.080026"/>
     <use x="503.511135" xlink:href="#md94cea8b36" y="25.658487"/>
     <use x="513.133829" xlink:href="#md94cea8b36" y="25.501091"/>
     <use x="522.756523" xlink:href="#md94cea8b36" y="25.667588"/>
     <use x="532.379217" xlink:href="#md94cea8b36" y="26.12528"/>
     <use x="542.001911" xlink:href="#md94cea8b36" y="26.747212"/>
     <use x="551.624606" xlink:href="#md94cea8b36" y="27.356378"/>
     <use x="561.2473" xlink:href="#md94cea8b36" y="27.790353"/>
     <use x="570.869994" xlink:href="#md94cea8b36" y="27.944712"/>
    </g>
   </g>
   <g id="line2d_16">
    <path clip-path="url(#pae38dd0c4e)" d="M 99.357979 29.116471 
L 108.980674 26.212068 
L 118.603368 23.383989 
L 128.226062 18.197067 
L 137.848756 14.095405 
L 147.47145 12.793327 
L 157.094144 13.483726 
L 166.716839 15.164227 
L 176.339533 17.447972 
L 185.962227 19.91352 
L 195.584921 21.339793 
L 205.207615 20.085083 
L 214.830309 16.092431 
L 224.453004 11.677112 
L 234.075698 9.067878 
L 243.698392 8.785743 
L 253.321086 10.493689 
L 262.94378 13.56741 
L 272.566474 16.794071 
L 282.189169 18.327328 
L 291.811863 16.887136 
L 301.434557 13.546033 
L 311.057251 10.552647 
L 320.679945 8.73093 
L 330.30264 8.044646 
L 339.925334 9.001107 
L 349.548028 12.202 
L 359.170722 16.883248 
L 368.793416 20.55456 
L 378.41611 20.39237 
L 388.038805 16.59379 
L 397.661499 12.518635 
L 407.284193 9.857743 
L 416.906887 8.532637 
L 426.529581 9.666429 
L 436.152275 15.55751 
L 445.77497 26.073627 
L 455.397664 36.363784 
L 465.020358 36.533736 
L 474.643052 21.975316 
L 484.265746 8.275 
L 493.88844 5.062307 
L 503.511135 6.739479 
L 513.133829 10.570526 
L 522.756523 18.575667 
L 532.379217 33.820341 
L 542.001911 56.871801 
L 551.624606 79.317693 
L 561.2473 76.507882 
L 570.869994 34.7606 
" style="fill:none;stroke:#ff0000;"/>
   </g>
   <g id="patch_3">
    <path d="M 85.212619 81.545354 
L 85.212619 2.834646 
" style="fill:none;stroke:#000000;stroke-linecap:square;stroke-linejoin:miter;"/>
   </g>
   <g id="patch_4">
    <path d="M 585.015354 81.545354 
L 585.015354 2.834646 
" style="fill:none;stroke:#000000;stroke-linecap:square;stroke-linejoin:miter;"/>
   </g>
   <g id="patch_5">
    <path d="M 85.212619 81.545354 
L 585.015354 81.545354 
" style="fill:none;stroke:#000000;stroke-linecap:square;stroke-linejoin:miter;"/>
   </g>
   <g id="patch_6">
    <path d="M 85.212619 2.834646 
L 585.015354 2.834646 
" style="fill:none;stroke:#000000;stroke-linecap:square;stroke-linejoin:miter;"/>
   </g>
  </g>
  <g id="axes_2">
   <g id="patch_7">
    <path d="M 85.212619 165.925354 
L 585.015354 165.925354 
L 585.015354 87.214646 
L 85.212619 87.214646 
z
" style="fill:#ffffff;"/>
   </g>
   <g id="matplotlib.axis_3">
    <g id="xtick_7"/>
    <g id="xtick_8"/>
    <g id="xtick_9"/>
    <g id="xtick_10"/>
    <g id="xtick_11"/>
    <g id="xtick_12"/>
   </g>
   <g id="matplotlib.axis_4">
    <g id="ytick_6">
     <g id="line2d_17">
      <path clip-path="url(#pee25a93697)" d="M 85.212619 153.561096 
L 585.015354 153.561096 
" style="fill:none;stroke:#000000;stroke-linecap:square;stroke-opacity:0.1;stroke-width:0.5;"/>
     </g>
     <g id="line2d_18">
      <g>
       <use style="stroke:#000000;stroke-width:0.5;" x="85.212619" xlink:href="#mcfc3a3b6e7" y="153.561096"/>
      </g>
     </g>
     <g id="line2d_19">
      <g>
       <use style="stroke:#000000;stroke-width:0.5;" x="585.015354" xlink:href="#maae690aec0" y="153.561096"/>
      </g>
     </g>
     <g id="text_7">
      <!-- $\mathregular{0.0020}$ -->
      <g transform="translate(39.712619 158.120158)scale(0.12 -0.12)">
       <defs>
        <path d="M 10.6875 12.40625 
L 21 12.40625 
L 21 0 
L 10.6875 0 
z
" id="DejaVuSans-46"/>
       </defs>
       <use transform="translate(0 0.78125)" xlink:href="#DejaVuSans-48"/>
       <use transform="translate(63.623047 0.78125)" xlink:href="#DejaVuSans-46"/>
       <use transform="translate(95.410156 0.78125)" xlink:href="#DejaVuSans-48"/>
       <use transform="translate(159.033203 0.78125)" xlink:href="#DejaVuSans-48"/>
       <use transform="translate(222.65625 0.78125)" xlink:href="#DejaVuSans-50"/>
       <use transform="translate(286.279297 0.78125)" xlink:href="#DejaVuSans-48"/>
      </g>
     </g>
    </g>
    <g id="ytick_7">
     <g id="line2d_20">
      <path clip-path="url(#pee25a93697)" d="M 85.212619 134.497376 
L 585.015354 134.497376 
" style="fill:none;stroke:#000000;stroke-linecap:square;stroke-opacity:0.1;stroke-width:0.5;"/>
     </g>
     <g id="line2d_21">
      <g>
       <use style="stroke:#000000;stroke-width:0.5;" x="85.212619" xlink:href="#mcfc3a3b6e7" y="134.497376"/>
      </g>
     </g>
     <g id="line2d_22">
      <g>
       <use style="stroke:#000000;stroke-width:0.5;" x="585.015354" xlink:href="#maae690aec0" y="134.497376"/>
      </g>
     </g>
     <g id="text_8">
      <!-- $\mathregular{0.0025}$ -->
      <g transform="translate(39.712619 139.056439)scale(0.12 -0.12)">
       <use transform="translate(0 0.78125)" xlink:href="#DejaVuSans-48"/>
       <use transform="translate(63.623047 0.78125)" xlink:href="#DejaVuSans-46"/>
       <use transform="translate(95.410156 0.78125)" xlink:href="#DejaVuSans-48"/>
       <use transform="translate(159.033203 0.78125)" xlink:href="#DejaVuSans-48"/>
       <use transform="translate(222.65625 0.78125)" xlink:href="#DejaVuSans-50"/>
       <use transform="translate(286.279297 0.78125)" xlink:href="#DejaVuSans-53"/>
      </g>
     </g>
    </g>
    <g id="ytick_8">
     <g id="line2d_23">
      <path clip-path="url(#pee25a93697)" d="M 85.212619 115.433657 
L 585.015354 115.433657 
" style="fill:none;stroke:#000000;stroke-linecap:square;stroke-opacity:0.1;stroke-width:0.5;"/>
     </g>
     <g id="line2d_24">
      <g>
       <use style="stroke:#000000;stroke-width:0.5;" x="85.212619" xlink:href="#mcfc3a3b6e7" y="115.433657"/>
      </g>
     </g>
     <g id="line2d_25">
      <g>
       <use style="stroke:#000000;stroke-width:0.5;" x="585.015354" xlink:href="#maae690aec0" y="115.433657"/>
      </g>
     </g>
     <g id="text_9">
      <!-- $\mathregular{0.0030}$ -->
      <g transform="translate(39.712619 119.992719)scale(0.12 -0.12)">
       <use transform="translate(0 0.78125)" xlink:href="#DejaVuSans-48"/>
       <use transform="translate(63.623047 0.78125)" xlink:href="#DejaVuSans-46"/>
       <use transform="translate(95.410156 0.78125)" xlink:href="#DejaVuSans-48"/>
       <use transform="translate(159.033203 0.78125)" xlink:href="#DejaVuSans-48"/>
       <use transform="translate(222.65625 0.78125)" xlink:href="#DejaVuSans-51"/>
       <use transform="translate(286.279297 0.78125)" xlink:href="#DejaVuSans-48"/>
      </g>
     </g>
    </g>
    <g id="ytick_9">
     <g id="line2d_26">
      <path clip-path="url(#pee25a93697)" d="M 85.212619 96.369937 
L 585.015354 96.369937 
" style="fill:none;stroke:#000000;stroke-linecap:square;stroke-opacity:0.1;stroke-width:0.5;"/>
     </g>
     <g id="line2d_27">
      <g>
       <use style="stroke:#000000;stroke-width:0.5;" x="85.212619" xlink:href="#mcfc3a3b6e7" y="96.369937"/>
      </g>
     </g>
     <g id="line2d_28">
      <g>
       <use style="stroke:#000000;stroke-width:0.5;" x="585.015354" xlink:href="#maae690aec0" y="96.369937"/>
      </g>
     </g>
     <g id="text_10">
      <!-- $\mathregular{0.0035}$ -->
      <g transform="translate(39.712619 100.929)scale(0.12 -0.12)">
       <use transform="translate(0 0.78125)" xlink:href="#DejaVuSans-48"/>
       <use transform="translate(63.623047 0.78125)" xlink:href="#DejaVuSans-46"/>
       <use transform="translate(95.410156 0.78125)" xlink:href="#DejaVuSans-48"/>
       <use transform="translate(159.033203 0.78125)" xlink:href="#DejaVuSans-48"/>
       <use transform="translate(222.65625 0.78125)" xlink:href="#DejaVuSans-51"/>
       <use transform="translate(286.279297 0.78125)" xlink:href="#DejaVuSans-53"/>
      </g>
     </g>
    </g>
    <g id="text_11">
     <!-- $Y_{CO}$ -->
     <g transform="translate(32.385119 140.01)rotate(-90)scale(0.16 -0.16)">
      <defs>
       <path d="M 45.609375 66.21875 
Q 37.5 66.21875 31.296875 62.28125 
Q 25.09375 58.34375 20.515625 50.296875 
Q 17.578125 45.171875 16.03125 39.40625 
Q 14.5 33.640625 14.5 27.78125 
Q 14.5 17.625 19.359375 12.109375 
Q 24.21875 6.59375 33.109375 6.59375 
Q 41.109375 6.59375 47.375 10.5625 
Q 53.65625 14.546875 58.109375 22.40625 
Q 61.078125 27.6875 62.640625 33.46875 
Q 64.203125 39.265625 64.203125 45.015625 
Q 64.203125 55.125 59.3125 60.671875 
Q 54.4375 66.21875 45.609375 66.21875 
z
M 32.8125 -1.421875 
Q 19.390625 -1.421875 11.6875 6.53125 
Q 4 14.5 4 28.328125 
Q 4 36.234375 7 44.484375 
Q 10.015625 52.734375 15.28125 59.1875 
Q 21.484375 66.75 29.09375 70.484375 
Q 36.71875 74.21875 45.90625 74.21875 
Q 59.28125 74.21875 66.984375 66.328125 
Q 74.703125 58.453125 74.703125 44.828125 
Q 74.703125 36.421875 71.765625 28.3125 
Q 68.84375 20.21875 63.375 13.625 
Q 57.125 6 49.578125 2.28125 
Q 42.046875 -1.421875 32.8125 -1.421875 
z
" id="DejaVuSans-Oblique-79"/>
      </defs>
      <use transform="translate(0 0.09375)" xlink:href="#DejaVuSans-Oblique-89"/>
      <use transform="translate(61.083984 -16.3125)scale(0.7)" xlink:href="#DejaVuSans-Oblique-67"/>
      <use transform="translate(109.960938 -16.3125)scale(0.7)" xlink:href="#DejaVuSans-Oblique-79"/>
     </g>
    </g>
   </g>
   <g id="PathCollection_2">
    <g clip-path="url(#pee25a93697)">
     <use x="99.357979" xlink:href="#md94cea8b36" y="114.572964"/>
     <use x="108.980674" xlink:href="#md94cea8b36" y="116.638399"/>
     <use x="118.603368" xlink:href="#md94cea8b36" y="118.216094"/>
     <use x="128.226062" xlink:href="#md94cea8b36" y="118.962706"/>
     <use x="137.848756" xlink:href="#md94cea8b36" y="119.086219"/>
     <use x="147.47145" xlink:href="#md94cea8b36" y="118.961809"/>
     <use x="157.094144" xlink:href="#md94cea8b36" y="119.031159"/>
     <use x="166.716839" xlink:href="#md94cea8b36" y="119.642074"/>
     <use x="176.339533" xlink:href="#md94cea8b36" y="120.886101"/>
     <use x="185.962227" xlink:href="#md94cea8b36" y="122.527914"/>
     <use x="195.584921" xlink:href="#md94cea8b36" y="124.097129"/>
     <use x="205.207615" xlink:href="#md94cea8b36" y="125.098659"/>
     <use x="214.830309" xlink:href="#md94cea8b36" y="125.21445"/>
     <use x="224.453004" xlink:href="#md94cea8b36" y="124.423344"/>
     <use x="234.075698" xlink:href="#md94cea8b36" y="123.036261"/>
     <use x="243.698392" xlink:href="#md94cea8b36" y="121.633537"/>
     <use x="253.321086" xlink:href="#md94cea8b36" y="120.864567"/>
     <use x="262.94378" xlink:href="#md94cea8b36" y="121.154075"/>
     <use x="272.566474" xlink:href="#md94cea8b36" y="122.486406"/>
     <use x="282.189169" xlink:href="#md94cea8b36" y="124.422538"/>
     <use x="291.811863" xlink:href="#md94cea8b36" y="126.315779"/>
     <use x="301.434557" xlink:href="#md94cea8b36" y="127.566287"/>
     <use x="311.057251" xlink:href="#md94cea8b36" y="127.793303"/>
     <use x="320.679945" xlink:href="#md94cea8b36" y="126.917967"/>
     <use x="330.30264" xlink:href="#md94cea8b36" y="125.202139"/>
     <use x="339.925334" xlink:href="#md94cea8b36" y="123.235224"/>
     <use x="349.548028" xlink:href="#md94cea8b36" y="121.784485"/>
     <use x="359.170722" xlink:href="#md94cea8b36" y="121.463509"/>
     <use x="368.793416" xlink:href="#md94cea8b36" y="122.395992"/>
     <use x="378.41611" xlink:href="#md94cea8b36" y="124.166282"/>
     <use x="388.038805" xlink:href="#md94cea8b36" y="126.083686"/>
     <use x="397.661499" xlink:href="#md94cea8b36" y="127.506443"/>
     <use x="407.284193" xlink:href="#md94cea8b36" y="128.03023"/>
     <use x="416.906887" xlink:href="#md94cea8b36" y="127.545876"/>
     <use x="426.529581" xlink:href="#md94cea8b36" y="126.242135"/>
     <use x="436.152275" xlink:href="#md94cea8b36" y="124.580063"/>
     <use x="445.77497" xlink:href="#md94cea8b36" y="123.185686"/>
     <use x="455.397664" xlink:href="#md94cea8b36" y="122.60735"/>
     <use x="465.020358" xlink:href="#md94cea8b36" y="123.031153"/>
     <use x="474.643052" xlink:href="#md94cea8b36" y="124.187842"/>
     <use x="484.265746" xlink:href="#md94cea8b36" y="125.537807"/>
     <use x="493.88844" xlink:href="#md94cea8b36" y="126.556404"/>
     <use x="503.511135" xlink:href="#md94cea8b36" y="126.924475"/>
     <use x="513.133829" xlink:href="#md94cea8b36" y="126.588746"/>
     <use x="522.756523" xlink:href="#md94cea8b36" y="125.743759"/>
     <use x="532.379217" xlink:href="#md94cea8b36" y="124.767303"/>
     <use x="542.001911" xlink:href="#md94cea8b36" y="124.096288"/>
     <use x="551.624606" xlink:href="#md94cea8b36" y="124.036786"/>
     <use x="561.2473" xlink:href="#md94cea8b36" y="124.592078"/>
     <use x="570.869994" xlink:href="#md94cea8b36" y="125.4545"/>
    </g>
   </g>
   <g id="line2d_29">
    <path clip-path="url(#pee25a93697)" d="M 99.357979 114.572964 
L 108.980674 114.520077 
L 118.603368 112.023765 
L 128.226062 114.339374 
L 137.848756 120.581761 
L 147.47145 127.77132 
L 157.094144 134.038692 
L 166.716839 138.708234 
L 176.339533 141.635437 
L 185.962227 143.006597 
L 195.584921 143.338526 
L 205.207615 143.502604 
L 214.830309 144.424653 
L 224.453004 146.337721 
L 234.075698 148.529848 
L 243.698392 150.025111 
L 253.321086 150.2634 
L 262.94378 149.258736 
L 272.566474 147.5572 
L 282.189169 146.202486 
L 291.811863 146.453391 
L 301.434557 148.896569 
L 311.057251 152.69973 
L 320.679945 156.230198 
L 330.30264 158.166425 
L 339.925334 158.013304 
L 349.548028 155.990436 
L 359.170722 152.73149 
L 368.793416 149.42759 
L 378.41611 147.960909 
L 388.038805 149.874334 
L 397.661499 154.570187 
L 407.284193 159.676521 
L 416.906887 163.012555 
L 426.529581 163.697693 
L 436.152275 161.997683 
L 445.77497 157.821162 
L 455.397664 150.535217 
L 465.020358 141.292843 
L 474.643052 135.748356 
L 484.265746 139.313654 
L 493.88844 147.162718 
L 503.511135 153.853725 
L 513.133829 157.938046 
L 522.756523 159.351436 
L 532.379217 157.982084 
L 542.001911 152.355339 
L 551.624606 139.662827 
L 561.2473 111.533257 
L 570.869994 89.442307 
" style="fill:none;stroke:#ff0000;"/>
   </g>
   <g id="patch_8">
    <path d="M 85.212619 165.925354 
L 85.212619 87.214646 
" style="fill:none;stroke:#000000;stroke-linecap:square;stroke-linejoin:miter;"/>
   </g>
   <g id="patch_9">
    <path d="M 585.015354 165.925354 
L 585.015354 87.214646 
" style="fill:none;stroke:#000000;stroke-linecap:square;stroke-linejoin:miter;"/>
   </g>
   <g id="patch_10">
    <path d="M 85.212619 165.925354 
L 585.015354 165.925354 
" style="fill:none;stroke:#000000;stroke-linecap:square;stroke-linejoin:miter;"/>
   </g>
   <g id="patch_11">
    <path d="M 85.212619 87.214646 
L 585.015354 87.214646 
" style="fill:none;stroke:#000000;stroke-linecap:square;stroke-linejoin:miter;"/>
   </g>
   <g id="legend_1">
    <g id="line2d_30">
     <path d="M 600.615354 116.874375 
L 624.615354 116.874375 
" style="fill:none;"/>
    </g>
    <g id="line2d_31">
     <defs>
      <path d="M 0 4.8 
C 1.272975 4.8 2.493983 4.294242 3.394113 3.394113 
C 4.294242 2.493983 4.8 1.272975 4.8 0 
C 4.8 -1.272975 4.294242 -2.493983 3.394113 -3.394113 
C 2.493983 -4.294242 1.272975 -4.8 0 -4.8 
C -1.272975 -4.8 -2.493983 -4.294242 -3.394113 -3.394113 
C -4.294242 -2.493983 -4.8 -1.272975 -4.8 0 
C -4.8 1.272975 -4.294242 2.493983 -3.394113 3.394113 
C -2.493983 4.294242 -1.272975 4.8 0 4.8 
z
" id="m95f2d6c321"/>
     </defs>
     <g>
      <use x="612.615354" xlink:href="#m95f2d6c321" y="116.874375"/>
     </g>
    </g>
    <g id="text_12">
     <!-- Groundtruth -->
     <g transform="translate(634.215354 121.074375)scale(0.12 -0.12)">
      <defs>
       <path d="M 59.515625 10.40625 
L 59.515625 29.984375 
L 43.40625 29.984375 
L 43.40625 38.09375 
L 69.28125 38.09375 
L 69.28125 6.78125 
Q 63.578125 2.734375 56.6875 0.65625 
Q 49.8125 -1.421875 42 -1.421875 
Q 24.90625 -1.421875 15.25 8.5625 
Q 5.609375 18.5625 5.609375 36.375 
Q 5.609375 54.25 15.25 64.234375 
Q 24.90625 74.21875 42 74.21875 
Q 49.125 74.21875 55.546875 72.453125 
Q 61.96875 70.703125 67.390625 67.28125 
L 67.390625 56.78125 
Q 61.921875 61.421875 55.765625 63.765625 
Q 49.609375 66.109375 42.828125 66.109375 
Q 29.4375 66.109375 22.71875 58.640625 
Q 16.015625 51.171875 16.015625 36.375 
Q 16.015625 21.625 22.71875 14.15625 
Q 29.4375 6.6875 42.828125 6.6875 
Q 48.046875 6.6875 52.140625 7.59375 
Q 56.25 8.5 59.515625 10.40625 
z
" id="DejaVuSans-71"/>
       <path d="M 41.109375 46.296875 
Q 39.59375 47.171875 37.8125 47.578125 
Q 36.03125 48 33.890625 48 
Q 26.265625 48 22.1875 43.046875 
Q 18.109375 38.09375 18.109375 28.8125 
L 18.109375 0 
L 9.078125 0 
L 9.078125 54.6875 
L 18.109375 54.6875 
L 18.109375 46.1875 
Q 20.953125 51.171875 25.484375 53.578125 
Q 30.03125 56 36.53125 56 
Q 37.453125 56 38.578125 55.875 
Q 39.703125 55.765625 41.0625 55.515625 
z
" id="DejaVuSans-114"/>
       <path d="M 30.609375 48.390625 
Q 23.390625 48.390625 19.1875 42.75 
Q 14.984375 37.109375 14.984375 27.296875 
Q 14.984375 17.484375 19.15625 11.84375 
Q 23.34375 6.203125 30.609375 6.203125 
Q 37.796875 6.203125 41.984375 11.859375 
Q 46.1875 17.53125 46.1875 27.296875 
Q 46.1875 37.015625 41.984375 42.703125 
Q 37.796875 48.390625 30.609375 48.390625 
z
M 30.609375 56 
Q 42.328125 56 49.015625 48.375 
Q 55.71875 40.765625 55.71875 27.296875 
Q 55.71875 13.875 49.015625 6.21875 
Q 42.328125 -1.421875 30.609375 -1.421875 
Q 18.84375 -1.421875 12.171875 6.21875 
Q 5.515625 13.875 5.515625 27.296875 
Q 5.515625 40.765625 12.171875 48.375 
Q 18.84375 56 30.609375 56 
z
" id="DejaVuSans-111"/>
       <path d="M 8.5 21.578125 
L 8.5 54.6875 
L 17.484375 54.6875 
L 17.484375 21.921875 
Q 17.484375 14.15625 20.5 10.265625 
Q 23.53125 6.390625 29.59375 6.390625 
Q 36.859375 6.390625 41.078125 11.03125 
Q 45.3125 15.671875 45.3125 23.6875 
L 45.3125 54.6875 
L 54.296875 54.6875 
L 54.296875 0 
L 45.3125 0 
L 45.3125 8.40625 
Q 42.046875 3.421875 37.71875 1 
Q 33.40625 -1.421875 27.6875 -1.421875 
Q 18.265625 -1.421875 13.375 4.4375 
Q 8.5 10.296875 8.5 21.578125 
z
M 31.109375 56 
z
" id="DejaVuSans-117"/>
       <path d="M 54.890625 33.015625 
L 54.890625 0 
L 45.90625 0 
L 45.90625 32.71875 
Q 45.90625 40.484375 42.875 44.328125 
Q 39.84375 48.1875 33.796875 48.1875 
Q 26.515625 48.1875 22.3125 43.546875 
Q 18.109375 38.921875 18.109375 30.90625 
L 18.109375 0 
L 9.078125 0 
L 9.078125 54.6875 
L 18.109375 54.6875 
L 18.109375 46.1875 
Q 21.34375 51.125 25.703125 53.5625 
Q 30.078125 56 35.796875 56 
Q 45.21875 56 50.046875 50.171875 
Q 54.890625 44.34375 54.890625 33.015625 
z
" id="DejaVuSans-110"/>
       <path d="M 45.40625 46.390625 
L 45.40625 75.984375 
L 54.390625 75.984375 
L 54.390625 0 
L 45.40625 0 
L 45.40625 8.203125 
Q 42.578125 3.328125 38.25 0.953125 
Q 33.9375 -1.421875 27.875 -1.421875 
Q 17.96875 -1.421875 11.734375 6.484375 
Q 5.515625 14.40625 5.515625 27.296875 
Q 5.515625 40.1875 11.734375 48.09375 
Q 17.96875 56 27.875 56 
Q 33.9375 56 38.25 53.625 
Q 42.578125 51.265625 45.40625 46.390625 
z
M 14.796875 27.296875 
Q 14.796875 17.390625 18.875 11.75 
Q 22.953125 6.109375 30.078125 6.109375 
Q 37.203125 6.109375 41.296875 11.75 
Q 45.40625 17.390625 45.40625 27.296875 
Q 45.40625 37.203125 41.296875 42.84375 
Q 37.203125 48.484375 30.078125 48.484375 
Q 22.953125 48.484375 18.875 42.84375 
Q 14.796875 37.203125 14.796875 27.296875 
z
" id="DejaVuSans-100"/>
       <path d="M 18.3125 70.21875 
L 18.3125 54.6875 
L 36.8125 54.6875 
L 36.8125 47.703125 
L 18.3125 47.703125 
L 18.3125 18.015625 
Q 18.3125 11.328125 20.140625 9.421875 
Q 21.96875 7.515625 27.59375 7.515625 
L 36.8125 7.515625 
L 36.8125 0 
L 27.59375 0 
Q 17.1875 0 13.234375 3.875 
Q 9.28125 7.765625 9.28125 18.015625 
L 9.28125 47.703125 
L 2.6875 47.703125 
L 2.6875 54.6875 
L 9.28125 54.6875 
L 9.28125 70.21875 
z
" id="DejaVuSans-116"/>
       <path d="M 54.890625 33.015625 
L 54.890625 0 
L 45.90625 0 
L 45.90625 32.71875 
Q 45.90625 40.484375 42.875 44.328125 
Q 39.84375 48.1875 33.796875 48.1875 
Q 26.515625 48.1875 22.3125 43.546875 
Q 18.109375 38.921875 18.109375 30.90625 
L 18.109375 0 
L 9.078125 0 
L 9.078125 75.984375 
L 18.109375 75.984375 
L 18.109375 46.1875 
Q 21.34375 51.125 25.703125 53.5625 
Q 30.078125 56 35.796875 56 
Q 45.21875 56 50.046875 50.171875 
Q 54.890625 44.34375 54.890625 33.015625 
z
" id="DejaVuSans-104"/>
      </defs>
      <use xlink:href="#DejaVuSans-71"/>
      <use x="77.490234" xlink:href="#DejaVuSans-114"/>
      <use x="116.353516" xlink:href="#DejaVuSans-111"/>
      <use x="177.535156" xlink:href="#DejaVuSans-117"/>
      <use x="240.914062" xlink:href="#DejaVuSans-110"/>
      <use x="304.292969" xlink:href="#DejaVuSans-100"/>
      <use x="367.769531" xlink:href="#DejaVuSans-116"/>
      <use x="406.978516" xlink:href="#DejaVuSans-114"/>
      <use x="448.091797" xlink:href="#DejaVuSans-117"/>
      <use x="511.470703" xlink:href="#DejaVuSans-116"/>
      <use x="550.679688" xlink:href="#DejaVuSans-104"/>
     </g>
    </g>
    <g id="line2d_32">
     <path d="M 600.615354 134.488125 
L 624.615354 134.488125 
" style="fill:none;stroke:#ff0000;stroke-linejoin:miter;stroke-width:1.5;"/>
    </g>
    <g id="line2d_33"/>
    <g id="text_13">
     <!-- Prediction -->
     <g transform="translate(634.215354 138.688125)scale(0.12 -0.12)">
      <defs>
       <path d="M 19.671875 64.796875 
L 19.671875 37.40625 
L 32.078125 37.40625 
Q 38.96875 37.40625 42.71875 40.96875 
Q 46.484375 44.53125 46.484375 51.125 
Q 46.484375 57.671875 42.71875 61.234375 
Q 38.96875 64.796875 32.078125 64.796875 
z
M 9.8125 72.90625 
L 32.078125 72.90625 
Q 44.34375 72.90625 50.609375 67.359375 
Q 56.890625 61.8125 56.890625 51.125 
Q 56.890625 40.328125 50.609375 34.8125 
Q 44.34375 29.296875 32.078125 29.296875 
L 19.671875 29.296875 
L 19.671875 0 
L 9.8125 0 
z
" id="DejaVuSans-80"/>
       <path d="M 56.203125 29.59375 
L 56.203125 25.203125 
L 14.890625 25.203125 
Q 15.484375 15.921875 20.484375 11.0625 
Q 25.484375 6.203125 34.421875 6.203125 
Q 39.59375 6.203125 44.453125 7.46875 
Q 49.3125 8.734375 54.109375 11.28125 
L 54.109375 2.78125 
Q 49.265625 0.734375 44.1875 -0.34375 
Q 39.109375 -1.421875 33.890625 -1.421875 
Q 20.796875 -1.421875 13.15625 6.1875 
Q 5.515625 13.8125 5.515625 26.8125 
Q 5.515625 40.234375 12.765625 48.109375 
Q 20.015625 56 32.328125 56 
Q 43.359375 56 49.78125 48.890625 
Q 56.203125 41.796875 56.203125 29.59375 
z
M 47.21875 32.234375 
Q 47.125 39.59375 43.09375 43.984375 
Q 39.0625 48.390625 32.421875 48.390625 
Q 24.90625 48.390625 20.390625 44.140625 
Q 15.875 39.890625 15.1875 32.171875 
z
" id="DejaVuSans-101"/>
       <path d="M 9.421875 54.6875 
L 18.40625 54.6875 
L 18.40625 0 
L 9.421875 0 
z
M 9.421875 75.984375 
L 18.40625 75.984375 
L 18.40625 64.59375 
L 9.421875 64.59375 
z
" id="DejaVuSans-105"/>
       <path d="M 48.78125 52.59375 
L 48.78125 44.1875 
Q 44.96875 46.296875 41.140625 47.34375 
Q 37.3125 48.390625 33.40625 48.390625 
Q 24.65625 48.390625 19.8125 42.84375 
Q 14.984375 37.3125 14.984375 27.296875 
Q 14.984375 17.28125 19.8125 11.734375 
Q 24.65625 6.203125 33.40625 6.203125 
Q 37.3125 6.203125 41.140625 7.25 
Q 44.96875 8.296875 48.78125 10.40625 
L 48.78125 2.09375 
Q 45.015625 0.34375 40.984375 -0.53125 
Q 36.96875 -1.421875 32.421875 -1.421875 
Q 20.0625 -1.421875 12.78125 6.34375 
Q 5.515625 14.109375 5.515625 27.296875 
Q 5.515625 40.671875 12.859375 48.328125 
Q 20.21875 56 33.015625 56 
Q 37.15625 56 41.109375 55.140625 
Q 45.0625 54.296875 48.78125 52.59375 
z
" id="DejaVuSans-99"/>
      </defs>
      <use xlink:href="#DejaVuSans-80"/>
      <use x="58.552734" xlink:href="#DejaVuSans-114"/>
      <use x="97.416016" xlink:href="#DejaVuSans-101"/>
      <use x="158.939453" xlink:href="#DejaVuSans-100"/>
      <use x="222.416016" xlink:href="#DejaVuSans-105"/>
      <use x="250.199219" xlink:href="#DejaVuSans-99"/>
      <use x="305.179688" xlink:href="#DejaVuSans-116"/>
      <use x="344.388672" xlink:href="#DejaVuSans-105"/>
      <use x="372.171875" xlink:href="#DejaVuSans-111"/>
      <use x="433.353516" xlink:href="#DejaVuSans-110"/>
     </g>
    </g>
   </g>
  </g>
  <g id="axes_3">
   <g id="patch_12">
    <path d="M 85.212619 250.305354 
L 585.015354 250.305354 
L 585.015354 171.594646 
L 85.212619 171.594646 
z
" style="fill:#ffffff;"/>
   </g>
   <g id="matplotlib.axis_5">
    <g id="xtick_13">
     <g id="line2d_34">
      <path clip-path="url(#pd119732cd2)" d="M 99.357979 250.305354 
L 99.357979 171.594646 
" style="fill:none;stroke:#000000;stroke-linecap:square;stroke-opacity:0.1;stroke-width:0.5;"/>
     </g>
     <g id="line2d_35">
      <defs>
       <path d="M 0 0 
L 0 -2.5 
" id="m6830c97cdc" style="stroke:#000000;stroke-width:0.5;"/>
      </defs>
      <g>
       <use style="stroke:#000000;stroke-width:0.5;" x="99.357979" xlink:href="#m6830c97cdc" y="250.305354"/>
      </g>
     </g>
     <g id="line2d_36">
      <defs>
       <path d="M 0 0 
L 0 2.5 
" id="m671f52afd9" style="stroke:#000000;stroke-width:0.5;"/>
      </defs>
      <g>
       <use style="stroke:#000000;stroke-width:0.5;" x="99.357979" xlink:href="#m671f52afd9" y="171.594646"/>
      </g>
     </g>
     <g id="text_14">
      <!-- $\mathregular{0}$ -->
      <g transform="translate(95.517979 262.923479)scale(0.12 -0.12)">
       <use transform="translate(0 0.78125)" xlink:href="#DejaVuSans-48"/>
      </g>
     </g>
    </g>
    <g id="xtick_14">
     <g id="line2d_37">
      <path clip-path="url(#pd119732cd2)" d="M 193.660382 250.305354 
L 193.660382 171.594646 
" style="fill:none;stroke:#000000;stroke-linecap:square;stroke-opacity:0.1;stroke-width:0.5;"/>
     </g>
     <g id="line2d_38">
      <g>
       <use style="stroke:#000000;stroke-width:0.5;" x="193.660382" xlink:href="#m6830c97cdc" y="250.305354"/>
      </g>
     </g>
     <g id="line2d_39">
      <g>
       <use style="stroke:#000000;stroke-width:0.5;" x="193.660382" xlink:href="#m671f52afd9" y="171.594646"/>
      </g>
     </g>
     <g id="text_15">
      <!-- $\mathregular{1}$ -->
      <g transform="translate(189.820382 262.923479)scale(0.12 -0.12)">
       <use transform="translate(0 0.09375)" xlink:href="#DejaVuSans-49"/>
      </g>
     </g>
    </g>
    <g id="xtick_15">
     <g id="line2d_40">
      <path clip-path="url(#pd119732cd2)" d="M 287.962785 250.305354 
L 287.962785 171.594646 
" style="fill:none;stroke:#000000;stroke-linecap:square;stroke-opacity:0.1;stroke-width:0.5;"/>
     </g>
     <g id="line2d_41">
      <g>
       <use style="stroke:#000000;stroke-width:0.5;" x="287.962785" xlink:href="#m6830c97cdc" y="250.305354"/>
      </g>
     </g>
     <g id="line2d_42">
      <g>
       <use style="stroke:#000000;stroke-width:0.5;" x="287.962785" xlink:href="#m671f52afd9" y="171.594646"/>
      </g>
     </g>
     <g id="text_16">
      <!-- $\mathregular{2}$ -->
      <g transform="translate(284.122785 262.923479)scale(0.12 -0.12)">
       <use transform="translate(0 0.78125)" xlink:href="#DejaVuSans-50"/>
      </g>
     </g>
    </g>
    <g id="xtick_16">
     <g id="line2d_43">
      <path clip-path="url(#pd119732cd2)" d="M 382.265188 250.305354 
L 382.265188 171.594646 
" style="fill:none;stroke:#000000;stroke-linecap:square;stroke-opacity:0.1;stroke-width:0.5;"/>
     </g>
     <g id="line2d_44">
      <g>
       <use style="stroke:#000000;stroke-width:0.5;" x="382.265188" xlink:href="#m6830c97cdc" y="250.305354"/>
      </g>
     </g>
     <g id="line2d_45">
      <g>
       <use style="stroke:#000000;stroke-width:0.5;" x="382.265188" xlink:href="#m671f52afd9" y="171.594646"/>
      </g>
     </g>
     <g id="text_17">
      <!-- $\mathregular{3}$ -->
      <g transform="translate(378.425188 262.923479)scale(0.12 -0.12)">
       <use transform="translate(0 0.78125)" xlink:href="#DejaVuSans-51"/>
      </g>
     </g>
    </g>
    <g id="xtick_17">
     <g id="line2d_46">
      <path clip-path="url(#pd119732cd2)" d="M 476.567591 250.305354 
L 476.567591 171.594646 
" style="fill:none;stroke:#000000;stroke-linecap:square;stroke-opacity:0.1;stroke-width:0.5;"/>
     </g>
     <g id="line2d_47">
      <g>
       <use style="stroke:#000000;stroke-width:0.5;" x="476.567591" xlink:href="#m6830c97cdc" y="250.305354"/>
      </g>
     </g>
     <g id="line2d_48">
      <g>
       <use style="stroke:#000000;stroke-width:0.5;" x="476.567591" xlink:href="#m671f52afd9" y="171.594646"/>
      </g>
     </g>
     <g id="text_18">
      <!-- $\mathregular{4}$ -->
      <g transform="translate(472.727591 262.923479)scale(0.12 -0.12)">
       <use transform="translate(0 0.09375)" xlink:href="#DejaVuSans-52"/>
      </g>
     </g>
    </g>
    <g id="xtick_18">
     <g id="line2d_49">
      <path clip-path="url(#pd119732cd2)" d="M 570.869994 250.305354 
L 570.869994 171.594646 
" style="fill:none;stroke:#000000;stroke-linecap:square;stroke-opacity:0.1;stroke-width:0.5;"/>
     </g>
     <g id="line2d_50">
      <g>
       <use style="stroke:#000000;stroke-width:0.5;" x="570.869994" xlink:href="#m6830c97cdc" y="250.305354"/>
      </g>
     </g>
     <g id="line2d_51">
      <g>
       <use style="stroke:#000000;stroke-width:0.5;" x="570.869994" xlink:href="#m671f52afd9" y="171.594646"/>
      </g>
     </g>
     <g id="text_19">
      <!-- $\mathregular{5}$ -->
      <g transform="translate(567.029994 262.923479)scale(0.12 -0.12)">
       <use transform="translate(0 0.09375)" xlink:href="#DejaVuSans-53"/>
      </g>
     </g>
    </g>
    <g id="text_20">
     <!-- Time [s] -->
     <g transform="translate(302.587737 281.576604)scale(0.16 -0.16)">
      <defs>
       <path d="M -0.296875 72.90625 
L 61.375 72.90625 
L 61.375 64.59375 
L 35.5 64.59375 
L 35.5 0 
L 25.59375 0 
L 25.59375 64.59375 
L -0.296875 64.59375 
z
" id="DejaVuSans-84"/>
       <path d="M 52 44.1875 
Q 55.375 50.25 60.0625 53.125 
Q 64.75 56 71.09375 56 
Q 79.640625 56 84.28125 50.015625 
Q 88.921875 44.046875 88.921875 33.015625 
L 88.921875 0 
L 79.890625 0 
L 79.890625 32.71875 
Q 79.890625 40.578125 77.09375 44.375 
Q 74.3125 48.1875 68.609375 48.1875 
Q 61.625 48.1875 57.5625 43.546875 
Q 53.515625 38.921875 53.515625 30.90625 
L 53.515625 0 
L 44.484375 0 
L 44.484375 32.71875 
Q 44.484375 40.625 41.703125 44.40625 
Q 38.921875 48.1875 33.109375 48.1875 
Q 26.21875 48.1875 22.15625 43.53125 
Q 18.109375 38.875 18.109375 30.90625 
L 18.109375 0 
L 9.078125 0 
L 9.078125 54.6875 
L 18.109375 54.6875 
L 18.109375 46.1875 
Q 21.1875 51.21875 25.484375 53.609375 
Q 29.78125 56 35.6875 56 
Q 41.65625 56 45.828125 52.96875 
Q 50 49.953125 52 44.1875 
z
" id="DejaVuSans-109"/>
       <path id="DejaVuSans-32"/>
       <path d="M 8.59375 75.984375 
L 29.296875 75.984375 
L 29.296875 69 
L 17.578125 69 
L 17.578125 -6.203125 
L 29.296875 -6.203125 
L 29.296875 -13.1875 
L 8.59375 -13.1875 
z
" id="DejaVuSans-91"/>
       <path d="M 44.28125 53.078125 
L 44.28125 44.578125 
Q 40.484375 46.53125 36.375 47.5 
Q 32.28125 48.484375 27.875 48.484375 
Q 21.1875 48.484375 17.84375 46.4375 
Q 14.5 44.390625 14.5 40.28125 
Q 14.5 37.15625 16.890625 35.375 
Q 19.28125 33.59375 26.515625 31.984375 
L 29.59375 31.296875 
Q 39.15625 29.25 43.1875 25.515625 
Q 47.21875 21.78125 47.21875 15.09375 
Q 47.21875 7.46875 41.1875 3.015625 
Q 35.15625 -1.421875 24.609375 -1.421875 
Q 20.21875 -1.421875 15.453125 -0.5625 
Q 10.6875 0.296875 5.421875 2 
L 5.421875 11.28125 
Q 10.40625 8.6875 15.234375 7.390625 
Q 20.0625 6.109375 24.8125 6.109375 
Q 31.15625 6.109375 34.5625 8.28125 
Q 37.984375 10.453125 37.984375 14.40625 
Q 37.984375 18.0625 35.515625 20.015625 
Q 33.0625 21.96875 24.703125 23.78125 
L 21.578125 24.515625 
Q 13.234375 26.265625 9.515625 29.90625 
Q 5.8125 33.546875 5.8125 39.890625 
Q 5.8125 47.609375 11.28125 51.796875 
Q 16.75 56 26.8125 56 
Q 31.78125 56 36.171875 55.265625 
Q 40.578125 54.546875 44.28125 53.078125 
z
" id="DejaVuSans-115"/>
       <path d="M 30.421875 75.984375 
L 30.421875 -13.1875 
L 9.71875 -13.1875 
L 9.71875 -6.203125 
L 21.390625 -6.203125 
L 21.390625 69 
L 9.71875 69 
L 9.71875 75.984375 
z
" id="DejaVuSans-93"/>
      </defs>
      <use xlink:href="#DejaVuSans-84"/>
      <use x="57.958984" xlink:href="#DejaVuSans-105"/>
      <use x="85.742188" xlink:href="#DejaVuSans-109"/>
      <use x="183.154297" xlink:href="#DejaVuSans-101"/>
      <use x="244.677734" xlink:href="#DejaVuSans-32"/>
      <use x="276.464844" xlink:href="#DejaVuSans-91"/>
      <use x="315.478516" xlink:href="#DejaVuSans-115"/>
      <use x="367.578125" xlink:href="#DejaVuSans-93"/>
     </g>
    </g>
   </g>
   <g id="matplotlib.axis_6">
    <g id="ytick_10">
     <g id="line2d_52">
      <path clip-path="url(#pd119732cd2)" d="M 85.212619 242.70059 
L 585.015354 242.70059 
" style="fill:none;stroke:#000000;stroke-linecap:square;stroke-opacity:0.1;stroke-width:0.5;"/>
     </g>
     <g id="line2d_53">
      <g>
       <use style="stroke:#000000;stroke-width:0.5;" x="85.212619" xlink:href="#mcfc3a3b6e7" y="242.70059"/>
      </g>
     </g>
     <g id="line2d_54">
      <g>
       <use style="stroke:#000000;stroke-width:0.5;" x="585.015354" xlink:href="#maae690aec0" y="242.70059"/>
      </g>
     </g>
     <g id="text_21">
      <!-- $\mathregular{1025}$ -->
      <g transform="translate(51.112619 247.259653)scale(0.12 -0.12)">
       <use transform="translate(0 0.78125)" xlink:href="#DejaVuSans-49"/>
       <use transform="translate(63.623047 0.78125)" xlink:href="#DejaVuSans-48"/>
       <use transform="translate(127.246094 0.78125)" xlink:href="#DejaVuSans-50"/>
       <use transform="translate(190.869141 0.78125)" xlink:href="#DejaVuSans-53"/>
      </g>
     </g>
    </g>
    <g id="ytick_11">
     <g id="line2d_55">
      <path clip-path="url(#pd119732cd2)" d="M 85.212619 232.440972 
L 585.015354 232.440972 
" style="fill:none;stroke:#000000;stroke-linecap:square;stroke-opacity:0.1;stroke-width:0.5;"/>
     </g>
     <g id="line2d_56">
      <g>
       <use style="stroke:#000000;stroke-width:0.5;" x="85.212619" xlink:href="#mcfc3a3b6e7" y="232.440972"/>
      </g>
     </g>
     <g id="line2d_57">
      <g>
       <use style="stroke:#000000;stroke-width:0.5;" x="585.015354" xlink:href="#maae690aec0" y="232.440972"/>
      </g>
     </g>
     <g id="text_22">
      <!-- $\mathregular{1050}$ -->
      <g transform="translate(51.112619 237.000034)scale(0.12 -0.12)">
       <use transform="translate(0 0.78125)" xlink:href="#DejaVuSans-49"/>
       <use transform="translate(63.623047 0.78125)" xlink:href="#DejaVuSans-48"/>
       <use transform="translate(127.246094 0.78125)" xlink:href="#DejaVuSans-53"/>
       <use transform="translate(190.869141 0.78125)" xlink:href="#DejaVuSans-48"/>
      </g>
     </g>
    </g>
    <g id="ytick_12">
     <g id="line2d_58">
      <path clip-path="url(#pd119732cd2)" d="M 85.212619 222.181353 
L 585.015354 222.181353 
" style="fill:none;stroke:#000000;stroke-linecap:square;stroke-opacity:0.1;stroke-width:0.5;"/>
     </g>
     <g id="line2d_59">
      <g>
       <use style="stroke:#000000;stroke-width:0.5;" x="85.212619" xlink:href="#mcfc3a3b6e7" y="222.181353"/>
      </g>
     </g>
     <g id="line2d_60">
      <g>
       <use style="stroke:#000000;stroke-width:0.5;" x="585.015354" xlink:href="#maae690aec0" y="222.181353"/>
      </g>
     </g>
     <g id="text_23">
      <!-- $\mathregular{1075}$ -->
      <g transform="translate(51.112619 226.740415)scale(0.12 -0.12)">
       <defs>
        <path d="M 8.203125 72.90625 
L 55.078125 72.90625 
L 55.078125 68.703125 
L 28.609375 0 
L 18.3125 0 
L 43.21875 64.59375 
L 8.203125 64.59375 
z
" id="DejaVuSans-55"/>
       </defs>
       <use transform="translate(0 0.78125)" xlink:href="#DejaVuSans-49"/>
       <use transform="translate(63.623047 0.78125)" xlink:href="#DejaVuSans-48"/>
       <use transform="translate(127.246094 0.78125)" xlink:href="#DejaVuSans-55"/>
       <use transform="translate(190.869141 0.78125)" xlink:href="#DejaVuSans-53"/>
      </g>
     </g>
    </g>
    <g id="ytick_13">
     <g id="line2d_61">
      <path clip-path="url(#pd119732cd2)" d="M 85.212619 211.921734 
L 585.015354 211.921734 
" style="fill:none;stroke:#000000;stroke-linecap:square;stroke-opacity:0.1;stroke-width:0.5;"/>
     </g>
     <g id="line2d_62">
      <g>
       <use style="stroke:#000000;stroke-width:0.5;" x="85.212619" xlink:href="#mcfc3a3b6e7" y="211.921734"/>
      </g>
     </g>
     <g id="line2d_63">
      <g>
       <use style="stroke:#000000;stroke-width:0.5;" x="585.015354" xlink:href="#maae690aec0" y="211.921734"/>
      </g>
     </g>
     <g id="text_24">
      <!-- $\mathregular{1100}$ -->
      <g transform="translate(51.112619 216.480797)scale(0.12 -0.12)">
       <use transform="translate(0 0.78125)" xlink:href="#DejaVuSans-49"/>
       <use transform="translate(63.623047 0.78125)" xlink:href="#DejaVuSans-49"/>
       <use transform="translate(127.246094 0.78125)" xlink:href="#DejaVuSans-48"/>
       <use transform="translate(190.869141 0.78125)" xlink:href="#DejaVuSans-48"/>
      </g>
     </g>
    </g>
    <g id="ytick_14">
     <g id="line2d_64">
      <path clip-path="url(#pd119732cd2)" d="M 85.212619 201.662115 
L 585.015354 201.662115 
" style="fill:none;stroke:#000000;stroke-linecap:square;stroke-opacity:0.1;stroke-width:0.5;"/>
     </g>
     <g id="line2d_65">
      <g>
       <use style="stroke:#000000;stroke-width:0.5;" x="85.212619" xlink:href="#mcfc3a3b6e7" y="201.662115"/>
      </g>
     </g>
     <g id="line2d_66">
      <g>
       <use style="stroke:#000000;stroke-width:0.5;" x="585.015354" xlink:href="#maae690aec0" y="201.662115"/>
      </g>
     </g>
     <g id="text_25">
      <!-- $\mathregular{1125}$ -->
      <g transform="translate(51.112619 206.221178)scale(0.12 -0.12)">
       <use transform="translate(0 0.78125)" xlink:href="#DejaVuSans-49"/>
       <use transform="translate(63.623047 0.78125)" xlink:href="#DejaVuSans-49"/>
       <use transform="translate(127.246094 0.78125)" xlink:href="#DejaVuSans-50"/>
       <use transform="translate(190.869141 0.78125)" xlink:href="#DejaVuSans-53"/>
      </g>
     </g>
    </g>
    <g id="ytick_15">
     <g id="line2d_67">
      <path clip-path="url(#pd119732cd2)" d="M 85.212619 191.402496 
L 585.015354 191.402496 
" style="fill:none;stroke:#000000;stroke-linecap:square;stroke-opacity:0.1;stroke-width:0.5;"/>
     </g>
     <g id="line2d_68">
      <g>
       <use style="stroke:#000000;stroke-width:0.5;" x="85.212619" xlink:href="#mcfc3a3b6e7" y="191.402496"/>
      </g>
     </g>
     <g id="line2d_69">
      <g>
       <use style="stroke:#000000;stroke-width:0.5;" x="585.015354" xlink:href="#maae690aec0" y="191.402496"/>
      </g>
     </g>
     <g id="text_26">
      <!-- $\mathregular{1150}$ -->
      <g transform="translate(51.112619 195.961559)scale(0.12 -0.12)">
       <use transform="translate(0 0.78125)" xlink:href="#DejaVuSans-49"/>
       <use transform="translate(63.623047 0.78125)" xlink:href="#DejaVuSans-49"/>
       <use transform="translate(127.246094 0.78125)" xlink:href="#DejaVuSans-53"/>
       <use transform="translate(190.869141 0.78125)" xlink:href="#DejaVuSans-48"/>
      </g>
     </g>
    </g>
    <g id="ytick_16">
     <g id="line2d_70">
      <path clip-path="url(#pd119732cd2)" d="M 85.212619 181.142878 
L 585.015354 181.142878 
" style="fill:none;stroke:#000000;stroke-linecap:square;stroke-opacity:0.1;stroke-width:0.5;"/>
     </g>
     <g id="line2d_71">
      <g>
       <use style="stroke:#000000;stroke-width:0.5;" x="85.212619" xlink:href="#mcfc3a3b6e7" y="181.142878"/>
      </g>
     </g>
     <g id="line2d_72">
      <g>
       <use style="stroke:#000000;stroke-width:0.5;" x="585.015354" xlink:href="#maae690aec0" y="181.142878"/>
      </g>
     </g>
     <g id="text_27">
      <!-- $\mathregular{1175}$ -->
      <g transform="translate(51.112619 185.70194)scale(0.12 -0.12)">
       <use transform="translate(0 0.09375)" xlink:href="#DejaVuSans-49"/>
       <use transform="translate(63.623047 0.09375)" xlink:href="#DejaVuSans-49"/>
       <use transform="translate(127.246094 0.09375)" xlink:href="#DejaVuSans-55"/>
       <use transform="translate(190.869141 0.09375)" xlink:href="#DejaVuSans-53"/>
      </g>
     </g>
    </g>
    <g id="text_28">
     <!-- T [K] -->
     <g transform="translate(43.785119 229.8675)rotate(-90)scale(0.16 -0.16)">
      <defs>
       <path d="M 9.8125 72.90625 
L 19.671875 72.90625 
L 19.671875 42.09375 
L 52.390625 72.90625 
L 65.09375 72.90625 
L 28.90625 38.921875 
L 67.671875 0 
L 54.6875 0 
L 19.671875 35.109375 
L 19.671875 0 
L 9.8125 0 
z
" id="DejaVuSans-75"/>
      </defs>
      <use xlink:href="#DejaVuSans-84"/>
      <use x="61.083984" xlink:href="#DejaVuSans-32"/>
      <use x="92.871094" xlink:href="#DejaVuSans-91"/>
      <use x="131.884766" xlink:href="#DejaVuSans-75"/>
      <use x="197.460938" xlink:href="#DejaVuSans-93"/>
     </g>
    </g>
   </g>
   <g id="PathCollection_3">
    <g clip-path="url(#pd119732cd2)">
     <use x="99.357979" xlink:href="#md94cea8b36" y="221.280056"/>
     <use x="108.980674" xlink:href="#md94cea8b36" y="220.965642"/>
     <use x="118.603368" xlink:href="#md94cea8b36" y="221.041809"/>
     <use x="128.226062" xlink:href="#md94cea8b36" y="221.061569"/>
     <use x="137.848756" xlink:href="#md94cea8b36" y="220.679901"/>
     <use x="147.47145" xlink:href="#md94cea8b36" y="219.768073"/>
     <use x="157.094144" xlink:href="#md94cea8b36" y="218.453017"/>
     <use x="166.716839" xlink:href="#md94cea8b36" y="217.09829"/>
     <use x="176.339533" xlink:href="#md94cea8b36" y="216.169719"/>
     <use x="185.962227" xlink:href="#md94cea8b36" y="216.012817"/>
     <use x="195.584921" xlink:href="#md94cea8b36" y="216.680829"/>
     <use x="205.207615" xlink:href="#md94cea8b36" y="217.927544"/>
     <use x="214.830309" xlink:href="#md94cea8b36" y="219.330263"/>
     <use x="224.453004" xlink:href="#md94cea8b36" y="220.438217"/>
     <use x="234.075698" xlink:href="#md94cea8b36" y="220.891988"/>
     <use x="243.698392" xlink:href="#md94cea8b36" y="220.519217"/>
     <use x="253.321086" xlink:href="#md94cea8b36" y="219.414574"/>
     <use x="262.94378" xlink:href="#md94cea8b36" y="217.955889"/>
     <use x="272.566474" xlink:href="#md94cea8b36" y="216.68368"/>
     <use x="282.189169" xlink:href="#md94cea8b36" y="216.060153"/>
     <use x="291.811863" xlink:href="#md94cea8b36" y="216.265178"/>
     <use x="301.434557" xlink:href="#md94cea8b36" y="217.161913"/>
     <use x="311.057251" xlink:href="#md94cea8b36" y="218.405379"/>
     <use x="320.679945" xlink:href="#md94cea8b36" y="219.58376"/>
     <use x="330.30264" xlink:href="#md94cea8b36" y="220.334655"/>
     <use x="339.925334" xlink:href="#md94cea8b36" y="220.435727"/>
     <use x="349.548028" xlink:href="#md94cea8b36" y="219.880404"/>
     <use x="359.170722" xlink:href="#md94cea8b36" y="218.906602"/>
     <use x="368.793416" xlink:href="#md94cea8b36" y="217.914077"/>
     <use x="378.41611" xlink:href="#md94cea8b36" y="217.277107"/>
     <use x="388.038805" xlink:href="#md94cea8b36" y="217.173943"/>
     <use x="397.661499" xlink:href="#md94cea8b36" y="217.546878"/>
     <use x="407.284193" xlink:href="#md94cea8b36" y="218.178237"/>
     <use x="416.906887" xlink:href="#md94cea8b36" y="218.800553"/>
     <use x="426.529581" xlink:href="#md94cea8b36" y="219.19003"/>
     <use x="436.152275" xlink:href="#md94cea8b36" y="219.234898"/>
     <use x="445.77497" xlink:href="#md94cea8b36" y="218.975555"/>
     <use x="455.397664" xlink:href="#md94cea8b36" y="218.591934"/>
     <use x="465.020358" xlink:href="#md94cea8b36" y="218.315056"/>
     <use x="474.643052" xlink:href="#md94cea8b36" y="218.298946"/>
     <use x="484.265746" xlink:href="#md94cea8b36" y="218.541229"/>
     <use x="493.88844" xlink:href="#md94cea8b36" y="218.899472"/>
     <use x="503.511135" xlink:href="#md94cea8b36" y="219.169999"/>
     <use x="513.133829" xlink:href="#md94cea8b36" y="219.176617"/>
     <use x="522.756523" xlink:href="#md94cea8b36" y="218.844487"/>
     <use x="532.379217" xlink:href="#md94cea8b36" y="218.249684"/>
     <use x="542.001911" xlink:href="#md94cea8b36" y="217.620412"/>
     <use x="551.624606" xlink:href="#md94cea8b36" y="217.256271"/>
     <use x="561.2473" xlink:href="#md94cea8b36" y="217.379315"/>
     <use x="570.869994" xlink:href="#md94cea8b36" y="218.007174"/>
    </g>
   </g>
   <g id="line2d_73">
    <path clip-path="url(#pd119732cd2)" d="M 99.357979 221.280056 
L 108.980674 220.443415 
L 118.603368 217.541803 
L 128.226062 211.356383 
L 137.848756 202.778963 
L 147.47145 194.228693 
L 157.094144 187.901801 
L 166.716839 184.744093 
L 176.339533 184.692133 
L 185.962227 187.118144 
L 195.584921 190.759287 
L 205.207615 193.682467 
L 214.830309 194.26826 
L 224.453004 192.416439 
L 234.075698 189.24862 
L 243.698392 185.874114 
L 253.321086 182.906505 
L 262.94378 180.838088 
L 272.566474 180.158059 
L 282.189169 180.552205 
L 291.811863 180.497423 
L 301.434557 178.926887 
L 311.057251 176.650081 
L 320.679945 175.018587 
L 330.30264 174.306107 
L 339.925334 173.959091 
L 349.548028 173.822307 
L 359.170722 174.771186 
L 368.793416 177.403745 
L 378.41611 180.07782 
L 388.038805 180.721929 
L 397.661499 180.257637 
L 407.284193 181.085927 
L 416.906887 184.00499 
L 426.529581 188.269771 
L 436.152275 193.280929 
L 445.77497 199.62228 
L 455.397664 207.518666 
L 465.020358 213.331656 
L 474.643052 211.497278 
L 484.265746 202.597311 
L 493.88844 193.442592 
L 503.511135 188.775115 
L 513.133829 189.047029 
L 522.756523 193.602834 
L 532.379217 203.125437 
L 542.001911 218.716603 
L 551.624606 236.742948 
L 561.2473 248.077693 
L 570.869994 245.885842 
" style="fill:none;stroke:#ff0000;"/>
   </g>
   <g id="patch_13">
    <path d="M 85.212619 250.305354 
L 85.212619 171.594646 
" style="fill:none;stroke:#000000;stroke-linecap:square;stroke-linejoin:miter;"/>
   </g>
   <g id="patch_14">
    <path d="M 585.015354 250.305354 
L 585.015354 171.594646 
" style="fill:none;stroke:#000000;stroke-linecap:square;stroke-linejoin:miter;"/>
   </g>
   <g id="patch_15">
    <path d="M 85.212619 250.305354 
L 585.015354 250.305354 
" style="fill:none;stroke:#000000;stroke-linecap:square;stroke-linejoin:miter;"/>
   </g>
   <g id="patch_16">
    <path d="M 85.212619 171.594646 
L 585.015354 171.594646 
" style="fill:none;stroke:#000000;stroke-linecap:square;stroke-linejoin:miter;"/>
   </g>
  </g>
 </g>
 <defs>
  <clipPath id="pae38dd0c4e">
   <rect height="78.710709" width="499.802735" x="85.212619" y="2.834646"/>
  </clipPath>
  <clipPath id="pee25a93697">
   <rect height="78.710709" width="499.802735" x="85.212619" y="87.214646"/>
  </clipPath>
  <clipPath id="pd119732cd2">
   <rect height="78.710709" width="499.802735" x="85.212619" y="171.594646"/>
  </clipPath>
 </defs>
</svg>
