<?xml version="1.0" encoding="utf-8" standalone="no"?>
<!DOCTYPE svg PUBLIC "-//W3C//DTD SVG 1.1//EN"
  "http://www.w3.org/Graphics/SVG/1.1/DTD/svg11.dtd">
<!-- Created with matplotlib (https://matplotlib.org/) -->
<svg height="288pt" version="1.1" viewBox="0 0 720 288" width="720pt" xmlns="http://www.w3.org/2000/svg" xmlns:xlink="http://www.w3.org/1999/xlink">
 <metadata>
  <rdf:RDF xmlns:cc="http://creativecommons.org/ns#" xmlns:dc="http://purl.org/dc/elements/1.1/" xmlns:rdf="http://www.w3.org/1999/02/22-rdf-syntax-ns#">
   <cc:Work>
    <dc:type rdf:resource="http://purl.org/dc/dcmitype/StillImage"/>
    <dc:date>2021-04-24T22:11:25.288124</dc:date>
    <dc:format>image/svg+xml</dc:format>
    <dc:creator>
     <cc:Agent>
      <dc:title>Matplotlib v3.3.2, https://matplotlib.org/</dc:title>
     </cc:Agent>
    </dc:creator>
   </cc:Work>
  </rdf:RDF>
 </metadata>
 <defs>
  <style type="text/css">*{stroke-linecap:butt;stroke-linejoin:round;}</style>
 </defs>
 <g id="figure_1">
  <g id="patch_1">
   <path d="M 0 288 
L 720 288 
L 720 0 
L 0 0 
z
" style="fill:#ffffff;"/>
  </g>
  <g id="axes_1">
   <g id="patch_2">
    <path d="M 86.783664 81.545354 
L 585.015354 81.545354 
L 585.015354 2.834646 
L 86.783664 2.834646 
z
" style="fill:#ffffff;"/>
   </g>
   <g id="matplotlib.axis_1">
    <g id="xtick_1"/>
    <g id="xtick_2"/>
    <g id="xtick_3"/>
    <g id="xtick_4"/>
    <g id="xtick_5"/>
    <g id="xtick_6"/>
   </g>
   <g id="matplotlib.axis_2">
    <g id="ytick_1">
     <g id="line2d_1">
      <path clip-path="url(#p2f383f52ab)" d="M 86.783664 78.53435 
L 585.015354 78.53435 
" style="fill:none;stroke:#000000;stroke-linecap:square;stroke-opacity:0.1;stroke-width:0.5;"/>
     </g>
     <g id="line2d_2">
      <defs>
       <path d="M 0 0 
L 2.5 0 
" id="mb72c1a16ab" style="stroke:#000000;stroke-width:0.5;"/>
      </defs>
      <g>
       <use style="stroke:#000000;stroke-width:0.5;" x="86.783664" xlink:href="#mb72c1a16ab" y="78.53435"/>
      </g>
     </g>
     <g id="line2d_3">
      <defs>
       <path d="M 0 0 
L -2.5 0 
" id="me3c33f5a7b" style="stroke:#000000;stroke-width:0.5;"/>
      </defs>
      <g>
       <use style="stroke:#000000;stroke-width:0.5;" x="585.015354" xlink:href="#me3c33f5a7b" y="78.53435"/>
      </g>
     </g>
     <g id="text_1">
      <!-- $\mathregular{0}$ -->
      <g transform="translate(75.603664 83.093413)scale(0.12 -0.12)">
       <defs>
        <path d="M 31.78125 66.40625 
Q 24.171875 66.40625 20.328125 58.90625 
Q 16.5 51.421875 16.5 36.375 
Q 16.5 21.390625 20.328125 13.890625 
Q 24.171875 6.390625 31.78125 6.390625 
Q 39.453125 6.390625 43.28125 13.890625 
Q 47.125 21.390625 47.125 36.375 
Q 47.125 51.421875 43.28125 58.90625 
Q 39.453125 66.40625 31.78125 66.40625 
z
M 31.78125 74.21875 
Q 44.046875 74.21875 50.515625 64.515625 
Q 56.984375 54.828125 56.984375 36.375 
Q 56.984375 17.96875 50.515625 8.265625 
Q 44.046875 -1.421875 31.78125 -1.421875 
Q 19.53125 -1.421875 13.0625 8.265625 
Q 6.59375 17.96875 6.59375 36.375 
Q 6.59375 54.828125 13.0625 64.515625 
Q 19.53125 74.21875 31.78125 74.21875 
z
" id="DejaVuSans-48"/>
       </defs>
       <use transform="translate(0 0.78125)" xlink:href="#DejaVuSans-48"/>
      </g>
     </g>
    </g>
    <g id="ytick_2">
     <g id="line2d_4">
      <path clip-path="url(#p2f383f52ab)" d="M 86.783664 63.329268 
L 585.015354 63.329268 
" style="fill:none;stroke:#000000;stroke-linecap:square;stroke-opacity:0.1;stroke-width:0.5;"/>
     </g>
     <g id="line2d_5">
      <g>
       <use style="stroke:#000000;stroke-width:0.5;" x="86.783664" xlink:href="#mb72c1a16ab" y="63.329268"/>
      </g>
     </g>
     <g id="line2d_6">
      <g>
       <use style="stroke:#000000;stroke-width:0.5;" x="585.015354" xlink:href="#me3c33f5a7b" y="63.329268"/>
      </g>
     </g>
     <g id="text_2">
      <!-- $\mathregular{5.0×10^{-7}}$ -->
      <g transform="translate(26.043664 67.88833)scale(0.12 -0.12)">
       <defs>
        <path d="M 10.796875 72.90625 
L 49.515625 72.90625 
L 49.515625 64.59375 
L 19.828125 64.59375 
L 19.828125 46.734375 
Q 21.96875 47.46875 24.109375 47.828125 
Q 26.265625 48.1875 28.421875 48.1875 
Q 40.625 48.1875 47.75 41.5 
Q 54.890625 34.8125 54.890625 23.390625 
Q 54.890625 11.625 47.5625 5.09375 
Q 40.234375 -1.421875 26.90625 -1.421875 
Q 22.3125 -1.421875 17.546875 -0.640625 
Q 12.796875 0.140625 7.71875 1.703125 
L 7.71875 11.625 
Q 12.109375 9.234375 16.796875 8.0625 
Q 21.484375 6.890625 26.703125 6.890625 
Q 35.15625 6.890625 40.078125 11.328125 
Q 45.015625 15.765625 45.015625 23.390625 
Q 45.015625 31 40.078125 35.4375 
Q 35.15625 39.890625 26.703125 39.890625 
Q 22.75 39.890625 18.8125 39.015625 
Q 14.890625 38.140625 10.796875 36.28125 
z
" id="DejaVuSans-53"/>
        <path d="M 10.6875 12.40625 
L 21 12.40625 
L 21 0 
L 10.6875 0 
z
" id="DejaVuSans-46"/>
        <path d="M 70.125 53.71875 
L 47.796875 31.296875 
L 70.125 8.984375 
L 64.3125 3.078125 
L 41.890625 25.484375 
L 19.484375 3.078125 
L 13.71875 8.984375 
L 35.984375 31.296875 
L 13.71875 53.71875 
L 19.484375 59.625 
L 41.890625 37.203125 
L 64.3125 59.625 
z
" id="DejaVuSans-215"/>
        <path d="M 12.40625 8.296875 
L 28.515625 8.296875 
L 28.515625 63.921875 
L 10.984375 60.40625 
L 10.984375 69.390625 
L 28.421875 72.90625 
L 38.28125 72.90625 
L 38.28125 8.296875 
L 54.390625 8.296875 
L 54.390625 0 
L 12.40625 0 
z
" id="DejaVuSans-49"/>
        <path d="M 10.59375 35.5 
L 73.1875 35.5 
L 73.1875 27.203125 
L 10.59375 27.203125 
z
" id="DejaVuSans-8722"/>
        <path d="M 8.203125 72.90625 
L 55.078125 72.90625 
L 55.078125 68.703125 
L 28.609375 0 
L 18.3125 0 
L 43.21875 64.59375 
L 8.203125 64.59375 
z
" id="DejaVuSans-55"/>
       </defs>
       <use transform="translate(0 0.684375)" xlink:href="#DejaVuSans-53"/>
       <use transform="translate(63.623047 0.684375)" xlink:href="#DejaVuSans-46"/>
       <use transform="translate(95.410156 0.684375)" xlink:href="#DejaVuSans-48"/>
       <use transform="translate(159.033203 0.684375)" xlink:href="#DejaVuSans-215"/>
       <use transform="translate(242.822266 0.684375)" xlink:href="#DejaVuSans-49"/>
       <use transform="translate(306.445312 0.684375)" xlink:href="#DejaVuSans-48"/>
       <use transform="translate(371.025391 38.965625)scale(0.7)" xlink:href="#DejaVuSans-8722"/>
       <use transform="translate(429.677734 38.965625)scale(0.7)" xlink:href="#DejaVuSans-55"/>
      </g>
     </g>
    </g>
    <g id="ytick_3">
     <g id="line2d_7">
      <path clip-path="url(#p2f383f52ab)" d="M 86.783664 48.124186 
L 585.015354 48.124186 
" style="fill:none;stroke:#000000;stroke-linecap:square;stroke-opacity:0.1;stroke-width:0.5;"/>
     </g>
     <g id="line2d_8">
      <g>
       <use style="stroke:#000000;stroke-width:0.5;" x="86.783664" xlink:href="#mb72c1a16ab" y="48.124186"/>
      </g>
     </g>
     <g id="line2d_9">
      <g>
       <use style="stroke:#000000;stroke-width:0.5;" x="585.015354" xlink:href="#me3c33f5a7b" y="48.124186"/>
      </g>
     </g>
     <g id="text_3">
      <!-- $\mathregular{1.0×10^{-6}}$ -->
      <g transform="translate(26.043664 52.683248)scale(0.12 -0.12)">
       <defs>
        <path d="M 33.015625 40.375 
Q 26.375 40.375 22.484375 35.828125 
Q 18.609375 31.296875 18.609375 23.390625 
Q 18.609375 15.53125 22.484375 10.953125 
Q 26.375 6.390625 33.015625 6.390625 
Q 39.65625 6.390625 43.53125 10.953125 
Q 47.40625 15.53125 47.40625 23.390625 
Q 47.40625 31.296875 43.53125 35.828125 
Q 39.65625 40.375 33.015625 40.375 
z
M 52.59375 71.296875 
L 52.59375 62.3125 
Q 48.875 64.0625 45.09375 64.984375 
Q 41.3125 65.921875 37.59375 65.921875 
Q 27.828125 65.921875 22.671875 59.328125 
Q 17.53125 52.734375 16.796875 39.40625 
Q 19.671875 43.65625 24.015625 45.921875 
Q 28.375 48.1875 33.59375 48.1875 
Q 44.578125 48.1875 50.953125 41.515625 
Q 57.328125 34.859375 57.328125 23.390625 
Q 57.328125 12.15625 50.6875 5.359375 
Q 44.046875 -1.421875 33.015625 -1.421875 
Q 20.359375 -1.421875 13.671875 8.265625 
Q 6.984375 17.96875 6.984375 36.375 
Q 6.984375 53.65625 15.1875 63.9375 
Q 23.390625 74.21875 37.203125 74.21875 
Q 40.921875 74.21875 44.703125 73.484375 
Q 48.484375 72.75 52.59375 71.296875 
z
" id="DejaVuSans-54"/>
       </defs>
       <use transform="translate(0 0.765625)" xlink:href="#DejaVuSans-49"/>
       <use transform="translate(63.623047 0.765625)" xlink:href="#DejaVuSans-46"/>
       <use transform="translate(95.410156 0.765625)" xlink:href="#DejaVuSans-48"/>
       <use transform="translate(159.033203 0.765625)" xlink:href="#DejaVuSans-215"/>
       <use transform="translate(242.822266 0.765625)" xlink:href="#DejaVuSans-49"/>
       <use transform="translate(306.445312 0.765625)" xlink:href="#DejaVuSans-48"/>
       <use transform="translate(371.025391 39.046875)scale(0.7)" xlink:href="#DejaVuSans-8722"/>
       <use transform="translate(429.677734 39.046875)scale(0.7)" xlink:href="#DejaVuSans-54"/>
      </g>
     </g>
    </g>
    <g id="ytick_4">
     <g id="line2d_10">
      <path clip-path="url(#p2f383f52ab)" d="M 86.783664 32.919103 
L 585.015354 32.919103 
" style="fill:none;stroke:#000000;stroke-linecap:square;stroke-opacity:0.1;stroke-width:0.5;"/>
     </g>
     <g id="line2d_11">
      <g>
       <use style="stroke:#000000;stroke-width:0.5;" x="86.783664" xlink:href="#mb72c1a16ab" y="32.919103"/>
      </g>
     </g>
     <g id="line2d_12">
      <g>
       <use style="stroke:#000000;stroke-width:0.5;" x="585.015354" xlink:href="#me3c33f5a7b" y="32.919103"/>
      </g>
     </g>
     <g id="text_4">
      <!-- $\mathregular{1.5×10^{-6}}$ -->
      <g transform="translate(26.043664 37.478166)scale(0.12 -0.12)">
       <use transform="translate(0 0.765625)" xlink:href="#DejaVuSans-49"/>
       <use transform="translate(63.623047 0.765625)" xlink:href="#DejaVuSans-46"/>
       <use transform="translate(95.410156 0.765625)" xlink:href="#DejaVuSans-53"/>
       <use transform="translate(159.033203 0.765625)" xlink:href="#DejaVuSans-215"/>
       <use transform="translate(242.822266 0.765625)" xlink:href="#DejaVuSans-49"/>
       <use transform="translate(306.445312 0.765625)" xlink:href="#DejaVuSans-48"/>
       <use transform="translate(371.025391 39.046875)scale(0.7)" xlink:href="#DejaVuSans-8722"/>
       <use transform="translate(429.677734 39.046875)scale(0.7)" xlink:href="#DejaVuSans-54"/>
      </g>
     </g>
    </g>
    <g id="ytick_5">
     <g id="line2d_13">
      <path clip-path="url(#p2f383f52ab)" d="M 86.783664 17.714021 
L 585.015354 17.714021 
" style="fill:none;stroke:#000000;stroke-linecap:square;stroke-opacity:0.1;stroke-width:0.5;"/>
     </g>
     <g id="line2d_14">
      <g>
       <use style="stroke:#000000;stroke-width:0.5;" x="86.783664" xlink:href="#mb72c1a16ab" y="17.714021"/>
      </g>
     </g>
     <g id="line2d_15">
      <g>
       <use style="stroke:#000000;stroke-width:0.5;" x="585.015354" xlink:href="#me3c33f5a7b" y="17.714021"/>
      </g>
     </g>
     <g id="text_5">
      <!-- $\mathregular{2.0×10^{-6}}$ -->
      <g transform="translate(26.043664 22.273083)scale(0.12 -0.12)">
       <defs>
        <path d="M 19.1875 8.296875 
L 53.609375 8.296875 
L 53.609375 0 
L 7.328125 0 
L 7.328125 8.296875 
Q 12.9375 14.109375 22.625 23.890625 
Q 32.328125 33.6875 34.8125 36.53125 
Q 39.546875 41.84375 41.421875 45.53125 
Q 43.3125 49.21875 43.3125 52.78125 
Q 43.3125 58.59375 39.234375 62.25 
Q 35.15625 65.921875 28.609375 65.921875 
Q 23.96875 65.921875 18.8125 64.3125 
Q 13.671875 62.703125 7.8125 59.421875 
L 7.8125 69.390625 
Q 13.765625 71.78125 18.9375 73 
Q 24.125 74.21875 28.421875 74.21875 
Q 39.75 74.21875 46.484375 68.546875 
Q 53.21875 62.890625 53.21875 53.421875 
Q 53.21875 48.921875 51.53125 44.890625 
Q 49.859375 40.875 45.40625 35.40625 
Q 44.1875 33.984375 37.640625 27.21875 
Q 31.109375 20.453125 19.1875 8.296875 
z
" id="DejaVuSans-50"/>
       </defs>
       <use transform="translate(0 0.765625)" xlink:href="#DejaVuSans-50"/>
       <use transform="translate(63.623047 0.765625)" xlink:href="#DejaVuSans-46"/>
       <use transform="translate(95.410156 0.765625)" xlink:href="#DejaVuSans-48"/>
       <use transform="translate(159.033203 0.765625)" xlink:href="#DejaVuSans-215"/>
       <use transform="translate(242.822266 0.765625)" xlink:href="#DejaVuSans-49"/>
       <use transform="translate(306.445312 0.765625)" xlink:href="#DejaVuSans-48"/>
       <use transform="translate(371.025391 39.046875)scale(0.7)" xlink:href="#DejaVuSans-8722"/>
       <use transform="translate(429.677734 39.046875)scale(0.7)" xlink:href="#DejaVuSans-54"/>
      </g>
     </g>
    </g>
    <g id="text_6">
     <!-- $Y_{CH_4}$ -->
     <g transform="translate(17.563664 58.11)rotate(-90)scale(0.16 -0.16)">
      <defs>
       <path d="M 6.296875 72.90625 
L 16.890625 72.90625 
L 30.515625 42.921875 
L 56.5 72.90625 
L 67.578125 72.90625 
L 34.515625 34.71875 
L 27.78125 0 
L 17.921875 0 
L 24.609375 34.71875 
z
" id="DejaVuSans-Oblique-89"/>
       <path d="M 69.484375 67.28125 
L 67.484375 56.890625 
Q 62.796875 61.625 57.546875 63.921875 
Q 52.296875 66.21875 46.1875 66.21875 
Q 37.84375 66.21875 31.515625 62.203125 
Q 25.203125 58.203125 20.609375 50 
Q 17.671875 44.734375 16.125 38.84375 
Q 14.59375 32.953125 14.59375 27 
Q 14.59375 17.046875 19.75 11.8125 
Q 24.90625 6.59375 34.71875 6.59375 
Q 41.5 6.59375 47.75 8.765625 
Q 54 10.9375 59.90625 15.28125 
L 57.625 3.609375 
Q 51.8125 1.125 45.875 -0.140625 
Q 39.9375 -1.421875 33.984375 -1.421875 
Q 19.96875 -1.421875 12.078125 6.1875 
Q 4.203125 13.8125 4.203125 27.390625 
Q 4.203125 36.078125 7.203125 44.46875 
Q 10.203125 52.875 15.828125 59.8125 
Q 21.78125 67.1875 29.421875 70.703125 
Q 37.0625 74.21875 47.21875 74.21875 
Q 53.46875 74.21875 59.0625 72.484375 
Q 64.65625 70.75 69.484375 67.28125 
z
" id="DejaVuSans-Oblique-67"/>
       <path d="M 16.890625 72.90625 
L 26.8125 72.90625 
L 21 43.015625 
L 56.78125 43.015625 
L 62.59375 72.90625 
L 72.515625 72.90625 
L 58.296875 0 
L 48.390625 0 
L 55.171875 34.71875 
L 19.390625 34.71875 
L 12.59375 0 
L 2.6875 0 
z
" id="DejaVuSans-Oblique-72"/>
       <path d="M 37.796875 64.3125 
L 12.890625 25.390625 
L 37.796875 25.390625 
z
M 35.203125 72.90625 
L 47.609375 72.90625 
L 47.609375 25.390625 
L 58.015625 25.390625 
L 58.015625 17.1875 
L 47.609375 17.1875 
L 47.609375 0 
L 37.796875 0 
L 37.796875 17.1875 
L 4.890625 17.1875 
L 4.890625 26.703125 
z
" id="DejaVuSans-52"/>
      </defs>
      <use transform="translate(0 0.09375)" xlink:href="#DejaVuSans-Oblique-89"/>
      <use transform="translate(61.083984 -16.3125)scale(0.7)" xlink:href="#DejaVuSans-Oblique-67"/>
      <use transform="translate(109.960938 -16.3125)scale(0.7)" xlink:href="#DejaVuSans-Oblique-72"/>
      <use transform="translate(162.597656 -27.796875)scale(0.49)" xlink:href="#DejaVuSans-52"/>
     </g>
    </g>
   </g>
   <g id="PathCollection_1">
    <defs>
     <path d="M 0 2 
C 0.530406 2 1.03916 1.789267 1.414214 1.414214 
C 1.789267 1.03916 2 0.530406 2 0 
C 2 -0.530406 1.789267 -1.03916 1.414214 -1.414214 
C 1.03916 -1.789267 0.530406 -2 0 -2 
C -0.530406 -2 -1.03916 -1.789267 -1.414214 -1.414214 
C -1.789267 -1.03916 -2 -0.530406 -2 0 
C -2 0.530406 -1.789267 1.03916 -1.414214 1.414214 
C -1.03916 1.789267 -0.530406 2 0 2 
z
" id="m5b9d20e663"/>
    </defs>
    <g clip-path="url(#p2f383f52ab)">
     <use x="100.884561" xlink:href="#m5b9d20e663" y="79.317693"/>
     <use x="110.477008" xlink:href="#m5b9d20e663" y="11.012158"/>
     <use x="120.069454" xlink:href="#m5b9d20e663" y="13.227948"/>
     <use x="129.661901" xlink:href="#m5b9d20e663" y="14.888903"/>
     <use x="139.254348" xlink:href="#m5b9d20e663" y="8.856537"/>
     <use x="148.846795" xlink:href="#m5b9d20e663" y="6.141461"/>
     <use x="158.439242" xlink:href="#m5b9d20e663" y="6.075867"/>
     <use x="168.031689" xlink:href="#m5b9d20e663" y="14.66003"/>
     <use x="177.624136" xlink:href="#m5b9d20e663" y="7.820411"/>
     <use x="187.216583" xlink:href="#m5b9d20e663" y="17.583007"/>
     <use x="196.809029" xlink:href="#m5b9d20e663" y="11.111034"/>
     <use x="206.401476" xlink:href="#m5b9d20e663" y="17.535227"/>
     <use x="215.993923" xlink:href="#m5b9d20e663" y="12.748098"/>
     <use x="225.58637" xlink:href="#m5b9d20e663" y="21.874246"/>
     <use x="235.178817" xlink:href="#m5b9d20e663" y="20.204202"/>
     <use x="244.771264" xlink:href="#m5b9d20e663" y="20.704087"/>
     <use x="254.363711" xlink:href="#m5b9d20e663" y="26.353482"/>
     <use x="263.956158" xlink:href="#m5b9d20e663" y="25.333303"/>
     <use x="273.548604" xlink:href="#m5b9d20e663" y="31.972261"/>
     <use x="283.141051" xlink:href="#m5b9d20e663" y="34.607107"/>
     <use x="292.733498" xlink:href="#m5b9d20e663" y="35.894902"/>
     <use x="302.325945" xlink:href="#m5b9d20e663" y="34.721449"/>
     <use x="311.918392" xlink:href="#m5b9d20e663" y="44.976955"/>
     <use x="321.510839" xlink:href="#m5b9d20e663" y="40.427152"/>
     <use x="331.103286" xlink:href="#m5b9d20e663" y="46.397451"/>
     <use x="340.695733" xlink:href="#m5b9d20e663" y="52.481638"/>
     <use x="350.288179" xlink:href="#m5b9d20e663" y="57.058506"/>
     <use x="359.880626" xlink:href="#m5b9d20e663" y="57.420927"/>
     <use x="369.473073" xlink:href="#m5b9d20e663" y="49.05206"/>
     <use x="379.06552" xlink:href="#m5b9d20e663" y="55.854354"/>
     <use x="388.657967" xlink:href="#m5b9d20e663" y="47.482316"/>
     <use x="398.250414" xlink:href="#m5b9d20e663" y="46.277077"/>
     <use x="407.842861" xlink:href="#m5b9d20e663" y="57.820931"/>
     <use x="417.435307" xlink:href="#m5b9d20e663" y="53.755473"/>
     <use x="427.027754" xlink:href="#m5b9d20e663" y="51.428765"/>
     <use x="436.620201" xlink:href="#m5b9d20e663" y="48.001109"/>
     <use x="446.212648" xlink:href="#m5b9d20e663" y="40.807131"/>
     <use x="455.805095" xlink:href="#m5b9d20e663" y="46.790066"/>
     <use x="465.397542" xlink:href="#m5b9d20e663" y="51.093336"/>
     <use x="474.989989" xlink:href="#m5b9d20e663" y="39.787198"/>
     <use x="484.582436" xlink:href="#m5b9d20e663" y="38.353272"/>
     <use x="494.174882" xlink:href="#m5b9d20e663" y="41.335184"/>
     <use x="503.767329" xlink:href="#m5b9d20e663" y="31.186281"/>
     <use x="513.359776" xlink:href="#m5b9d20e663" y="23.565426"/>
     <use x="522.952223" xlink:href="#m5b9d20e663" y="25.104464"/>
     <use x="532.54467" xlink:href="#m5b9d20e663" y="22.220419"/>
     <use x="542.137117" xlink:href="#m5b9d20e663" y="18.365463"/>
     <use x="551.729564" xlink:href="#m5b9d20e663" y="18.337832"/>
     <use x="561.322011" xlink:href="#m5b9d20e663" y="22.04206"/>
     <use x="570.914457" xlink:href="#m5b9d20e663" y="15.112397"/>
    </g>
   </g>
   <g id="line2d_16">
    <path clip-path="url(#p2f383f52ab)" d="M 100.884561 78.53435 
L 110.477008 14.305432 
L 120.069454 15.832089 
L 129.661901 18.366621 
L 139.254348 18.191468 
L 148.846795 13.728358 
L 158.439242 7.921679 
L 168.031689 5.062307 
L 177.624136 6.004818 
L 187.216583 8.432393 
L 196.809029 10.752153 
L 206.401476 13.599364 
L 215.993923 17.542512 
L 225.58637 20.772497 
L 235.178817 20.460537 
L 244.771264 16.910771 
L 254.363711 14.994462 
L 263.956158 19.268101 
L 273.548604 28.558349 
L 283.141051 37.481273 
L 292.733498 42.298687 
L 302.325945 43.961838 
L 311.918392 45.727194 
L 321.510839 48.78681 
L 331.103286 51.180055 
L 340.695733 51.125856 
L 350.288179 50.132959 
L 359.880626 51.098767 
L 369.473073 54.122451 
L 379.06552 56.528206 
L 388.657967 56.707031 
L 398.250414 56.195691 
L 407.842861 57.316809 
L 417.435307 59.309499 
L 427.027754 58.239099 
L 436.620201 51.925511 
L 446.212648 43.898652 
L 455.805095 39.957635 
L 465.397542 41.426186 
L 474.989989 44.212138 
L 484.582436 43.63783 
L 494.174882 38.697441 
L 503.767329 31.84728 
L 513.359776 25.420119 
L 522.952223 19.480375 
L 532.54467 13.808926 
L 542.137117 10.261039 
L 551.729564 10.921036 
L 561.322011 14.577324 
L 570.914457 17.047832 
" style="fill:none;stroke:#ff0000;"/>
   </g>
   <g id="patch_3">
    <path d="M 86.783664 81.545354 
L 86.783664 2.834646 
" style="fill:none;stroke:#000000;stroke-linecap:square;stroke-linejoin:miter;"/>
   </g>
   <g id="patch_4">
    <path d="M 585.015354 81.545354 
L 585.015354 2.834646 
" style="fill:none;stroke:#000000;stroke-linecap:square;stroke-linejoin:miter;"/>
   </g>
   <g id="patch_5">
    <path d="M 86.783664 81.545354 
L 585.015354 81.545354 
" style="fill:none;stroke:#000000;stroke-linecap:square;stroke-linejoin:miter;"/>
   </g>
   <g id="patch_6">
    <path d="M 86.783664 2.834646 
L 585.015354 2.834646 
" style="fill:none;stroke:#000000;stroke-linecap:square;stroke-linejoin:miter;"/>
   </g>
  </g>
  <g id="axes_2">
   <g id="patch_7">
    <path d="M 86.783664 165.925354 
L 585.015354 165.925354 
L 585.015354 87.214646 
L 86.783664 87.214646 
z
" style="fill:#ffffff;"/>
   </g>
   <g id="matplotlib.axis_3">
    <g id="xtick_7"/>
    <g id="xtick_8"/>
    <g id="xtick_9"/>
    <g id="xtick_10"/>
    <g id="xtick_11"/>
    <g id="xtick_12"/>
   </g>
   <g id="matplotlib.axis_4">
    <g id="ytick_6">
     <g id="line2d_17">
      <path clip-path="url(#p6fd6a05117)" d="M 86.783664 155.045073 
L 585.015354 155.045073 
" style="fill:none;stroke:#000000;stroke-linecap:square;stroke-opacity:0.1;stroke-width:0.5;"/>
     </g>
     <g id="line2d_18">
      <g>
       <use style="stroke:#000000;stroke-width:0.5;" x="86.783664" xlink:href="#mb72c1a16ab" y="155.045073"/>
      </g>
     </g>
     <g id="line2d_19">
      <g>
       <use style="stroke:#000000;stroke-width:0.5;" x="585.015354" xlink:href="#me3c33f5a7b" y="155.045073"/>
      </g>
     </g>
     <g id="text_7">
      <!-- $\mathregular{0.0027}$ -->
      <g transform="translate(41.283664 159.604135)scale(0.12 -0.12)">
       <use transform="translate(0 0.78125)" xlink:href="#DejaVuSans-48"/>
       <use transform="translate(63.623047 0.78125)" xlink:href="#DejaVuSans-46"/>
       <use transform="translate(95.410156 0.78125)" xlink:href="#DejaVuSans-48"/>
       <use transform="translate(159.033203 0.78125)" xlink:href="#DejaVuSans-48"/>
       <use transform="translate(222.65625 0.78125)" xlink:href="#DejaVuSans-50"/>
       <use transform="translate(286.279297 0.78125)" xlink:href="#DejaVuSans-55"/>
      </g>
     </g>
    </g>
    <g id="ytick_7">
     <g id="line2d_20">
      <path clip-path="url(#p6fd6a05117)" d="M 86.783664 134.960995 
L 585.015354 134.960995 
" style="fill:none;stroke:#000000;stroke-linecap:square;stroke-opacity:0.1;stroke-width:0.5;"/>
     </g>
     <g id="line2d_21">
      <g>
       <use style="stroke:#000000;stroke-width:0.5;" x="86.783664" xlink:href="#mb72c1a16ab" y="134.960995"/>
      </g>
     </g>
     <g id="line2d_22">
      <g>
       <use style="stroke:#000000;stroke-width:0.5;" x="585.015354" xlink:href="#me3c33f5a7b" y="134.960995"/>
      </g>
     </g>
     <g id="text_8">
      <!-- $\mathregular{0.0028}$ -->
      <g transform="translate(41.283664 139.520057)scale(0.12 -0.12)">
       <defs>
        <path d="M 31.78125 34.625 
Q 24.75 34.625 20.71875 30.859375 
Q 16.703125 27.09375 16.703125 20.515625 
Q 16.703125 13.921875 20.71875 10.15625 
Q 24.75 6.390625 31.78125 6.390625 
Q 38.8125 6.390625 42.859375 10.171875 
Q 46.921875 13.96875 46.921875 20.515625 
Q 46.921875 27.09375 42.890625 30.859375 
Q 38.875 34.625 31.78125 34.625 
z
M 21.921875 38.8125 
Q 15.578125 40.375 12.03125 44.71875 
Q 8.5 49.078125 8.5 55.328125 
Q 8.5 64.0625 14.71875 69.140625 
Q 20.953125 74.21875 31.78125 74.21875 
Q 42.671875 74.21875 48.875 69.140625 
Q 55.078125 64.0625 55.078125 55.328125 
Q 55.078125 49.078125 51.53125 44.71875 
Q 48 40.375 41.703125 38.8125 
Q 48.828125 37.15625 52.796875 32.3125 
Q 56.78125 27.484375 56.78125 20.515625 
Q 56.78125 9.90625 50.3125 4.234375 
Q 43.84375 -1.421875 31.78125 -1.421875 
Q 19.734375 -1.421875 13.25 4.234375 
Q 6.78125 9.90625 6.78125 20.515625 
Q 6.78125 27.484375 10.78125 32.3125 
Q 14.796875 37.15625 21.921875 38.8125 
z
M 18.3125 54.390625 
Q 18.3125 48.734375 21.84375 45.5625 
Q 25.390625 42.390625 31.78125 42.390625 
Q 38.140625 42.390625 41.71875 45.5625 
Q 45.3125 48.734375 45.3125 54.390625 
Q 45.3125 60.0625 41.71875 63.234375 
Q 38.140625 66.40625 31.78125 66.40625 
Q 25.390625 66.40625 21.84375 63.234375 
Q 18.3125 60.0625 18.3125 54.390625 
z
" id="DejaVuSans-56"/>
       </defs>
       <use transform="translate(0 0.78125)" xlink:href="#DejaVuSans-48"/>
       <use transform="translate(63.623047 0.78125)" xlink:href="#DejaVuSans-46"/>
       <use transform="translate(95.410156 0.78125)" xlink:href="#DejaVuSans-48"/>
       <use transform="translate(159.033203 0.78125)" xlink:href="#DejaVuSans-48"/>
       <use transform="translate(222.65625 0.78125)" xlink:href="#DejaVuSans-50"/>
       <use transform="translate(286.279297 0.78125)" xlink:href="#DejaVuSans-56"/>
      </g>
     </g>
    </g>
    <g id="ytick_8">
     <g id="line2d_23">
      <path clip-path="url(#p6fd6a05117)" d="M 86.783664 114.876917 
L 585.015354 114.876917 
" style="fill:none;stroke:#000000;stroke-linecap:square;stroke-opacity:0.1;stroke-width:0.5;"/>
     </g>
     <g id="line2d_24">
      <g>
       <use style="stroke:#000000;stroke-width:0.5;" x="86.783664" xlink:href="#mb72c1a16ab" y="114.876917"/>
      </g>
     </g>
     <g id="line2d_25">
      <g>
       <use style="stroke:#000000;stroke-width:0.5;" x="585.015354" xlink:href="#me3c33f5a7b" y="114.876917"/>
      </g>
     </g>
     <g id="text_9">
      <!-- $\mathregular{0.0029}$ -->
      <g transform="translate(41.403664 119.435979)scale(0.12 -0.12)">
       <defs>
        <path d="M 10.984375 1.515625 
L 10.984375 10.5 
Q 14.703125 8.734375 18.5 7.8125 
Q 22.3125 6.890625 25.984375 6.890625 
Q 35.75 6.890625 40.890625 13.453125 
Q 46.046875 20.015625 46.78125 33.40625 
Q 43.953125 29.203125 39.59375 26.953125 
Q 35.25 24.703125 29.984375 24.703125 
Q 19.046875 24.703125 12.671875 31.3125 
Q 6.296875 37.9375 6.296875 49.421875 
Q 6.296875 60.640625 12.9375 67.421875 
Q 19.578125 74.21875 30.609375 74.21875 
Q 43.265625 74.21875 49.921875 64.515625 
Q 56.59375 54.828125 56.59375 36.375 
Q 56.59375 19.140625 48.40625 8.859375 
Q 40.234375 -1.421875 26.421875 -1.421875 
Q 22.703125 -1.421875 18.890625 -0.6875 
Q 15.09375 0.046875 10.984375 1.515625 
z
M 30.609375 32.421875 
Q 37.25 32.421875 41.125 36.953125 
Q 45.015625 41.5 45.015625 49.421875 
Q 45.015625 57.28125 41.125 61.84375 
Q 37.25 66.40625 30.609375 66.40625 
Q 23.96875 66.40625 20.09375 61.84375 
Q 16.21875 57.28125 16.21875 49.421875 
Q 16.21875 41.5 20.09375 36.953125 
Q 23.96875 32.421875 30.609375 32.421875 
z
" id="DejaVuSans-57"/>
       </defs>
       <use transform="translate(0 0.78125)" xlink:href="#DejaVuSans-48"/>
       <use transform="translate(63.623047 0.78125)" xlink:href="#DejaVuSans-46"/>
       <use transform="translate(95.410156 0.78125)" xlink:href="#DejaVuSans-48"/>
       <use transform="translate(159.033203 0.78125)" xlink:href="#DejaVuSans-48"/>
       <use transform="translate(222.65625 0.78125)" xlink:href="#DejaVuSans-50"/>
       <use transform="translate(284.529297 0.78125)" xlink:href="#DejaVuSans-57"/>
      </g>
     </g>
    </g>
    <g id="ytick_9">
     <g id="line2d_26">
      <path clip-path="url(#p6fd6a05117)" d="M 86.783664 94.792839 
L 585.015354 94.792839 
" style="fill:none;stroke:#000000;stroke-linecap:square;stroke-opacity:0.1;stroke-width:0.5;"/>
     </g>
     <g id="line2d_27">
      <g>
       <use style="stroke:#000000;stroke-width:0.5;" x="86.783664" xlink:href="#mb72c1a16ab" y="94.792839"/>
      </g>
     </g>
     <g id="line2d_28">
      <g>
       <use style="stroke:#000000;stroke-width:0.5;" x="585.015354" xlink:href="#me3c33f5a7b" y="94.792839"/>
      </g>
     </g>
     <g id="text_10">
      <!-- $\mathregular{0.0030}$ -->
      <g transform="translate(41.283664 99.351901)scale(0.12 -0.12)">
       <defs>
        <path d="M 40.578125 39.3125 
Q 47.65625 37.796875 51.625 33 
Q 55.609375 28.21875 55.609375 21.1875 
Q 55.609375 10.40625 48.1875 4.484375 
Q 40.765625 -1.421875 27.09375 -1.421875 
Q 22.515625 -1.421875 17.65625 -0.515625 
Q 12.796875 0.390625 7.625 2.203125 
L 7.625 11.71875 
Q 11.71875 9.328125 16.59375 8.109375 
Q 21.484375 6.890625 26.8125 6.890625 
Q 36.078125 6.890625 40.9375 10.546875 
Q 45.796875 14.203125 45.796875 21.1875 
Q 45.796875 27.640625 41.28125 31.265625 
Q 36.765625 34.90625 28.71875 34.90625 
L 20.21875 34.90625 
L 20.21875 43.015625 
L 29.109375 43.015625 
Q 36.375 43.015625 40.234375 45.921875 
Q 44.09375 48.828125 44.09375 54.296875 
Q 44.09375 59.90625 40.109375 62.90625 
Q 36.140625 65.921875 28.71875 65.921875 
Q 24.65625 65.921875 20.015625 65.03125 
Q 15.375 64.15625 9.8125 62.3125 
L 9.8125 71.09375 
Q 15.4375 72.65625 20.34375 73.4375 
Q 25.25 74.21875 29.59375 74.21875 
Q 40.828125 74.21875 47.359375 69.109375 
Q 53.90625 64.015625 53.90625 55.328125 
Q 53.90625 49.265625 50.4375 45.09375 
Q 46.96875 40.921875 40.578125 39.3125 
z
" id="DejaVuSans-51"/>
       </defs>
       <use transform="translate(0 0.78125)" xlink:href="#DejaVuSans-48"/>
       <use transform="translate(63.623047 0.78125)" xlink:href="#DejaVuSans-46"/>
       <use transform="translate(95.410156 0.78125)" xlink:href="#DejaVuSans-48"/>
       <use transform="translate(159.033203 0.78125)" xlink:href="#DejaVuSans-48"/>
       <use transform="translate(222.65625 0.78125)" xlink:href="#DejaVuSans-51"/>
       <use transform="translate(286.279297 0.78125)" xlink:href="#DejaVuSans-48"/>
      </g>
     </g>
    </g>
    <g id="text_11">
     <!-- $Y_{CO}$ -->
     <g transform="translate(33.956164 140.01)rotate(-90)scale(0.16 -0.16)">
      <defs>
       <path d="M 45.609375 66.21875 
Q 37.5 66.21875 31.296875 62.28125 
Q 25.09375 58.34375 20.515625 50.296875 
Q 17.578125 45.171875 16.03125 39.40625 
Q 14.5 33.640625 14.5 27.78125 
Q 14.5 17.625 19.359375 12.109375 
Q 24.21875 6.59375 33.109375 6.59375 
Q 41.109375 6.59375 47.375 10.5625 
Q 53.65625 14.546875 58.109375 22.40625 
Q 61.078125 27.6875 62.640625 33.46875 
Q 64.203125 39.265625 64.203125 45.015625 
Q 64.203125 55.125 59.3125 60.671875 
Q 54.4375 66.21875 45.609375 66.21875 
z
M 32.8125 -1.421875 
Q 19.390625 -1.421875 11.6875 6.53125 
Q 4 14.5 4 28.328125 
Q 4 36.234375 7 44.484375 
Q 10.015625 52.734375 15.28125 59.1875 
Q 21.484375 66.75 29.09375 70.484375 
Q 36.71875 74.21875 45.90625 74.21875 
Q 59.28125 74.21875 66.984375 66.328125 
Q 74.703125 58.453125 74.703125 44.828125 
Q 74.703125 36.421875 71.765625 28.3125 
Q 68.84375 20.21875 63.375 13.625 
Q 57.125 6 49.578125 2.28125 
Q 42.046875 -1.421875 32.8125 -1.421875 
z
" id="DejaVuSans-Oblique-79"/>
      </defs>
      <use transform="translate(0 0.09375)" xlink:href="#DejaVuSans-Oblique-89"/>
      <use transform="translate(61.083984 -16.3125)scale(0.7)" xlink:href="#DejaVuSans-Oblique-67"/>
      <use transform="translate(109.960938 -16.3125)scale(0.7)" xlink:href="#DejaVuSans-Oblique-79"/>
     </g>
    </g>
   </g>
   <g id="PathCollection_2">
    <g clip-path="url(#p6fd6a05117)">
     <use x="100.884561" xlink:href="#m5b9d20e663" y="89.442307"/>
     <use x="110.477008" xlink:href="#m5b9d20e663" y="113.291801"/>
     <use x="120.069454" xlink:href="#m5b9d20e663" y="125.13006"/>
     <use x="129.661901" xlink:href="#m5b9d20e663" y="127.117179"/>
     <use x="139.254348" xlink:href="#m5b9d20e663" y="131.54654"/>
     <use x="148.846795" xlink:href="#m5b9d20e663" y="128.149952"/>
     <use x="158.439242" xlink:href="#m5b9d20e663" y="125.900356"/>
     <use x="168.031689" xlink:href="#m5b9d20e663" y="124.259363"/>
     <use x="177.624136" xlink:href="#m5b9d20e663" y="131.504916"/>
     <use x="187.216583" xlink:href="#m5b9d20e663" y="143.592052"/>
     <use x="196.809029" xlink:href="#m5b9d20e663" y="147.081518"/>
     <use x="206.401476" xlink:href="#m5b9d20e663" y="158.453324"/>
     <use x="215.993923" xlink:href="#m5b9d20e663" y="161.946515"/>
     <use x="225.58637" xlink:href="#m5b9d20e663" y="160.780431"/>
     <use x="235.178817" xlink:href="#m5b9d20e663" y="158.716424"/>
     <use x="244.771264" xlink:href="#m5b9d20e663" y="151.544562"/>
     <use x="254.363711" xlink:href="#m5b9d20e663" y="141.159981"/>
     <use x="263.956158" xlink:href="#m5b9d20e663" y="144.776982"/>
     <use x="273.548604" xlink:href="#m5b9d20e663" y="148.413777"/>
     <use x="283.141051" xlink:href="#m5b9d20e663" y="149.477864"/>
     <use x="292.733498" xlink:href="#m5b9d20e663" y="161.571464"/>
     <use x="302.325945" xlink:href="#m5b9d20e663" y="159.384456"/>
     <use x="311.918392" xlink:href="#m5b9d20e663" y="155.219995"/>
     <use x="321.510839" xlink:href="#m5b9d20e663" y="154.983187"/>
     <use x="331.103286" xlink:href="#m5b9d20e663" y="149.411285"/>
     <use x="340.695733" xlink:href="#m5b9d20e663" y="136.832532"/>
     <use x="350.288179" xlink:href="#m5b9d20e663" y="128.831234"/>
     <use x="359.880626" xlink:href="#m5b9d20e663" y="129.957733"/>
     <use x="369.473073" xlink:href="#m5b9d20e663" y="128.000199"/>
     <use x="379.06552" xlink:href="#m5b9d20e663" y="136.59763"/>
     <use x="388.657967" xlink:href="#m5b9d20e663" y="141.087465"/>
     <use x="398.250414" xlink:href="#m5b9d20e663" y="142.614645"/>
     <use x="407.842861" xlink:href="#m5b9d20e663" y="144.714993"/>
     <use x="417.435307" xlink:href="#m5b9d20e663" y="139.468466"/>
     <use x="427.027754" xlink:href="#m5b9d20e663" y="131.187416"/>
     <use x="436.620201" xlink:href="#m5b9d20e663" y="126.502243"/>
     <use x="446.212648" xlink:href="#m5b9d20e663" y="120.158682"/>
     <use x="455.805095" xlink:href="#m5b9d20e663" y="117.145696"/>
     <use x="465.397542" xlink:href="#m5b9d20e663" y="121.828176"/>
     <use x="474.989989" xlink:href="#m5b9d20e663" y="127.96822"/>
     <use x="484.582436" xlink:href="#m5b9d20e663" y="141.514855"/>
     <use x="494.174882" xlink:href="#m5b9d20e663" y="143.594818"/>
     <use x="503.767329" xlink:href="#m5b9d20e663" y="145.54709"/>
     <use x="513.359776" xlink:href="#m5b9d20e663" y="146.018654"/>
     <use x="522.952223" xlink:href="#m5b9d20e663" y="136.840083"/>
     <use x="532.54467" xlink:href="#m5b9d20e663" y="128.409739"/>
     <use x="542.137117" xlink:href="#m5b9d20e663" y="135.215736"/>
     <use x="551.729564" xlink:href="#m5b9d20e663" y="131.342706"/>
     <use x="561.322011" xlink:href="#m5b9d20e663" y="139.386675"/>
     <use x="570.914457" xlink:href="#m5b9d20e663" y="152.877547"/>
    </g>
   </g>
   <g id="line2d_29">
    <path clip-path="url(#p6fd6a05117)" d="M 100.884561 90.25904 
L 110.477008 103.742025 
L 120.069454 119.335802 
L 129.661901 128.745316 
L 139.254348 131.454145 
L 148.846795 129.434976 
L 158.439242 126.655242 
L 168.031689 126.745855 
L 177.624136 131.046498 
L 187.216583 138.744924 
L 196.809029 148.016689 
L 206.401476 156.700765 
L 215.993923 162.540891 
L 225.58637 163.697693 
L 235.178817 159.813168 
L 244.771264 152.893596 
L 254.363711 146.604986 
L 263.956158 143.90633 
L 273.548604 145.351948 
L 283.141051 149.565231 
L 292.733498 154.531134 
L 302.325945 158.294166 
L 311.918392 159.08102 
L 321.510839 155.587925 
L 331.103286 147.877923 
L 340.695733 138.253138 
L 350.288179 130.603526 
L 359.880626 127.938951 
L 369.473073 130.435643 
L 379.06552 135.838813 
L 388.657967 141.145976 
L 398.250414 143.902556 
L 407.842861 142.656816 
L 417.435307 137.108099 
L 427.027754 128.577564 
L 436.620201 120.340269 
L 446.212648 116.340579 
L 455.805095 118.509343 
L 465.397542 125.489741 
L 474.989989 133.946568 
L 484.582436 140.66549 
L 494.174882 143.856025 
L 503.767329 143.319693 
L 513.359776 139.975859 
L 522.952223 135.5623 
L 532.54467 132.555332 
L 542.137117 133.402737 
L 551.729564 138.989548 
L 561.322011 147.80698 
L 570.914457 156.742134 
" style="fill:none;stroke:#ff0000;"/>
   </g>
   <g id="patch_8">
    <path d="M 86.783664 165.925354 
L 86.783664 87.214646 
" style="fill:none;stroke:#000000;stroke-linecap:square;stroke-linejoin:miter;"/>
   </g>
   <g id="patch_9">
    <path d="M 585.015354 165.925354 
L 585.015354 87.214646 
" style="fill:none;stroke:#000000;stroke-linecap:square;stroke-linejoin:miter;"/>
   </g>
   <g id="patch_10">
    <path d="M 86.783664 165.925354 
L 585.015354 165.925354 
" style="fill:none;stroke:#000000;stroke-linecap:square;stroke-linejoin:miter;"/>
   </g>
   <g id="patch_11">
    <path d="M 86.783664 87.214646 
L 585.015354 87.214646 
" style="fill:none;stroke:#000000;stroke-linecap:square;stroke-linejoin:miter;"/>
   </g>
   <g id="legend_1">
    <g id="line2d_30">
     <path d="M 600.615354 116.874375 
L 624.615354 116.874375 
" style="fill:none;"/>
    </g>
    <g id="line2d_31">
     <defs>
      <path d="M 0 4.8 
C 1.272975 4.8 2.493983 4.294242 3.394113 3.394113 
C 4.294242 2.493983 4.8 1.272975 4.8 0 
C 4.8 -1.272975 4.294242 -2.493983 3.394113 -3.394113 
C 2.493983 -4.294242 1.272975 -4.8 0 -4.8 
C -1.272975 -4.8 -2.493983 -4.294242 -3.394113 -3.394113 
C -4.294242 -2.493983 -4.8 -1.272975 -4.8 0 
C -4.8 1.272975 -4.294242 2.493983 -3.394113 3.394113 
C -2.493983 4.294242 -1.272975 4.8 0 4.8 
z
" id="m7d1efa43d4"/>
     </defs>
     <g>
      <use x="612.615354" xlink:href="#m7d1efa43d4" y="116.874375"/>
     </g>
    </g>
    <g id="text_12">
     <!-- Groundtruth -->
     <g transform="translate(634.215354 121.074375)scale(0.12 -0.12)">
      <defs>
       <path d="M 59.515625 10.40625 
L 59.515625 29.984375 
L 43.40625 29.984375 
L 43.40625 38.09375 
L 69.28125 38.09375 
L 69.28125 6.78125 
Q 63.578125 2.734375 56.6875 0.65625 
Q 49.8125 -1.421875 42 -1.421875 
Q 24.90625 -1.421875 15.25 8.5625 
Q 5.609375 18.5625 5.609375 36.375 
Q 5.609375 54.25 15.25 64.234375 
Q 24.90625 74.21875 42 74.21875 
Q 49.125 74.21875 55.546875 72.453125 
Q 61.96875 70.703125 67.390625 67.28125 
L 67.390625 56.78125 
Q 61.921875 61.421875 55.765625 63.765625 
Q 49.609375 66.109375 42.828125 66.109375 
Q 29.4375 66.109375 22.71875 58.640625 
Q 16.015625 51.171875 16.015625 36.375 
Q 16.015625 21.625 22.71875 14.15625 
Q 29.4375 6.6875 42.828125 6.6875 
Q 48.046875 6.6875 52.140625 7.59375 
Q 56.25 8.5 59.515625 10.40625 
z
" id="DejaVuSans-71"/>
       <path d="M 41.109375 46.296875 
Q 39.59375 47.171875 37.8125 47.578125 
Q 36.03125 48 33.890625 48 
Q 26.265625 48 22.1875 43.046875 
Q 18.109375 38.09375 18.109375 28.8125 
L 18.109375 0 
L 9.078125 0 
L 9.078125 54.6875 
L 18.109375 54.6875 
L 18.109375 46.1875 
Q 20.953125 51.171875 25.484375 53.578125 
Q 30.03125 56 36.53125 56 
Q 37.453125 56 38.578125 55.875 
Q 39.703125 55.765625 41.0625 55.515625 
z
" id="DejaVuSans-114"/>
       <path d="M 30.609375 48.390625 
Q 23.390625 48.390625 19.1875 42.75 
Q 14.984375 37.109375 14.984375 27.296875 
Q 14.984375 17.484375 19.15625 11.84375 
Q 23.34375 6.203125 30.609375 6.203125 
Q 37.796875 6.203125 41.984375 11.859375 
Q 46.1875 17.53125 46.1875 27.296875 
Q 46.1875 37.015625 41.984375 42.703125 
Q 37.796875 48.390625 30.609375 48.390625 
z
M 30.609375 56 
Q 42.328125 56 49.015625 48.375 
Q 55.71875 40.765625 55.71875 27.296875 
Q 55.71875 13.875 49.015625 6.21875 
Q 42.328125 -1.421875 30.609375 -1.421875 
Q 18.84375 -1.421875 12.171875 6.21875 
Q 5.515625 13.875 5.515625 27.296875 
Q 5.515625 40.765625 12.171875 48.375 
Q 18.84375 56 30.609375 56 
z
" id="DejaVuSans-111"/>
       <path d="M 8.5 21.578125 
L 8.5 54.6875 
L 17.484375 54.6875 
L 17.484375 21.921875 
Q 17.484375 14.15625 20.5 10.265625 
Q 23.53125 6.390625 29.59375 6.390625 
Q 36.859375 6.390625 41.078125 11.03125 
Q 45.3125 15.671875 45.3125 23.6875 
L 45.3125 54.6875 
L 54.296875 54.6875 
L 54.296875 0 
L 45.3125 0 
L 45.3125 8.40625 
Q 42.046875 3.421875 37.71875 1 
Q 33.40625 -1.421875 27.6875 -1.421875 
Q 18.265625 -1.421875 13.375 4.4375 
Q 8.5 10.296875 8.5 21.578125 
z
M 31.109375 56 
z
" id="DejaVuSans-117"/>
       <path d="M 54.890625 33.015625 
L 54.890625 0 
L 45.90625 0 
L 45.90625 32.71875 
Q 45.90625 40.484375 42.875 44.328125 
Q 39.84375 48.1875 33.796875 48.1875 
Q 26.515625 48.1875 22.3125 43.546875 
Q 18.109375 38.921875 18.109375 30.90625 
L 18.109375 0 
L 9.078125 0 
L 9.078125 54.6875 
L 18.109375 54.6875 
L 18.109375 46.1875 
Q 21.34375 51.125 25.703125 53.5625 
Q 30.078125 56 35.796875 56 
Q 45.21875 56 50.046875 50.171875 
Q 54.890625 44.34375 54.890625 33.015625 
z
" id="DejaVuSans-110"/>
       <path d="M 45.40625 46.390625 
L 45.40625 75.984375 
L 54.390625 75.984375 
L 54.390625 0 
L 45.40625 0 
L 45.40625 8.203125 
Q 42.578125 3.328125 38.25 0.953125 
Q 33.9375 -1.421875 27.875 -1.421875 
Q 17.96875 -1.421875 11.734375 6.484375 
Q 5.515625 14.40625 5.515625 27.296875 
Q 5.515625 40.1875 11.734375 48.09375 
Q 17.96875 56 27.875 56 
Q 33.9375 56 38.25 53.625 
Q 42.578125 51.265625 45.40625 46.390625 
z
M 14.796875 27.296875 
Q 14.796875 17.390625 18.875 11.75 
Q 22.953125 6.109375 30.078125 6.109375 
Q 37.203125 6.109375 41.296875 11.75 
Q 45.40625 17.390625 45.40625 27.296875 
Q 45.40625 37.203125 41.296875 42.84375 
Q 37.203125 48.484375 30.078125 48.484375 
Q 22.953125 48.484375 18.875 42.84375 
Q 14.796875 37.203125 14.796875 27.296875 
z
" id="DejaVuSans-100"/>
       <path d="M 18.3125 70.21875 
L 18.3125 54.6875 
L 36.8125 54.6875 
L 36.8125 47.703125 
L 18.3125 47.703125 
L 18.3125 18.015625 
Q 18.3125 11.328125 20.140625 9.421875 
Q 21.96875 7.515625 27.59375 7.515625 
L 36.8125 7.515625 
L 36.8125 0 
L 27.59375 0 
Q 17.1875 0 13.234375 3.875 
Q 9.28125 7.765625 9.28125 18.015625 
L 9.28125 47.703125 
L 2.6875 47.703125 
L 2.6875 54.6875 
L 9.28125 54.6875 
L 9.28125 70.21875 
z
" id="DejaVuSans-116"/>
       <path d="M 54.890625 33.015625 
L 54.890625 0 
L 45.90625 0 
L 45.90625 32.71875 
Q 45.90625 40.484375 42.875 44.328125 
Q 39.84375 48.1875 33.796875 48.1875 
Q 26.515625 48.1875 22.3125 43.546875 
Q 18.109375 38.921875 18.109375 30.90625 
L 18.109375 0 
L 9.078125 0 
L 9.078125 75.984375 
L 18.109375 75.984375 
L 18.109375 46.1875 
Q 21.34375 51.125 25.703125 53.5625 
Q 30.078125 56 35.796875 56 
Q 45.21875 56 50.046875 50.171875 
Q 54.890625 44.34375 54.890625 33.015625 
z
" id="DejaVuSans-104"/>
      </defs>
      <use xlink:href="#DejaVuSans-71"/>
      <use x="77.490234" xlink:href="#DejaVuSans-114"/>
      <use x="116.353516" xlink:href="#DejaVuSans-111"/>
      <use x="177.535156" xlink:href="#DejaVuSans-117"/>
      <use x="240.914062" xlink:href="#DejaVuSans-110"/>
      <use x="304.292969" xlink:href="#DejaVuSans-100"/>
      <use x="367.769531" xlink:href="#DejaVuSans-116"/>
      <use x="406.978516" xlink:href="#DejaVuSans-114"/>
      <use x="448.091797" xlink:href="#DejaVuSans-117"/>
      <use x="511.470703" xlink:href="#DejaVuSans-116"/>
      <use x="550.679688" xlink:href="#DejaVuSans-104"/>
     </g>
    </g>
    <g id="line2d_32">
     <path d="M 600.615354 134.488125 
L 624.615354 134.488125 
" style="fill:none;stroke:#ff0000;stroke-linejoin:miter;stroke-width:1.5;"/>
    </g>
    <g id="line2d_33"/>
    <g id="text_13">
     <!-- Prediction -->
     <g transform="translate(634.215354 138.688125)scale(0.12 -0.12)">
      <defs>
       <path d="M 19.671875 64.796875 
L 19.671875 37.40625 
L 32.078125 37.40625 
Q 38.96875 37.40625 42.71875 40.96875 
Q 46.484375 44.53125 46.484375 51.125 
Q 46.484375 57.671875 42.71875 61.234375 
Q 38.96875 64.796875 32.078125 64.796875 
z
M 9.8125 72.90625 
L 32.078125 72.90625 
Q 44.34375 72.90625 50.609375 67.359375 
Q 56.890625 61.8125 56.890625 51.125 
Q 56.890625 40.328125 50.609375 34.8125 
Q 44.34375 29.296875 32.078125 29.296875 
L 19.671875 29.296875 
L 19.671875 0 
L 9.8125 0 
z
" id="DejaVuSans-80"/>
       <path d="M 56.203125 29.59375 
L 56.203125 25.203125 
L 14.890625 25.203125 
Q 15.484375 15.921875 20.484375 11.0625 
Q 25.484375 6.203125 34.421875 6.203125 
Q 39.59375 6.203125 44.453125 7.46875 
Q 49.3125 8.734375 54.109375 11.28125 
L 54.109375 2.78125 
Q 49.265625 0.734375 44.1875 -0.34375 
Q 39.109375 -1.421875 33.890625 -1.421875 
Q 20.796875 -1.421875 13.15625 6.1875 
Q 5.515625 13.8125 5.515625 26.8125 
Q 5.515625 40.234375 12.765625 48.109375 
Q 20.015625 56 32.328125 56 
Q 43.359375 56 49.78125 48.890625 
Q 56.203125 41.796875 56.203125 29.59375 
z
M 47.21875 32.234375 
Q 47.125 39.59375 43.09375 43.984375 
Q 39.0625 48.390625 32.421875 48.390625 
Q 24.90625 48.390625 20.390625 44.140625 
Q 15.875 39.890625 15.1875 32.171875 
z
" id="DejaVuSans-101"/>
       <path d="M 9.421875 54.6875 
L 18.40625 54.6875 
L 18.40625 0 
L 9.421875 0 
z
M 9.421875 75.984375 
L 18.40625 75.984375 
L 18.40625 64.59375 
L 9.421875 64.59375 
z
" id="DejaVuSans-105"/>
       <path d="M 48.78125 52.59375 
L 48.78125 44.1875 
Q 44.96875 46.296875 41.140625 47.34375 
Q 37.3125 48.390625 33.40625 48.390625 
Q 24.65625 48.390625 19.8125 42.84375 
Q 14.984375 37.3125 14.984375 27.296875 
Q 14.984375 17.28125 19.8125 11.734375 
Q 24.65625 6.203125 33.40625 6.203125 
Q 37.3125 6.203125 41.140625 7.25 
Q 44.96875 8.296875 48.78125 10.40625 
L 48.78125 2.09375 
Q 45.015625 0.34375 40.984375 -0.53125 
Q 36.96875 -1.421875 32.421875 -1.421875 
Q 20.0625 -1.421875 12.78125 6.34375 
Q 5.515625 14.109375 5.515625 27.296875 
Q 5.515625 40.671875 12.859375 48.328125 
Q 20.21875 56 33.015625 56 
Q 37.15625 56 41.109375 55.140625 
Q 45.0625 54.296875 48.78125 52.59375 
z
" id="DejaVuSans-99"/>
      </defs>
      <use xlink:href="#DejaVuSans-80"/>
      <use x="58.552734" xlink:href="#DejaVuSans-114"/>
      <use x="97.416016" xlink:href="#DejaVuSans-101"/>
      <use x="158.939453" xlink:href="#DejaVuSans-100"/>
      <use x="222.416016" xlink:href="#DejaVuSans-105"/>
      <use x="250.199219" xlink:href="#DejaVuSans-99"/>
      <use x="305.179688" xlink:href="#DejaVuSans-116"/>
      <use x="344.388672" xlink:href="#DejaVuSans-105"/>
      <use x="372.171875" xlink:href="#DejaVuSans-111"/>
      <use x="433.353516" xlink:href="#DejaVuSans-110"/>
     </g>
    </g>
   </g>
  </g>
  <g id="axes_3">
   <g id="patch_12">
    <path d="M 86.783664 250.305354 
L 585.015354 250.305354 
L 585.015354 171.594646 
L 86.783664 171.594646 
z
" style="fill:#ffffff;"/>
   </g>
   <g id="matplotlib.axis_5">
    <g id="xtick_13">
     <g id="line2d_34">
      <path clip-path="url(#paf6d987272)" d="M 100.884561 250.305354 
L 100.884561 171.594646 
" style="fill:none;stroke:#000000;stroke-linecap:square;stroke-opacity:0.1;stroke-width:0.5;"/>
     </g>
     <g id="line2d_35">
      <defs>
       <path d="M 0 0 
L 0 -2.5 
" id="mde7c59d6ef" style="stroke:#000000;stroke-width:0.5;"/>
      </defs>
      <g>
       <use style="stroke:#000000;stroke-width:0.5;" x="100.884561" xlink:href="#mde7c59d6ef" y="250.305354"/>
      </g>
     </g>
     <g id="line2d_36">
      <defs>
       <path d="M 0 0 
L 0 2.5 
" id="mc85f0f6138" style="stroke:#000000;stroke-width:0.5;"/>
      </defs>
      <g>
       <use style="stroke:#000000;stroke-width:0.5;" x="100.884561" xlink:href="#mc85f0f6138" y="171.594646"/>
      </g>
     </g>
     <g id="text_14">
      <!-- $\mathregular{0}$ -->
      <g transform="translate(97.044561 262.923479)scale(0.12 -0.12)">
       <use transform="translate(0 0.78125)" xlink:href="#DejaVuSans-48"/>
      </g>
     </g>
    </g>
    <g id="xtick_14">
     <g id="line2d_37">
      <path clip-path="url(#paf6d987272)" d="M 194.89054 250.305354 
L 194.89054 171.594646 
" style="fill:none;stroke:#000000;stroke-linecap:square;stroke-opacity:0.1;stroke-width:0.5;"/>
     </g>
     <g id="line2d_38">
      <g>
       <use style="stroke:#000000;stroke-width:0.5;" x="194.89054" xlink:href="#mde7c59d6ef" y="250.305354"/>
      </g>
     </g>
     <g id="line2d_39">
      <g>
       <use style="stroke:#000000;stroke-width:0.5;" x="194.89054" xlink:href="#mc85f0f6138" y="171.594646"/>
      </g>
     </g>
     <g id="text_15">
      <!-- $\mathregular{1}$ -->
      <g transform="translate(191.05054 262.923479)scale(0.12 -0.12)">
       <use transform="translate(0 0.09375)" xlink:href="#DejaVuSans-49"/>
      </g>
     </g>
    </g>
    <g id="xtick_15">
     <g id="line2d_40">
      <path clip-path="url(#paf6d987272)" d="M 288.896519 250.305354 
L 288.896519 171.594646 
" style="fill:none;stroke:#000000;stroke-linecap:square;stroke-opacity:0.1;stroke-width:0.5;"/>
     </g>
     <g id="line2d_41">
      <g>
       <use style="stroke:#000000;stroke-width:0.5;" x="288.896519" xlink:href="#mde7c59d6ef" y="250.305354"/>
      </g>
     </g>
     <g id="line2d_42">
      <g>
       <use style="stroke:#000000;stroke-width:0.5;" x="288.896519" xlink:href="#mc85f0f6138" y="171.594646"/>
      </g>
     </g>
     <g id="text_16">
      <!-- $\mathregular{2}$ -->
      <g transform="translate(285.056519 262.923479)scale(0.12 -0.12)">
       <use transform="translate(0 0.78125)" xlink:href="#DejaVuSans-50"/>
      </g>
     </g>
    </g>
    <g id="xtick_16">
     <g id="line2d_43">
      <path clip-path="url(#paf6d987272)" d="M 382.902499 250.305354 
L 382.902499 171.594646 
" style="fill:none;stroke:#000000;stroke-linecap:square;stroke-opacity:0.1;stroke-width:0.5;"/>
     </g>
     <g id="line2d_44">
      <g>
       <use style="stroke:#000000;stroke-width:0.5;" x="382.902499" xlink:href="#mde7c59d6ef" y="250.305354"/>
      </g>
     </g>
     <g id="line2d_45">
      <g>
       <use style="stroke:#000000;stroke-width:0.5;" x="382.902499" xlink:href="#mc85f0f6138" y="171.594646"/>
      </g>
     </g>
     <g id="text_17">
      <!-- $\mathregular{3}$ -->
      <g transform="translate(379.062499 262.923479)scale(0.12 -0.12)">
       <use transform="translate(0 0.78125)" xlink:href="#DejaVuSans-51"/>
      </g>
     </g>
    </g>
    <g id="xtick_17">
     <g id="line2d_46">
      <path clip-path="url(#paf6d987272)" d="M 476.908478 250.305354 
L 476.908478 171.594646 
" style="fill:none;stroke:#000000;stroke-linecap:square;stroke-opacity:0.1;stroke-width:0.5;"/>
     </g>
     <g id="line2d_47">
      <g>
       <use style="stroke:#000000;stroke-width:0.5;" x="476.908478" xlink:href="#mde7c59d6ef" y="250.305354"/>
      </g>
     </g>
     <g id="line2d_48">
      <g>
       <use style="stroke:#000000;stroke-width:0.5;" x="476.908478" xlink:href="#mc85f0f6138" y="171.594646"/>
      </g>
     </g>
     <g id="text_18">
      <!-- $\mathregular{4}$ -->
      <g transform="translate(473.068478 262.923479)scale(0.12 -0.12)">
       <use transform="translate(0 0.09375)" xlink:href="#DejaVuSans-52"/>
      </g>
     </g>
    </g>
    <g id="xtick_18">
     <g id="line2d_49">
      <path clip-path="url(#paf6d987272)" d="M 570.914457 250.305354 
L 570.914457 171.594646 
" style="fill:none;stroke:#000000;stroke-linecap:square;stroke-opacity:0.1;stroke-width:0.5;"/>
     </g>
     <g id="line2d_50">
      <g>
       <use style="stroke:#000000;stroke-width:0.5;" x="570.914457" xlink:href="#mde7c59d6ef" y="250.305354"/>
      </g>
     </g>
     <g id="line2d_51">
      <g>
       <use style="stroke:#000000;stroke-width:0.5;" x="570.914457" xlink:href="#mc85f0f6138" y="171.594646"/>
      </g>
     </g>
     <g id="text_19">
      <!-- $\mathregular{5}$ -->
      <g transform="translate(567.074457 262.923479)scale(0.12 -0.12)">
       <use transform="translate(0 0.09375)" xlink:href="#DejaVuSans-53"/>
      </g>
     </g>
    </g>
    <g id="text_20">
     <!-- Time [s] -->
     <g transform="translate(303.373259 281.576604)scale(0.16 -0.16)">
      <defs>
       <path d="M -0.296875 72.90625 
L 61.375 72.90625 
L 61.375 64.59375 
L 35.5 64.59375 
L 35.5 0 
L 25.59375 0 
L 25.59375 64.59375 
L -0.296875 64.59375 
z
" id="DejaVuSans-84"/>
       <path d="M 52 44.1875 
Q 55.375 50.25 60.0625 53.125 
Q 64.75 56 71.09375 56 
Q 79.640625 56 84.28125 50.015625 
Q 88.921875 44.046875 88.921875 33.015625 
L 88.921875 0 
L 79.890625 0 
L 79.890625 32.71875 
Q 79.890625 40.578125 77.09375 44.375 
Q 74.3125 48.1875 68.609375 48.1875 
Q 61.625 48.1875 57.5625 43.546875 
Q 53.515625 38.921875 53.515625 30.90625 
L 53.515625 0 
L 44.484375 0 
L 44.484375 32.71875 
Q 44.484375 40.625 41.703125 44.40625 
Q 38.921875 48.1875 33.109375 48.1875 
Q 26.21875 48.1875 22.15625 43.53125 
Q 18.109375 38.875 18.109375 30.90625 
L 18.109375 0 
L 9.078125 0 
L 9.078125 54.6875 
L 18.109375 54.6875 
L 18.109375 46.1875 
Q 21.1875 51.21875 25.484375 53.609375 
Q 29.78125 56 35.6875 56 
Q 41.65625 56 45.828125 52.96875 
Q 50 49.953125 52 44.1875 
z
" id="DejaVuSans-109"/>
       <path id="DejaVuSans-32"/>
       <path d="M 8.59375 75.984375 
L 29.296875 75.984375 
L 29.296875 69 
L 17.578125 69 
L 17.578125 -6.203125 
L 29.296875 -6.203125 
L 29.296875 -13.1875 
L 8.59375 -13.1875 
z
" id="DejaVuSans-91"/>
       <path d="M 44.28125 53.078125 
L 44.28125 44.578125 
Q 40.484375 46.53125 36.375 47.5 
Q 32.28125 48.484375 27.875 48.484375 
Q 21.1875 48.484375 17.84375 46.4375 
Q 14.5 44.390625 14.5 40.28125 
Q 14.5 37.15625 16.890625 35.375 
Q 19.28125 33.59375 26.515625 31.984375 
L 29.59375 31.296875 
Q 39.15625 29.25 43.1875 25.515625 
Q 47.21875 21.78125 47.21875 15.09375 
Q 47.21875 7.46875 41.1875 3.015625 
Q 35.15625 -1.421875 24.609375 -1.421875 
Q 20.21875 -1.421875 15.453125 -0.5625 
Q 10.6875 0.296875 5.421875 2 
L 5.421875 11.28125 
Q 10.40625 8.6875 15.234375 7.390625 
Q 20.0625 6.109375 24.8125 6.109375 
Q 31.15625 6.109375 34.5625 8.28125 
Q 37.984375 10.453125 37.984375 14.40625 
Q 37.984375 18.0625 35.515625 20.015625 
Q 33.0625 21.96875 24.703125 23.78125 
L 21.578125 24.515625 
Q 13.234375 26.265625 9.515625 29.90625 
Q 5.8125 33.546875 5.8125 39.890625 
Q 5.8125 47.609375 11.28125 51.796875 
Q 16.75 56 26.8125 56 
Q 31.78125 56 36.171875 55.265625 
Q 40.578125 54.546875 44.28125 53.078125 
z
" id="DejaVuSans-115"/>
       <path d="M 30.421875 75.984375 
L 30.421875 -13.1875 
L 9.71875 -13.1875 
L 9.71875 -6.203125 
L 21.390625 -6.203125 
L 21.390625 69 
L 9.71875 69 
L 9.71875 75.984375 
z
" id="DejaVuSans-93"/>
      </defs>
      <use xlink:href="#DejaVuSans-84"/>
      <use x="57.958984" xlink:href="#DejaVuSans-105"/>
      <use x="85.742188" xlink:href="#DejaVuSans-109"/>
      <use x="183.154297" xlink:href="#DejaVuSans-101"/>
      <use x="244.677734" xlink:href="#DejaVuSans-32"/>
      <use x="276.464844" xlink:href="#DejaVuSans-91"/>
      <use x="315.478516" xlink:href="#DejaVuSans-115"/>
      <use x="367.578125" xlink:href="#DejaVuSans-93"/>
     </g>
    </g>
   </g>
   <g id="matplotlib.axis_6">
    <g id="ytick_10">
     <g id="line2d_52">
      <path clip-path="url(#paf6d987272)" d="M 86.783664 239.509939 
L 585.015354 239.509939 
" style="fill:none;stroke:#000000;stroke-linecap:square;stroke-opacity:0.1;stroke-width:0.5;"/>
     </g>
     <g id="line2d_53">
      <g>
       <use style="stroke:#000000;stroke-width:0.5;" x="86.783664" xlink:href="#mb72c1a16ab" y="239.509939"/>
      </g>
     </g>
     <g id="line2d_54">
      <g>
       <use style="stroke:#000000;stroke-width:0.5;" x="585.015354" xlink:href="#me3c33f5a7b" y="239.509939"/>
      </g>
     </g>
     <g id="text_21">
      <!-- $\mathregular{1077}$ -->
      <g transform="translate(52.923664 244.069001)scale(0.12 -0.12)">
       <use transform="translate(0 0.78125)" xlink:href="#DejaVuSans-49"/>
       <use transform="translate(63.623047 0.78125)" xlink:href="#DejaVuSans-48"/>
       <use transform="translate(127.246094 0.78125)" xlink:href="#DejaVuSans-55"/>
       <use transform="translate(189.119141 0.78125)" xlink:href="#DejaVuSans-55"/>
      </g>
     </g>
    </g>
    <g id="ytick_11">
     <g id="line2d_55">
      <path clip-path="url(#paf6d987272)" d="M 86.783664 224.731076 
L 585.015354 224.731076 
" style="fill:none;stroke:#000000;stroke-linecap:square;stroke-opacity:0.1;stroke-width:0.5;"/>
     </g>
     <g id="line2d_56">
      <g>
       <use style="stroke:#000000;stroke-width:0.5;" x="86.783664" xlink:href="#mb72c1a16ab" y="224.731076"/>
      </g>
     </g>
     <g id="line2d_57">
      <g>
       <use style="stroke:#000000;stroke-width:0.5;" x="585.015354" xlink:href="#me3c33f5a7b" y="224.731076"/>
      </g>
     </g>
     <g id="text_22">
      <!-- $\mathregular{1080}$ -->
      <g transform="translate(52.683664 229.290138)scale(0.12 -0.12)">
       <use transform="translate(0 0.78125)" xlink:href="#DejaVuSans-49"/>
       <use transform="translate(63.623047 0.78125)" xlink:href="#DejaVuSans-48"/>
       <use transform="translate(127.246094 0.78125)" xlink:href="#DejaVuSans-56"/>
       <use transform="translate(190.869141 0.78125)" xlink:href="#DejaVuSans-48"/>
      </g>
     </g>
    </g>
    <g id="ytick_12">
     <g id="line2d_58">
      <path clip-path="url(#paf6d987272)" d="M 86.783664 209.952213 
L 585.015354 209.952213 
" style="fill:none;stroke:#000000;stroke-linecap:square;stroke-opacity:0.1;stroke-width:0.5;"/>
     </g>
     <g id="line2d_59">
      <g>
       <use style="stroke:#000000;stroke-width:0.5;" x="86.783664" xlink:href="#mb72c1a16ab" y="209.952213"/>
      </g>
     </g>
     <g id="line2d_60">
      <g>
       <use style="stroke:#000000;stroke-width:0.5;" x="585.015354" xlink:href="#me3c33f5a7b" y="209.952213"/>
      </g>
     </g>
     <g id="text_23">
      <!-- $\mathregular{1083}$ -->
      <g transform="translate(52.683664 214.511276)scale(0.12 -0.12)">
       <use transform="translate(0 0.78125)" xlink:href="#DejaVuSans-49"/>
       <use transform="translate(63.623047 0.78125)" xlink:href="#DejaVuSans-48"/>
       <use transform="translate(127.246094 0.78125)" xlink:href="#DejaVuSans-56"/>
       <use transform="translate(190.869141 0.78125)" xlink:href="#DejaVuSans-51"/>
      </g>
     </g>
    </g>
    <g id="ytick_13">
     <g id="line2d_61">
      <path clip-path="url(#paf6d987272)" d="M 86.783664 195.17335 
L 585.015354 195.17335 
" style="fill:none;stroke:#000000;stroke-linecap:square;stroke-opacity:0.1;stroke-width:0.5;"/>
     </g>
     <g id="line2d_62">
      <g>
       <use style="stroke:#000000;stroke-width:0.5;" x="86.783664" xlink:href="#mb72c1a16ab" y="195.17335"/>
      </g>
     </g>
     <g id="line2d_63">
      <g>
       <use style="stroke:#000000;stroke-width:0.5;" x="585.015354" xlink:href="#me3c33f5a7b" y="195.17335"/>
      </g>
     </g>
     <g id="text_24">
      <!-- $\mathregular{1086}$ -->
      <g transform="translate(52.683664 199.732413)scale(0.12 -0.12)">
       <use transform="translate(0 0.78125)" xlink:href="#DejaVuSans-49"/>
       <use transform="translate(63.623047 0.78125)" xlink:href="#DejaVuSans-48"/>
       <use transform="translate(127.246094 0.78125)" xlink:href="#DejaVuSans-56"/>
       <use transform="translate(190.869141 0.78125)" xlink:href="#DejaVuSans-54"/>
      </g>
     </g>
    </g>
    <g id="ytick_14">
     <g id="line2d_64">
      <path clip-path="url(#paf6d987272)" d="M 86.783664 180.394487 
L 585.015354 180.394487 
" style="fill:none;stroke:#000000;stroke-linecap:square;stroke-opacity:0.1;stroke-width:0.5;"/>
     </g>
     <g id="line2d_65">
      <g>
       <use style="stroke:#000000;stroke-width:0.5;" x="86.783664" xlink:href="#mb72c1a16ab" y="180.394487"/>
      </g>
     </g>
     <g id="line2d_66">
      <g>
       <use style="stroke:#000000;stroke-width:0.5;" x="585.015354" xlink:href="#me3c33f5a7b" y="180.394487"/>
      </g>
     </g>
     <g id="text_25">
      <!-- $\mathregular{1089}$ -->
      <g transform="translate(52.683664 184.95355)scale(0.12 -0.12)">
       <use transform="translate(0 0.78125)" xlink:href="#DejaVuSans-49"/>
       <use transform="translate(63.623047 0.78125)" xlink:href="#DejaVuSans-48"/>
       <use transform="translate(127.246094 0.78125)" xlink:href="#DejaVuSans-56"/>
       <use transform="translate(190.869141 0.78125)" xlink:href="#DejaVuSans-57"/>
      </g>
     </g>
    </g>
    <g id="text_26">
     <!-- T [K] -->
     <g transform="translate(45.356164 229.8675)rotate(-90)scale(0.16 -0.16)">
      <defs>
       <path d="M 9.8125 72.90625 
L 19.671875 72.90625 
L 19.671875 42.09375 
L 52.390625 72.90625 
L 65.09375 72.90625 
L 28.90625 38.921875 
L 67.671875 0 
L 54.6875 0 
L 19.671875 35.109375 
L 19.671875 0 
L 9.8125 0 
z
" id="DejaVuSans-75"/>
      </defs>
      <use xlink:href="#DejaVuSans-84"/>
      <use x="61.083984" xlink:href="#DejaVuSans-32"/>
      <use x="92.871094" xlink:href="#DejaVuSans-91"/>
      <use x="131.884766" xlink:href="#DejaVuSans-75"/>
      <use x="197.460938" xlink:href="#DejaVuSans-93"/>
     </g>
    </g>
   </g>
   <g id="PathCollection_3">
    <g clip-path="url(#paf6d987272)">
     <use x="100.884561" xlink:href="#m5b9d20e663" y="239.121338"/>
     <use x="110.477008" xlink:href="#m5b9d20e663" y="230.016704"/>
     <use x="120.069454" xlink:href="#m5b9d20e663" y="221.825124"/>
     <use x="129.661901" xlink:href="#m5b9d20e663" y="220.35396"/>
     <use x="139.254348" xlink:href="#m5b9d20e663" y="221.552343"/>
     <use x="148.846795" xlink:href="#m5b9d20e663" y="214.814082"/>
     <use x="158.439242" xlink:href="#m5b9d20e663" y="208.512845"/>
     <use x="168.031689" xlink:href="#m5b9d20e663" y="190.698905"/>
     <use x="177.624136" xlink:href="#m5b9d20e663" y="178.06256"/>
     <use x="187.216583" xlink:href="#m5b9d20e663" y="173.822307"/>
     <use x="196.809029" xlink:href="#m5b9d20e663" y="179.746527"/>
     <use x="206.401476" xlink:href="#m5b9d20e663" y="184.558764"/>
     <use x="215.993923" xlink:href="#m5b9d20e663" y="194.850147"/>
     <use x="225.58637" xlink:href="#m5b9d20e663" y="211.136718"/>
     <use x="235.178817" xlink:href="#m5b9d20e663" y="216.153487"/>
     <use x="244.771264" xlink:href="#m5b9d20e663" y="216.069722"/>
     <use x="254.363711" xlink:href="#m5b9d20e663" y="206.360071"/>
     <use x="263.956158" xlink:href="#m5b9d20e663" y="197.760371"/>
     <use x="273.548604" xlink:href="#m5b9d20e663" y="190.581419"/>
     <use x="283.141051" xlink:href="#m5b9d20e663" y="193.077349"/>
     <use x="292.733498" xlink:href="#m5b9d20e663" y="199.903539"/>
     <use x="302.325945" xlink:href="#m5b9d20e663" y="211.997945"/>
     <use x="311.918392" xlink:href="#m5b9d20e663" y="222.287912"/>
     <use x="321.510839" xlink:href="#m5b9d20e663" y="230.554168"/>
     <use x="331.103286" xlink:href="#m5b9d20e663" y="236.808684"/>
     <use x="340.695733" xlink:href="#m5b9d20e663" y="239.718644"/>
     <use x="350.288179" xlink:href="#m5b9d20e663" y="230.3778"/>
     <use x="359.880626" xlink:href="#m5b9d20e663" y="219.889901"/>
     <use x="369.473073" xlink:href="#m5b9d20e663" y="214.962185"/>
     <use x="379.06552" xlink:href="#m5b9d20e663" y="218.183644"/>
     <use x="388.657967" xlink:href="#m5b9d20e663" y="222.420914"/>
     <use x="398.250414" xlink:href="#m5b9d20e663" y="229.303421"/>
     <use x="407.842861" xlink:href="#m5b9d20e663" y="238.069629"/>
     <use x="417.435307" xlink:href="#m5b9d20e663" y="245.817226"/>
     <use x="427.027754" xlink:href="#m5b9d20e663" y="246.323437"/>
     <use x="436.620201" xlink:href="#m5b9d20e663" y="237.305677"/>
     <use x="446.212648" xlink:href="#m5b9d20e663" y="226.735128"/>
     <use x="455.805095" xlink:href="#m5b9d20e663" y="215.130607"/>
     <use x="465.397542" xlink:href="#m5b9d20e663" y="206.229347"/>
     <use x="474.989989" xlink:href="#m5b9d20e663" y="207.363592"/>
     <use x="484.582436" xlink:href="#m5b9d20e663" y="206.37373"/>
     <use x="494.174882" xlink:href="#m5b9d20e663" y="216.195361"/>
     <use x="503.767329" xlink:href="#m5b9d20e663" y="223.235573"/>
     <use x="513.359776" xlink:href="#m5b9d20e663" y="230.412426"/>
     <use x="522.952223" xlink:href="#m5b9d20e663" y="231.658415"/>
     <use x="532.54467" xlink:href="#m5b9d20e663" y="217.389413"/>
     <use x="542.137117" xlink:href="#m5b9d20e663" y="208.149115"/>
     <use x="551.729564" xlink:href="#m5b9d20e663" y="195.092021"/>
     <use x="561.322011" xlink:href="#m5b9d20e663" y="186.261736"/>
     <use x="570.914457" xlink:href="#m5b9d20e663" y="185.513941"/>
    </g>
   </g>
   <g id="line2d_67">
    <path clip-path="url(#paf6d987272)" d="M 100.884561 238.543287 
L 110.477008 221.241281 
L 120.069454 214.441232 
L 129.661901 215.732365 
L 139.254348 219.026698 
L 148.846795 218.367635 
L 158.439242 210.804104 
L 168.031689 198.117062 
L 177.624136 185.377465 
L 187.216583 177.393968 
L 196.809029 176.414541 
L 206.401476 182.247691 
L 215.993923 193.000991 
L 225.58637 205.216537 
L 235.178817 214.260541 
L 244.771264 216.128296 
L 254.363711 210.175828 
L 263.956158 200.362155 
L 273.548604 192.907319 
L 283.141051 192.029856 
L 292.733498 197.971854 
L 302.325945 208.39855 
L 311.918392 220.437462 
L 321.510839 231.223965 
L 331.103286 237.724425 
L 340.695733 237.520012 
L 350.288179 230.788024 
L 359.880626 221.396317 
L 369.473073 214.901125 
L 379.06552 214.79102 
L 388.657967 220.770545 
L 398.250414 230.124324 
L 407.842861 239.711219 
L 417.435307 246.626997 
L 427.027754 248.077693 
L 436.620201 242.15425 
L 446.212648 229.898774 
L 455.805095 216.312383 
L 465.397542 207.774676 
L 474.989989 207.570753 
L 484.582436 214.051812 
L 494.174882 222.640045 
L 503.767329 228.886055 
L 513.359776 229.998353 
L 522.952223 224.83347 
L 532.54467 213.895877 
L 542.137117 200.045295 
L 551.729564 188.401916 
L 561.322011 183.815682 
L 570.914457 187.520274 
" style="fill:none;stroke:#ff0000;"/>
   </g>
   <g id="patch_13">
    <path d="M 86.783664 250.305354 
L 86.783664 171.594646 
" style="fill:none;stroke:#000000;stroke-linecap:square;stroke-linejoin:miter;"/>
   </g>
   <g id="patch_14">
    <path d="M 585.015354 250.305354 
L 585.015354 171.594646 
" style="fill:none;stroke:#000000;stroke-linecap:square;stroke-linejoin:miter;"/>
   </g>
   <g id="patch_15">
    <path d="M 86.783664 250.305354 
L 585.015354 250.305354 
" style="fill:none;stroke:#000000;stroke-linecap:square;stroke-linejoin:miter;"/>
   </g>
   <g id="patch_16">
    <path d="M 86.783664 171.594646 
L 585.015354 171.594646 
" style="fill:none;stroke:#000000;stroke-linecap:square;stroke-linejoin:miter;"/>
   </g>
  </g>
 </g>
 <defs>
  <clipPath id="p2f383f52ab">
   <rect height="78.710709" width="498.23169" x="86.783664" y="2.834646"/>
  </clipPath>
  <clipPath id="p6fd6a05117">
   <rect height="78.710709" width="498.23169" x="86.783664" y="87.214646"/>
  </clipPath>
  <clipPath id="paf6d987272">
   <rect height="78.710709" width="498.23169" x="86.783664" y="171.594646"/>
  </clipPath>
 </defs>
</svg>
