<?xml version="1.0" encoding="utf-8" standalone="no"?>
<!DOCTYPE svg PUBLIC "-//W3C//DTD SVG 1.1//EN"
  "http://www.w3.org/Graphics/SVG/1.1/DTD/svg11.dtd">
<!-- Created with matplotlib (https://matplotlib.org/) -->
<svg height="288pt" version="1.1" viewBox="0 0 648 288" width="648pt" xmlns="http://www.w3.org/2000/svg" xmlns:xlink="http://www.w3.org/1999/xlink">
 <metadata>
  <rdf:RDF xmlns:cc="http://creativecommons.org/ns#" xmlns:dc="http://purl.org/dc/elements/1.1/" xmlns:rdf="http://www.w3.org/1999/02/22-rdf-syntax-ns#">
   <cc:Work>
    <dc:type rdf:resource="http://purl.org/dc/dcmitype/StillImage"/>
    <dc:date>2021-04-26T15:10:15.019309</dc:date>
    <dc:format>image/svg+xml</dc:format>
    <dc:creator>
     <cc:Agent>
      <dc:title>Matplotlib v3.3.2, https://matplotlib.org/</dc:title>
     </cc:Agent>
    </dc:creator>
   </cc:Work>
  </rdf:RDF>
 </metadata>
 <defs>
  <style type="text/css">*{stroke-linecap:butt;stroke-linejoin:round;}</style>
 </defs>
 <g id="figure_1">
  <g id="patch_1">
   <path d="M 0 288 
L 648 288 
L 648 0 
L 0 0 
z
" style="fill:#ffffff;"/>
  </g>
  <g id="axes_1">
   <g id="patch_2">
    <path d="M 86.783664 81.545354 
L 645.165354 81.545354 
L 645.165354 2.834646 
L 86.783664 2.834646 
z
" style="fill:#ffffff;"/>
   </g>
   <g id="matplotlib.axis_1">
    <g id="xtick_1"/>
    <g id="xtick_2"/>
    <g id="xtick_3"/>
    <g id="xtick_4"/>
    <g id="xtick_5"/>
    <g id="xtick_6"/>
   </g>
   <g id="matplotlib.axis_2">
    <g id="ytick_1">
     <g id="line2d_1">
      <path clip-path="url(#p1e677f8a97)" d="M 86.783664 78.52351 
L 645.165354 78.52351 
" style="fill:none;stroke:#000000;stroke-linecap:square;stroke-opacity:0.1;stroke-width:0.5;"/>
     </g>
     <g id="line2d_2">
      <defs>
       <path d="M 0 0 
L 2.5 0 
" id="m3dcac10d54" style="stroke:#000000;stroke-width:0.5;"/>
      </defs>
      <g>
       <use style="stroke:#000000;stroke-width:0.5;" x="86.783664" xlink:href="#m3dcac10d54" y="78.52351"/>
      </g>
     </g>
     <g id="line2d_3">
      <defs>
       <path d="M 0 0 
L -2.5 0 
" id="mde1dcc2619" style="stroke:#000000;stroke-width:0.5;"/>
      </defs>
      <g>
       <use style="stroke:#000000;stroke-width:0.5;" x="645.165354" xlink:href="#mde1dcc2619" y="78.52351"/>
      </g>
     </g>
     <g id="text_1">
      <!-- $\mathregular{0}$ -->
      <g transform="translate(75.603664 83.082573)scale(0.12 -0.12)">
       <defs>
        <path d="M 31.78125 66.40625 
Q 24.171875 66.40625 20.328125 58.90625 
Q 16.5 51.421875 16.5 36.375 
Q 16.5 21.390625 20.328125 13.890625 
Q 24.171875 6.390625 31.78125 6.390625 
Q 39.453125 6.390625 43.28125 13.890625 
Q 47.125 21.390625 47.125 36.375 
Q 47.125 51.421875 43.28125 58.90625 
Q 39.453125 66.40625 31.78125 66.40625 
z
M 31.78125 74.21875 
Q 44.046875 74.21875 50.515625 64.515625 
Q 56.984375 54.828125 56.984375 36.375 
Q 56.984375 17.96875 50.515625 8.265625 
Q 44.046875 -1.421875 31.78125 -1.421875 
Q 19.53125 -1.421875 13.0625 8.265625 
Q 6.59375 17.96875 6.59375 36.375 
Q 6.59375 54.828125 13.0625 64.515625 
Q 19.53125 74.21875 31.78125 74.21875 
z
" id="DejaVuSans-48"/>
       </defs>
       <use transform="translate(0 0.78125)" xlink:href="#DejaVuSans-48"/>
      </g>
     </g>
    </g>
    <g id="ytick_2">
     <g id="line2d_4">
      <path clip-path="url(#p1e677f8a97)" d="M 86.783664 63.108012 
L 645.165354 63.108012 
" style="fill:none;stroke:#000000;stroke-linecap:square;stroke-opacity:0.1;stroke-width:0.5;"/>
     </g>
     <g id="line2d_5">
      <g>
       <use style="stroke:#000000;stroke-width:0.5;" x="86.783664" xlink:href="#m3dcac10d54" y="63.108012"/>
      </g>
     </g>
     <g id="line2d_6">
      <g>
       <use style="stroke:#000000;stroke-width:0.5;" x="645.165354" xlink:href="#mde1dcc2619" y="63.108012"/>
      </g>
     </g>
     <g id="text_2">
      <!-- $\mathregular{5.0×10^{-7}}$ -->
      <g transform="translate(26.043664 67.667074)scale(0.12 -0.12)">
       <defs>
        <path d="M 10.796875 72.90625 
L 49.515625 72.90625 
L 49.515625 64.59375 
L 19.828125 64.59375 
L 19.828125 46.734375 
Q 21.96875 47.46875 24.109375 47.828125 
Q 26.265625 48.1875 28.421875 48.1875 
Q 40.625 48.1875 47.75 41.5 
Q 54.890625 34.8125 54.890625 23.390625 
Q 54.890625 11.625 47.5625 5.09375 
Q 40.234375 -1.421875 26.90625 -1.421875 
Q 22.3125 -1.421875 17.546875 -0.640625 
Q 12.796875 0.140625 7.71875 1.703125 
L 7.71875 11.625 
Q 12.109375 9.234375 16.796875 8.0625 
Q 21.484375 6.890625 26.703125 6.890625 
Q 35.15625 6.890625 40.078125 11.328125 
Q 45.015625 15.765625 45.015625 23.390625 
Q 45.015625 31 40.078125 35.4375 
Q 35.15625 39.890625 26.703125 39.890625 
Q 22.75 39.890625 18.8125 39.015625 
Q 14.890625 38.140625 10.796875 36.28125 
z
" id="DejaVuSans-53"/>
        <path d="M 10.6875 12.40625 
L 21 12.40625 
L 21 0 
L 10.6875 0 
z
" id="DejaVuSans-46"/>
        <path d="M 70.125 53.71875 
L 47.796875 31.296875 
L 70.125 8.984375 
L 64.3125 3.078125 
L 41.890625 25.484375 
L 19.484375 3.078125 
L 13.71875 8.984375 
L 35.984375 31.296875 
L 13.71875 53.71875 
L 19.484375 59.625 
L 41.890625 37.203125 
L 64.3125 59.625 
z
" id="DejaVuSans-215"/>
        <path d="M 12.40625 8.296875 
L 28.515625 8.296875 
L 28.515625 63.921875 
L 10.984375 60.40625 
L 10.984375 69.390625 
L 28.421875 72.90625 
L 38.28125 72.90625 
L 38.28125 8.296875 
L 54.390625 8.296875 
L 54.390625 0 
L 12.40625 0 
z
" id="DejaVuSans-49"/>
        <path d="M 10.59375 35.5 
L 73.1875 35.5 
L 73.1875 27.203125 
L 10.59375 27.203125 
z
" id="DejaVuSans-8722"/>
        <path d="M 8.203125 72.90625 
L 55.078125 72.90625 
L 55.078125 68.703125 
L 28.609375 0 
L 18.3125 0 
L 43.21875 64.59375 
L 8.203125 64.59375 
z
" id="DejaVuSans-55"/>
       </defs>
       <use transform="translate(0 0.684375)" xlink:href="#DejaVuSans-53"/>
       <use transform="translate(63.623047 0.684375)" xlink:href="#DejaVuSans-46"/>
       <use transform="translate(95.410156 0.684375)" xlink:href="#DejaVuSans-48"/>
       <use transform="translate(159.033203 0.684375)" xlink:href="#DejaVuSans-215"/>
       <use transform="translate(242.822266 0.684375)" xlink:href="#DejaVuSans-49"/>
       <use transform="translate(306.445312 0.684375)" xlink:href="#DejaVuSans-48"/>
       <use transform="translate(371.025391 38.965625)scale(0.7)" xlink:href="#DejaVuSans-8722"/>
       <use transform="translate(429.677734 38.965625)scale(0.7)" xlink:href="#DejaVuSans-55"/>
      </g>
     </g>
    </g>
    <g id="ytick_3">
     <g id="line2d_7">
      <path clip-path="url(#p1e677f8a97)" d="M 86.783664 47.692513 
L 645.165354 47.692513 
" style="fill:none;stroke:#000000;stroke-linecap:square;stroke-opacity:0.1;stroke-width:0.5;"/>
     </g>
     <g id="line2d_8">
      <g>
       <use style="stroke:#000000;stroke-width:0.5;" x="86.783664" xlink:href="#m3dcac10d54" y="47.692513"/>
      </g>
     </g>
     <g id="line2d_9">
      <g>
       <use style="stroke:#000000;stroke-width:0.5;" x="645.165354" xlink:href="#mde1dcc2619" y="47.692513"/>
      </g>
     </g>
     <g id="text_3">
      <!-- $\mathregular{1.0×10^{-6}}$ -->
      <g transform="translate(26.043664 52.251576)scale(0.12 -0.12)">
       <defs>
        <path d="M 33.015625 40.375 
Q 26.375 40.375 22.484375 35.828125 
Q 18.609375 31.296875 18.609375 23.390625 
Q 18.609375 15.53125 22.484375 10.953125 
Q 26.375 6.390625 33.015625 6.390625 
Q 39.65625 6.390625 43.53125 10.953125 
Q 47.40625 15.53125 47.40625 23.390625 
Q 47.40625 31.296875 43.53125 35.828125 
Q 39.65625 40.375 33.015625 40.375 
z
M 52.59375 71.296875 
L 52.59375 62.3125 
Q 48.875 64.0625 45.09375 64.984375 
Q 41.3125 65.921875 37.59375 65.921875 
Q 27.828125 65.921875 22.671875 59.328125 
Q 17.53125 52.734375 16.796875 39.40625 
Q 19.671875 43.65625 24.015625 45.921875 
Q 28.375 48.1875 33.59375 48.1875 
Q 44.578125 48.1875 50.953125 41.515625 
Q 57.328125 34.859375 57.328125 23.390625 
Q 57.328125 12.15625 50.6875 5.359375 
Q 44.046875 -1.421875 33.015625 -1.421875 
Q 20.359375 -1.421875 13.671875 8.265625 
Q 6.984375 17.96875 6.984375 36.375 
Q 6.984375 53.65625 15.1875 63.9375 
Q 23.390625 74.21875 37.203125 74.21875 
Q 40.921875 74.21875 44.703125 73.484375 
Q 48.484375 72.75 52.59375 71.296875 
z
" id="DejaVuSans-54"/>
       </defs>
       <use transform="translate(0 0.765625)" xlink:href="#DejaVuSans-49"/>
       <use transform="translate(63.623047 0.765625)" xlink:href="#DejaVuSans-46"/>
       <use transform="translate(95.410156 0.765625)" xlink:href="#DejaVuSans-48"/>
       <use transform="translate(159.033203 0.765625)" xlink:href="#DejaVuSans-215"/>
       <use transform="translate(242.822266 0.765625)" xlink:href="#DejaVuSans-49"/>
       <use transform="translate(306.445312 0.765625)" xlink:href="#DejaVuSans-48"/>
       <use transform="translate(371.025391 39.046875)scale(0.7)" xlink:href="#DejaVuSans-8722"/>
       <use transform="translate(429.677734 39.046875)scale(0.7)" xlink:href="#DejaVuSans-54"/>
      </g>
     </g>
    </g>
    <g id="ytick_4">
     <g id="line2d_10">
      <path clip-path="url(#p1e677f8a97)" d="M 86.783664 32.277015 
L 645.165354 32.277015 
" style="fill:none;stroke:#000000;stroke-linecap:square;stroke-opacity:0.1;stroke-width:0.5;"/>
     </g>
     <g id="line2d_11">
      <g>
       <use style="stroke:#000000;stroke-width:0.5;" x="86.783664" xlink:href="#m3dcac10d54" y="32.277015"/>
      </g>
     </g>
     <g id="line2d_12">
      <g>
       <use style="stroke:#000000;stroke-width:0.5;" x="645.165354" xlink:href="#mde1dcc2619" y="32.277015"/>
      </g>
     </g>
     <g id="text_4">
      <!-- $\mathregular{1.5×10^{-6}}$ -->
      <g transform="translate(26.043664 36.836077)scale(0.12 -0.12)">
       <use transform="translate(0 0.765625)" xlink:href="#DejaVuSans-49"/>
       <use transform="translate(63.623047 0.765625)" xlink:href="#DejaVuSans-46"/>
       <use transform="translate(95.410156 0.765625)" xlink:href="#DejaVuSans-53"/>
       <use transform="translate(159.033203 0.765625)" xlink:href="#DejaVuSans-215"/>
       <use transform="translate(242.822266 0.765625)" xlink:href="#DejaVuSans-49"/>
       <use transform="translate(306.445312 0.765625)" xlink:href="#DejaVuSans-48"/>
       <use transform="translate(371.025391 39.046875)scale(0.7)" xlink:href="#DejaVuSans-8722"/>
       <use transform="translate(429.677734 39.046875)scale(0.7)" xlink:href="#DejaVuSans-54"/>
      </g>
     </g>
    </g>
    <g id="ytick_5">
     <g id="line2d_13">
      <path clip-path="url(#p1e677f8a97)" d="M 86.783664 16.861516 
L 645.165354 16.861516 
" style="fill:none;stroke:#000000;stroke-linecap:square;stroke-opacity:0.1;stroke-width:0.5;"/>
     </g>
     <g id="line2d_14">
      <g>
       <use style="stroke:#000000;stroke-width:0.5;" x="86.783664" xlink:href="#m3dcac10d54" y="16.861516"/>
      </g>
     </g>
     <g id="line2d_15">
      <g>
       <use style="stroke:#000000;stroke-width:0.5;" x="645.165354" xlink:href="#mde1dcc2619" y="16.861516"/>
      </g>
     </g>
     <g id="text_5">
      <!-- $\mathregular{2.0×10^{-6}}$ -->
      <g transform="translate(26.043664 21.420579)scale(0.12 -0.12)">
       <defs>
        <path d="M 19.1875 8.296875 
L 53.609375 8.296875 
L 53.609375 0 
L 7.328125 0 
L 7.328125 8.296875 
Q 12.9375 14.109375 22.625 23.890625 
Q 32.328125 33.6875 34.8125 36.53125 
Q 39.546875 41.84375 41.421875 45.53125 
Q 43.3125 49.21875 43.3125 52.78125 
Q 43.3125 58.59375 39.234375 62.25 
Q 35.15625 65.921875 28.609375 65.921875 
Q 23.96875 65.921875 18.8125 64.3125 
Q 13.671875 62.703125 7.8125 59.421875 
L 7.8125 69.390625 
Q 13.765625 71.78125 18.9375 73 
Q 24.125 74.21875 28.421875 74.21875 
Q 39.75 74.21875 46.484375 68.546875 
Q 53.21875 62.890625 53.21875 53.421875 
Q 53.21875 48.921875 51.53125 44.890625 
Q 49.859375 40.875 45.40625 35.40625 
Q 44.1875 33.984375 37.640625 27.21875 
Q 31.109375 20.453125 19.1875 8.296875 
z
" id="DejaVuSans-50"/>
       </defs>
       <use transform="translate(0 0.765625)" xlink:href="#DejaVuSans-50"/>
       <use transform="translate(63.623047 0.765625)" xlink:href="#DejaVuSans-46"/>
       <use transform="translate(95.410156 0.765625)" xlink:href="#DejaVuSans-48"/>
       <use transform="translate(159.033203 0.765625)" xlink:href="#DejaVuSans-215"/>
       <use transform="translate(242.822266 0.765625)" xlink:href="#DejaVuSans-49"/>
       <use transform="translate(306.445312 0.765625)" xlink:href="#DejaVuSans-48"/>
       <use transform="translate(371.025391 39.046875)scale(0.7)" xlink:href="#DejaVuSans-8722"/>
       <use transform="translate(429.677734 39.046875)scale(0.7)" xlink:href="#DejaVuSans-54"/>
      </g>
     </g>
    </g>
    <g id="text_6">
     <!-- $Y_{CH_4}$ -->
     <g transform="translate(17.563664 58.11)rotate(-90)scale(0.16 -0.16)">
      <defs>
       <path d="M 6.296875 72.90625 
L 16.890625 72.90625 
L 30.515625 42.921875 
L 56.5 72.90625 
L 67.578125 72.90625 
L 34.515625 34.71875 
L 27.78125 0 
L 17.921875 0 
L 24.609375 34.71875 
z
" id="DejaVuSans-Oblique-89"/>
       <path d="M 69.484375 67.28125 
L 67.484375 56.890625 
Q 62.796875 61.625 57.546875 63.921875 
Q 52.296875 66.21875 46.1875 66.21875 
Q 37.84375 66.21875 31.515625 62.203125 
Q 25.203125 58.203125 20.609375 50 
Q 17.671875 44.734375 16.125 38.84375 
Q 14.59375 32.953125 14.59375 27 
Q 14.59375 17.046875 19.75 11.8125 
Q 24.90625 6.59375 34.71875 6.59375 
Q 41.5 6.59375 47.75 8.765625 
Q 54 10.9375 59.90625 15.28125 
L 57.625 3.609375 
Q 51.8125 1.125 45.875 -0.140625 
Q 39.9375 -1.421875 33.984375 -1.421875 
Q 19.96875 -1.421875 12.078125 6.1875 
Q 4.203125 13.8125 4.203125 27.390625 
Q 4.203125 36.078125 7.203125 44.46875 
Q 10.203125 52.875 15.828125 59.8125 
Q 21.78125 67.1875 29.421875 70.703125 
Q 37.0625 74.21875 47.21875 74.21875 
Q 53.46875 74.21875 59.0625 72.484375 
Q 64.65625 70.75 69.484375 67.28125 
z
" id="DejaVuSans-Oblique-67"/>
       <path d="M 16.890625 72.90625 
L 26.8125 72.90625 
L 21 43.015625 
L 56.78125 43.015625 
L 62.59375 72.90625 
L 72.515625 72.90625 
L 58.296875 0 
L 48.390625 0 
L 55.171875 34.71875 
L 19.390625 34.71875 
L 12.59375 0 
L 2.6875 0 
z
" id="DejaVuSans-Oblique-72"/>
       <path d="M 37.796875 64.3125 
L 12.890625 25.390625 
L 37.796875 25.390625 
z
M 35.203125 72.90625 
L 47.609375 72.90625 
L 47.609375 25.390625 
L 58.015625 25.390625 
L 58.015625 17.1875 
L 47.609375 17.1875 
L 47.609375 0 
L 37.796875 0 
L 37.796875 17.1875 
L 4.890625 17.1875 
L 4.890625 26.703125 
z
" id="DejaVuSans-52"/>
      </defs>
      <use transform="translate(0 0.09375)" xlink:href="#DejaVuSans-Oblique-89"/>
      <use transform="translate(61.083984 -16.3125)scale(0.7)" xlink:href="#DejaVuSans-Oblique-67"/>
      <use transform="translate(109.960938 -16.3125)scale(0.7)" xlink:href="#DejaVuSans-Oblique-72"/>
      <use transform="translate(162.597656 -27.796875)scale(0.49)" xlink:href="#DejaVuSans-52"/>
     </g>
    </g>
   </g>
   <g id="PathCollection_1">
    <defs>
     <path d="M 0 2 
C 0.530406 2 1.03916 1.789267 1.414214 1.414214 
C 1.789267 1.03916 2 0.530406 2 0 
C 2 -0.530406 1.789267 -1.03916 1.414214 -1.414214 
C 1.03916 -1.789267 0.530406 -2 0 -2 
C -0.530406 -2 -1.03916 -1.789267 -1.414214 -1.414214 
C -1.789267 -1.03916 -2 -0.530406 -2 0 
C -2 0.530406 -1.789267 1.03916 -1.414214 1.414214 
C -1.03916 1.789267 -0.530406 2 0 2 
z
" id="m7fae87cafe"/>
    </defs>
    <g clip-path="url(#p1e677f8a97)">
     <use x="102.586919" xlink:href="#m7fae87cafe" y="79.317693"/>
     <use x="113.337433" xlink:href="#m7fae87cafe" y="10.066909"/>
     <use x="124.087947" xlink:href="#m7fae87cafe" y="12.313363"/>
     <use x="134.838461" xlink:href="#m7fae87cafe" y="13.997303"/>
     <use x="145.588975" xlink:href="#m7fae87cafe" y="7.881458"/>
     <use x="156.339489" xlink:href="#m7fae87cafe" y="5.128809"/>
     <use x="167.090002" xlink:href="#m7fae87cafe" y="5.062307"/>
     <use x="177.840516" xlink:href="#m7fae87cafe" y="13.765263"/>
     <use x="188.59103" xlink:href="#m7fae87cafe" y="6.830994"/>
     <use x="199.341544" xlink:href="#m7fae87cafe" y="16.72869"/>
     <use x="210.092058" xlink:href="#m7fae87cafe" y="10.167153"/>
     <use x="220.842572" xlink:href="#m7fae87cafe" y="16.680248"/>
     <use x="231.593086" xlink:href="#m7fae87cafe" y="11.826872"/>
     <use x="242.3436" xlink:href="#m7fae87cafe" y="21.079313"/>
     <use x="253.094113" xlink:href="#m7fae87cafe" y="19.386158"/>
     <use x="263.844627" xlink:href="#m7fae87cafe" y="19.892961"/>
     <use x="274.595141" xlink:href="#m7fae87cafe" y="25.620535"/>
     <use x="285.345655" xlink:href="#m7fae87cafe" y="24.586239"/>
     <use x="296.096169" xlink:href="#m7fae87cafe" y="31.317069"/>
     <use x="306.846683" xlink:href="#m7fae87cafe" y="33.988378"/>
     <use x="317.597197" xlink:href="#m7fae87cafe" y="35.293994"/>
     <use x="328.347711" xlink:href="#m7fae87cafe" y="34.104303"/>
     <use x="339.098224" xlink:href="#m7fae87cafe" y="44.501729"/>
     <use x="349.848738" xlink:href="#m7fae87cafe" y="39.888964"/>
     <use x="360.599252" xlink:href="#m7fae87cafe" y="45.941883"/>
     <use x="371.349766" xlink:href="#m7fae87cafe" y="52.110267"/>
     <use x="382.10028" xlink:href="#m7fae87cafe" y="56.750472"/>
     <use x="392.850794" xlink:href="#m7fae87cafe" y="57.117908"/>
     <use x="403.601308" xlink:href="#m7fae87cafe" y="48.633228"/>
     <use x="414.351822" xlink:href="#m7fae87cafe" y="55.529656"/>
     <use x="425.102335" xlink:href="#m7fae87cafe" y="47.041761"/>
     <use x="435.852849" xlink:href="#m7fae87cafe" y="45.819844"/>
     <use x="446.603363" xlink:href="#m7fae87cafe" y="57.523447"/>
     <use x="457.353877" xlink:href="#m7fae87cafe" y="53.401729"/>
     <use x="468.104391" xlink:href="#m7fae87cafe" y="51.042823"/>
     <use x="478.854905" xlink:href="#m7fae87cafe" y="47.567733"/>
     <use x="489.605419" xlink:href="#m7fae87cafe" y="40.274201"/>
     <use x="500.355932" xlink:href="#m7fae87cafe" y="46.339932"/>
     <use x="511.106446" xlink:href="#m7fae87cafe" y="50.702752"/>
     <use x="521.85696" xlink:href="#m7fae87cafe" y="39.240154"/>
     <use x="532.607474" xlink:href="#m7fae87cafe" y="37.786384"/>
     <use x="543.357988" xlink:href="#m7fae87cafe" y="40.809562"/>
     <use x="554.108502" xlink:href="#m7fae87cafe" y="30.520213"/>
     <use x="564.859016" xlink:href="#m7fae87cafe" y="22.793896"/>
     <use x="575.60953" xlink:href="#m7fae87cafe" y="24.354232"/>
     <use x="586.360043" xlink:href="#m7fae87cafe" y="21.430277"/>
     <use x="597.110557" xlink:href="#m7fae87cafe" y="17.521973"/>
     <use x="607.861071" xlink:href="#m7fae87cafe" y="17.49396"/>
     <use x="618.611585" xlink:href="#m7fae87cafe" y="21.249449"/>
     <use x="629.362099" xlink:href="#m7fae87cafe" y="14.22389"/>
    </g>
   </g>
   <g id="line2d_16">
    <path clip-path="url(#p1e677f8a97)" d="M 102.586919 78.52351 
L 113.337433 9.304357 
L 124.087947 8.515928 
L 134.838461 7.423775 
L 145.588975 6.636328 
L 156.339489 6.756316 
L 167.090002 8.094816 
L 177.840516 10.47159 
L 188.59103 13.291575 
L 199.341544 15.831806 
L 210.092058 17.519387 
L 220.842572 18.079224 
L 231.593086 17.589356 
L 242.3436 16.499157 
L 253.094113 15.577739 
L 263.844627 15.699119 
L 274.595141 17.475363 
L 285.345655 20.963724 
L 296.096169 25.691946 
L 306.846683 30.9563 
L 317.597197 36.12907 
L 328.347711 40.799521 
L 339.098224 44.768338 
L 349.848738 47.985655 
L 360.599252 50.494873 
L 371.349766 52.392058 
L 382.10028 53.787676 
L 392.850794 54.760637 
L 403.601308 55.324614 
L 414.351822 55.42927 
L 425.102335 54.995954 
L 435.852849 53.971177 
L 446.603363 52.387733 
L 457.353877 50.419175 
L 468.104391 48.384461 
L 478.854905 46.64914 
L 489.605419 45.438581 
L 500.355932 44.690849 
L 511.106446 44.068361 
L 521.85696 43.099132 
L 532.607474 41.334703 
L 543.357988 38.468192 
L 554.108502 34.435723 
L 564.859016 29.511876 
L 575.60953 24.328534 
L 586.360043 19.694812 
L 597.110557 16.232765 
L 607.861071 14.073347 
L 618.611585 12.857287 
L 629.362099 11.997109 
" style="fill:none;stroke:#ff0000;"/>
   </g>
   <g id="patch_3">
    <path d="M 86.783664 81.545354 
L 86.783664 2.834646 
" style="fill:none;stroke:#000000;stroke-linecap:square;stroke-linejoin:miter;"/>
   </g>
   <g id="patch_4">
    <path d="M 645.165354 81.545354 
L 645.165354 2.834646 
" style="fill:none;stroke:#000000;stroke-linecap:square;stroke-linejoin:miter;"/>
   </g>
   <g id="patch_5">
    <path d="M 86.783664 81.545354 
L 645.165354 81.545354 
" style="fill:none;stroke:#000000;stroke-linecap:square;stroke-linejoin:miter;"/>
   </g>
   <g id="patch_6">
    <path d="M 86.783664 2.834646 
L 645.165354 2.834646 
" style="fill:none;stroke:#000000;stroke-linecap:square;stroke-linejoin:miter;"/>
   </g>
  </g>
  <g id="axes_2">
   <g id="patch_7">
    <path d="M 86.783664 165.925354 
L 645.165354 165.925354 
L 645.165354 87.214646 
L 86.783664 87.214646 
z
" style="fill:#ffffff;"/>
   </g>
   <g id="matplotlib.axis_3">
    <g id="xtick_7"/>
    <g id="xtick_8"/>
    <g id="xtick_9"/>
    <g id="xtick_10"/>
    <g id="xtick_11"/>
    <g id="xtick_12"/>
   </g>
   <g id="matplotlib.axis_4">
    <g id="ytick_6">
     <g id="line2d_17">
      <path clip-path="url(#p1a696f419f)" d="M 86.783664 156.473253 
L 645.165354 156.473253 
" style="fill:none;stroke:#000000;stroke-linecap:square;stroke-opacity:0.1;stroke-width:0.5;"/>
     </g>
     <g id="line2d_18">
      <g>
       <use style="stroke:#000000;stroke-width:0.5;" x="86.783664" xlink:href="#m3dcac10d54" y="156.473253"/>
      </g>
     </g>
     <g id="line2d_19">
      <g>
       <use style="stroke:#000000;stroke-width:0.5;" x="645.165354" xlink:href="#mde1dcc2619" y="156.473253"/>
      </g>
     </g>
     <g id="text_7">
      <!-- $\mathregular{0.0027}$ -->
      <g transform="translate(41.283664 161.032316)scale(0.12 -0.12)">
       <use transform="translate(0 0.78125)" xlink:href="#DejaVuSans-48"/>
       <use transform="translate(63.623047 0.78125)" xlink:href="#DejaVuSans-46"/>
       <use transform="translate(95.410156 0.78125)" xlink:href="#DejaVuSans-48"/>
       <use transform="translate(159.033203 0.78125)" xlink:href="#DejaVuSans-48"/>
       <use transform="translate(222.65625 0.78125)" xlink:href="#DejaVuSans-50"/>
       <use transform="translate(286.279297 0.78125)" xlink:href="#DejaVuSans-55"/>
      </g>
     </g>
    </g>
    <g id="ytick_7">
     <g id="line2d_20">
      <path clip-path="url(#p1a696f419f)" d="M 86.783664 135.951942 
L 645.165354 135.951942 
" style="fill:none;stroke:#000000;stroke-linecap:square;stroke-opacity:0.1;stroke-width:0.5;"/>
     </g>
     <g id="line2d_21">
      <g>
       <use style="stroke:#000000;stroke-width:0.5;" x="86.783664" xlink:href="#m3dcac10d54" y="135.951942"/>
      </g>
     </g>
     <g id="line2d_22">
      <g>
       <use style="stroke:#000000;stroke-width:0.5;" x="645.165354" xlink:href="#mde1dcc2619" y="135.951942"/>
      </g>
     </g>
     <g id="text_8">
      <!-- $\mathregular{0.0028}$ -->
      <g transform="translate(41.283664 140.511005)scale(0.12 -0.12)">
       <defs>
        <path d="M 31.78125 34.625 
Q 24.75 34.625 20.71875 30.859375 
Q 16.703125 27.09375 16.703125 20.515625 
Q 16.703125 13.921875 20.71875 10.15625 
Q 24.75 6.390625 31.78125 6.390625 
Q 38.8125 6.390625 42.859375 10.171875 
Q 46.921875 13.96875 46.921875 20.515625 
Q 46.921875 27.09375 42.890625 30.859375 
Q 38.875 34.625 31.78125 34.625 
z
M 21.921875 38.8125 
Q 15.578125 40.375 12.03125 44.71875 
Q 8.5 49.078125 8.5 55.328125 
Q 8.5 64.0625 14.71875 69.140625 
Q 20.953125 74.21875 31.78125 74.21875 
Q 42.671875 74.21875 48.875 69.140625 
Q 55.078125 64.0625 55.078125 55.328125 
Q 55.078125 49.078125 51.53125 44.71875 
Q 48 40.375 41.703125 38.8125 
Q 48.828125 37.15625 52.796875 32.3125 
Q 56.78125 27.484375 56.78125 20.515625 
Q 56.78125 9.90625 50.3125 4.234375 
Q 43.84375 -1.421875 31.78125 -1.421875 
Q 19.734375 -1.421875 13.25 4.234375 
Q 6.78125 9.90625 6.78125 20.515625 
Q 6.78125 27.484375 10.78125 32.3125 
Q 14.796875 37.15625 21.921875 38.8125 
z
M 18.3125 54.390625 
Q 18.3125 48.734375 21.84375 45.5625 
Q 25.390625 42.390625 31.78125 42.390625 
Q 38.140625 42.390625 41.71875 45.5625 
Q 45.3125 48.734375 45.3125 54.390625 
Q 45.3125 60.0625 41.71875 63.234375 
Q 38.140625 66.40625 31.78125 66.40625 
Q 25.390625 66.40625 21.84375 63.234375 
Q 18.3125 60.0625 18.3125 54.390625 
z
" id="DejaVuSans-56"/>
       </defs>
       <use transform="translate(0 0.78125)" xlink:href="#DejaVuSans-48"/>
       <use transform="translate(63.623047 0.78125)" xlink:href="#DejaVuSans-46"/>
       <use transform="translate(95.410156 0.78125)" xlink:href="#DejaVuSans-48"/>
       <use transform="translate(159.033203 0.78125)" xlink:href="#DejaVuSans-48"/>
       <use transform="translate(222.65625 0.78125)" xlink:href="#DejaVuSans-50"/>
       <use transform="translate(286.279297 0.78125)" xlink:href="#DejaVuSans-56"/>
      </g>
     </g>
    </g>
    <g id="ytick_8">
     <g id="line2d_23">
      <path clip-path="url(#p1a696f419f)" d="M 86.783664 115.430631 
L 645.165354 115.430631 
" style="fill:none;stroke:#000000;stroke-linecap:square;stroke-opacity:0.1;stroke-width:0.5;"/>
     </g>
     <g id="line2d_24">
      <g>
       <use style="stroke:#000000;stroke-width:0.5;" x="86.783664" xlink:href="#m3dcac10d54" y="115.430631"/>
      </g>
     </g>
     <g id="line2d_25">
      <g>
       <use style="stroke:#000000;stroke-width:0.5;" x="645.165354" xlink:href="#mde1dcc2619" y="115.430631"/>
      </g>
     </g>
     <g id="text_9">
      <!-- $\mathregular{0.0029}$ -->
      <g transform="translate(41.403664 119.989694)scale(0.12 -0.12)">
       <defs>
        <path d="M 10.984375 1.515625 
L 10.984375 10.5 
Q 14.703125 8.734375 18.5 7.8125 
Q 22.3125 6.890625 25.984375 6.890625 
Q 35.75 6.890625 40.890625 13.453125 
Q 46.046875 20.015625 46.78125 33.40625 
Q 43.953125 29.203125 39.59375 26.953125 
Q 35.25 24.703125 29.984375 24.703125 
Q 19.046875 24.703125 12.671875 31.3125 
Q 6.296875 37.9375 6.296875 49.421875 
Q 6.296875 60.640625 12.9375 67.421875 
Q 19.578125 74.21875 30.609375 74.21875 
Q 43.265625 74.21875 49.921875 64.515625 
Q 56.59375 54.828125 56.59375 36.375 
Q 56.59375 19.140625 48.40625 8.859375 
Q 40.234375 -1.421875 26.421875 -1.421875 
Q 22.703125 -1.421875 18.890625 -0.6875 
Q 15.09375 0.046875 10.984375 1.515625 
z
M 30.609375 32.421875 
Q 37.25 32.421875 41.125 36.953125 
Q 45.015625 41.5 45.015625 49.421875 
Q 45.015625 57.28125 41.125 61.84375 
Q 37.25 66.40625 30.609375 66.40625 
Q 23.96875 66.40625 20.09375 61.84375 
Q 16.21875 57.28125 16.21875 49.421875 
Q 16.21875 41.5 20.09375 36.953125 
Q 23.96875 32.421875 30.609375 32.421875 
z
" id="DejaVuSans-57"/>
       </defs>
       <use transform="translate(0 0.78125)" xlink:href="#DejaVuSans-48"/>
       <use transform="translate(63.623047 0.78125)" xlink:href="#DejaVuSans-46"/>
       <use transform="translate(95.410156 0.78125)" xlink:href="#DejaVuSans-48"/>
       <use transform="translate(159.033203 0.78125)" xlink:href="#DejaVuSans-48"/>
       <use transform="translate(222.65625 0.78125)" xlink:href="#DejaVuSans-50"/>
       <use transform="translate(284.529297 0.78125)" xlink:href="#DejaVuSans-57"/>
      </g>
     </g>
    </g>
    <g id="ytick_9">
     <g id="line2d_26">
      <path clip-path="url(#p1a696f419f)" d="M 86.783664 94.909321 
L 645.165354 94.909321 
" style="fill:none;stroke:#000000;stroke-linecap:square;stroke-opacity:0.1;stroke-width:0.5;"/>
     </g>
     <g id="line2d_27">
      <g>
       <use style="stroke:#000000;stroke-width:0.5;" x="86.783664" xlink:href="#m3dcac10d54" y="94.909321"/>
      </g>
     </g>
     <g id="line2d_28">
      <g>
       <use style="stroke:#000000;stroke-width:0.5;" x="645.165354" xlink:href="#mde1dcc2619" y="94.909321"/>
      </g>
     </g>
     <g id="text_10">
      <!-- $\mathregular{0.0030}$ -->
      <g transform="translate(41.283664 99.468383)scale(0.12 -0.12)">
       <defs>
        <path d="M 40.578125 39.3125 
Q 47.65625 37.796875 51.625 33 
Q 55.609375 28.21875 55.609375 21.1875 
Q 55.609375 10.40625 48.1875 4.484375 
Q 40.765625 -1.421875 27.09375 -1.421875 
Q 22.515625 -1.421875 17.65625 -0.515625 
Q 12.796875 0.390625 7.625 2.203125 
L 7.625 11.71875 
Q 11.71875 9.328125 16.59375 8.109375 
Q 21.484375 6.890625 26.8125 6.890625 
Q 36.078125 6.890625 40.9375 10.546875 
Q 45.796875 14.203125 45.796875 21.1875 
Q 45.796875 27.640625 41.28125 31.265625 
Q 36.765625 34.90625 28.71875 34.90625 
L 20.21875 34.90625 
L 20.21875 43.015625 
L 29.109375 43.015625 
Q 36.375 43.015625 40.234375 45.921875 
Q 44.09375 48.828125 44.09375 54.296875 
Q 44.09375 59.90625 40.109375 62.90625 
Q 36.140625 65.921875 28.71875 65.921875 
Q 24.65625 65.921875 20.015625 65.03125 
Q 15.375 64.15625 9.8125 62.3125 
L 9.8125 71.09375 
Q 15.4375 72.65625 20.34375 73.4375 
Q 25.25 74.21875 29.59375 74.21875 
Q 40.828125 74.21875 47.359375 69.109375 
Q 53.90625 64.015625 53.90625 55.328125 
Q 53.90625 49.265625 50.4375 45.09375 
Q 46.96875 40.921875 40.578125 39.3125 
z
" id="DejaVuSans-51"/>
       </defs>
       <use transform="translate(0 0.78125)" xlink:href="#DejaVuSans-48"/>
       <use transform="translate(63.623047 0.78125)" xlink:href="#DejaVuSans-46"/>
       <use transform="translate(95.410156 0.78125)" xlink:href="#DejaVuSans-48"/>
       <use transform="translate(159.033203 0.78125)" xlink:href="#DejaVuSans-48"/>
       <use transform="translate(222.65625 0.78125)" xlink:href="#DejaVuSans-51"/>
       <use transform="translate(286.279297 0.78125)" xlink:href="#DejaVuSans-48"/>
      </g>
     </g>
    </g>
    <g id="text_11">
     <!-- $Y_{CO}$ -->
     <g transform="translate(33.956164 140.01)rotate(-90)scale(0.16 -0.16)">
      <defs>
       <path d="M 45.609375 66.21875 
Q 37.5 66.21875 31.296875 62.28125 
Q 25.09375 58.34375 20.515625 50.296875 
Q 17.578125 45.171875 16.03125 39.40625 
Q 14.5 33.640625 14.5 27.78125 
Q 14.5 17.625 19.359375 12.109375 
Q 24.21875 6.59375 33.109375 6.59375 
Q 41.109375 6.59375 47.375 10.5625 
Q 53.65625 14.546875 58.109375 22.40625 
Q 61.078125 27.6875 62.640625 33.46875 
Q 64.203125 39.265625 64.203125 45.015625 
Q 64.203125 55.125 59.3125 60.671875 
Q 54.4375 66.21875 45.609375 66.21875 
z
M 32.8125 -1.421875 
Q 19.390625 -1.421875 11.6875 6.53125 
Q 4 14.5 4 28.328125 
Q 4 36.234375 7 44.484375 
Q 10.015625 52.734375 15.28125 59.1875 
Q 21.484375 66.75 29.09375 70.484375 
Q 36.71875 74.21875 45.90625 74.21875 
Q 59.28125 74.21875 66.984375 66.328125 
Q 74.703125 58.453125 74.703125 44.828125 
Q 74.703125 36.421875 71.765625 28.3125 
Q 68.84375 20.21875 63.375 13.625 
Q 57.125 6 49.578125 2.28125 
Q 42.046875 -1.421875 32.8125 -1.421875 
z
" id="DejaVuSans-Oblique-79"/>
      </defs>
      <use transform="translate(0 0.09375)" xlink:href="#DejaVuSans-Oblique-89"/>
      <use transform="translate(61.083984 -16.3125)scale(0.7)" xlink:href="#DejaVuSans-Oblique-67"/>
      <use transform="translate(109.960938 -16.3125)scale(0.7)" xlink:href="#DejaVuSans-Oblique-79"/>
     </g>
    </g>
   </g>
   <g id="PathCollection_2">
    <g clip-path="url(#p1a696f419f)">
     <use x="102.586919" xlink:href="#m7fae87cafe" y="89.442307"/>
     <use x="113.337433" xlink:href="#m7fae87cafe" y="113.811008"/>
     <use x="124.087947" xlink:href="#m7fae87cafe" y="125.906987"/>
     <use x="134.838461" xlink:href="#m7fae87cafe" y="127.937366"/>
     <use x="145.588975" xlink:href="#m7fae87cafe" y="132.463154"/>
     <use x="156.339489" xlink:href="#m7fae87cafe" y="128.992623"/>
     <use x="167.090002" xlink:href="#m7fae87cafe" y="126.694052"/>
     <use x="177.840516" xlink:href="#m7fae87cafe" y="125.017335"/>
     <use x="188.59103" xlink:href="#m7fae87cafe" y="132.420624"/>
     <use x="199.341544" xlink:href="#m7fae87cafe" y="144.770899"/>
     <use x="210.092058" xlink:href="#m7fae87cafe" y="148.336331"/>
     <use x="220.842572" xlink:href="#m7fae87cafe" y="159.955702"/>
     <use x="231.593086" xlink:href="#m7fae87cafe" y="163.524941"/>
     <use x="242.3436" xlink:href="#m7fae87cafe" y="162.333471"/>
     <use x="253.094113" xlink:href="#m7fae87cafe" y="160.224531"/>
     <use x="263.844627" xlink:href="#m7fae87cafe" y="152.896536"/>
     <use x="274.595141" xlink:href="#m7fae87cafe" y="142.285882"/>
     <use x="285.345655" xlink:href="#m7fae87cafe" y="145.981625"/>
     <use x="296.096169" xlink:href="#m7fae87cafe" y="149.697594"/>
     <use x="306.846683" xlink:href="#m7fae87cafe" y="150.784846"/>
     <use x="317.597197" xlink:href="#m7fae87cafe" y="163.141725"/>
     <use x="328.347711" xlink:href="#m7fae87cafe" y="160.907106"/>
     <use x="339.098224" xlink:href="#m7fae87cafe" y="156.651984"/>
     <use x="349.848738" xlink:href="#m7fae87cafe" y="156.41002"/>
     <use x="360.599252" xlink:href="#m7fae87cafe" y="150.716818"/>
     <use x="371.349766" xlink:href="#m7fae87cafe" y="137.864223"/>
     <use x="382.10028" xlink:href="#m7fae87cafe" y="129.688736"/>
     <use x="392.850794" xlink:href="#m7fae87cafe" y="130.839759"/>
     <use x="403.601308" xlink:href="#m7fae87cafe" y="128.839609"/>
     <use x="414.351822" xlink:href="#m7fae87cafe" y="137.624208"/>
     <use x="425.102335" xlink:href="#m7fae87cafe" y="142.211787"/>
     <use x="435.852849" xlink:href="#m7fae87cafe" y="143.772213"/>
     <use x="446.603363" xlink:href="#m7fae87cafe" y="145.918287"/>
     <use x="457.353877" xlink:href="#m7fae87cafe" y="140.557542"/>
     <use x="468.104391" xlink:href="#m7fae87cafe" y="132.096212"/>
     <use x="478.854905" xlink:href="#m7fae87cafe" y="127.309042"/>
     <use x="489.605419" xlink:href="#m7fae87cafe" y="120.827382"/>
     <use x="500.355932" xlink:href="#m7fae87cafe" y="117.748803"/>
     <use x="511.106446" xlink:href="#m7fae87cafe" y="122.533221"/>
     <use x="521.85696" xlink:href="#m7fae87cafe" y="128.806934"/>
     <use x="532.607474" xlink:href="#m7fae87cafe" y="142.648481"/>
     <use x="543.357988" xlink:href="#m7fae87cafe" y="144.773725"/>
     <use x="554.108502" xlink:href="#m7fae87cafe" y="146.768498"/>
     <use x="564.859016" xlink:href="#m7fae87cafe" y="147.250329"/>
     <use x="575.60953" xlink:href="#m7fae87cafe" y="137.871939"/>
     <use x="586.360043" xlink:href="#m7fae87cafe" y="129.258065"/>
     <use x="597.110557" xlink:href="#m7fae87cafe" y="136.21223"/>
     <use x="607.861071" xlink:href="#m7fae87cafe" y="132.254883"/>
     <use x="618.611585" xlink:href="#m7fae87cafe" y="140.47397"/>
     <use x="629.362099" xlink:href="#m7fae87cafe" y="154.25854"/>
    </g>
   </g>
   <g id="line2d_29">
    <path clip-path="url(#p1a696f419f)" d="M 102.586919 90.27682 
L 113.337433 113.159493 
L 124.087947 125.510679 
L 134.838461 131.034115 
L 145.588975 131.093351 
L 156.339489 128.387657 
L 167.090002 126.185555 
L 177.840516 127.136345 
L 188.59103 132.326302 
L 199.341544 140.994519 
L 210.092058 150.916088 
L 220.842572 159.270045 
L 231.593086 163.697693 
L 242.3436 163.201396 
L 253.094113 158.573553 
L 263.844627 152.146086 
L 274.595141 146.838729 
L 285.345655 144.908852 
L 296.096169 147.053604 
L 306.846683 152.22633 
L 317.597197 158.104042 
L 328.347711 161.97056 
L 339.098224 161.728636 
L 349.848738 156.732634 
L 360.599252 148.157907 
L 371.349766 138.672914 
L 382.10028 131.391217 
L 392.850794 128.538161 
L 403.601308 130.546787 
L 414.351822 135.960321 
L 425.102335 142.066384 
L 435.852849 145.946012 
L 446.603363 145.571457 
L 457.353877 140.606738 
L 468.104391 132.632538 
L 478.854905 124.585923 
L 489.605419 119.524712 
L 500.355932 119.322388 
L 511.106446 123.974757 
L 521.85696 131.713567 
L 532.607474 139.734608 
L 543.357988 145.248288 
L 554.108502 146.522464 
L 564.859016 143.574546 
L 575.60953 138.23794 
L 586.360043 133.440313 
L 597.110557 131.921308 
L 607.861071 135.056449 
L 618.611585 142.379761 
L 629.362099 151.860447 
" style="fill:none;stroke:#ff0000;"/>
   </g>
   <g id="patch_8">
    <path d="M 86.783664 165.925354 
L 86.783664 87.214646 
" style="fill:none;stroke:#000000;stroke-linecap:square;stroke-linejoin:miter;"/>
   </g>
   <g id="patch_9">
    <path d="M 645.165354 165.925354 
L 645.165354 87.214646 
" style="fill:none;stroke:#000000;stroke-linecap:square;stroke-linejoin:miter;"/>
   </g>
   <g id="patch_10">
    <path d="M 86.783664 165.925354 
L 645.165354 165.925354 
" style="fill:none;stroke:#000000;stroke-linecap:square;stroke-linejoin:miter;"/>
   </g>
   <g id="patch_11">
    <path d="M 86.783664 87.214646 
L 645.165354 87.214646 
" style="fill:none;stroke:#000000;stroke-linecap:square;stroke-linejoin:miter;"/>
   </g>
  </g>
  <g id="axes_3">
   <g id="patch_12">
    <path d="M 86.783664 250.305354 
L 645.165354 250.305354 
L 645.165354 171.594646 
L 86.783664 171.594646 
z
" style="fill:#ffffff;"/>
   </g>
   <g id="matplotlib.axis_5">
    <g id="xtick_13">
     <g id="line2d_30">
      <path clip-path="url(#p4ea22badc3)" d="M 102.586919 250.305354 
L 102.586919 171.594646 
" style="fill:none;stroke:#000000;stroke-linecap:square;stroke-opacity:0.1;stroke-width:0.5;"/>
     </g>
     <g id="line2d_31">
      <defs>
       <path d="M 0 0 
L 0 -2.5 
" id="meab374909e" style="stroke:#000000;stroke-width:0.5;"/>
      </defs>
      <g>
       <use style="stroke:#000000;stroke-width:0.5;" x="102.586919" xlink:href="#meab374909e" y="250.305354"/>
      </g>
     </g>
     <g id="line2d_32">
      <defs>
       <path d="M 0 0 
L 0 2.5 
" id="m632a3ef870" style="stroke:#000000;stroke-width:0.5;"/>
      </defs>
      <g>
       <use style="stroke:#000000;stroke-width:0.5;" x="102.586919" xlink:href="#m632a3ef870" y="171.594646"/>
      </g>
     </g>
     <g id="text_12">
      <!-- $\mathregular{0}$ -->
      <g transform="translate(98.746919 262.923479)scale(0.12 -0.12)">
       <use transform="translate(0 0.78125)" xlink:href="#DejaVuSans-48"/>
      </g>
     </g>
    </g>
    <g id="xtick_14">
     <g id="line2d_33">
      <path clip-path="url(#p4ea22badc3)" d="M 207.941955 250.305354 
L 207.941955 171.594646 
" style="fill:none;stroke:#000000;stroke-linecap:square;stroke-opacity:0.1;stroke-width:0.5;"/>
     </g>
     <g id="line2d_34">
      <g>
       <use style="stroke:#000000;stroke-width:0.5;" x="207.941955" xlink:href="#meab374909e" y="250.305354"/>
      </g>
     </g>
     <g id="line2d_35">
      <g>
       <use style="stroke:#000000;stroke-width:0.5;" x="207.941955" xlink:href="#m632a3ef870" y="171.594646"/>
      </g>
     </g>
     <g id="text_13">
      <!-- $\mathregular{1}$ -->
      <g transform="translate(204.101955 262.923479)scale(0.12 -0.12)">
       <use transform="translate(0 0.09375)" xlink:href="#DejaVuSans-49"/>
      </g>
     </g>
    </g>
    <g id="xtick_15">
     <g id="line2d_36">
      <path clip-path="url(#p4ea22badc3)" d="M 313.296991 250.305354 
L 313.296991 171.594646 
" style="fill:none;stroke:#000000;stroke-linecap:square;stroke-opacity:0.1;stroke-width:0.5;"/>
     </g>
     <g id="line2d_37">
      <g>
       <use style="stroke:#000000;stroke-width:0.5;" x="313.296991" xlink:href="#meab374909e" y="250.305354"/>
      </g>
     </g>
     <g id="line2d_38">
      <g>
       <use style="stroke:#000000;stroke-width:0.5;" x="313.296991" xlink:href="#m632a3ef870" y="171.594646"/>
      </g>
     </g>
     <g id="text_14">
      <!-- $\mathregular{2}$ -->
      <g transform="translate(309.456991 262.923479)scale(0.12 -0.12)">
       <use transform="translate(0 0.78125)" xlink:href="#DejaVuSans-50"/>
      </g>
     </g>
    </g>
    <g id="xtick_16">
     <g id="line2d_39">
      <path clip-path="url(#p4ea22badc3)" d="M 418.652027 250.305354 
L 418.652027 171.594646 
" style="fill:none;stroke:#000000;stroke-linecap:square;stroke-opacity:0.1;stroke-width:0.5;"/>
     </g>
     <g id="line2d_40">
      <g>
       <use style="stroke:#000000;stroke-width:0.5;" x="418.652027" xlink:href="#meab374909e" y="250.305354"/>
      </g>
     </g>
     <g id="line2d_41">
      <g>
       <use style="stroke:#000000;stroke-width:0.5;" x="418.652027" xlink:href="#m632a3ef870" y="171.594646"/>
      </g>
     </g>
     <g id="text_15">
      <!-- $\mathregular{3}$ -->
      <g transform="translate(414.812027 262.923479)scale(0.12 -0.12)">
       <use transform="translate(0 0.78125)" xlink:href="#DejaVuSans-51"/>
      </g>
     </g>
    </g>
    <g id="xtick_17">
     <g id="line2d_42">
      <path clip-path="url(#p4ea22badc3)" d="M 524.007063 250.305354 
L 524.007063 171.594646 
" style="fill:none;stroke:#000000;stroke-linecap:square;stroke-opacity:0.1;stroke-width:0.5;"/>
     </g>
     <g id="line2d_43">
      <g>
       <use style="stroke:#000000;stroke-width:0.5;" x="524.007063" xlink:href="#meab374909e" y="250.305354"/>
      </g>
     </g>
     <g id="line2d_44">
      <g>
       <use style="stroke:#000000;stroke-width:0.5;" x="524.007063" xlink:href="#m632a3ef870" y="171.594646"/>
      </g>
     </g>
     <g id="text_16">
      <!-- $\mathregular{4}$ -->
      <g transform="translate(520.167063 262.923479)scale(0.12 -0.12)">
       <use transform="translate(0 0.09375)" xlink:href="#DejaVuSans-52"/>
      </g>
     </g>
    </g>
    <g id="xtick_18">
     <g id="line2d_45">
      <path clip-path="url(#p4ea22badc3)" d="M 629.362099 250.305354 
L 629.362099 171.594646 
" style="fill:none;stroke:#000000;stroke-linecap:square;stroke-opacity:0.1;stroke-width:0.5;"/>
     </g>
     <g id="line2d_46">
      <g>
       <use style="stroke:#000000;stroke-width:0.5;" x="629.362099" xlink:href="#meab374909e" y="250.305354"/>
      </g>
     </g>
     <g id="line2d_47">
      <g>
       <use style="stroke:#000000;stroke-width:0.5;" x="629.362099" xlink:href="#m632a3ef870" y="171.594646"/>
      </g>
     </g>
     <g id="text_17">
      <!-- $\mathregular{5}$ -->
      <g transform="translate(625.522099 262.923479)scale(0.12 -0.12)">
       <use transform="translate(0 0.09375)" xlink:href="#DejaVuSans-53"/>
      </g>
     </g>
    </g>
    <g id="text_18">
     <!-- Time [s] -->
     <g transform="translate(333.448259 281.576604)scale(0.16 -0.16)">
      <defs>
       <path d="M -0.296875 72.90625 
L 61.375 72.90625 
L 61.375 64.59375 
L 35.5 64.59375 
L 35.5 0 
L 25.59375 0 
L 25.59375 64.59375 
L -0.296875 64.59375 
z
" id="DejaVuSans-84"/>
       <path d="M 9.421875 54.6875 
L 18.40625 54.6875 
L 18.40625 0 
L 9.421875 0 
z
M 9.421875 75.984375 
L 18.40625 75.984375 
L 18.40625 64.59375 
L 9.421875 64.59375 
z
" id="DejaVuSans-105"/>
       <path d="M 52 44.1875 
Q 55.375 50.25 60.0625 53.125 
Q 64.75 56 71.09375 56 
Q 79.640625 56 84.28125 50.015625 
Q 88.921875 44.046875 88.921875 33.015625 
L 88.921875 0 
L 79.890625 0 
L 79.890625 32.71875 
Q 79.890625 40.578125 77.09375 44.375 
Q 74.3125 48.1875 68.609375 48.1875 
Q 61.625 48.1875 57.5625 43.546875 
Q 53.515625 38.921875 53.515625 30.90625 
L 53.515625 0 
L 44.484375 0 
L 44.484375 32.71875 
Q 44.484375 40.625 41.703125 44.40625 
Q 38.921875 48.1875 33.109375 48.1875 
Q 26.21875 48.1875 22.15625 43.53125 
Q 18.109375 38.875 18.109375 30.90625 
L 18.109375 0 
L 9.078125 0 
L 9.078125 54.6875 
L 18.109375 54.6875 
L 18.109375 46.1875 
Q 21.1875 51.21875 25.484375 53.609375 
Q 29.78125 56 35.6875 56 
Q 41.65625 56 45.828125 52.96875 
Q 50 49.953125 52 44.1875 
z
" id="DejaVuSans-109"/>
       <path d="M 56.203125 29.59375 
L 56.203125 25.203125 
L 14.890625 25.203125 
Q 15.484375 15.921875 20.484375 11.0625 
Q 25.484375 6.203125 34.421875 6.203125 
Q 39.59375 6.203125 44.453125 7.46875 
Q 49.3125 8.734375 54.109375 11.28125 
L 54.109375 2.78125 
Q 49.265625 0.734375 44.1875 -0.34375 
Q 39.109375 -1.421875 33.890625 -1.421875 
Q 20.796875 -1.421875 13.15625 6.1875 
Q 5.515625 13.8125 5.515625 26.8125 
Q 5.515625 40.234375 12.765625 48.109375 
Q 20.015625 56 32.328125 56 
Q 43.359375 56 49.78125 48.890625 
Q 56.203125 41.796875 56.203125 29.59375 
z
M 47.21875 32.234375 
Q 47.125 39.59375 43.09375 43.984375 
Q 39.0625 48.390625 32.421875 48.390625 
Q 24.90625 48.390625 20.390625 44.140625 
Q 15.875 39.890625 15.1875 32.171875 
z
" id="DejaVuSans-101"/>
       <path id="DejaVuSans-32"/>
       <path d="M 8.59375 75.984375 
L 29.296875 75.984375 
L 29.296875 69 
L 17.578125 69 
L 17.578125 -6.203125 
L 29.296875 -6.203125 
L 29.296875 -13.1875 
L 8.59375 -13.1875 
z
" id="DejaVuSans-91"/>
       <path d="M 44.28125 53.078125 
L 44.28125 44.578125 
Q 40.484375 46.53125 36.375 47.5 
Q 32.28125 48.484375 27.875 48.484375 
Q 21.1875 48.484375 17.84375 46.4375 
Q 14.5 44.390625 14.5 40.28125 
Q 14.5 37.15625 16.890625 35.375 
Q 19.28125 33.59375 26.515625 31.984375 
L 29.59375 31.296875 
Q 39.15625 29.25 43.1875 25.515625 
Q 47.21875 21.78125 47.21875 15.09375 
Q 47.21875 7.46875 41.1875 3.015625 
Q 35.15625 -1.421875 24.609375 -1.421875 
Q 20.21875 -1.421875 15.453125 -0.5625 
Q 10.6875 0.296875 5.421875 2 
L 5.421875 11.28125 
Q 10.40625 8.6875 15.234375 7.390625 
Q 20.0625 6.109375 24.8125 6.109375 
Q 31.15625 6.109375 34.5625 8.28125 
Q 37.984375 10.453125 37.984375 14.40625 
Q 37.984375 18.0625 35.515625 20.015625 
Q 33.0625 21.96875 24.703125 23.78125 
L 21.578125 24.515625 
Q 13.234375 26.265625 9.515625 29.90625 
Q 5.8125 33.546875 5.8125 39.890625 
Q 5.8125 47.609375 11.28125 51.796875 
Q 16.75 56 26.8125 56 
Q 31.78125 56 36.171875 55.265625 
Q 40.578125 54.546875 44.28125 53.078125 
z
" id="DejaVuSans-115"/>
       <path d="M 30.421875 75.984375 
L 30.421875 -13.1875 
L 9.71875 -13.1875 
L 9.71875 -6.203125 
L 21.390625 -6.203125 
L 21.390625 69 
L 9.71875 69 
L 9.71875 75.984375 
z
" id="DejaVuSans-93"/>
      </defs>
      <use xlink:href="#DejaVuSans-84"/>
      <use x="57.958984" xlink:href="#DejaVuSans-105"/>
      <use x="85.742188" xlink:href="#DejaVuSans-109"/>
      <use x="183.154297" xlink:href="#DejaVuSans-101"/>
      <use x="244.677734" xlink:href="#DejaVuSans-32"/>
      <use x="276.464844" xlink:href="#DejaVuSans-91"/>
      <use x="315.478516" xlink:href="#DejaVuSans-115"/>
      <use x="367.578125" xlink:href="#DejaVuSans-93"/>
     </g>
    </g>
   </g>
   <g id="matplotlib.axis_6">
    <g id="ytick_10">
     <g id="line2d_48">
      <path clip-path="url(#p4ea22badc3)" d="M 86.783664 240.987696 
L 645.165354 240.987696 
" style="fill:none;stroke:#000000;stroke-linecap:square;stroke-opacity:0.1;stroke-width:0.5;"/>
     </g>
     <g id="line2d_49">
      <g>
       <use style="stroke:#000000;stroke-width:0.5;" x="86.783664" xlink:href="#m3dcac10d54" y="240.987696"/>
      </g>
     </g>
     <g id="line2d_50">
      <g>
       <use style="stroke:#000000;stroke-width:0.5;" x="645.165354" xlink:href="#mde1dcc2619" y="240.987696"/>
      </g>
     </g>
     <g id="text_19">
      <!-- $\mathregular{1077}$ -->
      <g transform="translate(52.923664 245.546758)scale(0.12 -0.12)">
       <use transform="translate(0 0.78125)" xlink:href="#DejaVuSans-49"/>
       <use transform="translate(63.623047 0.78125)" xlink:href="#DejaVuSans-48"/>
       <use transform="translate(127.246094 0.78125)" xlink:href="#DejaVuSans-55"/>
       <use transform="translate(189.119141 0.78125)" xlink:href="#DejaVuSans-55"/>
      </g>
     </g>
    </g>
    <g id="ytick_11">
     <g id="line2d_51">
      <path clip-path="url(#p4ea22badc3)" d="M 86.783664 225.876357 
L 645.165354 225.876357 
" style="fill:none;stroke:#000000;stroke-linecap:square;stroke-opacity:0.1;stroke-width:0.5;"/>
     </g>
     <g id="line2d_52">
      <g>
       <use style="stroke:#000000;stroke-width:0.5;" x="86.783664" xlink:href="#m3dcac10d54" y="225.876357"/>
      </g>
     </g>
     <g id="line2d_53">
      <g>
       <use style="stroke:#000000;stroke-width:0.5;" x="645.165354" xlink:href="#mde1dcc2619" y="225.876357"/>
      </g>
     </g>
     <g id="text_20">
      <!-- $\mathregular{1080}$ -->
      <g transform="translate(52.683664 230.435419)scale(0.12 -0.12)">
       <use transform="translate(0 0.78125)" xlink:href="#DejaVuSans-49"/>
       <use transform="translate(63.623047 0.78125)" xlink:href="#DejaVuSans-48"/>
       <use transform="translate(127.246094 0.78125)" xlink:href="#DejaVuSans-56"/>
       <use transform="translate(190.869141 0.78125)" xlink:href="#DejaVuSans-48"/>
      </g>
     </g>
    </g>
    <g id="ytick_12">
     <g id="line2d_54">
      <path clip-path="url(#p4ea22badc3)" d="M 86.783664 210.765018 
L 645.165354 210.765018 
" style="fill:none;stroke:#000000;stroke-linecap:square;stroke-opacity:0.1;stroke-width:0.5;"/>
     </g>
     <g id="line2d_55">
      <g>
       <use style="stroke:#000000;stroke-width:0.5;" x="86.783664" xlink:href="#m3dcac10d54" y="210.765018"/>
      </g>
     </g>
     <g id="line2d_56">
      <g>
       <use style="stroke:#000000;stroke-width:0.5;" x="645.165354" xlink:href="#mde1dcc2619" y="210.765018"/>
      </g>
     </g>
     <g id="text_21">
      <!-- $\mathregular{1083}$ -->
      <g transform="translate(52.683664 215.32408)scale(0.12 -0.12)">
       <use transform="translate(0 0.78125)" xlink:href="#DejaVuSans-49"/>
       <use transform="translate(63.623047 0.78125)" xlink:href="#DejaVuSans-48"/>
       <use transform="translate(127.246094 0.78125)" xlink:href="#DejaVuSans-56"/>
       <use transform="translate(190.869141 0.78125)" xlink:href="#DejaVuSans-51"/>
      </g>
     </g>
    </g>
    <g id="ytick_13">
     <g id="line2d_57">
      <path clip-path="url(#p4ea22badc3)" d="M 86.783664 195.653679 
L 645.165354 195.653679 
" style="fill:none;stroke:#000000;stroke-linecap:square;stroke-opacity:0.1;stroke-width:0.5;"/>
     </g>
     <g id="line2d_58">
      <g>
       <use style="stroke:#000000;stroke-width:0.5;" x="86.783664" xlink:href="#m3dcac10d54" y="195.653679"/>
      </g>
     </g>
     <g id="line2d_59">
      <g>
       <use style="stroke:#000000;stroke-width:0.5;" x="645.165354" xlink:href="#mde1dcc2619" y="195.653679"/>
      </g>
     </g>
     <g id="text_22">
      <!-- $\mathregular{1086}$ -->
      <g transform="translate(52.683664 200.212741)scale(0.12 -0.12)">
       <use transform="translate(0 0.78125)" xlink:href="#DejaVuSans-49"/>
       <use transform="translate(63.623047 0.78125)" xlink:href="#DejaVuSans-48"/>
       <use transform="translate(127.246094 0.78125)" xlink:href="#DejaVuSans-56"/>
       <use transform="translate(190.869141 0.78125)" xlink:href="#DejaVuSans-54"/>
      </g>
     </g>
    </g>
    <g id="ytick_14">
     <g id="line2d_60">
      <path clip-path="url(#p4ea22badc3)" d="M 86.783664 180.54234 
L 645.165354 180.54234 
" style="fill:none;stroke:#000000;stroke-linecap:square;stroke-opacity:0.1;stroke-width:0.5;"/>
     </g>
     <g id="line2d_61">
      <g>
       <use style="stroke:#000000;stroke-width:0.5;" x="86.783664" xlink:href="#m3dcac10d54" y="180.54234"/>
      </g>
     </g>
     <g id="line2d_62">
      <g>
       <use style="stroke:#000000;stroke-width:0.5;" x="645.165354" xlink:href="#mde1dcc2619" y="180.54234"/>
      </g>
     </g>
     <g id="text_23">
      <!-- $\mathregular{1089}$ -->
      <g transform="translate(52.683664 185.101403)scale(0.12 -0.12)">
       <use transform="translate(0 0.78125)" xlink:href="#DejaVuSans-49"/>
       <use transform="translate(63.623047 0.78125)" xlink:href="#DejaVuSans-48"/>
       <use transform="translate(127.246094 0.78125)" xlink:href="#DejaVuSans-56"/>
       <use transform="translate(190.869141 0.78125)" xlink:href="#DejaVuSans-57"/>
      </g>
     </g>
    </g>
    <g id="text_24">
     <!-- T [K] -->
     <g transform="translate(45.356164 229.8675)rotate(-90)scale(0.16 -0.16)">
      <defs>
       <path d="M 9.8125 72.90625 
L 19.671875 72.90625 
L 19.671875 42.09375 
L 52.390625 72.90625 
L 65.09375 72.90625 
L 28.90625 38.921875 
L 67.671875 0 
L 54.6875 0 
L 19.671875 35.109375 
L 19.671875 0 
L 9.8125 0 
z
" id="DejaVuSans-75"/>
      </defs>
      <use xlink:href="#DejaVuSans-84"/>
      <use x="61.083984" xlink:href="#DejaVuSans-32"/>
      <use x="92.871094" xlink:href="#DejaVuSans-91"/>
      <use x="131.884766" xlink:href="#DejaVuSans-75"/>
      <use x="197.460938" xlink:href="#DejaVuSans-93"/>
     </g>
    </g>
   </g>
   <g id="PathCollection_3">
    <g clip-path="url(#p4ea22badc3)">
     <use x="102.586919" xlink:href="#m7fae87cafe" y="240.590353"/>
     <use x="113.337433" xlink:href="#m7fae87cafe" y="231.280894"/>
     <use x="124.087947" xlink:href="#m7fae87cafe" y="222.905031"/>
     <use x="134.838461" xlink:href="#m7fae87cafe" y="221.40077"/>
     <use x="145.588975" xlink:href="#m7fae87cafe" y="222.626113"/>
     <use x="156.339489" xlink:href="#m7fae87cafe" y="215.736263"/>
     <use x="167.090002" xlink:href="#m7fae87cafe" y="209.293269"/>
     <use x="177.840516" xlink:href="#m7fae87cafe" y="191.078573"/>
     <use x="188.59103" xlink:href="#m7fae87cafe" y="178.157952"/>
     <use x="199.341544" xlink:href="#m7fae87cafe" y="173.822307"/>
     <use x="210.092058" xlink:href="#m7fae87cafe" y="179.879803"/>
     <use x="220.842572" xlink:href="#m7fae87cafe" y="184.800299"/>
     <use x="231.593086" xlink:href="#m7fae87cafe" y="195.323204"/>
     <use x="242.3436" xlink:href="#m7fae87cafe" y="211.97617"/>
     <use x="253.094113" xlink:href="#m7fae87cafe" y="217.105801"/>
     <use x="263.844627" xlink:href="#m7fae87cafe" y="217.020151"/>
     <use x="274.595141" xlink:href="#m7fae87cafe" y="207.092064"/>
     <use x="285.345655" xlink:href="#m7fae87cafe" y="198.298899"/>
     <use x="296.096169" xlink:href="#m7fae87cafe" y="190.958445"/>
     <use x="306.846683" xlink:href="#m7fae87cafe" y="193.510525"/>
     <use x="317.597197" xlink:href="#m7fae87cafe" y="200.490282"/>
     <use x="328.347711" xlink:href="#m7fae87cafe" y="212.856773"/>
     <use x="339.098224" xlink:href="#m7fae87cafe" y="223.37823"/>
     <use x="349.848738" xlink:href="#m7fae87cafe" y="231.83045"/>
     <use x="360.599252" xlink:href="#m7fae87cafe" y="238.225672"/>
     <use x="371.349766" xlink:href="#m7fae87cafe" y="241.201096"/>
     <use x="382.10028" xlink:href="#m7fae87cafe" y="231.650114"/>
     <use x="392.850794" xlink:href="#m7fae87cafe" y="220.926272"/>
     <use x="403.601308" xlink:href="#m7fae87cafe" y="215.887698"/>
     <use x="414.351822" xlink:href="#m7fae87cafe" y="219.181629"/>
     <use x="425.102335" xlink:href="#m7fae87cafe" y="223.514224"/>
     <use x="435.852849" xlink:href="#m7fae87cafe" y="230.551565"/>
     <use x="446.603363" xlink:href="#m7fae87cafe" y="239.514984"/>
     <use x="457.353877" xlink:href="#m7fae87cafe" y="247.436877"/>
     <use x="468.104391" xlink:href="#m7fae87cafe" y="247.954476"/>
     <use x="478.854905" xlink:href="#m7fae87cafe" y="238.733845"/>
     <use x="489.605419" xlink:href="#m7fae87cafe" y="227.925494"/>
     <use x="500.355932" xlink:href="#m7fae87cafe" y="216.059909"/>
     <use x="511.106446" xlink:href="#m7fae87cafe" y="206.958399"/>
     <use x="521.85696" xlink:href="#m7fae87cafe" y="208.118161"/>
     <use x="532.607474" xlink:href="#m7fae87cafe" y="207.10603"/>
     <use x="543.357988" xlink:href="#m7fae87cafe" y="217.148616"/>
     <use x="554.108502" xlink:href="#m7fae87cafe" y="224.34721"/>
     <use x="564.859016" xlink:href="#m7fae87cafe" y="231.685519"/>
     <use x="575.60953" xlink:href="#m7fae87cafe" y="232.959538"/>
     <use x="586.360043" xlink:href="#m7fae87cafe" y="218.369531"/>
     <use x="597.110557" xlink:href="#m7fae87cafe" y="208.921356"/>
     <use x="607.861071" xlink:href="#m7fae87cafe" y="195.57052"/>
     <use x="618.611585" xlink:href="#m7fae87cafe" y="186.541582"/>
     <use x="629.362099" xlink:href="#m7fae87cafe" y="185.776964"/>
    </g>
   </g>
   <g id="line2d_63">
    <path clip-path="url(#p4ea22badc3)" d="M 102.586919 239.999297 
L 113.337433 227.193455 
L 124.087947 224.024415 
L 134.838461 224.054892 
L 145.588975 222.140669 
L 156.339489 215.424318 
L 167.090002 203.997373 
L 177.840516 190.730587 
L 188.59103 179.947876 
L 199.341544 175.389376 
L 210.092058 178.504891 
L 220.842572 187.937235 
L 231.593086 200.211954 
L 242.3436 211.078063 
L 253.094113 216.945938 
L 263.844627 216.127047 
L 274.595141 209.572095 
L 285.345655 200.664485 
L 296.096169 193.860722 
L 306.846683 192.731793 
L 317.597197 198.448291 
L 328.347711 209.46993 
L 339.098224 222.347951 
L 349.848738 233.07552 
L 360.599252 238.460971 
L 371.349766 237.267546 
L 382.10028 230.796216 
L 392.850794 222.501931 
L 403.601308 216.559283 
L 414.351822 216.000595 
L 425.102335 221.438425 
L 435.852849 230.955771 
L 446.603363 240.987646 
L 457.353877 247.647236 
L 468.104391 248.077693 
L 478.854905 241.571655 
L 489.605419 230.069112 
L 500.355932 217.581239 
L 511.106446 208.524992 
L 521.85696 205.793652 
L 532.607474 209.600695 
L 543.357988 217.585488 
L 554.108502 225.864453 
L 564.859016 230.456323 
L 575.60953 228.656131 
L 586.360043 220.116606 
L 597.110557 207.204437 
L 607.861071 194.20673 
L 618.611585 185.516631 
L 629.362099 183.720251 
" style="fill:none;stroke:#ff0000;"/>
   </g>
   <g id="patch_13">
    <path d="M 86.783664 250.305354 
L 86.783664 171.594646 
" style="fill:none;stroke:#000000;stroke-linecap:square;stroke-linejoin:miter;"/>
   </g>
   <g id="patch_14">
    <path d="M 645.165354 250.305354 
L 645.165354 171.594646 
" style="fill:none;stroke:#000000;stroke-linecap:square;stroke-linejoin:miter;"/>
   </g>
   <g id="patch_15">
    <path d="M 86.783664 250.305354 
L 645.165354 250.305354 
" style="fill:none;stroke:#000000;stroke-linecap:square;stroke-linejoin:miter;"/>
   </g>
   <g id="patch_16">
    <path d="M 86.783664 171.594646 
L 645.165354 171.594646 
" style="fill:none;stroke:#000000;stroke-linecap:square;stroke-linejoin:miter;"/>
   </g>
  </g>
 </g>
 <defs>
  <clipPath id="p1e677f8a97">
   <rect height="78.710709" width="558.38169" x="86.783664" y="2.834646"/>
  </clipPath>
  <clipPath id="p1a696f419f">
   <rect height="78.710709" width="558.38169" x="86.783664" y="87.214646"/>
  </clipPath>
  <clipPath id="p4ea22badc3">
   <rect height="78.710709" width="558.38169" x="86.783664" y="171.594646"/>
  </clipPath>
 </defs>
</svg>
