<?xml version="1.0" encoding="utf-8" standalone="no"?>
<!DOCTYPE svg PUBLIC "-//W3C//DTD SVG 1.1//EN"
  "http://www.w3.org/Graphics/SVG/1.1/DTD/svg11.dtd">
<!-- Created with matplotlib (https://matplotlib.org/) -->
<svg height="288pt" version="1.1" viewBox="0 0 720 288" width="720pt" xmlns="http://www.w3.org/2000/svg" xmlns:xlink="http://www.w3.org/1999/xlink">
 <metadata>
  <rdf:RDF xmlns:cc="http://creativecommons.org/ns#" xmlns:dc="http://purl.org/dc/elements/1.1/" xmlns:rdf="http://www.w3.org/1999/02/22-rdf-syntax-ns#">
   <cc:Work>
    <dc:type rdf:resource="http://purl.org/dc/dcmitype/StillImage"/>
    <dc:date>2021-04-24T23:06:17.468956</dc:date>
    <dc:format>image/svg+xml</dc:format>
    <dc:creator>
     <cc:Agent>
      <dc:title>Matplotlib v3.3.2, https://matplotlib.org/</dc:title>
     </cc:Agent>
    </dc:creator>
   </cc:Work>
  </rdf:RDF>
 </metadata>
 <defs>
  <style type="text/css">*{stroke-linecap:butt;stroke-linejoin:round;}</style>
 </defs>
 <g id="figure_1">
  <g id="patch_1">
   <path d="M 0 288 
L 720 288 
L 720 0 
L 0 0 
z
" style="fill:#ffffff;"/>
  </g>
  <g id="axes_1">
   <g id="patch_2">
    <path d="M 75.363068 81.545354 
L 585.015354 81.545354 
L 585.015354 2.834646 
L 75.363068 2.834646 
z
" style="fill:#ffffff;"/>
   </g>
   <g id="matplotlib.axis_1">
    <g id="xtick_1"/>
    <g id="xtick_2"/>
    <g id="xtick_3"/>
    <g id="xtick_4"/>
    <g id="xtick_5"/>
    <g id="xtick_6"/>
   </g>
   <g id="matplotlib.axis_2">
    <g id="ytick_1">
     <g id="line2d_1">
      <path clip-path="url(#p61546c32e8)" d="M 75.363068 72.362657 
L 585.015354 72.362657 
" style="fill:none;stroke:#000000;stroke-linecap:square;stroke-opacity:0.1;stroke-width:0.5;"/>
     </g>
     <g id="line2d_2">
      <defs>
       <path d="M 0 0 
L 2.5 0 
" id="md23086aab2" style="stroke:#000000;stroke-width:0.5;"/>
      </defs>
      <g>
       <use style="stroke:#000000;stroke-width:0.5;" x="75.363068" xlink:href="#md23086aab2" y="72.362657"/>
      </g>
     </g>
     <g id="line2d_3">
      <defs>
       <path d="M 0 0 
L -2.5 0 
" id="me1555cc470" style="stroke:#000000;stroke-width:0.5;"/>
      </defs>
      <g>
       <use style="stroke:#000000;stroke-width:0.5;" x="585.015354" xlink:href="#me1555cc470" y="72.362657"/>
      </g>
     </g>
     <g id="text_1">
      <!-- $\mathregular{0}$ -->
      <g transform="translate(64.183068 76.92172)scale(0.12 -0.12)">
       <defs>
        <path d="M 31.78125 66.40625 
Q 24.171875 66.40625 20.328125 58.90625 
Q 16.5 51.421875 16.5 36.375 
Q 16.5 21.390625 20.328125 13.890625 
Q 24.171875 6.390625 31.78125 6.390625 
Q 39.453125 6.390625 43.28125 13.890625 
Q 47.125 21.390625 47.125 36.375 
Q 47.125 51.421875 43.28125 58.90625 
Q 39.453125 66.40625 31.78125 66.40625 
z
M 31.78125 74.21875 
Q 44.046875 74.21875 50.515625 64.515625 
Q 56.984375 54.828125 56.984375 36.375 
Q 56.984375 17.96875 50.515625 8.265625 
Q 44.046875 -1.421875 31.78125 -1.421875 
Q 19.53125 -1.421875 13.0625 8.265625 
Q 6.59375 17.96875 6.59375 36.375 
Q 6.59375 54.828125 13.0625 64.515625 
Q 19.53125 74.21875 31.78125 74.21875 
z
" id="DejaVuSans-48"/>
       </defs>
       <use transform="translate(0 0.78125)" xlink:href="#DejaVuSans-48"/>
      </g>
     </g>
    </g>
    <g id="ytick_2">
     <g id="line2d_4">
      <path clip-path="url(#p61546c32e8)" d="M 75.363068 55.405996 
L 585.015354 55.405996 
" style="fill:none;stroke:#000000;stroke-linecap:square;stroke-opacity:0.1;stroke-width:0.5;"/>
     </g>
     <g id="line2d_5">
      <g>
       <use style="stroke:#000000;stroke-width:0.5;" x="75.363068" xlink:href="#md23086aab2" y="55.405996"/>
      </g>
     </g>
     <g id="line2d_6">
      <g>
       <use style="stroke:#000000;stroke-width:0.5;" x="585.015354" xlink:href="#me1555cc470" y="55.405996"/>
      </g>
     </g>
     <g id="text_2">
      <!-- $\mathregular{2×10^{-6}}$ -->
      <g transform="translate(26.023068 59.965059)scale(0.12 -0.12)">
       <defs>
        <path d="M 19.1875 8.296875 
L 53.609375 8.296875 
L 53.609375 0 
L 7.328125 0 
L 7.328125 8.296875 
Q 12.9375 14.109375 22.625 23.890625 
Q 32.328125 33.6875 34.8125 36.53125 
Q 39.546875 41.84375 41.421875 45.53125 
Q 43.3125 49.21875 43.3125 52.78125 
Q 43.3125 58.59375 39.234375 62.25 
Q 35.15625 65.921875 28.609375 65.921875 
Q 23.96875 65.921875 18.8125 64.3125 
Q 13.671875 62.703125 7.8125 59.421875 
L 7.8125 69.390625 
Q 13.765625 71.78125 18.9375 73 
Q 24.125 74.21875 28.421875 74.21875 
Q 39.75 74.21875 46.484375 68.546875 
Q 53.21875 62.890625 53.21875 53.421875 
Q 53.21875 48.921875 51.53125 44.890625 
Q 49.859375 40.875 45.40625 35.40625 
Q 44.1875 33.984375 37.640625 27.21875 
Q 31.109375 20.453125 19.1875 8.296875 
z
" id="DejaVuSans-50"/>
        <path d="M 70.125 53.71875 
L 47.796875 31.296875 
L 70.125 8.984375 
L 64.3125 3.078125 
L 41.890625 25.484375 
L 19.484375 3.078125 
L 13.71875 8.984375 
L 35.984375 31.296875 
L 13.71875 53.71875 
L 19.484375 59.625 
L 41.890625 37.203125 
L 64.3125 59.625 
z
" id="DejaVuSans-215"/>
        <path d="M 12.40625 8.296875 
L 28.515625 8.296875 
L 28.515625 63.921875 
L 10.984375 60.40625 
L 10.984375 69.390625 
L 28.421875 72.90625 
L 38.28125 72.90625 
L 38.28125 8.296875 
L 54.390625 8.296875 
L 54.390625 0 
L 12.40625 0 
z
" id="DejaVuSans-49"/>
        <path d="M 10.59375 35.5 
L 73.1875 35.5 
L 73.1875 27.203125 
L 10.59375 27.203125 
z
" id="DejaVuSans-8722"/>
        <path d="M 33.015625 40.375 
Q 26.375 40.375 22.484375 35.828125 
Q 18.609375 31.296875 18.609375 23.390625 
Q 18.609375 15.53125 22.484375 10.953125 
Q 26.375 6.390625 33.015625 6.390625 
Q 39.65625 6.390625 43.53125 10.953125 
Q 47.40625 15.53125 47.40625 23.390625 
Q 47.40625 31.296875 43.53125 35.828125 
Q 39.65625 40.375 33.015625 40.375 
z
M 52.59375 71.296875 
L 52.59375 62.3125 
Q 48.875 64.0625 45.09375 64.984375 
Q 41.3125 65.921875 37.59375 65.921875 
Q 27.828125 65.921875 22.671875 59.328125 
Q 17.53125 52.734375 16.796875 39.40625 
Q 19.671875 43.65625 24.015625 45.921875 
Q 28.375 48.1875 33.59375 48.1875 
Q 44.578125 48.1875 50.953125 41.515625 
Q 57.328125 34.859375 57.328125 23.390625 
Q 57.328125 12.15625 50.6875 5.359375 
Q 44.046875 -1.421875 33.015625 -1.421875 
Q 20.359375 -1.421875 13.671875 8.265625 
Q 6.984375 17.96875 6.984375 36.375 
Q 6.984375 53.65625 15.1875 63.9375 
Q 23.390625 74.21875 37.203125 74.21875 
Q 40.921875 74.21875 44.703125 73.484375 
Q 48.484375 72.75 52.59375 71.296875 
z
" id="DejaVuSans-54"/>
       </defs>
       <use transform="translate(0 0.765625)" xlink:href="#DejaVuSans-50"/>
       <use transform="translate(63.623047 0.765625)" xlink:href="#DejaVuSans-215"/>
       <use transform="translate(147.412109 0.765625)" xlink:href="#DejaVuSans-49"/>
       <use transform="translate(211.035156 0.765625)" xlink:href="#DejaVuSans-48"/>
       <use transform="translate(275.615234 39.046875)scale(0.7)" xlink:href="#DejaVuSans-8722"/>
       <use transform="translate(334.267578 39.046875)scale(0.7)" xlink:href="#DejaVuSans-54"/>
      </g>
     </g>
    </g>
    <g id="ytick_3">
     <g id="line2d_7">
      <path clip-path="url(#p61546c32e8)" d="M 75.363068 38.449335 
L 585.015354 38.449335 
" style="fill:none;stroke:#000000;stroke-linecap:square;stroke-opacity:0.1;stroke-width:0.5;"/>
     </g>
     <g id="line2d_8">
      <g>
       <use style="stroke:#000000;stroke-width:0.5;" x="75.363068" xlink:href="#md23086aab2" y="38.449335"/>
      </g>
     </g>
     <g id="line2d_9">
      <g>
       <use style="stroke:#000000;stroke-width:0.5;" x="585.015354" xlink:href="#me1555cc470" y="38.449335"/>
      </g>
     </g>
     <g id="text_3">
      <!-- $\mathregular{4×10^{-6}}$ -->
      <g transform="translate(26.023068 43.008398)scale(0.12 -0.12)">
       <defs>
        <path d="M 37.796875 64.3125 
L 12.890625 25.390625 
L 37.796875 25.390625 
z
M 35.203125 72.90625 
L 47.609375 72.90625 
L 47.609375 25.390625 
L 58.015625 25.390625 
L 58.015625 17.1875 
L 47.609375 17.1875 
L 47.609375 0 
L 37.796875 0 
L 37.796875 17.1875 
L 4.890625 17.1875 
L 4.890625 26.703125 
z
" id="DejaVuSans-52"/>
       </defs>
       <use transform="translate(0 0.765625)" xlink:href="#DejaVuSans-52"/>
       <use transform="translate(63.623047 0.765625)" xlink:href="#DejaVuSans-215"/>
       <use transform="translate(147.412109 0.765625)" xlink:href="#DejaVuSans-49"/>
       <use transform="translate(211.035156 0.765625)" xlink:href="#DejaVuSans-48"/>
       <use transform="translate(275.615234 39.046875)scale(0.7)" xlink:href="#DejaVuSans-8722"/>
       <use transform="translate(334.267578 39.046875)scale(0.7)" xlink:href="#DejaVuSans-54"/>
      </g>
     </g>
    </g>
    <g id="ytick_4">
     <g id="line2d_10">
      <path clip-path="url(#p61546c32e8)" d="M 75.363068 21.492675 
L 585.015354 21.492675 
" style="fill:none;stroke:#000000;stroke-linecap:square;stroke-opacity:0.1;stroke-width:0.5;"/>
     </g>
     <g id="line2d_11">
      <g>
       <use style="stroke:#000000;stroke-width:0.5;" x="75.363068" xlink:href="#md23086aab2" y="21.492675"/>
      </g>
     </g>
     <g id="line2d_12">
      <g>
       <use style="stroke:#000000;stroke-width:0.5;" x="585.015354" xlink:href="#me1555cc470" y="21.492675"/>
      </g>
     </g>
     <g id="text_4">
      <!-- $\mathregular{6×10^{-6}}$ -->
      <g transform="translate(26.023068 26.051737)scale(0.12 -0.12)">
       <use transform="translate(0 0.765625)" xlink:href="#DejaVuSans-54"/>
       <use transform="translate(63.623047 0.765625)" xlink:href="#DejaVuSans-215"/>
       <use transform="translate(147.412109 0.765625)" xlink:href="#DejaVuSans-49"/>
       <use transform="translate(211.035156 0.765625)" xlink:href="#DejaVuSans-48"/>
       <use transform="translate(275.615234 39.046875)scale(0.7)" xlink:href="#DejaVuSans-8722"/>
       <use transform="translate(334.267578 39.046875)scale(0.7)" xlink:href="#DejaVuSans-54"/>
      </g>
     </g>
    </g>
    <g id="ytick_5">
     <g id="line2d_13">
      <path clip-path="url(#p61546c32e8)" d="M 75.363068 4.536014 
L 585.015354 4.536014 
" style="fill:none;stroke:#000000;stroke-linecap:square;stroke-opacity:0.1;stroke-width:0.5;"/>
     </g>
     <g id="line2d_14">
      <g>
       <use style="stroke:#000000;stroke-width:0.5;" x="75.363068" xlink:href="#md23086aab2" y="4.536014"/>
      </g>
     </g>
     <g id="line2d_15">
      <g>
       <use style="stroke:#000000;stroke-width:0.5;" x="585.015354" xlink:href="#me1555cc470" y="4.536014"/>
      </g>
     </g>
     <g id="text_5">
      <!-- $\mathregular{8×10^{-6}}$ -->
      <g transform="translate(26.023068 9.095076)scale(0.12 -0.12)">
       <defs>
        <path d="M 31.78125 34.625 
Q 24.75 34.625 20.71875 30.859375 
Q 16.703125 27.09375 16.703125 20.515625 
Q 16.703125 13.921875 20.71875 10.15625 
Q 24.75 6.390625 31.78125 6.390625 
Q 38.8125 6.390625 42.859375 10.171875 
Q 46.921875 13.96875 46.921875 20.515625 
Q 46.921875 27.09375 42.890625 30.859375 
Q 38.875 34.625 31.78125 34.625 
z
M 21.921875 38.8125 
Q 15.578125 40.375 12.03125 44.71875 
Q 8.5 49.078125 8.5 55.328125 
Q 8.5 64.0625 14.71875 69.140625 
Q 20.953125 74.21875 31.78125 74.21875 
Q 42.671875 74.21875 48.875 69.140625 
Q 55.078125 64.0625 55.078125 55.328125 
Q 55.078125 49.078125 51.53125 44.71875 
Q 48 40.375 41.703125 38.8125 
Q 48.828125 37.15625 52.796875 32.3125 
Q 56.78125 27.484375 56.78125 20.515625 
Q 56.78125 9.90625 50.3125 4.234375 
Q 43.84375 -1.421875 31.78125 -1.421875 
Q 19.734375 -1.421875 13.25 4.234375 
Q 6.78125 9.90625 6.78125 20.515625 
Q 6.78125 27.484375 10.78125 32.3125 
Q 14.796875 37.15625 21.921875 38.8125 
z
M 18.3125 54.390625 
Q 18.3125 48.734375 21.84375 45.5625 
Q 25.390625 42.390625 31.78125 42.390625 
Q 38.140625 42.390625 41.71875 45.5625 
Q 45.3125 48.734375 45.3125 54.390625 
Q 45.3125 60.0625 41.71875 63.234375 
Q 38.140625 66.40625 31.78125 66.40625 
Q 25.390625 66.40625 21.84375 63.234375 
Q 18.3125 60.0625 18.3125 54.390625 
z
" id="DejaVuSans-56"/>
       </defs>
       <use transform="translate(0 0.765625)" xlink:href="#DejaVuSans-56"/>
       <use transform="translate(63.623047 0.765625)" xlink:href="#DejaVuSans-215"/>
       <use transform="translate(147.412109 0.765625)" xlink:href="#DejaVuSans-49"/>
       <use transform="translate(211.035156 0.765625)" xlink:href="#DejaVuSans-48"/>
       <use transform="translate(275.615234 39.046875)scale(0.7)" xlink:href="#DejaVuSans-8722"/>
       <use transform="translate(334.267578 39.046875)scale(0.7)" xlink:href="#DejaVuSans-54"/>
      </g>
     </g>
    </g>
    <g id="text_6">
     <!-- $Y_{CH_4}$ -->
     <g transform="translate(17.543068 58.11)rotate(-90)scale(0.16 -0.16)">
      <defs>
       <path d="M 6.296875 72.90625 
L 16.890625 72.90625 
L 30.515625 42.921875 
L 56.5 72.90625 
L 67.578125 72.90625 
L 34.515625 34.71875 
L 27.78125 0 
L 17.921875 0 
L 24.609375 34.71875 
z
" id="DejaVuSans-Oblique-89"/>
       <path d="M 69.484375 67.28125 
L 67.484375 56.890625 
Q 62.796875 61.625 57.546875 63.921875 
Q 52.296875 66.21875 46.1875 66.21875 
Q 37.84375 66.21875 31.515625 62.203125 
Q 25.203125 58.203125 20.609375 50 
Q 17.671875 44.734375 16.125 38.84375 
Q 14.59375 32.953125 14.59375 27 
Q 14.59375 17.046875 19.75 11.8125 
Q 24.90625 6.59375 34.71875 6.59375 
Q 41.5 6.59375 47.75 8.765625 
Q 54 10.9375 59.90625 15.28125 
L 57.625 3.609375 
Q 51.8125 1.125 45.875 -0.140625 
Q 39.9375 -1.421875 33.984375 -1.421875 
Q 19.96875 -1.421875 12.078125 6.1875 
Q 4.203125 13.8125 4.203125 27.390625 
Q 4.203125 36.078125 7.203125 44.46875 
Q 10.203125 52.875 15.828125 59.8125 
Q 21.78125 67.1875 29.421875 70.703125 
Q 37.0625 74.21875 47.21875 74.21875 
Q 53.46875 74.21875 59.0625 72.484375 
Q 64.65625 70.75 69.484375 67.28125 
z
" id="DejaVuSans-Oblique-67"/>
       <path d="M 16.890625 72.90625 
L 26.8125 72.90625 
L 21 43.015625 
L 56.78125 43.015625 
L 62.59375 72.90625 
L 72.515625 72.90625 
L 58.296875 0 
L 48.390625 0 
L 55.171875 34.71875 
L 19.390625 34.71875 
L 12.59375 0 
L 2.6875 0 
z
" id="DejaVuSans-Oblique-72"/>
      </defs>
      <use transform="translate(0 0.09375)" xlink:href="#DejaVuSans-Oblique-89"/>
      <use transform="translate(61.083984 -16.3125)scale(0.7)" xlink:href="#DejaVuSans-Oblique-67"/>
      <use transform="translate(109.960938 -16.3125)scale(0.7)" xlink:href="#DejaVuSans-Oblique-72"/>
      <use transform="translate(162.597656 -27.796875)scale(0.49)" xlink:href="#DejaVuSans-52"/>
     </g>
    </g>
   </g>
   <g id="PathCollection_1">
    <defs>
     <path d="M 0 2 
C 0.530406 2 1.03916 1.789267 1.414214 1.414214 
C 1.789267 1.03916 2 0.530406 2 0 
C 2 -0.530406 1.789267 -1.03916 1.414214 -1.414214 
C 1.03916 -1.789267 0.530406 -2 0 -2 
C -0.530406 -2 -1.03916 -1.789267 -1.414214 -1.414214 
C -1.789267 -1.03916 -2 -0.530406 -2 0 
C -2 0.530406 -1.789267 1.03916 -1.414214 1.414214 
C -1.03916 1.789267 -0.530406 2 0 2 
z
" id="mbb23304b77"/>
    </defs>
    <g clip-path="url(#p61546c32e8)">
     <use x="89.787189" xlink:href="#mbb23304b77" y="72.581052"/>
     <use x="99.599517" xlink:href="#mbb23304b77" y="53.537522"/>
     <use x="109.411844" xlink:href="#mbb23304b77" y="54.155283"/>
     <use x="119.224172" xlink:href="#mbb23304b77" y="54.618356"/>
     <use x="129.036499" xlink:href="#mbb23304b77" y="52.936537"/>
     <use x="138.848827" xlink:href="#mbb23304b77" y="52.179576"/>
     <use x="148.661154" xlink:href="#mbb23304b77" y="52.161288"/>
     <use x="158.473481" xlink:href="#mbb23304b77" y="54.554546"/>
     <use x="168.285809" xlink:href="#mbb23304b77" y="52.647666"/>
     <use x="178.098136" xlink:href="#mbb23304b77" y="55.36947"/>
     <use x="187.910464" xlink:href="#mbb23304b77" y="53.565089"/>
     <use x="197.722791" xlink:href="#mbb23304b77" y="55.356149"/>
     <use x="207.535118" xlink:href="#mbb23304b77" y="54.021501"/>
     <use x="217.347446" xlink:href="#mbb23304b77" y="56.565864"/>
     <use x="227.159773" xlink:href="#mbb23304b77" y="56.100257"/>
     <use x="236.972101" xlink:href="#mbb23304b77" y="56.239625"/>
     <use x="246.784428" xlink:href="#mbb23304b77" y="57.814671"/>
     <use x="256.596756" xlink:href="#mbb23304b77" y="57.530246"/>
     <use x="266.409083" xlink:href="#mbb23304b77" y="59.381183"/>
     <use x="276.22141" xlink:href="#mbb23304b77" y="60.115776"/>
     <use x="286.033738" xlink:href="#mbb23304b77" y="60.474812"/>
     <use x="295.846065" xlink:href="#mbb23304b77" y="60.147654"/>
     <use x="305.658393" xlink:href="#mbb23304b77" y="63.006881"/>
     <use x="315.47072" xlink:href="#mbb23304b77" y="61.7384"/>
     <use x="325.283048" xlink:href="#mbb23304b77" y="63.402914"/>
     <use x="335.095375" xlink:href="#mbb23304b77" y="65.099181"/>
     <use x="344.907702" xlink:href="#mbb23304b77" y="66.375208"/>
     <use x="354.72003" xlink:href="#mbb23304b77" y="66.476251"/>
     <use x="364.532357" xlink:href="#mbb23304b77" y="64.143017"/>
     <use x="374.344685" xlink:href="#mbb23304b77" y="66.039492"/>
     <use x="384.157012" xlink:href="#mbb23304b77" y="63.705374"/>
     <use x="393.969339" xlink:href="#mbb23304b77" y="63.369354"/>
     <use x="403.781667" xlink:href="#mbb23304b77" y="66.587772"/>
     <use x="413.593994" xlink:href="#mbb23304b77" y="65.454325"/>
     <use x="423.406322" xlink:href="#mbb23304b77" y="64.805641"/>
     <use x="433.218649" xlink:href="#mbb23304b77" y="63.850013"/>
     <use x="443.030977" xlink:href="#mbb23304b77" y="61.844338"/>
     <use x="452.843304" xlink:href="#mbb23304b77" y="63.512375"/>
     <use x="462.655631" xlink:href="#mbb23304b77" y="64.712124"/>
     <use x="472.467959" xlink:href="#mbb23304b77" y="61.559981"/>
     <use x="482.280286" xlink:href="#mbb23304b77" y="61.160204"/>
     <use x="492.092614" xlink:href="#mbb23304b77" y="61.991558"/>
     <use x="501.904941" xlink:href="#mbb23304b77" y="59.162052"/>
     <use x="511.717269" xlink:href="#mbb23304b77" y="57.037363"/>
     <use x="521.529596" xlink:href="#mbb23304b77" y="57.466446"/>
     <use x="531.341923" xlink:href="#mbb23304b77" y="56.662377"/>
     <use x="541.154251" xlink:href="#mbb23304b77" y="55.587618"/>
     <use x="550.966578" xlink:href="#mbb23304b77" y="55.579914"/>
     <use x="560.778906" xlink:href="#mbb23304b77" y="56.61265"/>
     <use x="570.591233" xlink:href="#mbb23304b77" y="54.680666"/>
    </g>
   </g>
   <g id="line2d_16">
    <path clip-path="url(#p61546c32e8)" d="M 89.787189 72.362657 
L 99.599517 16.513957 
L 109.411844 13.804281 
L 119.224172 10.092695 
L 129.036499 6.630174 
L 138.848827 5.062307 
L 148.661154 6.784836 
L 158.473481 12.451291 
L 168.285809 21.928485 
L 178.098136 34.462775 
L 187.910464 48.595552 
L 197.722791 61.776007 
L 207.535118 70.282956 
L 217.347446 70.353214 
L 227.159773 60.577969 
L 236.972101 43.845503 
L 246.784428 26.386982 
L 256.596756 14.082413 
L 266.409083 9.520685 
L 276.22141 12.109626 
L 286.033738 19.817532 
L 295.846065 30.423065 
L 305.658393 41.838661 
L 315.47072 52.144091 
L 325.283048 59.892437 
L 335.095375 64.661378 
L 344.907702 67.297807 
L 354.72003 69.374696 
L 364.532357 72.135707 
L 374.344685 75.682836 
L 384.157012 78.797781 
L 393.969339 79.317693 
L 403.781667 75.004019 
L 413.593994 64.866804 
L 423.406322 50.442478 
L 433.218649 35.841142 
L 443.030977 25.791459 
L 452.843304 22.982385 
L 462.655631 27.107922 
L 472.467959 35.95191 
L 482.280286 46.735707 
L 492.092614 56.606373 
L 501.904941 62.706784 
L 511.717269 62.734194 
L 521.529596 56.138601 
L 531.341923 44.942075 
L 541.154251 32.989092 
L 550.966578 23.947381 
L 560.778906 19.701905 
L 570.591233 20.112513 
" style="fill:none;stroke:#ff0000;stroke-dasharray:3.7,1.6;stroke-dashoffset:0;"/>
   </g>
   <g id="patch_3">
    <path d="M 75.363068 81.545354 
L 75.363068 2.834646 
" style="fill:none;stroke:#000000;stroke-linecap:square;stroke-linejoin:miter;"/>
   </g>
   <g id="patch_4">
    <path d="M 585.015354 81.545354 
L 585.015354 2.834646 
" style="fill:none;stroke:#000000;stroke-linecap:square;stroke-linejoin:miter;"/>
   </g>
   <g id="patch_5">
    <path d="M 75.363068 81.545354 
L 585.015354 81.545354 
" style="fill:none;stroke:#000000;stroke-linecap:square;stroke-linejoin:miter;"/>
   </g>
   <g id="patch_6">
    <path d="M 75.363068 2.834646 
L 585.015354 2.834646 
" style="fill:none;stroke:#000000;stroke-linecap:square;stroke-linejoin:miter;"/>
   </g>
  </g>
  <g id="axes_2">
   <g id="patch_7">
    <path d="M 75.363068 165.925354 
L 585.015354 165.925354 
L 585.015354 87.214646 
L 75.363068 87.214646 
z
" style="fill:#ffffff;"/>
   </g>
   <g id="matplotlib.axis_3">
    <g id="xtick_7"/>
    <g id="xtick_8"/>
    <g id="xtick_9"/>
    <g id="xtick_10"/>
    <g id="xtick_11"/>
    <g id="xtick_12"/>
   </g>
   <g id="matplotlib.axis_4">
    <g id="ytick_6">
     <g id="line2d_17">
      <path clip-path="url(#pd3dad4cefc)" d="M 75.363068 158.88758 
L 585.015354 158.88758 
" style="fill:none;stroke:#000000;stroke-linecap:square;stroke-opacity:0.1;stroke-width:0.5;"/>
     </g>
     <g id="line2d_18">
      <g>
       <use style="stroke:#000000;stroke-width:0.5;" x="75.363068" xlink:href="#md23086aab2" y="158.88758"/>
      </g>
     </g>
     <g id="line2d_19">
      <g>
       <use style="stroke:#000000;stroke-width:0.5;" x="585.015354" xlink:href="#me1555cc470" y="158.88758"/>
      </g>
     </g>
     <g id="text_7">
      <!-- $\mathregular{0.0024}$ -->
      <g transform="translate(29.863068 163.446643)scale(0.12 -0.12)">
       <defs>
        <path d="M 10.6875 12.40625 
L 21 12.40625 
L 21 0 
L 10.6875 0 
z
" id="DejaVuSans-46"/>
       </defs>
       <use transform="translate(0 0.78125)" xlink:href="#DejaVuSans-48"/>
       <use transform="translate(63.623047 0.78125)" xlink:href="#DejaVuSans-46"/>
       <use transform="translate(95.410156 0.78125)" xlink:href="#DejaVuSans-48"/>
       <use transform="translate(159.033203 0.78125)" xlink:href="#DejaVuSans-48"/>
       <use transform="translate(222.65625 0.78125)" xlink:href="#DejaVuSans-50"/>
       <use transform="translate(286.279297 0.78125)" xlink:href="#DejaVuSans-52"/>
      </g>
     </g>
    </g>
    <g id="ytick_7">
     <g id="line2d_20">
      <path clip-path="url(#pd3dad4cefc)" d="M 75.363068 147.805428 
L 585.015354 147.805428 
" style="fill:none;stroke:#000000;stroke-linecap:square;stroke-opacity:0.1;stroke-width:0.5;"/>
     </g>
     <g id="line2d_21">
      <g>
       <use style="stroke:#000000;stroke-width:0.5;" x="75.363068" xlink:href="#md23086aab2" y="147.805428"/>
      </g>
     </g>
     <g id="line2d_22">
      <g>
       <use style="stroke:#000000;stroke-width:0.5;" x="585.015354" xlink:href="#me1555cc470" y="147.805428"/>
      </g>
     </g>
     <g id="text_8">
      <!-- $\mathregular{0.0025}$ -->
      <g transform="translate(29.863068 152.364491)scale(0.12 -0.12)">
       <defs>
        <path d="M 10.796875 72.90625 
L 49.515625 72.90625 
L 49.515625 64.59375 
L 19.828125 64.59375 
L 19.828125 46.734375 
Q 21.96875 47.46875 24.109375 47.828125 
Q 26.265625 48.1875 28.421875 48.1875 
Q 40.625 48.1875 47.75 41.5 
Q 54.890625 34.8125 54.890625 23.390625 
Q 54.890625 11.625 47.5625 5.09375 
Q 40.234375 -1.421875 26.90625 -1.421875 
Q 22.3125 -1.421875 17.546875 -0.640625 
Q 12.796875 0.140625 7.71875 1.703125 
L 7.71875 11.625 
Q 12.109375 9.234375 16.796875 8.0625 
Q 21.484375 6.890625 26.703125 6.890625 
Q 35.15625 6.890625 40.078125 11.328125 
Q 45.015625 15.765625 45.015625 23.390625 
Q 45.015625 31 40.078125 35.4375 
Q 35.15625 39.890625 26.703125 39.890625 
Q 22.75 39.890625 18.8125 39.015625 
Q 14.890625 38.140625 10.796875 36.28125 
z
" id="DejaVuSans-53"/>
       </defs>
       <use transform="translate(0 0.78125)" xlink:href="#DejaVuSans-48"/>
       <use transform="translate(63.623047 0.78125)" xlink:href="#DejaVuSans-46"/>
       <use transform="translate(95.410156 0.78125)" xlink:href="#DejaVuSans-48"/>
       <use transform="translate(159.033203 0.78125)" xlink:href="#DejaVuSans-48"/>
       <use transform="translate(222.65625 0.78125)" xlink:href="#DejaVuSans-50"/>
       <use transform="translate(286.279297 0.78125)" xlink:href="#DejaVuSans-53"/>
      </g>
     </g>
    </g>
    <g id="ytick_8">
     <g id="line2d_23">
      <path clip-path="url(#pd3dad4cefc)" d="M 75.363068 136.723276 
L 585.015354 136.723276 
" style="fill:none;stroke:#000000;stroke-linecap:square;stroke-opacity:0.1;stroke-width:0.5;"/>
     </g>
     <g id="line2d_24">
      <g>
       <use style="stroke:#000000;stroke-width:0.5;" x="75.363068" xlink:href="#md23086aab2" y="136.723276"/>
      </g>
     </g>
     <g id="line2d_25">
      <g>
       <use style="stroke:#000000;stroke-width:0.5;" x="585.015354" xlink:href="#me1555cc470" y="136.723276"/>
      </g>
     </g>
     <g id="text_9">
      <!-- $\mathregular{0.0026}$ -->
      <g transform="translate(29.863068 141.282338)scale(0.12 -0.12)">
       <use transform="translate(0 0.78125)" xlink:href="#DejaVuSans-48"/>
       <use transform="translate(63.623047 0.78125)" xlink:href="#DejaVuSans-46"/>
       <use transform="translate(95.410156 0.78125)" xlink:href="#DejaVuSans-48"/>
       <use transform="translate(159.033203 0.78125)" xlink:href="#DejaVuSans-48"/>
       <use transform="translate(222.65625 0.78125)" xlink:href="#DejaVuSans-50"/>
       <use transform="translate(286.279297 0.78125)" xlink:href="#DejaVuSans-54"/>
      </g>
     </g>
    </g>
    <g id="ytick_9">
     <g id="line2d_26">
      <path clip-path="url(#pd3dad4cefc)" d="M 75.363068 125.641123 
L 585.015354 125.641123 
" style="fill:none;stroke:#000000;stroke-linecap:square;stroke-opacity:0.1;stroke-width:0.5;"/>
     </g>
     <g id="line2d_27">
      <g>
       <use style="stroke:#000000;stroke-width:0.5;" x="75.363068" xlink:href="#md23086aab2" y="125.641123"/>
      </g>
     </g>
     <g id="line2d_28">
      <g>
       <use style="stroke:#000000;stroke-width:0.5;" x="585.015354" xlink:href="#me1555cc470" y="125.641123"/>
      </g>
     </g>
     <g id="text_10">
      <!-- $\mathregular{0.0027}$ -->
      <g transform="translate(29.863068 130.200186)scale(0.12 -0.12)">
       <defs>
        <path d="M 8.203125 72.90625 
L 55.078125 72.90625 
L 55.078125 68.703125 
L 28.609375 0 
L 18.3125 0 
L 43.21875 64.59375 
L 8.203125 64.59375 
z
" id="DejaVuSans-55"/>
       </defs>
       <use transform="translate(0 0.78125)" xlink:href="#DejaVuSans-48"/>
       <use transform="translate(63.623047 0.78125)" xlink:href="#DejaVuSans-46"/>
       <use transform="translate(95.410156 0.78125)" xlink:href="#DejaVuSans-48"/>
       <use transform="translate(159.033203 0.78125)" xlink:href="#DejaVuSans-48"/>
       <use transform="translate(222.65625 0.78125)" xlink:href="#DejaVuSans-50"/>
       <use transform="translate(286.279297 0.78125)" xlink:href="#DejaVuSans-55"/>
      </g>
     </g>
    </g>
    <g id="ytick_10">
     <g id="line2d_29">
      <path clip-path="url(#pd3dad4cefc)" d="M 75.363068 114.558971 
L 585.015354 114.558971 
" style="fill:none;stroke:#000000;stroke-linecap:square;stroke-opacity:0.1;stroke-width:0.5;"/>
     </g>
     <g id="line2d_30">
      <g>
       <use style="stroke:#000000;stroke-width:0.5;" x="75.363068" xlink:href="#md23086aab2" y="114.558971"/>
      </g>
     </g>
     <g id="line2d_31">
      <g>
       <use style="stroke:#000000;stroke-width:0.5;" x="585.015354" xlink:href="#me1555cc470" y="114.558971"/>
      </g>
     </g>
     <g id="text_11">
      <!-- $\mathregular{0.0028}$ -->
      <g transform="translate(29.863068 119.118033)scale(0.12 -0.12)">
       <use transform="translate(0 0.78125)" xlink:href="#DejaVuSans-48"/>
       <use transform="translate(63.623047 0.78125)" xlink:href="#DejaVuSans-46"/>
       <use transform="translate(95.410156 0.78125)" xlink:href="#DejaVuSans-48"/>
       <use transform="translate(159.033203 0.78125)" xlink:href="#DejaVuSans-48"/>
       <use transform="translate(222.65625 0.78125)" xlink:href="#DejaVuSans-50"/>
       <use transform="translate(286.279297 0.78125)" xlink:href="#DejaVuSans-56"/>
      </g>
     </g>
    </g>
    <g id="ytick_11">
     <g id="line2d_32">
      <path clip-path="url(#pd3dad4cefc)" d="M 75.363068 103.476819 
L 585.015354 103.476819 
" style="fill:none;stroke:#000000;stroke-linecap:square;stroke-opacity:0.1;stroke-width:0.5;"/>
     </g>
     <g id="line2d_33">
      <g>
       <use style="stroke:#000000;stroke-width:0.5;" x="75.363068" xlink:href="#md23086aab2" y="103.476819"/>
      </g>
     </g>
     <g id="line2d_34">
      <g>
       <use style="stroke:#000000;stroke-width:0.5;" x="585.015354" xlink:href="#me1555cc470" y="103.476819"/>
      </g>
     </g>
     <g id="text_12">
      <!-- $\mathregular{0.0029}$ -->
      <g transform="translate(29.983068 108.035881)scale(0.12 -0.12)">
       <defs>
        <path d="M 10.984375 1.515625 
L 10.984375 10.5 
Q 14.703125 8.734375 18.5 7.8125 
Q 22.3125 6.890625 25.984375 6.890625 
Q 35.75 6.890625 40.890625 13.453125 
Q 46.046875 20.015625 46.78125 33.40625 
Q 43.953125 29.203125 39.59375 26.953125 
Q 35.25 24.703125 29.984375 24.703125 
Q 19.046875 24.703125 12.671875 31.3125 
Q 6.296875 37.9375 6.296875 49.421875 
Q 6.296875 60.640625 12.9375 67.421875 
Q 19.578125 74.21875 30.609375 74.21875 
Q 43.265625 74.21875 49.921875 64.515625 
Q 56.59375 54.828125 56.59375 36.375 
Q 56.59375 19.140625 48.40625 8.859375 
Q 40.234375 -1.421875 26.421875 -1.421875 
Q 22.703125 -1.421875 18.890625 -0.6875 
Q 15.09375 0.046875 10.984375 1.515625 
z
M 30.609375 32.421875 
Q 37.25 32.421875 41.125 36.953125 
Q 45.015625 41.5 45.015625 49.421875 
Q 45.015625 57.28125 41.125 61.84375 
Q 37.25 66.40625 30.609375 66.40625 
Q 23.96875 66.40625 20.09375 61.84375 
Q 16.21875 57.28125 16.21875 49.421875 
Q 16.21875 41.5 20.09375 36.953125 
Q 23.96875 32.421875 30.609375 32.421875 
z
" id="DejaVuSans-57"/>
       </defs>
       <use transform="translate(0 0.78125)" xlink:href="#DejaVuSans-48"/>
       <use transform="translate(63.623047 0.78125)" xlink:href="#DejaVuSans-46"/>
       <use transform="translate(95.410156 0.78125)" xlink:href="#DejaVuSans-48"/>
       <use transform="translate(159.033203 0.78125)" xlink:href="#DejaVuSans-48"/>
       <use transform="translate(222.65625 0.78125)" xlink:href="#DejaVuSans-50"/>
       <use transform="translate(284.529297 0.78125)" xlink:href="#DejaVuSans-57"/>
      </g>
     </g>
    </g>
    <g id="ytick_12">
     <g id="line2d_35">
      <path clip-path="url(#pd3dad4cefc)" d="M 75.363068 92.394666 
L 585.015354 92.394666 
" style="fill:none;stroke:#000000;stroke-linecap:square;stroke-opacity:0.1;stroke-width:0.5;"/>
     </g>
     <g id="line2d_36">
      <g>
       <use style="stroke:#000000;stroke-width:0.5;" x="75.363068" xlink:href="#md23086aab2" y="92.394666"/>
      </g>
     </g>
     <g id="line2d_37">
      <g>
       <use style="stroke:#000000;stroke-width:0.5;" x="585.015354" xlink:href="#me1555cc470" y="92.394666"/>
      </g>
     </g>
     <g id="text_13">
      <!-- $\mathregular{0.0030}$ -->
      <g transform="translate(29.863068 96.953729)scale(0.12 -0.12)">
       <defs>
        <path d="M 40.578125 39.3125 
Q 47.65625 37.796875 51.625 33 
Q 55.609375 28.21875 55.609375 21.1875 
Q 55.609375 10.40625 48.1875 4.484375 
Q 40.765625 -1.421875 27.09375 -1.421875 
Q 22.515625 -1.421875 17.65625 -0.515625 
Q 12.796875 0.390625 7.625 2.203125 
L 7.625 11.71875 
Q 11.71875 9.328125 16.59375 8.109375 
Q 21.484375 6.890625 26.8125 6.890625 
Q 36.078125 6.890625 40.9375 10.546875 
Q 45.796875 14.203125 45.796875 21.1875 
Q 45.796875 27.640625 41.28125 31.265625 
Q 36.765625 34.90625 28.71875 34.90625 
L 20.21875 34.90625 
L 20.21875 43.015625 
L 29.109375 43.015625 
Q 36.375 43.015625 40.234375 45.921875 
Q 44.09375 48.828125 44.09375 54.296875 
Q 44.09375 59.90625 40.109375 62.90625 
Q 36.140625 65.921875 28.71875 65.921875 
Q 24.65625 65.921875 20.015625 65.03125 
Q 15.375 64.15625 9.8125 62.3125 
L 9.8125 71.09375 
Q 15.4375 72.65625 20.34375 73.4375 
Q 25.25 74.21875 29.59375 74.21875 
Q 40.828125 74.21875 47.359375 69.109375 
Q 53.90625 64.015625 53.90625 55.328125 
Q 53.90625 49.265625 50.4375 45.09375 
Q 46.96875 40.921875 40.578125 39.3125 
z
" id="DejaVuSans-51"/>
       </defs>
       <use transform="translate(0 0.78125)" xlink:href="#DejaVuSans-48"/>
       <use transform="translate(63.623047 0.78125)" xlink:href="#DejaVuSans-46"/>
       <use transform="translate(95.410156 0.78125)" xlink:href="#DejaVuSans-48"/>
       <use transform="translate(159.033203 0.78125)" xlink:href="#DejaVuSans-48"/>
       <use transform="translate(222.65625 0.78125)" xlink:href="#DejaVuSans-51"/>
       <use transform="translate(286.279297 0.78125)" xlink:href="#DejaVuSans-48"/>
      </g>
     </g>
    </g>
    <g id="text_14">
     <!-- $Y_{CO}$ -->
     <g transform="translate(22.535568 140.01)rotate(-90)scale(0.16 -0.16)">
      <defs>
       <path d="M 45.609375 66.21875 
Q 37.5 66.21875 31.296875 62.28125 
Q 25.09375 58.34375 20.515625 50.296875 
Q 17.578125 45.171875 16.03125 39.40625 
Q 14.5 33.640625 14.5 27.78125 
Q 14.5 17.625 19.359375 12.109375 
Q 24.21875 6.59375 33.109375 6.59375 
Q 41.109375 6.59375 47.375 10.5625 
Q 53.65625 14.546875 58.109375 22.40625 
Q 61.078125 27.6875 62.640625 33.46875 
Q 64.203125 39.265625 64.203125 45.015625 
Q 64.203125 55.125 59.3125 60.671875 
Q 54.4375 66.21875 45.609375 66.21875 
z
M 32.8125 -1.421875 
Q 19.390625 -1.421875 11.6875 6.53125 
Q 4 14.5 4 28.328125 
Q 4 36.234375 7 44.484375 
Q 10.015625 52.734375 15.28125 59.1875 
Q 21.484375 66.75 29.09375 70.484375 
Q 36.71875 74.21875 45.90625 74.21875 
Q 59.28125 74.21875 66.984375 66.328125 
Q 74.703125 58.453125 74.703125 44.828125 
Q 74.703125 36.421875 71.765625 28.3125 
Q 68.84375 20.21875 63.375 13.625 
Q 57.125 6 49.578125 2.28125 
Q 42.046875 -1.421875 32.8125 -1.421875 
z
" id="DejaVuSans-Oblique-79"/>
      </defs>
      <use transform="translate(0 0.09375)" xlink:href="#DejaVuSans-Oblique-89"/>
      <use transform="translate(61.083984 -16.3125)scale(0.7)" xlink:href="#DejaVuSans-Oblique-67"/>
      <use transform="translate(109.960938 -16.3125)scale(0.7)" xlink:href="#DejaVuSans-Oblique-79"/>
     </g>
    </g>
   </g>
   <g id="PathCollection_2">
    <g clip-path="url(#pd3dad4cefc)">
     <use x="89.787189" xlink:href="#mbb23304b77" y="89.442307"/>
     <use x="99.599517" xlink:href="#mbb23304b77" y="102.602171"/>
     <use x="109.411844" xlink:href="#mbb23304b77" y="109.134379"/>
     <use x="119.224172" xlink:href="#mbb23304b77" y="110.230848"/>
     <use x="129.036499" xlink:href="#mbb23304b77" y="112.674916"/>
     <use x="138.848827" xlink:href="#mbb23304b77" y="110.80072"/>
     <use x="148.661154" xlink:href="#mbb23304b77" y="109.559419"/>
     <use x="158.473481" xlink:href="#mbb23304b77" y="108.653939"/>
     <use x="168.285809" xlink:href="#mbb23304b77" y="112.651948"/>
     <use x="178.098136" xlink:href="#mbb23304b77" y="119.321484"/>
     <use x="187.910464" xlink:href="#mbb23304b77" y="121.24693"/>
     <use x="197.722791" xlink:href="#mbb23304b77" y="127.521755"/>
     <use x="207.535118" xlink:href="#mbb23304b77" y="129.449256"/>
     <use x="217.347446" xlink:href="#mbb23304b77" y="128.805825"/>
     <use x="227.159773" xlink:href="#mbb23304b77" y="127.666931"/>
     <use x="236.972101" xlink:href="#mbb23304b77" y="123.709584"/>
     <use x="246.784428" xlink:href="#mbb23304b77" y="117.979497"/>
     <use x="256.596756" xlink:href="#mbb23304b77" y="119.975315"/>
     <use x="266.409083" xlink:href="#mbb23304b77" y="121.982054"/>
     <use x="276.22141" xlink:href="#mbb23304b77" y="122.569205"/>
     <use x="286.033738" xlink:href="#mbb23304b77" y="129.242308"/>
     <use x="295.846065" xlink:href="#mbb23304b77" y="128.035543"/>
     <use x="305.658393" xlink:href="#mbb23304b77" y="125.737643"/>
     <use x="315.47072" xlink:href="#mbb23304b77" y="125.606976"/>
     <use x="325.283048" xlink:href="#mbb23304b77" y="122.532467"/>
     <use x="335.095375" xlink:href="#mbb23304b77" y="115.591663"/>
     <use x="344.907702" xlink:href="#mbb23304b77" y="111.176643"/>
     <use x="354.72003" xlink:href="#mbb23304b77" y="111.798232"/>
     <use x="364.532357" xlink:href="#mbb23304b77" y="110.718088"/>
     <use x="374.344685" xlink:href="#mbb23304b77" y="115.462047"/>
     <use x="384.157012" xlink:href="#mbb23304b77" y="117.939484"/>
     <use x="393.969339" xlink:href="#mbb23304b77" y="118.782163"/>
     <use x="403.781667" xlink:href="#mbb23304b77" y="119.94111"/>
     <use x="413.593994" xlink:href="#mbb23304b77" y="117.046139"/>
     <use x="423.406322" xlink:href="#mbb23304b77" y="112.476755"/>
     <use x="433.218649" xlink:href="#mbb23304b77" y="109.891533"/>
     <use x="443.030977" xlink:href="#mbb23304b77" y="106.391233"/>
     <use x="452.843304" xlink:href="#mbb23304b77" y="104.728704"/>
     <use x="462.655631" xlink:href="#mbb23304b77" y="107.31244"/>
     <use x="472.467959" xlink:href="#mbb23304b77" y="110.700442"/>
     <use x="482.280286" xlink:href="#mbb23304b77" y="118.175312"/>
     <use x="492.092614" xlink:href="#mbb23304b77" y="119.323011"/>
     <use x="501.904941" xlink:href="#mbb23304b77" y="120.400251"/>
     <use x="511.717269" xlink:href="#mbb23304b77" y="120.660454"/>
     <use x="521.529596" xlink:href="#mbb23304b77" y="115.595829"/>
     <use x="531.341923" xlink:href="#mbb23304b77" y="110.944067"/>
     <use x="541.154251" xlink:href="#mbb23304b77" y="114.699534"/>
     <use x="550.966578" xlink:href="#mbb23304b77" y="112.562443"/>
     <use x="560.778906" xlink:href="#mbb23304b77" y="117.001008"/>
     <use x="570.591233" xlink:href="#mbb23304b77" y="124.445109"/>
    </g>
   </g>
   <g id="line2d_38">
    <path clip-path="url(#pd3dad4cefc)" d="M 89.787189 89.89297 
L 99.599517 104.781661 
L 109.411844 119.162666 
L 119.224172 129.892604 
L 129.036499 138.18848 
L 138.848827 144.832098 
L 148.661154 150.350177 
L 158.473481 155.027129 
L 168.285809 158.900999 
L 178.098136 161.764145 
L 187.910464 163.200148 
L 197.722791 162.733861 
L 207.535118 160.143831 
L 217.347446 155.873318 
L 227.159773 151.277812 
L 236.972101 148.234759 
L 246.784428 148.044827 
L 256.596756 150.61 
L 266.409083 154.725951 
L 276.22141 158.955131 
L 286.033738 162.180408 
L 295.846065 163.697693 
L 305.658393 163.170988 
L 315.47072 160.660689 
L 325.283048 156.701367 
L 335.095375 152.256409 
L 344.907702 148.405532 
L 354.72003 145.848563 
L 364.532357 144.566043 
L 374.344685 143.875057 
L 384.157012 142.787251 
L 393.969339 140.462699 
L 403.781667 136.656798 
L 413.593994 132.028373 
L 423.406322 128.007406 
L 433.218649 126.030497 
L 443.030977 126.608328 
L 452.843304 129.084091 
L 462.655631 132.270028 
L 472.467959 135.187146 
L 482.280286 137.282762 
L 492.092614 138.32227 
L 501.904941 138.371798 
L 511.717269 137.925346 
L 521.529596 137.882716 
L 531.341923 139.138282 
L 541.154251 142.01305 
L 550.966578 146.061374 
L 560.778906 150.357033 
L 570.591233 153.908704 
" style="fill:none;stroke:#ff0000;stroke-dasharray:3.7,1.6;stroke-dashoffset:0;"/>
   </g>
   <g id="patch_8">
    <path d="M 75.363068 165.925354 
L 75.363068 87.214646 
" style="fill:none;stroke:#000000;stroke-linecap:square;stroke-linejoin:miter;"/>
   </g>
   <g id="patch_9">
    <path d="M 585.015354 165.925354 
L 585.015354 87.214646 
" style="fill:none;stroke:#000000;stroke-linecap:square;stroke-linejoin:miter;"/>
   </g>
   <g id="patch_10">
    <path d="M 75.363068 165.925354 
L 585.015354 165.925354 
" style="fill:none;stroke:#000000;stroke-linecap:square;stroke-linejoin:miter;"/>
   </g>
   <g id="patch_11">
    <path d="M 75.363068 87.214646 
L 585.015354 87.214646 
" style="fill:none;stroke:#000000;stroke-linecap:square;stroke-linejoin:miter;"/>
   </g>
   <g id="legend_1">
    <g id="line2d_39">
     <path d="M 600.615354 116.874375 
L 624.615354 116.874375 
" style="fill:none;"/>
    </g>
    <g id="line2d_40">
     <defs>
      <path d="M 0 4.8 
C 1.272975 4.8 2.493983 4.294242 3.394113 3.394113 
C 4.294242 2.493983 4.8 1.272975 4.8 0 
C 4.8 -1.272975 4.294242 -2.493983 3.394113 -3.394113 
C 2.493983 -4.294242 1.272975 -4.8 0 -4.8 
C -1.272975 -4.8 -2.493983 -4.294242 -3.394113 -3.394113 
C -4.294242 -2.493983 -4.8 -1.272975 -4.8 0 
C -4.8 1.272975 -4.294242 2.493983 -3.394113 3.394113 
C -2.493983 4.294242 -1.272975 4.8 0 4.8 
z
" id="m2137cca95e"/>
     </defs>
     <g>
      <use x="612.615354" xlink:href="#m2137cca95e" y="116.874375"/>
     </g>
    </g>
    <g id="text_15">
     <!-- Groundtruth -->
     <g transform="translate(634.215354 121.074375)scale(0.12 -0.12)">
      <defs>
       <path d="M 59.515625 10.40625 
L 59.515625 29.984375 
L 43.40625 29.984375 
L 43.40625 38.09375 
L 69.28125 38.09375 
L 69.28125 6.78125 
Q 63.578125 2.734375 56.6875 0.65625 
Q 49.8125 -1.421875 42 -1.421875 
Q 24.90625 -1.421875 15.25 8.5625 
Q 5.609375 18.5625 5.609375 36.375 
Q 5.609375 54.25 15.25 64.234375 
Q 24.90625 74.21875 42 74.21875 
Q 49.125 74.21875 55.546875 72.453125 
Q 61.96875 70.703125 67.390625 67.28125 
L 67.390625 56.78125 
Q 61.921875 61.421875 55.765625 63.765625 
Q 49.609375 66.109375 42.828125 66.109375 
Q 29.4375 66.109375 22.71875 58.640625 
Q 16.015625 51.171875 16.015625 36.375 
Q 16.015625 21.625 22.71875 14.15625 
Q 29.4375 6.6875 42.828125 6.6875 
Q 48.046875 6.6875 52.140625 7.59375 
Q 56.25 8.5 59.515625 10.40625 
z
" id="DejaVuSans-71"/>
       <path d="M 41.109375 46.296875 
Q 39.59375 47.171875 37.8125 47.578125 
Q 36.03125 48 33.890625 48 
Q 26.265625 48 22.1875 43.046875 
Q 18.109375 38.09375 18.109375 28.8125 
L 18.109375 0 
L 9.078125 0 
L 9.078125 54.6875 
L 18.109375 54.6875 
L 18.109375 46.1875 
Q 20.953125 51.171875 25.484375 53.578125 
Q 30.03125 56 36.53125 56 
Q 37.453125 56 38.578125 55.875 
Q 39.703125 55.765625 41.0625 55.515625 
z
" id="DejaVuSans-114"/>
       <path d="M 30.609375 48.390625 
Q 23.390625 48.390625 19.1875 42.75 
Q 14.984375 37.109375 14.984375 27.296875 
Q 14.984375 17.484375 19.15625 11.84375 
Q 23.34375 6.203125 30.609375 6.203125 
Q 37.796875 6.203125 41.984375 11.859375 
Q 46.1875 17.53125 46.1875 27.296875 
Q 46.1875 37.015625 41.984375 42.703125 
Q 37.796875 48.390625 30.609375 48.390625 
z
M 30.609375 56 
Q 42.328125 56 49.015625 48.375 
Q 55.71875 40.765625 55.71875 27.296875 
Q 55.71875 13.875 49.015625 6.21875 
Q 42.328125 -1.421875 30.609375 -1.421875 
Q 18.84375 -1.421875 12.171875 6.21875 
Q 5.515625 13.875 5.515625 27.296875 
Q 5.515625 40.765625 12.171875 48.375 
Q 18.84375 56 30.609375 56 
z
" id="DejaVuSans-111"/>
       <path d="M 8.5 21.578125 
L 8.5 54.6875 
L 17.484375 54.6875 
L 17.484375 21.921875 
Q 17.484375 14.15625 20.5 10.265625 
Q 23.53125 6.390625 29.59375 6.390625 
Q 36.859375 6.390625 41.078125 11.03125 
Q 45.3125 15.671875 45.3125 23.6875 
L 45.3125 54.6875 
L 54.296875 54.6875 
L 54.296875 0 
L 45.3125 0 
L 45.3125 8.40625 
Q 42.046875 3.421875 37.71875 1 
Q 33.40625 -1.421875 27.6875 -1.421875 
Q 18.265625 -1.421875 13.375 4.4375 
Q 8.5 10.296875 8.5 21.578125 
z
M 31.109375 56 
z
" id="DejaVuSans-117"/>
       <path d="M 54.890625 33.015625 
L 54.890625 0 
L 45.90625 0 
L 45.90625 32.71875 
Q 45.90625 40.484375 42.875 44.328125 
Q 39.84375 48.1875 33.796875 48.1875 
Q 26.515625 48.1875 22.3125 43.546875 
Q 18.109375 38.921875 18.109375 30.90625 
L 18.109375 0 
L 9.078125 0 
L 9.078125 54.6875 
L 18.109375 54.6875 
L 18.109375 46.1875 
Q 21.34375 51.125 25.703125 53.5625 
Q 30.078125 56 35.796875 56 
Q 45.21875 56 50.046875 50.171875 
Q 54.890625 44.34375 54.890625 33.015625 
z
" id="DejaVuSans-110"/>
       <path d="M 45.40625 46.390625 
L 45.40625 75.984375 
L 54.390625 75.984375 
L 54.390625 0 
L 45.40625 0 
L 45.40625 8.203125 
Q 42.578125 3.328125 38.25 0.953125 
Q 33.9375 -1.421875 27.875 -1.421875 
Q 17.96875 -1.421875 11.734375 6.484375 
Q 5.515625 14.40625 5.515625 27.296875 
Q 5.515625 40.1875 11.734375 48.09375 
Q 17.96875 56 27.875 56 
Q 33.9375 56 38.25 53.625 
Q 42.578125 51.265625 45.40625 46.390625 
z
M 14.796875 27.296875 
Q 14.796875 17.390625 18.875 11.75 
Q 22.953125 6.109375 30.078125 6.109375 
Q 37.203125 6.109375 41.296875 11.75 
Q 45.40625 17.390625 45.40625 27.296875 
Q 45.40625 37.203125 41.296875 42.84375 
Q 37.203125 48.484375 30.078125 48.484375 
Q 22.953125 48.484375 18.875 42.84375 
Q 14.796875 37.203125 14.796875 27.296875 
z
" id="DejaVuSans-100"/>
       <path d="M 18.3125 70.21875 
L 18.3125 54.6875 
L 36.8125 54.6875 
L 36.8125 47.703125 
L 18.3125 47.703125 
L 18.3125 18.015625 
Q 18.3125 11.328125 20.140625 9.421875 
Q 21.96875 7.515625 27.59375 7.515625 
L 36.8125 7.515625 
L 36.8125 0 
L 27.59375 0 
Q 17.1875 0 13.234375 3.875 
Q 9.28125 7.765625 9.28125 18.015625 
L 9.28125 47.703125 
L 2.6875 47.703125 
L 2.6875 54.6875 
L 9.28125 54.6875 
L 9.28125 70.21875 
z
" id="DejaVuSans-116"/>
       <path d="M 54.890625 33.015625 
L 54.890625 0 
L 45.90625 0 
L 45.90625 32.71875 
Q 45.90625 40.484375 42.875 44.328125 
Q 39.84375 48.1875 33.796875 48.1875 
Q 26.515625 48.1875 22.3125 43.546875 
Q 18.109375 38.921875 18.109375 30.90625 
L 18.109375 0 
L 9.078125 0 
L 9.078125 75.984375 
L 18.109375 75.984375 
L 18.109375 46.1875 
Q 21.34375 51.125 25.703125 53.5625 
Q 30.078125 56 35.796875 56 
Q 45.21875 56 50.046875 50.171875 
Q 54.890625 44.34375 54.890625 33.015625 
z
" id="DejaVuSans-104"/>
      </defs>
      <use xlink:href="#DejaVuSans-71"/>
      <use x="77.490234" xlink:href="#DejaVuSans-114"/>
      <use x="116.353516" xlink:href="#DejaVuSans-111"/>
      <use x="177.535156" xlink:href="#DejaVuSans-117"/>
      <use x="240.914062" xlink:href="#DejaVuSans-110"/>
      <use x="304.292969" xlink:href="#DejaVuSans-100"/>
      <use x="367.769531" xlink:href="#DejaVuSans-116"/>
      <use x="406.978516" xlink:href="#DejaVuSans-114"/>
      <use x="448.091797" xlink:href="#DejaVuSans-117"/>
      <use x="511.470703" xlink:href="#DejaVuSans-116"/>
      <use x="550.679688" xlink:href="#DejaVuSans-104"/>
     </g>
    </g>
    <g id="line2d_41">
     <path d="M 600.615354 134.488125 
L 624.615354 134.488125 
" style="fill:none;stroke:#ff0000;stroke-dasharray:5.55,2.4;stroke-dashoffset:0;stroke-linejoin:miter;stroke-width:1.5;"/>
    </g>
    <g id="line2d_42"/>
    <g id="text_16">
     <!-- Initial -->
     <g transform="translate(634.215354 138.688125)scale(0.12 -0.12)">
      <defs>
       <path d="M 9.8125 72.90625 
L 19.671875 72.90625 
L 19.671875 0 
L 9.8125 0 
z
" id="DejaVuSans-73"/>
       <path d="M 9.421875 54.6875 
L 18.40625 54.6875 
L 18.40625 0 
L 9.421875 0 
z
M 9.421875 75.984375 
L 18.40625 75.984375 
L 18.40625 64.59375 
L 9.421875 64.59375 
z
" id="DejaVuSans-105"/>
       <path d="M 34.28125 27.484375 
Q 23.390625 27.484375 19.1875 25 
Q 14.984375 22.515625 14.984375 16.5 
Q 14.984375 11.71875 18.140625 8.90625 
Q 21.296875 6.109375 26.703125 6.109375 
Q 34.1875 6.109375 38.703125 11.40625 
Q 43.21875 16.703125 43.21875 25.484375 
L 43.21875 27.484375 
z
M 52.203125 31.203125 
L 52.203125 0 
L 43.21875 0 
L 43.21875 8.296875 
Q 40.140625 3.328125 35.546875 0.953125 
Q 30.953125 -1.421875 24.3125 -1.421875 
Q 15.921875 -1.421875 10.953125 3.296875 
Q 6 8.015625 6 15.921875 
Q 6 25.140625 12.171875 29.828125 
Q 18.359375 34.515625 30.609375 34.515625 
L 43.21875 34.515625 
L 43.21875 35.40625 
Q 43.21875 41.609375 39.140625 45 
Q 35.0625 48.390625 27.6875 48.390625 
Q 23 48.390625 18.546875 47.265625 
Q 14.109375 46.140625 10.015625 43.890625 
L 10.015625 52.203125 
Q 14.9375 54.109375 19.578125 55.046875 
Q 24.21875 56 28.609375 56 
Q 40.484375 56 46.34375 49.84375 
Q 52.203125 43.703125 52.203125 31.203125 
z
" id="DejaVuSans-97"/>
       <path d="M 9.421875 75.984375 
L 18.40625 75.984375 
L 18.40625 0 
L 9.421875 0 
z
" id="DejaVuSans-108"/>
      </defs>
      <use xlink:href="#DejaVuSans-73"/>
      <use x="29.492188" xlink:href="#DejaVuSans-110"/>
      <use x="92.871094" xlink:href="#DejaVuSans-105"/>
      <use x="120.654297" xlink:href="#DejaVuSans-116"/>
      <use x="159.863281" xlink:href="#DejaVuSans-105"/>
      <use x="187.646484" xlink:href="#DejaVuSans-97"/>
      <use x="248.925781" xlink:href="#DejaVuSans-108"/>
     </g>
    </g>
   </g>
  </g>
  <g id="axes_3">
   <g id="patch_12">
    <path d="M 75.363068 250.305354 
L 585.015354 250.305354 
L 585.015354 171.594646 
L 75.363068 171.594646 
z
" style="fill:#ffffff;"/>
   </g>
   <g id="matplotlib.axis_5">
    <g id="xtick_13">
     <g id="line2d_43">
      <path clip-path="url(#p1332a5d057)" d="M 89.787189 250.305354 
L 89.787189 171.594646 
" style="fill:none;stroke:#000000;stroke-linecap:square;stroke-opacity:0.1;stroke-width:0.5;"/>
     </g>
     <g id="line2d_44">
      <defs>
       <path d="M 0 0 
L 0 -2.5 
" id="mcec2273128" style="stroke:#000000;stroke-width:0.5;"/>
      </defs>
      <g>
       <use style="stroke:#000000;stroke-width:0.5;" x="89.787189" xlink:href="#mcec2273128" y="250.305354"/>
      </g>
     </g>
     <g id="line2d_45">
      <defs>
       <path d="M 0 0 
L 0 2.5 
" id="m21c28be4b4" style="stroke:#000000;stroke-width:0.5;"/>
      </defs>
      <g>
       <use style="stroke:#000000;stroke-width:0.5;" x="89.787189" xlink:href="#m21c28be4b4" y="171.594646"/>
      </g>
     </g>
     <g id="text_17">
      <!-- $\mathregular{0}$ -->
      <g transform="translate(85.947189 262.923479)scale(0.12 -0.12)">
       <use transform="translate(0 0.78125)" xlink:href="#DejaVuSans-48"/>
      </g>
     </g>
    </g>
    <g id="xtick_14">
     <g id="line2d_46">
      <path clip-path="url(#p1332a5d057)" d="M 185.947998 250.305354 
L 185.947998 171.594646 
" style="fill:none;stroke:#000000;stroke-linecap:square;stroke-opacity:0.1;stroke-width:0.5;"/>
     </g>
     <g id="line2d_47">
      <g>
       <use style="stroke:#000000;stroke-width:0.5;" x="185.947998" xlink:href="#mcec2273128" y="250.305354"/>
      </g>
     </g>
     <g id="line2d_48">
      <g>
       <use style="stroke:#000000;stroke-width:0.5;" x="185.947998" xlink:href="#m21c28be4b4" y="171.594646"/>
      </g>
     </g>
     <g id="text_18">
      <!-- $\mathregular{1}$ -->
      <g transform="translate(182.107998 262.923479)scale(0.12 -0.12)">
       <use transform="translate(0 0.09375)" xlink:href="#DejaVuSans-49"/>
      </g>
     </g>
    </g>
    <g id="xtick_15">
     <g id="line2d_49">
      <path clip-path="url(#p1332a5d057)" d="M 282.108807 250.305354 
L 282.108807 171.594646 
" style="fill:none;stroke:#000000;stroke-linecap:square;stroke-opacity:0.1;stroke-width:0.5;"/>
     </g>
     <g id="line2d_50">
      <g>
       <use style="stroke:#000000;stroke-width:0.5;" x="282.108807" xlink:href="#mcec2273128" y="250.305354"/>
      </g>
     </g>
     <g id="line2d_51">
      <g>
       <use style="stroke:#000000;stroke-width:0.5;" x="282.108807" xlink:href="#m21c28be4b4" y="171.594646"/>
      </g>
     </g>
     <g id="text_19">
      <!-- $\mathregular{2}$ -->
      <g transform="translate(278.268807 262.923479)scale(0.12 -0.12)">
       <use transform="translate(0 0.78125)" xlink:href="#DejaVuSans-50"/>
      </g>
     </g>
    </g>
    <g id="xtick_16">
     <g id="line2d_52">
      <path clip-path="url(#p1332a5d057)" d="M 378.269616 250.305354 
L 378.269616 171.594646 
" style="fill:none;stroke:#000000;stroke-linecap:square;stroke-opacity:0.1;stroke-width:0.5;"/>
     </g>
     <g id="line2d_53">
      <g>
       <use style="stroke:#000000;stroke-width:0.5;" x="378.269616" xlink:href="#mcec2273128" y="250.305354"/>
      </g>
     </g>
     <g id="line2d_54">
      <g>
       <use style="stroke:#000000;stroke-width:0.5;" x="378.269616" xlink:href="#m21c28be4b4" y="171.594646"/>
      </g>
     </g>
     <g id="text_20">
      <!-- $\mathregular{3}$ -->
      <g transform="translate(374.429616 262.923479)scale(0.12 -0.12)">
       <use transform="translate(0 0.78125)" xlink:href="#DejaVuSans-51"/>
      </g>
     </g>
    </g>
    <g id="xtick_17">
     <g id="line2d_55">
      <path clip-path="url(#p1332a5d057)" d="M 474.430424 250.305354 
L 474.430424 171.594646 
" style="fill:none;stroke:#000000;stroke-linecap:square;stroke-opacity:0.1;stroke-width:0.5;"/>
     </g>
     <g id="line2d_56">
      <g>
       <use style="stroke:#000000;stroke-width:0.5;" x="474.430424" xlink:href="#mcec2273128" y="250.305354"/>
      </g>
     </g>
     <g id="line2d_57">
      <g>
       <use style="stroke:#000000;stroke-width:0.5;" x="474.430424" xlink:href="#m21c28be4b4" y="171.594646"/>
      </g>
     </g>
     <g id="text_21">
      <!-- $\mathregular{4}$ -->
      <g transform="translate(470.590424 262.923479)scale(0.12 -0.12)">
       <use transform="translate(0 0.09375)" xlink:href="#DejaVuSans-52"/>
      </g>
     </g>
    </g>
    <g id="xtick_18">
     <g id="line2d_58">
      <path clip-path="url(#p1332a5d057)" d="M 570.591233 250.305354 
L 570.591233 171.594646 
" style="fill:none;stroke:#000000;stroke-linecap:square;stroke-opacity:0.1;stroke-width:0.5;"/>
     </g>
     <g id="line2d_59">
      <g>
       <use style="stroke:#000000;stroke-width:0.5;" x="570.591233" xlink:href="#mcec2273128" y="250.305354"/>
      </g>
     </g>
     <g id="line2d_60">
      <g>
       <use style="stroke:#000000;stroke-width:0.5;" x="570.591233" xlink:href="#m21c28be4b4" y="171.594646"/>
      </g>
     </g>
     <g id="text_22">
      <!-- $\mathregular{5}$ -->
      <g transform="translate(566.751233 262.923479)scale(0.12 -0.12)">
       <use transform="translate(0 0.09375)" xlink:href="#DejaVuSans-53"/>
      </g>
     </g>
    </g>
    <g id="text_23">
     <!-- Time [s] -->
     <g transform="translate(297.662961 281.576604)scale(0.16 -0.16)">
      <defs>
       <path d="M -0.296875 72.90625 
L 61.375 72.90625 
L 61.375 64.59375 
L 35.5 64.59375 
L 35.5 0 
L 25.59375 0 
L 25.59375 64.59375 
L -0.296875 64.59375 
z
" id="DejaVuSans-84"/>
       <path d="M 52 44.1875 
Q 55.375 50.25 60.0625 53.125 
Q 64.75 56 71.09375 56 
Q 79.640625 56 84.28125 50.015625 
Q 88.921875 44.046875 88.921875 33.015625 
L 88.921875 0 
L 79.890625 0 
L 79.890625 32.71875 
Q 79.890625 40.578125 77.09375 44.375 
Q 74.3125 48.1875 68.609375 48.1875 
Q 61.625 48.1875 57.5625 43.546875 
Q 53.515625 38.921875 53.515625 30.90625 
L 53.515625 0 
L 44.484375 0 
L 44.484375 32.71875 
Q 44.484375 40.625 41.703125 44.40625 
Q 38.921875 48.1875 33.109375 48.1875 
Q 26.21875 48.1875 22.15625 43.53125 
Q 18.109375 38.875 18.109375 30.90625 
L 18.109375 0 
L 9.078125 0 
L 9.078125 54.6875 
L 18.109375 54.6875 
L 18.109375 46.1875 
Q 21.1875 51.21875 25.484375 53.609375 
Q 29.78125 56 35.6875 56 
Q 41.65625 56 45.828125 52.96875 
Q 50 49.953125 52 44.1875 
z
" id="DejaVuSans-109"/>
       <path d="M 56.203125 29.59375 
L 56.203125 25.203125 
L 14.890625 25.203125 
Q 15.484375 15.921875 20.484375 11.0625 
Q 25.484375 6.203125 34.421875 6.203125 
Q 39.59375 6.203125 44.453125 7.46875 
Q 49.3125 8.734375 54.109375 11.28125 
L 54.109375 2.78125 
Q 49.265625 0.734375 44.1875 -0.34375 
Q 39.109375 -1.421875 33.890625 -1.421875 
Q 20.796875 -1.421875 13.15625 6.1875 
Q 5.515625 13.8125 5.515625 26.8125 
Q 5.515625 40.234375 12.765625 48.109375 
Q 20.015625 56 32.328125 56 
Q 43.359375 56 49.78125 48.890625 
Q 56.203125 41.796875 56.203125 29.59375 
z
M 47.21875 32.234375 
Q 47.125 39.59375 43.09375 43.984375 
Q 39.0625 48.390625 32.421875 48.390625 
Q 24.90625 48.390625 20.390625 44.140625 
Q 15.875 39.890625 15.1875 32.171875 
z
" id="DejaVuSans-101"/>
       <path id="DejaVuSans-32"/>
       <path d="M 8.59375 75.984375 
L 29.296875 75.984375 
L 29.296875 69 
L 17.578125 69 
L 17.578125 -6.203125 
L 29.296875 -6.203125 
L 29.296875 -13.1875 
L 8.59375 -13.1875 
z
" id="DejaVuSans-91"/>
       <path d="M 44.28125 53.078125 
L 44.28125 44.578125 
Q 40.484375 46.53125 36.375 47.5 
Q 32.28125 48.484375 27.875 48.484375 
Q 21.1875 48.484375 17.84375 46.4375 
Q 14.5 44.390625 14.5 40.28125 
Q 14.5 37.15625 16.890625 35.375 
Q 19.28125 33.59375 26.515625 31.984375 
L 29.59375 31.296875 
Q 39.15625 29.25 43.1875 25.515625 
Q 47.21875 21.78125 47.21875 15.09375 
Q 47.21875 7.46875 41.1875 3.015625 
Q 35.15625 -1.421875 24.609375 -1.421875 
Q 20.21875 -1.421875 15.453125 -0.5625 
Q 10.6875 0.296875 5.421875 2 
L 5.421875 11.28125 
Q 10.40625 8.6875 15.234375 7.390625 
Q 20.0625 6.109375 24.8125 6.109375 
Q 31.15625 6.109375 34.5625 8.28125 
Q 37.984375 10.453125 37.984375 14.40625 
Q 37.984375 18.0625 35.515625 20.015625 
Q 33.0625 21.96875 24.703125 23.78125 
L 21.578125 24.515625 
Q 13.234375 26.265625 9.515625 29.90625 
Q 5.8125 33.546875 5.8125 39.890625 
Q 5.8125 47.609375 11.28125 51.796875 
Q 16.75 56 26.8125 56 
Q 31.78125 56 36.171875 55.265625 
Q 40.578125 54.546875 44.28125 53.078125 
z
" id="DejaVuSans-115"/>
       <path d="M 30.421875 75.984375 
L 30.421875 -13.1875 
L 9.71875 -13.1875 
L 9.71875 -6.203125 
L 21.390625 -6.203125 
L 21.390625 69 
L 9.71875 69 
L 9.71875 75.984375 
z
" id="DejaVuSans-93"/>
      </defs>
      <use xlink:href="#DejaVuSans-84"/>
      <use x="57.958984" xlink:href="#DejaVuSans-105"/>
      <use x="85.742188" xlink:href="#DejaVuSans-109"/>
      <use x="183.154297" xlink:href="#DejaVuSans-101"/>
      <use x="244.677734" xlink:href="#DejaVuSans-32"/>
      <use x="276.464844" xlink:href="#DejaVuSans-91"/>
      <use x="315.478516" xlink:href="#DejaVuSans-115"/>
      <use x="367.578125" xlink:href="#DejaVuSans-93"/>
     </g>
    </g>
   </g>
   <g id="matplotlib.axis_6">
    <g id="ytick_13">
     <g id="line2d_61">
      <path clip-path="url(#p1332a5d057)" d="M 75.363068 240.056225 
L 585.015354 240.056225 
" style="fill:none;stroke:#000000;stroke-linecap:square;stroke-opacity:0.1;stroke-width:0.5;"/>
     </g>
     <g id="line2d_62">
      <g>
       <use style="stroke:#000000;stroke-width:0.5;" x="75.363068" xlink:href="#md23086aab2" y="240.056225"/>
      </g>
     </g>
     <g id="line2d_63">
      <g>
       <use style="stroke:#000000;stroke-width:0.5;" x="585.015354" xlink:href="#me1555cc470" y="240.056225"/>
      </g>
     </g>
     <g id="text_24">
      <!-- $\mathregular{1070}$ -->
      <g transform="translate(41.263068 244.615288)scale(0.12 -0.12)">
       <use transform="translate(0 0.78125)" xlink:href="#DejaVuSans-49"/>
       <use transform="translate(63.623047 0.78125)" xlink:href="#DejaVuSans-48"/>
       <use transform="translate(127.246094 0.78125)" xlink:href="#DejaVuSans-55"/>
       <use transform="translate(190.869141 0.78125)" xlink:href="#DejaVuSans-48"/>
      </g>
     </g>
    </g>
    <g id="ytick_14">
     <g id="line2d_64">
      <path clip-path="url(#p1332a5d057)" d="M 75.363068 227.993837 
L 585.015354 227.993837 
" style="fill:none;stroke:#000000;stroke-linecap:square;stroke-opacity:0.1;stroke-width:0.5;"/>
     </g>
     <g id="line2d_65">
      <g>
       <use style="stroke:#000000;stroke-width:0.5;" x="75.363068" xlink:href="#md23086aab2" y="227.993837"/>
      </g>
     </g>
     <g id="line2d_66">
      <g>
       <use style="stroke:#000000;stroke-width:0.5;" x="585.015354" xlink:href="#me1555cc470" y="227.993837"/>
      </g>
     </g>
     <g id="text_25">
      <!-- $\mathregular{1080}$ -->
      <g transform="translate(41.263068 232.552899)scale(0.12 -0.12)">
       <use transform="translate(0 0.78125)" xlink:href="#DejaVuSans-49"/>
       <use transform="translate(63.623047 0.78125)" xlink:href="#DejaVuSans-48"/>
       <use transform="translate(127.246094 0.78125)" xlink:href="#DejaVuSans-56"/>
       <use transform="translate(190.869141 0.78125)" xlink:href="#DejaVuSans-48"/>
      </g>
     </g>
    </g>
    <g id="ytick_15">
     <g id="line2d_67">
      <path clip-path="url(#p1332a5d057)" d="M 75.363068 215.931448 
L 585.015354 215.931448 
" style="fill:none;stroke:#000000;stroke-linecap:square;stroke-opacity:0.1;stroke-width:0.5;"/>
     </g>
     <g id="line2d_68">
      <g>
       <use style="stroke:#000000;stroke-width:0.5;" x="75.363068" xlink:href="#md23086aab2" y="215.931448"/>
      </g>
     </g>
     <g id="line2d_69">
      <g>
       <use style="stroke:#000000;stroke-width:0.5;" x="585.015354" xlink:href="#me1555cc470" y="215.931448"/>
      </g>
     </g>
     <g id="text_26">
      <!-- $\mathregular{1090}$ -->
      <g transform="translate(41.263068 220.49051)scale(0.12 -0.12)">
       <use transform="translate(0 0.78125)" xlink:href="#DejaVuSans-49"/>
       <use transform="translate(63.623047 0.78125)" xlink:href="#DejaVuSans-48"/>
       <use transform="translate(127.246094 0.78125)" xlink:href="#DejaVuSans-57"/>
       <use transform="translate(190.869141 0.78125)" xlink:href="#DejaVuSans-48"/>
      </g>
     </g>
    </g>
    <g id="ytick_16">
     <g id="line2d_70">
      <path clip-path="url(#p1332a5d057)" d="M 75.363068 203.869059 
L 585.015354 203.869059 
" style="fill:none;stroke:#000000;stroke-linecap:square;stroke-opacity:0.1;stroke-width:0.5;"/>
     </g>
     <g id="line2d_71">
      <g>
       <use style="stroke:#000000;stroke-width:0.5;" x="75.363068" xlink:href="#md23086aab2" y="203.869059"/>
      </g>
     </g>
     <g id="line2d_72">
      <g>
       <use style="stroke:#000000;stroke-width:0.5;" x="585.015354" xlink:href="#me1555cc470" y="203.869059"/>
      </g>
     </g>
     <g id="text_27">
      <!-- $\mathregular{1100}$ -->
      <g transform="translate(41.263068 208.428122)scale(0.12 -0.12)">
       <use transform="translate(0 0.78125)" xlink:href="#DejaVuSans-49"/>
       <use transform="translate(63.623047 0.78125)" xlink:href="#DejaVuSans-49"/>
       <use transform="translate(127.246094 0.78125)" xlink:href="#DejaVuSans-48"/>
       <use transform="translate(190.869141 0.78125)" xlink:href="#DejaVuSans-48"/>
      </g>
     </g>
    </g>
    <g id="ytick_17">
     <g id="line2d_73">
      <path clip-path="url(#p1332a5d057)" d="M 75.363068 191.806671 
L 585.015354 191.806671 
" style="fill:none;stroke:#000000;stroke-linecap:square;stroke-opacity:0.1;stroke-width:0.5;"/>
     </g>
     <g id="line2d_74">
      <g>
       <use style="stroke:#000000;stroke-width:0.5;" x="75.363068" xlink:href="#md23086aab2" y="191.806671"/>
      </g>
     </g>
     <g id="line2d_75">
      <g>
       <use style="stroke:#000000;stroke-width:0.5;" x="585.015354" xlink:href="#me1555cc470" y="191.806671"/>
      </g>
     </g>
     <g id="text_28">
      <!-- $\mathregular{1110}$ -->
      <g transform="translate(41.263068 196.365733)scale(0.12 -0.12)">
       <use transform="translate(0 0.78125)" xlink:href="#DejaVuSans-49"/>
       <use transform="translate(63.623047 0.78125)" xlink:href="#DejaVuSans-49"/>
       <use transform="translate(127.246094 0.78125)" xlink:href="#DejaVuSans-49"/>
       <use transform="translate(190.869141 0.78125)" xlink:href="#DejaVuSans-48"/>
      </g>
     </g>
    </g>
    <g id="ytick_18">
     <g id="line2d_76">
      <path clip-path="url(#p1332a5d057)" d="M 75.363068 179.744282 
L 585.015354 179.744282 
" style="fill:none;stroke:#000000;stroke-linecap:square;stroke-opacity:0.1;stroke-width:0.5;"/>
     </g>
     <g id="line2d_77">
      <g>
       <use style="stroke:#000000;stroke-width:0.5;" x="75.363068" xlink:href="#md23086aab2" y="179.744282"/>
      </g>
     </g>
     <g id="line2d_78">
      <g>
       <use style="stroke:#000000;stroke-width:0.5;" x="585.015354" xlink:href="#me1555cc470" y="179.744282"/>
      </g>
     </g>
     <g id="text_29">
      <!-- $\mathregular{1120}$ -->
      <g transform="translate(41.263068 184.303345)scale(0.12 -0.12)">
       <use transform="translate(0 0.78125)" xlink:href="#DejaVuSans-49"/>
       <use transform="translate(63.623047 0.78125)" xlink:href="#DejaVuSans-49"/>
       <use transform="translate(127.246094 0.78125)" xlink:href="#DejaVuSans-50"/>
       <use transform="translate(190.869141 0.78125)" xlink:href="#DejaVuSans-48"/>
      </g>
     </g>
    </g>
    <g id="text_30">
     <!-- T [K] -->
     <g transform="translate(33.935568 229.8675)rotate(-90)scale(0.16 -0.16)">
      <defs>
       <path d="M 9.8125 72.90625 
L 19.671875 72.90625 
L 19.671875 42.09375 
L 52.390625 72.90625 
L 65.09375 72.90625 
L 28.90625 38.921875 
L 67.671875 0 
L 54.6875 0 
L 19.671875 35.109375 
L 19.671875 0 
L 9.8125 0 
z
" id="DejaVuSans-75"/>
      </defs>
      <use xlink:href="#DejaVuSans-84"/>
      <use x="61.083984" xlink:href="#DejaVuSans-32"/>
      <use x="92.871094" xlink:href="#DejaVuSans-91"/>
      <use x="131.884766" xlink:href="#DejaVuSans-75"/>
      <use x="197.460938" xlink:href="#DejaVuSans-93"/>
     </g>
    </g>
   </g>
   <g id="PathCollection_3">
    <g clip-path="url(#p1332a5d057)">
     <use x="89.787189" xlink:href="#mbb23304b77" y="231.517401"/>
     <use x="99.599517" xlink:href="#mbb23304b77" y="229.288063"/>
     <use x="109.411844" xlink:href="#mbb23304b77" y="227.282292"/>
     <use x="119.224172" xlink:href="#mbb23304b77" y="226.922067"/>
     <use x="129.036499" xlink:href="#mbb23304b77" y="227.2155"/>
     <use x="138.848827" xlink:href="#mbb23304b77" y="225.565585"/>
     <use x="148.661154" xlink:href="#mbb23304b77" y="224.02268"/>
     <use x="158.473481" xlink:href="#mbb23304b77" y="219.660801"/>
     <use x="168.285809" xlink:href="#mbb23304b77" y="216.566697"/>
     <use x="178.098136" xlink:href="#mbb23304b77" y="215.528439"/>
     <use x="187.910464" xlink:href="#mbb23304b77" y="216.979029"/>
     <use x="197.722791" xlink:href="#mbb23304b77" y="218.157341"/>
     <use x="207.535118" xlink:href="#mbb23304b77" y="220.677264"/>
     <use x="217.347446" xlink:href="#mbb23304b77" y="224.665155"/>
     <use x="227.159773" xlink:href="#mbb23304b77" y="225.893549"/>
     <use x="236.972101" xlink:href="#mbb23304b77" y="225.873038"/>
     <use x="246.784428" xlink:href="#mbb23304b77" y="223.495557"/>
     <use x="256.596756" xlink:href="#mbb23304b77" y="221.389855"/>
     <use x="266.409083" xlink:href="#mbb23304b77" y="219.632034"/>
     <use x="276.22141" xlink:href="#mbb23304b77" y="220.243182"/>
     <use x="286.033738" xlink:href="#mbb23304b77" y="221.914626"/>
     <use x="295.846065" xlink:href="#mbb23304b77" y="224.876033"/>
     <use x="305.658393" xlink:href="#mbb23304b77" y="227.395609"/>
     <use x="315.47072" xlink:href="#mbb23304b77" y="229.419665"/>
     <use x="325.283048" xlink:href="#mbb23304b77" y="230.95113"/>
     <use x="335.095375" xlink:href="#mbb23304b77" y="231.663656"/>
     <use x="344.907702" xlink:href="#mbb23304b77" y="229.37648"/>
     <use x="354.72003" xlink:href="#mbb23304b77" y="226.808438"/>
     <use x="364.532357" xlink:href="#mbb23304b77" y="225.60185"/>
     <use x="374.344685" xlink:href="#mbb23304b77" y="226.390648"/>
     <use x="384.157012" xlink:href="#mbb23304b77" y="227.428176"/>
     <use x="393.969339" xlink:href="#mbb23304b77" y="229.11341"/>
     <use x="403.781667" xlink:href="#mbb23304b77" y="231.259882"/>
     <use x="413.593994" xlink:href="#mbb23304b77" y="233.15694"/>
     <use x="423.406322" xlink:href="#mbb23304b77" y="233.28089"/>
     <use x="433.218649" xlink:href="#mbb23304b77" y="231.072823"/>
     <use x="443.030977" xlink:href="#mbb23304b77" y="228.484544"/>
     <use x="452.843304" xlink:href="#mbb23304b77" y="225.643089"/>
     <use x="462.655631" xlink:href="#mbb23304b77" y="223.463548"/>
     <use x="472.467959" xlink:href="#mbb23304b77" y="223.741276"/>
     <use x="482.280286" xlink:href="#mbb23304b77" y="223.498901"/>
     <use x="492.092614" xlink:href="#mbb23304b77" y="225.903802"/>
     <use x="501.904941" xlink:href="#mbb23304b77" y="227.627651"/>
     <use x="511.717269" xlink:href="#mbb23304b77" y="229.384958"/>
     <use x="521.529596" xlink:href="#mbb23304b77" y="229.690048"/>
     <use x="531.341923" xlink:href="#mbb23304b77" y="226.196175"/>
     <use x="541.154251" xlink:href="#mbb23304b77" y="223.933618"/>
     <use x="550.966578" xlink:href="#mbb23304b77" y="220.736489"/>
     <use x="560.778906" xlink:href="#mbb23304b77" y="218.574327"/>
     <use x="570.591233" xlink:href="#mbb23304b77" y="218.391224"/>
    </g>
   </g>
   <g id="line2d_79">
    <path clip-path="url(#p1332a5d057)" d="M 89.787189 231.375861 
L 99.599517 217.520672 
L 109.411844 206.791991 
L 119.224172 198.336944 
L 129.036499 190.902694 
L 138.848827 184.058158 
L 148.661154 178.207598 
L 158.473481 174.386073 
L 168.285809 173.822307 
L 178.098136 177.368612 
L 187.910464 184.987348 
L 197.722791 195.507947 
L 207.535118 206.803029 
L 217.347446 216.377383 
L 227.159773 222.161636 
L 236.972101 223.190442 
L 246.784428 219.889174 
L 256.596756 213.842269 
L 266.409083 207.16787 
L 276.22141 201.815572 
L 286.033738 199.075262 
L 295.846065 199.376167 
L 305.658393 202.328714 
L 315.47072 206.957831 
L 325.283048 212.081069 
L 335.095375 216.761186 
L 344.907702 220.656424 
L 354.72003 224.081839 
L 364.532357 227.71288 
L 374.344685 232.092116 
L 384.157012 237.215401 
L 393.969339 242.402055 
L 403.781667 246.464958 
L 413.593994 248.077693 
L 423.406322 246.221468 
L 433.218649 240.613779 
L 443.030977 231.979204 
L 452.843304 221.996996 
L 462.655631 212.854459 
L 472.467959 206.547783 
L 482.280286 204.200718 
L 492.092614 205.673527 
L 501.904941 209.641137 
L 511.717269 214.137382 
L 521.529596 217.335995 
L 531.341923 218.208999 
L 541.154251 216.771846 
L 550.966578 213.860019 
L 560.778906 210.629592 
L 570.591233 208.048678 
" style="fill:none;stroke:#ff0000;stroke-dasharray:3.7,1.6;stroke-dashoffset:0;"/>
   </g>
   <g id="patch_13">
    <path d="M 75.363068 250.305354 
L 75.363068 171.594646 
" style="fill:none;stroke:#000000;stroke-linecap:square;stroke-linejoin:miter;"/>
   </g>
   <g id="patch_14">
    <path d="M 585.015354 250.305354 
L 585.015354 171.594646 
" style="fill:none;stroke:#000000;stroke-linecap:square;stroke-linejoin:miter;"/>
   </g>
   <g id="patch_15">
    <path d="M 75.363068 250.305354 
L 585.015354 250.305354 
" style="fill:none;stroke:#000000;stroke-linecap:square;stroke-linejoin:miter;"/>
   </g>
   <g id="patch_16">
    <path d="M 75.363068 171.594646 
L 585.015354 171.594646 
" style="fill:none;stroke:#000000;stroke-linecap:square;stroke-linejoin:miter;"/>
   </g>
  </g>
 </g>
 <defs>
  <clipPath id="p61546c32e8">
   <rect height="78.710709" width="509.652286" x="75.363068" y="2.834646"/>
  </clipPath>
  <clipPath id="pd3dad4cefc">
   <rect height="78.710709" width="509.652286" x="75.363068" y="87.214646"/>
  </clipPath>
  <clipPath id="p1332a5d057">
   <rect height="78.710709" width="509.652286" x="75.363068" y="171.594646"/>
  </clipPath>
 </defs>
</svg>
