<?xml version="1.0" encoding="utf-8" standalone="no"?>
<!DOCTYPE svg PUBLIC "-//W3C//DTD SVG 1.1//EN"
  "http://www.w3.org/Graphics/SVG/1.1/DTD/svg11.dtd">
<!-- Created with matplotlib (https://matplotlib.org/) -->
<svg height="216pt" version="1.1" viewBox="0 0 360 216" width="360pt" xmlns="http://www.w3.org/2000/svg" xmlns:xlink="http://www.w3.org/1999/xlink">
 <metadata>
  <rdf:RDF xmlns:cc="http://creativecommons.org/ns#" xmlns:dc="http://purl.org/dc/elements/1.1/" xmlns:rdf="http://www.w3.org/1999/02/22-rdf-syntax-ns#">
   <cc:Work>
    <dc:type rdf:resource="http://purl.org/dc/dcmitype/StillImage"/>
    <dc:date>2021-04-25T01:07:05.095953</dc:date>
    <dc:format>image/svg+xml</dc:format>
    <dc:creator>
     <cc:Agent>
      <dc:title>Matplotlib v3.3.2, https://matplotlib.org/</dc:title>
     </cc:Agent>
    </dc:creator>
   </cc:Work>
  </rdf:RDF>
 </metadata>
 <defs>
  <style type="text/css">*{stroke-linecap:butt;stroke-linejoin:round;}</style>
 </defs>
 <g id="figure_1">
  <g id="patch_1">
   <path d="M 0 216 
L 360 216 
L 360 0 
L 0 0 
z
" style="fill:#ffffff;"/>
  </g>
  <g id="axes_1">
   <g id="patch_2">
    <path d="M 59.632849 178.305354 
L 357.165354 178.305354 
L 357.165354 2.834646 
L 59.632849 2.834646 
z
" style="fill:#ffffff;"/>
   </g>
   <g id="matplotlib.axis_1">
    <g id="xtick_1">
     <g id="line2d_1">
      <path clip-path="url(#p256e6e0964)" d="M 68.05358 178.305354 
L 68.05358 2.834646 
" style="fill:none;stroke:#000000;stroke-linecap:square;stroke-opacity:0.1;stroke-width:0.5;"/>
     </g>
     <g id="line2d_2">
      <defs>
       <path d="M 0 0 
L 0 -2.5 
" id="m0c88155912" style="stroke:#000000;stroke-width:0.5;"/>
      </defs>
      <g>
       <use style="stroke:#000000;stroke-width:0.5;" x="68.05358" xlink:href="#m0c88155912" y="178.305354"/>
      </g>
     </g>
     <g id="text_1">
      <!-- $\mathregular{0}$ -->
      <g transform="translate(64.21358 190.923479)scale(0.12 -0.12)">
       <defs>
        <path d="M 31.78125 66.40625 
Q 24.171875 66.40625 20.328125 58.90625 
Q 16.5 51.421875 16.5 36.375 
Q 16.5 21.390625 20.328125 13.890625 
Q 24.171875 6.390625 31.78125 6.390625 
Q 39.453125 6.390625 43.28125 13.890625 
Q 47.125 21.390625 47.125 36.375 
Q 47.125 51.421875 43.28125 58.90625 
Q 39.453125 66.40625 31.78125 66.40625 
z
M 31.78125 74.21875 
Q 44.046875 74.21875 50.515625 64.515625 
Q 56.984375 54.828125 56.984375 36.375 
Q 56.984375 17.96875 50.515625 8.265625 
Q 44.046875 -1.421875 31.78125 -1.421875 
Q 19.53125 -1.421875 13.0625 8.265625 
Q 6.59375 17.96875 6.59375 36.375 
Q 6.59375 54.828125 13.0625 64.515625 
Q 19.53125 74.21875 31.78125 74.21875 
z
" id="DejaVuSans-48"/>
       </defs>
       <use transform="translate(0 0.78125)" xlink:href="#DejaVuSans-48"/>
      </g>
     </g>
    </g>
    <g id="xtick_2">
     <g id="line2d_3">
      <path clip-path="url(#p256e6e0964)" d="M 124.191789 178.305354 
L 124.191789 2.834646 
" style="fill:none;stroke:#000000;stroke-linecap:square;stroke-opacity:0.1;stroke-width:0.5;"/>
     </g>
     <g id="line2d_4">
      <g>
       <use style="stroke:#000000;stroke-width:0.5;" x="124.191789" xlink:href="#m0c88155912" y="178.305354"/>
      </g>
     </g>
     <g id="text_2">
      <!-- $\mathregular{1}$ -->
      <g transform="translate(120.351789 190.923479)scale(0.12 -0.12)">
       <defs>
        <path d="M 12.40625 8.296875 
L 28.515625 8.296875 
L 28.515625 63.921875 
L 10.984375 60.40625 
L 10.984375 69.390625 
L 28.421875 72.90625 
L 38.28125 72.90625 
L 38.28125 8.296875 
L 54.390625 8.296875 
L 54.390625 0 
L 12.40625 0 
z
" id="DejaVuSans-49"/>
       </defs>
       <use transform="translate(0 0.09375)" xlink:href="#DejaVuSans-49"/>
      </g>
     </g>
    </g>
    <g id="xtick_3">
     <g id="line2d_5">
      <path clip-path="url(#p256e6e0964)" d="M 180.329997 178.305354 
L 180.329997 2.834646 
" style="fill:none;stroke:#000000;stroke-linecap:square;stroke-opacity:0.1;stroke-width:0.5;"/>
     </g>
     <g id="line2d_6">
      <g>
       <use style="stroke:#000000;stroke-width:0.5;" x="180.329997" xlink:href="#m0c88155912" y="178.305354"/>
      </g>
     </g>
     <g id="text_3">
      <!-- $\mathregular{2}$ -->
      <g transform="translate(176.489997 190.923479)scale(0.12 -0.12)">
       <defs>
        <path d="M 19.1875 8.296875 
L 53.609375 8.296875 
L 53.609375 0 
L 7.328125 0 
L 7.328125 8.296875 
Q 12.9375 14.109375 22.625 23.890625 
Q 32.328125 33.6875 34.8125 36.53125 
Q 39.546875 41.84375 41.421875 45.53125 
Q 43.3125 49.21875 43.3125 52.78125 
Q 43.3125 58.59375 39.234375 62.25 
Q 35.15625 65.921875 28.609375 65.921875 
Q 23.96875 65.921875 18.8125 64.3125 
Q 13.671875 62.703125 7.8125 59.421875 
L 7.8125 69.390625 
Q 13.765625 71.78125 18.9375 73 
Q 24.125 74.21875 28.421875 74.21875 
Q 39.75 74.21875 46.484375 68.546875 
Q 53.21875 62.890625 53.21875 53.421875 
Q 53.21875 48.921875 51.53125 44.890625 
Q 49.859375 40.875 45.40625 35.40625 
Q 44.1875 33.984375 37.640625 27.21875 
Q 31.109375 20.453125 19.1875 8.296875 
z
" id="DejaVuSans-50"/>
       </defs>
       <use transform="translate(0 0.78125)" xlink:href="#DejaVuSans-50"/>
      </g>
     </g>
    </g>
    <g id="xtick_4">
     <g id="line2d_7">
      <path clip-path="url(#p256e6e0964)" d="M 236.468206 178.305354 
L 236.468206 2.834646 
" style="fill:none;stroke:#000000;stroke-linecap:square;stroke-opacity:0.1;stroke-width:0.5;"/>
     </g>
     <g id="line2d_8">
      <g>
       <use style="stroke:#000000;stroke-width:0.5;" x="236.468206" xlink:href="#m0c88155912" y="178.305354"/>
      </g>
     </g>
     <g id="text_4">
      <!-- $\mathregular{3}$ -->
      <g transform="translate(232.628206 190.923479)scale(0.12 -0.12)">
       <defs>
        <path d="M 40.578125 39.3125 
Q 47.65625 37.796875 51.625 33 
Q 55.609375 28.21875 55.609375 21.1875 
Q 55.609375 10.40625 48.1875 4.484375 
Q 40.765625 -1.421875 27.09375 -1.421875 
Q 22.515625 -1.421875 17.65625 -0.515625 
Q 12.796875 0.390625 7.625 2.203125 
L 7.625 11.71875 
Q 11.71875 9.328125 16.59375 8.109375 
Q 21.484375 6.890625 26.8125 6.890625 
Q 36.078125 6.890625 40.9375 10.546875 
Q 45.796875 14.203125 45.796875 21.1875 
Q 45.796875 27.640625 41.28125 31.265625 
Q 36.765625 34.90625 28.71875 34.90625 
L 20.21875 34.90625 
L 20.21875 43.015625 
L 29.109375 43.015625 
Q 36.375 43.015625 40.234375 45.921875 
Q 44.09375 48.828125 44.09375 54.296875 
Q 44.09375 59.90625 40.109375 62.90625 
Q 36.140625 65.921875 28.71875 65.921875 
Q 24.65625 65.921875 20.015625 65.03125 
Q 15.375 64.15625 9.8125 62.3125 
L 9.8125 71.09375 
Q 15.4375 72.65625 20.34375 73.4375 
Q 25.25 74.21875 29.59375 74.21875 
Q 40.828125 74.21875 47.359375 69.109375 
Q 53.90625 64.015625 53.90625 55.328125 
Q 53.90625 49.265625 50.4375 45.09375 
Q 46.96875 40.921875 40.578125 39.3125 
z
" id="DejaVuSans-51"/>
       </defs>
       <use transform="translate(0 0.78125)" xlink:href="#DejaVuSans-51"/>
      </g>
     </g>
    </g>
    <g id="xtick_5">
     <g id="line2d_9">
      <path clip-path="url(#p256e6e0964)" d="M 292.606414 178.305354 
L 292.606414 2.834646 
" style="fill:none;stroke:#000000;stroke-linecap:square;stroke-opacity:0.1;stroke-width:0.5;"/>
     </g>
     <g id="line2d_10">
      <g>
       <use style="stroke:#000000;stroke-width:0.5;" x="292.606414" xlink:href="#m0c88155912" y="178.305354"/>
      </g>
     </g>
     <g id="text_5">
      <!-- $\mathregular{4}$ -->
      <g transform="translate(288.766414 190.923479)scale(0.12 -0.12)">
       <defs>
        <path d="M 37.796875 64.3125 
L 12.890625 25.390625 
L 37.796875 25.390625 
z
M 35.203125 72.90625 
L 47.609375 72.90625 
L 47.609375 25.390625 
L 58.015625 25.390625 
L 58.015625 17.1875 
L 47.609375 17.1875 
L 47.609375 0 
L 37.796875 0 
L 37.796875 17.1875 
L 4.890625 17.1875 
L 4.890625 26.703125 
z
" id="DejaVuSans-52"/>
       </defs>
       <use transform="translate(0 0.09375)" xlink:href="#DejaVuSans-52"/>
      </g>
     </g>
    </g>
    <g id="xtick_6">
     <g id="line2d_11">
      <path clip-path="url(#p256e6e0964)" d="M 348.744623 178.305354 
L 348.744623 2.834646 
" style="fill:none;stroke:#000000;stroke-linecap:square;stroke-opacity:0.1;stroke-width:0.5;"/>
     </g>
     <g id="line2d_12">
      <g>
       <use style="stroke:#000000;stroke-width:0.5;" x="348.744623" xlink:href="#m0c88155912" y="178.305354"/>
      </g>
     </g>
     <g id="text_6">
      <!-- $\mathregular{5}$ -->
      <g transform="translate(344.904623 190.923479)scale(0.12 -0.12)">
       <defs>
        <path d="M 10.796875 72.90625 
L 49.515625 72.90625 
L 49.515625 64.59375 
L 19.828125 64.59375 
L 19.828125 46.734375 
Q 21.96875 47.46875 24.109375 47.828125 
Q 26.265625 48.1875 28.421875 48.1875 
Q 40.625 48.1875 47.75 41.5 
Q 54.890625 34.8125 54.890625 23.390625 
Q 54.890625 11.625 47.5625 5.09375 
Q 40.234375 -1.421875 26.90625 -1.421875 
Q 22.3125 -1.421875 17.546875 -0.640625 
Q 12.796875 0.140625 7.71875 1.703125 
L 7.71875 11.625 
Q 12.109375 9.234375 16.796875 8.0625 
Q 21.484375 6.890625 26.703125 6.890625 
Q 35.15625 6.890625 40.078125 11.328125 
Q 45.015625 15.765625 45.015625 23.390625 
Q 45.015625 31 40.078125 35.4375 
Q 35.15625 39.890625 26.703125 39.890625 
Q 22.75 39.890625 18.8125 39.015625 
Q 14.890625 38.140625 10.796875 36.28125 
z
" id="DejaVuSans-53"/>
       </defs>
       <use transform="translate(0 0.09375)" xlink:href="#DejaVuSans-53"/>
      </g>
     </g>
    </g>
    <g id="text_7">
     <!-- Time [s] -->
     <g transform="translate(175.872852 209.576604)scale(0.16 -0.16)">
      <defs>
       <path d="M -0.296875 72.90625 
L 61.375 72.90625 
L 61.375 64.59375 
L 35.5 64.59375 
L 35.5 0 
L 25.59375 0 
L 25.59375 64.59375 
L -0.296875 64.59375 
z
" id="DejaVuSans-84"/>
       <path d="M 9.421875 54.6875 
L 18.40625 54.6875 
L 18.40625 0 
L 9.421875 0 
z
M 9.421875 75.984375 
L 18.40625 75.984375 
L 18.40625 64.59375 
L 9.421875 64.59375 
z
" id="DejaVuSans-105"/>
       <path d="M 52 44.1875 
Q 55.375 50.25 60.0625 53.125 
Q 64.75 56 71.09375 56 
Q 79.640625 56 84.28125 50.015625 
Q 88.921875 44.046875 88.921875 33.015625 
L 88.921875 0 
L 79.890625 0 
L 79.890625 32.71875 
Q 79.890625 40.578125 77.09375 44.375 
Q 74.3125 48.1875 68.609375 48.1875 
Q 61.625 48.1875 57.5625 43.546875 
Q 53.515625 38.921875 53.515625 30.90625 
L 53.515625 0 
L 44.484375 0 
L 44.484375 32.71875 
Q 44.484375 40.625 41.703125 44.40625 
Q 38.921875 48.1875 33.109375 48.1875 
Q 26.21875 48.1875 22.15625 43.53125 
Q 18.109375 38.875 18.109375 30.90625 
L 18.109375 0 
L 9.078125 0 
L 9.078125 54.6875 
L 18.109375 54.6875 
L 18.109375 46.1875 
Q 21.1875 51.21875 25.484375 53.609375 
Q 29.78125 56 35.6875 56 
Q 41.65625 56 45.828125 52.96875 
Q 50 49.953125 52 44.1875 
z
" id="DejaVuSans-109"/>
       <path d="M 56.203125 29.59375 
L 56.203125 25.203125 
L 14.890625 25.203125 
Q 15.484375 15.921875 20.484375 11.0625 
Q 25.484375 6.203125 34.421875 6.203125 
Q 39.59375 6.203125 44.453125 7.46875 
Q 49.3125 8.734375 54.109375 11.28125 
L 54.109375 2.78125 
Q 49.265625 0.734375 44.1875 -0.34375 
Q 39.109375 -1.421875 33.890625 -1.421875 
Q 20.796875 -1.421875 13.15625 6.1875 
Q 5.515625 13.8125 5.515625 26.8125 
Q 5.515625 40.234375 12.765625 48.109375 
Q 20.015625 56 32.328125 56 
Q 43.359375 56 49.78125 48.890625 
Q 56.203125 41.796875 56.203125 29.59375 
z
M 47.21875 32.234375 
Q 47.125 39.59375 43.09375 43.984375 
Q 39.0625 48.390625 32.421875 48.390625 
Q 24.90625 48.390625 20.390625 44.140625 
Q 15.875 39.890625 15.1875 32.171875 
z
" id="DejaVuSans-101"/>
       <path id="DejaVuSans-32"/>
       <path d="M 8.59375 75.984375 
L 29.296875 75.984375 
L 29.296875 69 
L 17.578125 69 
L 17.578125 -6.203125 
L 29.296875 -6.203125 
L 29.296875 -13.1875 
L 8.59375 -13.1875 
z
" id="DejaVuSans-91"/>
       <path d="M 44.28125 53.078125 
L 44.28125 44.578125 
Q 40.484375 46.53125 36.375 47.5 
Q 32.28125 48.484375 27.875 48.484375 
Q 21.1875 48.484375 17.84375 46.4375 
Q 14.5 44.390625 14.5 40.28125 
Q 14.5 37.15625 16.890625 35.375 
Q 19.28125 33.59375 26.515625 31.984375 
L 29.59375 31.296875 
Q 39.15625 29.25 43.1875 25.515625 
Q 47.21875 21.78125 47.21875 15.09375 
Q 47.21875 7.46875 41.1875 3.015625 
Q 35.15625 -1.421875 24.609375 -1.421875 
Q 20.21875 -1.421875 15.453125 -0.5625 
Q 10.6875 0.296875 5.421875 2 
L 5.421875 11.28125 
Q 10.40625 8.6875 15.234375 7.390625 
Q 20.0625 6.109375 24.8125 6.109375 
Q 31.15625 6.109375 34.5625 8.28125 
Q 37.984375 10.453125 37.984375 14.40625 
Q 37.984375 18.0625 35.515625 20.015625 
Q 33.0625 21.96875 24.703125 23.78125 
L 21.578125 24.515625 
Q 13.234375 26.265625 9.515625 29.90625 
Q 5.8125 33.546875 5.8125 39.890625 
Q 5.8125 47.609375 11.28125 51.796875 
Q 16.75 56 26.8125 56 
Q 31.78125 56 36.171875 55.265625 
Q 40.578125 54.546875 44.28125 53.078125 
z
" id="DejaVuSans-115"/>
       <path d="M 30.421875 75.984375 
L 30.421875 -13.1875 
L 9.71875 -13.1875 
L 9.71875 -6.203125 
L 21.390625 -6.203125 
L 21.390625 69 
L 9.71875 69 
L 9.71875 75.984375 
z
" id="DejaVuSans-93"/>
      </defs>
      <use xlink:href="#DejaVuSans-84"/>
      <use x="57.958984" xlink:href="#DejaVuSans-105"/>
      <use x="85.742188" xlink:href="#DejaVuSans-109"/>
      <use x="183.154297" xlink:href="#DejaVuSans-101"/>
      <use x="244.677734" xlink:href="#DejaVuSans-32"/>
      <use x="276.464844" xlink:href="#DejaVuSans-91"/>
      <use x="315.478516" xlink:href="#DejaVuSans-115"/>
      <use x="367.578125" xlink:href="#DejaVuSans-93"/>
     </g>
    </g>
   </g>
   <g id="matplotlib.axis_2">
    <g id="ytick_1">
     <g id="line2d_13">
      <path clip-path="url(#p256e6e0964)" d="M 59.632849 160.914647 
L 357.165354 160.914647 
" style="fill:none;stroke:#000000;stroke-linecap:square;stroke-opacity:0.1;stroke-width:0.5;"/>
     </g>
     <g id="line2d_14">
      <defs>
       <path d="M 0 0 
L 2.5 0 
" id="m29b50d3a7e" style="stroke:#000000;stroke-width:0.5;"/>
      </defs>
      <g>
       <use style="stroke:#000000;stroke-width:0.5;" x="59.632849" xlink:href="#m29b50d3a7e" y="160.914647"/>
      </g>
     </g>
     <g id="text_8">
      <!-- $\mathregular{0.950}$ -->
      <g transform="translate(21.692849 165.47371)scale(0.12 -0.12)">
       <defs>
        <path d="M 10.6875 12.40625 
L 21 12.40625 
L 21 0 
L 10.6875 0 
z
" id="DejaVuSans-46"/>
        <path d="M 10.984375 1.515625 
L 10.984375 10.5 
Q 14.703125 8.734375 18.5 7.8125 
Q 22.3125 6.890625 25.984375 6.890625 
Q 35.75 6.890625 40.890625 13.453125 
Q 46.046875 20.015625 46.78125 33.40625 
Q 43.953125 29.203125 39.59375 26.953125 
Q 35.25 24.703125 29.984375 24.703125 
Q 19.046875 24.703125 12.671875 31.3125 
Q 6.296875 37.9375 6.296875 49.421875 
Q 6.296875 60.640625 12.9375 67.421875 
Q 19.578125 74.21875 30.609375 74.21875 
Q 43.265625 74.21875 49.921875 64.515625 
Q 56.59375 54.828125 56.59375 36.375 
Q 56.59375 19.140625 48.40625 8.859375 
Q 40.234375 -1.421875 26.421875 -1.421875 
Q 22.703125 -1.421875 18.890625 -0.6875 
Q 15.09375 0.046875 10.984375 1.515625 
z
M 30.609375 32.421875 
Q 37.25 32.421875 41.125 36.953125 
Q 45.015625 41.5 45.015625 49.421875 
Q 45.015625 57.28125 41.125 61.84375 
Q 37.25 66.40625 30.609375 66.40625 
Q 23.96875 66.40625 20.09375 61.84375 
Q 16.21875 57.28125 16.21875 49.421875 
Q 16.21875 41.5 20.09375 36.953125 
Q 23.96875 32.421875 30.609375 32.421875 
z
" id="DejaVuSans-57"/>
       </defs>
       <use transform="translate(0 0.78125)" xlink:href="#DejaVuSans-48"/>
       <use transform="translate(63.623047 0.78125)" xlink:href="#DejaVuSans-46"/>
       <use transform="translate(95.410156 0.78125)" xlink:href="#DejaVuSans-57"/>
       <use transform="translate(159.033203 0.78125)" xlink:href="#DejaVuSans-53"/>
       <use transform="translate(222.65625 0.78125)" xlink:href="#DejaVuSans-48"/>
      </g>
     </g>
    </g>
    <g id="ytick_2">
     <g id="line2d_15">
      <path clip-path="url(#p256e6e0964)" d="M 59.632849 125.555059 
L 357.165354 125.555059 
" style="fill:none;stroke:#000000;stroke-linecap:square;stroke-opacity:0.1;stroke-width:0.5;"/>
     </g>
     <g id="line2d_16">
      <g>
       <use style="stroke:#000000;stroke-width:0.5;" x="59.632849" xlink:href="#m29b50d3a7e" y="125.555059"/>
      </g>
     </g>
     <g id="text_9">
      <!-- $\mathregular{0.975}$ -->
      <g transform="translate(21.692849 130.114121)scale(0.12 -0.12)">
       <defs>
        <path d="M 8.203125 72.90625 
L 55.078125 72.90625 
L 55.078125 68.703125 
L 28.609375 0 
L 18.3125 0 
L 43.21875 64.59375 
L 8.203125 64.59375 
z
" id="DejaVuSans-55"/>
       </defs>
       <use transform="translate(0 0.78125)" xlink:href="#DejaVuSans-48"/>
       <use transform="translate(63.623047 0.78125)" xlink:href="#DejaVuSans-46"/>
       <use transform="translate(95.410156 0.78125)" xlink:href="#DejaVuSans-57"/>
       <use transform="translate(159.033203 0.78125)" xlink:href="#DejaVuSans-55"/>
       <use transform="translate(222.65625 0.78125)" xlink:href="#DejaVuSans-53"/>
      </g>
     </g>
    </g>
    <g id="ytick_3">
     <g id="line2d_17">
      <path clip-path="url(#p256e6e0964)" d="M 59.632849 90.19547 
L 357.165354 90.19547 
" style="fill:none;stroke:#000000;stroke-linecap:square;stroke-opacity:0.1;stroke-width:0.5;"/>
     </g>
     <g id="line2d_18">
      <g>
       <use style="stroke:#000000;stroke-width:0.5;" x="59.632849" xlink:href="#m29b50d3a7e" y="90.19547"/>
      </g>
     </g>
     <g id="text_10">
      <!-- $\mathregular{1.000}$ -->
      <g transform="translate(21.692849 94.754533)scale(0.12 -0.12)">
       <use transform="translate(0 0.78125)" xlink:href="#DejaVuSans-49"/>
       <use transform="translate(63.623047 0.78125)" xlink:href="#DejaVuSans-46"/>
       <use transform="translate(95.410156 0.78125)" xlink:href="#DejaVuSans-48"/>
       <use transform="translate(159.033203 0.78125)" xlink:href="#DejaVuSans-48"/>
       <use transform="translate(222.65625 0.78125)" xlink:href="#DejaVuSans-48"/>
      </g>
     </g>
    </g>
    <g id="ytick_4">
     <g id="line2d_19">
      <path clip-path="url(#p256e6e0964)" d="M 59.632849 54.835882 
L 357.165354 54.835882 
" style="fill:none;stroke:#000000;stroke-linecap:square;stroke-opacity:0.1;stroke-width:0.5;"/>
     </g>
     <g id="line2d_20">
      <g>
       <use style="stroke:#000000;stroke-width:0.5;" x="59.632849" xlink:href="#m29b50d3a7e" y="54.835882"/>
      </g>
     </g>
     <g id="text_11">
      <!-- $\mathregular{1.025}$ -->
      <g transform="translate(21.692849 59.394944)scale(0.12 -0.12)">
       <use transform="translate(0 0.78125)" xlink:href="#DejaVuSans-49"/>
       <use transform="translate(63.623047 0.78125)" xlink:href="#DejaVuSans-46"/>
       <use transform="translate(95.410156 0.78125)" xlink:href="#DejaVuSans-48"/>
       <use transform="translate(159.033203 0.78125)" xlink:href="#DejaVuSans-50"/>
       <use transform="translate(222.65625 0.78125)" xlink:href="#DejaVuSans-53"/>
      </g>
     </g>
    </g>
    <g id="ytick_5">
     <g id="line2d_21">
      <path clip-path="url(#p256e6e0964)" d="M 59.632849 19.476294 
L 357.165354 19.476294 
" style="fill:none;stroke:#000000;stroke-linecap:square;stroke-opacity:0.1;stroke-width:0.5;"/>
     </g>
     <g id="line2d_22">
      <g>
       <use style="stroke:#000000;stroke-width:0.5;" x="59.632849" xlink:href="#m29b50d3a7e" y="19.476294"/>
      </g>
     </g>
     <g id="text_12">
      <!-- $\mathregular{1.050}$ -->
      <g transform="translate(21.692849 24.035356)scale(0.12 -0.12)">
       <use transform="translate(0 0.78125)" xlink:href="#DejaVuSans-49"/>
       <use transform="translate(63.623047 0.78125)" xlink:href="#DejaVuSans-46"/>
       <use transform="translate(95.410156 0.78125)" xlink:href="#DejaVuSans-48"/>
       <use transform="translate(159.033203 0.78125)" xlink:href="#DejaVuSans-53"/>
       <use transform="translate(222.65625 0.78125)" xlink:href="#DejaVuSans-48"/>
      </g>
     </g>
    </g>
    <g id="text_13">
     <!-- Inlet conditions -->
     <g transform="translate(14.365349 151.98)rotate(-90)scale(0.16 -0.16)">
      <defs>
       <path d="M 9.8125 72.90625 
L 19.671875 72.90625 
L 19.671875 0 
L 9.8125 0 
z
" id="DejaVuSans-73"/>
       <path d="M 54.890625 33.015625 
L 54.890625 0 
L 45.90625 0 
L 45.90625 32.71875 
Q 45.90625 40.484375 42.875 44.328125 
Q 39.84375 48.1875 33.796875 48.1875 
Q 26.515625 48.1875 22.3125 43.546875 
Q 18.109375 38.921875 18.109375 30.90625 
L 18.109375 0 
L 9.078125 0 
L 9.078125 54.6875 
L 18.109375 54.6875 
L 18.109375 46.1875 
Q 21.34375 51.125 25.703125 53.5625 
Q 30.078125 56 35.796875 56 
Q 45.21875 56 50.046875 50.171875 
Q 54.890625 44.34375 54.890625 33.015625 
z
" id="DejaVuSans-110"/>
       <path d="M 9.421875 75.984375 
L 18.40625 75.984375 
L 18.40625 0 
L 9.421875 0 
z
" id="DejaVuSans-108"/>
       <path d="M 18.3125 70.21875 
L 18.3125 54.6875 
L 36.8125 54.6875 
L 36.8125 47.703125 
L 18.3125 47.703125 
L 18.3125 18.015625 
Q 18.3125 11.328125 20.140625 9.421875 
Q 21.96875 7.515625 27.59375 7.515625 
L 36.8125 7.515625 
L 36.8125 0 
L 27.59375 0 
Q 17.1875 0 13.234375 3.875 
Q 9.28125 7.765625 9.28125 18.015625 
L 9.28125 47.703125 
L 2.6875 47.703125 
L 2.6875 54.6875 
L 9.28125 54.6875 
L 9.28125 70.21875 
z
" id="DejaVuSans-116"/>
       <path d="M 48.78125 52.59375 
L 48.78125 44.1875 
Q 44.96875 46.296875 41.140625 47.34375 
Q 37.3125 48.390625 33.40625 48.390625 
Q 24.65625 48.390625 19.8125 42.84375 
Q 14.984375 37.3125 14.984375 27.296875 
Q 14.984375 17.28125 19.8125 11.734375 
Q 24.65625 6.203125 33.40625 6.203125 
Q 37.3125 6.203125 41.140625 7.25 
Q 44.96875 8.296875 48.78125 10.40625 
L 48.78125 2.09375 
Q 45.015625 0.34375 40.984375 -0.53125 
Q 36.96875 -1.421875 32.421875 -1.421875 
Q 20.0625 -1.421875 12.78125 6.34375 
Q 5.515625 14.109375 5.515625 27.296875 
Q 5.515625 40.671875 12.859375 48.328125 
Q 20.21875 56 33.015625 56 
Q 37.15625 56 41.109375 55.140625 
Q 45.0625 54.296875 48.78125 52.59375 
z
" id="DejaVuSans-99"/>
       <path d="M 30.609375 48.390625 
Q 23.390625 48.390625 19.1875 42.75 
Q 14.984375 37.109375 14.984375 27.296875 
Q 14.984375 17.484375 19.15625 11.84375 
Q 23.34375 6.203125 30.609375 6.203125 
Q 37.796875 6.203125 41.984375 11.859375 
Q 46.1875 17.53125 46.1875 27.296875 
Q 46.1875 37.015625 41.984375 42.703125 
Q 37.796875 48.390625 30.609375 48.390625 
z
M 30.609375 56 
Q 42.328125 56 49.015625 48.375 
Q 55.71875 40.765625 55.71875 27.296875 
Q 55.71875 13.875 49.015625 6.21875 
Q 42.328125 -1.421875 30.609375 -1.421875 
Q 18.84375 -1.421875 12.171875 6.21875 
Q 5.515625 13.875 5.515625 27.296875 
Q 5.515625 40.765625 12.171875 48.375 
Q 18.84375 56 30.609375 56 
z
" id="DejaVuSans-111"/>
       <path d="M 45.40625 46.390625 
L 45.40625 75.984375 
L 54.390625 75.984375 
L 54.390625 0 
L 45.40625 0 
L 45.40625 8.203125 
Q 42.578125 3.328125 38.25 0.953125 
Q 33.9375 -1.421875 27.875 -1.421875 
Q 17.96875 -1.421875 11.734375 6.484375 
Q 5.515625 14.40625 5.515625 27.296875 
Q 5.515625 40.1875 11.734375 48.09375 
Q 17.96875 56 27.875 56 
Q 33.9375 56 38.25 53.625 
Q 42.578125 51.265625 45.40625 46.390625 
z
M 14.796875 27.296875 
Q 14.796875 17.390625 18.875 11.75 
Q 22.953125 6.109375 30.078125 6.109375 
Q 37.203125 6.109375 41.296875 11.75 
Q 45.40625 17.390625 45.40625 27.296875 
Q 45.40625 37.203125 41.296875 42.84375 
Q 37.203125 48.484375 30.078125 48.484375 
Q 22.953125 48.484375 18.875 42.84375 
Q 14.796875 37.203125 14.796875 27.296875 
z
" id="DejaVuSans-100"/>
      </defs>
      <use xlink:href="#DejaVuSans-73"/>
      <use x="29.492188" xlink:href="#DejaVuSans-110"/>
      <use x="92.871094" xlink:href="#DejaVuSans-108"/>
      <use x="120.654297" xlink:href="#DejaVuSans-101"/>
      <use x="182.177734" xlink:href="#DejaVuSans-116"/>
      <use x="221.386719" xlink:href="#DejaVuSans-32"/>
      <use x="253.173828" xlink:href="#DejaVuSans-99"/>
      <use x="308.154297" xlink:href="#DejaVuSans-111"/>
      <use x="369.335938" xlink:href="#DejaVuSans-110"/>
      <use x="432.714844" xlink:href="#DejaVuSans-100"/>
      <use x="496.191406" xlink:href="#DejaVuSans-105"/>
      <use x="523.974609" xlink:href="#DejaVuSans-116"/>
      <use x="563.183594" xlink:href="#DejaVuSans-105"/>
      <use x="590.966797" xlink:href="#DejaVuSans-111"/>
      <use x="652.148438" xlink:href="#DejaVuSans-110"/>
      <use x="715.527344" xlink:href="#DejaVuSans-115"/>
     </g>
    </g>
   </g>
   <g id="PathCollection_1">
    <defs>
     <path d="M 0 2 
C 0.530406 2 1.03916 1.789267 1.414214 1.414214 
C 1.789267 1.03916 2 0.530406 2 0 
C 2 -0.530406 1.789267 -1.03916 1.414214 -1.414214 
C 1.03916 -1.789267 0.530406 -2 0 -2 
C -0.530406 -2 -1.03916 -1.789267 -1.414214 -1.414214 
C -1.789267 -1.03916 -2 -0.530406 -2 0 
C -2 0.530406 -1.789267 1.03916 -1.414214 1.414214 
C -1.03916 1.789267 -0.530406 2 0 2 
z
" id="mbbf47eafbd"/>
    </defs>
    <g clip-path="url(#p256e6e0964)">
     <use x="68.05358" xlink:href="#mbbf47eafbd" y="111.411961"/>
     <use x="73.781969" xlink:href="#mbbf47eafbd" y="114.228767"/>
     <use x="79.510357" xlink:href="#mbbf47eafbd" y="121.780584"/>
     <use x="85.238746" xlink:href="#mbbf47eafbd" y="132.123856"/>
     <use x="90.967135" xlink:href="#mbbf47eafbd" y="142.596613"/>
     <use x="96.695523" xlink:href="#mbbf47eafbd" y="150.503558"/>
     <use x="102.423912" xlink:href="#mbbf47eafbd" y="153.80974"/>
     <use x="108.152301" xlink:href="#mbbf47eafbd" y="151.664271"/>
     <use x="113.880689" xlink:href="#mbbf47eafbd" y="144.619315"/>
     <use x="119.609078" xlink:href="#mbbf47eafbd" y="134.487979"/>
     <use x="125.337466" xlink:href="#mbbf47eafbd" y="123.877691"/>
     <use x="131.065855" xlink:href="#mbbf47eafbd" y="115.519142"/>
     <use x="136.794244" xlink:href="#mbbf47eafbd" y="111.563509"/>
     <use x="142.522632" xlink:href="#mbbf47eafbd" y="113.028825"/>
     <use x="148.251021" xlink:href="#mbbf47eafbd" y="119.537972"/>
     <use x="153.97941" xlink:href="#mbbf47eafbd" y="129.41574"/>
     <use x="159.707798" xlink:href="#mbbf47eafbd" y="140.119959"/>
     <use x="165.436187" xlink:href="#mbbf47eafbd" y="148.895765"/>
     <use x="171.164575" xlink:href="#mbbf47eafbd" y="153.484594"/>
     <use x="176.892964" xlink:href="#mbbf47eafbd" y="152.705452"/>
     <use x="182.621353" xlink:href="#mbbf47eafbd" y="146.758861"/>
     <use x="188.349741" xlink:href="#mbbf47eafbd" y="137.175253"/>
     <use x="194.07813" xlink:href="#mbbf47eafbd" y="126.421088"/>
     <use x="199.806519" xlink:href="#mbbf47eafbd" y="117.264086"/>
     <use x="205.534907" xlink:href="#mbbf47eafbd" y="112.060918"/>
     <use x="211.263296" xlink:href="#mbbf47eafbd" y="112.150684"/>
     <use x="216.991685" xlink:href="#mbbf47eafbd" y="117.510282"/>
     <use x="222.720073" xlink:href="#mbbf47eafbd" y="126.760351"/>
     <use x="228.448462" xlink:href="#mbbf47eafbd" y="137.520271"/>
     <use x="234.17685" xlink:href="#mbbf47eafbd" y="147.020839"/>
     <use x="239.905239" xlink:href="#mbbf47eafbd" y="152.816966"/>
     <use x="245.633628" xlink:href="#mbbf47eafbd" y="153.416944"/>
     <use x="251.362016" xlink:href="#mbbf47eafbd" y="148.666363"/>
     <use x="257.090405" xlink:href="#mbbf47eafbd" y="139.787844"/>
     <use x="262.818794" xlink:href="#mbbf47eafbd" y="129.066385"/>
     <use x="268.547182" xlink:href="#mbbf47eafbd" y="119.26129"/>
     <use x="274.275571" xlink:href="#mbbf47eafbd" y="112.896022"/>
     <use x="280.003959" xlink:href="#mbbf47eafbd" y="111.608764"/>
     <use x="285.732348" xlink:href="#mbbf47eafbd" y="115.730807"/>
     <use x="291.460737" xlink:href="#mbbf47eafbd" y="124.201293"/>
     <use x="297.189125" xlink:href="#mbbf47eafbd" y="134.840234"/>
     <use x="302.917514" xlink:href="#mbbf47eafbd" y="144.909566"/>
     <use x="308.645903" xlink:href="#mbbf47eafbd" y="151.817819"/>
     <use x="314.374291" xlink:href="#mbbf47eafbd" y="153.787066"/>
     <use x="320.10268" xlink:href="#mbbf47eafbd" y="150.310499"/>
     <use x="325.831069" xlink:href="#mbbf47eafbd" y="142.282854"/>
     <use x="331.559457" xlink:href="#mbbf47eafbd" y="131.770148"/>
     <use x="337.287846" xlink:href="#mbbf47eafbd" y="121.477957"/>
     <use x="343.016234" xlink:href="#mbbf47eafbd" y="114.055107"/>
     <use x="348.744623" xlink:href="#mbbf47eafbd" y="111.411961"/>
    </g>
   </g>
   <g id="PathCollection_2">
    <defs>
     <path d="M 0 2 
C 0.530406 2 1.03916 1.789267 1.414214 1.414214 
C 1.789267 1.03916 2 0.530406 2 0 
C 2 -0.530406 1.789267 -1.03916 1.414214 -1.414214 
C 1.03916 -1.789267 0.530406 -2 0 -2 
C -0.530406 -2 -1.03916 -1.789267 -1.414214 -1.414214 
C -1.789267 -1.03916 -2 -0.530406 -2 0 
C -2 0.530406 -1.789267 1.03916 -1.414214 1.414214 
C -1.03916 1.789267 -0.530406 2 0 2 
z
" id="m670beb6aaa"/>
    </defs>
    <g clip-path="url(#p256e6e0964)">
     <use style="fill:#ff0000;" x="68.05358" xlink:href="#m670beb6aaa" y="90.19547"/>
     <use style="fill:#ff0000;" x="73.781969" xlink:href="#m670beb6aaa" y="47.897586"/>
     <use style="fill:#ff0000;" x="79.510357" xlink:href="#m670beb6aaa" y="22.399269"/>
     <use style="fill:#ff0000;" x="85.238746" xlink:href="#m670beb6aaa" y="23.827756"/>
     <use style="fill:#ff0000;" x="90.967135" xlink:href="#m670beb6aaa" y="51.615691"/>
     <use style="fill:#ff0000;" x="96.695523" xlink:href="#m670beb6aaa" y="94.726464"/>
     <use style="fill:#ff0000;" x="102.423912" xlink:href="#m670beb6aaa" y="136.037649"/>
     <use style="fill:#ff0000;" x="108.152301" xlink:href="#m670beb6aaa" y="159.14157"/>
     <use style="fill:#ff0000;" x="113.880689" xlink:href="#m670beb6aaa" y="154.861979"/>
     <use style="fill:#ff0000;" x="119.609078" xlink:href="#m670beb6aaa" y="124.898612"/>
     <use style="fill:#ff0000;" x="125.337466" xlink:href="#m670beb6aaa" y="81.152103"/>
     <use style="fill:#ff0000;" x="131.065855" xlink:href="#m670beb6aaa" y="40.997373"/>
     <use style="fill:#ff0000;" x="136.794244" xlink:href="#m670beb6aaa" y="20.382787"/>
     <use style="fill:#ff0000;" x="142.522632" xlink:href="#m670beb6aaa" y="27.495897"/>
     <use style="fill:#ff0000;" x="148.251021" xlink:href="#m670beb6aaa" y="59.51157"/>
     <use style="fill:#ff0000;" x="153.97941" xlink:href="#m670beb6aaa" y="103.714051"/>
     <use style="fill:#ff0000;" x="159.707798" xlink:href="#m670beb6aaa" y="142.547321"/>
     <use style="fill:#ff0000;" x="165.436187" xlink:href="#m670beb6aaa" y="160.587862"/>
     <use style="fill:#ff0000;" x="171.164575" xlink:href="#m670beb6aaa" y="150.670463"/>
     <use style="fill:#ff0000;" x="176.892964" xlink:href="#m670beb6aaa" y="116.734044"/>
     <use style="fill:#ff0000;" x="182.621353" xlink:href="#m670beb6aaa" y="72.257227"/>
     <use style="fill:#ff0000;" x="188.349741" xlink:href="#m670beb6aaa" y="34.904992"/>
     <use style="fill:#ff0000;" x="194.07813" xlink:href="#m670beb6aaa" y="19.512628"/>
     <use style="fill:#ff0000;" x="199.806519" xlink:href="#m670beb6aaa" y="32.193564"/>
     <use style="fill:#ff0000;" x="205.534907" xlink:href="#m670beb6aaa" y="67.911277"/>
     <use style="fill:#ff0000;" x="211.263296" xlink:href="#m670beb6aaa" y="112.479664"/>
     <use style="fill:#ff0000;" x="216.991685" xlink:href="#m670beb6aaa" y="148.197377"/>
     <use style="fill:#ff0000;" x="222.720073" xlink:href="#m670beb6aaa" y="160.878313"/>
     <use style="fill:#ff0000;" x="228.448462" xlink:href="#m670beb6aaa" y="145.485949"/>
     <use style="fill:#ff0000;" x="234.17685" xlink:href="#m670beb6aaa" y="108.133714"/>
     <use style="fill:#ff0000;" x="239.905239" xlink:href="#m670beb6aaa" y="63.656897"/>
     <use style="fill:#ff0000;" x="245.633628" xlink:href="#m670beb6aaa" y="29.720478"/>
     <use style="fill:#ff0000;" x="251.362016" xlink:href="#m670beb6aaa" y="19.803079"/>
     <use style="fill:#ff0000;" x="257.090405" xlink:href="#m670beb6aaa" y="37.84362"/>
     <use style="fill:#ff0000;" x="262.818794" xlink:href="#m670beb6aaa" y="76.67689"/>
     <use style="fill:#ff0000;" x="268.547182" xlink:href="#m670beb6aaa" y="120.879371"/>
     <use style="fill:#ff0000;" x="274.275571" xlink:href="#m670beb6aaa" y="152.895044"/>
     <use style="fill:#ff0000;" x="280.003959" xlink:href="#m670beb6aaa" y="160.008154"/>
     <use style="fill:#ff0000;" x="285.732348" xlink:href="#m670beb6aaa" y="139.393568"/>
     <use style="fill:#ff0000;" x="291.460737" xlink:href="#m670beb6aaa" y="99.238838"/>
     <use style="fill:#ff0000;" x="297.189125" xlink:href="#m670beb6aaa" y="55.492329"/>
     <use style="fill:#ff0000;" x="302.917514" xlink:href="#m670beb6aaa" y="25.528962"/>
     <use style="fill:#ff0000;" x="308.645903" xlink:href="#m670beb6aaa" y="21.249371"/>
     <use style="fill:#ff0000;" x="314.374291" xlink:href="#m670beb6aaa" y="44.353292"/>
     <use style="fill:#ff0000;" x="320.10268" xlink:href="#m670beb6aaa" y="85.664477"/>
     <use style="fill:#ff0000;" x="325.831069" xlink:href="#m670beb6aaa" y="128.77525"/>
     <use style="fill:#ff0000;" x="331.559457" xlink:href="#m670beb6aaa" y="156.563185"/>
     <use style="fill:#ff0000;" x="337.287846" xlink:href="#m670beb6aaa" y="157.991672"/>
     <use style="fill:#ff0000;" x="343.016234" xlink:href="#m670beb6aaa" y="132.493355"/>
     <use style="fill:#ff0000;" x="348.744623" xlink:href="#m670beb6aaa" y="90.19547"/>
    </g>
   </g>
   <g id="patch_3">
    <path d="M 59.632849 178.305354 
L 59.632849 2.834646 
" style="fill:none;stroke:#000000;stroke-linecap:square;stroke-linejoin:miter;"/>
   </g>
   <g id="patch_4">
    <path d="M 59.632849 178.305354 
L 357.165354 178.305354 
" style="fill:none;stroke:#000000;stroke-linecap:square;stroke-linejoin:miter;"/>
   </g>
   <g id="line2d_23">
    <path clip-path="url(#p256e6e0964)" d="M 68.05358 111.967332 
L 69.180853 111.42704 
L 70.308127 111.12838 
L 71.4354 111.075354 
L 72.562673 111.269082 
L 73.689946 111.70777 
L 74.81722 112.386731 
L 75.944493 113.298427 
L 77.071766 114.432572 
L 78.199039 115.776253 
L 80.453586 119.028472 
L 82.708133 122.906332 
L 84.962679 127.232659 
L 92.853592 143.003323 
L 95.108138 146.857763 
L 97.362685 150.09364 
L 98.489958 151.435141 
L 99.617232 152.572772 
L 100.744505 153.494701 
L 101.871778 154.191509 
L 102.999051 154.656281 
L 104.126325 154.884661 
L 105.253598 154.874886 
L 106.380871 154.627793 
L 107.508144 154.146802 
L 108.635418 153.437871 
L 109.762691 152.509427 
L 110.889964 151.372274 
L 112.017237 150.039474 
L 114.271784 146.849609 
L 116.52633 143.08359 
L 119.90815 136.728152 
L 125.544517 125.842023 
L 127.799063 121.946006 
L 130.05361 118.574849 
L 131.180883 117.132094 
L 132.308156 115.871937 
L 133.435429 114.807202 
L 134.562703 113.948367 
L 135.689976 113.303458 
L 136.817249 112.877963 
L 137.944523 112.674799 
L 139.071796 112.694301 
L 140.199069 112.934246 
L 141.326342 113.38992 
L 142.453616 114.054211 
L 143.580889 114.917727 
L 144.708162 115.968956 
L 146.962709 118.578948 
L 149.217255 121.756767 
L 151.471802 125.354126 
L 155.980895 133.156013 
L 159.362715 138.888249 
L 161.617261 142.362541 
L 163.871808 145.402887 
L 166.126354 147.899442 
L 167.253627 148.916216 
L 168.380901 149.767248 
L 169.508174 150.446123 
L 170.635447 150.948162 
L 171.76272 151.270423 
L 172.889994 151.411688 
L 174.017267 151.372435 
L 175.14454 151.154799 
L 176.271814 150.762518 
L 177.399087 150.200867 
L 178.52636 149.476593 
L 179.653633 148.59782 
L 181.90818 146.415647 
L 184.162726 143.743376 
L 186.417273 140.685613 
L 189.799093 135.633067 
L 195.435459 127.020261 
L 197.690006 123.875543 
L 199.944552 121.078724 
L 202.199099 118.732151 
L 204.453645 116.922723 
L 205.580918 116.241645 
L 206.708192 115.718986 
L 207.835465 115.360055 
L 208.962738 115.168744 
L 210.090011 115.147493 
L 211.217285 115.297249 
L 212.344558 115.617458 
L 213.471831 116.106046 
L 214.599105 116.759429 
L 215.726378 117.572526 
L 217.980924 119.650231 
L 220.235471 122.269934 
L 222.490017 125.341483 
L 225.871837 130.554521 
L 233.76275 143.240136 
L 236.017297 146.365909 
L 238.271843 149.021119 
L 239.399116 150.134747 
L 240.52639 151.087852 
L 241.653663 151.868626 
L 242.780936 152.466707 
L 243.908209 152.873313 
L 245.035483 153.081362 
L 246.162756 153.085582 
L 247.290029 152.882613 
L 248.417302 152.471089 
L 249.544576 151.851713 
L 250.671849 151.027302 
L 251.799122 150.002832 
L 252.926396 148.785449 
L 255.180942 145.811333 
L 257.435489 142.20481 
L 259.690035 138.097785 
L 263.071855 131.35605 
L 267.580948 122.28624 
L 269.835494 118.178524 
L 272.090041 114.625572 
L 273.217314 113.115333 
L 274.344588 111.810499 
L 275.471861 110.729492 
L 276.599134 109.888373 
L 277.726407 109.300569 
L 278.853681 108.97664 
L 279.980954 108.924072 
L 281.108227 109.147122 
L 282.2355 109.646698 
L 283.362774 110.420285 
L 284.490047 111.461932 
L 285.61732 112.762273 
L 286.744593 114.308614 
L 287.871867 116.085059 
L 290.126413 120.249766 
L 292.38096 125.072987 
L 295.76278 133.056258 
L 300.271873 143.786872 
L 302.526419 148.615527 
L 304.780966 152.769057 
L 305.908239 154.527489 
L 307.035512 156.043507 
L 308.162786 157.297795 
L 309.290059 158.273984 
L 310.417332 158.958849 
L 311.544605 159.342475 
L 312.671879 159.418395 
L 313.799152 159.183681 
L 314.926425 158.639014 
L 316.053698 157.788709 
L 317.180972 156.640702 
L 318.308245 155.20651 
L 319.435518 153.501137 
L 320.562791 151.542953 
L 322.817338 146.957433 
L 325.071884 141.656945 
L 328.453704 132.912178 
L 332.962797 121.248407 
L 335.217344 116.063781 
L 337.47189 111.668188 
L 338.599164 109.838425 
L 339.726437 108.286582 
L 340.85371 107.032715 
L 341.980983 106.093006 
L 343.108257 105.47951 
L 344.23553 105.199962 
L 345.362803 105.25766 
L 346.490077 105.651411 
L 347.61735 106.375551 
L 348.744623 107.420036 
L 348.744623 107.420036 
" style="fill:none;stroke:#000000;"/>
   </g>
   <g id="line2d_24">
    <path clip-path="url(#p256e6e0964)" d="M 68.05358 87.772664 
L 71.4354 62.889223 
L 73.689946 47.986013 
L 74.81722 41.421825 
L 75.944493 35.602406 
L 77.071766 30.62895 
L 78.199039 26.589017 
L 79.326313 23.554558 
L 80.453586 21.580242 
L 81.580859 20.702163 
L 82.708133 20.936959 
L 83.835406 22.281403 
L 84.962679 24.712449 
L 86.089952 28.187769 
L 87.217226 32.646726 
L 88.344499 38.011768 
L 89.471772 44.190179 
L 91.726319 58.552928 
L 93.980865 74.772658 
L 99.617232 116.478719 
L 101.871778 130.919936 
L 102.999051 137.205953 
L 104.126325 142.745451 
L 105.253598 147.460134 
L 106.380871 151.283991 
L 107.508144 154.163824 
L 108.635418 156.059639 
L 109.762691 156.944928 
L 110.889964 156.806854 
L 112.017237 155.646351 
L 113.144511 153.478148 
L 114.271784 150.330705 
L 115.399057 146.246064 
L 116.52633 141.279606 
L 117.653604 135.499676 
L 119.90815 121.834421 
L 122.162697 106.032903 
L 128.926336 55.692319 
L 131.180883 41.528783 
L 132.308156 35.519794 
L 133.435429 30.371934 
L 134.562703 26.177889 
L 135.689976 23.014341 
L 136.817249 20.940159 
L 137.944523 19.994973 
L 139.071796 20.198199 
L 140.199069 21.548533 
L 141.326342 24.023949 
L 142.453616 27.582202 
L 143.580889 32.161802 
L 144.708162 37.683441 
L 145.835435 44.051801 
L 148.089982 58.880351 
L 150.344528 75.650864 
L 155.980895 118.829054 
L 158.235441 133.783114 
L 159.362715 140.289209 
L 160.489988 146.018813 
L 161.617261 150.889828 
L 162.744534 154.832871 
L 163.871808 157.791822 
L 164.999081 159.724233 
L 166.126354 160.601623 
L 167.253627 160.409684 
L 168.380901 159.148398 
L 169.508174 156.832081 
L 170.635447 153.489351 
L 171.76272 149.163009 
L 172.889994 143.909818 
L 174.017267 137.800169 
L 176.271814 123.35815 
L 178.52636 106.649946 
L 185.29 53.275641 
L 187.544546 38.191383 
L 188.671819 31.774148 
L 189.799093 26.262437 
L 190.926366 21.755359 
L 192.053639 18.335139 
L 193.180912 16.065141 
L 194.308186 14.988315 
L 195.435459 15.126106 
L 196.562732 16.477892 
L 197.690006 19.020965 
L 198.817279 22.711052 
L 199.944552 27.483362 
L 201.071825 33.254119 
L 202.199099 39.922504 
L 204.453645 55.477716 
L 206.708192 73.094571 
L 212.344558 118.506283 
L 214.599105 134.252366 
L 215.726378 141.109691 
L 216.853651 147.155006 
L 217.980924 152.302877 
L 219.108198 156.481322 
L 220.235471 159.632351 
L 221.362744 161.712361 
L 222.490017 162.692419 
L 223.617291 162.558454 
L 224.744564 161.31136 
L 225.871837 158.967031 
L 226.99911 155.556316 
L 228.126384 151.124888 
L 229.253657 145.733019 
L 230.38093 139.455222 
L 232.635477 124.607903 
L 234.890023 107.439995 
L 241.653663 52.88457 
L 243.908209 37.647812 
L 245.035483 31.223901 
L 246.162756 25.75626 
L 247.290029 21.345759 
L 248.417302 18.075037 
L 249.544576 16.006457 
L 250.671849 15.180529 
L 251.799122 15.614853 
L 252.926396 17.303622 
L 254.053669 20.21773 
L 255.180942 24.305449 
L 256.308215 29.493678 
L 257.435489 35.689686 
L 258.562762 42.783299 
L 260.817308 59.150857 
L 264.199128 86.974871 
L 267.580948 115.030463 
L 269.835494 131.87844 
L 270.962768 139.347035 
L 272.090041 146.026236 
L 273.217314 151.81746 
L 274.344588 156.635822 
L 275.471861 160.41081 
L 276.599134 163.086796 
L 277.726407 164.623418 
L 278.853681 164.995854 
L 279.980954 164.195007 
L 281.108227 162.227625 
L 282.2355 159.116336 
L 283.362774 154.899621 
L 284.490047 149.63169 
L 285.61732 143.382247 
L 286.744593 136.236118 
L 288.99914 119.665221 
L 291.253687 100.873712 
L 296.890053 51.931843 
L 299.144599 34.955871 
L 300.271873 27.65414 
L 301.399146 21.327361 
L 302.526419 16.094945 
L 303.653692 12.057834 
L 304.780966 9.295964 
L 305.908239 7.866199 
L 307.035512 7.800798 
L 308.162786 9.106515 
L 309.290059 11.764349 
L 310.417332 15.729958 
L 311.544605 20.934735 
L 312.671879 27.287483 
L 313.799152 34.67662 
L 316.053698 52.032062 
L 318.308245 71.808967 
L 323.944611 123.111529 
L 326.199158 140.975086 
L 327.326431 148.765509 
L 328.453704 155.639442 
L 329.580978 161.497935 
L 330.708251 166.257179 
L 331.835524 169.849063 
L 332.962797 172.221596 
L 334.090071 173.339202 
L 335.217344 173.182938 
L 336.344617 171.75064 
L 337.47189 169.057023 
L 338.599164 165.133709 
L 339.726437 160.029207 
L 340.85371 153.808789 
L 341.980983 146.554262 
L 343.108257 138.363572 
L 345.362803 119.64244 
L 347.61735 98.723036 
L 348.744623 87.82973 
L 348.744623 87.82973 
" style="fill:none;stroke:#ff0000;"/>
   </g>
   <g id="legend_1">
    <g id="line2d_25">
     <path d="M 234.281604 23.352771 
L 258.281604 23.352771 
" style="fill:none;"/>
    </g>
    <g id="line2d_26">
     <defs>
      <path d="M 0 4.8 
C 1.272975 4.8 2.493983 4.294242 3.394113 3.394113 
C 4.294242 2.493983 4.8 1.272975 4.8 0 
C 4.8 -1.272975 4.294242 -2.493983 3.394113 -3.394113 
C 2.493983 -4.294242 1.272975 -4.8 0 -4.8 
C -1.272975 -4.8 -2.493983 -4.294242 -3.394113 -3.394113 
C -4.294242 -2.493983 -4.8 -1.272975 -4.8 0 
C -4.8 1.272975 -4.294242 2.493983 -3.394113 3.394113 
C -2.493983 4.294242 -1.272975 4.8 0 4.8 
z
" id="m350e0726bb"/>
     </defs>
     <g>
      <use x="246.281604" xlink:href="#m350e0726bb" y="23.352771"/>
     </g>
    </g>
    <g id="text_14">
     <!-- Groundtruth -->
     <g transform="translate(267.881604 27.552771)scale(0.12 -0.12)">
      <defs>
       <path d="M 59.515625 10.40625 
L 59.515625 29.984375 
L 43.40625 29.984375 
L 43.40625 38.09375 
L 69.28125 38.09375 
L 69.28125 6.78125 
Q 63.578125 2.734375 56.6875 0.65625 
Q 49.8125 -1.421875 42 -1.421875 
Q 24.90625 -1.421875 15.25 8.5625 
Q 5.609375 18.5625 5.609375 36.375 
Q 5.609375 54.25 15.25 64.234375 
Q 24.90625 74.21875 42 74.21875 
Q 49.125 74.21875 55.546875 72.453125 
Q 61.96875 70.703125 67.390625 67.28125 
L 67.390625 56.78125 
Q 61.921875 61.421875 55.765625 63.765625 
Q 49.609375 66.109375 42.828125 66.109375 
Q 29.4375 66.109375 22.71875 58.640625 
Q 16.015625 51.171875 16.015625 36.375 
Q 16.015625 21.625 22.71875 14.15625 
Q 29.4375 6.6875 42.828125 6.6875 
Q 48.046875 6.6875 52.140625 7.59375 
Q 56.25 8.5 59.515625 10.40625 
z
" id="DejaVuSans-71"/>
       <path d="M 41.109375 46.296875 
Q 39.59375 47.171875 37.8125 47.578125 
Q 36.03125 48 33.890625 48 
Q 26.265625 48 22.1875 43.046875 
Q 18.109375 38.09375 18.109375 28.8125 
L 18.109375 0 
L 9.078125 0 
L 9.078125 54.6875 
L 18.109375 54.6875 
L 18.109375 46.1875 
Q 20.953125 51.171875 25.484375 53.578125 
Q 30.03125 56 36.53125 56 
Q 37.453125 56 38.578125 55.875 
Q 39.703125 55.765625 41.0625 55.515625 
z
" id="DejaVuSans-114"/>
       <path d="M 8.5 21.578125 
L 8.5 54.6875 
L 17.484375 54.6875 
L 17.484375 21.921875 
Q 17.484375 14.15625 20.5 10.265625 
Q 23.53125 6.390625 29.59375 6.390625 
Q 36.859375 6.390625 41.078125 11.03125 
Q 45.3125 15.671875 45.3125 23.6875 
L 45.3125 54.6875 
L 54.296875 54.6875 
L 54.296875 0 
L 45.3125 0 
L 45.3125 8.40625 
Q 42.046875 3.421875 37.71875 1 
Q 33.40625 -1.421875 27.6875 -1.421875 
Q 18.265625 -1.421875 13.375 4.4375 
Q 8.5 10.296875 8.5 21.578125 
z
M 31.109375 56 
z
" id="DejaVuSans-117"/>
       <path d="M 54.890625 33.015625 
L 54.890625 0 
L 45.90625 0 
L 45.90625 32.71875 
Q 45.90625 40.484375 42.875 44.328125 
Q 39.84375 48.1875 33.796875 48.1875 
Q 26.515625 48.1875 22.3125 43.546875 
Q 18.109375 38.921875 18.109375 30.90625 
L 18.109375 0 
L 9.078125 0 
L 9.078125 75.984375 
L 18.109375 75.984375 
L 18.109375 46.1875 
Q 21.34375 51.125 25.703125 53.5625 
Q 30.078125 56 35.796875 56 
Q 45.21875 56 50.046875 50.171875 
Q 54.890625 44.34375 54.890625 33.015625 
z
" id="DejaVuSans-104"/>
      </defs>
      <use xlink:href="#DejaVuSans-71"/>
      <use x="77.490234" xlink:href="#DejaVuSans-114"/>
      <use x="116.353516" xlink:href="#DejaVuSans-111"/>
      <use x="177.535156" xlink:href="#DejaVuSans-117"/>
      <use x="240.914062" xlink:href="#DejaVuSans-110"/>
      <use x="304.292969" xlink:href="#DejaVuSans-100"/>
      <use x="367.769531" xlink:href="#DejaVuSans-116"/>
      <use x="406.978516" xlink:href="#DejaVuSans-114"/>
      <use x="448.091797" xlink:href="#DejaVuSans-117"/>
      <use x="511.470703" xlink:href="#DejaVuSans-116"/>
      <use x="550.679688" xlink:href="#DejaVuSans-104"/>
     </g>
    </g>
    <g id="line2d_27">
     <path d="M 234.281604 40.966521 
L 258.281604 40.966521 
" style="fill:none;stroke:#000000;stroke-linejoin:miter;stroke-width:1.5;"/>
    </g>
    <g id="line2d_28"/>
    <g id="text_15">
     <!-- Prediction -->
     <g transform="translate(267.881604 45.166521)scale(0.12 -0.12)">
      <defs>
       <path d="M 19.671875 64.796875 
L 19.671875 37.40625 
L 32.078125 37.40625 
Q 38.96875 37.40625 42.71875 40.96875 
Q 46.484375 44.53125 46.484375 51.125 
Q 46.484375 57.671875 42.71875 61.234375 
Q 38.96875 64.796875 32.078125 64.796875 
z
M 9.8125 72.90625 
L 32.078125 72.90625 
Q 44.34375 72.90625 50.609375 67.359375 
Q 56.890625 61.8125 56.890625 51.125 
Q 56.890625 40.328125 50.609375 34.8125 
Q 44.34375 29.296875 32.078125 29.296875 
L 19.671875 29.296875 
L 19.671875 0 
L 9.8125 0 
z
" id="DejaVuSans-80"/>
      </defs>
      <use xlink:href="#DejaVuSans-80"/>
      <use x="58.552734" xlink:href="#DejaVuSans-114"/>
      <use x="97.416016" xlink:href="#DejaVuSans-101"/>
      <use x="158.939453" xlink:href="#DejaVuSans-100"/>
      <use x="222.416016" xlink:href="#DejaVuSans-105"/>
      <use x="250.199219" xlink:href="#DejaVuSans-99"/>
      <use x="305.179688" xlink:href="#DejaVuSans-116"/>
      <use x="344.388672" xlink:href="#DejaVuSans-105"/>
      <use x="372.171875" xlink:href="#DejaVuSans-111"/>
      <use x="433.353516" xlink:href="#DejaVuSans-110"/>
     </g>
    </g>
   </g>
  </g>
 </g>
 <defs>
  <clipPath id="p256e6e0964">
   <rect height="175.470709" width="297.532506" x="59.632849" y="2.834646"/>
  </clipPath>
 </defs>
</svg>
