<?xml version="1.0" encoding="utf-8" standalone="no"?>
<!DOCTYPE svg PUBLIC "-//W3C//DTD SVG 1.1//EN"
  "http://www.w3.org/Graphics/SVG/1.1/DTD/svg11.dtd">
<!-- Created with matplotlib (https://matplotlib.org/) -->
<svg height="288pt" version="1.1" viewBox="0 0 360 288" width="360pt" xmlns="http://www.w3.org/2000/svg" xmlns:xlink="http://www.w3.org/1999/xlink">
 <metadata>
  <rdf:RDF xmlns:cc="http://creativecommons.org/ns#" xmlns:dc="http://purl.org/dc/elements/1.1/" xmlns:rdf="http://www.w3.org/1999/02/22-rdf-syntax-ns#">
   <cc:Work>
    <dc:type rdf:resource="http://purl.org/dc/dcmitype/StillImage"/>
    <dc:date>2021-04-26T15:10:40.834143</dc:date>
    <dc:format>image/svg+xml</dc:format>
    <dc:creator>
     <cc:Agent>
      <dc:title>Matplotlib v3.3.2, https://matplotlib.org/</dc:title>
     </cc:Agent>
    </dc:creator>
   </cc:Work>
  </rdf:RDF>
 </metadata>
 <defs>
  <style type="text/css">*{stroke-linecap:butt;stroke-linejoin:round;}</style>
 </defs>
 <g id="figure_1">
  <g id="patch_1">
   <path d="M 0 288 
L 360 288 
L 360 0 
L 0 0 
z
" style="fill:#ffffff;"/>
  </g>
  <g id="axes_1">
   <g id="patch_2">
    <path d="M 44.401491 250.305354 
L 357.165354 250.305354 
L 357.165354 2.834646 
L 44.401491 2.834646 
z
" style="fill:#ffffff;"/>
   </g>
   <g id="matplotlib.axis_1">
    <g id="xtick_1">
     <g id="line2d_1">
      <path clip-path="url(#p9c1ec9ea01)" d="M 53.253299 250.305354 
L 53.253299 2.834646 
" style="fill:none;stroke:#000000;stroke-linecap:square;stroke-opacity:0.1;stroke-width:0.5;"/>
     </g>
     <g id="line2d_2">
      <defs>
       <path d="M 0 0 
L 0 -2.5 
" id="mbd06452821" style="stroke:#000000;stroke-width:0.5;"/>
      </defs>
      <g>
       <use style="stroke:#000000;stroke-width:0.5;" x="53.253299" xlink:href="#mbd06452821" y="250.305354"/>
      </g>
     </g>
     <g id="text_1">
      <!-- $\mathregular{0}$ -->
      <g transform="translate(49.413299 262.923479)scale(0.12 -0.12)">
       <defs>
        <path d="M 31.78125 66.40625 
Q 24.171875 66.40625 20.328125 58.90625 
Q 16.5 51.421875 16.5 36.375 
Q 16.5 21.390625 20.328125 13.890625 
Q 24.171875 6.390625 31.78125 6.390625 
Q 39.453125 6.390625 43.28125 13.890625 
Q 47.125 21.390625 47.125 36.375 
Q 47.125 51.421875 43.28125 58.90625 
Q 39.453125 66.40625 31.78125 66.40625 
z
M 31.78125 74.21875 
Q 44.046875 74.21875 50.515625 64.515625 
Q 56.984375 54.828125 56.984375 36.375 
Q 56.984375 17.96875 50.515625 8.265625 
Q 44.046875 -1.421875 31.78125 -1.421875 
Q 19.53125 -1.421875 13.0625 8.265625 
Q 6.59375 17.96875 6.59375 36.375 
Q 6.59375 54.828125 13.0625 64.515625 
Q 19.53125 74.21875 31.78125 74.21875 
z
" id="DejaVuSans-48"/>
       </defs>
       <use transform="translate(0 0.78125)" xlink:href="#DejaVuSans-48"/>
      </g>
     </g>
    </g>
    <g id="xtick_2">
     <g id="line2d_3">
      <path clip-path="url(#p9c1ec9ea01)" d="M 112.265348 250.305354 
L 112.265348 2.834646 
" style="fill:none;stroke:#000000;stroke-linecap:square;stroke-opacity:0.1;stroke-width:0.5;"/>
     </g>
     <g id="line2d_4">
      <g>
       <use style="stroke:#000000;stroke-width:0.5;" x="112.265348" xlink:href="#mbd06452821" y="250.305354"/>
      </g>
     </g>
     <g id="text_2">
      <!-- $\mathregular{1}$ -->
      <g transform="translate(108.425348 262.923479)scale(0.12 -0.12)">
       <defs>
        <path d="M 12.40625 8.296875 
L 28.515625 8.296875 
L 28.515625 63.921875 
L 10.984375 60.40625 
L 10.984375 69.390625 
L 28.421875 72.90625 
L 38.28125 72.90625 
L 38.28125 8.296875 
L 54.390625 8.296875 
L 54.390625 0 
L 12.40625 0 
z
" id="DejaVuSans-49"/>
       </defs>
       <use transform="translate(0 0.09375)" xlink:href="#DejaVuSans-49"/>
      </g>
     </g>
    </g>
    <g id="xtick_3">
     <g id="line2d_5">
      <path clip-path="url(#p9c1ec9ea01)" d="M 171.277398 250.305354 
L 171.277398 2.834646 
" style="fill:none;stroke:#000000;stroke-linecap:square;stroke-opacity:0.1;stroke-width:0.5;"/>
     </g>
     <g id="line2d_6">
      <g>
       <use style="stroke:#000000;stroke-width:0.5;" x="171.277398" xlink:href="#mbd06452821" y="250.305354"/>
      </g>
     </g>
     <g id="text_3">
      <!-- $\mathregular{2}$ -->
      <g transform="translate(167.437398 262.923479)scale(0.12 -0.12)">
       <defs>
        <path d="M 19.1875 8.296875 
L 53.609375 8.296875 
L 53.609375 0 
L 7.328125 0 
L 7.328125 8.296875 
Q 12.9375 14.109375 22.625 23.890625 
Q 32.328125 33.6875 34.8125 36.53125 
Q 39.546875 41.84375 41.421875 45.53125 
Q 43.3125 49.21875 43.3125 52.78125 
Q 43.3125 58.59375 39.234375 62.25 
Q 35.15625 65.921875 28.609375 65.921875 
Q 23.96875 65.921875 18.8125 64.3125 
Q 13.671875 62.703125 7.8125 59.421875 
L 7.8125 69.390625 
Q 13.765625 71.78125 18.9375 73 
Q 24.125 74.21875 28.421875 74.21875 
Q 39.75 74.21875 46.484375 68.546875 
Q 53.21875 62.890625 53.21875 53.421875 
Q 53.21875 48.921875 51.53125 44.890625 
Q 49.859375 40.875 45.40625 35.40625 
Q 44.1875 33.984375 37.640625 27.21875 
Q 31.109375 20.453125 19.1875 8.296875 
z
" id="DejaVuSans-50"/>
       </defs>
       <use transform="translate(0 0.78125)" xlink:href="#DejaVuSans-50"/>
      </g>
     </g>
    </g>
    <g id="xtick_4">
     <g id="line2d_7">
      <path clip-path="url(#p9c1ec9ea01)" d="M 230.289448 250.305354 
L 230.289448 2.834646 
" style="fill:none;stroke:#000000;stroke-linecap:square;stroke-opacity:0.1;stroke-width:0.5;"/>
     </g>
     <g id="line2d_8">
      <g>
       <use style="stroke:#000000;stroke-width:0.5;" x="230.289448" xlink:href="#mbd06452821" y="250.305354"/>
      </g>
     </g>
     <g id="text_4">
      <!-- $\mathregular{3}$ -->
      <g transform="translate(226.449448 262.923479)scale(0.12 -0.12)">
       <defs>
        <path d="M 40.578125 39.3125 
Q 47.65625 37.796875 51.625 33 
Q 55.609375 28.21875 55.609375 21.1875 
Q 55.609375 10.40625 48.1875 4.484375 
Q 40.765625 -1.421875 27.09375 -1.421875 
Q 22.515625 -1.421875 17.65625 -0.515625 
Q 12.796875 0.390625 7.625 2.203125 
L 7.625 11.71875 
Q 11.71875 9.328125 16.59375 8.109375 
Q 21.484375 6.890625 26.8125 6.890625 
Q 36.078125 6.890625 40.9375 10.546875 
Q 45.796875 14.203125 45.796875 21.1875 
Q 45.796875 27.640625 41.28125 31.265625 
Q 36.765625 34.90625 28.71875 34.90625 
L 20.21875 34.90625 
L 20.21875 43.015625 
L 29.109375 43.015625 
Q 36.375 43.015625 40.234375 45.921875 
Q 44.09375 48.828125 44.09375 54.296875 
Q 44.09375 59.90625 40.109375 62.90625 
Q 36.140625 65.921875 28.71875 65.921875 
Q 24.65625 65.921875 20.015625 65.03125 
Q 15.375 64.15625 9.8125 62.3125 
L 9.8125 71.09375 
Q 15.4375 72.65625 20.34375 73.4375 
Q 25.25 74.21875 29.59375 74.21875 
Q 40.828125 74.21875 47.359375 69.109375 
Q 53.90625 64.015625 53.90625 55.328125 
Q 53.90625 49.265625 50.4375 45.09375 
Q 46.96875 40.921875 40.578125 39.3125 
z
" id="DejaVuSans-51"/>
       </defs>
       <use transform="translate(0 0.78125)" xlink:href="#DejaVuSans-51"/>
      </g>
     </g>
    </g>
    <g id="xtick_5">
     <g id="line2d_9">
      <path clip-path="url(#p9c1ec9ea01)" d="M 289.301497 250.305354 
L 289.301497 2.834646 
" style="fill:none;stroke:#000000;stroke-linecap:square;stroke-opacity:0.1;stroke-width:0.5;"/>
     </g>
     <g id="line2d_10">
      <g>
       <use style="stroke:#000000;stroke-width:0.5;" x="289.301497" xlink:href="#mbd06452821" y="250.305354"/>
      </g>
     </g>
     <g id="text_5">
      <!-- $\mathregular{4}$ -->
      <g transform="translate(285.461497 262.923479)scale(0.12 -0.12)">
       <defs>
        <path d="M 37.796875 64.3125 
L 12.890625 25.390625 
L 37.796875 25.390625 
z
M 35.203125 72.90625 
L 47.609375 72.90625 
L 47.609375 25.390625 
L 58.015625 25.390625 
L 58.015625 17.1875 
L 47.609375 17.1875 
L 47.609375 0 
L 37.796875 0 
L 37.796875 17.1875 
L 4.890625 17.1875 
L 4.890625 26.703125 
z
" id="DejaVuSans-52"/>
       </defs>
       <use transform="translate(0 0.09375)" xlink:href="#DejaVuSans-52"/>
      </g>
     </g>
    </g>
    <g id="xtick_6">
     <g id="line2d_11">
      <path clip-path="url(#p9c1ec9ea01)" d="M 348.313547 250.305354 
L 348.313547 2.834646 
" style="fill:none;stroke:#000000;stroke-linecap:square;stroke-opacity:0.1;stroke-width:0.5;"/>
     </g>
     <g id="line2d_12">
      <g>
       <use style="stroke:#000000;stroke-width:0.5;" x="348.313547" xlink:href="#mbd06452821" y="250.305354"/>
      </g>
     </g>
     <g id="text_6">
      <!-- $\mathregular{5}$ -->
      <g transform="translate(344.473547 262.923479)scale(0.12 -0.12)">
       <defs>
        <path d="M 10.796875 72.90625 
L 49.515625 72.90625 
L 49.515625 64.59375 
L 19.828125 64.59375 
L 19.828125 46.734375 
Q 21.96875 47.46875 24.109375 47.828125 
Q 26.265625 48.1875 28.421875 48.1875 
Q 40.625 48.1875 47.75 41.5 
Q 54.890625 34.8125 54.890625 23.390625 
Q 54.890625 11.625 47.5625 5.09375 
Q 40.234375 -1.421875 26.90625 -1.421875 
Q 22.3125 -1.421875 17.546875 -0.640625 
Q 12.796875 0.140625 7.71875 1.703125 
L 7.71875 11.625 
Q 12.109375 9.234375 16.796875 8.0625 
Q 21.484375 6.890625 26.703125 6.890625 
Q 35.15625 6.890625 40.078125 11.328125 
Q 45.015625 15.765625 45.015625 23.390625 
Q 45.015625 31 40.078125 35.4375 
Q 35.15625 39.890625 26.703125 39.890625 
Q 22.75 39.890625 18.8125 39.015625 
Q 14.890625 38.140625 10.796875 36.28125 
z
" id="DejaVuSans-53"/>
       </defs>
       <use transform="translate(0 0.09375)" xlink:href="#DejaVuSans-53"/>
      </g>
     </g>
    </g>
    <g id="text_7">
     <!-- Time [s] -->
     <g transform="translate(168.257173 281.576604)scale(0.16 -0.16)">
      <defs>
       <path d="M -0.296875 72.90625 
L 61.375 72.90625 
L 61.375 64.59375 
L 35.5 64.59375 
L 35.5 0 
L 25.59375 0 
L 25.59375 64.59375 
L -0.296875 64.59375 
z
" id="DejaVuSans-84"/>
       <path d="M 9.421875 54.6875 
L 18.40625 54.6875 
L 18.40625 0 
L 9.421875 0 
z
M 9.421875 75.984375 
L 18.40625 75.984375 
L 18.40625 64.59375 
L 9.421875 64.59375 
z
" id="DejaVuSans-105"/>
       <path d="M 52 44.1875 
Q 55.375 50.25 60.0625 53.125 
Q 64.75 56 71.09375 56 
Q 79.640625 56 84.28125 50.015625 
Q 88.921875 44.046875 88.921875 33.015625 
L 88.921875 0 
L 79.890625 0 
L 79.890625 32.71875 
Q 79.890625 40.578125 77.09375 44.375 
Q 74.3125 48.1875 68.609375 48.1875 
Q 61.625 48.1875 57.5625 43.546875 
Q 53.515625 38.921875 53.515625 30.90625 
L 53.515625 0 
L 44.484375 0 
L 44.484375 32.71875 
Q 44.484375 40.625 41.703125 44.40625 
Q 38.921875 48.1875 33.109375 48.1875 
Q 26.21875 48.1875 22.15625 43.53125 
Q 18.109375 38.875 18.109375 30.90625 
L 18.109375 0 
L 9.078125 0 
L 9.078125 54.6875 
L 18.109375 54.6875 
L 18.109375 46.1875 
Q 21.1875 51.21875 25.484375 53.609375 
Q 29.78125 56 35.6875 56 
Q 41.65625 56 45.828125 52.96875 
Q 50 49.953125 52 44.1875 
z
" id="DejaVuSans-109"/>
       <path d="M 56.203125 29.59375 
L 56.203125 25.203125 
L 14.890625 25.203125 
Q 15.484375 15.921875 20.484375 11.0625 
Q 25.484375 6.203125 34.421875 6.203125 
Q 39.59375 6.203125 44.453125 7.46875 
Q 49.3125 8.734375 54.109375 11.28125 
L 54.109375 2.78125 
Q 49.265625 0.734375 44.1875 -0.34375 
Q 39.109375 -1.421875 33.890625 -1.421875 
Q 20.796875 -1.421875 13.15625 6.1875 
Q 5.515625 13.8125 5.515625 26.8125 
Q 5.515625 40.234375 12.765625 48.109375 
Q 20.015625 56 32.328125 56 
Q 43.359375 56 49.78125 48.890625 
Q 56.203125 41.796875 56.203125 29.59375 
z
M 47.21875 32.234375 
Q 47.125 39.59375 43.09375 43.984375 
Q 39.0625 48.390625 32.421875 48.390625 
Q 24.90625 48.390625 20.390625 44.140625 
Q 15.875 39.890625 15.1875 32.171875 
z
" id="DejaVuSans-101"/>
       <path id="DejaVuSans-32"/>
       <path d="M 8.59375 75.984375 
L 29.296875 75.984375 
L 29.296875 69 
L 17.578125 69 
L 17.578125 -6.203125 
L 29.296875 -6.203125 
L 29.296875 -13.1875 
L 8.59375 -13.1875 
z
" id="DejaVuSans-91"/>
       <path d="M 44.28125 53.078125 
L 44.28125 44.578125 
Q 40.484375 46.53125 36.375 47.5 
Q 32.28125 48.484375 27.875 48.484375 
Q 21.1875 48.484375 17.84375 46.4375 
Q 14.5 44.390625 14.5 40.28125 
Q 14.5 37.15625 16.890625 35.375 
Q 19.28125 33.59375 26.515625 31.984375 
L 29.59375 31.296875 
Q 39.15625 29.25 43.1875 25.515625 
Q 47.21875 21.78125 47.21875 15.09375 
Q 47.21875 7.46875 41.1875 3.015625 
Q 35.15625 -1.421875 24.609375 -1.421875 
Q 20.21875 -1.421875 15.453125 -0.5625 
Q 10.6875 0.296875 5.421875 2 
L 5.421875 11.28125 
Q 10.40625 8.6875 15.234375 7.390625 
Q 20.0625 6.109375 24.8125 6.109375 
Q 31.15625 6.109375 34.5625 8.28125 
Q 37.984375 10.453125 37.984375 14.40625 
Q 37.984375 18.0625 35.515625 20.015625 
Q 33.0625 21.96875 24.703125 23.78125 
L 21.578125 24.515625 
Q 13.234375 26.265625 9.515625 29.90625 
Q 5.8125 33.546875 5.8125 39.890625 
Q 5.8125 47.609375 11.28125 51.796875 
Q 16.75 56 26.8125 56 
Q 31.78125 56 36.171875 55.265625 
Q 40.578125 54.546875 44.28125 53.078125 
z
" id="DejaVuSans-115"/>
       <path d="M 30.421875 75.984375 
L 30.421875 -13.1875 
L 9.71875 -13.1875 
L 9.71875 -6.203125 
L 21.390625 -6.203125 
L 21.390625 69 
L 9.71875 69 
L 9.71875 75.984375 
z
" id="DejaVuSans-93"/>
      </defs>
      <use xlink:href="#DejaVuSans-84"/>
      <use x="57.958984" xlink:href="#DejaVuSans-105"/>
      <use x="85.742188" xlink:href="#DejaVuSans-109"/>
      <use x="183.154297" xlink:href="#DejaVuSans-101"/>
      <use x="244.677734" xlink:href="#DejaVuSans-32"/>
      <use x="276.464844" xlink:href="#DejaVuSans-91"/>
      <use x="315.478516" xlink:href="#DejaVuSans-115"/>
      <use x="367.578125" xlink:href="#DejaVuSans-93"/>
     </g>
    </g>
   </g>
   <g id="matplotlib.axis_2">
    <g id="ytick_1">
     <g id="line2d_13">
      <path clip-path="url(#p9c1ec9ea01)" d="M 44.401491 248.303884 
L 357.165354 248.303884 
" style="fill:none;stroke:#000000;stroke-linecap:square;stroke-opacity:0.1;stroke-width:0.5;"/>
     </g>
     <g id="line2d_14">
      <defs>
       <path d="M 0 0 
L 2.5 0 
" id="me1bde46121" style="stroke:#000000;stroke-width:0.5;"/>
      </defs>
      <g>
       <use style="stroke:#000000;stroke-width:0.5;" x="44.401491" xlink:href="#me1bde46121" y="248.303884"/>
      </g>
     </g>
     <g id="text_8">
      <!-- $\mathregular{0.8}$ -->
      <g transform="translate(22.061491 252.862946)scale(0.12 -0.12)">
       <defs>
        <path d="M 10.6875 12.40625 
L 21 12.40625 
L 21 0 
L 10.6875 0 
z
" id="DejaVuSans-46"/>
        <path d="M 31.78125 34.625 
Q 24.75 34.625 20.71875 30.859375 
Q 16.703125 27.09375 16.703125 20.515625 
Q 16.703125 13.921875 20.71875 10.15625 
Q 24.75 6.390625 31.78125 6.390625 
Q 38.8125 6.390625 42.859375 10.171875 
Q 46.921875 13.96875 46.921875 20.515625 
Q 46.921875 27.09375 42.890625 30.859375 
Q 38.875 34.625 31.78125 34.625 
z
M 21.921875 38.8125 
Q 15.578125 40.375 12.03125 44.71875 
Q 8.5 49.078125 8.5 55.328125 
Q 8.5 64.0625 14.71875 69.140625 
Q 20.953125 74.21875 31.78125 74.21875 
Q 42.671875 74.21875 48.875 69.140625 
Q 55.078125 64.0625 55.078125 55.328125 
Q 55.078125 49.078125 51.53125 44.71875 
Q 48 40.375 41.703125 38.8125 
Q 48.828125 37.15625 52.796875 32.3125 
Q 56.78125 27.484375 56.78125 20.515625 
Q 56.78125 9.90625 50.3125 4.234375 
Q 43.84375 -1.421875 31.78125 -1.421875 
Q 19.734375 -1.421875 13.25 4.234375 
Q 6.78125 9.90625 6.78125 20.515625 
Q 6.78125 27.484375 10.78125 32.3125 
Q 14.796875 37.15625 21.921875 38.8125 
z
M 18.3125 54.390625 
Q 18.3125 48.734375 21.84375 45.5625 
Q 25.390625 42.390625 31.78125 42.390625 
Q 38.140625 42.390625 41.71875 45.5625 
Q 45.3125 48.734375 45.3125 54.390625 
Q 45.3125 60.0625 41.71875 63.234375 
Q 38.140625 66.40625 31.78125 66.40625 
Q 25.390625 66.40625 21.84375 63.234375 
Q 18.3125 60.0625 18.3125 54.390625 
z
" id="DejaVuSans-56"/>
       </defs>
       <use transform="translate(0 0.78125)" xlink:href="#DejaVuSans-48"/>
       <use transform="translate(63.623047 0.78125)" xlink:href="#DejaVuSans-46"/>
       <use transform="translate(92.785156 0.78125)" xlink:href="#DejaVuSans-56"/>
      </g>
     </g>
    </g>
    <g id="ytick_2">
     <g id="line2d_15">
      <path clip-path="url(#p9c1ec9ea01)" d="M 44.401491 177.443117 
L 357.165354 177.443117 
" style="fill:none;stroke:#000000;stroke-linecap:square;stroke-opacity:0.1;stroke-width:0.5;"/>
     </g>
     <g id="line2d_16">
      <g>
       <use style="stroke:#000000;stroke-width:0.5;" x="44.401491" xlink:href="#me1bde46121" y="177.443117"/>
      </g>
     </g>
     <g id="text_9">
      <!-- $\mathregular{0.9}$ -->
      <g transform="translate(21.701491 182.00218)scale(0.12 -0.12)">
       <defs>
        <path d="M 10.984375 1.515625 
L 10.984375 10.5 
Q 14.703125 8.734375 18.5 7.8125 
Q 22.3125 6.890625 25.984375 6.890625 
Q 35.75 6.890625 40.890625 13.453125 
Q 46.046875 20.015625 46.78125 33.40625 
Q 43.953125 29.203125 39.59375 26.953125 
Q 35.25 24.703125 29.984375 24.703125 
Q 19.046875 24.703125 12.671875 31.3125 
Q 6.296875 37.9375 6.296875 49.421875 
Q 6.296875 60.640625 12.9375 67.421875 
Q 19.578125 74.21875 30.609375 74.21875 
Q 43.265625 74.21875 49.921875 64.515625 
Q 56.59375 54.828125 56.59375 36.375 
Q 56.59375 19.140625 48.40625 8.859375 
Q 40.234375 -1.421875 26.421875 -1.421875 
Q 22.703125 -1.421875 18.890625 -0.6875 
Q 15.09375 0.046875 10.984375 1.515625 
z
M 30.609375 32.421875 
Q 37.25 32.421875 41.125 36.953125 
Q 45.015625 41.5 45.015625 49.421875 
Q 45.015625 57.28125 41.125 61.84375 
Q 37.25 66.40625 30.609375 66.40625 
Q 23.96875 66.40625 20.09375 61.84375 
Q 16.21875 57.28125 16.21875 49.421875 
Q 16.21875 41.5 20.09375 36.953125 
Q 23.96875 32.421875 30.609375 32.421875 
z
" id="DejaVuSans-57"/>
       </defs>
       <use transform="translate(0 0.78125)" xlink:href="#DejaVuSans-48"/>
       <use transform="translate(63.623047 0.78125)" xlink:href="#DejaVuSans-46"/>
       <use transform="translate(95.410156 0.78125)" xlink:href="#DejaVuSans-57"/>
      </g>
     </g>
    </g>
    <g id="ytick_3">
     <g id="line2d_17">
      <path clip-path="url(#p9c1ec9ea01)" d="M 44.401491 106.582351 
L 357.165354 106.582351 
" style="fill:none;stroke:#000000;stroke-linecap:square;stroke-opacity:0.1;stroke-width:0.5;"/>
     </g>
     <g id="line2d_18">
      <g>
       <use style="stroke:#000000;stroke-width:0.5;" x="44.401491" xlink:href="#me1bde46121" y="106.582351"/>
      </g>
     </g>
     <g id="text_10">
      <!-- $\mathregular{1.0}$ -->
      <g transform="translate(21.701491 111.141413)scale(0.12 -0.12)">
       <use transform="translate(0 0.78125)" xlink:href="#DejaVuSans-49"/>
       <use transform="translate(63.623047 0.78125)" xlink:href="#DejaVuSans-46"/>
       <use transform="translate(95.410156 0.78125)" xlink:href="#DejaVuSans-48"/>
      </g>
     </g>
    </g>
    <g id="ytick_4">
     <g id="line2d_19">
      <path clip-path="url(#p9c1ec9ea01)" d="M 44.401491 35.721584 
L 357.165354 35.721584 
" style="fill:none;stroke:#000000;stroke-linecap:square;stroke-opacity:0.1;stroke-width:0.5;"/>
     </g>
     <g id="line2d_20">
      <g>
       <use style="stroke:#000000;stroke-width:0.5;" x="44.401491" xlink:href="#me1bde46121" y="35.721584"/>
      </g>
     </g>
     <g id="text_11">
      <!-- $\mathregular{1.1}$ -->
      <g transform="translate(21.701491 40.280646)scale(0.12 -0.12)">
       <use transform="translate(0 0.09375)" xlink:href="#DejaVuSans-49"/>
       <use transform="translate(63.623047 0.09375)" xlink:href="#DejaVuSans-46"/>
       <use transform="translate(95.410156 0.09375)" xlink:href="#DejaVuSans-49"/>
      </g>
     </g>
    </g>
    <g id="text_12">
     <!-- Inlet conditions -->
     <g transform="translate(14.373991 187.98)rotate(-90)scale(0.16 -0.16)">
      <defs>
       <path d="M 9.8125 72.90625 
L 19.671875 72.90625 
L 19.671875 0 
L 9.8125 0 
z
" id="DejaVuSans-73"/>
       <path d="M 54.890625 33.015625 
L 54.890625 0 
L 45.90625 0 
L 45.90625 32.71875 
Q 45.90625 40.484375 42.875 44.328125 
Q 39.84375 48.1875 33.796875 48.1875 
Q 26.515625 48.1875 22.3125 43.546875 
Q 18.109375 38.921875 18.109375 30.90625 
L 18.109375 0 
L 9.078125 0 
L 9.078125 54.6875 
L 18.109375 54.6875 
L 18.109375 46.1875 
Q 21.34375 51.125 25.703125 53.5625 
Q 30.078125 56 35.796875 56 
Q 45.21875 56 50.046875 50.171875 
Q 54.890625 44.34375 54.890625 33.015625 
z
" id="DejaVuSans-110"/>
       <path d="M 9.421875 75.984375 
L 18.40625 75.984375 
L 18.40625 0 
L 9.421875 0 
z
" id="DejaVuSans-108"/>
       <path d="M 18.3125 70.21875 
L 18.3125 54.6875 
L 36.8125 54.6875 
L 36.8125 47.703125 
L 18.3125 47.703125 
L 18.3125 18.015625 
Q 18.3125 11.328125 20.140625 9.421875 
Q 21.96875 7.515625 27.59375 7.515625 
L 36.8125 7.515625 
L 36.8125 0 
L 27.59375 0 
Q 17.1875 0 13.234375 3.875 
Q 9.28125 7.765625 9.28125 18.015625 
L 9.28125 47.703125 
L 2.6875 47.703125 
L 2.6875 54.6875 
L 9.28125 54.6875 
L 9.28125 70.21875 
z
" id="DejaVuSans-116"/>
       <path d="M 48.78125 52.59375 
L 48.78125 44.1875 
Q 44.96875 46.296875 41.140625 47.34375 
Q 37.3125 48.390625 33.40625 48.390625 
Q 24.65625 48.390625 19.8125 42.84375 
Q 14.984375 37.3125 14.984375 27.296875 
Q 14.984375 17.28125 19.8125 11.734375 
Q 24.65625 6.203125 33.40625 6.203125 
Q 37.3125 6.203125 41.140625 7.25 
Q 44.96875 8.296875 48.78125 10.40625 
L 48.78125 2.09375 
Q 45.015625 0.34375 40.984375 -0.53125 
Q 36.96875 -1.421875 32.421875 -1.421875 
Q 20.0625 -1.421875 12.78125 6.34375 
Q 5.515625 14.109375 5.515625 27.296875 
Q 5.515625 40.671875 12.859375 48.328125 
Q 20.21875 56 33.015625 56 
Q 37.15625 56 41.109375 55.140625 
Q 45.0625 54.296875 48.78125 52.59375 
z
" id="DejaVuSans-99"/>
       <path d="M 30.609375 48.390625 
Q 23.390625 48.390625 19.1875 42.75 
Q 14.984375 37.109375 14.984375 27.296875 
Q 14.984375 17.484375 19.15625 11.84375 
Q 23.34375 6.203125 30.609375 6.203125 
Q 37.796875 6.203125 41.984375 11.859375 
Q 46.1875 17.53125 46.1875 27.296875 
Q 46.1875 37.015625 41.984375 42.703125 
Q 37.796875 48.390625 30.609375 48.390625 
z
M 30.609375 56 
Q 42.328125 56 49.015625 48.375 
Q 55.71875 40.765625 55.71875 27.296875 
Q 55.71875 13.875 49.015625 6.21875 
Q 42.328125 -1.421875 30.609375 -1.421875 
Q 18.84375 -1.421875 12.171875 6.21875 
Q 5.515625 13.875 5.515625 27.296875 
Q 5.515625 40.765625 12.171875 48.375 
Q 18.84375 56 30.609375 56 
z
" id="DejaVuSans-111"/>
       <path d="M 45.40625 46.390625 
L 45.40625 75.984375 
L 54.390625 75.984375 
L 54.390625 0 
L 45.40625 0 
L 45.40625 8.203125 
Q 42.578125 3.328125 38.25 0.953125 
Q 33.9375 -1.421875 27.875 -1.421875 
Q 17.96875 -1.421875 11.734375 6.484375 
Q 5.515625 14.40625 5.515625 27.296875 
Q 5.515625 40.1875 11.734375 48.09375 
Q 17.96875 56 27.875 56 
Q 33.9375 56 38.25 53.625 
Q 42.578125 51.265625 45.40625 46.390625 
z
M 14.796875 27.296875 
Q 14.796875 17.390625 18.875 11.75 
Q 22.953125 6.109375 30.078125 6.109375 
Q 37.203125 6.109375 41.296875 11.75 
Q 45.40625 17.390625 45.40625 27.296875 
Q 45.40625 37.203125 41.296875 42.84375 
Q 37.203125 48.484375 30.078125 48.484375 
Q 22.953125 48.484375 18.875 42.84375 
Q 14.796875 37.203125 14.796875 27.296875 
z
" id="DejaVuSans-100"/>
      </defs>
      <use xlink:href="#DejaVuSans-73"/>
      <use x="29.492188" xlink:href="#DejaVuSans-110"/>
      <use x="92.871094" xlink:href="#DejaVuSans-108"/>
      <use x="120.654297" xlink:href="#DejaVuSans-101"/>
      <use x="182.177734" xlink:href="#DejaVuSans-116"/>
      <use x="221.386719" xlink:href="#DejaVuSans-32"/>
      <use x="253.173828" xlink:href="#DejaVuSans-99"/>
      <use x="308.154297" xlink:href="#DejaVuSans-111"/>
      <use x="369.335938" xlink:href="#DejaVuSans-110"/>
      <use x="432.714844" xlink:href="#DejaVuSans-100"/>
      <use x="496.191406" xlink:href="#DejaVuSans-105"/>
      <use x="523.974609" xlink:href="#DejaVuSans-116"/>
      <use x="563.183594" xlink:href="#DejaVuSans-105"/>
      <use x="590.966797" xlink:href="#DejaVuSans-111"/>
      <use x="652.148438" xlink:href="#DejaVuSans-110"/>
      <use x="715.527344" xlink:href="#DejaVuSans-115"/>
     </g>
    </g>
   </g>
   <g id="PathCollection_1">
    <defs>
     <path d="M 0 2 
C 0.530406 2 1.03916 1.789267 1.414214 1.414214 
C 1.789267 1.03916 2 0.530406 2 0 
C 2 -0.530406 1.789267 -1.03916 1.414214 -1.414214 
C 1.03916 -1.789267 0.530406 -2 0 -2 
C -0.530406 -2 -1.03916 -1.789267 -1.414214 -1.414214 
C -1.789267 -1.03916 -2 -0.530406 -2 0 
C -2 0.530406 -1.789267 1.03916 -1.414214 1.414214 
C -1.03916 1.789267 -0.530406 2 0 2 
z
" id="m8e516b2f21"/>
    </defs>
    <g clip-path="url(#p9c1ec9ea01)">
     <use x="53.253299" xlink:href="#m8e516b2f21" y="134.135534"/>
     <use x="59.274937" xlink:href="#m8e516b2f21" y="137.51175"/>
     <use x="65.296574" xlink:href="#m8e516b2f21" y="137.693307"/>
     <use x="71.318212" xlink:href="#m8e516b2f21" y="136.386775"/>
     <use x="77.33985" xlink:href="#m8e516b2f21" y="137.369318"/>
     <use x="83.361487" xlink:href="#m8e516b2f21" y="138.259763"/>
     <use x="89.383125" xlink:href="#m8e516b2f21" y="138.420774"/>
     <use x="95.404763" xlink:href="#m8e516b2f21" y="137.047375"/>
     <use x="101.426401" xlink:href="#m8e516b2f21" y="140.18223"/>
     <use x="107.448038" xlink:href="#m8e516b2f21" y="136.793111"/>
     <use x="113.469676" xlink:href="#m8e516b2f21" y="138.723829"/>
     <use x="119.491314" xlink:href="#m8e516b2f21" y="136.718573"/>
     <use x="125.512951" xlink:href="#m8e516b2f21" y="136.466982"/>
     <use x="131.534589" xlink:href="#m8e516b2f21" y="132.566626"/>
     <use x="137.556227" xlink:href="#m8e516b2f21" y="133.854995"/>
     <use x="143.577865" xlink:href="#m8e516b2f21" y="132.272664"/>
     <use x="149.599502" xlink:href="#m8e516b2f21" y="130.48869"/>
     <use x="155.62114" xlink:href="#m8e516b2f21" y="131.267341"/>
     <use x="161.642778" xlink:href="#m8e516b2f21" y="126.467258"/>
     <use x="167.664415" xlink:href="#m8e516b2f21" y="125.576134"/>
     <use x="173.686053" xlink:href="#m8e516b2f21" y="125.790694"/>
     <use x="179.707691" xlink:href="#m8e516b2f21" y="125.372441"/>
     <use x="185.729329" xlink:href="#m8e516b2f21" y="122.916411"/>
     <use x="191.750966" xlink:href="#m8e516b2f21" y="122.820895"/>
     <use x="197.772604" xlink:href="#m8e516b2f21" y="119.035963"/>
     <use x="203.794242" xlink:href="#m8e516b2f21" y="118.55676"/>
     <use x="209.815879" xlink:href="#m8e516b2f21" y="116.973945"/>
     <use x="215.837517" xlink:href="#m8e516b2f21" y="116.334063"/>
     <use x="221.859155" xlink:href="#m8e516b2f21" y="119.290394"/>
     <use x="227.880793" xlink:href="#m8e516b2f21" y="115.575746"/>
     <use x="233.90243" xlink:href="#m8e516b2f21" y="119.112007"/>
     <use x="239.924068" xlink:href="#m8e516b2f21" y="119.308227"/>
     <use x="245.945706" xlink:href="#m8e516b2f21" y="115.514285"/>
     <use x="251.967343" xlink:href="#m8e516b2f21" y="116.389322"/>
     <use x="257.988981" xlink:href="#m8e516b2f21" y="117.138555"/>
     <use x="264.010619" xlink:href="#m8e516b2f21" y="118.614555"/>
     <use x="270.032257" xlink:href="#m8e516b2f21" y="121.131378"/>
     <use x="276.053894" xlink:href="#m8e516b2f21" y="120.001034"/>
     <use x="282.075532" xlink:href="#m8e516b2f21" y="120.012076"/>
     <use x="288.09717" xlink:href="#m8e516b2f21" y="123.203323"/>
     <use x="294.118807" xlink:href="#m8e516b2f21" y="125.027371"/>
     <use x="300.140445" xlink:href="#m8e516b2f21" y="125.001739"/>
     <use x="306.162083" xlink:href="#m8e516b2f21" y="126.729891"/>
     <use x="312.183721" xlink:href="#m8e516b2f21" y="129.588868"/>
     <use x="318.205358" xlink:href="#m8e516b2f21" y="128.692919"/>
     <use x="324.226996" xlink:href="#m8e516b2f21" y="131.823625"/>
     <use x="330.248634" xlink:href="#m8e516b2f21" y="131.597215"/>
     <use x="336.270271" xlink:href="#m8e516b2f21" y="133.213485"/>
     <use x="342.291909" xlink:href="#m8e516b2f21" y="133.777179"/>
     <use x="348.313547" xlink:href="#m8e516b2f21" y="133.462019"/>
    </g>
   </g>
   <g id="PathCollection_2">
    <defs>
     <path d="M 0 2 
C 0.530406 2 1.03916 1.789267 1.414214 1.414214 
C 1.789267 1.03916 2 0.530406 2 0 
C 2 -0.530406 1.789267 -1.03916 1.414214 -1.414214 
C 1.03916 -1.789267 0.530406 -2 0 -2 
C -0.530406 -2 -1.03916 -1.789267 -1.414214 -1.414214 
C -1.789267 -1.03916 -2 -0.530406 -2 0 
C -2 0.530406 -1.789267 1.03916 -1.414214 1.414214 
C -1.03916 1.789267 -0.530406 2 0 2 
z
" id="m0b5decb48c"/>
    </defs>
    <g clip-path="url(#p9c1ec9ea01)">
     <use style="fill:#ff0000;" x="53.253299" xlink:href="#m0b5decb48c" y="93.680638"/>
     <use style="fill:#ff0000;" x="59.274937" xlink:href="#m0b5decb48c" y="80.480173"/>
     <use style="fill:#ff0000;" x="65.296574" xlink:href="#m0b5decb48c" y="65.191894"/>
     <use style="fill:#ff0000;" x="71.318212" xlink:href="#m0b5decb48c" y="59.32384"/>
     <use style="fill:#ff0000;" x="77.33985" xlink:href="#m0b5decb48c" y="74.861186"/>
     <use style="fill:#ff0000;" x="83.361487" xlink:href="#m0b5decb48c" y="97.84049"/>
     <use style="fill:#ff0000;" x="89.383125" xlink:href="#m0b5decb48c" y="127.829205"/>
     <use style="fill:#ff0000;" x="95.404763" xlink:href="#m0b5decb48c" y="131.841979"/>
     <use style="fill:#ff0000;" x="101.426401" xlink:href="#m0b5decb48c" y="126.306372"/>
     <use style="fill:#ff0000;" x="107.448038" xlink:href="#m0b5decb48c" y="120.208357"/>
     <use style="fill:#ff0000;" x="113.469676" xlink:href="#m0b5decb48c" y="96.83181"/>
     <use style="fill:#ff0000;" x="119.491314" xlink:href="#m0b5decb48c" y="74.621887"/>
     <use style="fill:#ff0000;" x="125.512951" xlink:href="#m0b5decb48c" y="57.86971"/>
     <use style="fill:#ff0000;" x="131.534589" xlink:href="#m0b5decb48c" y="61.532485"/>
     <use style="fill:#ff0000;" x="137.556227" xlink:href="#m0b5decb48c" y="77.067814"/>
     <use style="fill:#ff0000;" x="143.577865" xlink:href="#m0b5decb48c" y="106.56588"/>
     <use style="fill:#ff0000;" x="149.599502" xlink:href="#m0b5decb48c" y="124.582766"/>
     <use style="fill:#ff0000;" x="155.62114" xlink:href="#m0b5decb48c" y="134.472193"/>
     <use style="fill:#ff0000;" x="161.642778" xlink:href="#m0b5decb48c" y="124.173986"/>
     <use style="fill:#ff0000;" x="167.664415" xlink:href="#m0b5decb48c" y="116.743549"/>
     <use style="fill:#ff0000;" x="173.686053" xlink:href="#m0b5decb48c" y="83.741523"/>
     <use style="fill:#ff0000;" x="179.707691" xlink:href="#m0b5decb48c" y="74.506104"/>
     <use style="fill:#ff0000;" x="185.729329" xlink:href="#m0b5decb48c" y="69.499485"/>
     <use style="fill:#ff0000;" x="191.750966" xlink:href="#m0b5decb48c" y="70.007395"/>
     <use style="fill:#ff0000;" x="197.772604" xlink:href="#m0b5decb48c" y="81.304235"/>
     <use style="fill:#ff0000;" x="203.794242" xlink:href="#m0b5decb48c" y="116.688593"/>
     <use style="fill:#ff0000;" x="209.815879" xlink:href="#m0b5decb48c" y="132.743448"/>
     <use style="fill:#ff0000;" x="215.837517" xlink:href="#m0b5decb48c" y="128.221703"/>
     <use style="fill:#ff0000;" x="221.859155" xlink:href="#m0b5decb48c" y="124.659211"/>
     <use style="fill:#ff0000;" x="227.880793" xlink:href="#m0b5decb48c" y="106.505569"/>
     <use style="fill:#ff0000;" x="233.90243" xlink:href="#m0b5decb48c" y="87.16998"/>
     <use style="fill:#ff0000;" x="239.924068" xlink:href="#m0b5decb48c" y="73.228705"/>
     <use style="fill:#ff0000;" x="245.945706" xlink:href="#m0b5decb48c" y="64.323525"/>
     <use style="fill:#ff0000;" x="251.967343" xlink:href="#m0b5decb48c" y="76.203895"/>
     <use style="fill:#ff0000;" x="257.988981" xlink:href="#m0b5decb48c" y="94.757441"/>
     <use style="fill:#ff0000;" x="264.010619" xlink:href="#m0b5decb48c" y="114.462564"/>
     <use style="fill:#ff0000;" x="270.032257" xlink:href="#m0b5decb48c" y="127.92325"/>
     <use style="fill:#ff0000;" x="276.053894" xlink:href="#m0b5decb48c" y="140.900772"/>
     <use style="fill:#ff0000;" x="282.075532" xlink:href="#m0b5decb48c" y="128.063207"/>
     <use style="fill:#ff0000;" x="288.09717" xlink:href="#m0b5decb48c" y="109.670206"/>
     <use style="fill:#ff0000;" x="294.118807" xlink:href="#m0b5decb48c" y="87.422588"/>
     <use style="fill:#ff0000;" x="300.140445" xlink:href="#m0b5decb48c" y="70.600047"/>
     <use style="fill:#ff0000;" x="306.162083" xlink:href="#m0b5decb48c" y="65.60571"/>
     <use style="fill:#ff0000;" x="312.183721" xlink:href="#m0b5decb48c" y="72.626606"/>
     <use style="fill:#ff0000;" x="318.205358" xlink:href="#m0b5decb48c" y="91.868823"/>
     <use style="fill:#ff0000;" x="324.226996" xlink:href="#m0b5decb48c" y="118.437167"/>
     <use style="fill:#ff0000;" x="330.248634" xlink:href="#m0b5decb48c" y="127.548553"/>
     <use style="fill:#ff0000;" x="336.270271" xlink:href="#m0b5decb48c" y="137.224176"/>
     <use style="fill:#ff0000;" x="342.291909" xlink:href="#m0b5decb48c" y="123.882734"/>
     <use style="fill:#ff0000;" x="348.313547" xlink:href="#m0b5decb48c" y="97.254752"/>
    </g>
   </g>
   <g id="patch_3">
    <path d="M 44.401491 250.305354 
L 44.401491 2.834646 
" style="fill:none;stroke:#000000;stroke-linecap:square;stroke-linejoin:miter;"/>
   </g>
   <g id="patch_4">
    <path d="M 44.401491 250.305354 
L 357.165354 250.305354 
" style="fill:none;stroke:#000000;stroke-linecap:square;stroke-linejoin:miter;"/>
   </g>
   <g id="line2d_21">
    <path clip-path="url(#p9c1ec9ea01)" d="M 53.253299 188.086188 
L 67.47307 216.058146 
L 73.397974 228.00447 
L 75.767936 232.388632 
L 78.137898 236.291438 
L 80.50786 239.516047 
L 81.692841 240.810777 
L 82.877822 241.860377 
L 84.062803 242.640597 
L 85.247784 243.128235 
L 86.432764 243.301466 
L 87.617745 243.140158 
L 88.802726 242.626172 
L 89.987707 241.743656 
L 91.172688 240.479326 
L 92.357669 238.822734 
L 93.54265 236.766534 
L 94.727631 234.306725 
L 95.912612 231.442895 
L 97.097593 228.178446 
L 98.282574 224.520806 
L 100.652535 216.076913 
L 103.022497 206.257744 
L 105.392459 195.283254 
L 108.947402 177.317247 
L 114.872306 146.691153 
L 117.242268 135.560747 
L 119.61223 125.796861 
L 120.797211 121.568507 
L 121.982192 117.843361 
L 123.167173 114.665386 
L 124.352154 112.072111 
L 125.537135 110.093821 
L 126.722116 108.752882 
L 127.907097 108.063225 
L 129.092077 108.030007 
L 130.277058 108.649469 
L 131.462039 109.908975 
L 132.64702 111.787264 
L 133.832001 114.254877 
L 135.016982 117.27475 
L 136.201963 120.802967 
L 137.386944 124.789624 
L 139.756906 133.914529 
L 142.126868 144.168286 
L 150.421734 181.638824 
L 152.791696 190.883512 
L 155.161658 198.793655 
L 156.346639 202.165014 
L 157.531619 205.112545 
L 158.7166 207.616313 
L 159.901581 209.661184 
L 161.086562 211.236739 
L 162.271543 212.337168 
L 163.456524 212.961142 
L 164.641505 213.11168 
L 165.826486 212.795999 
L 167.011467 212.025354 
L 168.196448 210.81487 
L 169.381429 209.183356 
L 170.566409 207.153099 
L 171.75139 204.749646 
L 172.936371 202.001548 
L 175.306333 195.59893 
L 177.676295 188.222266 
L 181.231238 175.998769 
L 187.156142 155.13687 
L 189.526104 147.449928 
L 191.896066 140.473498 
L 194.266028 134.349764 
L 196.63599 129.15251 
L 199.005951 124.886519 
L 200.190932 123.08651 
L 201.375913 121.492633 
L 203.745875 118.857917 
L 206.115837 116.829795 
L 208.485799 115.232674 
L 212.040742 113.251752 
L 215.595684 111.289389 
L 217.965646 109.793944 
L 220.335608 108.076993 
L 222.70557 106.136927 
L 227.445493 101.854341 
L 229.815455 99.770009 
L 232.185417 97.961671 
L 233.370398 97.225794 
L 234.555379 96.637898 
L 235.74036 96.224606 
L 236.925341 96.011665 
L 238.110322 96.023348 
L 239.295303 96.281871 
L 240.480284 96.80683 
L 241.665264 97.61468 
L 242.850245 98.718263 
L 244.035226 100.1264 
L 245.220207 101.843568 
L 246.405188 103.86965 
L 247.590169 106.199796 
L 248.77515 108.824367 
L 251.145112 114.894709 
L 253.515074 121.912239 
L 255.885035 129.644991 
L 265.364883 161.719084 
L 267.734845 168.428862 
L 268.919826 171.385447 
L 270.104806 174.036573 
L 271.289787 176.356296 
L 272.474768 178.32218 
L 273.659749 179.915515 
L 274.84473 181.121495 
L 276.029711 181.929368 
L 277.214692 182.332557 
L 278.399673 182.32875 
L 279.584654 181.919974 
L 280.769635 181.112634 
L 281.954616 179.917534 
L 283.139597 178.349861 
L 284.324577 176.429147 
L 285.509558 174.179186 
L 286.694539 171.627912 
L 289.064501 165.752799 
L 291.434463 159.102256 
L 298.544348 138.131371 
L 300.91431 132.108268 
L 302.099291 129.491507 
L 303.284272 127.193158 
L 304.469253 125.249517 
L 305.654234 123.691955 
L 306.839215 122.546319 
L 308.024196 121.832428 
L 309.209177 121.563689 
L 310.394158 121.746838 
L 311.579138 122.38183 
L 312.764119 123.461853 
L 313.9491 124.973505 
L 315.134081 126.897093 
L 316.319062 129.207061 
L 317.504043 131.872536 
L 319.874005 138.123808 
L 322.243967 145.323394 
L 325.798909 157.095835 
L 329.353852 168.909128 
L 331.723814 176.224573 
L 334.093776 182.745686 
L 336.463738 188.240546 
L 337.648719 190.548652 
L 338.8337 192.543512 
L 340.01868 194.215405 
L 341.203661 195.55906 
L 342.388642 196.573627 
L 343.573623 197.262597 
L 344.758604 197.633701 
L 345.943585 197.698767 
L 347.128566 197.473547 
L 348.313547 196.977509 
L 348.313547 196.977509 
" style="fill:none;stroke:#000000;stroke-dasharray:3.7,1.6;stroke-dashoffset:0;"/>
   </g>
   <g id="line2d_22">
    <path clip-path="url(#p9c1ec9ea01)" d="M 53.253299 110.459456 
L 56.808242 106.461083 
L 59.178203 104.084684 
L 61.548165 102.165927 
L 62.733146 101.431754 
L 63.918127 100.872251 
L 65.103108 100.502756 
L 66.288089 100.335843 
L 67.47307 100.381119 
L 68.658051 100.645055 
L 69.843032 101.130884 
L 71.028013 101.838543 
L 72.212993 102.764679 
L 73.397974 103.902703 
L 74.582955 105.24291 
L 76.952917 108.476481 
L 79.322879 112.332747 
L 81.692841 116.644105 
L 89.987707 132.454306 
L 92.357669 136.344223 
L 94.727631 139.623489 
L 95.912612 140.989015 
L 97.097593 142.151782 
L 98.282574 143.099521 
L 99.467555 143.822258 
L 100.652535 144.312379 
L 101.837516 144.564657 
L 103.022497 144.576265 
L 104.207478 144.346758 
L 105.392459 143.878044 
L 106.57744 143.174322 
L 107.762421 142.242011 
L 108.947402 141.089652 
L 110.132383 139.727792 
L 112.502345 136.426982 
L 114.872306 132.458603 
L 117.242268 127.963444 
L 120.797211 120.576431 
L 127.907097 105.488043 
L 130.277058 100.90949 
L 132.64702 96.753124 
L 135.016982 93.097526 
L 137.386944 89.991412 
L 139.756906 87.453899 
L 142.126868 85.476855 
L 144.496829 84.029055 
L 146.866791 83.061742 
L 149.236753 82.515034 
L 151.606715 82.324603 
L 153.976677 82.428053 
L 156.346639 82.770474 
L 158.7166 83.308774 
L 161.086562 84.014465 
L 164.641505 85.36304 
L 167.011467 86.463521 
L 169.381429 87.746846 
L 171.75139 89.239447 
L 174.121352 90.968842 
L 176.491314 92.957679 
L 178.861276 95.217743 
L 181.231238 97.74446 
L 184.78618 101.972361 
L 190.711085 109.643726 
L 194.266028 114.047658 
L 196.63599 116.616046 
L 199.005951 118.709403 
L 200.190932 119.528304 
L 201.375913 120.169246 
L 202.560894 120.613296 
L 203.745875 120.842329 
L 204.930856 120.839262 
L 206.115837 120.588288 
L 207.300818 120.075106 
L 208.485799 119.287134 
L 209.67078 118.213728 
L 210.855761 116.846378 
L 212.040742 115.178909 
L 213.225722 113.207652 
L 214.410703 110.93162 
L 215.595684 108.352661 
L 217.965646 102.308334 
L 220.335608 95.15091 
L 222.70557 87.008655 
L 225.075532 78.062757 
L 228.630474 63.659154 
L 233.370398 44.187204 
L 235.74036 35.107429 
L 238.110322 26.946128 
L 239.295303 23.319913 
L 240.480284 20.051893 
L 241.665264 17.180241 
L 242.850245 14.739786 
L 244.035226 12.761434 
L 245.220207 11.271638 
L 246.405188 10.29193 
L 247.590169 9.838534 
L 248.77515 9.92206 
L 249.960131 10.547304 
L 251.145112 11.713142 
L 252.330093 13.412533 
L 253.515074 15.632629 
L 254.700055 18.354987 
L 255.885035 21.555876 
L 257.070016 25.206672 
L 259.439978 33.721929 
L 261.80994 43.593301 
L 264.179902 54.470471 
L 268.919826 77.746644 
L 272.474768 95.091904 
L 274.84473 105.979742 
L 277.214692 116.003213 
L 279.584654 124.938879 
L 281.954616 132.614308 
L 283.139597 135.939514 
L 284.324577 138.907982 
L 285.509558 141.512157 
L 286.694539 143.747346 
L 287.87952 145.611598 
L 289.064501 147.105566 
L 290.249482 148.232367 
L 291.434463 148.997435 
L 292.619444 149.408363 
L 293.804425 149.47475 
L 294.989406 149.208037 
L 296.174387 148.621343 
L 297.359368 147.729303 
L 298.544348 146.547893 
L 299.729329 145.09426 
L 300.91431 143.386552 
L 302.099291 141.443746 
L 304.469253 136.93182 
L 306.839215 131.720246 
L 309.209177 125.973144 
L 312.764119 116.699864 
L 321.058986 94.548396 
L 324.613929 85.815191 
L 326.98389 80.486072 
L 329.353852 75.64122 
L 331.723814 71.350316 
L 334.093776 67.679745 
L 336.463738 64.695069 
L 337.648719 63.480617 
L 338.8337 62.462605 
L 340.01868 61.649501 
L 341.203661 61.049786 
L 342.388642 60.671886 
L 343.573623 60.524074 
L 344.758604 60.614354 
L 345.943585 60.950326 
L 347.128566 61.539024 
L 348.313547 62.386744 
L 348.313547 62.386744 
" style="fill:none;stroke:#ff0000;stroke-dasharray:3.7,1.6;stroke-dashoffset:0;"/>
   </g>
   <g id="legend_1">
    <g id="line2d_23">
     <path d="M 234.281604 23.352771 
L 258.281604 23.352771 
" style="fill:none;"/>
    </g>
    <g id="line2d_24">
     <defs>
      <path d="M 0 4.8 
C 1.272975 4.8 2.493983 4.294242 3.394113 3.394113 
C 4.294242 2.493983 4.8 1.272975 4.8 0 
C 4.8 -1.272975 4.294242 -2.493983 3.394113 -3.394113 
C 2.493983 -4.294242 1.272975 -4.8 0 -4.8 
C -1.272975 -4.8 -2.493983 -4.294242 -3.394113 -3.394113 
C -4.294242 -2.493983 -4.8 -1.272975 -4.8 0 
C -4.8 1.272975 -4.294242 2.493983 -3.394113 3.394113 
C -2.493983 4.294242 -1.272975 4.8 0 4.8 
z
" id="m8e67af05cf"/>
     </defs>
     <g>
      <use x="246.281604" xlink:href="#m8e67af05cf" y="23.352771"/>
     </g>
    </g>
    <g id="text_13">
     <!-- Groundtruth -->
     <g transform="translate(267.881604 27.552771)scale(0.12 -0.12)">
      <defs>
       <path d="M 59.515625 10.40625 
L 59.515625 29.984375 
L 43.40625 29.984375 
L 43.40625 38.09375 
L 69.28125 38.09375 
L 69.28125 6.78125 
Q 63.578125 2.734375 56.6875 0.65625 
Q 49.8125 -1.421875 42 -1.421875 
Q 24.90625 -1.421875 15.25 8.5625 
Q 5.609375 18.5625 5.609375 36.375 
Q 5.609375 54.25 15.25 64.234375 
Q 24.90625 74.21875 42 74.21875 
Q 49.125 74.21875 55.546875 72.453125 
Q 61.96875 70.703125 67.390625 67.28125 
L 67.390625 56.78125 
Q 61.921875 61.421875 55.765625 63.765625 
Q 49.609375 66.109375 42.828125 66.109375 
Q 29.4375 66.109375 22.71875 58.640625 
Q 16.015625 51.171875 16.015625 36.375 
Q 16.015625 21.625 22.71875 14.15625 
Q 29.4375 6.6875 42.828125 6.6875 
Q 48.046875 6.6875 52.140625 7.59375 
Q 56.25 8.5 59.515625 10.40625 
z
" id="DejaVuSans-71"/>
       <path d="M 41.109375 46.296875 
Q 39.59375 47.171875 37.8125 47.578125 
Q 36.03125 48 33.890625 48 
Q 26.265625 48 22.1875 43.046875 
Q 18.109375 38.09375 18.109375 28.8125 
L 18.109375 0 
L 9.078125 0 
L 9.078125 54.6875 
L 18.109375 54.6875 
L 18.109375 46.1875 
Q 20.953125 51.171875 25.484375 53.578125 
Q 30.03125 56 36.53125 56 
Q 37.453125 56 38.578125 55.875 
Q 39.703125 55.765625 41.0625 55.515625 
z
" id="DejaVuSans-114"/>
       <path d="M 8.5 21.578125 
L 8.5 54.6875 
L 17.484375 54.6875 
L 17.484375 21.921875 
Q 17.484375 14.15625 20.5 10.265625 
Q 23.53125 6.390625 29.59375 6.390625 
Q 36.859375 6.390625 41.078125 11.03125 
Q 45.3125 15.671875 45.3125 23.6875 
L 45.3125 54.6875 
L 54.296875 54.6875 
L 54.296875 0 
L 45.3125 0 
L 45.3125 8.40625 
Q 42.046875 3.421875 37.71875 1 
Q 33.40625 -1.421875 27.6875 -1.421875 
Q 18.265625 -1.421875 13.375 4.4375 
Q 8.5 10.296875 8.5 21.578125 
z
M 31.109375 56 
z
" id="DejaVuSans-117"/>
       <path d="M 54.890625 33.015625 
L 54.890625 0 
L 45.90625 0 
L 45.90625 32.71875 
Q 45.90625 40.484375 42.875 44.328125 
Q 39.84375 48.1875 33.796875 48.1875 
Q 26.515625 48.1875 22.3125 43.546875 
Q 18.109375 38.921875 18.109375 30.90625 
L 18.109375 0 
L 9.078125 0 
L 9.078125 75.984375 
L 18.109375 75.984375 
L 18.109375 46.1875 
Q 21.34375 51.125 25.703125 53.5625 
Q 30.078125 56 35.796875 56 
Q 45.21875 56 50.046875 50.171875 
Q 54.890625 44.34375 54.890625 33.015625 
z
" id="DejaVuSans-104"/>
      </defs>
      <use xlink:href="#DejaVuSans-71"/>
      <use x="77.490234" xlink:href="#DejaVuSans-114"/>
      <use x="116.353516" xlink:href="#DejaVuSans-111"/>
      <use x="177.535156" xlink:href="#DejaVuSans-117"/>
      <use x="240.914062" xlink:href="#DejaVuSans-110"/>
      <use x="304.292969" xlink:href="#DejaVuSans-100"/>
      <use x="367.769531" xlink:href="#DejaVuSans-116"/>
      <use x="406.978516" xlink:href="#DejaVuSans-114"/>
      <use x="448.091797" xlink:href="#DejaVuSans-117"/>
      <use x="511.470703" xlink:href="#DejaVuSans-116"/>
      <use x="550.679688" xlink:href="#DejaVuSans-104"/>
     </g>
    </g>
    <g id="line2d_25">
     <path d="M 234.281604 40.966521 
L 258.281604 40.966521 
" style="fill:none;stroke:#000000;stroke-dasharray:5.55,2.4;stroke-dashoffset:0;stroke-linejoin:miter;stroke-width:1.5;"/>
    </g>
    <g id="line2d_26"/>
    <g id="text_14">
     <!-- Initial -->
     <g transform="translate(267.881604 45.166521)scale(0.12 -0.12)">
      <defs>
       <path d="M 34.28125 27.484375 
Q 23.390625 27.484375 19.1875 25 
Q 14.984375 22.515625 14.984375 16.5 
Q 14.984375 11.71875 18.140625 8.90625 
Q 21.296875 6.109375 26.703125 6.109375 
Q 34.1875 6.109375 38.703125 11.40625 
Q 43.21875 16.703125 43.21875 25.484375 
L 43.21875 27.484375 
z
M 52.203125 31.203125 
L 52.203125 0 
L 43.21875 0 
L 43.21875 8.296875 
Q 40.140625 3.328125 35.546875 0.953125 
Q 30.953125 -1.421875 24.3125 -1.421875 
Q 15.921875 -1.421875 10.953125 3.296875 
Q 6 8.015625 6 15.921875 
Q 6 25.140625 12.171875 29.828125 
Q 18.359375 34.515625 30.609375 34.515625 
L 43.21875 34.515625 
L 43.21875 35.40625 
Q 43.21875 41.609375 39.140625 45 
Q 35.0625 48.390625 27.6875 48.390625 
Q 23 48.390625 18.546875 47.265625 
Q 14.109375 46.140625 10.015625 43.890625 
L 10.015625 52.203125 
Q 14.9375 54.109375 19.578125 55.046875 
Q 24.21875 56 28.609375 56 
Q 40.484375 56 46.34375 49.84375 
Q 52.203125 43.703125 52.203125 31.203125 
z
" id="DejaVuSans-97"/>
      </defs>
      <use xlink:href="#DejaVuSans-73"/>
      <use x="29.492188" xlink:href="#DejaVuSans-110"/>
      <use x="92.871094" xlink:href="#DejaVuSans-105"/>
      <use x="120.654297" xlink:href="#DejaVuSans-116"/>
      <use x="159.863281" xlink:href="#DejaVuSans-105"/>
      <use x="187.646484" xlink:href="#DejaVuSans-97"/>
      <use x="248.925781" xlink:href="#DejaVuSans-108"/>
     </g>
    </g>
   </g>
  </g>
 </g>
 <defs>
  <clipPath id="p9c1ec9ea01">
   <rect height="247.470709" width="312.763863" x="44.401491" y="2.834646"/>
  </clipPath>
 </defs>
</svg>
