<?xml version="1.0" encoding="utf-8" standalone="no"?>
<!DOCTYPE svg PUBLIC "-//W3C//DTD SVG 1.1//EN"
  "http://www.w3.org/Graphics/SVG/1.1/DTD/svg11.dtd">
<!-- Created with matplotlib (https://matplotlib.org/) -->
<svg height="216pt" version="1.1" viewBox="0 0 360 216" width="360pt" xmlns="http://www.w3.org/2000/svg" xmlns:xlink="http://www.w3.org/1999/xlink">
 <metadata>
  <rdf:RDF xmlns:cc="http://creativecommons.org/ns#" xmlns:dc="http://purl.org/dc/elements/1.1/" xmlns:rdf="http://www.w3.org/1999/02/22-rdf-syntax-ns#">
   <cc:Work>
    <dc:type rdf:resource="http://purl.org/dc/dcmitype/StillImage"/>
    <dc:date>2021-04-25T02:20:00.285419</dc:date>
    <dc:format>image/svg+xml</dc:format>
    <dc:creator>
     <cc:Agent>
      <dc:title>Matplotlib v3.3.2, https://matplotlib.org/</dc:title>
     </cc:Agent>
    </dc:creator>
   </cc:Work>
  </rdf:RDF>
 </metadata>
 <defs>
  <style type="text/css">*{stroke-linecap:butt;stroke-linejoin:round;}</style>
 </defs>
 <g id="figure_1">
  <g id="patch_1">
   <path d="M 0 216 
L 360 216 
L 360 0 
L 0 0 
z
" style="fill:#ffffff;"/>
  </g>
  <g id="axes_1">
   <g id="patch_2">
    <path d="M 44.480241 178.305354 
L 357.165354 178.305354 
L 357.165354 2.834646 
L 44.480241 2.834646 
z
" style="fill:#ffffff;"/>
   </g>
   <g id="matplotlib.axis_1">
    <g id="xtick_1">
     <g id="line2d_1">
      <path clip-path="url(#p1dfc8c3e06)" d="M 53.32982 178.305354 
L 53.32982 2.834646 
" style="fill:none;stroke:#000000;stroke-linecap:square;stroke-opacity:0.1;stroke-width:0.5;"/>
     </g>
     <g id="line2d_2">
      <defs>
       <path d="M 0 0 
L 0 -2.5 
" id="m83787c3cc6" style="stroke:#000000;stroke-width:0.5;"/>
      </defs>
      <g>
       <use style="stroke:#000000;stroke-width:0.5;" x="53.32982" xlink:href="#m83787c3cc6" y="178.305354"/>
      </g>
     </g>
     <g id="text_1">
      <!-- $\mathregular{0}$ -->
      <g transform="translate(49.48982 190.923479)scale(0.12 -0.12)">
       <defs>
        <path d="M 31.78125 66.40625 
Q 24.171875 66.40625 20.328125 58.90625 
Q 16.5 51.421875 16.5 36.375 
Q 16.5 21.390625 20.328125 13.890625 
Q 24.171875 6.390625 31.78125 6.390625 
Q 39.453125 6.390625 43.28125 13.890625 
Q 47.125 21.390625 47.125 36.375 
Q 47.125 51.421875 43.28125 58.90625 
Q 39.453125 66.40625 31.78125 66.40625 
z
M 31.78125 74.21875 
Q 44.046875 74.21875 50.515625 64.515625 
Q 56.984375 54.828125 56.984375 36.375 
Q 56.984375 17.96875 50.515625 8.265625 
Q 44.046875 -1.421875 31.78125 -1.421875 
Q 19.53125 -1.421875 13.0625 8.265625 
Q 6.59375 17.96875 6.59375 36.375 
Q 6.59375 54.828125 13.0625 64.515625 
Q 19.53125 74.21875 31.78125 74.21875 
z
" id="DejaVuSans-48"/>
       </defs>
       <use transform="translate(0 0.78125)" xlink:href="#DejaVuSans-48"/>
      </g>
     </g>
    </g>
    <g id="xtick_2">
     <g id="line2d_3">
      <path clip-path="url(#p1dfc8c3e06)" d="M 112.327011 178.305354 
L 112.327011 2.834646 
" style="fill:none;stroke:#000000;stroke-linecap:square;stroke-opacity:0.1;stroke-width:0.5;"/>
     </g>
     <g id="line2d_4">
      <g>
       <use style="stroke:#000000;stroke-width:0.5;" x="112.327011" xlink:href="#m83787c3cc6" y="178.305354"/>
      </g>
     </g>
     <g id="text_2">
      <!-- $\mathregular{1}$ -->
      <g transform="translate(108.487011 190.923479)scale(0.12 -0.12)">
       <defs>
        <path d="M 12.40625 8.296875 
L 28.515625 8.296875 
L 28.515625 63.921875 
L 10.984375 60.40625 
L 10.984375 69.390625 
L 28.421875 72.90625 
L 38.28125 72.90625 
L 38.28125 8.296875 
L 54.390625 8.296875 
L 54.390625 0 
L 12.40625 0 
z
" id="DejaVuSans-49"/>
       </defs>
       <use transform="translate(0 0.09375)" xlink:href="#DejaVuSans-49"/>
      </g>
     </g>
    </g>
    <g id="xtick_3">
     <g id="line2d_5">
      <path clip-path="url(#p1dfc8c3e06)" d="M 171.324202 178.305354 
L 171.324202 2.834646 
" style="fill:none;stroke:#000000;stroke-linecap:square;stroke-opacity:0.1;stroke-width:0.5;"/>
     </g>
     <g id="line2d_6">
      <g>
       <use style="stroke:#000000;stroke-width:0.5;" x="171.324202" xlink:href="#m83787c3cc6" y="178.305354"/>
      </g>
     </g>
     <g id="text_3">
      <!-- $\mathregular{2}$ -->
      <g transform="translate(167.484202 190.923479)scale(0.12 -0.12)">
       <defs>
        <path d="M 19.1875 8.296875 
L 53.609375 8.296875 
L 53.609375 0 
L 7.328125 0 
L 7.328125 8.296875 
Q 12.9375 14.109375 22.625 23.890625 
Q 32.328125 33.6875 34.8125 36.53125 
Q 39.546875 41.84375 41.421875 45.53125 
Q 43.3125 49.21875 43.3125 52.78125 
Q 43.3125 58.59375 39.234375 62.25 
Q 35.15625 65.921875 28.609375 65.921875 
Q 23.96875 65.921875 18.8125 64.3125 
Q 13.671875 62.703125 7.8125 59.421875 
L 7.8125 69.390625 
Q 13.765625 71.78125 18.9375 73 
Q 24.125 74.21875 28.421875 74.21875 
Q 39.75 74.21875 46.484375 68.546875 
Q 53.21875 62.890625 53.21875 53.421875 
Q 53.21875 48.921875 51.53125 44.890625 
Q 49.859375 40.875 45.40625 35.40625 
Q 44.1875 33.984375 37.640625 27.21875 
Q 31.109375 20.453125 19.1875 8.296875 
z
" id="DejaVuSans-50"/>
       </defs>
       <use transform="translate(0 0.78125)" xlink:href="#DejaVuSans-50"/>
      </g>
     </g>
    </g>
    <g id="xtick_4">
     <g id="line2d_7">
      <path clip-path="url(#p1dfc8c3e06)" d="M 230.321393 178.305354 
L 230.321393 2.834646 
" style="fill:none;stroke:#000000;stroke-linecap:square;stroke-opacity:0.1;stroke-width:0.5;"/>
     </g>
     <g id="line2d_8">
      <g>
       <use style="stroke:#000000;stroke-width:0.5;" x="230.321393" xlink:href="#m83787c3cc6" y="178.305354"/>
      </g>
     </g>
     <g id="text_4">
      <!-- $\mathregular{3}$ -->
      <g transform="translate(226.481393 190.923479)scale(0.12 -0.12)">
       <defs>
        <path d="M 40.578125 39.3125 
Q 47.65625 37.796875 51.625 33 
Q 55.609375 28.21875 55.609375 21.1875 
Q 55.609375 10.40625 48.1875 4.484375 
Q 40.765625 -1.421875 27.09375 -1.421875 
Q 22.515625 -1.421875 17.65625 -0.515625 
Q 12.796875 0.390625 7.625 2.203125 
L 7.625 11.71875 
Q 11.71875 9.328125 16.59375 8.109375 
Q 21.484375 6.890625 26.8125 6.890625 
Q 36.078125 6.890625 40.9375 10.546875 
Q 45.796875 14.203125 45.796875 21.1875 
Q 45.796875 27.640625 41.28125 31.265625 
Q 36.765625 34.90625 28.71875 34.90625 
L 20.21875 34.90625 
L 20.21875 43.015625 
L 29.109375 43.015625 
Q 36.375 43.015625 40.234375 45.921875 
Q 44.09375 48.828125 44.09375 54.296875 
Q 44.09375 59.90625 40.109375 62.90625 
Q 36.140625 65.921875 28.71875 65.921875 
Q 24.65625 65.921875 20.015625 65.03125 
Q 15.375 64.15625 9.8125 62.3125 
L 9.8125 71.09375 
Q 15.4375 72.65625 20.34375 73.4375 
Q 25.25 74.21875 29.59375 74.21875 
Q 40.828125 74.21875 47.359375 69.109375 
Q 53.90625 64.015625 53.90625 55.328125 
Q 53.90625 49.265625 50.4375 45.09375 
Q 46.96875 40.921875 40.578125 39.3125 
z
" id="DejaVuSans-51"/>
       </defs>
       <use transform="translate(0 0.78125)" xlink:href="#DejaVuSans-51"/>
      </g>
     </g>
    </g>
    <g id="xtick_5">
     <g id="line2d_9">
      <path clip-path="url(#p1dfc8c3e06)" d="M 289.318585 178.305354 
L 289.318585 2.834646 
" style="fill:none;stroke:#000000;stroke-linecap:square;stroke-opacity:0.1;stroke-width:0.5;"/>
     </g>
     <g id="line2d_10">
      <g>
       <use style="stroke:#000000;stroke-width:0.5;" x="289.318585" xlink:href="#m83787c3cc6" y="178.305354"/>
      </g>
     </g>
     <g id="text_5">
      <!-- $\mathregular{4}$ -->
      <g transform="translate(285.478585 190.923479)scale(0.12 -0.12)">
       <defs>
        <path d="M 37.796875 64.3125 
L 12.890625 25.390625 
L 37.796875 25.390625 
z
M 35.203125 72.90625 
L 47.609375 72.90625 
L 47.609375 25.390625 
L 58.015625 25.390625 
L 58.015625 17.1875 
L 47.609375 17.1875 
L 47.609375 0 
L 37.796875 0 
L 37.796875 17.1875 
L 4.890625 17.1875 
L 4.890625 26.703125 
z
" id="DejaVuSans-52"/>
       </defs>
       <use transform="translate(0 0.09375)" xlink:href="#DejaVuSans-52"/>
      </g>
     </g>
    </g>
    <g id="xtick_6">
     <g id="line2d_11">
      <path clip-path="url(#p1dfc8c3e06)" d="M 348.315776 178.305354 
L 348.315776 2.834646 
" style="fill:none;stroke:#000000;stroke-linecap:square;stroke-opacity:0.1;stroke-width:0.5;"/>
     </g>
     <g id="line2d_12">
      <g>
       <use style="stroke:#000000;stroke-width:0.5;" x="348.315776" xlink:href="#m83787c3cc6" y="178.305354"/>
      </g>
     </g>
     <g id="text_6">
      <!-- $\mathregular{5}$ -->
      <g transform="translate(344.475776 190.923479)scale(0.12 -0.12)">
       <defs>
        <path d="M 10.796875 72.90625 
L 49.515625 72.90625 
L 49.515625 64.59375 
L 19.828125 64.59375 
L 19.828125 46.734375 
Q 21.96875 47.46875 24.109375 47.828125 
Q 26.265625 48.1875 28.421875 48.1875 
Q 40.625 48.1875 47.75 41.5 
Q 54.890625 34.8125 54.890625 23.390625 
Q 54.890625 11.625 47.5625 5.09375 
Q 40.234375 -1.421875 26.90625 -1.421875 
Q 22.3125 -1.421875 17.546875 -0.640625 
Q 12.796875 0.140625 7.71875 1.703125 
L 7.71875 11.625 
Q 12.109375 9.234375 16.796875 8.0625 
Q 21.484375 6.890625 26.703125 6.890625 
Q 35.15625 6.890625 40.078125 11.328125 
Q 45.015625 15.765625 45.015625 23.390625 
Q 45.015625 31 40.078125 35.4375 
Q 35.15625 39.890625 26.703125 39.890625 
Q 22.75 39.890625 18.8125 39.015625 
Q 14.890625 38.140625 10.796875 36.28125 
z
" id="DejaVuSans-53"/>
       </defs>
       <use transform="translate(0 0.09375)" xlink:href="#DejaVuSans-53"/>
      </g>
     </g>
    </g>
    <g id="text_7">
     <!-- Time [s] -->
     <g transform="translate(168.296548 209.576604)scale(0.16 -0.16)">
      <defs>
       <path d="M -0.296875 72.90625 
L 61.375 72.90625 
L 61.375 64.59375 
L 35.5 64.59375 
L 35.5 0 
L 25.59375 0 
L 25.59375 64.59375 
L -0.296875 64.59375 
z
" id="DejaVuSans-84"/>
       <path d="M 9.421875 54.6875 
L 18.40625 54.6875 
L 18.40625 0 
L 9.421875 0 
z
M 9.421875 75.984375 
L 18.40625 75.984375 
L 18.40625 64.59375 
L 9.421875 64.59375 
z
" id="DejaVuSans-105"/>
       <path d="M 52 44.1875 
Q 55.375 50.25 60.0625 53.125 
Q 64.75 56 71.09375 56 
Q 79.640625 56 84.28125 50.015625 
Q 88.921875 44.046875 88.921875 33.015625 
L 88.921875 0 
L 79.890625 0 
L 79.890625 32.71875 
Q 79.890625 40.578125 77.09375 44.375 
Q 74.3125 48.1875 68.609375 48.1875 
Q 61.625 48.1875 57.5625 43.546875 
Q 53.515625 38.921875 53.515625 30.90625 
L 53.515625 0 
L 44.484375 0 
L 44.484375 32.71875 
Q 44.484375 40.625 41.703125 44.40625 
Q 38.921875 48.1875 33.109375 48.1875 
Q 26.21875 48.1875 22.15625 43.53125 
Q 18.109375 38.875 18.109375 30.90625 
L 18.109375 0 
L 9.078125 0 
L 9.078125 54.6875 
L 18.109375 54.6875 
L 18.109375 46.1875 
Q 21.1875 51.21875 25.484375 53.609375 
Q 29.78125 56 35.6875 56 
Q 41.65625 56 45.828125 52.96875 
Q 50 49.953125 52 44.1875 
z
" id="DejaVuSans-109"/>
       <path d="M 56.203125 29.59375 
L 56.203125 25.203125 
L 14.890625 25.203125 
Q 15.484375 15.921875 20.484375 11.0625 
Q 25.484375 6.203125 34.421875 6.203125 
Q 39.59375 6.203125 44.453125 7.46875 
Q 49.3125 8.734375 54.109375 11.28125 
L 54.109375 2.78125 
Q 49.265625 0.734375 44.1875 -0.34375 
Q 39.109375 -1.421875 33.890625 -1.421875 
Q 20.796875 -1.421875 13.15625 6.1875 
Q 5.515625 13.8125 5.515625 26.8125 
Q 5.515625 40.234375 12.765625 48.109375 
Q 20.015625 56 32.328125 56 
Q 43.359375 56 49.78125 48.890625 
Q 56.203125 41.796875 56.203125 29.59375 
z
M 47.21875 32.234375 
Q 47.125 39.59375 43.09375 43.984375 
Q 39.0625 48.390625 32.421875 48.390625 
Q 24.90625 48.390625 20.390625 44.140625 
Q 15.875 39.890625 15.1875 32.171875 
z
" id="DejaVuSans-101"/>
       <path id="DejaVuSans-32"/>
       <path d="M 8.59375 75.984375 
L 29.296875 75.984375 
L 29.296875 69 
L 17.578125 69 
L 17.578125 -6.203125 
L 29.296875 -6.203125 
L 29.296875 -13.1875 
L 8.59375 -13.1875 
z
" id="DejaVuSans-91"/>
       <path d="M 44.28125 53.078125 
L 44.28125 44.578125 
Q 40.484375 46.53125 36.375 47.5 
Q 32.28125 48.484375 27.875 48.484375 
Q 21.1875 48.484375 17.84375 46.4375 
Q 14.5 44.390625 14.5 40.28125 
Q 14.5 37.15625 16.890625 35.375 
Q 19.28125 33.59375 26.515625 31.984375 
L 29.59375 31.296875 
Q 39.15625 29.25 43.1875 25.515625 
Q 47.21875 21.78125 47.21875 15.09375 
Q 47.21875 7.46875 41.1875 3.015625 
Q 35.15625 -1.421875 24.609375 -1.421875 
Q 20.21875 -1.421875 15.453125 -0.5625 
Q 10.6875 0.296875 5.421875 2 
L 5.421875 11.28125 
Q 10.40625 8.6875 15.234375 7.390625 
Q 20.0625 6.109375 24.8125 6.109375 
Q 31.15625 6.109375 34.5625 8.28125 
Q 37.984375 10.453125 37.984375 14.40625 
Q 37.984375 18.0625 35.515625 20.015625 
Q 33.0625 21.96875 24.703125 23.78125 
L 21.578125 24.515625 
Q 13.234375 26.265625 9.515625 29.90625 
Q 5.8125 33.546875 5.8125 39.890625 
Q 5.8125 47.609375 11.28125 51.796875 
Q 16.75 56 26.8125 56 
Q 31.78125 56 36.171875 55.265625 
Q 40.578125 54.546875 44.28125 53.078125 
z
" id="DejaVuSans-115"/>
       <path d="M 30.421875 75.984375 
L 30.421875 -13.1875 
L 9.71875 -13.1875 
L 9.71875 -6.203125 
L 21.390625 -6.203125 
L 21.390625 69 
L 9.71875 69 
L 9.71875 75.984375 
z
" id="DejaVuSans-93"/>
      </defs>
      <use xlink:href="#DejaVuSans-84"/>
      <use x="57.958984" xlink:href="#DejaVuSans-105"/>
      <use x="85.742188" xlink:href="#DejaVuSans-109"/>
      <use x="183.154297" xlink:href="#DejaVuSans-101"/>
      <use x="244.677734" xlink:href="#DejaVuSans-32"/>
      <use x="276.464844" xlink:href="#DejaVuSans-91"/>
      <use x="315.478516" xlink:href="#DejaVuSans-115"/>
      <use x="367.578125" xlink:href="#DejaVuSans-93"/>
     </g>
    </g>
   </g>
   <g id="matplotlib.axis_2">
    <g id="ytick_1">
     <g id="line2d_13">
      <path clip-path="url(#p1dfc8c3e06)" d="M 44.480241 154.687147 
L 357.165354 154.687147 
" style="fill:none;stroke:#000000;stroke-linecap:square;stroke-opacity:0.1;stroke-width:0.5;"/>
     </g>
     <g id="line2d_14">
      <defs>
       <path d="M 0 0 
L 2.5 0 
" id="mb4717bb358" style="stroke:#000000;stroke-width:0.5;"/>
      </defs>
      <g>
       <use style="stroke:#000000;stroke-width:0.5;" x="44.480241" xlink:href="#mb4717bb358" y="154.687147"/>
      </g>
     </g>
     <g id="text_8">
      <!-- $\mathregular{0.6}$ -->
      <g transform="translate(21.780241 159.24621)scale(0.12 -0.12)">
       <defs>
        <path d="M 10.6875 12.40625 
L 21 12.40625 
L 21 0 
L 10.6875 0 
z
" id="DejaVuSans-46"/>
        <path d="M 33.015625 40.375 
Q 26.375 40.375 22.484375 35.828125 
Q 18.609375 31.296875 18.609375 23.390625 
Q 18.609375 15.53125 22.484375 10.953125 
Q 26.375 6.390625 33.015625 6.390625 
Q 39.65625 6.390625 43.53125 10.953125 
Q 47.40625 15.53125 47.40625 23.390625 
Q 47.40625 31.296875 43.53125 35.828125 
Q 39.65625 40.375 33.015625 40.375 
z
M 52.59375 71.296875 
L 52.59375 62.3125 
Q 48.875 64.0625 45.09375 64.984375 
Q 41.3125 65.921875 37.59375 65.921875 
Q 27.828125 65.921875 22.671875 59.328125 
Q 17.53125 52.734375 16.796875 39.40625 
Q 19.671875 43.65625 24.015625 45.921875 
Q 28.375 48.1875 33.59375 48.1875 
Q 44.578125 48.1875 50.953125 41.515625 
Q 57.328125 34.859375 57.328125 23.390625 
Q 57.328125 12.15625 50.6875 5.359375 
Q 44.046875 -1.421875 33.015625 -1.421875 
Q 20.359375 -1.421875 13.671875 8.265625 
Q 6.984375 17.96875 6.984375 36.375 
Q 6.984375 53.65625 15.1875 63.9375 
Q 23.390625 74.21875 37.203125 74.21875 
Q 40.921875 74.21875 44.703125 73.484375 
Q 48.484375 72.75 52.59375 71.296875 
z
" id="DejaVuSans-54"/>
       </defs>
       <use transform="translate(0 0.78125)" xlink:href="#DejaVuSans-48"/>
       <use transform="translate(63.623047 0.78125)" xlink:href="#DejaVuSans-46"/>
       <use transform="translate(95.410156 0.78125)" xlink:href="#DejaVuSans-54"/>
      </g>
     </g>
    </g>
    <g id="ytick_2">
     <g id="line2d_15">
      <path clip-path="url(#p1dfc8c3e06)" d="M 44.480241 120.485768 
L 357.165354 120.485768 
" style="fill:none;stroke:#000000;stroke-linecap:square;stroke-opacity:0.1;stroke-width:0.5;"/>
     </g>
     <g id="line2d_16">
      <g>
       <use style="stroke:#000000;stroke-width:0.5;" x="44.480241" xlink:href="#mb4717bb358" y="120.485768"/>
      </g>
     </g>
     <g id="text_9">
      <!-- $\mathregular{0.8}$ -->
      <g transform="translate(22.140241 125.044831)scale(0.12 -0.12)">
       <defs>
        <path d="M 31.78125 34.625 
Q 24.75 34.625 20.71875 30.859375 
Q 16.703125 27.09375 16.703125 20.515625 
Q 16.703125 13.921875 20.71875 10.15625 
Q 24.75 6.390625 31.78125 6.390625 
Q 38.8125 6.390625 42.859375 10.171875 
Q 46.921875 13.96875 46.921875 20.515625 
Q 46.921875 27.09375 42.890625 30.859375 
Q 38.875 34.625 31.78125 34.625 
z
M 21.921875 38.8125 
Q 15.578125 40.375 12.03125 44.71875 
Q 8.5 49.078125 8.5 55.328125 
Q 8.5 64.0625 14.71875 69.140625 
Q 20.953125 74.21875 31.78125 74.21875 
Q 42.671875 74.21875 48.875 69.140625 
Q 55.078125 64.0625 55.078125 55.328125 
Q 55.078125 49.078125 51.53125 44.71875 
Q 48 40.375 41.703125 38.8125 
Q 48.828125 37.15625 52.796875 32.3125 
Q 56.78125 27.484375 56.78125 20.515625 
Q 56.78125 9.90625 50.3125 4.234375 
Q 43.84375 -1.421875 31.78125 -1.421875 
Q 19.734375 -1.421875 13.25 4.234375 
Q 6.78125 9.90625 6.78125 20.515625 
Q 6.78125 27.484375 10.78125 32.3125 
Q 14.796875 37.15625 21.921875 38.8125 
z
M 18.3125 54.390625 
Q 18.3125 48.734375 21.84375 45.5625 
Q 25.390625 42.390625 31.78125 42.390625 
Q 38.140625 42.390625 41.71875 45.5625 
Q 45.3125 48.734375 45.3125 54.390625 
Q 45.3125 60.0625 41.71875 63.234375 
Q 38.140625 66.40625 31.78125 66.40625 
Q 25.390625 66.40625 21.84375 63.234375 
Q 18.3125 60.0625 18.3125 54.390625 
z
" id="DejaVuSans-56"/>
       </defs>
       <use transform="translate(0 0.78125)" xlink:href="#DejaVuSans-48"/>
       <use transform="translate(63.623047 0.78125)" xlink:href="#DejaVuSans-46"/>
       <use transform="translate(92.785156 0.78125)" xlink:href="#DejaVuSans-56"/>
      </g>
     </g>
    </g>
    <g id="ytick_3">
     <g id="line2d_17">
      <path clip-path="url(#p1dfc8c3e06)" d="M 44.480241 86.284389 
L 357.165354 86.284389 
" style="fill:none;stroke:#000000;stroke-linecap:square;stroke-opacity:0.1;stroke-width:0.5;"/>
     </g>
     <g id="line2d_18">
      <g>
       <use style="stroke:#000000;stroke-width:0.5;" x="44.480241" xlink:href="#mb4717bb358" y="86.284389"/>
      </g>
     </g>
     <g id="text_10">
      <!-- $\mathregular{1.0}$ -->
      <g transform="translate(21.780241 90.843451)scale(0.12 -0.12)">
       <use transform="translate(0 0.78125)" xlink:href="#DejaVuSans-49"/>
       <use transform="translate(63.623047 0.78125)" xlink:href="#DejaVuSans-46"/>
       <use transform="translate(95.410156 0.78125)" xlink:href="#DejaVuSans-48"/>
      </g>
     </g>
    </g>
    <g id="ytick_4">
     <g id="line2d_19">
      <path clip-path="url(#p1dfc8c3e06)" d="M 44.480241 52.08301 
L 357.165354 52.08301 
" style="fill:none;stroke:#000000;stroke-linecap:square;stroke-opacity:0.1;stroke-width:0.5;"/>
     </g>
     <g id="line2d_20">
      <g>
       <use style="stroke:#000000;stroke-width:0.5;" x="44.480241" xlink:href="#mb4717bb358" y="52.08301"/>
      </g>
     </g>
     <g id="text_11">
      <!-- $\mathregular{1.2}$ -->
      <g transform="translate(22.500241 56.642072)scale(0.12 -0.12)">
       <use transform="translate(0 0.78125)" xlink:href="#DejaVuSans-49"/>
       <use transform="translate(63.623047 0.78125)" xlink:href="#DejaVuSans-46"/>
       <use transform="translate(89.910156 0.78125)" xlink:href="#DejaVuSans-50"/>
      </g>
     </g>
    </g>
    <g id="ytick_5">
     <g id="line2d_21">
      <path clip-path="url(#p1dfc8c3e06)" d="M 44.480241 17.881631 
L 357.165354 17.881631 
" style="fill:none;stroke:#000000;stroke-linecap:square;stroke-opacity:0.1;stroke-width:0.5;"/>
     </g>
     <g id="line2d_22">
      <g>
       <use style="stroke:#000000;stroke-width:0.5;" x="44.480241" xlink:href="#mb4717bb358" y="17.881631"/>
      </g>
     </g>
     <g id="text_12">
      <!-- $\mathregular{1.4}$ -->
      <g transform="translate(21.780241 22.440693)scale(0.12 -0.12)">
       <use transform="translate(0 0.09375)" xlink:href="#DejaVuSans-49"/>
       <use transform="translate(63.623047 0.09375)" xlink:href="#DejaVuSans-46"/>
       <use transform="translate(95.410156 0.09375)" xlink:href="#DejaVuSans-52"/>
      </g>
     </g>
    </g>
    <g id="text_13">
     <!-- Inlet conditions -->
     <g transform="translate(14.452741 151.98)rotate(-90)scale(0.16 -0.16)">
      <defs>
       <path d="M 9.8125 72.90625 
L 19.671875 72.90625 
L 19.671875 0 
L 9.8125 0 
z
" id="DejaVuSans-73"/>
       <path d="M 54.890625 33.015625 
L 54.890625 0 
L 45.90625 0 
L 45.90625 32.71875 
Q 45.90625 40.484375 42.875 44.328125 
Q 39.84375 48.1875 33.796875 48.1875 
Q 26.515625 48.1875 22.3125 43.546875 
Q 18.109375 38.921875 18.109375 30.90625 
L 18.109375 0 
L 9.078125 0 
L 9.078125 54.6875 
L 18.109375 54.6875 
L 18.109375 46.1875 
Q 21.34375 51.125 25.703125 53.5625 
Q 30.078125 56 35.796875 56 
Q 45.21875 56 50.046875 50.171875 
Q 54.890625 44.34375 54.890625 33.015625 
z
" id="DejaVuSans-110"/>
       <path d="M 9.421875 75.984375 
L 18.40625 75.984375 
L 18.40625 0 
L 9.421875 0 
z
" id="DejaVuSans-108"/>
       <path d="M 18.3125 70.21875 
L 18.3125 54.6875 
L 36.8125 54.6875 
L 36.8125 47.703125 
L 18.3125 47.703125 
L 18.3125 18.015625 
Q 18.3125 11.328125 20.140625 9.421875 
Q 21.96875 7.515625 27.59375 7.515625 
L 36.8125 7.515625 
L 36.8125 0 
L 27.59375 0 
Q 17.1875 0 13.234375 3.875 
Q 9.28125 7.765625 9.28125 18.015625 
L 9.28125 47.703125 
L 2.6875 47.703125 
L 2.6875 54.6875 
L 9.28125 54.6875 
L 9.28125 70.21875 
z
" id="DejaVuSans-116"/>
       <path d="M 48.78125 52.59375 
L 48.78125 44.1875 
Q 44.96875 46.296875 41.140625 47.34375 
Q 37.3125 48.390625 33.40625 48.390625 
Q 24.65625 48.390625 19.8125 42.84375 
Q 14.984375 37.3125 14.984375 27.296875 
Q 14.984375 17.28125 19.8125 11.734375 
Q 24.65625 6.203125 33.40625 6.203125 
Q 37.3125 6.203125 41.140625 7.25 
Q 44.96875 8.296875 48.78125 10.40625 
L 48.78125 2.09375 
Q 45.015625 0.34375 40.984375 -0.53125 
Q 36.96875 -1.421875 32.421875 -1.421875 
Q 20.0625 -1.421875 12.78125 6.34375 
Q 5.515625 14.109375 5.515625 27.296875 
Q 5.515625 40.671875 12.859375 48.328125 
Q 20.21875 56 33.015625 56 
Q 37.15625 56 41.109375 55.140625 
Q 45.0625 54.296875 48.78125 52.59375 
z
" id="DejaVuSans-99"/>
       <path d="M 30.609375 48.390625 
Q 23.390625 48.390625 19.1875 42.75 
Q 14.984375 37.109375 14.984375 27.296875 
Q 14.984375 17.484375 19.15625 11.84375 
Q 23.34375 6.203125 30.609375 6.203125 
Q 37.796875 6.203125 41.984375 11.859375 
Q 46.1875 17.53125 46.1875 27.296875 
Q 46.1875 37.015625 41.984375 42.703125 
Q 37.796875 48.390625 30.609375 48.390625 
z
M 30.609375 56 
Q 42.328125 56 49.015625 48.375 
Q 55.71875 40.765625 55.71875 27.296875 
Q 55.71875 13.875 49.015625 6.21875 
Q 42.328125 -1.421875 30.609375 -1.421875 
Q 18.84375 -1.421875 12.171875 6.21875 
Q 5.515625 13.875 5.515625 27.296875 
Q 5.515625 40.765625 12.171875 48.375 
Q 18.84375 56 30.609375 56 
z
" id="DejaVuSans-111"/>
       <path d="M 45.40625 46.390625 
L 45.40625 75.984375 
L 54.390625 75.984375 
L 54.390625 0 
L 45.40625 0 
L 45.40625 8.203125 
Q 42.578125 3.328125 38.25 0.953125 
Q 33.9375 -1.421875 27.875 -1.421875 
Q 17.96875 -1.421875 11.734375 6.484375 
Q 5.515625 14.40625 5.515625 27.296875 
Q 5.515625 40.1875 11.734375 48.09375 
Q 17.96875 56 27.875 56 
Q 33.9375 56 38.25 53.625 
Q 42.578125 51.265625 45.40625 46.390625 
z
M 14.796875 27.296875 
Q 14.796875 17.390625 18.875 11.75 
Q 22.953125 6.109375 30.078125 6.109375 
Q 37.203125 6.109375 41.296875 11.75 
Q 45.40625 17.390625 45.40625 27.296875 
Q 45.40625 37.203125 41.296875 42.84375 
Q 37.203125 48.484375 30.078125 48.484375 
Q 22.953125 48.484375 18.875 42.84375 
Q 14.796875 37.203125 14.796875 27.296875 
z
" id="DejaVuSans-100"/>
      </defs>
      <use xlink:href="#DejaVuSans-73"/>
      <use x="29.492188" xlink:href="#DejaVuSans-110"/>
      <use x="92.871094" xlink:href="#DejaVuSans-108"/>
      <use x="120.654297" xlink:href="#DejaVuSans-101"/>
      <use x="182.177734" xlink:href="#DejaVuSans-116"/>
      <use x="221.386719" xlink:href="#DejaVuSans-32"/>
      <use x="253.173828" xlink:href="#DejaVuSans-99"/>
      <use x="308.154297" xlink:href="#DejaVuSans-111"/>
      <use x="369.335938" xlink:href="#DejaVuSans-110"/>
      <use x="432.714844" xlink:href="#DejaVuSans-100"/>
      <use x="496.191406" xlink:href="#DejaVuSans-105"/>
      <use x="523.974609" xlink:href="#DejaVuSans-116"/>
      <use x="563.183594" xlink:href="#DejaVuSans-105"/>
      <use x="590.966797" xlink:href="#DejaVuSans-111"/>
      <use x="652.148438" xlink:href="#DejaVuSans-110"/>
      <use x="715.527344" xlink:href="#DejaVuSans-115"/>
     </g>
    </g>
   </g>
   <g id="PathCollection_1">
    <defs>
     <path d="M 0 2 
C 0.530406 2 1.03916 1.789267 1.414214 1.414214 
C 1.789267 1.03916 2 0.530406 2 0 
C 2 -0.530406 1.789267 -1.03916 1.414214 -1.414214 
C 1.03916 -1.789267 0.530406 -2 0 -2 
C -0.530406 -2 -1.03916 -1.789267 -1.414214 -1.414214 
C -1.789267 -1.03916 -2 -0.530406 -2 0 
C -2 0.530406 -1.789267 1.03916 -1.414214 1.414214 
C -1.03916 1.789267 -0.530406 2 0 2 
z
" id="m8c9ccaea7a"/>
    </defs>
    <g clip-path="url(#p1dfc8c3e06)">
     <use x="53.32982" xlink:href="#m8c9ccaea7a" y="88.849582"/>
     <use x="59.349942" xlink:href="#m8c9ccaea7a" y="89.190149"/>
     <use x="65.370063" xlink:href="#m8c9ccaea7a" y="90.103206"/>
     <use x="71.390185" xlink:href="#m8c9ccaea7a" y="91.353766"/>
     <use x="77.410306" xlink:href="#m8c9ccaea7a" y="92.619981"/>
     <use x="83.430428" xlink:href="#m8c9ccaea7a" y="93.575975"/>
     <use x="89.450549" xlink:href="#m8c9ccaea7a" y="93.975711"/>
     <use x="95.470671" xlink:href="#m8c9ccaea7a" y="93.716311"/>
     <use x="101.490792" xlink:href="#m8c9ccaea7a" y="92.864537"/>
     <use x="107.510914" xlink:href="#m8c9ccaea7a" y="91.639601"/>
     <use x="113.531035" xlink:href="#m8c9ccaea7a" y="90.356758"/>
     <use x="119.551157" xlink:href="#m8c9ccaea7a" y="89.346163"/>
     <use x="125.571279" xlink:href="#m8c9ccaea7a" y="88.867905"/>
     <use x="131.5914" xlink:href="#m8c9ccaea7a" y="89.04507"/>
     <use x="137.611522" xlink:href="#m8c9ccaea7a" y="89.832062"/>
     <use x="143.631643" xlink:href="#m8c9ccaea7a" y="91.026339"/>
     <use x="149.651765" xlink:href="#m8c9ccaea7a" y="92.320539"/>
     <use x="155.671886" xlink:href="#m8c9ccaea7a" y="93.381584"/>
     <use x="161.692008" xlink:href="#m8c9ccaea7a" y="93.936399"/>
     <use x="167.712129" xlink:href="#m8c9ccaea7a" y="93.842196"/>
     <use x="173.732251" xlink:href="#m8c9ccaea7a" y="93.12322"/>
     <use x="179.752372" xlink:href="#m8c9ccaea7a" y="91.964508"/>
     <use x="185.772494" xlink:href="#m8c9ccaea7a" y="90.664269"/>
     <use x="191.792616" xlink:href="#m8c9ccaea7a" y="89.557136"/>
     <use x="197.812737" xlink:href="#m8c9ccaea7a" y="88.928044"/>
     <use x="203.832859" xlink:href="#m8c9ccaea7a" y="88.938897"/>
     <use x="209.85298" xlink:href="#m8c9ccaea7a" y="89.586903"/>
     <use x="215.873102" xlink:href="#m8c9ccaea7a" y="90.705288"/>
     <use x="221.893223" xlink:href="#m8c9ccaea7a" y="92.006222"/>
     <use x="227.913345" xlink:href="#m8c9ccaea7a" y="93.154894"/>
     <use x="233.933466" xlink:href="#m8c9ccaea7a" y="93.855679"/>
     <use x="239.953588" xlink:href="#m8c9ccaea7a" y="93.928219"/>
     <use x="245.973709" xlink:href="#m8c9ccaea7a" y="93.353848"/>
     <use x="251.993831" xlink:href="#m8c9ccaea7a" y="92.280385"/>
     <use x="258.013953" xlink:href="#m8c9ccaea7a" y="90.9841"/>
     <use x="264.034074" xlink:href="#m8c9ccaea7a" y="89.798609"/>
     <use x="270.054196" xlink:href="#m8c9ccaea7a" y="89.029013"/>
     <use x="276.074317" xlink:href="#m8c9ccaea7a" y="88.873376"/>
     <use x="282.094439" xlink:href="#m8c9ccaea7a" y="89.371754"/>
     <use x="288.11456" xlink:href="#m8c9ccaea7a" y="90.395883"/>
     <use x="294.134682" xlink:href="#m8c9ccaea7a" y="91.682191"/>
     <use x="300.154803" xlink:href="#m8c9ccaea7a" y="92.89963"/>
     <use x="306.174925" xlink:href="#m8c9ccaea7a" y="93.734876"/>
     <use x="312.195046" xlink:href="#m8c9ccaea7a" y="93.972969"/>
     <use x="318.215168" xlink:href="#m8c9ccaea7a" y="93.552633"/>
     <use x="324.235289" xlink:href="#m8c9ccaea7a" y="92.582045"/>
     <use x="330.255411" xlink:href="#m8c9ccaea7a" y="91.311"/>
     <use x="336.275533" xlink:href="#m8c9ccaea7a" y="90.066617"/>
     <use x="342.295654" xlink:href="#m8c9ccaea7a" y="89.169153"/>
     <use x="348.315776" xlink:href="#m8c9ccaea7a" y="88.849582"/>
    </g>
   </g>
   <g id="PathCollection_2">
    <defs>
     <path d="M 0 2 
C 0.530406 2 1.03916 1.789267 1.414214 1.414214 
C 1.789267 1.03916 2 0.530406 2 0 
C 2 -0.530406 1.789267 -1.03916 1.414214 -1.414214 
C 1.03916 -1.789267 0.530406 -2 0 -2 
C -0.530406 -2 -1.03916 -1.789267 -1.414214 -1.414214 
C -1.789267 -1.03916 -2 -0.530406 -2 0 
C -2 0.530406 -1.789267 1.03916 -1.414214 1.414214 
C -1.03916 1.789267 -0.530406 2 0 2 
z
" id="m8e489ef13a"/>
    </defs>
    <g clip-path="url(#p1dfc8c3e06)">
     <use style="fill:#ff0000;" x="53.32982" xlink:href="#m8e489ef13a" y="86.284389"/>
     <use style="fill:#ff0000;" x="59.349942" xlink:href="#m8e489ef13a" y="81.170338"/>
     <use style="fill:#ff0000;" x="65.370063" xlink:href="#m8e489ef13a" y="78.087448"/>
     <use style="fill:#ff0000;" x="71.390185" xlink:href="#m8e489ef13a" y="78.26016"/>
     <use style="fill:#ff0000;" x="77.410306" xlink:href="#m8e489ef13a" y="81.619877"/>
     <use style="fill:#ff0000;" x="83.430428" xlink:href="#m8e489ef13a" y="86.832211"/>
     <use style="fill:#ff0000;" x="89.450549" xlink:href="#m8e489ef13a" y="91.826965"/>
     <use style="fill:#ff0000;" x="95.470671" xlink:href="#m8e489ef13a" y="94.620359"/>
     <use style="fill:#ff0000;" x="101.490792" xlink:href="#m8e489ef13a" y="94.102932"/>
     <use style="fill:#ff0000;" x="107.510914" xlink:href="#m8e489ef13a" y="90.480193"/>
     <use style="fill:#ff0000;" x="113.531035" xlink:href="#m8e489ef13a" y="85.190995"/>
     <use style="fill:#ff0000;" x="119.551157" xlink:href="#m8e489ef13a" y="80.336063"/>
     <use style="fill:#ff0000;" x="125.571279" xlink:href="#m8e489ef13a" y="77.843644"/>
     <use style="fill:#ff0000;" x="131.5914" xlink:href="#m8e489ef13a" y="78.703659"/>
     <use style="fill:#ff0000;" x="137.611522" xlink:href="#m8e489ef13a" y="82.574533"/>
     <use style="fill:#ff0000;" x="143.631643" xlink:href="#m8e489ef13a" y="87.918861"/>
     <use style="fill:#ff0000;" x="149.651765" xlink:href="#m8e489ef13a" y="92.614021"/>
     <use style="fill:#ff0000;" x="155.671886" xlink:href="#m8e489ef13a" y="94.795224"/>
     <use style="fill:#ff0000;" x="161.692008" xlink:href="#m8e489ef13a" y="93.596154"/>
     <use style="fill:#ff0000;" x="167.712129" xlink:href="#m8e489ef13a" y="89.493051"/>
     <use style="fill:#ff0000;" x="173.732251" xlink:href="#m8e489ef13a" y="84.115555"/>
     <use style="fill:#ff0000;" x="179.752372" xlink:href="#m8e489ef13a" y="79.59946"/>
     <use style="fill:#ff0000;" x="185.772494" xlink:href="#m8e489ef13a" y="77.738437"/>
     <use style="fill:#ff0000;" x="191.792616" xlink:href="#m8e489ef13a" y="79.271633"/>
     <use style="fill:#ff0000;" x="197.812737" xlink:href="#m8e489ef13a" y="83.590105"/>
     <use style="fill:#ff0000;" x="203.832859" xlink:href="#m8e489ef13a" y="88.978673"/>
     <use style="fill:#ff0000;" x="209.85298" xlink:href="#m8e489ef13a" y="93.297145"/>
     <use style="fill:#ff0000;" x="215.873102" xlink:href="#m8e489ef13a" y="94.830341"/>
     <use style="fill:#ff0000;" x="221.893223" xlink:href="#m8e489ef13a" y="92.969318"/>
     <use style="fill:#ff0000;" x="227.913345" xlink:href="#m8e489ef13a" y="88.453223"/>
     <use style="fill:#ff0000;" x="233.933466" xlink:href="#m8e489ef13a" y="83.075727"/>
     <use style="fill:#ff0000;" x="239.953588" xlink:href="#m8e489ef13a" y="78.972624"/>
     <use style="fill:#ff0000;" x="245.973709" xlink:href="#m8e489ef13a" y="77.773554"/>
     <use style="fill:#ff0000;" x="251.993831" xlink:href="#m8e489ef13a" y="79.954757"/>
     <use style="fill:#ff0000;" x="258.013953" xlink:href="#m8e489ef13a" y="84.649917"/>
     <use style="fill:#ff0000;" x="264.034074" xlink:href="#m8e489ef13a" y="89.994245"/>
     <use style="fill:#ff0000;" x="270.054196" xlink:href="#m8e489ef13a" y="93.865119"/>
     <use style="fill:#ff0000;" x="276.074317" xlink:href="#m8e489ef13a" y="94.725134"/>
     <use style="fill:#ff0000;" x="282.094439" xlink:href="#m8e489ef13a" y="92.232715"/>
     <use style="fill:#ff0000;" x="288.11456" xlink:href="#m8e489ef13a" y="87.377783"/>
     <use style="fill:#ff0000;" x="294.134682" xlink:href="#m8e489ef13a" y="82.088585"/>
     <use style="fill:#ff0000;" x="300.154803" xlink:href="#m8e489ef13a" y="78.465846"/>
     <use style="fill:#ff0000;" x="306.174925" xlink:href="#m8e489ef13a" y="77.948419"/>
     <use style="fill:#ff0000;" x="312.195046" xlink:href="#m8e489ef13a" y="80.741813"/>
     <use style="fill:#ff0000;" x="318.215168" xlink:href="#m8e489ef13a" y="85.736566"/>
     <use style="fill:#ff0000;" x="324.235289" xlink:href="#m8e489ef13a" y="90.9489"/>
     <use style="fill:#ff0000;" x="330.255411" xlink:href="#m8e489ef13a" y="94.308618"/>
     <use style="fill:#ff0000;" x="336.275533" xlink:href="#m8e489ef13a" y="94.48133"/>
     <use style="fill:#ff0000;" x="342.295654" xlink:href="#m8e489ef13a" y="91.39844"/>
     <use style="fill:#ff0000;" x="348.315776" xlink:href="#m8e489ef13a" y="86.284389"/>
    </g>
   </g>
   <g id="patch_3">
    <path d="M 44.480241 178.305354 
L 44.480241 2.834646 
" style="fill:none;stroke:#000000;stroke-linecap:square;stroke-linejoin:miter;"/>
   </g>
   <g id="patch_4">
    <path d="M 44.480241 178.305354 
L 357.165354 178.305354 
" style="fill:none;stroke:#000000;stroke-linecap:square;stroke-linejoin:miter;"/>
   </g>
   <g id="line2d_23">
    <path clip-path="url(#p1dfc8c3e06)" d="M 53.32982 93.279362 
L 54.514503 92.696266 
L 55.699185 92.263865 
L 56.883868 92.022324 
L 58.06855 92.007953 
L 59.253233 92.251883 
L 60.437915 92.778839 
L 61.622598 93.606112 
L 62.80728 94.742781 
L 63.991963 96.189258 
L 65.176646 97.937176 
L 66.361328 99.969656 
L 68.730693 104.78222 
L 71.100058 110.352322 
L 78.208154 128.073443 
L 80.577519 133.165315 
L 81.762201 135.398362 
L 82.946884 137.388522 
L 84.131566 139.115256 
L 85.316249 140.561997 
L 86.500932 141.715957 
L 87.685614 142.567923 
L 88.870297 143.112089 
L 90.054979 143.345936 
L 91.239662 143.270188 
L 92.424344 142.888844 
L 93.609027 142.209305 
L 94.793709 141.242569 
L 95.978392 140.003499 
L 97.163074 138.511129 
L 98.347757 136.788975 
L 100.717122 132.773388 
L 104.27117 125.894889 
L 106.640535 121.291387 
L 109.0099 117.181619 
L 110.194583 115.451268 
L 111.379265 114.006739 
L 112.563948 112.89365 
L 113.74863 112.150116 
L 114.933313 111.805035 
L 116.117995 111.876725 
L 117.302678 112.372 
L 118.48736 113.285785 
L 119.672043 114.601289 
L 120.856726 116.290733 
L 122.041408 118.316578 
L 124.410773 123.188589 
L 126.780138 128.789689 
L 131.518869 140.352286 
L 133.888234 145.496188 
L 135.072916 147.765778 
L 136.257599 149.793422 
L 137.442281 151.555288 
L 138.626964 153.032323 
L 139.811646 154.209872 
L 140.996329 155.077308 
L 142.181011 155.627709 
L 143.365694 155.857618 
L 144.550377 155.766919 
L 145.735059 155.358829 
L 146.919742 154.640016 
L 148.104424 153.620852 
L 149.289107 152.315748 
L 150.473789 150.743588 
L 151.658472 148.928185 
L 154.027837 144.690145 
L 157.581885 137.428129 
L 159.95125 132.591592 
L 162.320615 128.331953 
L 163.505297 126.577845 
L 164.68998 125.153881 
L 165.874663 124.11212 
L 167.059345 123.4955 
L 168.244028 123.335667 
L 169.42871 123.651257 
L 170.613393 124.446804 
L 171.798075 125.712362 
L 172.982758 127.4239 
L 174.16744 129.544423 
L 175.352123 132.025749 
L 177.721488 137.836035 
L 181.275536 147.679073 
L 184.829583 157.319664 
L 187.198948 162.914225 
L 188.383631 165.341254 
L 189.568314 167.482343 
L 190.752996 169.314913 
L 191.937679 170.820943 
L 193.122361 171.986231 
L 194.307044 172.799708 
L 195.491726 173.252845 
L 196.676409 173.339202 
L 197.861091 173.05415 
L 199.045774 172.394777 
L 200.230457 171.36 
L 201.415139 169.950897 
L 202.599822 168.17124 
L 203.784504 166.028226 
L 204.969187 163.533386 
L 206.153869 160.703623 
L 208.523234 154.140431 
L 210.8926 146.62232 
L 216.816012 126.825023 
L 218.000695 123.337992 
L 219.185377 120.216768 
L 220.37006 117.545617 
L 221.554743 115.399127 
L 222.739425 113.838246 
L 223.924108 112.906841 
L 225.10879 112.629117 
L 226.293473 113.008117 
L 227.478155 114.025479 
L 228.662838 115.642449 
L 229.84752 117.80207 
L 231.032203 120.432303 
L 233.401568 126.764042 
L 240.509663 147.829214 
L 241.694346 150.809072 
L 242.879028 153.478203 
L 244.063711 155.796062 
L 245.248394 157.729205 
L 246.433076 159.250157 
L 247.617759 160.336268 
L 248.802441 160.968632 
L 249.987124 161.131177 
L 251.171806 160.80997 
L 252.356489 159.992803 
L 253.541171 158.669083 
L 254.725854 156.830079 
L 255.910537 154.469527 
L 257.095219 151.584624 
L 258.279902 148.177399 
L 259.464584 144.256444 
L 260.649267 139.838941 
L 263.018632 129.639555 
L 265.387997 117.974214 
L 271.31141 87.457241 
L 272.496092 82.212766 
L 273.680775 77.617923 
L 274.865457 73.820688 
L 276.05014 70.950784 
L 277.234823 69.11169 
L 278.419505 68.373832 
L 279.604188 68.769674 
L 280.78887 70.291243 
L 281.973553 72.890404 
L 283.158235 76.481846 
L 284.342918 80.94848 
L 285.5276 86.148653 
L 287.896965 98.110202 
L 293.820378 129.765791 
L 296.189743 140.484881 
L 297.374426 145.100032 
L 298.559108 149.159034 
L 299.743791 152.632051 
L 300.928474 155.497968 
L 302.113156 157.741699 
L 303.297839 159.351757 
L 304.482521 160.318168 
L 305.667204 160.630788 
L 306.851886 160.278066 
L 308.036569 159.246275 
L 309.221251 157.519238 
L 310.405934 155.078583 
L 311.590617 151.904573 
L 312.775299 147.977552 
L 313.959982 143.280055 
L 315.144664 137.799626 
L 316.329347 131.532332 
L 317.514029 124.486926 
L 319.883394 108.18855 
L 322.25276 89.40964 
L 328.176172 39.493766 
L 329.360855 30.822598 
L 330.545537 23.210659 
L 331.73022 16.910677 
L 332.914902 12.140587 
L 334.099585 9.068553 
L 335.284268 7.800798 
L 336.46895 8.373684 
L 337.653633 10.750984 
L 338.838315 14.826678 
L 340.022998 20.432915 
L 341.20768 27.352157 
L 342.392363 35.332066 
L 344.761728 53.386007 
L 348.315776 81.801934 
L 348.315776 81.801934 
" style="fill:none;stroke:#000000;stroke-dasharray:3.7,1.6;stroke-dashoffset:0;"/>
   </g>
   <g id="line2d_24">
    <path clip-path="url(#p1dfc8c3e06)" d="M 53.32982 73.790509 
L 60.437915 95.753361 
L 62.80728 102.004457 
L 65.176646 107.245057 
L 66.361328 109.440829 
L 67.546011 111.340345 
L 68.730693 112.939793 
L 69.915376 114.239725 
L 71.100058 115.244663 
L 72.284741 115.962753 
L 73.469423 116.405474 
L 74.654106 116.587385 
L 75.838789 116.525911 
L 77.023471 116.24114 
L 78.208154 115.755619 
L 79.392836 115.09413 
L 81.762201 113.351914 
L 84.131566 111.245894 
L 88.870297 106.910226 
L 91.239662 105.127483 
L 92.424344 104.411157 
L 93.609027 103.831734 
L 94.793709 103.398683 
L 95.978392 103.116613 
L 97.163074 102.985196 
L 98.347757 102.999269 
L 99.53244 103.149095 
L 101.901805 103.796793 
L 104.27117 104.777542 
L 109.0099 106.977107 
L 111.379265 107.80435 
L 112.563948 108.073032 
L 113.74863 108.221579 
L 114.933313 108.235936 
L 116.117995 108.10527 
L 117.302678 107.822211 
L 118.48736 107.383048 
L 119.672043 106.787907 
L 120.856726 106.040877 
L 123.226091 104.127897 
L 125.595456 101.758754 
L 132.703551 93.972564 
L 133.888234 92.928092 
L 135.072916 92.053503 
L 136.257599 91.383315 
L 137.442281 90.948836 
L 138.626964 90.776988 
L 139.811646 90.889217 
L 140.996329 91.300557 
L 142.181011 92.018898 
L 143.365694 93.044517 
L 144.550377 94.369898 
L 145.735059 95.979866 
L 146.919742 97.852014 
L 149.289107 102.261571 
L 151.658472 107.306976 
L 157.581885 120.424328 
L 159.95125 124.982395 
L 161.135932 126.967564 
L 162.320615 128.718121 
L 163.505297 130.209594 
L 164.68998 131.4211 
L 165.874663 132.335222 
L 167.059345 132.937886 
L 168.244028 133.218259 
L 169.42871 133.16868 
L 170.613393 132.784677 
L 171.798075 132.06506 
L 172.982758 131.01211 
L 174.16744 129.631868 
L 175.352123 127.934516 
L 176.536806 125.934821 
L 177.721488 123.652636 
L 180.090853 118.348617 
L 182.460218 112.30068 
L 188.383631 96.667348 
L 189.568314 93.97277 
L 190.752996 91.585688 
L 191.937679 89.572434 
L 193.122361 87.992936 
L 194.307044 86.89813 
L 195.491726 86.327586 
L 196.676409 86.307546 
L 197.861091 86.849511 
L 199.045774 87.949514 
L 200.230457 89.588136 
L 201.415139 91.731277 
L 202.599822 94.331617 
L 203.784504 97.330658 
L 206.153869 104.24999 
L 214.446647 130.35555 
L 215.63133 133.443455 
L 216.816012 136.220164 
L 218.000695 138.651477 
L 219.185377 140.708736 
L 220.37006 142.368098 
L 221.554743 143.609769 
L 222.739425 144.417291 
L 223.924108 144.77692 
L 225.10879 144.677139 
L 226.293473 144.108355 
L 227.478155 143.062789 
L 228.662838 141.534599 
L 229.84752 139.520231 
L 231.032203 137.019021 
L 232.216885 134.034035 
L 233.401568 130.573132 
L 234.586251 126.650228 
L 236.955616 117.512833 
L 239.324981 106.908452 
L 242.879028 89.336768 
L 246.433076 72.004473 
L 247.617759 66.819625 
L 248.802441 62.137449 
L 249.987124 58.076062 
L 251.171806 54.742444 
L 252.356489 52.227216 
L 253.541171 50.599949 
L 254.725854 49.905414 
L 255.910537 50.161084 
L 257.095219 51.356146 
L 258.279902 53.452093 
L 259.464584 56.384847 
L 260.649267 60.068225 
L 261.833949 64.398407 
L 264.203314 74.526631 
L 272.496092 112.984468 
L 274.865457 121.756439 
L 276.05014 125.481245 
L 277.234823 128.726954 
L 278.419505 131.4746 
L 279.604188 133.711324 
L 280.78887 135.429094 
L 281.973553 136.623627 
L 283.158235 137.293547 
L 284.342918 137.439802 
L 285.5276 137.065361 
L 286.712283 136.175174 
L 287.896965 134.776405 
L 289.081648 132.878913 
L 290.266331 130.495958 
L 291.451013 127.6451 
L 292.635696 124.349232 
L 293.820378 120.637696 
L 296.189743 112.12378 
L 298.559108 102.505684 
L 304.482521 77.612209 
L 305.667204 73.239025 
L 306.851886 69.298547 
L 308.036569 65.880778 
L 309.221251 63.064302 
L 310.405934 60.912669 
L 311.590617 59.471375 
L 312.775299 58.765686 
L 313.959982 58.799478 
L 315.144664 59.555196 
L 316.329347 60.994924 
L 317.514029 63.062454 
L 318.698712 65.686171 
L 319.883394 68.782519 
L 322.25276 76.021679 
L 329.360855 99.423238 
L 331.73022 105.717282 
L 332.914902 108.334727 
L 334.099585 110.55387 
L 335.284268 112.349667 
L 336.46895 113.703243 
L 337.653633 114.601186 
L 338.838315 115.034938 
L 340.022998 115.00036 
L 341.20768 114.497469 
L 342.392363 113.530368 
L 343.577045 112.107363 
L 344.761728 110.241252 
L 345.946411 107.949758 
L 347.131093 105.256067 
L 348.315776 102.189415 
L 348.315776 102.189415 
" style="fill:none;stroke:#ff0000;stroke-dasharray:3.7,1.6;stroke-dashoffset:0;"/>
   </g>
   <g id="legend_1">
    <g id="line2d_25">
     <path d="M 234.281604 23.352771 
L 258.281604 23.352771 
" style="fill:none;"/>
    </g>
    <g id="line2d_26">
     <defs>
      <path d="M 0 4.8 
C 1.272975 4.8 2.493983 4.294242 3.394113 3.394113 
C 4.294242 2.493983 4.8 1.272975 4.8 0 
C 4.8 -1.272975 4.294242 -2.493983 3.394113 -3.394113 
C 2.493983 -4.294242 1.272975 -4.8 0 -4.8 
C -1.272975 -4.8 -2.493983 -4.294242 -3.394113 -3.394113 
C -4.294242 -2.493983 -4.8 -1.272975 -4.8 0 
C -4.8 1.272975 -4.294242 2.493983 -3.394113 3.394113 
C -2.493983 4.294242 -1.272975 4.8 0 4.8 
z
" id="me6c41f2ce8"/>
     </defs>
     <g>
      <use x="246.281604" xlink:href="#me6c41f2ce8" y="23.352771"/>
     </g>
    </g>
    <g id="text_14">
     <!-- Groundtruth -->
     <g transform="translate(267.881604 27.552771)scale(0.12 -0.12)">
      <defs>
       <path d="M 59.515625 10.40625 
L 59.515625 29.984375 
L 43.40625 29.984375 
L 43.40625 38.09375 
L 69.28125 38.09375 
L 69.28125 6.78125 
Q 63.578125 2.734375 56.6875 0.65625 
Q 49.8125 -1.421875 42 -1.421875 
Q 24.90625 -1.421875 15.25 8.5625 
Q 5.609375 18.5625 5.609375 36.375 
Q 5.609375 54.25 15.25 64.234375 
Q 24.90625 74.21875 42 74.21875 
Q 49.125 74.21875 55.546875 72.453125 
Q 61.96875 70.703125 67.390625 67.28125 
L 67.390625 56.78125 
Q 61.921875 61.421875 55.765625 63.765625 
Q 49.609375 66.109375 42.828125 66.109375 
Q 29.4375 66.109375 22.71875 58.640625 
Q 16.015625 51.171875 16.015625 36.375 
Q 16.015625 21.625 22.71875 14.15625 
Q 29.4375 6.6875 42.828125 6.6875 
Q 48.046875 6.6875 52.140625 7.59375 
Q 56.25 8.5 59.515625 10.40625 
z
" id="DejaVuSans-71"/>
       <path d="M 41.109375 46.296875 
Q 39.59375 47.171875 37.8125 47.578125 
Q 36.03125 48 33.890625 48 
Q 26.265625 48 22.1875 43.046875 
Q 18.109375 38.09375 18.109375 28.8125 
L 18.109375 0 
L 9.078125 0 
L 9.078125 54.6875 
L 18.109375 54.6875 
L 18.109375 46.1875 
Q 20.953125 51.171875 25.484375 53.578125 
Q 30.03125 56 36.53125 56 
Q 37.453125 56 38.578125 55.875 
Q 39.703125 55.765625 41.0625 55.515625 
z
" id="DejaVuSans-114"/>
       <path d="M 8.5 21.578125 
L 8.5 54.6875 
L 17.484375 54.6875 
L 17.484375 21.921875 
Q 17.484375 14.15625 20.5 10.265625 
Q 23.53125 6.390625 29.59375 6.390625 
Q 36.859375 6.390625 41.078125 11.03125 
Q 45.3125 15.671875 45.3125 23.6875 
L 45.3125 54.6875 
L 54.296875 54.6875 
L 54.296875 0 
L 45.3125 0 
L 45.3125 8.40625 
Q 42.046875 3.421875 37.71875 1 
Q 33.40625 -1.421875 27.6875 -1.421875 
Q 18.265625 -1.421875 13.375 4.4375 
Q 8.5 10.296875 8.5 21.578125 
z
M 31.109375 56 
z
" id="DejaVuSans-117"/>
       <path d="M 54.890625 33.015625 
L 54.890625 0 
L 45.90625 0 
L 45.90625 32.71875 
Q 45.90625 40.484375 42.875 44.328125 
Q 39.84375 48.1875 33.796875 48.1875 
Q 26.515625 48.1875 22.3125 43.546875 
Q 18.109375 38.921875 18.109375 30.90625 
L 18.109375 0 
L 9.078125 0 
L 9.078125 75.984375 
L 18.109375 75.984375 
L 18.109375 46.1875 
Q 21.34375 51.125 25.703125 53.5625 
Q 30.078125 56 35.796875 56 
Q 45.21875 56 50.046875 50.171875 
Q 54.890625 44.34375 54.890625 33.015625 
z
" id="DejaVuSans-104"/>
      </defs>
      <use xlink:href="#DejaVuSans-71"/>
      <use x="77.490234" xlink:href="#DejaVuSans-114"/>
      <use x="116.353516" xlink:href="#DejaVuSans-111"/>
      <use x="177.535156" xlink:href="#DejaVuSans-117"/>
      <use x="240.914062" xlink:href="#DejaVuSans-110"/>
      <use x="304.292969" xlink:href="#DejaVuSans-100"/>
      <use x="367.769531" xlink:href="#DejaVuSans-116"/>
      <use x="406.978516" xlink:href="#DejaVuSans-114"/>
      <use x="448.091797" xlink:href="#DejaVuSans-117"/>
      <use x="511.470703" xlink:href="#DejaVuSans-116"/>
      <use x="550.679688" xlink:href="#DejaVuSans-104"/>
     </g>
    </g>
    <g id="line2d_27">
     <path d="M 234.281604 40.966521 
L 258.281604 40.966521 
" style="fill:none;stroke:#000000;stroke-dasharray:5.55,2.4;stroke-dashoffset:0;stroke-linejoin:miter;stroke-width:1.5;"/>
    </g>
    <g id="line2d_28"/>
    <g id="text_15">
     <!-- Initial -->
     <g transform="translate(267.881604 45.166521)scale(0.12 -0.12)">
      <defs>
       <path d="M 34.28125 27.484375 
Q 23.390625 27.484375 19.1875 25 
Q 14.984375 22.515625 14.984375 16.5 
Q 14.984375 11.71875 18.140625 8.90625 
Q 21.296875 6.109375 26.703125 6.109375 
Q 34.1875 6.109375 38.703125 11.40625 
Q 43.21875 16.703125 43.21875 25.484375 
L 43.21875 27.484375 
z
M 52.203125 31.203125 
L 52.203125 0 
L 43.21875 0 
L 43.21875 8.296875 
Q 40.140625 3.328125 35.546875 0.953125 
Q 30.953125 -1.421875 24.3125 -1.421875 
Q 15.921875 -1.421875 10.953125 3.296875 
Q 6 8.015625 6 15.921875 
Q 6 25.140625 12.171875 29.828125 
Q 18.359375 34.515625 30.609375 34.515625 
L 43.21875 34.515625 
L 43.21875 35.40625 
Q 43.21875 41.609375 39.140625 45 
Q 35.0625 48.390625 27.6875 48.390625 
Q 23 48.390625 18.546875 47.265625 
Q 14.109375 46.140625 10.015625 43.890625 
L 10.015625 52.203125 
Q 14.9375 54.109375 19.578125 55.046875 
Q 24.21875 56 28.609375 56 
Q 40.484375 56 46.34375 49.84375 
Q 52.203125 43.703125 52.203125 31.203125 
z
" id="DejaVuSans-97"/>
      </defs>
      <use xlink:href="#DejaVuSans-73"/>
      <use x="29.492188" xlink:href="#DejaVuSans-110"/>
      <use x="92.871094" xlink:href="#DejaVuSans-105"/>
      <use x="120.654297" xlink:href="#DejaVuSans-116"/>
      <use x="159.863281" xlink:href="#DejaVuSans-105"/>
      <use x="187.646484" xlink:href="#DejaVuSans-97"/>
      <use x="248.925781" xlink:href="#DejaVuSans-108"/>
     </g>
    </g>
   </g>
  </g>
 </g>
 <defs>
  <clipPath id="p1dfc8c3e06">
   <rect height="175.470709" width="312.685113" x="44.480241" y="2.834646"/>
  </clipPath>
 </defs>
</svg>
