<?xml version="1.0" encoding="utf-8" standalone="no"?>
<!DOCTYPE svg PUBLIC "-//W3C//DTD SVG 1.1//EN"
  "http://www.w3.org/Graphics/SVG/1.1/DTD/svg11.dtd">
<!-- Created with matplotlib (https://matplotlib.org/) -->
<svg height="288pt" version="1.1" viewBox="0 0 648 288" width="648pt" xmlns="http://www.w3.org/2000/svg" xmlns:xlink="http://www.w3.org/1999/xlink">
 <metadata>
  <rdf:RDF xmlns:cc="http://creativecommons.org/ns#" xmlns:dc="http://purl.org/dc/elements/1.1/" xmlns:rdf="http://www.w3.org/1999/02/22-rdf-syntax-ns#">
   <cc:Work>
    <dc:type rdf:resource="http://purl.org/dc/dcmitype/StillImage"/>
    <dc:date>2021-04-26T15:09:00.849709</dc:date>
    <dc:format>image/svg+xml</dc:format>
    <dc:creator>
     <cc:Agent>
      <dc:title>Matplotlib v3.3.2, https://matplotlib.org/</dc:title>
     </cc:Agent>
    </dc:creator>
   </cc:Work>
  </rdf:RDF>
 </metadata>
 <defs>
  <style type="text/css">*{stroke-linecap:butt;stroke-linejoin:round;}</style>
 </defs>
 <g id="figure_1">
  <g id="patch_1">
   <path d="M 0 288 
L 648 288 
L 648 0 
L 0 0 
z
" style="fill:#ffffff;"/>
  </g>
  <g id="axes_1">
   <g id="patch_2">
    <path d="M 75.363068 81.545354 
L 645.165354 81.545354 
L 645.165354 2.834646 
L 75.363068 2.834646 
z
" style="fill:#ffffff;"/>
   </g>
   <g id="matplotlib.axis_1">
    <g id="xtick_1"/>
    <g id="xtick_2"/>
    <g id="xtick_3"/>
    <g id="xtick_4"/>
    <g id="xtick_5"/>
    <g id="xtick_6"/>
   </g>
   <g id="matplotlib.axis_2">
    <g id="ytick_1">
     <g id="line2d_1">
      <path clip-path="url(#p6707113367)" d="M 75.363068 72.362657 
L 645.165354 72.362657 
" style="fill:none;stroke:#000000;stroke-linecap:square;stroke-opacity:0.1;stroke-width:0.5;"/>
     </g>
     <g id="line2d_2">
      <defs>
       <path d="M 0 0 
L 2.5 0 
" id="mff1ef08247" style="stroke:#000000;stroke-width:0.5;"/>
      </defs>
      <g>
       <use style="stroke:#000000;stroke-width:0.5;" x="75.363068" xlink:href="#mff1ef08247" y="72.362657"/>
      </g>
     </g>
     <g id="line2d_3">
      <defs>
       <path d="M 0 0 
L -2.5 0 
" id="mc7619517e2" style="stroke:#000000;stroke-width:0.5;"/>
      </defs>
      <g>
       <use style="stroke:#000000;stroke-width:0.5;" x="645.165354" xlink:href="#mc7619517e2" y="72.362657"/>
      </g>
     </g>
     <g id="text_1">
      <!-- $\mathregular{0}$ -->
      <g transform="translate(64.183068 76.92172)scale(0.12 -0.12)">
       <defs>
        <path d="M 31.78125 66.40625 
Q 24.171875 66.40625 20.328125 58.90625 
Q 16.5 51.421875 16.5 36.375 
Q 16.5 21.390625 20.328125 13.890625 
Q 24.171875 6.390625 31.78125 6.390625 
Q 39.453125 6.390625 43.28125 13.890625 
Q 47.125 21.390625 47.125 36.375 
Q 47.125 51.421875 43.28125 58.90625 
Q 39.453125 66.40625 31.78125 66.40625 
z
M 31.78125 74.21875 
Q 44.046875 74.21875 50.515625 64.515625 
Q 56.984375 54.828125 56.984375 36.375 
Q 56.984375 17.96875 50.515625 8.265625 
Q 44.046875 -1.421875 31.78125 -1.421875 
Q 19.53125 -1.421875 13.0625 8.265625 
Q 6.59375 17.96875 6.59375 36.375 
Q 6.59375 54.828125 13.0625 64.515625 
Q 19.53125 74.21875 31.78125 74.21875 
z
" id="DejaVuSans-48"/>
       </defs>
       <use transform="translate(0 0.78125)" xlink:href="#DejaVuSans-48"/>
      </g>
     </g>
    </g>
    <g id="ytick_2">
     <g id="line2d_4">
      <path clip-path="url(#p6707113367)" d="M 75.363068 55.405996 
L 645.165354 55.405996 
" style="fill:none;stroke:#000000;stroke-linecap:square;stroke-opacity:0.1;stroke-width:0.5;"/>
     </g>
     <g id="line2d_5">
      <g>
       <use style="stroke:#000000;stroke-width:0.5;" x="75.363068" xlink:href="#mff1ef08247" y="55.405996"/>
      </g>
     </g>
     <g id="line2d_6">
      <g>
       <use style="stroke:#000000;stroke-width:0.5;" x="645.165354" xlink:href="#mc7619517e2" y="55.405996"/>
      </g>
     </g>
     <g id="text_2">
      <!-- $\mathregular{2×10^{-6}}$ -->
      <g transform="translate(26.023068 59.965059)scale(0.12 -0.12)">
       <defs>
        <path d="M 19.1875 8.296875 
L 53.609375 8.296875 
L 53.609375 0 
L 7.328125 0 
L 7.328125 8.296875 
Q 12.9375 14.109375 22.625 23.890625 
Q 32.328125 33.6875 34.8125 36.53125 
Q 39.546875 41.84375 41.421875 45.53125 
Q 43.3125 49.21875 43.3125 52.78125 
Q 43.3125 58.59375 39.234375 62.25 
Q 35.15625 65.921875 28.609375 65.921875 
Q 23.96875 65.921875 18.8125 64.3125 
Q 13.671875 62.703125 7.8125 59.421875 
L 7.8125 69.390625 
Q 13.765625 71.78125 18.9375 73 
Q 24.125 74.21875 28.421875 74.21875 
Q 39.75 74.21875 46.484375 68.546875 
Q 53.21875 62.890625 53.21875 53.421875 
Q 53.21875 48.921875 51.53125 44.890625 
Q 49.859375 40.875 45.40625 35.40625 
Q 44.1875 33.984375 37.640625 27.21875 
Q 31.109375 20.453125 19.1875 8.296875 
z
" id="DejaVuSans-50"/>
        <path d="M 70.125 53.71875 
L 47.796875 31.296875 
L 70.125 8.984375 
L 64.3125 3.078125 
L 41.890625 25.484375 
L 19.484375 3.078125 
L 13.71875 8.984375 
L 35.984375 31.296875 
L 13.71875 53.71875 
L 19.484375 59.625 
L 41.890625 37.203125 
L 64.3125 59.625 
z
" id="DejaVuSans-215"/>
        <path d="M 12.40625 8.296875 
L 28.515625 8.296875 
L 28.515625 63.921875 
L 10.984375 60.40625 
L 10.984375 69.390625 
L 28.421875 72.90625 
L 38.28125 72.90625 
L 38.28125 8.296875 
L 54.390625 8.296875 
L 54.390625 0 
L 12.40625 0 
z
" id="DejaVuSans-49"/>
        <path d="M 10.59375 35.5 
L 73.1875 35.5 
L 73.1875 27.203125 
L 10.59375 27.203125 
z
" id="DejaVuSans-8722"/>
        <path d="M 33.015625 40.375 
Q 26.375 40.375 22.484375 35.828125 
Q 18.609375 31.296875 18.609375 23.390625 
Q 18.609375 15.53125 22.484375 10.953125 
Q 26.375 6.390625 33.015625 6.390625 
Q 39.65625 6.390625 43.53125 10.953125 
Q 47.40625 15.53125 47.40625 23.390625 
Q 47.40625 31.296875 43.53125 35.828125 
Q 39.65625 40.375 33.015625 40.375 
z
M 52.59375 71.296875 
L 52.59375 62.3125 
Q 48.875 64.0625 45.09375 64.984375 
Q 41.3125 65.921875 37.59375 65.921875 
Q 27.828125 65.921875 22.671875 59.328125 
Q 17.53125 52.734375 16.796875 39.40625 
Q 19.671875 43.65625 24.015625 45.921875 
Q 28.375 48.1875 33.59375 48.1875 
Q 44.578125 48.1875 50.953125 41.515625 
Q 57.328125 34.859375 57.328125 23.390625 
Q 57.328125 12.15625 50.6875 5.359375 
Q 44.046875 -1.421875 33.015625 -1.421875 
Q 20.359375 -1.421875 13.671875 8.265625 
Q 6.984375 17.96875 6.984375 36.375 
Q 6.984375 53.65625 15.1875 63.9375 
Q 23.390625 74.21875 37.203125 74.21875 
Q 40.921875 74.21875 44.703125 73.484375 
Q 48.484375 72.75 52.59375 71.296875 
z
" id="DejaVuSans-54"/>
       </defs>
       <use transform="translate(0 0.765625)" xlink:href="#DejaVuSans-50"/>
       <use transform="translate(63.623047 0.765625)" xlink:href="#DejaVuSans-215"/>
       <use transform="translate(147.412109 0.765625)" xlink:href="#DejaVuSans-49"/>
       <use transform="translate(211.035156 0.765625)" xlink:href="#DejaVuSans-48"/>
       <use transform="translate(275.615234 39.046875)scale(0.7)" xlink:href="#DejaVuSans-8722"/>
       <use transform="translate(334.267578 39.046875)scale(0.7)" xlink:href="#DejaVuSans-54"/>
      </g>
     </g>
    </g>
    <g id="ytick_3">
     <g id="line2d_7">
      <path clip-path="url(#p6707113367)" d="M 75.363068 38.449335 
L 645.165354 38.449335 
" style="fill:none;stroke:#000000;stroke-linecap:square;stroke-opacity:0.1;stroke-width:0.5;"/>
     </g>
     <g id="line2d_8">
      <g>
       <use style="stroke:#000000;stroke-width:0.5;" x="75.363068" xlink:href="#mff1ef08247" y="38.449335"/>
      </g>
     </g>
     <g id="line2d_9">
      <g>
       <use style="stroke:#000000;stroke-width:0.5;" x="645.165354" xlink:href="#mc7619517e2" y="38.449335"/>
      </g>
     </g>
     <g id="text_3">
      <!-- $\mathregular{4×10^{-6}}$ -->
      <g transform="translate(26.023068 43.008398)scale(0.12 -0.12)">
       <defs>
        <path d="M 37.796875 64.3125 
L 12.890625 25.390625 
L 37.796875 25.390625 
z
M 35.203125 72.90625 
L 47.609375 72.90625 
L 47.609375 25.390625 
L 58.015625 25.390625 
L 58.015625 17.1875 
L 47.609375 17.1875 
L 47.609375 0 
L 37.796875 0 
L 37.796875 17.1875 
L 4.890625 17.1875 
L 4.890625 26.703125 
z
" id="DejaVuSans-52"/>
       </defs>
       <use transform="translate(0 0.765625)" xlink:href="#DejaVuSans-52"/>
       <use transform="translate(63.623047 0.765625)" xlink:href="#DejaVuSans-215"/>
       <use transform="translate(147.412109 0.765625)" xlink:href="#DejaVuSans-49"/>
       <use transform="translate(211.035156 0.765625)" xlink:href="#DejaVuSans-48"/>
       <use transform="translate(275.615234 39.046875)scale(0.7)" xlink:href="#DejaVuSans-8722"/>
       <use transform="translate(334.267578 39.046875)scale(0.7)" xlink:href="#DejaVuSans-54"/>
      </g>
     </g>
    </g>
    <g id="ytick_4">
     <g id="line2d_10">
      <path clip-path="url(#p6707113367)" d="M 75.363068 21.492675 
L 645.165354 21.492675 
" style="fill:none;stroke:#000000;stroke-linecap:square;stroke-opacity:0.1;stroke-width:0.5;"/>
     </g>
     <g id="line2d_11">
      <g>
       <use style="stroke:#000000;stroke-width:0.5;" x="75.363068" xlink:href="#mff1ef08247" y="21.492675"/>
      </g>
     </g>
     <g id="line2d_12">
      <g>
       <use style="stroke:#000000;stroke-width:0.5;" x="645.165354" xlink:href="#mc7619517e2" y="21.492675"/>
      </g>
     </g>
     <g id="text_4">
      <!-- $\mathregular{6×10^{-6}}$ -->
      <g transform="translate(26.023068 26.051737)scale(0.12 -0.12)">
       <use transform="translate(0 0.765625)" xlink:href="#DejaVuSans-54"/>
       <use transform="translate(63.623047 0.765625)" xlink:href="#DejaVuSans-215"/>
       <use transform="translate(147.412109 0.765625)" xlink:href="#DejaVuSans-49"/>
       <use transform="translate(211.035156 0.765625)" xlink:href="#DejaVuSans-48"/>
       <use transform="translate(275.615234 39.046875)scale(0.7)" xlink:href="#DejaVuSans-8722"/>
       <use transform="translate(334.267578 39.046875)scale(0.7)" xlink:href="#DejaVuSans-54"/>
      </g>
     </g>
    </g>
    <g id="ytick_5">
     <g id="line2d_13">
      <path clip-path="url(#p6707113367)" d="M 75.363068 4.536014 
L 645.165354 4.536014 
" style="fill:none;stroke:#000000;stroke-linecap:square;stroke-opacity:0.1;stroke-width:0.5;"/>
     </g>
     <g id="line2d_14">
      <g>
       <use style="stroke:#000000;stroke-width:0.5;" x="75.363068" xlink:href="#mff1ef08247" y="4.536014"/>
      </g>
     </g>
     <g id="line2d_15">
      <g>
       <use style="stroke:#000000;stroke-width:0.5;" x="645.165354" xlink:href="#mc7619517e2" y="4.536014"/>
      </g>
     </g>
     <g id="text_5">
      <!-- $\mathregular{8×10^{-6}}$ -->
      <g transform="translate(26.023068 9.095076)scale(0.12 -0.12)">
       <defs>
        <path d="M 31.78125 34.625 
Q 24.75 34.625 20.71875 30.859375 
Q 16.703125 27.09375 16.703125 20.515625 
Q 16.703125 13.921875 20.71875 10.15625 
Q 24.75 6.390625 31.78125 6.390625 
Q 38.8125 6.390625 42.859375 10.171875 
Q 46.921875 13.96875 46.921875 20.515625 
Q 46.921875 27.09375 42.890625 30.859375 
Q 38.875 34.625 31.78125 34.625 
z
M 21.921875 38.8125 
Q 15.578125 40.375 12.03125 44.71875 
Q 8.5 49.078125 8.5 55.328125 
Q 8.5 64.0625 14.71875 69.140625 
Q 20.953125 74.21875 31.78125 74.21875 
Q 42.671875 74.21875 48.875 69.140625 
Q 55.078125 64.0625 55.078125 55.328125 
Q 55.078125 49.078125 51.53125 44.71875 
Q 48 40.375 41.703125 38.8125 
Q 48.828125 37.15625 52.796875 32.3125 
Q 56.78125 27.484375 56.78125 20.515625 
Q 56.78125 9.90625 50.3125 4.234375 
Q 43.84375 -1.421875 31.78125 -1.421875 
Q 19.734375 -1.421875 13.25 4.234375 
Q 6.78125 9.90625 6.78125 20.515625 
Q 6.78125 27.484375 10.78125 32.3125 
Q 14.796875 37.15625 21.921875 38.8125 
z
M 18.3125 54.390625 
Q 18.3125 48.734375 21.84375 45.5625 
Q 25.390625 42.390625 31.78125 42.390625 
Q 38.140625 42.390625 41.71875 45.5625 
Q 45.3125 48.734375 45.3125 54.390625 
Q 45.3125 60.0625 41.71875 63.234375 
Q 38.140625 66.40625 31.78125 66.40625 
Q 25.390625 66.40625 21.84375 63.234375 
Q 18.3125 60.0625 18.3125 54.390625 
z
" id="DejaVuSans-56"/>
       </defs>
       <use transform="translate(0 0.765625)" xlink:href="#DejaVuSans-56"/>
       <use transform="translate(63.623047 0.765625)" xlink:href="#DejaVuSans-215"/>
       <use transform="translate(147.412109 0.765625)" xlink:href="#DejaVuSans-49"/>
       <use transform="translate(211.035156 0.765625)" xlink:href="#DejaVuSans-48"/>
       <use transform="translate(275.615234 39.046875)scale(0.7)" xlink:href="#DejaVuSans-8722"/>
       <use transform="translate(334.267578 39.046875)scale(0.7)" xlink:href="#DejaVuSans-54"/>
      </g>
     </g>
    </g>
    <g id="text_6">
     <!-- $Y_{CH_4}$ -->
     <g transform="translate(17.543068 58.11)rotate(-90)scale(0.16 -0.16)">
      <defs>
       <path d="M 6.296875 72.90625 
L 16.890625 72.90625 
L 30.515625 42.921875 
L 56.5 72.90625 
L 67.578125 72.90625 
L 34.515625 34.71875 
L 27.78125 0 
L 17.921875 0 
L 24.609375 34.71875 
z
" id="DejaVuSans-Oblique-89"/>
       <path d="M 69.484375 67.28125 
L 67.484375 56.890625 
Q 62.796875 61.625 57.546875 63.921875 
Q 52.296875 66.21875 46.1875 66.21875 
Q 37.84375 66.21875 31.515625 62.203125 
Q 25.203125 58.203125 20.609375 50 
Q 17.671875 44.734375 16.125 38.84375 
Q 14.59375 32.953125 14.59375 27 
Q 14.59375 17.046875 19.75 11.8125 
Q 24.90625 6.59375 34.71875 6.59375 
Q 41.5 6.59375 47.75 8.765625 
Q 54 10.9375 59.90625 15.28125 
L 57.625 3.609375 
Q 51.8125 1.125 45.875 -0.140625 
Q 39.9375 -1.421875 33.984375 -1.421875 
Q 19.96875 -1.421875 12.078125 6.1875 
Q 4.203125 13.8125 4.203125 27.390625 
Q 4.203125 36.078125 7.203125 44.46875 
Q 10.203125 52.875 15.828125 59.8125 
Q 21.78125 67.1875 29.421875 70.703125 
Q 37.0625 74.21875 47.21875 74.21875 
Q 53.46875 74.21875 59.0625 72.484375 
Q 64.65625 70.75 69.484375 67.28125 
z
" id="DejaVuSans-Oblique-67"/>
       <path d="M 16.890625 72.90625 
L 26.8125 72.90625 
L 21 43.015625 
L 56.78125 43.015625 
L 62.59375 72.90625 
L 72.515625 72.90625 
L 58.296875 0 
L 48.390625 0 
L 55.171875 34.71875 
L 19.390625 34.71875 
L 12.59375 0 
L 2.6875 0 
z
" id="DejaVuSans-Oblique-72"/>
      </defs>
      <use transform="translate(0 0.09375)" xlink:href="#DejaVuSans-Oblique-89"/>
      <use transform="translate(61.083984 -16.3125)scale(0.7)" xlink:href="#DejaVuSans-Oblique-67"/>
      <use transform="translate(109.960938 -16.3125)scale(0.7)" xlink:href="#DejaVuSans-Oblique-72"/>
      <use transform="translate(162.597656 -27.796875)scale(0.49)" xlink:href="#DejaVuSans-52"/>
     </g>
    </g>
   </g>
   <g id="PathCollection_1">
    <defs>
     <path d="M 0 2 
C 0.530406 2 1.03916 1.789267 1.414214 1.414214 
C 1.789267 1.03916 2 0.530406 2 0 
C 2 -0.530406 1.789267 -1.03916 1.414214 -1.414214 
C 1.03916 -1.789267 0.530406 -2 0 -2 
C -0.530406 -2 -1.03916 -1.789267 -1.414214 -1.414214 
C -1.789267 -1.03916 -2 -0.530406 -2 0 
C -2 0.530406 -1.789267 1.03916 -1.414214 1.414214 
C -1.03916 1.789267 -0.530406 2 0 2 
z
" id="ma1928ff692"/>
    </defs>
    <g clip-path="url(#p6707113367)">
     <use x="91.489548" xlink:href="#ma1928ff692" y="72.581052"/>
     <use x="102.459942" xlink:href="#ma1928ff692" y="53.537522"/>
     <use x="113.430337" xlink:href="#ma1928ff692" y="54.155283"/>
     <use x="124.400731" xlink:href="#ma1928ff692" y="54.618356"/>
     <use x="135.371126" xlink:href="#ma1928ff692" y="52.936537"/>
     <use x="146.34152" xlink:href="#ma1928ff692" y="52.179576"/>
     <use x="157.311914" xlink:href="#ma1928ff692" y="52.161288"/>
     <use x="168.282309" xlink:href="#ma1928ff692" y="54.554546"/>
     <use x="179.252703" xlink:href="#ma1928ff692" y="52.647666"/>
     <use x="190.223098" xlink:href="#ma1928ff692" y="55.36947"/>
     <use x="201.193492" xlink:href="#ma1928ff692" y="53.565089"/>
     <use x="212.163887" xlink:href="#ma1928ff692" y="55.356149"/>
     <use x="223.134281" xlink:href="#ma1928ff692" y="54.021501"/>
     <use x="234.104675" xlink:href="#ma1928ff692" y="56.565864"/>
     <use x="245.07507" xlink:href="#ma1928ff692" y="56.100257"/>
     <use x="256.045464" xlink:href="#ma1928ff692" y="56.239625"/>
     <use x="267.015859" xlink:href="#ma1928ff692" y="57.814671"/>
     <use x="277.986253" xlink:href="#ma1928ff692" y="57.530246"/>
     <use x="288.956647" xlink:href="#ma1928ff692" y="59.381183"/>
     <use x="299.927042" xlink:href="#ma1928ff692" y="60.115776"/>
     <use x="310.897436" xlink:href="#ma1928ff692" y="60.474812"/>
     <use x="321.867831" xlink:href="#ma1928ff692" y="60.147654"/>
     <use x="332.838225" xlink:href="#ma1928ff692" y="63.006881"/>
     <use x="343.80862" xlink:href="#ma1928ff692" y="61.7384"/>
     <use x="354.779014" xlink:href="#ma1928ff692" y="63.402914"/>
     <use x="365.749408" xlink:href="#ma1928ff692" y="65.099181"/>
     <use x="376.719803" xlink:href="#ma1928ff692" y="66.375208"/>
     <use x="387.690197" xlink:href="#ma1928ff692" y="66.476251"/>
     <use x="398.660592" xlink:href="#ma1928ff692" y="64.143017"/>
     <use x="409.630986" xlink:href="#ma1928ff692" y="66.039492"/>
     <use x="420.601381" xlink:href="#ma1928ff692" y="63.705374"/>
     <use x="431.571775" xlink:href="#ma1928ff692" y="63.369354"/>
     <use x="442.542169" xlink:href="#ma1928ff692" y="66.587772"/>
     <use x="453.512564" xlink:href="#ma1928ff692" y="65.454325"/>
     <use x="464.482958" xlink:href="#ma1928ff692" y="64.805641"/>
     <use x="475.453353" xlink:href="#ma1928ff692" y="63.850013"/>
     <use x="486.423747" xlink:href="#ma1928ff692" y="61.844338"/>
     <use x="497.394141" xlink:href="#ma1928ff692" y="63.512375"/>
     <use x="508.364536" xlink:href="#ma1928ff692" y="64.712124"/>
     <use x="519.33493" xlink:href="#ma1928ff692" y="61.559981"/>
     <use x="530.305325" xlink:href="#ma1928ff692" y="61.160204"/>
     <use x="541.275719" xlink:href="#ma1928ff692" y="61.991558"/>
     <use x="552.246114" xlink:href="#ma1928ff692" y="59.162052"/>
     <use x="563.216508" xlink:href="#ma1928ff692" y="57.037363"/>
     <use x="574.186902" xlink:href="#ma1928ff692" y="57.466446"/>
     <use x="585.157297" xlink:href="#ma1928ff692" y="56.662377"/>
     <use x="596.127691" xlink:href="#ma1928ff692" y="55.587618"/>
     <use x="607.098086" xlink:href="#ma1928ff692" y="55.579914"/>
     <use x="618.06848" xlink:href="#ma1928ff692" y="56.61265"/>
     <use x="629.038875" xlink:href="#ma1928ff692" y="54.680666"/>
    </g>
   </g>
   <g id="line2d_16">
    <path clip-path="url(#p6707113367)" d="M 91.489548 72.362657 
L 102.459942 16.513957 
L 113.430337 13.804281 
L 124.400731 10.092695 
L 135.371126 6.630174 
L 146.34152 5.062307 
L 157.311914 6.784836 
L 168.282309 12.451291 
L 179.252703 21.928485 
L 190.223098 34.462775 
L 201.193492 48.595552 
L 212.163887 61.776007 
L 223.134281 70.282956 
L 234.104675 70.353214 
L 245.07507 60.577969 
L 256.045464 43.845503 
L 267.015859 26.386982 
L 277.986253 14.082413 
L 288.956647 9.520685 
L 299.927042 12.109626 
L 310.897436 19.817532 
L 321.867831 30.423065 
L 332.838225 41.838661 
L 343.80862 52.144091 
L 354.779014 59.892437 
L 365.749408 64.661378 
L 376.719803 67.297807 
L 387.690197 69.374696 
L 398.660592 72.135707 
L 409.630986 75.682836 
L 420.601381 78.797781 
L 431.571775 79.317693 
L 442.542169 75.004019 
L 453.512564 64.866804 
L 464.482958 50.442478 
L 475.453353 35.841142 
L 486.423747 25.791459 
L 497.394141 22.982385 
L 508.364536 27.107922 
L 519.33493 35.95191 
L 530.305325 46.735707 
L 541.275719 56.606373 
L 552.246114 62.706784 
L 563.216508 62.734194 
L 574.186902 56.138601 
L 585.157297 44.942075 
L 596.127691 32.989092 
L 607.098086 23.947381 
L 618.06848 19.701905 
L 629.038875 20.112513 
" style="fill:none;stroke:#ff0000;stroke-dasharray:3.7,1.6;stroke-dashoffset:0;"/>
   </g>
   <g id="patch_3">
    <path d="M 75.363068 81.545354 
L 75.363068 2.834646 
" style="fill:none;stroke:#000000;stroke-linecap:square;stroke-linejoin:miter;"/>
   </g>
   <g id="patch_4">
    <path d="M 645.165354 81.545354 
L 645.165354 2.834646 
" style="fill:none;stroke:#000000;stroke-linecap:square;stroke-linejoin:miter;"/>
   </g>
   <g id="patch_5">
    <path d="M 75.363068 81.545354 
L 645.165354 81.545354 
" style="fill:none;stroke:#000000;stroke-linecap:square;stroke-linejoin:miter;"/>
   </g>
   <g id="patch_6">
    <path d="M 75.363068 2.834646 
L 645.165354 2.834646 
" style="fill:none;stroke:#000000;stroke-linecap:square;stroke-linejoin:miter;"/>
   </g>
  </g>
  <g id="axes_2">
   <g id="patch_7">
    <path d="M 75.363068 165.925354 
L 645.165354 165.925354 
L 645.165354 87.214646 
L 75.363068 87.214646 
z
" style="fill:#ffffff;"/>
   </g>
   <g id="matplotlib.axis_3">
    <g id="xtick_7"/>
    <g id="xtick_8"/>
    <g id="xtick_9"/>
    <g id="xtick_10"/>
    <g id="xtick_11"/>
    <g id="xtick_12"/>
   </g>
   <g id="matplotlib.axis_4">
    <g id="ytick_6">
     <g id="line2d_17">
      <path clip-path="url(#p73a474c626)" d="M 75.363068 158.88758 
L 645.165354 158.88758 
" style="fill:none;stroke:#000000;stroke-linecap:square;stroke-opacity:0.1;stroke-width:0.5;"/>
     </g>
     <g id="line2d_18">
      <g>
       <use style="stroke:#000000;stroke-width:0.5;" x="75.363068" xlink:href="#mff1ef08247" y="158.88758"/>
      </g>
     </g>
     <g id="line2d_19">
      <g>
       <use style="stroke:#000000;stroke-width:0.5;" x="645.165354" xlink:href="#mc7619517e2" y="158.88758"/>
      </g>
     </g>
     <g id="text_7">
      <!-- $\mathregular{0.0024}$ -->
      <g transform="translate(29.863068 163.446643)scale(0.12 -0.12)">
       <defs>
        <path d="M 10.6875 12.40625 
L 21 12.40625 
L 21 0 
L 10.6875 0 
z
" id="DejaVuSans-46"/>
       </defs>
       <use transform="translate(0 0.78125)" xlink:href="#DejaVuSans-48"/>
       <use transform="translate(63.623047 0.78125)" xlink:href="#DejaVuSans-46"/>
       <use transform="translate(95.410156 0.78125)" xlink:href="#DejaVuSans-48"/>
       <use transform="translate(159.033203 0.78125)" xlink:href="#DejaVuSans-48"/>
       <use transform="translate(222.65625 0.78125)" xlink:href="#DejaVuSans-50"/>
       <use transform="translate(286.279297 0.78125)" xlink:href="#DejaVuSans-52"/>
      </g>
     </g>
    </g>
    <g id="ytick_7">
     <g id="line2d_20">
      <path clip-path="url(#p73a474c626)" d="M 75.363068 147.805428 
L 645.165354 147.805428 
" style="fill:none;stroke:#000000;stroke-linecap:square;stroke-opacity:0.1;stroke-width:0.5;"/>
     </g>
     <g id="line2d_21">
      <g>
       <use style="stroke:#000000;stroke-width:0.5;" x="75.363068" xlink:href="#mff1ef08247" y="147.805428"/>
      </g>
     </g>
     <g id="line2d_22">
      <g>
       <use style="stroke:#000000;stroke-width:0.5;" x="645.165354" xlink:href="#mc7619517e2" y="147.805428"/>
      </g>
     </g>
     <g id="text_8">
      <!-- $\mathregular{0.0025}$ -->
      <g transform="translate(29.863068 152.364491)scale(0.12 -0.12)">
       <defs>
        <path d="M 10.796875 72.90625 
L 49.515625 72.90625 
L 49.515625 64.59375 
L 19.828125 64.59375 
L 19.828125 46.734375 
Q 21.96875 47.46875 24.109375 47.828125 
Q 26.265625 48.1875 28.421875 48.1875 
Q 40.625 48.1875 47.75 41.5 
Q 54.890625 34.8125 54.890625 23.390625 
Q 54.890625 11.625 47.5625 5.09375 
Q 40.234375 -1.421875 26.90625 -1.421875 
Q 22.3125 -1.421875 17.546875 -0.640625 
Q 12.796875 0.140625 7.71875 1.703125 
L 7.71875 11.625 
Q 12.109375 9.234375 16.796875 8.0625 
Q 21.484375 6.890625 26.703125 6.890625 
Q 35.15625 6.890625 40.078125 11.328125 
Q 45.015625 15.765625 45.015625 23.390625 
Q 45.015625 31 40.078125 35.4375 
Q 35.15625 39.890625 26.703125 39.890625 
Q 22.75 39.890625 18.8125 39.015625 
Q 14.890625 38.140625 10.796875 36.28125 
z
" id="DejaVuSans-53"/>
       </defs>
       <use transform="translate(0 0.78125)" xlink:href="#DejaVuSans-48"/>
       <use transform="translate(63.623047 0.78125)" xlink:href="#DejaVuSans-46"/>
       <use transform="translate(95.410156 0.78125)" xlink:href="#DejaVuSans-48"/>
       <use transform="translate(159.033203 0.78125)" xlink:href="#DejaVuSans-48"/>
       <use transform="translate(222.65625 0.78125)" xlink:href="#DejaVuSans-50"/>
       <use transform="translate(286.279297 0.78125)" xlink:href="#DejaVuSans-53"/>
      </g>
     </g>
    </g>
    <g id="ytick_8">
     <g id="line2d_23">
      <path clip-path="url(#p73a474c626)" d="M 75.363068 136.723276 
L 645.165354 136.723276 
" style="fill:none;stroke:#000000;stroke-linecap:square;stroke-opacity:0.1;stroke-width:0.5;"/>
     </g>
     <g id="line2d_24">
      <g>
       <use style="stroke:#000000;stroke-width:0.5;" x="75.363068" xlink:href="#mff1ef08247" y="136.723276"/>
      </g>
     </g>
     <g id="line2d_25">
      <g>
       <use style="stroke:#000000;stroke-width:0.5;" x="645.165354" xlink:href="#mc7619517e2" y="136.723276"/>
      </g>
     </g>
     <g id="text_9">
      <!-- $\mathregular{0.0026}$ -->
      <g transform="translate(29.863068 141.282338)scale(0.12 -0.12)">
       <use transform="translate(0 0.78125)" xlink:href="#DejaVuSans-48"/>
       <use transform="translate(63.623047 0.78125)" xlink:href="#DejaVuSans-46"/>
       <use transform="translate(95.410156 0.78125)" xlink:href="#DejaVuSans-48"/>
       <use transform="translate(159.033203 0.78125)" xlink:href="#DejaVuSans-48"/>
       <use transform="translate(222.65625 0.78125)" xlink:href="#DejaVuSans-50"/>
       <use transform="translate(286.279297 0.78125)" xlink:href="#DejaVuSans-54"/>
      </g>
     </g>
    </g>
    <g id="ytick_9">
     <g id="line2d_26">
      <path clip-path="url(#p73a474c626)" d="M 75.363068 125.641123 
L 645.165354 125.641123 
" style="fill:none;stroke:#000000;stroke-linecap:square;stroke-opacity:0.1;stroke-width:0.5;"/>
     </g>
     <g id="line2d_27">
      <g>
       <use style="stroke:#000000;stroke-width:0.5;" x="75.363068" xlink:href="#mff1ef08247" y="125.641123"/>
      </g>
     </g>
     <g id="line2d_28">
      <g>
       <use style="stroke:#000000;stroke-width:0.5;" x="645.165354" xlink:href="#mc7619517e2" y="125.641123"/>
      </g>
     </g>
     <g id="text_10">
      <!-- $\mathregular{0.0027}$ -->
      <g transform="translate(29.863068 130.200186)scale(0.12 -0.12)">
       <defs>
        <path d="M 8.203125 72.90625 
L 55.078125 72.90625 
L 55.078125 68.703125 
L 28.609375 0 
L 18.3125 0 
L 43.21875 64.59375 
L 8.203125 64.59375 
z
" id="DejaVuSans-55"/>
       </defs>
       <use transform="translate(0 0.78125)" xlink:href="#DejaVuSans-48"/>
       <use transform="translate(63.623047 0.78125)" xlink:href="#DejaVuSans-46"/>
       <use transform="translate(95.410156 0.78125)" xlink:href="#DejaVuSans-48"/>
       <use transform="translate(159.033203 0.78125)" xlink:href="#DejaVuSans-48"/>
       <use transform="translate(222.65625 0.78125)" xlink:href="#DejaVuSans-50"/>
       <use transform="translate(286.279297 0.78125)" xlink:href="#DejaVuSans-55"/>
      </g>
     </g>
    </g>
    <g id="ytick_10">
     <g id="line2d_29">
      <path clip-path="url(#p73a474c626)" d="M 75.363068 114.558971 
L 645.165354 114.558971 
" style="fill:none;stroke:#000000;stroke-linecap:square;stroke-opacity:0.1;stroke-width:0.5;"/>
     </g>
     <g id="line2d_30">
      <g>
       <use style="stroke:#000000;stroke-width:0.5;" x="75.363068" xlink:href="#mff1ef08247" y="114.558971"/>
      </g>
     </g>
     <g id="line2d_31">
      <g>
       <use style="stroke:#000000;stroke-width:0.5;" x="645.165354" xlink:href="#mc7619517e2" y="114.558971"/>
      </g>
     </g>
     <g id="text_11">
      <!-- $\mathregular{0.0028}$ -->
      <g transform="translate(29.863068 119.118033)scale(0.12 -0.12)">
       <use transform="translate(0 0.78125)" xlink:href="#DejaVuSans-48"/>
       <use transform="translate(63.623047 0.78125)" xlink:href="#DejaVuSans-46"/>
       <use transform="translate(95.410156 0.78125)" xlink:href="#DejaVuSans-48"/>
       <use transform="translate(159.033203 0.78125)" xlink:href="#DejaVuSans-48"/>
       <use transform="translate(222.65625 0.78125)" xlink:href="#DejaVuSans-50"/>
       <use transform="translate(286.279297 0.78125)" xlink:href="#DejaVuSans-56"/>
      </g>
     </g>
    </g>
    <g id="ytick_11">
     <g id="line2d_32">
      <path clip-path="url(#p73a474c626)" d="M 75.363068 103.476819 
L 645.165354 103.476819 
" style="fill:none;stroke:#000000;stroke-linecap:square;stroke-opacity:0.1;stroke-width:0.5;"/>
     </g>
     <g id="line2d_33">
      <g>
       <use style="stroke:#000000;stroke-width:0.5;" x="75.363068" xlink:href="#mff1ef08247" y="103.476819"/>
      </g>
     </g>
     <g id="line2d_34">
      <g>
       <use style="stroke:#000000;stroke-width:0.5;" x="645.165354" xlink:href="#mc7619517e2" y="103.476819"/>
      </g>
     </g>
     <g id="text_12">
      <!-- $\mathregular{0.0029}$ -->
      <g transform="translate(29.983068 108.035881)scale(0.12 -0.12)">
       <defs>
        <path d="M 10.984375 1.515625 
L 10.984375 10.5 
Q 14.703125 8.734375 18.5 7.8125 
Q 22.3125 6.890625 25.984375 6.890625 
Q 35.75 6.890625 40.890625 13.453125 
Q 46.046875 20.015625 46.78125 33.40625 
Q 43.953125 29.203125 39.59375 26.953125 
Q 35.25 24.703125 29.984375 24.703125 
Q 19.046875 24.703125 12.671875 31.3125 
Q 6.296875 37.9375 6.296875 49.421875 
Q 6.296875 60.640625 12.9375 67.421875 
Q 19.578125 74.21875 30.609375 74.21875 
Q 43.265625 74.21875 49.921875 64.515625 
Q 56.59375 54.828125 56.59375 36.375 
Q 56.59375 19.140625 48.40625 8.859375 
Q 40.234375 -1.421875 26.421875 -1.421875 
Q 22.703125 -1.421875 18.890625 -0.6875 
Q 15.09375 0.046875 10.984375 1.515625 
z
M 30.609375 32.421875 
Q 37.25 32.421875 41.125 36.953125 
Q 45.015625 41.5 45.015625 49.421875 
Q 45.015625 57.28125 41.125 61.84375 
Q 37.25 66.40625 30.609375 66.40625 
Q 23.96875 66.40625 20.09375 61.84375 
Q 16.21875 57.28125 16.21875 49.421875 
Q 16.21875 41.5 20.09375 36.953125 
Q 23.96875 32.421875 30.609375 32.421875 
z
" id="DejaVuSans-57"/>
       </defs>
       <use transform="translate(0 0.78125)" xlink:href="#DejaVuSans-48"/>
       <use transform="translate(63.623047 0.78125)" xlink:href="#DejaVuSans-46"/>
       <use transform="translate(95.410156 0.78125)" xlink:href="#DejaVuSans-48"/>
       <use transform="translate(159.033203 0.78125)" xlink:href="#DejaVuSans-48"/>
       <use transform="translate(222.65625 0.78125)" xlink:href="#DejaVuSans-50"/>
       <use transform="translate(284.529297 0.78125)" xlink:href="#DejaVuSans-57"/>
      </g>
     </g>
    </g>
    <g id="ytick_12">
     <g id="line2d_35">
      <path clip-path="url(#p73a474c626)" d="M 75.363068 92.394666 
L 645.165354 92.394666 
" style="fill:none;stroke:#000000;stroke-linecap:square;stroke-opacity:0.1;stroke-width:0.5;"/>
     </g>
     <g id="line2d_36">
      <g>
       <use style="stroke:#000000;stroke-width:0.5;" x="75.363068" xlink:href="#mff1ef08247" y="92.394666"/>
      </g>
     </g>
     <g id="line2d_37">
      <g>
       <use style="stroke:#000000;stroke-width:0.5;" x="645.165354" xlink:href="#mc7619517e2" y="92.394666"/>
      </g>
     </g>
     <g id="text_13">
      <!-- $\mathregular{0.0030}$ -->
      <g transform="translate(29.863068 96.953729)scale(0.12 -0.12)">
       <defs>
        <path d="M 40.578125 39.3125 
Q 47.65625 37.796875 51.625 33 
Q 55.609375 28.21875 55.609375 21.1875 
Q 55.609375 10.40625 48.1875 4.484375 
Q 40.765625 -1.421875 27.09375 -1.421875 
Q 22.515625 -1.421875 17.65625 -0.515625 
Q 12.796875 0.390625 7.625 2.203125 
L 7.625 11.71875 
Q 11.71875 9.328125 16.59375 8.109375 
Q 21.484375 6.890625 26.8125 6.890625 
Q 36.078125 6.890625 40.9375 10.546875 
Q 45.796875 14.203125 45.796875 21.1875 
Q 45.796875 27.640625 41.28125 31.265625 
Q 36.765625 34.90625 28.71875 34.90625 
L 20.21875 34.90625 
L 20.21875 43.015625 
L 29.109375 43.015625 
Q 36.375 43.015625 40.234375 45.921875 
Q 44.09375 48.828125 44.09375 54.296875 
Q 44.09375 59.90625 40.109375 62.90625 
Q 36.140625 65.921875 28.71875 65.921875 
Q 24.65625 65.921875 20.015625 65.03125 
Q 15.375 64.15625 9.8125 62.3125 
L 9.8125 71.09375 
Q 15.4375 72.65625 20.34375 73.4375 
Q 25.25 74.21875 29.59375 74.21875 
Q 40.828125 74.21875 47.359375 69.109375 
Q 53.90625 64.015625 53.90625 55.328125 
Q 53.90625 49.265625 50.4375 45.09375 
Q 46.96875 40.921875 40.578125 39.3125 
z
" id="DejaVuSans-51"/>
       </defs>
       <use transform="translate(0 0.78125)" xlink:href="#DejaVuSans-48"/>
       <use transform="translate(63.623047 0.78125)" xlink:href="#DejaVuSans-46"/>
       <use transform="translate(95.410156 0.78125)" xlink:href="#DejaVuSans-48"/>
       <use transform="translate(159.033203 0.78125)" xlink:href="#DejaVuSans-48"/>
       <use transform="translate(222.65625 0.78125)" xlink:href="#DejaVuSans-51"/>
       <use transform="translate(286.279297 0.78125)" xlink:href="#DejaVuSans-48"/>
      </g>
     </g>
    </g>
    <g id="text_14">
     <!-- $Y_{CO}$ -->
     <g transform="translate(22.535568 140.01)rotate(-90)scale(0.16 -0.16)">
      <defs>
       <path d="M 45.609375 66.21875 
Q 37.5 66.21875 31.296875 62.28125 
Q 25.09375 58.34375 20.515625 50.296875 
Q 17.578125 45.171875 16.03125 39.40625 
Q 14.5 33.640625 14.5 27.78125 
Q 14.5 17.625 19.359375 12.109375 
Q 24.21875 6.59375 33.109375 6.59375 
Q 41.109375 6.59375 47.375 10.5625 
Q 53.65625 14.546875 58.109375 22.40625 
Q 61.078125 27.6875 62.640625 33.46875 
Q 64.203125 39.265625 64.203125 45.015625 
Q 64.203125 55.125 59.3125 60.671875 
Q 54.4375 66.21875 45.609375 66.21875 
z
M 32.8125 -1.421875 
Q 19.390625 -1.421875 11.6875 6.53125 
Q 4 14.5 4 28.328125 
Q 4 36.234375 7 44.484375 
Q 10.015625 52.734375 15.28125 59.1875 
Q 21.484375 66.75 29.09375 70.484375 
Q 36.71875 74.21875 45.90625 74.21875 
Q 59.28125 74.21875 66.984375 66.328125 
Q 74.703125 58.453125 74.703125 44.828125 
Q 74.703125 36.421875 71.765625 28.3125 
Q 68.84375 20.21875 63.375 13.625 
Q 57.125 6 49.578125 2.28125 
Q 42.046875 -1.421875 32.8125 -1.421875 
z
" id="DejaVuSans-Oblique-79"/>
      </defs>
      <use transform="translate(0 0.09375)" xlink:href="#DejaVuSans-Oblique-89"/>
      <use transform="translate(61.083984 -16.3125)scale(0.7)" xlink:href="#DejaVuSans-Oblique-67"/>
      <use transform="translate(109.960938 -16.3125)scale(0.7)" xlink:href="#DejaVuSans-Oblique-79"/>
     </g>
    </g>
   </g>
   <g id="PathCollection_2">
    <g clip-path="url(#p73a474c626)">
     <use x="91.489548" xlink:href="#ma1928ff692" y="89.442307"/>
     <use x="102.459942" xlink:href="#ma1928ff692" y="102.602171"/>
     <use x="113.430337" xlink:href="#ma1928ff692" y="109.134379"/>
     <use x="124.400731" xlink:href="#ma1928ff692" y="110.230848"/>
     <use x="135.371126" xlink:href="#ma1928ff692" y="112.674916"/>
     <use x="146.34152" xlink:href="#ma1928ff692" y="110.80072"/>
     <use x="157.311914" xlink:href="#ma1928ff692" y="109.559419"/>
     <use x="168.282309" xlink:href="#ma1928ff692" y="108.653939"/>
     <use x="179.252703" xlink:href="#ma1928ff692" y="112.651948"/>
     <use x="190.223098" xlink:href="#ma1928ff692" y="119.321484"/>
     <use x="201.193492" xlink:href="#ma1928ff692" y="121.24693"/>
     <use x="212.163887" xlink:href="#ma1928ff692" y="127.521755"/>
     <use x="223.134281" xlink:href="#ma1928ff692" y="129.449256"/>
     <use x="234.104675" xlink:href="#ma1928ff692" y="128.805825"/>
     <use x="245.07507" xlink:href="#ma1928ff692" y="127.666931"/>
     <use x="256.045464" xlink:href="#ma1928ff692" y="123.709584"/>
     <use x="267.015859" xlink:href="#ma1928ff692" y="117.979497"/>
     <use x="277.986253" xlink:href="#ma1928ff692" y="119.975315"/>
     <use x="288.956647" xlink:href="#ma1928ff692" y="121.982054"/>
     <use x="299.927042" xlink:href="#ma1928ff692" y="122.569205"/>
     <use x="310.897436" xlink:href="#ma1928ff692" y="129.242308"/>
     <use x="321.867831" xlink:href="#ma1928ff692" y="128.035543"/>
     <use x="332.838225" xlink:href="#ma1928ff692" y="125.737643"/>
     <use x="343.80862" xlink:href="#ma1928ff692" y="125.606976"/>
     <use x="354.779014" xlink:href="#ma1928ff692" y="122.532467"/>
     <use x="365.749408" xlink:href="#ma1928ff692" y="115.591663"/>
     <use x="376.719803" xlink:href="#ma1928ff692" y="111.176643"/>
     <use x="387.690197" xlink:href="#ma1928ff692" y="111.798232"/>
     <use x="398.660592" xlink:href="#ma1928ff692" y="110.718088"/>
     <use x="409.630986" xlink:href="#ma1928ff692" y="115.462047"/>
     <use x="420.601381" xlink:href="#ma1928ff692" y="117.939484"/>
     <use x="431.571775" xlink:href="#ma1928ff692" y="118.782163"/>
     <use x="442.542169" xlink:href="#ma1928ff692" y="119.94111"/>
     <use x="453.512564" xlink:href="#ma1928ff692" y="117.046139"/>
     <use x="464.482958" xlink:href="#ma1928ff692" y="112.476755"/>
     <use x="475.453353" xlink:href="#ma1928ff692" y="109.891533"/>
     <use x="486.423747" xlink:href="#ma1928ff692" y="106.391233"/>
     <use x="497.394141" xlink:href="#ma1928ff692" y="104.728704"/>
     <use x="508.364536" xlink:href="#ma1928ff692" y="107.31244"/>
     <use x="519.33493" xlink:href="#ma1928ff692" y="110.700442"/>
     <use x="530.305325" xlink:href="#ma1928ff692" y="118.175312"/>
     <use x="541.275719" xlink:href="#ma1928ff692" y="119.323011"/>
     <use x="552.246114" xlink:href="#ma1928ff692" y="120.400251"/>
     <use x="563.216508" xlink:href="#ma1928ff692" y="120.660454"/>
     <use x="574.186902" xlink:href="#ma1928ff692" y="115.595829"/>
     <use x="585.157297" xlink:href="#ma1928ff692" y="110.944067"/>
     <use x="596.127691" xlink:href="#ma1928ff692" y="114.699534"/>
     <use x="607.098086" xlink:href="#ma1928ff692" y="112.562443"/>
     <use x="618.06848" xlink:href="#ma1928ff692" y="117.001008"/>
     <use x="629.038875" xlink:href="#ma1928ff692" y="124.445109"/>
    </g>
   </g>
   <g id="line2d_38">
    <path clip-path="url(#p73a474c626)" d="M 91.489548 89.89297 
L 102.459942 104.781661 
L 113.430337 119.162666 
L 124.400731 129.892604 
L 135.371126 138.18848 
L 146.34152 144.832098 
L 157.311914 150.350177 
L 168.282309 155.027129 
L 179.252703 158.900999 
L 190.223098 161.764145 
L 201.193492 163.200148 
L 212.163887 162.733861 
L 223.134281 160.143831 
L 234.104675 155.873318 
L 245.07507 151.277812 
L 256.045464 148.234759 
L 267.015859 148.044827 
L 277.986253 150.61 
L 288.956647 154.725951 
L 299.927042 158.955131 
L 310.897436 162.180408 
L 321.867831 163.697693 
L 332.838225 163.170988 
L 343.80862 160.660689 
L 354.779014 156.701367 
L 365.749408 152.256409 
L 376.719803 148.405532 
L 387.690197 145.848563 
L 398.660592 144.566043 
L 409.630986 143.875057 
L 420.601381 142.787251 
L 431.571775 140.462699 
L 442.542169 136.656798 
L 453.512564 132.028373 
L 464.482958 128.007406 
L 475.453353 126.030497 
L 486.423747 126.608328 
L 497.394141 129.084091 
L 508.364536 132.270028 
L 519.33493 135.187146 
L 530.305325 137.282762 
L 541.275719 138.32227 
L 552.246114 138.371798 
L 563.216508 137.925346 
L 574.186902 137.882716 
L 585.157297 139.138282 
L 596.127691 142.01305 
L 607.098086 146.061374 
L 618.06848 150.357033 
L 629.038875 153.908704 
" style="fill:none;stroke:#ff0000;stroke-dasharray:3.7,1.6;stroke-dashoffset:0;"/>
   </g>
   <g id="patch_8">
    <path d="M 75.363068 165.925354 
L 75.363068 87.214646 
" style="fill:none;stroke:#000000;stroke-linecap:square;stroke-linejoin:miter;"/>
   </g>
   <g id="patch_9">
    <path d="M 645.165354 165.925354 
L 645.165354 87.214646 
" style="fill:none;stroke:#000000;stroke-linecap:square;stroke-linejoin:miter;"/>
   </g>
   <g id="patch_10">
    <path d="M 75.363068 165.925354 
L 645.165354 165.925354 
" style="fill:none;stroke:#000000;stroke-linecap:square;stroke-linejoin:miter;"/>
   </g>
   <g id="patch_11">
    <path d="M 75.363068 87.214646 
L 645.165354 87.214646 
" style="fill:none;stroke:#000000;stroke-linecap:square;stroke-linejoin:miter;"/>
   </g>
  </g>
  <g id="axes_3">
   <g id="patch_12">
    <path d="M 75.363068 250.305354 
L 645.165354 250.305354 
L 645.165354 171.594646 
L 75.363068 171.594646 
z
" style="fill:#ffffff;"/>
   </g>
   <g id="matplotlib.axis_5">
    <g id="xtick_13">
     <g id="line2d_39">
      <path clip-path="url(#p34ed1e57df)" d="M 91.489548 250.305354 
L 91.489548 171.594646 
" style="fill:none;stroke:#000000;stroke-linecap:square;stroke-opacity:0.1;stroke-width:0.5;"/>
     </g>
     <g id="line2d_40">
      <defs>
       <path d="M 0 0 
L 0 -2.5 
" id="m52945359de" style="stroke:#000000;stroke-width:0.5;"/>
      </defs>
      <g>
       <use style="stroke:#000000;stroke-width:0.5;" x="91.489548" xlink:href="#m52945359de" y="250.305354"/>
      </g>
     </g>
     <g id="line2d_41">
      <defs>
       <path d="M 0 0 
L 0 2.5 
" id="m57883afa2d" style="stroke:#000000;stroke-width:0.5;"/>
      </defs>
      <g>
       <use style="stroke:#000000;stroke-width:0.5;" x="91.489548" xlink:href="#m57883afa2d" y="171.594646"/>
      </g>
     </g>
     <g id="text_15">
      <!-- $\mathregular{0}$ -->
      <g transform="translate(87.649548 262.923479)scale(0.12 -0.12)">
       <use transform="translate(0 0.78125)" xlink:href="#DejaVuSans-48"/>
      </g>
     </g>
    </g>
    <g id="xtick_14">
     <g id="line2d_42">
      <path clip-path="url(#p34ed1e57df)" d="M 198.999413 250.305354 
L 198.999413 171.594646 
" style="fill:none;stroke:#000000;stroke-linecap:square;stroke-opacity:0.1;stroke-width:0.5;"/>
     </g>
     <g id="line2d_43">
      <g>
       <use style="stroke:#000000;stroke-width:0.5;" x="198.999413" xlink:href="#m52945359de" y="250.305354"/>
      </g>
     </g>
     <g id="line2d_44">
      <g>
       <use style="stroke:#000000;stroke-width:0.5;" x="198.999413" xlink:href="#m57883afa2d" y="171.594646"/>
      </g>
     </g>
     <g id="text_16">
      <!-- $\mathregular{1}$ -->
      <g transform="translate(195.159413 262.923479)scale(0.12 -0.12)">
       <use transform="translate(0 0.09375)" xlink:href="#DejaVuSans-49"/>
      </g>
     </g>
    </g>
    <g id="xtick_15">
     <g id="line2d_45">
      <path clip-path="url(#p34ed1e57df)" d="M 306.509279 250.305354 
L 306.509279 171.594646 
" style="fill:none;stroke:#000000;stroke-linecap:square;stroke-opacity:0.1;stroke-width:0.5;"/>
     </g>
     <g id="line2d_46">
      <g>
       <use style="stroke:#000000;stroke-width:0.5;" x="306.509279" xlink:href="#m52945359de" y="250.305354"/>
      </g>
     </g>
     <g id="line2d_47">
      <g>
       <use style="stroke:#000000;stroke-width:0.5;" x="306.509279" xlink:href="#m57883afa2d" y="171.594646"/>
      </g>
     </g>
     <g id="text_17">
      <!-- $\mathregular{2}$ -->
      <g transform="translate(302.669279 262.923479)scale(0.12 -0.12)">
       <use transform="translate(0 0.78125)" xlink:href="#DejaVuSans-50"/>
      </g>
     </g>
    </g>
    <g id="xtick_16">
     <g id="line2d_48">
      <path clip-path="url(#p34ed1e57df)" d="M 414.019144 250.305354 
L 414.019144 171.594646 
" style="fill:none;stroke:#000000;stroke-linecap:square;stroke-opacity:0.1;stroke-width:0.5;"/>
     </g>
     <g id="line2d_49">
      <g>
       <use style="stroke:#000000;stroke-width:0.5;" x="414.019144" xlink:href="#m52945359de" y="250.305354"/>
      </g>
     </g>
     <g id="line2d_50">
      <g>
       <use style="stroke:#000000;stroke-width:0.5;" x="414.019144" xlink:href="#m57883afa2d" y="171.594646"/>
      </g>
     </g>
     <g id="text_18">
      <!-- $\mathregular{3}$ -->
      <g transform="translate(410.179144 262.923479)scale(0.12 -0.12)">
       <use transform="translate(0 0.78125)" xlink:href="#DejaVuSans-51"/>
      </g>
     </g>
    </g>
    <g id="xtick_17">
     <g id="line2d_51">
      <path clip-path="url(#p34ed1e57df)" d="M 521.529009 250.305354 
L 521.529009 171.594646 
" style="fill:none;stroke:#000000;stroke-linecap:square;stroke-opacity:0.1;stroke-width:0.5;"/>
     </g>
     <g id="line2d_52">
      <g>
       <use style="stroke:#000000;stroke-width:0.5;" x="521.529009" xlink:href="#m52945359de" y="250.305354"/>
      </g>
     </g>
     <g id="line2d_53">
      <g>
       <use style="stroke:#000000;stroke-width:0.5;" x="521.529009" xlink:href="#m57883afa2d" y="171.594646"/>
      </g>
     </g>
     <g id="text_19">
      <!-- $\mathregular{4}$ -->
      <g transform="translate(517.689009 262.923479)scale(0.12 -0.12)">
       <use transform="translate(0 0.09375)" xlink:href="#DejaVuSans-52"/>
      </g>
     </g>
    </g>
    <g id="xtick_18">
     <g id="line2d_54">
      <path clip-path="url(#p34ed1e57df)" d="M 629.038875 250.305354 
L 629.038875 171.594646 
" style="fill:none;stroke:#000000;stroke-linecap:square;stroke-opacity:0.1;stroke-width:0.5;"/>
     </g>
     <g id="line2d_55">
      <g>
       <use style="stroke:#000000;stroke-width:0.5;" x="629.038875" xlink:href="#m52945359de" y="250.305354"/>
      </g>
     </g>
     <g id="line2d_56">
      <g>
       <use style="stroke:#000000;stroke-width:0.5;" x="629.038875" xlink:href="#m57883afa2d" y="171.594646"/>
      </g>
     </g>
     <g id="text_20">
      <!-- $\mathregular{5}$ -->
      <g transform="translate(625.198875 262.923479)scale(0.12 -0.12)">
       <use transform="translate(0 0.09375)" xlink:href="#DejaVuSans-53"/>
      </g>
     </g>
    </g>
    <g id="text_21">
     <!-- Time [s] -->
     <g transform="translate(327.737961 281.576604)scale(0.16 -0.16)">
      <defs>
       <path d="M -0.296875 72.90625 
L 61.375 72.90625 
L 61.375 64.59375 
L 35.5 64.59375 
L 35.5 0 
L 25.59375 0 
L 25.59375 64.59375 
L -0.296875 64.59375 
z
" id="DejaVuSans-84"/>
       <path d="M 9.421875 54.6875 
L 18.40625 54.6875 
L 18.40625 0 
L 9.421875 0 
z
M 9.421875 75.984375 
L 18.40625 75.984375 
L 18.40625 64.59375 
L 9.421875 64.59375 
z
" id="DejaVuSans-105"/>
       <path d="M 52 44.1875 
Q 55.375 50.25 60.0625 53.125 
Q 64.75 56 71.09375 56 
Q 79.640625 56 84.28125 50.015625 
Q 88.921875 44.046875 88.921875 33.015625 
L 88.921875 0 
L 79.890625 0 
L 79.890625 32.71875 
Q 79.890625 40.578125 77.09375 44.375 
Q 74.3125 48.1875 68.609375 48.1875 
Q 61.625 48.1875 57.5625 43.546875 
Q 53.515625 38.921875 53.515625 30.90625 
L 53.515625 0 
L 44.484375 0 
L 44.484375 32.71875 
Q 44.484375 40.625 41.703125 44.40625 
Q 38.921875 48.1875 33.109375 48.1875 
Q 26.21875 48.1875 22.15625 43.53125 
Q 18.109375 38.875 18.109375 30.90625 
L 18.109375 0 
L 9.078125 0 
L 9.078125 54.6875 
L 18.109375 54.6875 
L 18.109375 46.1875 
Q 21.1875 51.21875 25.484375 53.609375 
Q 29.78125 56 35.6875 56 
Q 41.65625 56 45.828125 52.96875 
Q 50 49.953125 52 44.1875 
z
" id="DejaVuSans-109"/>
       <path d="M 56.203125 29.59375 
L 56.203125 25.203125 
L 14.890625 25.203125 
Q 15.484375 15.921875 20.484375 11.0625 
Q 25.484375 6.203125 34.421875 6.203125 
Q 39.59375 6.203125 44.453125 7.46875 
Q 49.3125 8.734375 54.109375 11.28125 
L 54.109375 2.78125 
Q 49.265625 0.734375 44.1875 -0.34375 
Q 39.109375 -1.421875 33.890625 -1.421875 
Q 20.796875 -1.421875 13.15625 6.1875 
Q 5.515625 13.8125 5.515625 26.8125 
Q 5.515625 40.234375 12.765625 48.109375 
Q 20.015625 56 32.328125 56 
Q 43.359375 56 49.78125 48.890625 
Q 56.203125 41.796875 56.203125 29.59375 
z
M 47.21875 32.234375 
Q 47.125 39.59375 43.09375 43.984375 
Q 39.0625 48.390625 32.421875 48.390625 
Q 24.90625 48.390625 20.390625 44.140625 
Q 15.875 39.890625 15.1875 32.171875 
z
" id="DejaVuSans-101"/>
       <path id="DejaVuSans-32"/>
       <path d="M 8.59375 75.984375 
L 29.296875 75.984375 
L 29.296875 69 
L 17.578125 69 
L 17.578125 -6.203125 
L 29.296875 -6.203125 
L 29.296875 -13.1875 
L 8.59375 -13.1875 
z
" id="DejaVuSans-91"/>
       <path d="M 44.28125 53.078125 
L 44.28125 44.578125 
Q 40.484375 46.53125 36.375 47.5 
Q 32.28125 48.484375 27.875 48.484375 
Q 21.1875 48.484375 17.84375 46.4375 
Q 14.5 44.390625 14.5 40.28125 
Q 14.5 37.15625 16.890625 35.375 
Q 19.28125 33.59375 26.515625 31.984375 
L 29.59375 31.296875 
Q 39.15625 29.25 43.1875 25.515625 
Q 47.21875 21.78125 47.21875 15.09375 
Q 47.21875 7.46875 41.1875 3.015625 
Q 35.15625 -1.421875 24.609375 -1.421875 
Q 20.21875 -1.421875 15.453125 -0.5625 
Q 10.6875 0.296875 5.421875 2 
L 5.421875 11.28125 
Q 10.40625 8.6875 15.234375 7.390625 
Q 20.0625 6.109375 24.8125 6.109375 
Q 31.15625 6.109375 34.5625 8.28125 
Q 37.984375 10.453125 37.984375 14.40625 
Q 37.984375 18.0625 35.515625 20.015625 
Q 33.0625 21.96875 24.703125 23.78125 
L 21.578125 24.515625 
Q 13.234375 26.265625 9.515625 29.90625 
Q 5.8125 33.546875 5.8125 39.890625 
Q 5.8125 47.609375 11.28125 51.796875 
Q 16.75 56 26.8125 56 
Q 31.78125 56 36.171875 55.265625 
Q 40.578125 54.546875 44.28125 53.078125 
z
" id="DejaVuSans-115"/>
       <path d="M 30.421875 75.984375 
L 30.421875 -13.1875 
L 9.71875 -13.1875 
L 9.71875 -6.203125 
L 21.390625 -6.203125 
L 21.390625 69 
L 9.71875 69 
L 9.71875 75.984375 
z
" id="DejaVuSans-93"/>
      </defs>
      <use xlink:href="#DejaVuSans-84"/>
      <use x="57.958984" xlink:href="#DejaVuSans-105"/>
      <use x="85.742188" xlink:href="#DejaVuSans-109"/>
      <use x="183.154297" xlink:href="#DejaVuSans-101"/>
      <use x="244.677734" xlink:href="#DejaVuSans-32"/>
      <use x="276.464844" xlink:href="#DejaVuSans-91"/>
      <use x="315.478516" xlink:href="#DejaVuSans-115"/>
      <use x="367.578125" xlink:href="#DejaVuSans-93"/>
     </g>
    </g>
   </g>
   <g id="matplotlib.axis_6">
    <g id="ytick_13">
     <g id="line2d_57">
      <path clip-path="url(#p34ed1e57df)" d="M 75.363068 240.056225 
L 645.165354 240.056225 
" style="fill:none;stroke:#000000;stroke-linecap:square;stroke-opacity:0.1;stroke-width:0.5;"/>
     </g>
     <g id="line2d_58">
      <g>
       <use style="stroke:#000000;stroke-width:0.5;" x="75.363068" xlink:href="#mff1ef08247" y="240.056225"/>
      </g>
     </g>
     <g id="line2d_59">
      <g>
       <use style="stroke:#000000;stroke-width:0.5;" x="645.165354" xlink:href="#mc7619517e2" y="240.056225"/>
      </g>
     </g>
     <g id="text_22">
      <!-- $\mathregular{1070}$ -->
      <g transform="translate(41.263068 244.615288)scale(0.12 -0.12)">
       <use transform="translate(0 0.78125)" xlink:href="#DejaVuSans-49"/>
       <use transform="translate(63.623047 0.78125)" xlink:href="#DejaVuSans-48"/>
       <use transform="translate(127.246094 0.78125)" xlink:href="#DejaVuSans-55"/>
       <use transform="translate(190.869141 0.78125)" xlink:href="#DejaVuSans-48"/>
      </g>
     </g>
    </g>
    <g id="ytick_14">
     <g id="line2d_60">
      <path clip-path="url(#p34ed1e57df)" d="M 75.363068 227.993837 
L 645.165354 227.993837 
" style="fill:none;stroke:#000000;stroke-linecap:square;stroke-opacity:0.1;stroke-width:0.5;"/>
     </g>
     <g id="line2d_61">
      <g>
       <use style="stroke:#000000;stroke-width:0.5;" x="75.363068" xlink:href="#mff1ef08247" y="227.993837"/>
      </g>
     </g>
     <g id="line2d_62">
      <g>
       <use style="stroke:#000000;stroke-width:0.5;" x="645.165354" xlink:href="#mc7619517e2" y="227.993837"/>
      </g>
     </g>
     <g id="text_23">
      <!-- $\mathregular{1080}$ -->
      <g transform="translate(41.263068 232.552899)scale(0.12 -0.12)">
       <use transform="translate(0 0.78125)" xlink:href="#DejaVuSans-49"/>
       <use transform="translate(63.623047 0.78125)" xlink:href="#DejaVuSans-48"/>
       <use transform="translate(127.246094 0.78125)" xlink:href="#DejaVuSans-56"/>
       <use transform="translate(190.869141 0.78125)" xlink:href="#DejaVuSans-48"/>
      </g>
     </g>
    </g>
    <g id="ytick_15">
     <g id="line2d_63">
      <path clip-path="url(#p34ed1e57df)" d="M 75.363068 215.931448 
L 645.165354 215.931448 
" style="fill:none;stroke:#000000;stroke-linecap:square;stroke-opacity:0.1;stroke-width:0.5;"/>
     </g>
     <g id="line2d_64">
      <g>
       <use style="stroke:#000000;stroke-width:0.5;" x="75.363068" xlink:href="#mff1ef08247" y="215.931448"/>
      </g>
     </g>
     <g id="line2d_65">
      <g>
       <use style="stroke:#000000;stroke-width:0.5;" x="645.165354" xlink:href="#mc7619517e2" y="215.931448"/>
      </g>
     </g>
     <g id="text_24">
      <!-- $\mathregular{1090}$ -->
      <g transform="translate(41.263068 220.49051)scale(0.12 -0.12)">
       <use transform="translate(0 0.78125)" xlink:href="#DejaVuSans-49"/>
       <use transform="translate(63.623047 0.78125)" xlink:href="#DejaVuSans-48"/>
       <use transform="translate(127.246094 0.78125)" xlink:href="#DejaVuSans-57"/>
       <use transform="translate(190.869141 0.78125)" xlink:href="#DejaVuSans-48"/>
      </g>
     </g>
    </g>
    <g id="ytick_16">
     <g id="line2d_66">
      <path clip-path="url(#p34ed1e57df)" d="M 75.363068 203.869059 
L 645.165354 203.869059 
" style="fill:none;stroke:#000000;stroke-linecap:square;stroke-opacity:0.1;stroke-width:0.5;"/>
     </g>
     <g id="line2d_67">
      <g>
       <use style="stroke:#000000;stroke-width:0.5;" x="75.363068" xlink:href="#mff1ef08247" y="203.869059"/>
      </g>
     </g>
     <g id="line2d_68">
      <g>
       <use style="stroke:#000000;stroke-width:0.5;" x="645.165354" xlink:href="#mc7619517e2" y="203.869059"/>
      </g>
     </g>
     <g id="text_25">
      <!-- $\mathregular{1100}$ -->
      <g transform="translate(41.263068 208.428122)scale(0.12 -0.12)">
       <use transform="translate(0 0.78125)" xlink:href="#DejaVuSans-49"/>
       <use transform="translate(63.623047 0.78125)" xlink:href="#DejaVuSans-49"/>
       <use transform="translate(127.246094 0.78125)" xlink:href="#DejaVuSans-48"/>
       <use transform="translate(190.869141 0.78125)" xlink:href="#DejaVuSans-48"/>
      </g>
     </g>
    </g>
    <g id="ytick_17">
     <g id="line2d_69">
      <path clip-path="url(#p34ed1e57df)" d="M 75.363068 191.806671 
L 645.165354 191.806671 
" style="fill:none;stroke:#000000;stroke-linecap:square;stroke-opacity:0.1;stroke-width:0.5;"/>
     </g>
     <g id="line2d_70">
      <g>
       <use style="stroke:#000000;stroke-width:0.5;" x="75.363068" xlink:href="#mff1ef08247" y="191.806671"/>
      </g>
     </g>
     <g id="line2d_71">
      <g>
       <use style="stroke:#000000;stroke-width:0.5;" x="645.165354" xlink:href="#mc7619517e2" y="191.806671"/>
      </g>
     </g>
     <g id="text_26">
      <!-- $\mathregular{1110}$ -->
      <g transform="translate(41.263068 196.365733)scale(0.12 -0.12)">
       <use transform="translate(0 0.78125)" xlink:href="#DejaVuSans-49"/>
       <use transform="translate(63.623047 0.78125)" xlink:href="#DejaVuSans-49"/>
       <use transform="translate(127.246094 0.78125)" xlink:href="#DejaVuSans-49"/>
       <use transform="translate(190.869141 0.78125)" xlink:href="#DejaVuSans-48"/>
      </g>
     </g>
    </g>
    <g id="ytick_18">
     <g id="line2d_72">
      <path clip-path="url(#p34ed1e57df)" d="M 75.363068 179.744282 
L 645.165354 179.744282 
" style="fill:none;stroke:#000000;stroke-linecap:square;stroke-opacity:0.1;stroke-width:0.5;"/>
     </g>
     <g id="line2d_73">
      <g>
       <use style="stroke:#000000;stroke-width:0.5;" x="75.363068" xlink:href="#mff1ef08247" y="179.744282"/>
      </g>
     </g>
     <g id="line2d_74">
      <g>
       <use style="stroke:#000000;stroke-width:0.5;" x="645.165354" xlink:href="#mc7619517e2" y="179.744282"/>
      </g>
     </g>
     <g id="text_27">
      <!-- $\mathregular{1120}$ -->
      <g transform="translate(41.263068 184.303345)scale(0.12 -0.12)">
       <use transform="translate(0 0.78125)" xlink:href="#DejaVuSans-49"/>
       <use transform="translate(63.623047 0.78125)" xlink:href="#DejaVuSans-49"/>
       <use transform="translate(127.246094 0.78125)" xlink:href="#DejaVuSans-50"/>
       <use transform="translate(190.869141 0.78125)" xlink:href="#DejaVuSans-48"/>
      </g>
     </g>
    </g>
    <g id="text_28">
     <!-- T [K] -->
     <g transform="translate(33.935568 229.8675)rotate(-90)scale(0.16 -0.16)">
      <defs>
       <path d="M 9.8125 72.90625 
L 19.671875 72.90625 
L 19.671875 42.09375 
L 52.390625 72.90625 
L 65.09375 72.90625 
L 28.90625 38.921875 
L 67.671875 0 
L 54.6875 0 
L 19.671875 35.109375 
L 19.671875 0 
L 9.8125 0 
z
" id="DejaVuSans-75"/>
      </defs>
      <use xlink:href="#DejaVuSans-84"/>
      <use x="61.083984" xlink:href="#DejaVuSans-32"/>
      <use x="92.871094" xlink:href="#DejaVuSans-91"/>
      <use x="131.884766" xlink:href="#DejaVuSans-75"/>
      <use x="197.460938" xlink:href="#DejaVuSans-93"/>
     </g>
    </g>
   </g>
   <g id="PathCollection_3">
    <g clip-path="url(#p34ed1e57df)">
     <use x="91.489548" xlink:href="#ma1928ff692" y="231.517401"/>
     <use x="102.459942" xlink:href="#ma1928ff692" y="229.288063"/>
     <use x="113.430337" xlink:href="#ma1928ff692" y="227.282292"/>
     <use x="124.400731" xlink:href="#ma1928ff692" y="226.922067"/>
     <use x="135.371126" xlink:href="#ma1928ff692" y="227.2155"/>
     <use x="146.34152" xlink:href="#ma1928ff692" y="225.565585"/>
     <use x="157.311914" xlink:href="#ma1928ff692" y="224.02268"/>
     <use x="168.282309" xlink:href="#ma1928ff692" y="219.660801"/>
     <use x="179.252703" xlink:href="#ma1928ff692" y="216.566697"/>
     <use x="190.223098" xlink:href="#ma1928ff692" y="215.528439"/>
     <use x="201.193492" xlink:href="#ma1928ff692" y="216.979029"/>
     <use x="212.163887" xlink:href="#ma1928ff692" y="218.157341"/>
     <use x="223.134281" xlink:href="#ma1928ff692" y="220.677264"/>
     <use x="234.104675" xlink:href="#ma1928ff692" y="224.665155"/>
     <use x="245.07507" xlink:href="#ma1928ff692" y="225.893549"/>
     <use x="256.045464" xlink:href="#ma1928ff692" y="225.873038"/>
     <use x="267.015859" xlink:href="#ma1928ff692" y="223.495557"/>
     <use x="277.986253" xlink:href="#ma1928ff692" y="221.389855"/>
     <use x="288.956647" xlink:href="#ma1928ff692" y="219.632034"/>
     <use x="299.927042" xlink:href="#ma1928ff692" y="220.243182"/>
     <use x="310.897436" xlink:href="#ma1928ff692" y="221.914626"/>
     <use x="321.867831" xlink:href="#ma1928ff692" y="224.876033"/>
     <use x="332.838225" xlink:href="#ma1928ff692" y="227.395609"/>
     <use x="343.80862" xlink:href="#ma1928ff692" y="229.419665"/>
     <use x="354.779014" xlink:href="#ma1928ff692" y="230.95113"/>
     <use x="365.749408" xlink:href="#ma1928ff692" y="231.663656"/>
     <use x="376.719803" xlink:href="#ma1928ff692" y="229.37648"/>
     <use x="387.690197" xlink:href="#ma1928ff692" y="226.808438"/>
     <use x="398.660592" xlink:href="#ma1928ff692" y="225.60185"/>
     <use x="409.630986" xlink:href="#ma1928ff692" y="226.390648"/>
     <use x="420.601381" xlink:href="#ma1928ff692" y="227.428176"/>
     <use x="431.571775" xlink:href="#ma1928ff692" y="229.11341"/>
     <use x="442.542169" xlink:href="#ma1928ff692" y="231.259882"/>
     <use x="453.512564" xlink:href="#ma1928ff692" y="233.15694"/>
     <use x="464.482958" xlink:href="#ma1928ff692" y="233.28089"/>
     <use x="475.453353" xlink:href="#ma1928ff692" y="231.072823"/>
     <use x="486.423747" xlink:href="#ma1928ff692" y="228.484544"/>
     <use x="497.394141" xlink:href="#ma1928ff692" y="225.643089"/>
     <use x="508.364536" xlink:href="#ma1928ff692" y="223.463548"/>
     <use x="519.33493" xlink:href="#ma1928ff692" y="223.741276"/>
     <use x="530.305325" xlink:href="#ma1928ff692" y="223.498901"/>
     <use x="541.275719" xlink:href="#ma1928ff692" y="225.903802"/>
     <use x="552.246114" xlink:href="#ma1928ff692" y="227.627651"/>
     <use x="563.216508" xlink:href="#ma1928ff692" y="229.384958"/>
     <use x="574.186902" xlink:href="#ma1928ff692" y="229.690048"/>
     <use x="585.157297" xlink:href="#ma1928ff692" y="226.196175"/>
     <use x="596.127691" xlink:href="#ma1928ff692" y="223.933618"/>
     <use x="607.098086" xlink:href="#ma1928ff692" y="220.736489"/>
     <use x="618.06848" xlink:href="#ma1928ff692" y="218.574327"/>
     <use x="629.038875" xlink:href="#ma1928ff692" y="218.391224"/>
    </g>
   </g>
   <g id="line2d_75">
    <path clip-path="url(#p34ed1e57df)" d="M 91.489548 231.375861 
L 102.459942 217.520672 
L 113.430337 206.791991 
L 124.400731 198.336944 
L 135.371126 190.902694 
L 146.34152 184.058158 
L 157.311914 178.207598 
L 168.282309 174.386073 
L 179.252703 173.822307 
L 190.223098 177.368612 
L 201.193492 184.987348 
L 212.163887 195.507947 
L 223.134281 206.803029 
L 234.104675 216.377383 
L 245.07507 222.161636 
L 256.045464 223.190442 
L 267.015859 219.889174 
L 277.986253 213.842269 
L 288.956647 207.16787 
L 299.927042 201.815572 
L 310.897436 199.075262 
L 321.867831 199.376167 
L 332.838225 202.328714 
L 343.80862 206.957831 
L 354.779014 212.081069 
L 365.749408 216.761186 
L 376.719803 220.656424 
L 387.690197 224.081839 
L 398.660592 227.71288 
L 409.630986 232.092116 
L 420.601381 237.215401 
L 431.571775 242.402055 
L 442.542169 246.464958 
L 453.512564 248.077693 
L 464.482958 246.221468 
L 475.453353 240.613779 
L 486.423747 231.979204 
L 497.394141 221.996996 
L 508.364536 212.854459 
L 519.33493 206.547783 
L 530.305325 204.200718 
L 541.275719 205.673527 
L 552.246114 209.641137 
L 563.216508 214.137382 
L 574.186902 217.335995 
L 585.157297 218.208999 
L 596.127691 216.771846 
L 607.098086 213.860019 
L 618.06848 210.629592 
L 629.038875 208.048678 
" style="fill:none;stroke:#ff0000;stroke-dasharray:3.7,1.6;stroke-dashoffset:0;"/>
   </g>
   <g id="patch_13">
    <path d="M 75.363068 250.305354 
L 75.363068 171.594646 
" style="fill:none;stroke:#000000;stroke-linecap:square;stroke-linejoin:miter;"/>
   </g>
   <g id="patch_14">
    <path d="M 645.165354 250.305354 
L 645.165354 171.594646 
" style="fill:none;stroke:#000000;stroke-linecap:square;stroke-linejoin:miter;"/>
   </g>
   <g id="patch_15">
    <path d="M 75.363068 250.305354 
L 645.165354 250.305354 
" style="fill:none;stroke:#000000;stroke-linecap:square;stroke-linejoin:miter;"/>
   </g>
   <g id="patch_16">
    <path d="M 75.363068 171.594646 
L 645.165354 171.594646 
" style="fill:none;stroke:#000000;stroke-linecap:square;stroke-linejoin:miter;"/>
   </g>
  </g>
 </g>
 <defs>
  <clipPath id="p6707113367">
   <rect height="78.710709" width="569.802286" x="75.363068" y="2.834646"/>
  </clipPath>
  <clipPath id="p73a474c626">
   <rect height="78.710709" width="569.802286" x="75.363068" y="87.214646"/>
  </clipPath>
  <clipPath id="p34ed1e57df">
   <rect height="78.710709" width="569.802286" x="75.363068" y="171.594646"/>
  </clipPath>
 </defs>
</svg>
