<?xml version="1.0" encoding="utf-8" standalone="no"?>
<!DOCTYPE svg PUBLIC "-//W3C//DTD SVG 1.1//EN"
  "http://www.w3.org/Graphics/SVG/1.1/DTD/svg11.dtd">
<!-- Created with matplotlib (https://matplotlib.org/) -->
<svg height="288pt" version="1.1" viewBox="0 0 720 288" width="720pt" xmlns="http://www.w3.org/2000/svg" xmlns:xlink="http://www.w3.org/1999/xlink">
 <metadata>
  <rdf:RDF xmlns:cc="http://creativecommons.org/ns#" xmlns:dc="http://purl.org/dc/elements/1.1/" xmlns:rdf="http://www.w3.org/1999/02/22-rdf-syntax-ns#">
   <cc:Work>
    <dc:type rdf:resource="http://purl.org/dc/dcmitype/StillImage"/>
    <dc:date>2021-04-25T02:02:08.855860</dc:date>
    <dc:format>image/svg+xml</dc:format>
    <dc:creator>
     <cc:Agent>
      <dc:title>Matplotlib v3.3.2, https://matplotlib.org/</dc:title>
     </cc:Agent>
    </dc:creator>
   </cc:Work>
  </rdf:RDF>
 </metadata>
 <defs>
  <style type="text/css">*{stroke-linecap:butt;stroke-linejoin:round;}</style>
 </defs>
 <g id="figure_1">
  <g id="patch_1">
   <path d="M 0 288 
L 720 288 
L 720 0 
L 0 0 
z
" style="fill:#ffffff;"/>
  </g>
  <g id="axes_1">
   <g id="patch_2">
    <path d="M 86.603664 80.581608 
L 585.015354 80.581608 
L 585.015354 2.834646 
L 86.603664 2.834646 
z
" style="fill:#ffffff;"/>
   </g>
   <g id="matplotlib.axis_1">
    <g id="xtick_1"/>
    <g id="xtick_2"/>
    <g id="xtick_3"/>
    <g id="xtick_4"/>
    <g id="xtick_5"/>
    <g id="xtick_6"/>
   </g>
   <g id="matplotlib.axis_2">
    <g id="ytick_1">
     <g id="line2d_1">
      <path clip-path="url(#p1cba086d58)" d="M 86.603664 78.594014 
L 585.015354 78.594014 
" style="fill:none;stroke:#000000;stroke-linecap:square;stroke-opacity:0.1;stroke-width:0.5;"/>
     </g>
     <g id="line2d_2">
      <defs>
       <path d="M 0 0 
L 2.5 0 
" id="m17ee823d6d" style="stroke:#000000;stroke-width:0.5;"/>
      </defs>
      <g>
       <use style="stroke:#000000;stroke-width:0.5;" x="86.603664" xlink:href="#m17ee823d6d" y="78.594014"/>
      </g>
     </g>
     <g id="line2d_3">
      <defs>
       <path d="M 0 0 
L -2.5 0 
" id="m0eb994419a" style="stroke:#000000;stroke-width:0.5;"/>
      </defs>
      <g>
       <use style="stroke:#000000;stroke-width:0.5;" x="585.015354" xlink:href="#m0eb994419a" y="78.594014"/>
      </g>
     </g>
     <g id="text_1">
      <!-- $\mathregular{2.5×10^{-5}}$ -->
      <g transform="translate(25.863664 83.153076)scale(0.12 -0.12)">
       <defs>
        <path d="M 19.1875 8.296875 
L 53.609375 8.296875 
L 53.609375 0 
L 7.328125 0 
L 7.328125 8.296875 
Q 12.9375 14.109375 22.625 23.890625 
Q 32.328125 33.6875 34.8125 36.53125 
Q 39.546875 41.84375 41.421875 45.53125 
Q 43.3125 49.21875 43.3125 52.78125 
Q 43.3125 58.59375 39.234375 62.25 
Q 35.15625 65.921875 28.609375 65.921875 
Q 23.96875 65.921875 18.8125 64.3125 
Q 13.671875 62.703125 7.8125 59.421875 
L 7.8125 69.390625 
Q 13.765625 71.78125 18.9375 73 
Q 24.125 74.21875 28.421875 74.21875 
Q 39.75 74.21875 46.484375 68.546875 
Q 53.21875 62.890625 53.21875 53.421875 
Q 53.21875 48.921875 51.53125 44.890625 
Q 49.859375 40.875 45.40625 35.40625 
Q 44.1875 33.984375 37.640625 27.21875 
Q 31.109375 20.453125 19.1875 8.296875 
z
" id="DejaVuSans-50"/>
        <path d="M 10.6875 12.40625 
L 21 12.40625 
L 21 0 
L 10.6875 0 
z
" id="DejaVuSans-46"/>
        <path d="M 10.796875 72.90625 
L 49.515625 72.90625 
L 49.515625 64.59375 
L 19.828125 64.59375 
L 19.828125 46.734375 
Q 21.96875 47.46875 24.109375 47.828125 
Q 26.265625 48.1875 28.421875 48.1875 
Q 40.625 48.1875 47.75 41.5 
Q 54.890625 34.8125 54.890625 23.390625 
Q 54.890625 11.625 47.5625 5.09375 
Q 40.234375 -1.421875 26.90625 -1.421875 
Q 22.3125 -1.421875 17.546875 -0.640625 
Q 12.796875 0.140625 7.71875 1.703125 
L 7.71875 11.625 
Q 12.109375 9.234375 16.796875 8.0625 
Q 21.484375 6.890625 26.703125 6.890625 
Q 35.15625 6.890625 40.078125 11.328125 
Q 45.015625 15.765625 45.015625 23.390625 
Q 45.015625 31 40.078125 35.4375 
Q 35.15625 39.890625 26.703125 39.890625 
Q 22.75 39.890625 18.8125 39.015625 
Q 14.890625 38.140625 10.796875 36.28125 
z
" id="DejaVuSans-53"/>
        <path d="M 70.125 53.71875 
L 47.796875 31.296875 
L 70.125 8.984375 
L 64.3125 3.078125 
L 41.890625 25.484375 
L 19.484375 3.078125 
L 13.71875 8.984375 
L 35.984375 31.296875 
L 13.71875 53.71875 
L 19.484375 59.625 
L 41.890625 37.203125 
L 64.3125 59.625 
z
" id="DejaVuSans-215"/>
        <path d="M 12.40625 8.296875 
L 28.515625 8.296875 
L 28.515625 63.921875 
L 10.984375 60.40625 
L 10.984375 69.390625 
L 28.421875 72.90625 
L 38.28125 72.90625 
L 38.28125 8.296875 
L 54.390625 8.296875 
L 54.390625 0 
L 12.40625 0 
z
" id="DejaVuSans-49"/>
        <path d="M 31.78125 66.40625 
Q 24.171875 66.40625 20.328125 58.90625 
Q 16.5 51.421875 16.5 36.375 
Q 16.5 21.390625 20.328125 13.890625 
Q 24.171875 6.390625 31.78125 6.390625 
Q 39.453125 6.390625 43.28125 13.890625 
Q 47.125 21.390625 47.125 36.375 
Q 47.125 51.421875 43.28125 58.90625 
Q 39.453125 66.40625 31.78125 66.40625 
z
M 31.78125 74.21875 
Q 44.046875 74.21875 50.515625 64.515625 
Q 56.984375 54.828125 56.984375 36.375 
Q 56.984375 17.96875 50.515625 8.265625 
Q 44.046875 -1.421875 31.78125 -1.421875 
Q 19.53125 -1.421875 13.0625 8.265625 
Q 6.59375 17.96875 6.59375 36.375 
Q 6.59375 54.828125 13.0625 64.515625 
Q 19.53125 74.21875 31.78125 74.21875 
z
" id="DejaVuSans-48"/>
        <path d="M 10.59375 35.5 
L 73.1875 35.5 
L 73.1875 27.203125 
L 10.59375 27.203125 
z
" id="DejaVuSans-8722"/>
       </defs>
       <use transform="translate(0 0.684375)" xlink:href="#DejaVuSans-50"/>
       <use transform="translate(63.623047 0.684375)" xlink:href="#DejaVuSans-46"/>
       <use transform="translate(95.410156 0.684375)" xlink:href="#DejaVuSans-53"/>
       <use transform="translate(159.033203 0.684375)" xlink:href="#DejaVuSans-215"/>
       <use transform="translate(242.822266 0.684375)" xlink:href="#DejaVuSans-49"/>
       <use transform="translate(306.445312 0.684375)" xlink:href="#DejaVuSans-48"/>
       <use transform="translate(371.025391 38.965625)scale(0.7)" xlink:href="#DejaVuSans-8722"/>
       <use transform="translate(429.677734 38.965625)scale(0.7)" xlink:href="#DejaVuSans-53"/>
      </g>
     </g>
    </g>
    <g id="ytick_2">
     <g id="line2d_4">
      <path clip-path="url(#p1cba086d58)" d="M 86.603664 66.39455 
L 585.015354 66.39455 
" style="fill:none;stroke:#000000;stroke-linecap:square;stroke-opacity:0.1;stroke-width:0.5;"/>
     </g>
     <g id="line2d_5">
      <g>
       <use style="stroke:#000000;stroke-width:0.5;" x="86.603664" xlink:href="#m17ee823d6d" y="66.39455"/>
      </g>
     </g>
     <g id="line2d_6">
      <g>
       <use style="stroke:#000000;stroke-width:0.5;" x="585.015354" xlink:href="#m0eb994419a" y="66.39455"/>
      </g>
     </g>
     <g id="text_2">
      <!-- $\mathregular{3.0×10^{-5}}$ -->
      <g transform="translate(25.863664 70.953612)scale(0.12 -0.12)">
       <defs>
        <path d="M 40.578125 39.3125 
Q 47.65625 37.796875 51.625 33 
Q 55.609375 28.21875 55.609375 21.1875 
Q 55.609375 10.40625 48.1875 4.484375 
Q 40.765625 -1.421875 27.09375 -1.421875 
Q 22.515625 -1.421875 17.65625 -0.515625 
Q 12.796875 0.390625 7.625 2.203125 
L 7.625 11.71875 
Q 11.71875 9.328125 16.59375 8.109375 
Q 21.484375 6.890625 26.8125 6.890625 
Q 36.078125 6.890625 40.9375 10.546875 
Q 45.796875 14.203125 45.796875 21.1875 
Q 45.796875 27.640625 41.28125 31.265625 
Q 36.765625 34.90625 28.71875 34.90625 
L 20.21875 34.90625 
L 20.21875 43.015625 
L 29.109375 43.015625 
Q 36.375 43.015625 40.234375 45.921875 
Q 44.09375 48.828125 44.09375 54.296875 
Q 44.09375 59.90625 40.109375 62.90625 
Q 36.140625 65.921875 28.71875 65.921875 
Q 24.65625 65.921875 20.015625 65.03125 
Q 15.375 64.15625 9.8125 62.3125 
L 9.8125 71.09375 
Q 15.4375 72.65625 20.34375 73.4375 
Q 25.25 74.21875 29.59375 74.21875 
Q 40.828125 74.21875 47.359375 69.109375 
Q 53.90625 64.015625 53.90625 55.328125 
Q 53.90625 49.265625 50.4375 45.09375 
Q 46.96875 40.921875 40.578125 39.3125 
z
" id="DejaVuSans-51"/>
       </defs>
       <use transform="translate(0 0.684375)" xlink:href="#DejaVuSans-51"/>
       <use transform="translate(63.623047 0.684375)" xlink:href="#DejaVuSans-46"/>
       <use transform="translate(95.410156 0.684375)" xlink:href="#DejaVuSans-48"/>
       <use transform="translate(159.033203 0.684375)" xlink:href="#DejaVuSans-215"/>
       <use transform="translate(242.822266 0.684375)" xlink:href="#DejaVuSans-49"/>
       <use transform="translate(306.445312 0.684375)" xlink:href="#DejaVuSans-48"/>
       <use transform="translate(371.025391 38.965625)scale(0.7)" xlink:href="#DejaVuSans-8722"/>
       <use transform="translate(429.677734 38.965625)scale(0.7)" xlink:href="#DejaVuSans-53"/>
      </g>
     </g>
    </g>
    <g id="ytick_3">
     <g id="line2d_7">
      <path clip-path="url(#p1cba086d58)" d="M 86.603664 54.195086 
L 585.015354 54.195086 
" style="fill:none;stroke:#000000;stroke-linecap:square;stroke-opacity:0.1;stroke-width:0.5;"/>
     </g>
     <g id="line2d_8">
      <g>
       <use style="stroke:#000000;stroke-width:0.5;" x="86.603664" xlink:href="#m17ee823d6d" y="54.195086"/>
      </g>
     </g>
     <g id="line2d_9">
      <g>
       <use style="stroke:#000000;stroke-width:0.5;" x="585.015354" xlink:href="#m0eb994419a" y="54.195086"/>
      </g>
     </g>
     <g id="text_3">
      <!-- $\mathregular{3.5×10^{-5}}$ -->
      <g transform="translate(25.863664 58.754149)scale(0.12 -0.12)">
       <use transform="translate(0 0.684375)" xlink:href="#DejaVuSans-51"/>
       <use transform="translate(63.623047 0.684375)" xlink:href="#DejaVuSans-46"/>
       <use transform="translate(95.410156 0.684375)" xlink:href="#DejaVuSans-53"/>
       <use transform="translate(159.033203 0.684375)" xlink:href="#DejaVuSans-215"/>
       <use transform="translate(242.822266 0.684375)" xlink:href="#DejaVuSans-49"/>
       <use transform="translate(306.445312 0.684375)" xlink:href="#DejaVuSans-48"/>
       <use transform="translate(371.025391 38.965625)scale(0.7)" xlink:href="#DejaVuSans-8722"/>
       <use transform="translate(429.677734 38.965625)scale(0.7)" xlink:href="#DejaVuSans-53"/>
      </g>
     </g>
    </g>
    <g id="ytick_4">
     <g id="line2d_10">
      <path clip-path="url(#p1cba086d58)" d="M 86.603664 41.995623 
L 585.015354 41.995623 
" style="fill:none;stroke:#000000;stroke-linecap:square;stroke-opacity:0.1;stroke-width:0.5;"/>
     </g>
     <g id="line2d_11">
      <g>
       <use style="stroke:#000000;stroke-width:0.5;" x="86.603664" xlink:href="#m17ee823d6d" y="41.995623"/>
      </g>
     </g>
     <g id="line2d_12">
      <g>
       <use style="stroke:#000000;stroke-width:0.5;" x="585.015354" xlink:href="#m0eb994419a" y="41.995623"/>
      </g>
     </g>
     <g id="text_4">
      <!-- $\mathregular{4.0×10^{-5}}$ -->
      <g transform="translate(25.863664 46.554685)scale(0.12 -0.12)">
       <defs>
        <path d="M 37.796875 64.3125 
L 12.890625 25.390625 
L 37.796875 25.390625 
z
M 35.203125 72.90625 
L 47.609375 72.90625 
L 47.609375 25.390625 
L 58.015625 25.390625 
L 58.015625 17.1875 
L 47.609375 17.1875 
L 47.609375 0 
L 37.796875 0 
L 37.796875 17.1875 
L 4.890625 17.1875 
L 4.890625 26.703125 
z
" id="DejaVuSans-52"/>
       </defs>
       <use transform="translate(0 0.684375)" xlink:href="#DejaVuSans-52"/>
       <use transform="translate(63.623047 0.684375)" xlink:href="#DejaVuSans-46"/>
       <use transform="translate(95.410156 0.684375)" xlink:href="#DejaVuSans-48"/>
       <use transform="translate(159.033203 0.684375)" xlink:href="#DejaVuSans-215"/>
       <use transform="translate(242.822266 0.684375)" xlink:href="#DejaVuSans-49"/>
       <use transform="translate(306.445312 0.684375)" xlink:href="#DejaVuSans-48"/>
       <use transform="translate(371.025391 38.965625)scale(0.7)" xlink:href="#DejaVuSans-8722"/>
       <use transform="translate(429.677734 38.965625)scale(0.7)" xlink:href="#DejaVuSans-53"/>
      </g>
     </g>
    </g>
    <g id="ytick_5">
     <g id="line2d_13">
      <path clip-path="url(#p1cba086d58)" d="M 86.603664 29.796159 
L 585.015354 29.796159 
" style="fill:none;stroke:#000000;stroke-linecap:square;stroke-opacity:0.1;stroke-width:0.5;"/>
     </g>
     <g id="line2d_14">
      <g>
       <use style="stroke:#000000;stroke-width:0.5;" x="86.603664" xlink:href="#m17ee823d6d" y="29.796159"/>
      </g>
     </g>
     <g id="line2d_15">
      <g>
       <use style="stroke:#000000;stroke-width:0.5;" x="585.015354" xlink:href="#m0eb994419a" y="29.796159"/>
      </g>
     </g>
     <g id="text_5">
      <!-- $\mathregular{4.5×10^{-5}}$ -->
      <g transform="translate(25.863664 34.355222)scale(0.12 -0.12)">
       <use transform="translate(0 0.684375)" xlink:href="#DejaVuSans-52"/>
       <use transform="translate(63.623047 0.684375)" xlink:href="#DejaVuSans-46"/>
       <use transform="translate(95.410156 0.684375)" xlink:href="#DejaVuSans-53"/>
       <use transform="translate(159.033203 0.684375)" xlink:href="#DejaVuSans-215"/>
       <use transform="translate(242.822266 0.684375)" xlink:href="#DejaVuSans-49"/>
       <use transform="translate(306.445312 0.684375)" xlink:href="#DejaVuSans-48"/>
       <use transform="translate(371.025391 38.965625)scale(0.7)" xlink:href="#DejaVuSans-8722"/>
       <use transform="translate(429.677734 38.965625)scale(0.7)" xlink:href="#DejaVuSans-53"/>
      </g>
     </g>
    </g>
    <g id="ytick_6">
     <g id="line2d_16">
      <path clip-path="url(#p1cba086d58)" d="M 86.603664 17.596696 
L 585.015354 17.596696 
" style="fill:none;stroke:#000000;stroke-linecap:square;stroke-opacity:0.1;stroke-width:0.5;"/>
     </g>
     <g id="line2d_17">
      <g>
       <use style="stroke:#000000;stroke-width:0.5;" x="86.603664" xlink:href="#m17ee823d6d" y="17.596696"/>
      </g>
     </g>
     <g id="line2d_18">
      <g>
       <use style="stroke:#000000;stroke-width:0.5;" x="585.015354" xlink:href="#m0eb994419a" y="17.596696"/>
      </g>
     </g>
     <g id="text_6">
      <!-- $\mathregular{5.0×10^{-5}}$ -->
      <g transform="translate(25.863664 22.155758)scale(0.12 -0.12)">
       <use transform="translate(0 0.684375)" xlink:href="#DejaVuSans-53"/>
       <use transform="translate(63.623047 0.684375)" xlink:href="#DejaVuSans-46"/>
       <use transform="translate(95.410156 0.684375)" xlink:href="#DejaVuSans-48"/>
       <use transform="translate(159.033203 0.684375)" xlink:href="#DejaVuSans-215"/>
       <use transform="translate(242.822266 0.684375)" xlink:href="#DejaVuSans-49"/>
       <use transform="translate(306.445312 0.684375)" xlink:href="#DejaVuSans-48"/>
       <use transform="translate(371.025391 38.965625)scale(0.7)" xlink:href="#DejaVuSans-8722"/>
       <use transform="translate(429.677734 38.965625)scale(0.7)" xlink:href="#DejaVuSans-53"/>
      </g>
     </g>
    </g>
    <g id="ytick_7">
     <g id="line2d_19">
      <path clip-path="url(#p1cba086d58)" d="M 86.603664 5.397232 
L 585.015354 5.397232 
" style="fill:none;stroke:#000000;stroke-linecap:square;stroke-opacity:0.1;stroke-width:0.5;"/>
     </g>
     <g id="line2d_20">
      <g>
       <use style="stroke:#000000;stroke-width:0.5;" x="86.603664" xlink:href="#m17ee823d6d" y="5.397232"/>
      </g>
     </g>
     <g id="line2d_21">
      <g>
       <use style="stroke:#000000;stroke-width:0.5;" x="585.015354" xlink:href="#m0eb994419a" y="5.397232"/>
      </g>
     </g>
     <g id="text_7">
      <!-- $\mathregular{5.5×10^{-5}}$ -->
      <g transform="translate(25.863664 9.956294)scale(0.12 -0.12)">
       <use transform="translate(0 0.684375)" xlink:href="#DejaVuSans-53"/>
       <use transform="translate(63.623047 0.684375)" xlink:href="#DejaVuSans-46"/>
       <use transform="translate(95.410156 0.684375)" xlink:href="#DejaVuSans-53"/>
       <use transform="translate(159.033203 0.684375)" xlink:href="#DejaVuSans-215"/>
       <use transform="translate(242.822266 0.684375)" xlink:href="#DejaVuSans-49"/>
       <use transform="translate(306.445312 0.684375)" xlink:href="#DejaVuSans-48"/>
       <use transform="translate(371.025391 38.965625)scale(0.7)" xlink:href="#DejaVuSans-8722"/>
       <use transform="translate(429.677734 38.965625)scale(0.7)" xlink:href="#DejaVuSans-53"/>
      </g>
     </g>
    </g>
    <g id="text_8">
     <!-- $Y_{CH_4}$ -->
     <g transform="translate(17.383664 57.628127)rotate(-90)scale(0.16 -0.16)">
      <defs>
       <path d="M 6.296875 72.90625 
L 16.890625 72.90625 
L 30.515625 42.921875 
L 56.5 72.90625 
L 67.578125 72.90625 
L 34.515625 34.71875 
L 27.78125 0 
L 17.921875 0 
L 24.609375 34.71875 
z
" id="DejaVuSans-Oblique-89"/>
       <path d="M 69.484375 67.28125 
L 67.484375 56.890625 
Q 62.796875 61.625 57.546875 63.921875 
Q 52.296875 66.21875 46.1875 66.21875 
Q 37.84375 66.21875 31.515625 62.203125 
Q 25.203125 58.203125 20.609375 50 
Q 17.671875 44.734375 16.125 38.84375 
Q 14.59375 32.953125 14.59375 27 
Q 14.59375 17.046875 19.75 11.8125 
Q 24.90625 6.59375 34.71875 6.59375 
Q 41.5 6.59375 47.75 8.765625 
Q 54 10.9375 59.90625 15.28125 
L 57.625 3.609375 
Q 51.8125 1.125 45.875 -0.140625 
Q 39.9375 -1.421875 33.984375 -1.421875 
Q 19.96875 -1.421875 12.078125 6.1875 
Q 4.203125 13.8125 4.203125 27.390625 
Q 4.203125 36.078125 7.203125 44.46875 
Q 10.203125 52.875 15.828125 59.8125 
Q 21.78125 67.1875 29.421875 70.703125 
Q 37.0625 74.21875 47.21875 74.21875 
Q 53.46875 74.21875 59.0625 72.484375 
Q 64.65625 70.75 69.484375 67.28125 
z
" id="DejaVuSans-Oblique-67"/>
       <path d="M 16.890625 72.90625 
L 26.8125 72.90625 
L 21 43.015625 
L 56.78125 43.015625 
L 62.59375 72.90625 
L 72.515625 72.90625 
L 58.296875 0 
L 48.390625 0 
L 55.171875 34.71875 
L 19.390625 34.71875 
L 12.59375 0 
L 2.6875 0 
z
" id="DejaVuSans-Oblique-72"/>
      </defs>
      <use transform="translate(0 0.09375)" xlink:href="#DejaVuSans-Oblique-89"/>
      <use transform="translate(61.083984 -16.3125)scale(0.7)" xlink:href="#DejaVuSans-Oblique-67"/>
      <use transform="translate(109.960938 -16.3125)scale(0.7)" xlink:href="#DejaVuSans-Oblique-72"/>
      <use transform="translate(162.597656 -27.796875)scale(0.49)" xlink:href="#DejaVuSans-52"/>
     </g>
    </g>
   </g>
   <g id="PathCollection_1">
    <defs>
     <path d="M 0 2 
C 0.530406 2 1.03916 1.789267 1.414214 1.414214 
C 1.789267 1.03916 2 0.530406 2 0 
C 2 -0.530406 1.789267 -1.03916 1.414214 -1.414214 
C 1.03916 -1.789267 0.530406 -2 0 -2 
C -0.530406 -2 -1.03916 -1.789267 -1.414214 -1.414214 
C -1.789267 -1.03916 -2 -0.530406 -2 0 
C -2 0.530406 -1.789267 1.03916 -1.414214 1.414214 
C -1.03916 1.789267 -0.530406 2 0 2 
z
" id="m6344d122d1"/>
    </defs>
    <g clip-path="url(#p1cba086d58)">
     <use x="100.709655" xlink:href="#m6344d122d1" y="30.870469"/>
     <use x="105.459147" xlink:href="#m6344d122d1" y="29.783441"/>
     <use x="110.208639" xlink:href="#m6344d122d1" y="28.680232"/>
     <use x="114.958131" xlink:href="#m6344d122d1" y="27.174044"/>
     <use x="119.707623" xlink:href="#m6344d122d1" y="26.860109"/>
     <use x="124.457115" xlink:href="#m6344d122d1" y="28.578493"/>
     <use x="129.206607" xlink:href="#m6344d122d1" y="30.895143"/>
     <use x="133.956099" xlink:href="#m6344d122d1" y="32.527556"/>
     <use x="138.705591" xlink:href="#m6344d122d1" y="31.049495"/>
     <use x="143.455083" xlink:href="#m6344d122d1" y="28.560325"/>
     <use x="148.204575" xlink:href="#m6344d122d1" y="25.231649"/>
     <use x="152.954067" xlink:href="#m6344d122d1" y="25.153949"/>
     <use x="157.703559" xlink:href="#m6344d122d1" y="26.828883"/>
     <use x="162.453051" xlink:href="#m6344d122d1" y="31.5612"/>
     <use x="167.202543" xlink:href="#m6344d122d1" y="34.911157"/>
     <use x="171.952035" xlink:href="#m6344d122d1" y="33.393736"/>
     <use x="176.701527" xlink:href="#m6344d122d1" y="28.960338"/>
     <use x="181.451019" xlink:href="#m6344d122d1" y="23.443971"/>
     <use x="186.200511" xlink:href="#m6344d122d1" y="19.759664"/>
     <use x="190.950003" xlink:href="#m6344d122d1" y="23.010635"/>
     <use x="195.699495" xlink:href="#m6344d122d1" y="31.114795"/>
     <use x="200.448987" xlink:href="#m6344d122d1" y="37.576922"/>
     <use x="205.198479" xlink:href="#m6344d122d1" y="38.514365"/>
     <use x="209.947971" xlink:href="#m6344d122d1" y="30.346522"/>
     <use x="214.697463" xlink:href="#m6344d122d1" y="19.375855"/>
     <use x="219.446955" xlink:href="#m6344d122d1" y="13.013406"/>
     <use x="224.196447" xlink:href="#m6344d122d1" y="15.15713"/>
     <use x="228.945939" xlink:href="#m6344d122d1" y="28.167668"/>
     <use x="233.695431" xlink:href="#m6344d122d1" y="43.026872"/>
     <use x="238.444923" xlink:href="#m6344d122d1" y="45.773945"/>
     <use x="243.194415" xlink:href="#m6344d122d1" y="35.089504"/>
     <use x="247.943907" xlink:href="#m6344d122d1" y="17.794071"/>
     <use x="252.693399" xlink:href="#m6344d122d1" y="5.035031"/>
     <use x="257.442891" xlink:href="#m6344d122d1" y="7.488171"/>
     <use x="262.192383" xlink:href="#m6344d122d1" y="31.972117"/>
     <use x="266.941875" xlink:href="#m6344d122d1" y="57.723327"/>
     <use x="271.691367" xlink:href="#m6344d122d1" y="58.418369"/>
     <use x="276.440859" xlink:href="#m6344d122d1" y="43.983977"/>
     <use x="281.190351" xlink:href="#m6344d122d1" y="26.534446"/>
     <use x="285.939843" xlink:href="#m6344d122d1" y="16.376547"/>
     <use x="290.689335" xlink:href="#m6344d122d1" y="27.490499"/>
     <use x="295.438827" xlink:href="#m6344d122d1" y="53.163296"/>
     <use x="300.188319" xlink:href="#m6344d122d1" y="63.682047"/>
     <use x="304.937811" xlink:href="#m6344d122d1" y="56.961019"/>
     <use x="309.687303" xlink:href="#m6344d122d1" y="45.140301"/>
     <use x="314.436795" xlink:href="#m6344d122d1" y="39.272195"/>
     <use x="319.186287" xlink:href="#m6344d122d1" y="42.791591"/>
     <use x="323.935779" xlink:href="#m6344d122d1" y="55.211204"/>
     <use x="328.685271" xlink:href="#m6344d122d1" y="62.482599"/>
     <use x="333.434763" xlink:href="#m6344d122d1" y="60.211035"/>
     <use x="338.184255" xlink:href="#m6344d122d1" y="55.976815"/>
     <use x="342.933747" xlink:href="#m6344d122d1" y="54.585012"/>
     <use x="347.683239" xlink:href="#m6344d122d1" y="56.968004"/>
     <use x="352.432731" xlink:href="#m6344d122d1" y="61.385804"/>
     <use x="357.182223" xlink:href="#m6344d122d1" y="63.04814"/>
     <use x="361.931715" xlink:href="#m6344d122d1" y="63.709516"/>
     <use x="366.681207" xlink:href="#m6344d122d1" y="63.070809"/>
     <use x="371.430699" xlink:href="#m6344d122d1" y="64.090487"/>
     <use x="376.180191" xlink:href="#m6344d122d1" y="64.962019"/>
     <use x="380.929683" xlink:href="#m6344d122d1" y="66.716192"/>
     <use x="385.679175" xlink:href="#m6344d122d1" y="68.128559"/>
     <use x="390.428667" xlink:href="#m6344d122d1" y="68.902244"/>
     <use x="395.178159" xlink:href="#m6344d122d1" y="69.124813"/>
     <use x="399.927651" xlink:href="#m6344d122d1" y="70.365636"/>
     <use x="404.677143" xlink:href="#m6344d122d1" y="71.533664"/>
     <use x="409.426635" xlink:href="#m6344d122d1" y="71.47748"/>
     <use x="414.176127" xlink:href="#m6344d122d1" y="73.035952"/>
     <use x="418.925619" xlink:href="#m6344d122d1" y="72.72119"/>
     <use x="423.675111" xlink:href="#m6344d122d1" y="73.996873"/>
     <use x="428.424603" xlink:href="#m6344d122d1" y="74.514118"/>
     <use x="433.174095" xlink:href="#m6344d122d1" y="75.3588"/>
     <use x="437.923587" xlink:href="#m6344d122d1" y="75.22999"/>
     <use x="442.673079" xlink:href="#m6344d122d1" y="75.9139"/>
     <use x="447.422571" xlink:href="#m6344d122d1" y="75.90416"/>
     <use x="452.172063" xlink:href="#m6344d122d1" y="75.623591"/>
     <use x="456.921555" xlink:href="#m6344d122d1" y="75.680139"/>
     <use x="461.671047" xlink:href="#m6344d122d1" y="76.225732"/>
     <use x="466.420539" xlink:href="#m6344d122d1" y="75.917978"/>
     <use x="471.170031" xlink:href="#m6344d122d1" y="76.368143"/>
     <use x="475.919523" xlink:href="#m6344d122d1" y="76.620298"/>
     <use x="480.669015" xlink:href="#m6344d122d1" y="76.269614"/>
     <use x="485.418507" xlink:href="#m6344d122d1" y="77.212571"/>
     <use x="490.167999" xlink:href="#m6344d122d1" y="76.033309"/>
     <use x="494.917491" xlink:href="#m6344d122d1" y="76.227129"/>
     <use x="499.666983" xlink:href="#m6344d122d1" y="77.118634"/>
     <use x="504.416475" xlink:href="#m6344d122d1" y="76.760203"/>
     <use x="509.165967" xlink:href="#m6344d122d1" y="76.828515"/>
     <use x="513.915459" xlink:href="#m6344d122d1" y="77.024193"/>
     <use x="518.664951" xlink:href="#m6344d122d1" y="77.432541"/>
     <use x="523.414443" xlink:href="#m6344d122d1" y="76.725451"/>
     <use x="528.163935" xlink:href="#m6344d122d1" y="77.173434"/>
     <use x="532.913427" xlink:href="#m6344d122d1" y="77.791032"/>
     <use x="537.662919" xlink:href="#m6344d122d1" y="76.615408"/>
     <use x="542.412411" xlink:href="#m6344d122d1" y="78.048284"/>
     <use x="547.161903" xlink:href="#m6344d122d1" y="77.02635"/>
     <use x="551.911395" xlink:href="#m6344d122d1" y="77.41356"/>
     <use x="556.660887" xlink:href="#m6344d122d1" y="77.822827"/>
     <use x="561.410379" xlink:href="#m6344d122d1" y="78.184854"/>
     <use x="566.159871" xlink:href="#m6344d122d1" y="77.303304"/>
     <use x="570.909363" xlink:href="#m6344d122d1" y="77.063638"/>
    </g>
   </g>
   <g id="line2d_22">
    <path clip-path="url(#p1cba086d58)" d="M 100.709655 30.713211 
L 105.459147 30.05615 
L 110.208639 28.872701 
L 114.958131 27.936096 
L 119.707623 27.991666 
L 124.457115 29.17886 
L 129.206607 30.769768 
L 133.956099 31.567282 
L 138.705591 30.819118 
L 143.455083 28.8417 
L 148.204575 26.887819 
L 152.954067 26.441521 
L 157.703559 28.182182 
L 162.453051 31.183379 
L 167.202543 33.254855 
L 171.952035 32.639508 
L 176.701527 29.467611 
L 181.451019 25.666689 
L 186.200511 23.946188 
L 190.950003 26.185418 
L 195.699495 31.550572 
L 200.448987 36.17882 
L 205.198479 36.267456 
L 209.947971 31.467876 
L 214.697463 24.692828 
L 219.446955 20.47392 
L 224.196447 22.867542 
L 228.945939 31.899633 
L 233.695431 41.032899 
L 238.444923 42.55086 
L 243.194415 35.693522 
L 247.943907 25.170803 
L 252.693399 17.884262 
L 257.442891 20.707472 
L 262.192383 34.767353 
L 266.941875 48.959322 
L 271.691367 50.614452 
L 276.440859 41.315372 
L 281.190351 29.09216 
L 285.939843 22.986086 
L 290.689335 30.307061 
L 295.438827 47.627033 
L 300.188319 57.998398 
L 304.937811 54.801101 
L 309.687303 45.940605 
L 314.436795 40.262613 
L 319.186287 43.585212 
L 323.935779 53.602218 
L 328.685271 60.396234 
L 333.434763 60.029378 
L 338.184255 56.976147 
L 342.933747 56.06271 
L 347.683239 58.609227 
L 352.432731 62.181582 
L 357.182223 64.114379 
L 361.931715 64.457342 
L 366.681207 64.664621 
L 371.430699 65.54184 
L 376.180191 66.813298 
L 380.929683 67.912324 
L 385.679175 68.679033 
L 390.428667 69.296663 
L 395.178159 69.933512 
L 399.927651 70.594911 
L 404.677143 71.217586 
L 409.426635 71.769629 
L 414.176127 72.265177 
L 418.925619 72.725683 
L 423.675111 73.159252 
L 428.424603 73.563659 
L 433.174095 73.937241 
L 437.923587 74.28163 
L 442.673079 74.6006 
L 447.422571 74.897111 
L 452.172063 75.173158 
L 456.921555 75.429845 
L 461.671047 75.668344 
L 466.420539 75.890336 
L 471.170031 76.097356 
L 475.919523 76.290348 
L 480.669015 76.470635 
L 485.418507 76.638973 
L 490.167999 76.7965 
L 494.917491 76.943774 
L 499.666983 77.081794 
L 504.416475 77.211092 
L 509.165967 77.332409 
L 513.915459 77.446258 
L 518.664951 77.553087 
L 523.414443 77.653542 
L 528.163935 77.74786 
L 532.913427 77.836629 
L 537.662919 77.9201 
L 542.412411 77.99857 
L 547.161903 78.072488 
L 551.911395 78.141979 
L 556.660887 78.207373 
L 561.410379 78.268949 
L 566.159871 78.326805 
L 570.909363 78.381222 
" style="fill:none;stroke:#ff0000;"/>
   </g>
   <g id="patch_3">
    <path d="M 86.603664 80.581608 
L 86.603664 2.834646 
" style="fill:none;stroke:#000000;stroke-linecap:square;stroke-linejoin:miter;"/>
   </g>
   <g id="patch_4">
    <path d="M 585.015354 80.581608 
L 585.015354 2.834646 
" style="fill:none;stroke:#000000;stroke-linecap:square;stroke-linejoin:miter;"/>
   </g>
   <g id="patch_5">
    <path d="M 86.603664 80.581608 
L 585.015354 80.581608 
" style="fill:none;stroke:#000000;stroke-linecap:square;stroke-linejoin:miter;"/>
   </g>
   <g id="patch_6">
    <path d="M 86.603664 2.834646 
L 585.015354 2.834646 
" style="fill:none;stroke:#000000;stroke-linecap:square;stroke-linejoin:miter;"/>
   </g>
  </g>
  <g id="axes_2">
   <g id="patch_7">
    <path d="M 86.603664 165.311167 
L 585.015354 165.311167 
L 585.015354 87.564205 
L 86.603664 87.564205 
z
" style="fill:#ffffff;"/>
   </g>
   <g id="matplotlib.axis_3">
    <g id="xtick_7"/>
    <g id="xtick_8"/>
    <g id="xtick_9"/>
    <g id="xtick_10"/>
    <g id="xtick_11"/>
    <g id="xtick_12"/>
   </g>
   <g id="matplotlib.axis_4">
    <g id="ytick_8">
     <g id="line2d_23">
      <path clip-path="url(#p824755b5ad)" d="M 86.603664 163.599096 
L 585.015354 163.599096 
" style="fill:none;stroke:#000000;stroke-linecap:square;stroke-opacity:0.1;stroke-width:0.5;"/>
     </g>
     <g id="line2d_24">
      <g>
       <use style="stroke:#000000;stroke-width:0.5;" x="86.603664" xlink:href="#m17ee823d6d" y="163.599096"/>
      </g>
     </g>
     <g id="line2d_25">
      <g>
       <use style="stroke:#000000;stroke-width:0.5;" x="585.015354" xlink:href="#m0eb994419a" y="163.599096"/>
      </g>
     </g>
     <g id="text_9">
      <!-- $\mathregular{0.00115}$ -->
      <g transform="translate(33.423664 168.158159)scale(0.12 -0.12)">
       <use transform="translate(0 0.78125)" xlink:href="#DejaVuSans-48"/>
       <use transform="translate(63.623047 0.78125)" xlink:href="#DejaVuSans-46"/>
       <use transform="translate(95.410156 0.78125)" xlink:href="#DejaVuSans-48"/>
       <use transform="translate(159.033203 0.78125)" xlink:href="#DejaVuSans-48"/>
       <use transform="translate(222.65625 0.78125)" xlink:href="#DejaVuSans-49"/>
       <use transform="translate(286.279297 0.78125)" xlink:href="#DejaVuSans-49"/>
       <use transform="translate(349.902344 0.78125)" xlink:href="#DejaVuSans-53"/>
      </g>
     </g>
    </g>
    <g id="ytick_9">
     <g id="line2d_26">
      <path clip-path="url(#p824755b5ad)" d="M 86.603664 151.633828 
L 585.015354 151.633828 
" style="fill:none;stroke:#000000;stroke-linecap:square;stroke-opacity:0.1;stroke-width:0.5;"/>
     </g>
     <g id="line2d_27">
      <g>
       <use style="stroke:#000000;stroke-width:0.5;" x="86.603664" xlink:href="#m17ee823d6d" y="151.633828"/>
      </g>
     </g>
     <g id="line2d_28">
      <g>
       <use style="stroke:#000000;stroke-width:0.5;" x="585.015354" xlink:href="#m0eb994419a" y="151.633828"/>
      </g>
     </g>
     <g id="text_10">
      <!-- $\mathregular{0.00120}$ -->
      <g transform="translate(33.423664 156.19289)scale(0.12 -0.12)">
       <use transform="translate(0 0.78125)" xlink:href="#DejaVuSans-48"/>
       <use transform="translate(63.623047 0.78125)" xlink:href="#DejaVuSans-46"/>
       <use transform="translate(95.410156 0.78125)" xlink:href="#DejaVuSans-48"/>
       <use transform="translate(159.033203 0.78125)" xlink:href="#DejaVuSans-48"/>
       <use transform="translate(222.65625 0.78125)" xlink:href="#DejaVuSans-49"/>
       <use transform="translate(286.279297 0.78125)" xlink:href="#DejaVuSans-50"/>
       <use transform="translate(349.902344 0.78125)" xlink:href="#DejaVuSans-48"/>
      </g>
     </g>
    </g>
    <g id="ytick_10">
     <g id="line2d_29">
      <path clip-path="url(#p824755b5ad)" d="M 86.603664 139.668559 
L 585.015354 139.668559 
" style="fill:none;stroke:#000000;stroke-linecap:square;stroke-opacity:0.1;stroke-width:0.5;"/>
     </g>
     <g id="line2d_30">
      <g>
       <use style="stroke:#000000;stroke-width:0.5;" x="86.603664" xlink:href="#m17ee823d6d" y="139.668559"/>
      </g>
     </g>
     <g id="line2d_31">
      <g>
       <use style="stroke:#000000;stroke-width:0.5;" x="585.015354" xlink:href="#m0eb994419a" y="139.668559"/>
      </g>
     </g>
     <g id="text_11">
      <!-- $\mathregular{0.00125}$ -->
      <g transform="translate(33.423664 144.227622)scale(0.12 -0.12)">
       <use transform="translate(0 0.78125)" xlink:href="#DejaVuSans-48"/>
       <use transform="translate(63.623047 0.78125)" xlink:href="#DejaVuSans-46"/>
       <use transform="translate(95.410156 0.78125)" xlink:href="#DejaVuSans-48"/>
       <use transform="translate(159.033203 0.78125)" xlink:href="#DejaVuSans-48"/>
       <use transform="translate(222.65625 0.78125)" xlink:href="#DejaVuSans-49"/>
       <use transform="translate(286.279297 0.78125)" xlink:href="#DejaVuSans-50"/>
       <use transform="translate(349.902344 0.78125)" xlink:href="#DejaVuSans-53"/>
      </g>
     </g>
    </g>
    <g id="ytick_11">
     <g id="line2d_32">
      <path clip-path="url(#p824755b5ad)" d="M 86.603664 127.703291 
L 585.015354 127.703291 
" style="fill:none;stroke:#000000;stroke-linecap:square;stroke-opacity:0.1;stroke-width:0.5;"/>
     </g>
     <g id="line2d_33">
      <g>
       <use style="stroke:#000000;stroke-width:0.5;" x="86.603664" xlink:href="#m17ee823d6d" y="127.703291"/>
      </g>
     </g>
     <g id="line2d_34">
      <g>
       <use style="stroke:#000000;stroke-width:0.5;" x="585.015354" xlink:href="#m0eb994419a" y="127.703291"/>
      </g>
     </g>
     <g id="text_12">
      <!-- $\mathregular{0.00130}$ -->
      <g transform="translate(33.423664 132.262353)scale(0.12 -0.12)">
       <use transform="translate(0 0.78125)" xlink:href="#DejaVuSans-48"/>
       <use transform="translate(63.623047 0.78125)" xlink:href="#DejaVuSans-46"/>
       <use transform="translate(95.410156 0.78125)" xlink:href="#DejaVuSans-48"/>
       <use transform="translate(159.033203 0.78125)" xlink:href="#DejaVuSans-48"/>
       <use transform="translate(222.65625 0.78125)" xlink:href="#DejaVuSans-49"/>
       <use transform="translate(286.279297 0.78125)" xlink:href="#DejaVuSans-51"/>
       <use transform="translate(349.902344 0.78125)" xlink:href="#DejaVuSans-48"/>
      </g>
     </g>
    </g>
    <g id="ytick_12">
     <g id="line2d_35">
      <path clip-path="url(#p824755b5ad)" d="M 86.603664 115.738022 
L 585.015354 115.738022 
" style="fill:none;stroke:#000000;stroke-linecap:square;stroke-opacity:0.1;stroke-width:0.5;"/>
     </g>
     <g id="line2d_36">
      <g>
       <use style="stroke:#000000;stroke-width:0.5;" x="86.603664" xlink:href="#m17ee823d6d" y="115.738022"/>
      </g>
     </g>
     <g id="line2d_37">
      <g>
       <use style="stroke:#000000;stroke-width:0.5;" x="585.015354" xlink:href="#m0eb994419a" y="115.738022"/>
      </g>
     </g>
     <g id="text_13">
      <!-- $\mathregular{0.00135}$ -->
      <g transform="translate(33.423664 120.297085)scale(0.12 -0.12)">
       <use transform="translate(0 0.78125)" xlink:href="#DejaVuSans-48"/>
       <use transform="translate(63.623047 0.78125)" xlink:href="#DejaVuSans-46"/>
       <use transform="translate(95.410156 0.78125)" xlink:href="#DejaVuSans-48"/>
       <use transform="translate(159.033203 0.78125)" xlink:href="#DejaVuSans-48"/>
       <use transform="translate(222.65625 0.78125)" xlink:href="#DejaVuSans-49"/>
       <use transform="translate(286.279297 0.78125)" xlink:href="#DejaVuSans-51"/>
       <use transform="translate(349.902344 0.78125)" xlink:href="#DejaVuSans-53"/>
      </g>
     </g>
    </g>
    <g id="ytick_13">
     <g id="line2d_38">
      <path clip-path="url(#p824755b5ad)" d="M 86.603664 103.772754 
L 585.015354 103.772754 
" style="fill:none;stroke:#000000;stroke-linecap:square;stroke-opacity:0.1;stroke-width:0.5;"/>
     </g>
     <g id="line2d_39">
      <g>
       <use style="stroke:#000000;stroke-width:0.5;" x="86.603664" xlink:href="#m17ee823d6d" y="103.772754"/>
      </g>
     </g>
     <g id="line2d_40">
      <g>
       <use style="stroke:#000000;stroke-width:0.5;" x="585.015354" xlink:href="#m0eb994419a" y="103.772754"/>
      </g>
     </g>
     <g id="text_14">
      <!-- $\mathregular{0.00140}$ -->
      <g transform="translate(33.423664 108.331816)scale(0.12 -0.12)">
       <use transform="translate(0 0.78125)" xlink:href="#DejaVuSans-48"/>
       <use transform="translate(63.623047 0.78125)" xlink:href="#DejaVuSans-46"/>
       <use transform="translate(95.410156 0.78125)" xlink:href="#DejaVuSans-48"/>
       <use transform="translate(159.033203 0.78125)" xlink:href="#DejaVuSans-48"/>
       <use transform="translate(222.65625 0.78125)" xlink:href="#DejaVuSans-49"/>
       <use transform="translate(286.279297 0.78125)" xlink:href="#DejaVuSans-52"/>
       <use transform="translate(349.902344 0.78125)" xlink:href="#DejaVuSans-48"/>
      </g>
     </g>
    </g>
    <g id="ytick_14">
     <g id="line2d_41">
      <path clip-path="url(#p824755b5ad)" d="M 86.603664 91.807485 
L 585.015354 91.807485 
" style="fill:none;stroke:#000000;stroke-linecap:square;stroke-opacity:0.1;stroke-width:0.5;"/>
     </g>
     <g id="line2d_42">
      <g>
       <use style="stroke:#000000;stroke-width:0.5;" x="86.603664" xlink:href="#m17ee823d6d" y="91.807485"/>
      </g>
     </g>
     <g id="line2d_43">
      <g>
       <use style="stroke:#000000;stroke-width:0.5;" x="585.015354" xlink:href="#m0eb994419a" y="91.807485"/>
      </g>
     </g>
     <g id="text_15">
      <!-- $\mathregular{0.00145}$ -->
      <g transform="translate(33.423664 96.366548)scale(0.12 -0.12)">
       <use transform="translate(0 0.78125)" xlink:href="#DejaVuSans-48"/>
       <use transform="translate(63.623047 0.78125)" xlink:href="#DejaVuSans-46"/>
       <use transform="translate(95.410156 0.78125)" xlink:href="#DejaVuSans-48"/>
       <use transform="translate(159.033203 0.78125)" xlink:href="#DejaVuSans-48"/>
       <use transform="translate(222.65625 0.78125)" xlink:href="#DejaVuSans-49"/>
       <use transform="translate(286.279297 0.78125)" xlink:href="#DejaVuSans-52"/>
       <use transform="translate(349.902344 0.78125)" xlink:href="#DejaVuSans-53"/>
      </g>
     </g>
    </g>
    <g id="text_16">
     <!-- $Y_{CO}$ -->
     <g transform="translate(26.096164 139.877686)rotate(-90)scale(0.16 -0.16)">
      <defs>
       <path d="M 45.609375 66.21875 
Q 37.5 66.21875 31.296875 62.28125 
Q 25.09375 58.34375 20.515625 50.296875 
Q 17.578125 45.171875 16.03125 39.40625 
Q 14.5 33.640625 14.5 27.78125 
Q 14.5 17.625 19.359375 12.109375 
Q 24.21875 6.59375 33.109375 6.59375 
Q 41.109375 6.59375 47.375 10.5625 
Q 53.65625 14.546875 58.109375 22.40625 
Q 61.078125 27.6875 62.640625 33.46875 
Q 64.203125 39.265625 64.203125 45.015625 
Q 64.203125 55.125 59.3125 60.671875 
Q 54.4375 66.21875 45.609375 66.21875 
z
M 32.8125 -1.421875 
Q 19.390625 -1.421875 11.6875 6.53125 
Q 4 14.5 4 28.328125 
Q 4 36.234375 7 44.484375 
Q 10.015625 52.734375 15.28125 59.1875 
Q 21.484375 66.75 29.09375 70.484375 
Q 36.71875 74.21875 45.90625 74.21875 
Q 59.28125 74.21875 66.984375 66.328125 
Q 74.703125 58.453125 74.703125 44.828125 
Q 74.703125 36.421875 71.765625 28.3125 
Q 68.84375 20.21875 63.375 13.625 
Q 57.125 6 49.578125 2.28125 
Q 42.046875 -1.421875 32.8125 -1.421875 
z
" id="DejaVuSans-Oblique-79"/>
      </defs>
      <use transform="translate(0 0.09375)" xlink:href="#DejaVuSans-Oblique-89"/>
      <use transform="translate(61.083984 -16.3125)scale(0.7)" xlink:href="#DejaVuSans-Oblique-67"/>
      <use transform="translate(109.960938 -16.3125)scale(0.7)" xlink:href="#DejaVuSans-Oblique-79"/>
     </g>
    </g>
   </g>
   <g id="PathCollection_2">
    <g clip-path="url(#p824755b5ad)">
     <use x="100.709655" xlink:href="#m6344d122d1" y="108.68662"/>
     <use x="105.459147" xlink:href="#m6344d122d1" y="109.644053"/>
     <use x="110.208639" xlink:href="#m6344d122d1" y="109.060031"/>
     <use x="114.958131" xlink:href="#m6344d122d1" y="106.499054"/>
     <use x="119.707623" xlink:href="#m6344d122d1" y="105.996608"/>
     <use x="124.457115" xlink:href="#m6344d122d1" y="105.92546"/>
     <use x="129.206607" xlink:href="#m6344d122d1" y="107.732584"/>
     <use x="133.956099" xlink:href="#m6344d122d1" y="108.606519"/>
     <use x="138.705591" xlink:href="#m6344d122d1" y="109.599676"/>
     <use x="143.455083" xlink:href="#m6344d122d1" y="109.765311"/>
     <use x="148.204575" xlink:href="#m6344d122d1" y="106.203466"/>
     <use x="152.954067" xlink:href="#m6344d122d1" y="104.29258"/>
     <use x="157.703559" xlink:href="#m6344d122d1" y="103.216179"/>
     <use x="162.453051" xlink:href="#m6344d122d1" y="105.204587"/>
     <use x="167.202543" xlink:href="#m6344d122d1" y="109.549278"/>
     <use x="171.952035" xlink:href="#m6344d122d1" y="112.445118"/>
     <use x="176.701527" xlink:href="#m6344d122d1" y="110.67198"/>
     <use x="181.451019" xlink:href="#m6344d122d1" y="108.083666"/>
     <use x="186.200511" xlink:href="#m6344d122d1" y="103.068625"/>
     <use x="190.950003" xlink:href="#m6344d122d1" y="100.366357"/>
     <use x="195.699495" xlink:href="#m6344d122d1" y="103.098565"/>
     <use x="200.448987" xlink:href="#m6344d122d1" y="109.207058"/>
     <use x="205.198479" xlink:href="#m6344d122d1" y="114.329334"/>
     <use x="209.947971" xlink:href="#m6344d122d1" y="115.014817"/>
     <use x="214.697463" xlink:href="#m6344d122d1" y="109.379881"/>
     <use x="219.446955" xlink:href="#m6344d122d1" y="101.11374"/>
     <use x="224.196447" xlink:href="#m6344d122d1" y="93.823144"/>
     <use x="228.945939" xlink:href="#m6344d122d1" y="94.614438"/>
     <use x="233.695431" xlink:href="#m6344d122d1" y="105.670097"/>
     <use x="238.444923" xlink:href="#m6344d122d1" y="119.267004"/>
     <use x="243.194415" xlink:href="#m6344d122d1" y="122.332461"/>
     <use x="247.943907" xlink:href="#m6344d122d1" y="114.435902"/>
     <use x="252.693399" xlink:href="#m6344d122d1" y="101.361277"/>
     <use x="257.442891" xlink:href="#m6344d122d1" y="89.76459"/>
     <use x="262.192383" xlink:href="#m6344d122d1" y="90.666802"/>
     <use x="266.941875" xlink:href="#m6344d122d1" y="113.375548"/>
     <use x="271.691367" xlink:href="#m6344d122d1" y="133.588858"/>
     <use x="276.440859" xlink:href="#m6344d122d1" y="135.534857"/>
     <use x="281.190351" xlink:href="#m6344d122d1" y="124.691564"/>
     <use x="285.939843" xlink:href="#m6344d122d1" y="109.978715"/>
     <use x="290.689335" xlink:href="#m6344d122d1" y="102.21992"/>
     <use x="295.438827" xlink:href="#m6344d122d1" y="110.501933"/>
     <use x="300.188319" xlink:href="#m6344d122d1" y="131.533971"/>
     <use x="304.937811" xlink:href="#m6344d122d1" y="141.252491"/>
     <use x="309.687303" xlink:href="#m6344d122d1" y="136.611438"/>
     <use x="314.436795" xlink:href="#m6344d122d1" y="127.430427"/>
     <use x="319.186287" xlink:href="#m6344d122d1" y="123.073835"/>
     <use x="323.935779" xlink:href="#m6344d122d1" y="126.177184"/>
     <use x="328.685271" xlink:href="#m6344d122d1" y="135.951229"/>
     <use x="333.434763" xlink:href="#m6344d122d1" y="141.823134"/>
     <use x="338.184255" xlink:href="#m6344d122d1" y="140.234997"/>
     <use x="342.933747" xlink:href="#m6344d122d1" y="137.634875"/>
     <use x="347.683239" xlink:href="#m6344d122d1" y="136.896512"/>
     <use x="352.432731" xlink:href="#m6344d122d1" y="139.620333"/>
     <use x="357.182223" xlink:href="#m6344d122d1" y="143.35785"/>
     <use x="361.931715" xlink:href="#m6344d122d1" y="145.088347"/>
     <use x="366.681207" xlink:href="#m6344d122d1" y="145.486054"/>
     <use x="371.430699" xlink:href="#m6344d122d1" y="145.302567"/>
     <use x="376.180191" xlink:href="#m6344d122d1" y="146.603514"/>
     <use x="380.929683" xlink:href="#m6344d122d1" y="148.068798"/>
     <use x="385.679175" xlink:href="#m6344d122d1" y="149.4903"/>
     <use x="390.428667" xlink:href="#m6344d122d1" y="150.471425"/>
     <use x="395.178159" xlink:href="#m6344d122d1" y="151.49178"/>
     <use x="399.927651" xlink:href="#m6344d122d1" y="151.809156"/>
     <use x="404.677143" xlink:href="#m6344d122d1" y="152.720721"/>
     <use x="409.426635" xlink:href="#m6344d122d1" y="154.255611"/>
     <use x="414.176127" xlink:href="#m6344d122d1" y="154.429677"/>
     <use x="418.925619" xlink:href="#m6344d122d1" y="155.850906"/>
     <use x="423.675111" xlink:href="#m6344d122d1" y="157.084187"/>
     <use x="428.424603" xlink:href="#m6344d122d1" y="156.745226"/>
     <use x="433.174095" xlink:href="#m6344d122d1" y="158.587021"/>
     <use x="437.923587" xlink:href="#m6344d122d1" y="159.114694"/>
     <use x="442.673079" xlink:href="#m6344d122d1" y="158.687209"/>
     <use x="447.422571" xlink:href="#m6344d122d1" y="158.954864"/>
     <use x="452.172063" xlink:href="#m6344d122d1" y="159.725692"/>
     <use x="456.921555" xlink:href="#m6344d122d1" y="159.098596"/>
     <use x="461.671047" xlink:href="#m6344d122d1" y="159.928582"/>
     <use x="466.420539" xlink:href="#m6344d122d1" y="159.978612"/>
     <use x="471.170031" xlink:href="#m6344d122d1" y="159.093908"/>
     <use x="475.919523" xlink:href="#m6344d122d1" y="160.009155"/>
     <use x="480.669015" xlink:href="#m6344d122d1" y="160.127917"/>
     <use x="485.418507" xlink:href="#m6344d122d1" y="160.888803"/>
     <use x="490.167999" xlink:href="#m6344d122d1" y="160.946641"/>
     <use x="494.917491" xlink:href="#m6344d122d1" y="161.030052"/>
     <use x="499.666983" xlink:href="#m6344d122d1" y="160.405199"/>
     <use x="504.416475" xlink:href="#m6344d122d1" y="160.105309"/>
     <use x="509.165967" xlink:href="#m6344d122d1" y="160.394667"/>
     <use x="513.915459" xlink:href="#m6344d122d1" y="161.135646"/>
     <use x="518.664951" xlink:href="#m6344d122d1" y="161.803634"/>
     <use x="523.414443" xlink:href="#m6344d122d1" y="161.315466"/>
     <use x="528.163935" xlink:href="#m6344d122d1" y="161.128761"/>
     <use x="532.913427" xlink:href="#m6344d122d1" y="161.545157"/>
     <use x="537.662919" xlink:href="#m6344d122d1" y="162.136653"/>
     <use x="542.412411" xlink:href="#m6344d122d1" y="161.672572"/>
     <use x="547.161903" xlink:href="#m6344d122d1" y="161.998848"/>
     <use x="551.911395" xlink:href="#m6344d122d1" y="162.189199"/>
     <use x="556.660887" xlink:href="#m6344d122d1" y="161.766556"/>
     <use x="561.410379" xlink:href="#m6344d122d1" y="162.444046"/>
     <use x="566.159871" xlink:href="#m6344d122d1" y="162.472943"/>
     <use x="570.909363" xlink:href="#m6344d122d1" y="163.023782"/>
    </g>
   </g>
   <g id="line2d_44">
    <path clip-path="url(#p824755b5ad)" d="M 100.709655 108.84521 
L 105.459147 109.138035 
L 110.208639 108.651294 
L 114.958131 107.66543 
L 119.707623 106.8256 
L 124.457115 106.792563 
L 129.206607 107.746536 
L 133.956099 109.107211 
L 138.705591 109.857306 
L 143.455083 109.32537 
L 148.204575 107.706144 
L 152.954067 105.999238 
L 157.703559 105.483602 
L 162.453051 106.852278 
L 167.202543 109.403507 
L 171.952035 111.268521 
L 176.701527 110.933979 
L 181.451019 108.406026 
L 186.200511 105.16383 
L 190.950003 103.474267 
L 195.699495 105.160142 
L 200.448987 109.71499 
L 205.198479 113.787188 
L 209.947971 114.167446 
L 214.697463 110.473487 
L 219.446955 104.848458 
L 224.196447 100.921402 
L 228.945939 102.549065 
L 233.695431 110.284594 
L 238.444923 118.203128 
L 243.194415 119.926345 
L 247.943907 114.860267 
L 252.693399 106.368184 
L 257.442891 99.759771 
L 262.192383 101.579155 
L 266.941875 113.860142 
L 271.691367 125.90211 
L 276.440859 127.936263 
L 281.190351 121.251168 
L 285.939843 111.460124 
L 290.689335 105.846226 
L 295.438827 112.024606 
L 300.188319 126.884433 
L 304.937811 135.544006 
L 309.687303 134.011267 
L 314.436795 127.564535 
L 319.186287 123.065018 
L 323.935779 126.002812 
L 328.685271 134.427388 
L 333.434763 140.195725 
L 338.184255 140.665668 
L 342.933747 138.896269 
L 347.683239 138.56868 
L 352.432731 140.86639 
L 357.182223 143.950083 
L 361.931715 145.859151 
L 366.681207 146.583934 
L 371.430699 147.132122 
L 376.180191 148.107217 
L 380.929683 149.349257 
L 385.679175 150.465784 
L 390.428667 151.33256 
L 395.178159 152.065458 
L 399.927651 152.782889 
L 404.677143 153.498391 
L 409.426635 154.17243 
L 414.176127 154.783929 
L 418.925619 155.340875 
L 423.675111 155.859078 
L 428.424603 156.346079 
L 433.174095 156.802277 
L 437.923587 157.227611 
L 442.673079 157.623734 
L 447.422571 157.993801 
L 452.172063 158.340996 
L 456.921555 158.667414 
L 461.671047 158.974285 
L 466.420539 159.26322 
L 471.170031 159.535932 
L 475.919523 159.793576 
L 480.669015 160.03767 
L 485.418507 160.269125 
L 490.167999 160.489202 
L 494.917491 160.698557 
L 499.666983 160.898246 
L 504.416475 161.088891 
L 509.165967 161.271317 
L 513.915459 161.446105 
L 518.664951 161.613749 
L 523.414443 161.774918 
L 528.163935 161.929905 
L 532.913427 162.079319 
L 537.662919 162.223447 
L 542.412411 162.362609 
L 547.161903 162.497259 
L 551.911395 162.627549 
L 556.660887 162.753815 
L 561.410379 162.87634 
L 566.159871 162.995242 
L 570.909363 163.110781 
" style="fill:none;stroke:#ff0000;"/>
   </g>
   <g id="patch_8">
    <path d="M 86.603664 165.311167 
L 86.603664 87.564205 
" style="fill:none;stroke:#000000;stroke-linecap:square;stroke-linejoin:miter;"/>
   </g>
   <g id="patch_9">
    <path d="M 585.015354 165.311167 
L 585.015354 87.564205 
" style="fill:none;stroke:#000000;stroke-linecap:square;stroke-linejoin:miter;"/>
   </g>
   <g id="patch_10">
    <path d="M 86.603664 165.311167 
L 585.015354 165.311167 
" style="fill:none;stroke:#000000;stroke-linecap:square;stroke-linejoin:miter;"/>
   </g>
   <g id="patch_11">
    <path d="M 86.603664 87.564205 
L 585.015354 87.564205 
" style="fill:none;stroke:#000000;stroke-linecap:square;stroke-linejoin:miter;"/>
   </g>
   <g id="legend_1">
    <g id="line2d_45">
     <path d="M 600.615354 116.742061 
L 624.615354 116.742061 
" style="fill:none;"/>
    </g>
    <g id="line2d_46">
     <defs>
      <path d="M 0 4.8 
C 1.272975 4.8 2.493983 4.294242 3.394113 3.394113 
C 4.294242 2.493983 4.8 1.272975 4.8 0 
C 4.8 -1.272975 4.294242 -2.493983 3.394113 -3.394113 
C 2.493983 -4.294242 1.272975 -4.8 0 -4.8 
C -1.272975 -4.8 -2.493983 -4.294242 -3.394113 -3.394113 
C -4.294242 -2.493983 -4.8 -1.272975 -4.8 0 
C -4.8 1.272975 -4.294242 2.493983 -3.394113 3.394113 
C -2.493983 4.294242 -1.272975 4.8 0 4.8 
z
" id="m36b59d6412"/>
     </defs>
     <g>
      <use x="612.615354" xlink:href="#m36b59d6412" y="116.742061"/>
     </g>
    </g>
    <g id="text_17">
     <!-- Groundtruth -->
     <g transform="translate(634.215354 120.942061)scale(0.12 -0.12)">
      <defs>
       <path d="M 59.515625 10.40625 
L 59.515625 29.984375 
L 43.40625 29.984375 
L 43.40625 38.09375 
L 69.28125 38.09375 
L 69.28125 6.78125 
Q 63.578125 2.734375 56.6875 0.65625 
Q 49.8125 -1.421875 42 -1.421875 
Q 24.90625 -1.421875 15.25 8.5625 
Q 5.609375 18.5625 5.609375 36.375 
Q 5.609375 54.25 15.25 64.234375 
Q 24.90625 74.21875 42 74.21875 
Q 49.125 74.21875 55.546875 72.453125 
Q 61.96875 70.703125 67.390625 67.28125 
L 67.390625 56.78125 
Q 61.921875 61.421875 55.765625 63.765625 
Q 49.609375 66.109375 42.828125 66.109375 
Q 29.4375 66.109375 22.71875 58.640625 
Q 16.015625 51.171875 16.015625 36.375 
Q 16.015625 21.625 22.71875 14.15625 
Q 29.4375 6.6875 42.828125 6.6875 
Q 48.046875 6.6875 52.140625 7.59375 
Q 56.25 8.5 59.515625 10.40625 
z
" id="DejaVuSans-71"/>
       <path d="M 41.109375 46.296875 
Q 39.59375 47.171875 37.8125 47.578125 
Q 36.03125 48 33.890625 48 
Q 26.265625 48 22.1875 43.046875 
Q 18.109375 38.09375 18.109375 28.8125 
L 18.109375 0 
L 9.078125 0 
L 9.078125 54.6875 
L 18.109375 54.6875 
L 18.109375 46.1875 
Q 20.953125 51.171875 25.484375 53.578125 
Q 30.03125 56 36.53125 56 
Q 37.453125 56 38.578125 55.875 
Q 39.703125 55.765625 41.0625 55.515625 
z
" id="DejaVuSans-114"/>
       <path d="M 30.609375 48.390625 
Q 23.390625 48.390625 19.1875 42.75 
Q 14.984375 37.109375 14.984375 27.296875 
Q 14.984375 17.484375 19.15625 11.84375 
Q 23.34375 6.203125 30.609375 6.203125 
Q 37.796875 6.203125 41.984375 11.859375 
Q 46.1875 17.53125 46.1875 27.296875 
Q 46.1875 37.015625 41.984375 42.703125 
Q 37.796875 48.390625 30.609375 48.390625 
z
M 30.609375 56 
Q 42.328125 56 49.015625 48.375 
Q 55.71875 40.765625 55.71875 27.296875 
Q 55.71875 13.875 49.015625 6.21875 
Q 42.328125 -1.421875 30.609375 -1.421875 
Q 18.84375 -1.421875 12.171875 6.21875 
Q 5.515625 13.875 5.515625 27.296875 
Q 5.515625 40.765625 12.171875 48.375 
Q 18.84375 56 30.609375 56 
z
" id="DejaVuSans-111"/>
       <path d="M 8.5 21.578125 
L 8.5 54.6875 
L 17.484375 54.6875 
L 17.484375 21.921875 
Q 17.484375 14.15625 20.5 10.265625 
Q 23.53125 6.390625 29.59375 6.390625 
Q 36.859375 6.390625 41.078125 11.03125 
Q 45.3125 15.671875 45.3125 23.6875 
L 45.3125 54.6875 
L 54.296875 54.6875 
L 54.296875 0 
L 45.3125 0 
L 45.3125 8.40625 
Q 42.046875 3.421875 37.71875 1 
Q 33.40625 -1.421875 27.6875 -1.421875 
Q 18.265625 -1.421875 13.375 4.4375 
Q 8.5 10.296875 8.5 21.578125 
z
M 31.109375 56 
z
" id="DejaVuSans-117"/>
       <path d="M 54.890625 33.015625 
L 54.890625 0 
L 45.90625 0 
L 45.90625 32.71875 
Q 45.90625 40.484375 42.875 44.328125 
Q 39.84375 48.1875 33.796875 48.1875 
Q 26.515625 48.1875 22.3125 43.546875 
Q 18.109375 38.921875 18.109375 30.90625 
L 18.109375 0 
L 9.078125 0 
L 9.078125 54.6875 
L 18.109375 54.6875 
L 18.109375 46.1875 
Q 21.34375 51.125 25.703125 53.5625 
Q 30.078125 56 35.796875 56 
Q 45.21875 56 50.046875 50.171875 
Q 54.890625 44.34375 54.890625 33.015625 
z
" id="DejaVuSans-110"/>
       <path d="M 45.40625 46.390625 
L 45.40625 75.984375 
L 54.390625 75.984375 
L 54.390625 0 
L 45.40625 0 
L 45.40625 8.203125 
Q 42.578125 3.328125 38.25 0.953125 
Q 33.9375 -1.421875 27.875 -1.421875 
Q 17.96875 -1.421875 11.734375 6.484375 
Q 5.515625 14.40625 5.515625 27.296875 
Q 5.515625 40.1875 11.734375 48.09375 
Q 17.96875 56 27.875 56 
Q 33.9375 56 38.25 53.625 
Q 42.578125 51.265625 45.40625 46.390625 
z
M 14.796875 27.296875 
Q 14.796875 17.390625 18.875 11.75 
Q 22.953125 6.109375 30.078125 6.109375 
Q 37.203125 6.109375 41.296875 11.75 
Q 45.40625 17.390625 45.40625 27.296875 
Q 45.40625 37.203125 41.296875 42.84375 
Q 37.203125 48.484375 30.078125 48.484375 
Q 22.953125 48.484375 18.875 42.84375 
Q 14.796875 37.203125 14.796875 27.296875 
z
" id="DejaVuSans-100"/>
       <path d="M 18.3125 70.21875 
L 18.3125 54.6875 
L 36.8125 54.6875 
L 36.8125 47.703125 
L 18.3125 47.703125 
L 18.3125 18.015625 
Q 18.3125 11.328125 20.140625 9.421875 
Q 21.96875 7.515625 27.59375 7.515625 
L 36.8125 7.515625 
L 36.8125 0 
L 27.59375 0 
Q 17.1875 0 13.234375 3.875 
Q 9.28125 7.765625 9.28125 18.015625 
L 9.28125 47.703125 
L 2.6875 47.703125 
L 2.6875 54.6875 
L 9.28125 54.6875 
L 9.28125 70.21875 
z
" id="DejaVuSans-116"/>
       <path d="M 54.890625 33.015625 
L 54.890625 0 
L 45.90625 0 
L 45.90625 32.71875 
Q 45.90625 40.484375 42.875 44.328125 
Q 39.84375 48.1875 33.796875 48.1875 
Q 26.515625 48.1875 22.3125 43.546875 
Q 18.109375 38.921875 18.109375 30.90625 
L 18.109375 0 
L 9.078125 0 
L 9.078125 75.984375 
L 18.109375 75.984375 
L 18.109375 46.1875 
Q 21.34375 51.125 25.703125 53.5625 
Q 30.078125 56 35.796875 56 
Q 45.21875 56 50.046875 50.171875 
Q 54.890625 44.34375 54.890625 33.015625 
z
" id="DejaVuSans-104"/>
      </defs>
      <use xlink:href="#DejaVuSans-71"/>
      <use x="77.490234" xlink:href="#DejaVuSans-114"/>
      <use x="116.353516" xlink:href="#DejaVuSans-111"/>
      <use x="177.535156" xlink:href="#DejaVuSans-117"/>
      <use x="240.914062" xlink:href="#DejaVuSans-110"/>
      <use x="304.292969" xlink:href="#DejaVuSans-100"/>
      <use x="367.769531" xlink:href="#DejaVuSans-116"/>
      <use x="406.978516" xlink:href="#DejaVuSans-114"/>
      <use x="448.091797" xlink:href="#DejaVuSans-117"/>
      <use x="511.470703" xlink:href="#DejaVuSans-116"/>
      <use x="550.679688" xlink:href="#DejaVuSans-104"/>
     </g>
    </g>
    <g id="line2d_47">
     <path d="M 600.615354 134.355811 
L 624.615354 134.355811 
" style="fill:none;stroke:#ff0000;stroke-linejoin:miter;stroke-width:1.5;"/>
    </g>
    <g id="line2d_48"/>
    <g id="text_18">
     <!-- Prediction -->
     <g transform="translate(634.215354 138.555811)scale(0.12 -0.12)">
      <defs>
       <path d="M 19.671875 64.796875 
L 19.671875 37.40625 
L 32.078125 37.40625 
Q 38.96875 37.40625 42.71875 40.96875 
Q 46.484375 44.53125 46.484375 51.125 
Q 46.484375 57.671875 42.71875 61.234375 
Q 38.96875 64.796875 32.078125 64.796875 
z
M 9.8125 72.90625 
L 32.078125 72.90625 
Q 44.34375 72.90625 50.609375 67.359375 
Q 56.890625 61.8125 56.890625 51.125 
Q 56.890625 40.328125 50.609375 34.8125 
Q 44.34375 29.296875 32.078125 29.296875 
L 19.671875 29.296875 
L 19.671875 0 
L 9.8125 0 
z
" id="DejaVuSans-80"/>
       <path d="M 56.203125 29.59375 
L 56.203125 25.203125 
L 14.890625 25.203125 
Q 15.484375 15.921875 20.484375 11.0625 
Q 25.484375 6.203125 34.421875 6.203125 
Q 39.59375 6.203125 44.453125 7.46875 
Q 49.3125 8.734375 54.109375 11.28125 
L 54.109375 2.78125 
Q 49.265625 0.734375 44.1875 -0.34375 
Q 39.109375 -1.421875 33.890625 -1.421875 
Q 20.796875 -1.421875 13.15625 6.1875 
Q 5.515625 13.8125 5.515625 26.8125 
Q 5.515625 40.234375 12.765625 48.109375 
Q 20.015625 56 32.328125 56 
Q 43.359375 56 49.78125 48.890625 
Q 56.203125 41.796875 56.203125 29.59375 
z
M 47.21875 32.234375 
Q 47.125 39.59375 43.09375 43.984375 
Q 39.0625 48.390625 32.421875 48.390625 
Q 24.90625 48.390625 20.390625 44.140625 
Q 15.875 39.890625 15.1875 32.171875 
z
" id="DejaVuSans-101"/>
       <path d="M 9.421875 54.6875 
L 18.40625 54.6875 
L 18.40625 0 
L 9.421875 0 
z
M 9.421875 75.984375 
L 18.40625 75.984375 
L 18.40625 64.59375 
L 9.421875 64.59375 
z
" id="DejaVuSans-105"/>
       <path d="M 48.78125 52.59375 
L 48.78125 44.1875 
Q 44.96875 46.296875 41.140625 47.34375 
Q 37.3125 48.390625 33.40625 48.390625 
Q 24.65625 48.390625 19.8125 42.84375 
Q 14.984375 37.3125 14.984375 27.296875 
Q 14.984375 17.28125 19.8125 11.734375 
Q 24.65625 6.203125 33.40625 6.203125 
Q 37.3125 6.203125 41.140625 7.25 
Q 44.96875 8.296875 48.78125 10.40625 
L 48.78125 2.09375 
Q 45.015625 0.34375 40.984375 -0.53125 
Q 36.96875 -1.421875 32.421875 -1.421875 
Q 20.0625 -1.421875 12.78125 6.34375 
Q 5.515625 14.109375 5.515625 27.296875 
Q 5.515625 40.671875 12.859375 48.328125 
Q 20.21875 56 33.015625 56 
Q 37.15625 56 41.109375 55.140625 
Q 45.0625 54.296875 48.78125 52.59375 
z
" id="DejaVuSans-99"/>
      </defs>
      <use xlink:href="#DejaVuSans-80"/>
      <use x="58.552734" xlink:href="#DejaVuSans-114"/>
      <use x="97.416016" xlink:href="#DejaVuSans-101"/>
      <use x="158.939453" xlink:href="#DejaVuSans-100"/>
      <use x="222.416016" xlink:href="#DejaVuSans-105"/>
      <use x="250.199219" xlink:href="#DejaVuSans-99"/>
      <use x="305.179688" xlink:href="#DejaVuSans-116"/>
      <use x="344.388672" xlink:href="#DejaVuSans-105"/>
      <use x="372.171875" xlink:href="#DejaVuSans-111"/>
      <use x="433.353516" xlink:href="#DejaVuSans-110"/>
     </g>
    </g>
   </g>
  </g>
  <g id="axes_3">
   <g id="patch_12">
    <path d="M 86.603664 250.305354 
L 585.015354 250.305354 
L 585.015354 172.558392 
L 86.603664 172.558392 
z
" style="fill:#ffffff;"/>
   </g>
   <g id="matplotlib.axis_5">
    <g id="xtick_13">
     <g id="line2d_49">
      <path clip-path="url(#p2d31efcebf)" d="M 100.709655 250.305354 
L 100.709655 172.558392 
" style="fill:none;stroke:#000000;stroke-linecap:square;stroke-opacity:0.1;stroke-width:0.5;"/>
     </g>
     <g id="line2d_50">
      <defs>
       <path d="M 0 0 
L 0 -2.5 
" id="mcabf5513a0" style="stroke:#000000;stroke-width:0.5;"/>
      </defs>
      <g>
       <use style="stroke:#000000;stroke-width:0.5;" x="100.709655" xlink:href="#mcabf5513a0" y="250.305354"/>
      </g>
     </g>
     <g id="line2d_51">
      <defs>
       <path d="M 0 0 
L 0 2.5 
" id="m2491c7cec0" style="stroke:#000000;stroke-width:0.5;"/>
      </defs>
      <g>
       <use style="stroke:#000000;stroke-width:0.5;" x="100.709655" xlink:href="#m2491c7cec0" y="172.558392"/>
      </g>
     </g>
     <g id="text_19">
      <!-- $\mathregular{0.0}$ -->
      <g transform="translate(91.109655 262.923479)scale(0.12 -0.12)">
       <use transform="translate(0 0.78125)" xlink:href="#DejaVuSans-48"/>
       <use transform="translate(63.623047 0.78125)" xlink:href="#DejaVuSans-46"/>
       <use transform="translate(95.410156 0.78125)" xlink:href="#DejaVuSans-48"/>
      </g>
     </g>
    </g>
    <g id="xtick_14">
     <g id="line2d_52">
      <path clip-path="url(#p2d31efcebf)" d="M 194.749597 250.305354 
L 194.749597 172.558392 
" style="fill:none;stroke:#000000;stroke-linecap:square;stroke-opacity:0.1;stroke-width:0.5;"/>
     </g>
     <g id="line2d_53">
      <g>
       <use style="stroke:#000000;stroke-width:0.5;" x="194.749597" xlink:href="#mcabf5513a0" y="250.305354"/>
      </g>
     </g>
     <g id="line2d_54">
      <g>
       <use style="stroke:#000000;stroke-width:0.5;" x="194.749597" xlink:href="#m2491c7cec0" y="172.558392"/>
      </g>
     </g>
     <g id="text_20">
      <!-- $\mathregular{0.1}$ -->
      <g transform="translate(185.149597 262.923479)scale(0.12 -0.12)">
       <use transform="translate(0 0.78125)" xlink:href="#DejaVuSans-48"/>
       <use transform="translate(63.623047 0.78125)" xlink:href="#DejaVuSans-46"/>
       <use transform="translate(95.410156 0.78125)" xlink:href="#DejaVuSans-49"/>
      </g>
     </g>
    </g>
    <g id="xtick_15">
     <g id="line2d_55">
      <path clip-path="url(#p2d31efcebf)" d="M 288.789538 250.305354 
L 288.789538 172.558392 
" style="fill:none;stroke:#000000;stroke-linecap:square;stroke-opacity:0.1;stroke-width:0.5;"/>
     </g>
     <g id="line2d_56">
      <g>
       <use style="stroke:#000000;stroke-width:0.5;" x="288.789538" xlink:href="#mcabf5513a0" y="250.305354"/>
      </g>
     </g>
     <g id="line2d_57">
      <g>
       <use style="stroke:#000000;stroke-width:0.5;" x="288.789538" xlink:href="#m2491c7cec0" y="172.558392"/>
      </g>
     </g>
     <g id="text_21">
      <!-- $\mathregular{0.2}$ -->
      <g transform="translate(279.549538 262.923479)scale(0.12 -0.12)">
       <use transform="translate(0 0.78125)" xlink:href="#DejaVuSans-48"/>
       <use transform="translate(63.623047 0.78125)" xlink:href="#DejaVuSans-46"/>
       <use transform="translate(89.910156 0.78125)" xlink:href="#DejaVuSans-50"/>
      </g>
     </g>
    </g>
    <g id="xtick_16">
     <g id="line2d_58">
      <path clip-path="url(#p2d31efcebf)" d="M 382.82948 250.305354 
L 382.82948 172.558392 
" style="fill:none;stroke:#000000;stroke-linecap:square;stroke-opacity:0.1;stroke-width:0.5;"/>
     </g>
     <g id="line2d_59">
      <g>
       <use style="stroke:#000000;stroke-width:0.5;" x="382.82948" xlink:href="#mcabf5513a0" y="250.305354"/>
      </g>
     </g>
     <g id="line2d_60">
      <g>
       <use style="stroke:#000000;stroke-width:0.5;" x="382.82948" xlink:href="#m2491c7cec0" y="172.558392"/>
      </g>
     </g>
     <g id="text_22">
      <!-- $\mathregular{0.3}$ -->
      <g transform="translate(373.22948 262.923479)scale(0.12 -0.12)">
       <use transform="translate(0 0.78125)" xlink:href="#DejaVuSans-48"/>
       <use transform="translate(63.623047 0.78125)" xlink:href="#DejaVuSans-46"/>
       <use transform="translate(95.410156 0.78125)" xlink:href="#DejaVuSans-51"/>
      </g>
     </g>
    </g>
    <g id="xtick_17">
     <g id="line2d_61">
      <path clip-path="url(#p2d31efcebf)" d="M 476.869421 250.305354 
L 476.869421 172.558392 
" style="fill:none;stroke:#000000;stroke-linecap:square;stroke-opacity:0.1;stroke-width:0.5;"/>
     </g>
     <g id="line2d_62">
      <g>
       <use style="stroke:#000000;stroke-width:0.5;" x="476.869421" xlink:href="#mcabf5513a0" y="250.305354"/>
      </g>
     </g>
     <g id="line2d_63">
      <g>
       <use style="stroke:#000000;stroke-width:0.5;" x="476.869421" xlink:href="#m2491c7cec0" y="172.558392"/>
      </g>
     </g>
     <g id="text_23">
      <!-- $\mathregular{0.4}$ -->
      <g transform="translate(467.269421 262.923479)scale(0.12 -0.12)">
       <use transform="translate(0 0.78125)" xlink:href="#DejaVuSans-48"/>
       <use transform="translate(63.623047 0.78125)" xlink:href="#DejaVuSans-46"/>
       <use transform="translate(95.410156 0.78125)" xlink:href="#DejaVuSans-52"/>
      </g>
     </g>
    </g>
    <g id="xtick_18">
     <g id="line2d_64">
      <path clip-path="url(#p2d31efcebf)" d="M 570.909363 250.305354 
L 570.909363 172.558392 
" style="fill:none;stroke:#000000;stroke-linecap:square;stroke-opacity:0.1;stroke-width:0.5;"/>
     </g>
     <g id="line2d_65">
      <g>
       <use style="stroke:#000000;stroke-width:0.5;" x="570.909363" xlink:href="#mcabf5513a0" y="250.305354"/>
      </g>
     </g>
     <g id="line2d_66">
      <g>
       <use style="stroke:#000000;stroke-width:0.5;" x="570.909363" xlink:href="#m2491c7cec0" y="172.558392"/>
      </g>
     </g>
     <g id="text_24">
      <!-- $\mathregular{0.5}$ -->
      <g transform="translate(561.309363 262.923479)scale(0.12 -0.12)">
       <use transform="translate(0 0.78125)" xlink:href="#DejaVuSans-48"/>
       <use transform="translate(63.623047 0.78125)" xlink:href="#DejaVuSans-46"/>
       <use transform="translate(95.410156 0.78125)" xlink:href="#DejaVuSans-53"/>
      </g>
     </g>
    </g>
    <g id="text_25">
     <!-- Time [s] -->
     <g transform="translate(303.283259 281.576604)scale(0.16 -0.16)">
      <defs>
       <path d="M -0.296875 72.90625 
L 61.375 72.90625 
L 61.375 64.59375 
L 35.5 64.59375 
L 35.5 0 
L 25.59375 0 
L 25.59375 64.59375 
L -0.296875 64.59375 
z
" id="DejaVuSans-84"/>
       <path d="M 52 44.1875 
Q 55.375 50.25 60.0625 53.125 
Q 64.75 56 71.09375 56 
Q 79.640625 56 84.28125 50.015625 
Q 88.921875 44.046875 88.921875 33.015625 
L 88.921875 0 
L 79.890625 0 
L 79.890625 32.71875 
Q 79.890625 40.578125 77.09375 44.375 
Q 74.3125 48.1875 68.609375 48.1875 
Q 61.625 48.1875 57.5625 43.546875 
Q 53.515625 38.921875 53.515625 30.90625 
L 53.515625 0 
L 44.484375 0 
L 44.484375 32.71875 
Q 44.484375 40.625 41.703125 44.40625 
Q 38.921875 48.1875 33.109375 48.1875 
Q 26.21875 48.1875 22.15625 43.53125 
Q 18.109375 38.875 18.109375 30.90625 
L 18.109375 0 
L 9.078125 0 
L 9.078125 54.6875 
L 18.109375 54.6875 
L 18.109375 46.1875 
Q 21.1875 51.21875 25.484375 53.609375 
Q 29.78125 56 35.6875 56 
Q 41.65625 56 45.828125 52.96875 
Q 50 49.953125 52 44.1875 
z
" id="DejaVuSans-109"/>
       <path id="DejaVuSans-32"/>
       <path d="M 8.59375 75.984375 
L 29.296875 75.984375 
L 29.296875 69 
L 17.578125 69 
L 17.578125 -6.203125 
L 29.296875 -6.203125 
L 29.296875 -13.1875 
L 8.59375 -13.1875 
z
" id="DejaVuSans-91"/>
       <path d="M 44.28125 53.078125 
L 44.28125 44.578125 
Q 40.484375 46.53125 36.375 47.5 
Q 32.28125 48.484375 27.875 48.484375 
Q 21.1875 48.484375 17.84375 46.4375 
Q 14.5 44.390625 14.5 40.28125 
Q 14.5 37.15625 16.890625 35.375 
Q 19.28125 33.59375 26.515625 31.984375 
L 29.59375 31.296875 
Q 39.15625 29.25 43.1875 25.515625 
Q 47.21875 21.78125 47.21875 15.09375 
Q 47.21875 7.46875 41.1875 3.015625 
Q 35.15625 -1.421875 24.609375 -1.421875 
Q 20.21875 -1.421875 15.453125 -0.5625 
Q 10.6875 0.296875 5.421875 2 
L 5.421875 11.28125 
Q 10.40625 8.6875 15.234375 7.390625 
Q 20.0625 6.109375 24.8125 6.109375 
Q 31.15625 6.109375 34.5625 8.28125 
Q 37.984375 10.453125 37.984375 14.40625 
Q 37.984375 18.0625 35.515625 20.015625 
Q 33.0625 21.96875 24.703125 23.78125 
L 21.578125 24.515625 
Q 13.234375 26.265625 9.515625 29.90625 
Q 5.8125 33.546875 5.8125 39.890625 
Q 5.8125 47.609375 11.28125 51.796875 
Q 16.75 56 26.8125 56 
Q 31.78125 56 36.171875 55.265625 
Q 40.578125 54.546875 44.28125 53.078125 
z
" id="DejaVuSans-115"/>
       <path d="M 30.421875 75.984375 
L 30.421875 -13.1875 
L 9.71875 -13.1875 
L 9.71875 -6.203125 
L 21.390625 -6.203125 
L 21.390625 69 
L 9.71875 69 
L 9.71875 75.984375 
z
" id="DejaVuSans-93"/>
      </defs>
      <use xlink:href="#DejaVuSans-84"/>
      <use x="57.958984" xlink:href="#DejaVuSans-105"/>
      <use x="85.742188" xlink:href="#DejaVuSans-109"/>
      <use x="183.154297" xlink:href="#DejaVuSans-101"/>
      <use x="244.677734" xlink:href="#DejaVuSans-32"/>
      <use x="276.464844" xlink:href="#DejaVuSans-91"/>
      <use x="315.478516" xlink:href="#DejaVuSans-115"/>
      <use x="367.578125" xlink:href="#DejaVuSans-93"/>
     </g>
    </g>
   </g>
   <g id="matplotlib.axis_6">
    <g id="ytick_15">
     <g id="line2d_67">
      <path clip-path="url(#p2d31efcebf)" d="M 86.603664 235.857448 
L 585.015354 235.857448 
" style="fill:none;stroke:#000000;stroke-linecap:square;stroke-opacity:0.1;stroke-width:0.5;"/>
     </g>
     <g id="line2d_68">
      <g>
       <use style="stroke:#000000;stroke-width:0.5;" x="86.603664" xlink:href="#m17ee823d6d" y="235.857448"/>
      </g>
     </g>
     <g id="line2d_69">
      <g>
       <use style="stroke:#000000;stroke-width:0.5;" x="585.015354" xlink:href="#m0eb994419a" y="235.857448"/>
      </g>
     </g>
     <g id="text_26">
      <!-- $\mathregular{1267.5}$ -->
      <g transform="translate(41.103664 240.416511)scale(0.12 -0.12)">
       <defs>
        <path d="M 33.015625 40.375 
Q 26.375 40.375 22.484375 35.828125 
Q 18.609375 31.296875 18.609375 23.390625 
Q 18.609375 15.53125 22.484375 10.953125 
Q 26.375 6.390625 33.015625 6.390625 
Q 39.65625 6.390625 43.53125 10.953125 
Q 47.40625 15.53125 47.40625 23.390625 
Q 47.40625 31.296875 43.53125 35.828125 
Q 39.65625 40.375 33.015625 40.375 
z
M 52.59375 71.296875 
L 52.59375 62.3125 
Q 48.875 64.0625 45.09375 64.984375 
Q 41.3125 65.921875 37.59375 65.921875 
Q 27.828125 65.921875 22.671875 59.328125 
Q 17.53125 52.734375 16.796875 39.40625 
Q 19.671875 43.65625 24.015625 45.921875 
Q 28.375 48.1875 33.59375 48.1875 
Q 44.578125 48.1875 50.953125 41.515625 
Q 57.328125 34.859375 57.328125 23.390625 
Q 57.328125 12.15625 50.6875 5.359375 
Q 44.046875 -1.421875 33.015625 -1.421875 
Q 20.359375 -1.421875 13.671875 8.265625 
Q 6.984375 17.96875 6.984375 36.375 
Q 6.984375 53.65625 15.1875 63.9375 
Q 23.390625 74.21875 37.203125 74.21875 
Q 40.921875 74.21875 44.703125 73.484375 
Q 48.484375 72.75 52.59375 71.296875 
z
" id="DejaVuSans-54"/>
        <path d="M 8.203125 72.90625 
L 55.078125 72.90625 
L 55.078125 68.703125 
L 28.609375 0 
L 18.3125 0 
L 43.21875 64.59375 
L 8.203125 64.59375 
z
" id="DejaVuSans-55"/>
       </defs>
       <use transform="translate(0 0.78125)" xlink:href="#DejaVuSans-49"/>
       <use transform="translate(63.623047 0.78125)" xlink:href="#DejaVuSans-50"/>
       <use transform="translate(127.246094 0.78125)" xlink:href="#DejaVuSans-54"/>
       <use transform="translate(190.869141 0.78125)" xlink:href="#DejaVuSans-55"/>
       <use transform="translate(254.492188 0.78125)" xlink:href="#DejaVuSans-46"/>
       <use transform="translate(286.279297 0.78125)" xlink:href="#DejaVuSans-53"/>
      </g>
     </g>
    </g>
    <g id="ytick_16">
     <g id="line2d_70">
      <path clip-path="url(#p2d31efcebf)" d="M 86.603664 218.948224 
L 585.015354 218.948224 
" style="fill:none;stroke:#000000;stroke-linecap:square;stroke-opacity:0.1;stroke-width:0.5;"/>
     </g>
     <g id="line2d_71">
      <g>
       <use style="stroke:#000000;stroke-width:0.5;" x="86.603664" xlink:href="#m17ee823d6d" y="218.948224"/>
      </g>
     </g>
     <g id="line2d_72">
      <g>
       <use style="stroke:#000000;stroke-width:0.5;" x="585.015354" xlink:href="#m0eb994419a" y="218.948224"/>
      </g>
     </g>
     <g id="text_27">
      <!-- $\mathregular{1270.0}$ -->
      <g transform="translate(41.103664 223.507287)scale(0.12 -0.12)">
       <use transform="translate(0 0.78125)" xlink:href="#DejaVuSans-49"/>
       <use transform="translate(63.623047 0.78125)" xlink:href="#DejaVuSans-50"/>
       <use transform="translate(127.246094 0.78125)" xlink:href="#DejaVuSans-55"/>
       <use transform="translate(190.869141 0.78125)" xlink:href="#DejaVuSans-48"/>
       <use transform="translate(254.492188 0.78125)" xlink:href="#DejaVuSans-46"/>
       <use transform="translate(286.279297 0.78125)" xlink:href="#DejaVuSans-48"/>
      </g>
     </g>
    </g>
    <g id="ytick_17">
     <g id="line2d_73">
      <path clip-path="url(#p2d31efcebf)" d="M 86.603664 202.039 
L 585.015354 202.039 
" style="fill:none;stroke:#000000;stroke-linecap:square;stroke-opacity:0.1;stroke-width:0.5;"/>
     </g>
     <g id="line2d_74">
      <g>
       <use style="stroke:#000000;stroke-width:0.5;" x="86.603664" xlink:href="#m17ee823d6d" y="202.039"/>
      </g>
     </g>
     <g id="line2d_75">
      <g>
       <use style="stroke:#000000;stroke-width:0.5;" x="585.015354" xlink:href="#m0eb994419a" y="202.039"/>
      </g>
     </g>
     <g id="text_28">
      <!-- $\mathregular{1272.5}$ -->
      <g transform="translate(41.103664 206.598062)scale(0.12 -0.12)">
       <use transform="translate(0 0.78125)" xlink:href="#DejaVuSans-49"/>
       <use transform="translate(63.623047 0.78125)" xlink:href="#DejaVuSans-50"/>
       <use transform="translate(127.246094 0.78125)" xlink:href="#DejaVuSans-55"/>
       <use transform="translate(190.869141 0.78125)" xlink:href="#DejaVuSans-50"/>
       <use transform="translate(254.492188 0.78125)" xlink:href="#DejaVuSans-46"/>
       <use transform="translate(286.279297 0.78125)" xlink:href="#DejaVuSans-53"/>
      </g>
     </g>
    </g>
    <g id="ytick_18">
     <g id="line2d_76">
      <path clip-path="url(#p2d31efcebf)" d="M 86.603664 185.129776 
L 585.015354 185.129776 
" style="fill:none;stroke:#000000;stroke-linecap:square;stroke-opacity:0.1;stroke-width:0.5;"/>
     </g>
     <g id="line2d_77">
      <g>
       <use style="stroke:#000000;stroke-width:0.5;" x="86.603664" xlink:href="#m17ee823d6d" y="185.129776"/>
      </g>
     </g>
     <g id="line2d_78">
      <g>
       <use style="stroke:#000000;stroke-width:0.5;" x="585.015354" xlink:href="#m0eb994419a" y="185.129776"/>
      </g>
     </g>
     <g id="text_29">
      <!-- $\mathregular{1275.0}$ -->
      <g transform="translate(41.103664 189.688838)scale(0.12 -0.12)">
       <use transform="translate(0 0.78125)" xlink:href="#DejaVuSans-49"/>
       <use transform="translate(63.623047 0.78125)" xlink:href="#DejaVuSans-50"/>
       <use transform="translate(127.246094 0.78125)" xlink:href="#DejaVuSans-55"/>
       <use transform="translate(190.869141 0.78125)" xlink:href="#DejaVuSans-53"/>
       <use transform="translate(254.492188 0.78125)" xlink:href="#DejaVuSans-46"/>
       <use transform="translate(286.279297 0.78125)" xlink:href="#DejaVuSans-48"/>
      </g>
     </g>
    </g>
    <g id="text_30">
     <!-- T [K] -->
     <g transform="translate(33.776164 230.349373)rotate(-90)scale(0.16 -0.16)">
      <defs>
       <path d="M 9.8125 72.90625 
L 19.671875 72.90625 
L 19.671875 42.09375 
L 52.390625 72.90625 
L 65.09375 72.90625 
L 28.90625 38.921875 
L 67.671875 0 
L 54.6875 0 
L 19.671875 35.109375 
L 19.671875 0 
L 9.8125 0 
z
" id="DejaVuSans-75"/>
      </defs>
      <use xlink:href="#DejaVuSans-84"/>
      <use x="61.083984" xlink:href="#DejaVuSans-32"/>
      <use x="92.871094" xlink:href="#DejaVuSans-91"/>
      <use x="131.884766" xlink:href="#DejaVuSans-75"/>
      <use x="197.460938" xlink:href="#DejaVuSans-93"/>
     </g>
    </g>
   </g>
   <g id="PathCollection_3">
    <g clip-path="url(#p2d31efcebf)">
     <use x="100.709655" xlink:href="#m6344d122d1" y="236.895398"/>
     <use x="105.459147" xlink:href="#m6344d122d1" y="237.589773"/>
     <use x="110.208639" xlink:href="#m6344d122d1" y="237.713556"/>
     <use x="114.958131" xlink:href="#m6344d122d1" y="238.316023"/>
     <use x="119.707623" xlink:href="#m6344d122d1" y="238.761471"/>
     <use x="124.457115" xlink:href="#m6344d122d1" y="238.146274"/>
     <use x="129.206607" xlink:href="#m6344d122d1" y="238.288484"/>
     <use x="133.956099" xlink:href="#m6344d122d1" y="237.161571"/>
     <use x="138.705591" xlink:href="#m6344d122d1" y="236.462855"/>
     <use x="143.455083" xlink:href="#m6344d122d1" y="237.211977"/>
     <use x="148.204575" xlink:href="#m6344d122d1" y="239.221483"/>
     <use x="152.954067" xlink:href="#m6344d122d1" y="239.519369"/>
     <use x="157.703559" xlink:href="#m6344d122d1" y="239.05724"/>
     <use x="162.453051" xlink:href="#m6344d122d1" y="238.717228"/>
     <use x="167.202543" xlink:href="#m6344d122d1" y="236.697868"/>
     <use x="171.952035" xlink:href="#m6344d122d1" y="236.257596"/>
     <use x="176.701527" xlink:href="#m6344d122d1" y="236.832796"/>
     <use x="181.451019" xlink:href="#m6344d122d1" y="239.037954"/>
     <use x="186.200511" xlink:href="#m6344d122d1" y="240.857307"/>
     <use x="190.950003" xlink:href="#m6344d122d1" y="241.358764"/>
     <use x="195.699495" xlink:href="#m6344d122d1" y="239.72622"/>
     <use x="200.448987" xlink:href="#m6344d122d1" y="236.795738"/>
     <use x="205.198479" xlink:href="#m6344d122d1" y="234.997621"/>
     <use x="209.947971" xlink:href="#m6344d122d1" y="235.965989"/>
     <use x="214.697463" xlink:href="#m6344d122d1" y="239.49456"/>
     <use x="219.446955" xlink:href="#m6344d122d1" y="244.057329"/>
     <use x="224.196447" xlink:href="#m6344d122d1" y="245.681188"/>
     <use x="228.945939" xlink:href="#m6344d122d1" y="242.712224"/>
     <use x="233.695431" xlink:href="#m6344d122d1" y="236.938188"/>
     <use x="238.444923" xlink:href="#m6344d122d1" y="233.234498"/>
     <use x="243.194415" xlink:href="#m6344d122d1" y="233.65785"/>
     <use x="247.943907" xlink:href="#m6344d122d1" y="238.651638"/>
     <use x="252.693399" xlink:href="#m6344d122d1" y="244.833547"/>
     <use x="257.442891" xlink:href="#m6344d122d1" y="248.104969"/>
     <use x="262.192383" xlink:href="#m6344d122d1" y="243.637427"/>
     <use x="266.941875" xlink:href="#m6344d122d1" y="232.399128"/>
     <use x="271.691367" xlink:href="#m6344d122d1" y="225.845348"/>
     <use x="276.440859" xlink:href="#m6344d122d1" y="227.194613"/>
     <use x="281.190351" xlink:href="#m6344d122d1" y="232.982759"/>
     <use x="285.939843" xlink:href="#m6344d122d1" y="239.703426"/>
     <use x="290.689335" xlink:href="#m6344d122d1" y="239.661711"/>
     <use x="295.438827" xlink:href="#m6344d122d1" y="233.175439"/>
     <use x="300.188319" xlink:href="#m6344d122d1" y="224.662145"/>
     <use x="304.937811" xlink:href="#m6344d122d1" y="222.838981"/>
     <use x="309.687303" xlink:href="#m6344d122d1" y="225.657609"/>
     <use x="314.436795" xlink:href="#m6344d122d1" y="228.074486"/>
     <use x="319.186287" xlink:href="#m6344d122d1" y="229.258587"/>
     <use x="323.935779" xlink:href="#m6344d122d1" y="225.997747"/>
     <use x="328.685271" xlink:href="#m6344d122d1" y="221.558721"/>
     <use x="333.434763" xlink:href="#m6344d122d1" y="219.586795"/>
     <use x="338.184255" xlink:href="#m6344d122d1" y="219.419998"/>
     <use x="342.933747" xlink:href="#m6344d122d1" y="220.036001"/>
     <use x="347.683239" xlink:href="#m6344d122d1" y="220.174956"/>
     <use x="352.432731" xlink:href="#m6344d122d1" y="217.829428"/>
     <use x="357.182223" xlink:href="#m6344d122d1" y="215.829918"/>
     <use x="361.931715" xlink:href="#m6344d122d1" y="214.734361"/>
     <use x="366.681207" xlink:href="#m6344d122d1" y="213.539444"/>
     <use x="371.430699" xlink:href="#m6344d122d1" y="213.586415"/>
     <use x="376.180191" xlink:href="#m6344d122d1" y="212.28322"/>
     <use x="380.929683" xlink:href="#m6344d122d1" y="209.99743"/>
     <use x="385.679175" xlink:href="#m6344d122d1" y="209.151826"/>
     <use x="390.428667" xlink:href="#m6344d122d1" y="208.261966"/>
     <use x="395.178159" xlink:href="#m6344d122d1" y="206.418715"/>
     <use x="399.927651" xlink:href="#m6344d122d1" y="205.863668"/>
     <use x="404.677143" xlink:href="#m6344d122d1" y="204.357705"/>
     <use x="409.426635" xlink:href="#m6344d122d1" y="202.89573"/>
     <use x="414.176127" xlink:href="#m6344d122d1" y="202.037731"/>
     <use x="418.925619" xlink:href="#m6344d122d1" y="201.263311"/>
     <use x="423.675111" xlink:href="#m6344d122d1" y="199.493747"/>
     <use x="428.424603" xlink:href="#m6344d122d1" y="197.937274"/>
     <use x="433.174095" xlink:href="#m6344d122d1" y="197.129405"/>
     <use x="437.923587" xlink:href="#m6344d122d1" y="195.139839"/>
     <use x="442.673079" xlink:href="#m6344d122d1" y="194.987216"/>
     <use x="447.422571" xlink:href="#m6344d122d1" y="193.462252"/>
     <use x="452.172063" xlink:href="#m6344d122d1" y="192.47975"/>
     <use x="456.921555" xlink:href="#m6344d122d1" y="191.743012"/>
     <use x="461.671047" xlink:href="#m6344d122d1" y="190.251627"/>
     <use x="466.420539" xlink:href="#m6344d122d1" y="189.339697"/>
     <use x="471.170031" xlink:href="#m6344d122d1" y="189.220792"/>
     <use x="475.919523" xlink:href="#m6344d122d1" y="188.665073"/>
     <use x="480.669015" xlink:href="#m6344d122d1" y="186.798178"/>
     <use x="485.418507" xlink:href="#m6344d122d1" y="186.020978"/>
     <use x="490.167999" xlink:href="#m6344d122d1" y="185.666455"/>
     <use x="494.917491" xlink:href="#m6344d122d1" y="185.661641"/>
     <use x="499.666983" xlink:href="#m6344d122d1" y="183.688899"/>
     <use x="504.416475" xlink:href="#m6344d122d1" y="184.033751"/>
     <use x="509.165967" xlink:href="#m6344d122d1" y="182.655111"/>
     <use x="513.915459" xlink:href="#m6344d122d1" y="182.388577"/>
     <use x="518.664951" xlink:href="#m6344d122d1" y="181.593816"/>
     <use x="523.414443" xlink:href="#m6344d122d1" y="180.578692"/>
     <use x="528.163935" xlink:href="#m6344d122d1" y="179.550434"/>
     <use x="532.913427" xlink:href="#m6344d122d1" y="179.38999"/>
     <use x="537.662919" xlink:href="#m6344d122d1" y="178.802418"/>
     <use x="542.412411" xlink:href="#m6344d122d1" y="178.46229"/>
     <use x="547.161903" xlink:href="#m6344d122d1" y="177.448704"/>
     <use x="551.911395" xlink:href="#m6344d122d1" y="177.233001"/>
     <use x="556.660887" xlink:href="#m6344d122d1" y="177.27685"/>
     <use x="561.410379" xlink:href="#m6344d122d1" y="176.267389"/>
     <use x="566.159871" xlink:href="#m6344d122d1" y="175.603396"/>
     <use x="570.909363" xlink:href="#m6344d122d1" y="175.226176"/>
    </g>
   </g>
   <g id="line2d_79">
    <path clip-path="url(#p2d31efcebf)" d="M 100.709655 236.776134 
L 105.459147 236.872091 
L 110.208639 237.270841 
L 114.958131 237.781171 
L 119.707623 238.088936 
L 124.457115 237.969295 
L 129.206607 237.483074 
L 133.956099 236.994644 
L 138.705591 236.930864 
L 143.455083 237.451663 
L 148.204575 238.305448 
L 152.954067 238.948408 
L 157.703559 238.877359 
L 162.453051 238.031874 
L 167.202543 236.97162 
L 171.952035 236.532566 
L 176.701527 237.163171 
L 181.451019 238.576423 
L 186.200511 239.885766 
L 190.950003 240.081506 
L 195.699495 238.751913 
L 200.448987 236.676747 
L 205.198479 235.439203 
L 209.947971 236.073683 
L 214.697463 238.296471 
L 219.446955 240.734797 
L 224.196447 241.574118 
L 228.945939 239.650031 
L 233.695431 235.906112 
L 238.444923 233.256214 
L 243.194415 233.724509 
L 247.943907 236.912102 
L 252.693399 240.719881 
L 257.442891 242.283671 
L 262.192383 239.438897 
L 266.941875 233.531854 
L 271.691367 229.530712 
L 276.440859 230.114067 
L 281.190351 233.961597 
L 285.939843 237.908534 
L 290.689335 238.350017 
L 295.438827 233.628111 
L 300.188319 227.41921 
L 304.937811 224.895823 
L 309.687303 226.3289 
L 314.436795 228.918591 
L 319.186287 229.519817 
L 323.935779 226.77995 
L 328.685271 222.813579 
L 333.434763 220.580432 
L 338.184255 220.32828 
L 342.933747 220.477988 
L 347.683239 219.663278 
L 352.432731 217.847554 
L 357.182223 215.964338 
L 361.931715 214.618824 
L 366.681207 213.635314 
L 371.430699 212.595664 
L 376.180191 211.344887 
L 380.929683 210.007188 
L 385.679175 208.729604 
L 390.428667 207.532528 
L 395.178159 206.361968 
L 399.927651 205.182366 
L 404.677143 203.999486 
L 409.426635 202.832318 
L 414.176127 201.688402 
L 418.925619 200.564992 
L 423.675111 199.458235 
L 428.424603 198.367886 
L 433.174095 197.29587 
L 437.923587 196.243392 
L 442.673079 195.211071 
L 447.422571 194.198782 
L 452.172063 193.206497 
L 456.921555 192.234422 
L 461.671047 191.282769 
L 466.420539 190.351683 
L 471.170031 189.441133 
L 475.919523 188.551082 
L 480.669015 187.681437 
L 485.418507 186.832115 
L 490.167999 186.002946 
L 494.917491 185.193816 
L 499.666983 184.404476 
L 504.416475 183.634752 
L 509.165967 182.884355 
L 513.915459 182.153053 
L 518.664951 181.440606 
L 523.414443 180.746654 
L 528.163935 180.071008 
L 532.913427 179.413236 
L 537.662919 178.773108 
L 542.412411 178.150331 
L 547.161903 177.544459 
L 551.911395 176.955316 
L 556.660887 176.382494 
L 561.410379 175.825619 
L 566.159871 175.284512 
L 570.909363 174.758778 
" style="fill:none;stroke:#ff0000;"/>
   </g>
   <g id="patch_13">
    <path d="M 86.603664 250.305354 
L 86.603664 172.558392 
" style="fill:none;stroke:#000000;stroke-linecap:square;stroke-linejoin:miter;"/>
   </g>
   <g id="patch_14">
    <path d="M 585.015354 250.305354 
L 585.015354 172.558392 
" style="fill:none;stroke:#000000;stroke-linecap:square;stroke-linejoin:miter;"/>
   </g>
   <g id="patch_15">
    <path d="M 86.603664 250.305354 
L 585.015354 250.305354 
" style="fill:none;stroke:#000000;stroke-linecap:square;stroke-linejoin:miter;"/>
   </g>
   <g id="patch_16">
    <path d="M 86.603664 172.558392 
L 585.015354 172.558392 
" style="fill:none;stroke:#000000;stroke-linecap:square;stroke-linejoin:miter;"/>
   </g>
  </g>
 </g>
 <defs>
  <clipPath id="p1cba086d58">
   <rect height="77.746962" width="498.41169" x="86.603664" y="2.834646"/>
  </clipPath>
  <clipPath id="p824755b5ad">
   <rect height="77.746962" width="498.41169" x="86.603664" y="87.564205"/>
  </clipPath>
  <clipPath id="p2d31efcebf">
   <rect height="77.746962" width="498.41169" x="86.603664" y="172.558392"/>
  </clipPath>
 </defs>
</svg>
