<?xml version="1.0" encoding="utf-8" standalone="no"?>
<!DOCTYPE svg PUBLIC "-//W3C//DTD SVG 1.1//EN"
  "http://www.w3.org/Graphics/SVG/1.1/DTD/svg11.dtd">
<!-- Created with matplotlib (https://matplotlib.org/) -->
<svg height="288pt" version="1.1" viewBox="0 0 648 288" width="648pt" xmlns="http://www.w3.org/2000/svg" xmlns:xlink="http://www.w3.org/1999/xlink">
 <metadata>
  <rdf:RDF xmlns:cc="http://creativecommons.org/ns#" xmlns:dc="http://purl.org/dc/elements/1.1/" xmlns:rdf="http://www.w3.org/1999/02/22-rdf-syntax-ns#">
   <cc:Work>
    <dc:type rdf:resource="http://purl.org/dc/dcmitype/StillImage"/>
    <dc:date>2021-04-29T15:01:00.276022</dc:date>
    <dc:format>image/svg+xml</dc:format>
    <dc:creator>
     <cc:Agent>
      <dc:title>Matplotlib v3.3.2, https://matplotlib.org/</dc:title>
     </cc:Agent>
    </dc:creator>
   </cc:Work>
  </rdf:RDF>
 </metadata>
 <defs>
  <style type="text/css">*{stroke-linecap:butt;stroke-linejoin:round;}</style>
 </defs>
 <g id="figure_1">
  <g id="patch_1">
   <path d="M 0 288 
L 648 288 
L 648 0 
L 0 0 
z
" style="fill:#ffffff;"/>
  </g>
  <g id="axes_1">
   <g id="patch_2">
    <path d="M 75.183068 81.545354 
L 645.165354 81.545354 
L 645.165354 2.834646 
L 75.183068 2.834646 
z
" style="fill:#ffffff;"/>
   </g>
   <g id="matplotlib.axis_1">
    <g id="xtick_1"/>
    <g id="xtick_2"/>
    <g id="xtick_3"/>
    <g id="xtick_4"/>
    <g id="xtick_5"/>
    <g id="xtick_6"/>
   </g>
   <g id="matplotlib.axis_2">
    <g id="ytick_1">
     <g id="line2d_1">
      <path clip-path="url(#pe57c894c93)" d="M 75.183068 71.992461 
L 645.165354 71.992461 
" style="fill:none;stroke:#000000;stroke-linecap:square;stroke-opacity:0.1;stroke-width:0.5;"/>
     </g>
     <g id="line2d_2">
      <defs>
       <path d="M 0 0 
L 2.5 0 
" id="m778d881cef" style="stroke:#000000;stroke-width:0.5;"/>
      </defs>
      <g>
       <use style="stroke:#000000;stroke-width:0.5;" x="75.183068" xlink:href="#m778d881cef" y="71.992461"/>
      </g>
     </g>
     <g id="line2d_3">
      <defs>
       <path d="M 0 0 
L -2.5 0 
" id="m2db5308ee1" style="stroke:#000000;stroke-width:0.5;"/>
      </defs>
      <g>
       <use style="stroke:#000000;stroke-width:0.5;" x="645.165354" xlink:href="#m2db5308ee1" y="71.992461"/>
      </g>
     </g>
     <g id="text_1">
      <!-- $\mathregular{3×10^{-5}}$ -->
      <g transform="translate(25.843068 76.551524)scale(0.12 -0.12)">
       <defs>
        <path d="M 40.578125 39.3125 
Q 47.65625 37.796875 51.625 33 
Q 55.609375 28.21875 55.609375 21.1875 
Q 55.609375 10.40625 48.1875 4.484375 
Q 40.765625 -1.421875 27.09375 -1.421875 
Q 22.515625 -1.421875 17.65625 -0.515625 
Q 12.796875 0.390625 7.625 2.203125 
L 7.625 11.71875 
Q 11.71875 9.328125 16.59375 8.109375 
Q 21.484375 6.890625 26.8125 6.890625 
Q 36.078125 6.890625 40.9375 10.546875 
Q 45.796875 14.203125 45.796875 21.1875 
Q 45.796875 27.640625 41.28125 31.265625 
Q 36.765625 34.90625 28.71875 34.90625 
L 20.21875 34.90625 
L 20.21875 43.015625 
L 29.109375 43.015625 
Q 36.375 43.015625 40.234375 45.921875 
Q 44.09375 48.828125 44.09375 54.296875 
Q 44.09375 59.90625 40.109375 62.90625 
Q 36.140625 65.921875 28.71875 65.921875 
Q 24.65625 65.921875 20.015625 65.03125 
Q 15.375 64.15625 9.8125 62.3125 
L 9.8125 71.09375 
Q 15.4375 72.65625 20.34375 73.4375 
Q 25.25 74.21875 29.59375 74.21875 
Q 40.828125 74.21875 47.359375 69.109375 
Q 53.90625 64.015625 53.90625 55.328125 
Q 53.90625 49.265625 50.4375 45.09375 
Q 46.96875 40.921875 40.578125 39.3125 
z
" id="DejaVuSans-51"/>
        <path d="M 70.125 53.71875 
L 47.796875 31.296875 
L 70.125 8.984375 
L 64.3125 3.078125 
L 41.890625 25.484375 
L 19.484375 3.078125 
L 13.71875 8.984375 
L 35.984375 31.296875 
L 13.71875 53.71875 
L 19.484375 59.625 
L 41.890625 37.203125 
L 64.3125 59.625 
z
" id="DejaVuSans-215"/>
        <path d="M 12.40625 8.296875 
L 28.515625 8.296875 
L 28.515625 63.921875 
L 10.984375 60.40625 
L 10.984375 69.390625 
L 28.421875 72.90625 
L 38.28125 72.90625 
L 38.28125 8.296875 
L 54.390625 8.296875 
L 54.390625 0 
L 12.40625 0 
z
" id="DejaVuSans-49"/>
        <path d="M 31.78125 66.40625 
Q 24.171875 66.40625 20.328125 58.90625 
Q 16.5 51.421875 16.5 36.375 
Q 16.5 21.390625 20.328125 13.890625 
Q 24.171875 6.390625 31.78125 6.390625 
Q 39.453125 6.390625 43.28125 13.890625 
Q 47.125 21.390625 47.125 36.375 
Q 47.125 51.421875 43.28125 58.90625 
Q 39.453125 66.40625 31.78125 66.40625 
z
M 31.78125 74.21875 
Q 44.046875 74.21875 50.515625 64.515625 
Q 56.984375 54.828125 56.984375 36.375 
Q 56.984375 17.96875 50.515625 8.265625 
Q 44.046875 -1.421875 31.78125 -1.421875 
Q 19.53125 -1.421875 13.0625 8.265625 
Q 6.59375 17.96875 6.59375 36.375 
Q 6.59375 54.828125 13.0625 64.515625 
Q 19.53125 74.21875 31.78125 74.21875 
z
" id="DejaVuSans-48"/>
        <path d="M 10.59375 35.5 
L 73.1875 35.5 
L 73.1875 27.203125 
L 10.59375 27.203125 
z
" id="DejaVuSans-8722"/>
        <path d="M 10.796875 72.90625 
L 49.515625 72.90625 
L 49.515625 64.59375 
L 19.828125 64.59375 
L 19.828125 46.734375 
Q 21.96875 47.46875 24.109375 47.828125 
Q 26.265625 48.1875 28.421875 48.1875 
Q 40.625 48.1875 47.75 41.5 
Q 54.890625 34.8125 54.890625 23.390625 
Q 54.890625 11.625 47.5625 5.09375 
Q 40.234375 -1.421875 26.90625 -1.421875 
Q 22.3125 -1.421875 17.546875 -0.640625 
Q 12.796875 0.140625 7.71875 1.703125 
L 7.71875 11.625 
Q 12.109375 9.234375 16.796875 8.0625 
Q 21.484375 6.890625 26.703125 6.890625 
Q 35.15625 6.890625 40.078125 11.328125 
Q 45.015625 15.765625 45.015625 23.390625 
Q 45.015625 31 40.078125 35.4375 
Q 35.15625 39.890625 26.703125 39.890625 
Q 22.75 39.890625 18.8125 39.015625 
Q 14.890625 38.140625 10.796875 36.28125 
z
" id="DejaVuSans-53"/>
       </defs>
       <use transform="translate(0 0.684375)" xlink:href="#DejaVuSans-51"/>
       <use transform="translate(63.623047 0.684375)" xlink:href="#DejaVuSans-215"/>
       <use transform="translate(147.412109 0.684375)" xlink:href="#DejaVuSans-49"/>
       <use transform="translate(211.035156 0.684375)" xlink:href="#DejaVuSans-48"/>
       <use transform="translate(275.615234 38.965625)scale(0.7)" xlink:href="#DejaVuSans-8722"/>
       <use transform="translate(334.267578 38.965625)scale(0.7)" xlink:href="#DejaVuSans-53"/>
      </g>
     </g>
    </g>
    <g id="ytick_2">
     <g id="line2d_4">
      <path clip-path="url(#pe57c894c93)" d="M 75.183068 61.058063 
L 645.165354 61.058063 
" style="fill:none;stroke:#000000;stroke-linecap:square;stroke-opacity:0.1;stroke-width:0.5;"/>
     </g>
     <g id="line2d_5">
      <g>
       <use style="stroke:#000000;stroke-width:0.5;" x="75.183068" xlink:href="#m778d881cef" y="61.058063"/>
      </g>
     </g>
     <g id="line2d_6">
      <g>
       <use style="stroke:#000000;stroke-width:0.5;" x="645.165354" xlink:href="#m2db5308ee1" y="61.058063"/>
      </g>
     </g>
     <g id="text_2">
      <!-- $\mathregular{4×10^{-5}}$ -->
      <g transform="translate(25.843068 65.617126)scale(0.12 -0.12)">
       <defs>
        <path d="M 37.796875 64.3125 
L 12.890625 25.390625 
L 37.796875 25.390625 
z
M 35.203125 72.90625 
L 47.609375 72.90625 
L 47.609375 25.390625 
L 58.015625 25.390625 
L 58.015625 17.1875 
L 47.609375 17.1875 
L 47.609375 0 
L 37.796875 0 
L 37.796875 17.1875 
L 4.890625 17.1875 
L 4.890625 26.703125 
z
" id="DejaVuSans-52"/>
       </defs>
       <use transform="translate(0 0.684375)" xlink:href="#DejaVuSans-52"/>
       <use transform="translate(63.623047 0.684375)" xlink:href="#DejaVuSans-215"/>
       <use transform="translate(147.412109 0.684375)" xlink:href="#DejaVuSans-49"/>
       <use transform="translate(211.035156 0.684375)" xlink:href="#DejaVuSans-48"/>
       <use transform="translate(275.615234 38.965625)scale(0.7)" xlink:href="#DejaVuSans-8722"/>
       <use transform="translate(334.267578 38.965625)scale(0.7)" xlink:href="#DejaVuSans-53"/>
      </g>
     </g>
    </g>
    <g id="ytick_3">
     <g id="line2d_7">
      <path clip-path="url(#pe57c894c93)" d="M 75.183068 50.123665 
L 645.165354 50.123665 
" style="fill:none;stroke:#000000;stroke-linecap:square;stroke-opacity:0.1;stroke-width:0.5;"/>
     </g>
     <g id="line2d_8">
      <g>
       <use style="stroke:#000000;stroke-width:0.5;" x="75.183068" xlink:href="#m778d881cef" y="50.123665"/>
      </g>
     </g>
     <g id="line2d_9">
      <g>
       <use style="stroke:#000000;stroke-width:0.5;" x="645.165354" xlink:href="#m2db5308ee1" y="50.123665"/>
      </g>
     </g>
     <g id="text_3">
      <!-- $\mathregular{5×10^{-5}}$ -->
      <g transform="translate(25.843068 54.682727)scale(0.12 -0.12)">
       <use transform="translate(0 0.684375)" xlink:href="#DejaVuSans-53"/>
       <use transform="translate(63.623047 0.684375)" xlink:href="#DejaVuSans-215"/>
       <use transform="translate(147.412109 0.684375)" xlink:href="#DejaVuSans-49"/>
       <use transform="translate(211.035156 0.684375)" xlink:href="#DejaVuSans-48"/>
       <use transform="translate(275.615234 38.965625)scale(0.7)" xlink:href="#DejaVuSans-8722"/>
       <use transform="translate(334.267578 38.965625)scale(0.7)" xlink:href="#DejaVuSans-53"/>
      </g>
     </g>
    </g>
    <g id="ytick_4">
     <g id="line2d_10">
      <path clip-path="url(#pe57c894c93)" d="M 75.183068 39.189267 
L 645.165354 39.189267 
" style="fill:none;stroke:#000000;stroke-linecap:square;stroke-opacity:0.1;stroke-width:0.5;"/>
     </g>
     <g id="line2d_11">
      <g>
       <use style="stroke:#000000;stroke-width:0.5;" x="75.183068" xlink:href="#m778d881cef" y="39.189267"/>
      </g>
     </g>
     <g id="line2d_12">
      <g>
       <use style="stroke:#000000;stroke-width:0.5;" x="645.165354" xlink:href="#m2db5308ee1" y="39.189267"/>
      </g>
     </g>
     <g id="text_4">
      <!-- $\mathregular{6×10^{-5}}$ -->
      <g transform="translate(25.843068 43.748329)scale(0.12 -0.12)">
       <defs>
        <path d="M 33.015625 40.375 
Q 26.375 40.375 22.484375 35.828125 
Q 18.609375 31.296875 18.609375 23.390625 
Q 18.609375 15.53125 22.484375 10.953125 
Q 26.375 6.390625 33.015625 6.390625 
Q 39.65625 6.390625 43.53125 10.953125 
Q 47.40625 15.53125 47.40625 23.390625 
Q 47.40625 31.296875 43.53125 35.828125 
Q 39.65625 40.375 33.015625 40.375 
z
M 52.59375 71.296875 
L 52.59375 62.3125 
Q 48.875 64.0625 45.09375 64.984375 
Q 41.3125 65.921875 37.59375 65.921875 
Q 27.828125 65.921875 22.671875 59.328125 
Q 17.53125 52.734375 16.796875 39.40625 
Q 19.671875 43.65625 24.015625 45.921875 
Q 28.375 48.1875 33.59375 48.1875 
Q 44.578125 48.1875 50.953125 41.515625 
Q 57.328125 34.859375 57.328125 23.390625 
Q 57.328125 12.15625 50.6875 5.359375 
Q 44.046875 -1.421875 33.015625 -1.421875 
Q 20.359375 -1.421875 13.671875 8.265625 
Q 6.984375 17.96875 6.984375 36.375 
Q 6.984375 53.65625 15.1875 63.9375 
Q 23.390625 74.21875 37.203125 74.21875 
Q 40.921875 74.21875 44.703125 73.484375 
Q 48.484375 72.75 52.59375 71.296875 
z
" id="DejaVuSans-54"/>
       </defs>
       <use transform="translate(0 0.684375)" xlink:href="#DejaVuSans-54"/>
       <use transform="translate(63.623047 0.684375)" xlink:href="#DejaVuSans-215"/>
       <use transform="translate(147.412109 0.684375)" xlink:href="#DejaVuSans-49"/>
       <use transform="translate(211.035156 0.684375)" xlink:href="#DejaVuSans-48"/>
       <use transform="translate(275.615234 38.965625)scale(0.7)" xlink:href="#DejaVuSans-8722"/>
       <use transform="translate(334.267578 38.965625)scale(0.7)" xlink:href="#DejaVuSans-53"/>
      </g>
     </g>
    </g>
    <g id="ytick_5">
     <g id="line2d_13">
      <path clip-path="url(#pe57c894c93)" d="M 75.183068 28.254869 
L 645.165354 28.254869 
" style="fill:none;stroke:#000000;stroke-linecap:square;stroke-opacity:0.1;stroke-width:0.5;"/>
     </g>
     <g id="line2d_14">
      <g>
       <use style="stroke:#000000;stroke-width:0.5;" x="75.183068" xlink:href="#m778d881cef" y="28.254869"/>
      </g>
     </g>
     <g id="line2d_15">
      <g>
       <use style="stroke:#000000;stroke-width:0.5;" x="645.165354" xlink:href="#m2db5308ee1" y="28.254869"/>
      </g>
     </g>
     <g id="text_5">
      <!-- $\mathregular{7×10^{-5}}$ -->
      <g transform="translate(25.843068 32.813931)scale(0.12 -0.12)">
       <defs>
        <path d="M 8.203125 72.90625 
L 55.078125 72.90625 
L 55.078125 68.703125 
L 28.609375 0 
L 18.3125 0 
L 43.21875 64.59375 
L 8.203125 64.59375 
z
" id="DejaVuSans-55"/>
       </defs>
       <use transform="translate(0 0.684375)" xlink:href="#DejaVuSans-55"/>
       <use transform="translate(63.623047 0.684375)" xlink:href="#DejaVuSans-215"/>
       <use transform="translate(147.412109 0.684375)" xlink:href="#DejaVuSans-49"/>
       <use transform="translate(211.035156 0.684375)" xlink:href="#DejaVuSans-48"/>
       <use transform="translate(275.615234 38.965625)scale(0.7)" xlink:href="#DejaVuSans-8722"/>
       <use transform="translate(334.267578 38.965625)scale(0.7)" xlink:href="#DejaVuSans-53"/>
      </g>
     </g>
    </g>
    <g id="ytick_6">
     <g id="line2d_16">
      <path clip-path="url(#pe57c894c93)" d="M 75.183068 17.320471 
L 645.165354 17.320471 
" style="fill:none;stroke:#000000;stroke-linecap:square;stroke-opacity:0.1;stroke-width:0.5;"/>
     </g>
     <g id="line2d_17">
      <g>
       <use style="stroke:#000000;stroke-width:0.5;" x="75.183068" xlink:href="#m778d881cef" y="17.320471"/>
      </g>
     </g>
     <g id="line2d_18">
      <g>
       <use style="stroke:#000000;stroke-width:0.5;" x="645.165354" xlink:href="#m2db5308ee1" y="17.320471"/>
      </g>
     </g>
     <g id="text_6">
      <!-- $\mathregular{8×10^{-5}}$ -->
      <g transform="translate(25.843068 21.879533)scale(0.12 -0.12)">
       <defs>
        <path d="M 31.78125 34.625 
Q 24.75 34.625 20.71875 30.859375 
Q 16.703125 27.09375 16.703125 20.515625 
Q 16.703125 13.921875 20.71875 10.15625 
Q 24.75 6.390625 31.78125 6.390625 
Q 38.8125 6.390625 42.859375 10.171875 
Q 46.921875 13.96875 46.921875 20.515625 
Q 46.921875 27.09375 42.890625 30.859375 
Q 38.875 34.625 31.78125 34.625 
z
M 21.921875 38.8125 
Q 15.578125 40.375 12.03125 44.71875 
Q 8.5 49.078125 8.5 55.328125 
Q 8.5 64.0625 14.71875 69.140625 
Q 20.953125 74.21875 31.78125 74.21875 
Q 42.671875 74.21875 48.875 69.140625 
Q 55.078125 64.0625 55.078125 55.328125 
Q 55.078125 49.078125 51.53125 44.71875 
Q 48 40.375 41.703125 38.8125 
Q 48.828125 37.15625 52.796875 32.3125 
Q 56.78125 27.484375 56.78125 20.515625 
Q 56.78125 9.90625 50.3125 4.234375 
Q 43.84375 -1.421875 31.78125 -1.421875 
Q 19.734375 -1.421875 13.25 4.234375 
Q 6.78125 9.90625 6.78125 20.515625 
Q 6.78125 27.484375 10.78125 32.3125 
Q 14.796875 37.15625 21.921875 38.8125 
z
M 18.3125 54.390625 
Q 18.3125 48.734375 21.84375 45.5625 
Q 25.390625 42.390625 31.78125 42.390625 
Q 38.140625 42.390625 41.71875 45.5625 
Q 45.3125 48.734375 45.3125 54.390625 
Q 45.3125 60.0625 41.71875 63.234375 
Q 38.140625 66.40625 31.78125 66.40625 
Q 25.390625 66.40625 21.84375 63.234375 
Q 18.3125 60.0625 18.3125 54.390625 
z
" id="DejaVuSans-56"/>
       </defs>
       <use transform="translate(0 0.684375)" xlink:href="#DejaVuSans-56"/>
       <use transform="translate(63.623047 0.684375)" xlink:href="#DejaVuSans-215"/>
       <use transform="translate(147.412109 0.684375)" xlink:href="#DejaVuSans-49"/>
       <use transform="translate(211.035156 0.684375)" xlink:href="#DejaVuSans-48"/>
       <use transform="translate(275.615234 38.965625)scale(0.7)" xlink:href="#DejaVuSans-8722"/>
       <use transform="translate(334.267578 38.965625)scale(0.7)" xlink:href="#DejaVuSans-53"/>
      </g>
     </g>
    </g>
    <g id="ytick_7">
     <g id="line2d_19">
      <path clip-path="url(#pe57c894c93)" d="M 75.183068 6.386073 
L 645.165354 6.386073 
" style="fill:none;stroke:#000000;stroke-linecap:square;stroke-opacity:0.1;stroke-width:0.5;"/>
     </g>
     <g id="line2d_20">
      <g>
       <use style="stroke:#000000;stroke-width:0.5;" x="75.183068" xlink:href="#m778d881cef" y="6.386073"/>
      </g>
     </g>
     <g id="line2d_21">
      <g>
       <use style="stroke:#000000;stroke-width:0.5;" x="645.165354" xlink:href="#m2db5308ee1" y="6.386073"/>
      </g>
     </g>
     <g id="text_7">
      <!-- $\mathregular{9×10^{-5}}$ -->
      <g transform="translate(25.843068 10.945135)scale(0.12 -0.12)">
       <defs>
        <path d="M 10.984375 1.515625 
L 10.984375 10.5 
Q 14.703125 8.734375 18.5 7.8125 
Q 22.3125 6.890625 25.984375 6.890625 
Q 35.75 6.890625 40.890625 13.453125 
Q 46.046875 20.015625 46.78125 33.40625 
Q 43.953125 29.203125 39.59375 26.953125 
Q 35.25 24.703125 29.984375 24.703125 
Q 19.046875 24.703125 12.671875 31.3125 
Q 6.296875 37.9375 6.296875 49.421875 
Q 6.296875 60.640625 12.9375 67.421875 
Q 19.578125 74.21875 30.609375 74.21875 
Q 43.265625 74.21875 49.921875 64.515625 
Q 56.59375 54.828125 56.59375 36.375 
Q 56.59375 19.140625 48.40625 8.859375 
Q 40.234375 -1.421875 26.421875 -1.421875 
Q 22.703125 -1.421875 18.890625 -0.6875 
Q 15.09375 0.046875 10.984375 1.515625 
z
M 30.609375 32.421875 
Q 37.25 32.421875 41.125 36.953125 
Q 45.015625 41.5 45.015625 49.421875 
Q 45.015625 57.28125 41.125 61.84375 
Q 37.25 66.40625 30.609375 66.40625 
Q 23.96875 66.40625 20.09375 61.84375 
Q 16.21875 57.28125 16.21875 49.421875 
Q 16.21875 41.5 20.09375 36.953125 
Q 23.96875 32.421875 30.609375 32.421875 
z
" id="DejaVuSans-57"/>
       </defs>
       <use transform="translate(0 0.684375)" xlink:href="#DejaVuSans-57"/>
       <use transform="translate(63.623047 0.684375)" xlink:href="#DejaVuSans-215"/>
       <use transform="translate(147.412109 0.684375)" xlink:href="#DejaVuSans-49"/>
       <use transform="translate(211.035156 0.684375)" xlink:href="#DejaVuSans-48"/>
       <use transform="translate(275.615234 38.965625)scale(0.7)" xlink:href="#DejaVuSans-8722"/>
       <use transform="translate(334.267578 38.965625)scale(0.7)" xlink:href="#DejaVuSans-53"/>
      </g>
     </g>
    </g>
    <g id="text_8">
     <!-- $Y_{CH_4}$ -->
     <g transform="translate(17.363068 58.11)rotate(-90)scale(0.16 -0.16)">
      <defs>
       <path d="M 6.296875 72.90625 
L 16.890625 72.90625 
L 30.515625 42.921875 
L 56.5 72.90625 
L 67.578125 72.90625 
L 34.515625 34.71875 
L 27.78125 0 
L 17.921875 0 
L 24.609375 34.71875 
z
" id="DejaVuSans-Oblique-89"/>
       <path d="M 69.484375 67.28125 
L 67.484375 56.890625 
Q 62.796875 61.625 57.546875 63.921875 
Q 52.296875 66.21875 46.1875 66.21875 
Q 37.84375 66.21875 31.515625 62.203125 
Q 25.203125 58.203125 20.609375 50 
Q 17.671875 44.734375 16.125 38.84375 
Q 14.59375 32.953125 14.59375 27 
Q 14.59375 17.046875 19.75 11.8125 
Q 24.90625 6.59375 34.71875 6.59375 
Q 41.5 6.59375 47.75 8.765625 
Q 54 10.9375 59.90625 15.28125 
L 57.625 3.609375 
Q 51.8125 1.125 45.875 -0.140625 
Q 39.9375 -1.421875 33.984375 -1.421875 
Q 19.96875 -1.421875 12.078125 6.1875 
Q 4.203125 13.8125 4.203125 27.390625 
Q 4.203125 36.078125 7.203125 44.46875 
Q 10.203125 52.875 15.828125 59.8125 
Q 21.78125 67.1875 29.421875 70.703125 
Q 37.0625 74.21875 47.21875 74.21875 
Q 53.46875 74.21875 59.0625 72.484375 
Q 64.65625 70.75 69.484375 67.28125 
z
" id="DejaVuSans-Oblique-67"/>
       <path d="M 16.890625 72.90625 
L 26.8125 72.90625 
L 21 43.015625 
L 56.78125 43.015625 
L 62.59375 72.90625 
L 72.515625 72.90625 
L 58.296875 0 
L 48.390625 0 
L 55.171875 34.71875 
L 19.390625 34.71875 
L 12.59375 0 
L 2.6875 0 
z
" id="DejaVuSans-Oblique-72"/>
      </defs>
      <use transform="translate(0 0.09375)" xlink:href="#DejaVuSans-Oblique-89"/>
      <use transform="translate(61.083984 -16.3125)scale(0.7)" xlink:href="#DejaVuSans-Oblique-67"/>
      <use transform="translate(109.960938 -16.3125)scale(0.7)" xlink:href="#DejaVuSans-Oblique-72"/>
      <use transform="translate(162.597656 -27.796875)scale(0.49)" xlink:href="#DejaVuSans-52"/>
     </g>
    </g>
   </g>
   <g id="PathCollection_1">
    <defs>
     <path d="M 0 2 
C 0.530406 2 1.03916 1.789267 1.414214 1.414214 
C 1.789267 1.03916 2 0.530406 2 0 
C 2 -0.530406 1.789267 -1.03916 1.414214 -1.414214 
C 1.03916 -1.789267 0.530406 -2 0 -2 
C -0.530406 -2 -1.03916 -1.789267 -1.414214 -1.414214 
C -1.789267 -1.03916 -2 -0.530406 -2 0 
C -2 0.530406 -1.789267 1.03916 -1.414214 1.414214 
C -1.03916 1.789267 -0.530406 2 0 2 
z
" id="m3b4abf81cc"/>
    </defs>
    <g clip-path="url(#pe57c894c93)">
     <use x="91.314642" xlink:href="#m3b4abf81cc" y="56.072317"/>
     <use x="96.746149" xlink:href="#m3b4abf81cc" y="55.585164"/>
     <use x="102.177655" xlink:href="#m3b4abf81cc" y="55.090761"/>
     <use x="107.609162" xlink:href="#m3b4abf81cc" y="54.415761"/>
     <use x="113.040668" xlink:href="#m3b4abf81cc" y="54.275071"/>
     <use x="118.472174" xlink:href="#m3b4abf81cc" y="55.045166"/>
     <use x="123.903681" xlink:href="#m3b4abf81cc" y="56.083375"/>
     <use x="129.335187" xlink:href="#m3b4abf81cc" y="56.814942"/>
     <use x="134.766694" xlink:href="#m3b4abf81cc" y="56.152547"/>
     <use x="140.1982" xlink:href="#m3b4abf81cc" y="55.037024"/>
     <use x="145.629707" xlink:href="#m3b4abf81cc" y="53.545275"/>
     <use x="151.061213" xlink:href="#m3b4abf81cc" y="53.510454"/>
     <use x="156.49272" xlink:href="#m3b4abf81cc" y="54.261077"/>
     <use x="161.924226" xlink:href="#m3b4abf81cc" y="56.381869"/>
     <use x="167.355732" xlink:href="#m3b4abf81cc" y="57.883154"/>
     <use x="172.787239" xlink:href="#m3b4abf81cc" y="57.203121"/>
     <use x="178.218745" xlink:href="#m3b4abf81cc" y="55.21629"/>
     <use x="183.650252" xlink:href="#m3b4abf81cc" y="52.744126"/>
     <use x="189.081758" xlink:href="#m3b4abf81cc" y="51.093001"/>
     <use x="194.513265" xlink:href="#m3b4abf81cc" y="52.549926"/>
     <use x="199.944771" xlink:href="#m3b4abf81cc" y="56.181812"/>
     <use x="205.376278" xlink:href="#m3b4abf81cc" y="59.077819"/>
     <use x="210.807784" xlink:href="#m3b4abf81cc" y="59.497935"/>
     <use x="216.23929" xlink:href="#m3b4abf81cc" y="55.837509"/>
     <use x="221.670797" xlink:href="#m3b4abf81cc" y="50.920996"/>
     <use x="227.102303" xlink:href="#m3b4abf81cc" y="48.06966"/>
     <use x="232.53381" xlink:href="#m3b4abf81cc" y="49.030372"/>
     <use x="237.965316" xlink:href="#m3b4abf81cc" y="54.861054"/>
     <use x="243.396823" xlink:href="#m3b4abf81cc" y="61.520218"/>
     <use x="248.828329" xlink:href="#m3b4abf81cc" y="62.751321"/>
     <use x="254.259836" xlink:href="#m3b4abf81cc" y="57.963081"/>
     <use x="259.691342" xlink:href="#m3b4abf81cc" y="50.212119"/>
     <use x="265.122848" xlink:href="#m3b4abf81cc" y="44.494145"/>
     <use x="270.554355" xlink:href="#m3b4abf81cc" y="45.593522"/>
     <use x="275.985861" xlink:href="#m3b4abf81cc" y="56.566021"/>
     <use x="281.417368" xlink:href="#m3b4abf81cc" y="68.106446"/>
     <use x="286.848874" xlink:href="#m3b4abf81cc" y="68.41793"/>
     <use x="292.280381" xlink:href="#m3b4abf81cc" y="61.949146"/>
     <use x="297.711887" xlink:href="#m3b4abf81cc" y="54.129125"/>
     <use x="303.143394" xlink:href="#m3b4abf81cc" y="49.576854"/>
     <use x="308.5749" xlink:href="#m3b4abf81cc" y="54.557581"/>
     <use x="314.006406" xlink:href="#m3b4abf81cc" y="66.062864"/>
     <use x="319.437913" xlink:href="#m3b4abf81cc" y="70.776851"/>
     <use x="324.869419" xlink:href="#m3b4abf81cc" y="67.764817"/>
     <use x="330.300926" xlink:href="#m3b4abf81cc" y="62.467353"/>
     <use x="335.732432" xlink:href="#m3b4abf81cc" y="59.837557"/>
     <use x="341.163939" xlink:href="#m3b4abf81cc" y="61.414777"/>
     <use x="346.595445" xlink:href="#m3b4abf81cc" y="66.980636"/>
     <use x="352.026952" xlink:href="#m3b4abf81cc" y="70.239317"/>
     <use x="357.458458" xlink:href="#m3b4abf81cc" y="69.221314"/>
     <use x="362.889964" xlink:href="#m3b4abf81cc" y="67.323745"/>
     <use x="368.321471" xlink:href="#m3b4abf81cc" y="66.700007"/>
     <use x="373.752977" xlink:href="#m3b4abf81cc" y="67.767948"/>
     <use x="379.184484" xlink:href="#m3b4abf81cc" y="69.747788"/>
     <use x="384.61599" xlink:href="#m3b4abf81cc" y="70.492765"/>
     <use x="390.047497" xlink:href="#m3b4abf81cc" y="70.789161"/>
     <use x="395.479003" xlink:href="#m3b4abf81cc" y="70.502924"/>
     <use x="400.91051" xlink:href="#m3b4abf81cc" y="70.959894"/>
     <use x="406.342016" xlink:href="#m3b4abf81cc" y="71.350471"/>
     <use x="411.773522" xlink:href="#m3b4abf81cc" y="72.136605"/>
     <use x="417.205029" xlink:href="#m3b4abf81cc" y="72.769559"/>
     <use x="422.636535" xlink:href="#m3b4abf81cc" y="73.116286"/>
     <use x="428.068042" xlink:href="#m3b4abf81cc" y="73.216031"/>
     <use x="433.499548" xlink:href="#m3b4abf81cc" y="73.772106"/>
     <use x="438.931055" xlink:href="#m3b4abf81cc" y="74.295559"/>
     <use x="444.362561" xlink:href="#m3b4abf81cc" y="74.27038"/>
     <use x="449.794068" xlink:href="#m3b4abf81cc" y="74.968811"/>
     <use x="455.225574" xlink:href="#m3b4abf81cc" y="74.82775"/>
     <use x="460.65708" xlink:href="#m3b4abf81cc" y="75.399448"/>
     <use x="466.088587" xlink:href="#m3b4abf81cc" y="75.631252"/>
     <use x="471.520093" xlink:href="#m3b4abf81cc" y="76.009797"/>
     <use x="476.9516" xlink:href="#m3b4abf81cc" y="75.952071"/>
     <use x="482.383106" xlink:href="#m3b4abf81cc" y="76.258565"/>
     <use x="487.814613" xlink:href="#m3b4abf81cc" y="76.2542"/>
     <use x="493.246119" xlink:href="#m3b4abf81cc" y="76.128463"/>
     <use x="498.677626" xlink:href="#m3b4abf81cc" y="76.153805"/>
     <use x="504.109132" xlink:href="#m3b4abf81cc" y="76.398313"/>
     <use x="509.540638" xlink:href="#m3b4abf81cc" y="76.260393"/>
     <use x="514.972145" xlink:href="#m3b4abf81cc" y="76.462135"/>
     <use x="520.403651" xlink:href="#m3b4abf81cc" y="76.575138"/>
     <use x="525.835158" xlink:href="#m3b4abf81cc" y="76.417979"/>
     <use x="531.266664" xlink:href="#m3b4abf81cc" y="76.840566"/>
     <use x="536.698171" xlink:href="#m3b4abf81cc" y="76.312078"/>
     <use x="542.129677" xlink:href="#m3b4abf81cc" y="76.398939"/>
     <use x="547.561184" xlink:href="#m3b4abf81cc" y="76.798468"/>
     <use x="552.99269" xlink:href="#m3b4abf81cc" y="76.637837"/>
     <use x="558.424196" xlink:href="#m3b4abf81cc" y="76.668451"/>
     <use x="563.855703" xlink:href="#m3b4abf81cc" y="76.756144"/>
     <use x="569.287209" xlink:href="#m3b4abf81cc" y="76.939145"/>
     <use x="574.718716" xlink:href="#m3b4abf81cc" y="76.622263"/>
     <use x="580.150222" xlink:href="#m3b4abf81cc" y="76.823026"/>
     <use x="585.581729" xlink:href="#m3b4abf81cc" y="77.099804"/>
     <use x="591.013235" xlink:href="#m3b4abf81cc" y="76.572947"/>
     <use x="596.444742" xlink:href="#m3b4abf81cc" y="77.215091"/>
     <use x="601.876248" xlink:href="#m3b4abf81cc" y="76.757111"/>
     <use x="607.307754" xlink:href="#m3b4abf81cc" y="76.930639"/>
     <use x="612.739261" xlink:href="#m3b4abf81cc" y="77.114052"/>
     <use x="618.170767" xlink:href="#m3b4abf81cc" y="77.276295"/>
     <use x="623.602274" xlink:href="#m3b4abf81cc" y="76.881228"/>
     <use x="629.03378" xlink:href="#m3b4abf81cc" y="76.773821"/>
    </g>
   </g>
   <g id="line2d_22">
    <path clip-path="url(#pe57c894c93)" d="M 91.314642 56.001842 
L 96.746149 55.840484 
L 102.177655 55.479588 
L 107.609162 55.12326 
L 113.040668 55.019918 
L 118.472174 55.277998 
L 123.903681 55.748374 
L 129.335187 56.084226 
L 134.766694 55.987827 
L 140.1982 55.44928 
L 145.629707 54.786061 
L 151.061213 54.464386 
L 156.49272 54.791745 
L 161.924226 55.633995 
L 167.355732 56.409003 
L 172.787239 56.486772 
L 178.218745 55.694428 
L 183.650252 54.470157 
L 189.081758 53.631888 
L 194.513265 53.897558 
L 199.944771 55.303717 
L 205.376278 56.935432 
L 210.807784 57.498628 
L 216.23929 56.416032 
L 221.670797 54.247912 
L 227.102303 52.337487 
L 232.53381 52.156052 
L 237.965316 54.312717 
L 243.396823 57.559156 
L 248.828329 59.295531 
L 254.259836 58.003896 
L 259.691342 54.359608 
L 265.122848 50.415142 
L 270.554355 48.827379 
L 275.985861 51.617924 
L 281.417368 57.748231 
L 286.848874 62.145304 
L 292.280381 60.997 
L 297.711887 55.256905 
L 303.143394 47.872412 
L 308.5749 42.942306 
L 314.006406 45.057636 
L 319.437913 55.50455 
L 324.869419 65.786503 
L 330.300926 65.788063 
L 335.732432 57.616041 
L 341.163939 45.495284 
L 346.595445 34.523294 
L 352.026952 32.397409 
L 357.458458 45.793016 
L 362.889964 67.527015 
L 368.321471 71.823885 
L 373.752977 62.166478 
L 379.184484 45.9511 
L 384.61599 27.89285 
L 390.047497 17.729016 
L 395.479003 27.087844 
L 400.91051 59.513451 
L 406.342016 76.837076 
L 411.773522 68.51031 
L 417.205029 51.601768 
L 422.636535 29.585631 
L 428.068042 11.441764 
L 433.499548 11.046626 
L 438.931055 39.527265 
L 444.362561 76.66761 
L 449.794068 74.541866 
L 455.225574 59.800745 
L 460.65708 38.1602 
L 466.088587 15.432606 
L 471.520093 5.062307 
L 476.9516 20.933262 
L 482.383106 64.907768 
L 487.814613 78.633411 
L 493.246119 67.342558 
L 498.677626 48.293986 
L 504.109132 24.583502 
L 509.540638 6.923901 
L 514.972145 10.074006 
L 520.403651 44.571539 
L 525.835158 78.896489 
L 531.266664 73.320736 
L 536.698171 57.407606 
L 542.129677 35.067105 
L 547.561184 13.270601 
L 552.99269 6.04801 
L 558.424196 26.749899 
L 563.855703 70.882795 
L 569.287209 77.564855 
L 574.718716 64.953462 
L 580.150222 45.115221 
L 585.581729 21.91084 
L 591.013235 7.068895 
L 596.444742 15.01513 
L 601.876248 53.709018 
L 607.307754 79.317693 
L 612.739261 71.012506 
L 618.170767 54.033653 
L 623.602274 31.440958 
L 629.03378 11.666855 
" style="fill:none;stroke:#ff0000;stroke-dasharray:3.7,1.6;stroke-dashoffset:0;"/>
   </g>
   <g id="patch_3">
    <path d="M 75.183068 81.545354 
L 75.183068 2.834646 
" style="fill:none;stroke:#000000;stroke-linecap:square;stroke-linejoin:miter;"/>
   </g>
   <g id="patch_4">
    <path d="M 645.165354 81.545354 
L 645.165354 2.834646 
" style="fill:none;stroke:#000000;stroke-linecap:square;stroke-linejoin:miter;"/>
   </g>
   <g id="patch_5">
    <path d="M 75.183068 81.545354 
L 645.165354 81.545354 
" style="fill:none;stroke:#000000;stroke-linecap:square;stroke-linejoin:miter;"/>
   </g>
   <g id="patch_6">
    <path d="M 75.183068 2.834646 
L 645.165354 2.834646 
" style="fill:none;stroke:#000000;stroke-linecap:square;stroke-linejoin:miter;"/>
   </g>
  </g>
  <g id="axes_2">
   <g id="patch_7">
    <path d="M 75.183068 165.925354 
L 645.165354 165.925354 
L 645.165354 87.214646 
L 75.183068 87.214646 
z
" style="fill:#ffffff;"/>
   </g>
   <g id="matplotlib.axis_3">
    <g id="xtick_7"/>
    <g id="xtick_8"/>
    <g id="xtick_9"/>
    <g id="xtick_10"/>
    <g id="xtick_11"/>
    <g id="xtick_12"/>
   </g>
   <g id="matplotlib.axis_4">
    <g id="ytick_8">
     <g id="line2d_23">
      <path clip-path="url(#p5bf3f2ec64)" d="M 75.183068 157.497322 
L 645.165354 157.497322 
" style="fill:none;stroke:#000000;stroke-linecap:square;stroke-opacity:0.1;stroke-width:0.5;"/>
     </g>
     <g id="line2d_24">
      <g>
       <use style="stroke:#000000;stroke-width:0.5;" x="75.183068" xlink:href="#m778d881cef" y="157.497322"/>
      </g>
     </g>
     <g id="line2d_25">
      <g>
       <use style="stroke:#000000;stroke-width:0.5;" x="645.165354" xlink:href="#m2db5308ee1" y="157.497322"/>
      </g>
     </g>
     <g id="text_9">
      <!-- $\mathregular{0.0012}$ -->
      <g transform="translate(29.683068 162.056384)scale(0.12 -0.12)">
       <defs>
        <path d="M 10.6875 12.40625 
L 21 12.40625 
L 21 0 
L 10.6875 0 
z
" id="DejaVuSans-46"/>
        <path d="M 19.1875 8.296875 
L 53.609375 8.296875 
L 53.609375 0 
L 7.328125 0 
L 7.328125 8.296875 
Q 12.9375 14.109375 22.625 23.890625 
Q 32.328125 33.6875 34.8125 36.53125 
Q 39.546875 41.84375 41.421875 45.53125 
Q 43.3125 49.21875 43.3125 52.78125 
Q 43.3125 58.59375 39.234375 62.25 
Q 35.15625 65.921875 28.609375 65.921875 
Q 23.96875 65.921875 18.8125 64.3125 
Q 13.671875 62.703125 7.8125 59.421875 
L 7.8125 69.390625 
Q 13.765625 71.78125 18.9375 73 
Q 24.125 74.21875 28.421875 74.21875 
Q 39.75 74.21875 46.484375 68.546875 
Q 53.21875 62.890625 53.21875 53.421875 
Q 53.21875 48.921875 51.53125 44.890625 
Q 49.859375 40.875 45.40625 35.40625 
Q 44.1875 33.984375 37.640625 27.21875 
Q 31.109375 20.453125 19.1875 8.296875 
z
" id="DejaVuSans-50"/>
       </defs>
       <use transform="translate(0 0.78125)" xlink:href="#DejaVuSans-48"/>
       <use transform="translate(63.623047 0.78125)" xlink:href="#DejaVuSans-46"/>
       <use transform="translate(95.410156 0.78125)" xlink:href="#DejaVuSans-48"/>
       <use transform="translate(159.033203 0.78125)" xlink:href="#DejaVuSans-48"/>
       <use transform="translate(222.65625 0.78125)" xlink:href="#DejaVuSans-49"/>
       <use transform="translate(286.279297 0.78125)" xlink:href="#DejaVuSans-50"/>
      </g>
     </g>
    </g>
    <g id="ytick_9">
     <g id="line2d_26">
      <path clip-path="url(#p5bf3f2ec64)" d="M 75.183068 144.470211 
L 645.165354 144.470211 
" style="fill:none;stroke:#000000;stroke-linecap:square;stroke-opacity:0.1;stroke-width:0.5;"/>
     </g>
     <g id="line2d_27">
      <g>
       <use style="stroke:#000000;stroke-width:0.5;" x="75.183068" xlink:href="#m778d881cef" y="144.470211"/>
      </g>
     </g>
     <g id="line2d_28">
      <g>
       <use style="stroke:#000000;stroke-width:0.5;" x="645.165354" xlink:href="#m2db5308ee1" y="144.470211"/>
      </g>
     </g>
     <g id="text_10">
      <!-- $\mathregular{0.0013}$ -->
      <g transform="translate(29.683068 149.029273)scale(0.12 -0.12)">
       <use transform="translate(0 0.78125)" xlink:href="#DejaVuSans-48"/>
       <use transform="translate(63.623047 0.78125)" xlink:href="#DejaVuSans-46"/>
       <use transform="translate(95.410156 0.78125)" xlink:href="#DejaVuSans-48"/>
       <use transform="translate(159.033203 0.78125)" xlink:href="#DejaVuSans-48"/>
       <use transform="translate(222.65625 0.78125)" xlink:href="#DejaVuSans-49"/>
       <use transform="translate(286.279297 0.78125)" xlink:href="#DejaVuSans-51"/>
      </g>
     </g>
    </g>
    <g id="ytick_10">
     <g id="line2d_29">
      <path clip-path="url(#p5bf3f2ec64)" d="M 75.183068 131.4431 
L 645.165354 131.4431 
" style="fill:none;stroke:#000000;stroke-linecap:square;stroke-opacity:0.1;stroke-width:0.5;"/>
     </g>
     <g id="line2d_30">
      <g>
       <use style="stroke:#000000;stroke-width:0.5;" x="75.183068" xlink:href="#m778d881cef" y="131.4431"/>
      </g>
     </g>
     <g id="line2d_31">
      <g>
       <use style="stroke:#000000;stroke-width:0.5;" x="645.165354" xlink:href="#m2db5308ee1" y="131.4431"/>
      </g>
     </g>
     <g id="text_11">
      <!-- $\mathregular{0.0014}$ -->
      <g transform="translate(29.683068 136.002163)scale(0.12 -0.12)">
       <use transform="translate(0 0.78125)" xlink:href="#DejaVuSans-48"/>
       <use transform="translate(63.623047 0.78125)" xlink:href="#DejaVuSans-46"/>
       <use transform="translate(95.410156 0.78125)" xlink:href="#DejaVuSans-48"/>
       <use transform="translate(159.033203 0.78125)" xlink:href="#DejaVuSans-48"/>
       <use transform="translate(222.65625 0.78125)" xlink:href="#DejaVuSans-49"/>
       <use transform="translate(286.279297 0.78125)" xlink:href="#DejaVuSans-52"/>
      </g>
     </g>
    </g>
    <g id="ytick_11">
     <g id="line2d_32">
      <path clip-path="url(#p5bf3f2ec64)" d="M 75.183068 118.415989 
L 645.165354 118.415989 
" style="fill:none;stroke:#000000;stroke-linecap:square;stroke-opacity:0.1;stroke-width:0.5;"/>
     </g>
     <g id="line2d_33">
      <g>
       <use style="stroke:#000000;stroke-width:0.5;" x="75.183068" xlink:href="#m778d881cef" y="118.415989"/>
      </g>
     </g>
     <g id="line2d_34">
      <g>
       <use style="stroke:#000000;stroke-width:0.5;" x="645.165354" xlink:href="#m2db5308ee1" y="118.415989"/>
      </g>
     </g>
     <g id="text_12">
      <!-- $\mathregular{0.0015}$ -->
      <g transform="translate(29.683068 122.975052)scale(0.12 -0.12)">
       <use transform="translate(0 0.78125)" xlink:href="#DejaVuSans-48"/>
       <use transform="translate(63.623047 0.78125)" xlink:href="#DejaVuSans-46"/>
       <use transform="translate(95.410156 0.78125)" xlink:href="#DejaVuSans-48"/>
       <use transform="translate(159.033203 0.78125)" xlink:href="#DejaVuSans-48"/>
       <use transform="translate(222.65625 0.78125)" xlink:href="#DejaVuSans-49"/>
       <use transform="translate(286.279297 0.78125)" xlink:href="#DejaVuSans-53"/>
      </g>
     </g>
    </g>
    <g id="ytick_12">
     <g id="line2d_35">
      <path clip-path="url(#p5bf3f2ec64)" d="M 75.183068 105.388878 
L 645.165354 105.388878 
" style="fill:none;stroke:#000000;stroke-linecap:square;stroke-opacity:0.1;stroke-width:0.5;"/>
     </g>
     <g id="line2d_36">
      <g>
       <use style="stroke:#000000;stroke-width:0.5;" x="75.183068" xlink:href="#m778d881cef" y="105.388878"/>
      </g>
     </g>
     <g id="line2d_37">
      <g>
       <use style="stroke:#000000;stroke-width:0.5;" x="645.165354" xlink:href="#m2db5308ee1" y="105.388878"/>
      </g>
     </g>
     <g id="text_13">
      <!-- $\mathregular{0.0016}$ -->
      <g transform="translate(29.683068 109.947941)scale(0.12 -0.12)">
       <use transform="translate(0 0.78125)" xlink:href="#DejaVuSans-48"/>
       <use transform="translate(63.623047 0.78125)" xlink:href="#DejaVuSans-46"/>
       <use transform="translate(95.410156 0.78125)" xlink:href="#DejaVuSans-48"/>
       <use transform="translate(159.033203 0.78125)" xlink:href="#DejaVuSans-48"/>
       <use transform="translate(222.65625 0.78125)" xlink:href="#DejaVuSans-49"/>
       <use transform="translate(286.279297 0.78125)" xlink:href="#DejaVuSans-54"/>
      </g>
     </g>
    </g>
    <g id="ytick_13">
     <g id="line2d_38">
      <path clip-path="url(#p5bf3f2ec64)" d="M 75.183068 92.361767 
L 645.165354 92.361767 
" style="fill:none;stroke:#000000;stroke-linecap:square;stroke-opacity:0.1;stroke-width:0.5;"/>
     </g>
     <g id="line2d_39">
      <g>
       <use style="stroke:#000000;stroke-width:0.5;" x="75.183068" xlink:href="#m778d881cef" y="92.361767"/>
      </g>
     </g>
     <g id="line2d_40">
      <g>
       <use style="stroke:#000000;stroke-width:0.5;" x="645.165354" xlink:href="#m2db5308ee1" y="92.361767"/>
      </g>
     </g>
     <g id="text_14">
      <!-- $\mathregular{0.0017}$ -->
      <g transform="translate(29.683068 96.92083)scale(0.12 -0.12)">
       <use transform="translate(0 0.78125)" xlink:href="#DejaVuSans-48"/>
       <use transform="translate(63.623047 0.78125)" xlink:href="#DejaVuSans-46"/>
       <use transform="translate(95.410156 0.78125)" xlink:href="#DejaVuSans-48"/>
       <use transform="translate(159.033203 0.78125)" xlink:href="#DejaVuSans-48"/>
       <use transform="translate(222.65625 0.78125)" xlink:href="#DejaVuSans-49"/>
       <use transform="translate(286.279297 0.78125)" xlink:href="#DejaVuSans-55"/>
      </g>
     </g>
    </g>
    <g id="text_15">
     <!-- $Y_{CO}$ -->
     <g transform="translate(22.355568 140.01)rotate(-90)scale(0.16 -0.16)">
      <defs>
       <path d="M 45.609375 66.21875 
Q 37.5 66.21875 31.296875 62.28125 
Q 25.09375 58.34375 20.515625 50.296875 
Q 17.578125 45.171875 16.03125 39.40625 
Q 14.5 33.640625 14.5 27.78125 
Q 14.5 17.625 19.359375 12.109375 
Q 24.21875 6.59375 33.109375 6.59375 
Q 41.109375 6.59375 47.375 10.5625 
Q 53.65625 14.546875 58.109375 22.40625 
Q 61.078125 27.6875 62.640625 33.46875 
Q 64.203125 39.265625 64.203125 45.015625 
Q 64.203125 55.125 59.3125 60.671875 
Q 54.4375 66.21875 45.609375 66.21875 
z
M 32.8125 -1.421875 
Q 19.390625 -1.421875 11.6875 6.53125 
Q 4 14.5 4 28.328125 
Q 4 36.234375 7 44.484375 
Q 10.015625 52.734375 15.28125 59.1875 
Q 21.484375 66.75 29.09375 70.484375 
Q 36.71875 74.21875 45.90625 74.21875 
Q 59.28125 74.21875 66.984375 66.328125 
Q 74.703125 58.453125 74.703125 44.828125 
Q 74.703125 36.421875 71.765625 28.3125 
Q 68.84375 20.21875 63.375 13.625 
Q 57.125 6 49.578125 2.28125 
Q 42.046875 -1.421875 32.8125 -1.421875 
z
" id="DejaVuSans-Oblique-79"/>
      </defs>
      <use transform="translate(0 0.09375)" xlink:href="#DejaVuSans-Oblique-89"/>
      <use transform="translate(61.083984 -16.3125)scale(0.7)" xlink:href="#DejaVuSans-Oblique-67"/>
      <use transform="translate(109.960938 -16.3125)scale(0.7)" xlink:href="#DejaVuSans-Oblique-79"/>
     </g>
    </g>
   </g>
   <g id="PathCollection_2">
    <g clip-path="url(#p5bf3f2ec64)">
     <use x="91.314642" xlink:href="#m3b4abf81cc" y="134.118071"/>
     <use x="96.746149" xlink:href="#m3b4abf81cc" y="134.63927"/>
     <use x="102.177655" xlink:href="#m3b4abf81cc" y="134.321345"/>
     <use x="107.609162" xlink:href="#m3b4abf81cc" y="132.927221"/>
     <use x="113.040668" xlink:href="#m3b4abf81cc" y="132.653704"/>
     <use x="118.472174" xlink:href="#m3b4abf81cc" y="132.614973"/>
     <use x="123.903681" xlink:href="#m3b4abf81cc" y="133.59872"/>
     <use x="129.335187" xlink:href="#m3b4abf81cc" y="134.074466"/>
     <use x="134.766694" xlink:href="#m3b4abf81cc" y="134.615113"/>
     <use x="140.1982" xlink:href="#m3b4abf81cc" y="134.705279"/>
     <use x="145.629707" xlink:href="#m3b4abf81cc" y="132.766311"/>
     <use x="151.061213" xlink:href="#m3b4abf81cc" y="131.726079"/>
     <use x="156.49272" xlink:href="#m3b4abf81cc" y="131.140117"/>
     <use x="161.924226" xlink:href="#m3b4abf81cc" y="132.22255"/>
     <use x="167.355732" xlink:href="#m3b4abf81cc" y="134.587678"/>
     <use x="172.787239" xlink:href="#m3b4abf81cc" y="136.164091"/>
     <use x="178.218745" xlink:href="#m3b4abf81cc" y="135.198844"/>
     <use x="183.650252" xlink:href="#m3b4abf81cc" y="133.789839"/>
     <use x="189.081758" xlink:href="#m3b4abf81cc" y="131.059792"/>
     <use x="194.513265" xlink:href="#m3b4abf81cc" y="129.588754"/>
     <use x="199.944771" xlink:href="#m3b4abf81cc" y="131.076091"/>
     <use x="205.376278" xlink:href="#m3b4abf81cc" y="134.401382"/>
     <use x="210.807784" xlink:href="#m3b4abf81cc" y="137.189805"/>
     <use x="216.23929" xlink:href="#m3b4abf81cc" y="137.562963"/>
     <use x="221.670797" xlink:href="#m3b4abf81cc" y="134.495462"/>
     <use x="227.102303" xlink:href="#m3b4abf81cc" y="129.995608"/>
     <use x="232.53381" xlink:href="#m3b4abf81cc" y="126.026812"/>
     <use x="237.965316" xlink:href="#m3b4abf81cc" y="126.45757"/>
     <use x="243.396823" xlink:href="#m3b4abf81cc" y="132.47596"/>
     <use x="248.828329" xlink:href="#m3b4abf81cc" y="139.877734"/>
     <use x="254.259836" xlink:href="#m3b4abf81cc" y="141.546482"/>
     <use x="259.691342" xlink:href="#m3b4abf81cc" y="137.247818"/>
     <use x="265.122848" xlink:href="#m3b4abf81cc" y="130.13036"/>
     <use x="270.554355" xlink:href="#m3b4abf81cc" y="123.81745"/>
     <use x="275.985861" xlink:href="#m3b4abf81cc" y="124.308589"/>
     <use x="281.417368" xlink:href="#m3b4abf81cc" y="136.670591"/>
     <use x="286.848874" xlink:href="#m3b4abf81cc" y="147.674148"/>
     <use x="292.280381" xlink:href="#m3b4abf81cc" y="148.733495"/>
     <use x="297.711887" xlink:href="#m3b4abf81cc" y="142.830712"/>
     <use x="303.143394" xlink:href="#m3b4abf81cc" y="134.821451"/>
     <use x="308.5749" xlink:href="#m3b4abf81cc" y="130.597781"/>
     <use x="314.006406" xlink:href="#m3b4abf81cc" y="135.106276"/>
     <use x="319.437913" xlink:href="#m3b4abf81cc" y="146.555526"/>
     <use x="324.869419" xlink:href="#m3b4abf81cc" y="151.846014"/>
     <use x="330.300926" xlink:href="#m3b4abf81cc" y="149.319556"/>
     <use x="335.732432" xlink:href="#m3b4abf81cc" y="144.321672"/>
     <use x="341.163939" xlink:href="#m3b4abf81cc" y="141.950066"/>
     <use x="346.595445" xlink:href="#m3b4abf81cc" y="143.639441"/>
     <use x="352.026952" xlink:href="#m3b4abf81cc" y="148.960156"/>
     <use x="357.458458" xlink:href="#m3b4abf81cc" y="152.156657"/>
     <use x="362.889964" xlink:href="#m3b4abf81cc" y="151.292119"/>
     <use x="368.321471" xlink:href="#m3b4abf81cc" y="149.876686"/>
     <use x="373.752977" xlink:href="#m3b4abf81cc" y="149.474742"/>
     <use x="379.184484" xlink:href="#m3b4abf81cc" y="150.957514"/>
     <use x="384.61599" xlink:href="#m3b4abf81cc" y="152.992112"/>
     <use x="390.047497" xlink:href="#m3b4abf81cc" y="153.934146"/>
     <use x="395.479003" xlink:href="#m3b4abf81cc" y="154.150647"/>
     <use x="400.91051" xlink:href="#m3b4abf81cc" y="154.050762"/>
     <use x="406.342016" xlink:href="#m3b4abf81cc" y="154.758961"/>
     <use x="411.773522" xlink:href="#m3b4abf81cc" y="155.55662"/>
     <use x="417.205029" xlink:href="#m3b4abf81cc" y="156.330446"/>
     <use x="422.636535" xlink:href="#m3b4abf81cc" y="156.864543"/>
     <use x="428.068042" xlink:href="#m3b4abf81cc" y="157.419995"/>
     <use x="433.499548" xlink:href="#m3b4abf81cc" y="157.592766"/>
     <use x="438.931055" xlink:href="#m3b4abf81cc" y="158.088996"/>
     <use x="444.362561" xlink:href="#m3b4abf81cc" y="158.924547"/>
     <use x="449.794068" xlink:href="#m3b4abf81cc" y="159.019304"/>
     <use x="455.225574" xlink:href="#m3b4abf81cc" y="159.792981"/>
     <use x="460.65708" xlink:href="#m3b4abf81cc" y="160.464344"/>
     <use x="466.088587" xlink:href="#m3b4abf81cc" y="160.279823"/>
     <use x="471.520093" xlink:href="#m3b4abf81cc" y="161.282445"/>
     <use x="476.9516" xlink:href="#m3b4abf81cc" y="161.569695"/>
     <use x="482.383106" xlink:href="#m3b4abf81cc" y="161.336984"/>
     <use x="487.814613" xlink:href="#m3b4abf81cc" y="161.482688"/>
     <use x="493.246119" xlink:href="#m3b4abf81cc" y="161.902305"/>
     <use x="498.677626" xlink:href="#m3b4abf81cc" y="161.560932"/>
     <use x="504.109132" xlink:href="#m3b4abf81cc" y="162.012753"/>
     <use x="509.540638" xlink:href="#m3b4abf81cc" y="162.039988"/>
     <use x="514.972145" xlink:href="#m3b4abf81cc" y="161.55838"/>
     <use x="520.403651" xlink:href="#m3b4abf81cc" y="162.056615"/>
     <use x="525.835158" xlink:href="#m3b4abf81cc" y="162.121265"/>
     <use x="531.266664" xlink:href="#m3b4abf81cc" y="162.53547"/>
     <use x="536.698171" xlink:href="#m3b4abf81cc" y="162.566956"/>
     <use x="542.129677" xlink:href="#m3b4abf81cc" y="162.612362"/>
     <use x="547.561184" xlink:href="#m3b4abf81cc" y="162.27221"/>
     <use x="552.99269" xlink:href="#m3b4abf81cc" y="162.108958"/>
     <use x="558.424196" xlink:href="#m3b4abf81cc" y="162.266476"/>
     <use x="563.855703" xlink:href="#m3b4abf81cc" y="162.669844"/>
     <use x="569.287209" xlink:href="#m3b4abf81cc" y="163.033478"/>
     <use x="574.718716" xlink:href="#m3b4abf81cc" y="162.767733"/>
     <use x="580.150222" xlink:href="#m3b4abf81cc" y="162.666096"/>
     <use x="585.581729" xlink:href="#m3b4abf81cc" y="162.892771"/>
     <use x="591.013235" xlink:href="#m3b4abf81cc" y="163.214765"/>
     <use x="596.444742" xlink:href="#m3b4abf81cc" y="162.962132"/>
     <use x="601.876248" xlink:href="#m3b4abf81cc" y="163.139748"/>
     <use x="607.307754" xlink:href="#m3b4abf81cc" y="163.243369"/>
     <use x="612.739261" xlink:href="#m3b4abf81cc" y="163.013294"/>
     <use x="618.170767" xlink:href="#m3b4abf81cc" y="163.382101"/>
     <use x="623.602274" xlink:href="#m3b4abf81cc" y="163.397832"/>
     <use x="629.03378" xlink:href="#m3b4abf81cc" y="163.697693"/>
    </g>
   </g>
   <g id="line2d_41">
    <path clip-path="url(#p5bf3f2ec64)" d="M 91.314642 134.204403 
L 96.746149 134.39464 
L 102.177655 134.266254 
L 107.609162 133.902793 
L 113.040668 133.519145 
L 118.472174 133.378705 
L 123.903681 133.613932 
L 129.335187 134.08949 
L 134.766694 134.452859 
L 140.1982 134.387064 
L 145.629707 133.857421 
L 151.061213 133.163806 
L 156.49272 132.784532 
L 161.924226 133.068143 
L 167.355732 133.91669 
L 172.787239 134.74165 
L 178.218745 134.882588 
L 183.650252 134.128697 
L 189.081758 132.87738 
L 194.513265 131.942107 
L 199.944771 132.113232 
L 205.376278 133.518684 
L 210.807784 135.231428 
L 216.23929 135.904369 
L 221.670797 134.920112 
L 227.102303 132.759017 
L 232.53381 130.698337 
L 237.965316 130.304754 
L 243.396823 132.429149 
L 248.828329 135.816967 
L 254.259836 137.719178 
L 259.691342 136.633235 
L 265.122848 133.119612 
L 270.554355 129.011073 
L 275.985861 126.958295 
L 281.417368 129.577121 
L 286.848874 136.017327 
L 292.280381 140.595775 
L 297.711887 139.807076 
L 303.143394 134.522831 
L 308.5749 127.241095 
L 314.006406 121.504378 
L 319.437913 122.76891 
L 324.869419 134.035265 
L 330.300926 144.278779 
L 335.732432 144.754449 
L 341.163939 137.683815 
L 346.595445 126.681798 
L 352.026952 115.362202 
L 357.458458 110.495449 
L 362.889964 124.85614 
L 368.321471 146.36434 
L 373.752977 150.553931 
L 379.184484 142.881419 
L 384.61599 129.346614 
L 390.047497 113.376662 
L 395.479003 99.941656 
L 400.91051 105.419949 
L 406.342016 141.095619 
L 411.773522 154.466652 
L 417.205029 148.966691 
L 422.636535 135.385642 
L 428.068042 117.88652 
L 433.499548 99.682135 
L 438.931055 90.997896 
L 444.362561 123.677677 
L 449.794068 153.672276 
L 455.225574 153.87999 
L 460.65708 142.38557 
L 466.088587 125.590133 
L 471.520093 106.352537 
L 476.9516 90.113527 
L 482.383106 101.147519 
L 487.814613 146.126324 
L 493.246119 156.31758 
L 498.677626 148.540872 
L 504.109132 133.503219 
L 509.540638 114.883951 
L 514.972145 96.014235 
L 520.403651 89.73258 
L 525.835158 130.054339 
L 531.266664 155.418379 
L 536.698171 153.175607 
L 542.129677 140.608271 
L 547.561184 123.267327 
L 552.99269 103.960756 
L 558.424196 89.442307 
L 563.855703 108.757716 
L 569.287209 149.934221 
L 574.718716 155.903507 
L 580.150222 146.634848 
L 585.581729 130.970765 
L 591.013235 112.201917 
L 596.444742 94.330879 
L 601.876248 94.120917 
L 607.307754 138.061516 
L 612.739261 156.197052 
L 618.170767 151.434087 
L 623.602274 137.876665 
L 629.03378 120.143722 
" style="fill:none;stroke:#ff0000;stroke-dasharray:3.7,1.6;stroke-dashoffset:0;"/>
   </g>
   <g id="patch_8">
    <path d="M 75.183068 165.925354 
L 75.183068 87.214646 
" style="fill:none;stroke:#000000;stroke-linecap:square;stroke-linejoin:miter;"/>
   </g>
   <g id="patch_9">
    <path d="M 645.165354 165.925354 
L 645.165354 87.214646 
" style="fill:none;stroke:#000000;stroke-linecap:square;stroke-linejoin:miter;"/>
   </g>
   <g id="patch_10">
    <path d="M 75.183068 165.925354 
L 645.165354 165.925354 
" style="fill:none;stroke:#000000;stroke-linecap:square;stroke-linejoin:miter;"/>
   </g>
   <g id="patch_11">
    <path d="M 75.183068 87.214646 
L 645.165354 87.214646 
" style="fill:none;stroke:#000000;stroke-linecap:square;stroke-linejoin:miter;"/>
   </g>
  </g>
  <g id="axes_3">
   <g id="patch_12">
    <path d="M 75.183068 250.305354 
L 645.165354 250.305354 
L 645.165354 171.594646 
L 75.183068 171.594646 
z
" style="fill:#ffffff;"/>
   </g>
   <g id="matplotlib.axis_5">
    <g id="xtick_13">
     <g id="line2d_42">
      <path clip-path="url(#p56693dbac6)" d="M 91.314642 250.305354 
L 91.314642 171.594646 
" style="fill:none;stroke:#000000;stroke-linecap:square;stroke-opacity:0.1;stroke-width:0.5;"/>
     </g>
     <g id="line2d_43">
      <defs>
       <path d="M 0 0 
L 0 -2.5 
" id="m2c9dcdeff4" style="stroke:#000000;stroke-width:0.5;"/>
      </defs>
      <g>
       <use style="stroke:#000000;stroke-width:0.5;" x="91.314642" xlink:href="#m2c9dcdeff4" y="250.305354"/>
      </g>
     </g>
     <g id="line2d_44">
      <defs>
       <path d="M 0 0 
L 0 2.5 
" id="mc2fcaf9762" style="stroke:#000000;stroke-width:0.5;"/>
      </defs>
      <g>
       <use style="stroke:#000000;stroke-width:0.5;" x="91.314642" xlink:href="#mc2fcaf9762" y="171.594646"/>
      </g>
     </g>
     <g id="text_16">
      <!-- $\mathregular{0.0}$ -->
      <g transform="translate(81.714642 262.923479)scale(0.12 -0.12)">
       <use transform="translate(0 0.78125)" xlink:href="#DejaVuSans-48"/>
       <use transform="translate(63.623047 0.78125)" xlink:href="#DejaVuSans-46"/>
       <use transform="translate(95.410156 0.78125)" xlink:href="#DejaVuSans-48"/>
      </g>
     </g>
    </g>
    <g id="xtick_14">
     <g id="line2d_45">
      <path clip-path="url(#p56693dbac6)" d="M 198.85847 250.305354 
L 198.85847 171.594646 
" style="fill:none;stroke:#000000;stroke-linecap:square;stroke-opacity:0.1;stroke-width:0.5;"/>
     </g>
     <g id="line2d_46">
      <g>
       <use style="stroke:#000000;stroke-width:0.5;" x="198.85847" xlink:href="#m2c9dcdeff4" y="250.305354"/>
      </g>
     </g>
     <g id="line2d_47">
      <g>
       <use style="stroke:#000000;stroke-width:0.5;" x="198.85847" xlink:href="#mc2fcaf9762" y="171.594646"/>
      </g>
     </g>
     <g id="text_17">
      <!-- $\mathregular{0.1}$ -->
      <g transform="translate(189.25847 262.923479)scale(0.12 -0.12)">
       <use transform="translate(0 0.78125)" xlink:href="#DejaVuSans-48"/>
       <use transform="translate(63.623047 0.78125)" xlink:href="#DejaVuSans-46"/>
       <use transform="translate(95.410156 0.78125)" xlink:href="#DejaVuSans-49"/>
      </g>
     </g>
    </g>
    <g id="xtick_15">
     <g id="line2d_48">
      <path clip-path="url(#p56693dbac6)" d="M 306.402297 250.305354 
L 306.402297 171.594646 
" style="fill:none;stroke:#000000;stroke-linecap:square;stroke-opacity:0.1;stroke-width:0.5;"/>
     </g>
     <g id="line2d_49">
      <g>
       <use style="stroke:#000000;stroke-width:0.5;" x="306.402297" xlink:href="#m2c9dcdeff4" y="250.305354"/>
      </g>
     </g>
     <g id="line2d_50">
      <g>
       <use style="stroke:#000000;stroke-width:0.5;" x="306.402297" xlink:href="#mc2fcaf9762" y="171.594646"/>
      </g>
     </g>
     <g id="text_18">
      <!-- $\mathregular{0.2}$ -->
      <g transform="translate(297.162297 262.923479)scale(0.12 -0.12)">
       <use transform="translate(0 0.78125)" xlink:href="#DejaVuSans-48"/>
       <use transform="translate(63.623047 0.78125)" xlink:href="#DejaVuSans-46"/>
       <use transform="translate(89.910156 0.78125)" xlink:href="#DejaVuSans-50"/>
      </g>
     </g>
    </g>
    <g id="xtick_16">
     <g id="line2d_51">
      <path clip-path="url(#p56693dbac6)" d="M 413.946125 250.305354 
L 413.946125 171.594646 
" style="fill:none;stroke:#000000;stroke-linecap:square;stroke-opacity:0.1;stroke-width:0.5;"/>
     </g>
     <g id="line2d_52">
      <g>
       <use style="stroke:#000000;stroke-width:0.5;" x="413.946125" xlink:href="#m2c9dcdeff4" y="250.305354"/>
      </g>
     </g>
     <g id="line2d_53">
      <g>
       <use style="stroke:#000000;stroke-width:0.5;" x="413.946125" xlink:href="#mc2fcaf9762" y="171.594646"/>
      </g>
     </g>
     <g id="text_19">
      <!-- $\mathregular{0.3}$ -->
      <g transform="translate(404.346125 262.923479)scale(0.12 -0.12)">
       <use transform="translate(0 0.78125)" xlink:href="#DejaVuSans-48"/>
       <use transform="translate(63.623047 0.78125)" xlink:href="#DejaVuSans-46"/>
       <use transform="translate(95.410156 0.78125)" xlink:href="#DejaVuSans-51"/>
      </g>
     </g>
    </g>
    <g id="xtick_17">
     <g id="line2d_54">
      <path clip-path="url(#p56693dbac6)" d="M 521.489953 250.305354 
L 521.489953 171.594646 
" style="fill:none;stroke:#000000;stroke-linecap:square;stroke-opacity:0.1;stroke-width:0.5;"/>
     </g>
     <g id="line2d_55">
      <g>
       <use style="stroke:#000000;stroke-width:0.5;" x="521.489953" xlink:href="#m2c9dcdeff4" y="250.305354"/>
      </g>
     </g>
     <g id="line2d_56">
      <g>
       <use style="stroke:#000000;stroke-width:0.5;" x="521.489953" xlink:href="#mc2fcaf9762" y="171.594646"/>
      </g>
     </g>
     <g id="text_20">
      <!-- $\mathregular{0.4}$ -->
      <g transform="translate(511.889953 262.923479)scale(0.12 -0.12)">
       <use transform="translate(0 0.78125)" xlink:href="#DejaVuSans-48"/>
       <use transform="translate(63.623047 0.78125)" xlink:href="#DejaVuSans-46"/>
       <use transform="translate(95.410156 0.78125)" xlink:href="#DejaVuSans-52"/>
      </g>
     </g>
    </g>
    <g id="xtick_18">
     <g id="line2d_57">
      <path clip-path="url(#p56693dbac6)" d="M 629.03378 250.305354 
L 629.03378 171.594646 
" style="fill:none;stroke:#000000;stroke-linecap:square;stroke-opacity:0.1;stroke-width:0.5;"/>
     </g>
     <g id="line2d_58">
      <g>
       <use style="stroke:#000000;stroke-width:0.5;" x="629.03378" xlink:href="#m2c9dcdeff4" y="250.305354"/>
      </g>
     </g>
     <g id="line2d_59">
      <g>
       <use style="stroke:#000000;stroke-width:0.5;" x="629.03378" xlink:href="#mc2fcaf9762" y="171.594646"/>
      </g>
     </g>
     <g id="text_21">
      <!-- $\mathregular{0.5}$ -->
      <g transform="translate(619.43378 262.923479)scale(0.12 -0.12)">
       <use transform="translate(0 0.78125)" xlink:href="#DejaVuSans-48"/>
       <use transform="translate(63.623047 0.78125)" xlink:href="#DejaVuSans-46"/>
       <use transform="translate(95.410156 0.78125)" xlink:href="#DejaVuSans-53"/>
      </g>
     </g>
    </g>
    <g id="text_22">
     <!-- Time [s] -->
     <g transform="translate(327.647961 281.576604)scale(0.16 -0.16)">
      <defs>
       <path d="M -0.296875 72.90625 
L 61.375 72.90625 
L 61.375 64.59375 
L 35.5 64.59375 
L 35.5 0 
L 25.59375 0 
L 25.59375 64.59375 
L -0.296875 64.59375 
z
" id="DejaVuSans-84"/>
       <path d="M 9.421875 54.6875 
L 18.40625 54.6875 
L 18.40625 0 
L 9.421875 0 
z
M 9.421875 75.984375 
L 18.40625 75.984375 
L 18.40625 64.59375 
L 9.421875 64.59375 
z
" id="DejaVuSans-105"/>
       <path d="M 52 44.1875 
Q 55.375 50.25 60.0625 53.125 
Q 64.75 56 71.09375 56 
Q 79.640625 56 84.28125 50.015625 
Q 88.921875 44.046875 88.921875 33.015625 
L 88.921875 0 
L 79.890625 0 
L 79.890625 32.71875 
Q 79.890625 40.578125 77.09375 44.375 
Q 74.3125 48.1875 68.609375 48.1875 
Q 61.625 48.1875 57.5625 43.546875 
Q 53.515625 38.921875 53.515625 30.90625 
L 53.515625 0 
L 44.484375 0 
L 44.484375 32.71875 
Q 44.484375 40.625 41.703125 44.40625 
Q 38.921875 48.1875 33.109375 48.1875 
Q 26.21875 48.1875 22.15625 43.53125 
Q 18.109375 38.875 18.109375 30.90625 
L 18.109375 0 
L 9.078125 0 
L 9.078125 54.6875 
L 18.109375 54.6875 
L 18.109375 46.1875 
Q 21.1875 51.21875 25.484375 53.609375 
Q 29.78125 56 35.6875 56 
Q 41.65625 56 45.828125 52.96875 
Q 50 49.953125 52 44.1875 
z
" id="DejaVuSans-109"/>
       <path d="M 56.203125 29.59375 
L 56.203125 25.203125 
L 14.890625 25.203125 
Q 15.484375 15.921875 20.484375 11.0625 
Q 25.484375 6.203125 34.421875 6.203125 
Q 39.59375 6.203125 44.453125 7.46875 
Q 49.3125 8.734375 54.109375 11.28125 
L 54.109375 2.78125 
Q 49.265625 0.734375 44.1875 -0.34375 
Q 39.109375 -1.421875 33.890625 -1.421875 
Q 20.796875 -1.421875 13.15625 6.1875 
Q 5.515625 13.8125 5.515625 26.8125 
Q 5.515625 40.234375 12.765625 48.109375 
Q 20.015625 56 32.328125 56 
Q 43.359375 56 49.78125 48.890625 
Q 56.203125 41.796875 56.203125 29.59375 
z
M 47.21875 32.234375 
Q 47.125 39.59375 43.09375 43.984375 
Q 39.0625 48.390625 32.421875 48.390625 
Q 24.90625 48.390625 20.390625 44.140625 
Q 15.875 39.890625 15.1875 32.171875 
z
" id="DejaVuSans-101"/>
       <path id="DejaVuSans-32"/>
       <path d="M 8.59375 75.984375 
L 29.296875 75.984375 
L 29.296875 69 
L 17.578125 69 
L 17.578125 -6.203125 
L 29.296875 -6.203125 
L 29.296875 -13.1875 
L 8.59375 -13.1875 
z
" id="DejaVuSans-91"/>
       <path d="M 44.28125 53.078125 
L 44.28125 44.578125 
Q 40.484375 46.53125 36.375 47.5 
Q 32.28125 48.484375 27.875 48.484375 
Q 21.1875 48.484375 17.84375 46.4375 
Q 14.5 44.390625 14.5 40.28125 
Q 14.5 37.15625 16.890625 35.375 
Q 19.28125 33.59375 26.515625 31.984375 
L 29.59375 31.296875 
Q 39.15625 29.25 43.1875 25.515625 
Q 47.21875 21.78125 47.21875 15.09375 
Q 47.21875 7.46875 41.1875 3.015625 
Q 35.15625 -1.421875 24.609375 -1.421875 
Q 20.21875 -1.421875 15.453125 -0.5625 
Q 10.6875 0.296875 5.421875 2 
L 5.421875 11.28125 
Q 10.40625 8.6875 15.234375 7.390625 
Q 20.0625 6.109375 24.8125 6.109375 
Q 31.15625 6.109375 34.5625 8.28125 
Q 37.984375 10.453125 37.984375 14.40625 
Q 37.984375 18.0625 35.515625 20.015625 
Q 33.0625 21.96875 24.703125 23.78125 
L 21.578125 24.515625 
Q 13.234375 26.265625 9.515625 29.90625 
Q 5.8125 33.546875 5.8125 39.890625 
Q 5.8125 47.609375 11.28125 51.796875 
Q 16.75 56 26.8125 56 
Q 31.78125 56 36.171875 55.265625 
Q 40.578125 54.546875 44.28125 53.078125 
z
" id="DejaVuSans-115"/>
       <path d="M 30.421875 75.984375 
L 30.421875 -13.1875 
L 9.71875 -13.1875 
L 9.71875 -6.203125 
L 21.390625 -6.203125 
L 21.390625 69 
L 9.71875 69 
L 9.71875 75.984375 
z
" id="DejaVuSans-93"/>
      </defs>
      <use xlink:href="#DejaVuSans-84"/>
      <use x="57.958984" xlink:href="#DejaVuSans-105"/>
      <use x="85.742188" xlink:href="#DejaVuSans-109"/>
      <use x="183.154297" xlink:href="#DejaVuSans-101"/>
      <use x="244.677734" xlink:href="#DejaVuSans-32"/>
      <use x="276.464844" xlink:href="#DejaVuSans-91"/>
      <use x="315.478516" xlink:href="#DejaVuSans-115"/>
      <use x="367.578125" xlink:href="#DejaVuSans-93"/>
     </g>
    </g>
   </g>
   <g id="matplotlib.axis_6">
    <g id="ytick_14">
     <g id="line2d_60">
      <path clip-path="url(#p56693dbac6)" d="M 75.183068 240.85627 
L 645.165354 240.85627 
" style="fill:none;stroke:#000000;stroke-linecap:square;stroke-opacity:0.1;stroke-width:0.5;"/>
     </g>
     <g id="line2d_61">
      <g>
       <use style="stroke:#000000;stroke-width:0.5;" x="75.183068" xlink:href="#m778d881cef" y="240.85627"/>
      </g>
     </g>
     <g id="line2d_62">
      <g>
       <use style="stroke:#000000;stroke-width:0.5;" x="645.165354" xlink:href="#m2db5308ee1" y="240.85627"/>
      </g>
     </g>
     <g id="text_23">
      <!-- $\mathregular{1263}$ -->
      <g transform="translate(41.083068 245.415333)scale(0.12 -0.12)">
       <use transform="translate(0 0.78125)" xlink:href="#DejaVuSans-49"/>
       <use transform="translate(63.623047 0.78125)" xlink:href="#DejaVuSans-50"/>
       <use transform="translate(127.246094 0.78125)" xlink:href="#DejaVuSans-54"/>
       <use transform="translate(190.869141 0.78125)" xlink:href="#DejaVuSans-51"/>
      </g>
     </g>
    </g>
    <g id="ytick_15">
     <g id="line2d_63">
      <path clip-path="url(#p56693dbac6)" d="M 75.183068 225.92026 
L 645.165354 225.92026 
" style="fill:none;stroke:#000000;stroke-linecap:square;stroke-opacity:0.1;stroke-width:0.5;"/>
     </g>
     <g id="line2d_64">
      <g>
       <use style="stroke:#000000;stroke-width:0.5;" x="75.183068" xlink:href="#m778d881cef" y="225.92026"/>
      </g>
     </g>
     <g id="line2d_65">
      <g>
       <use style="stroke:#000000;stroke-width:0.5;" x="645.165354" xlink:href="#m2db5308ee1" y="225.92026"/>
      </g>
     </g>
     <g id="text_24">
      <!-- $\mathregular{1266}$ -->
      <g transform="translate(41.083068 230.479322)scale(0.12 -0.12)">
       <use transform="translate(0 0.78125)" xlink:href="#DejaVuSans-49"/>
       <use transform="translate(63.623047 0.78125)" xlink:href="#DejaVuSans-50"/>
       <use transform="translate(127.246094 0.78125)" xlink:href="#DejaVuSans-54"/>
       <use transform="translate(190.869141 0.78125)" xlink:href="#DejaVuSans-54"/>
      </g>
     </g>
    </g>
    <g id="ytick_16">
     <g id="line2d_66">
      <path clip-path="url(#p56693dbac6)" d="M 75.183068 210.984249 
L 645.165354 210.984249 
" style="fill:none;stroke:#000000;stroke-linecap:square;stroke-opacity:0.1;stroke-width:0.5;"/>
     </g>
     <g id="line2d_67">
      <g>
       <use style="stroke:#000000;stroke-width:0.5;" x="75.183068" xlink:href="#m778d881cef" y="210.984249"/>
      </g>
     </g>
     <g id="line2d_68">
      <g>
       <use style="stroke:#000000;stroke-width:0.5;" x="645.165354" xlink:href="#m2db5308ee1" y="210.984249"/>
      </g>
     </g>
     <g id="text_25">
      <!-- $\mathregular{1269}$ -->
      <g transform="translate(41.083068 215.543311)scale(0.12 -0.12)">
       <use transform="translate(0 0.78125)" xlink:href="#DejaVuSans-49"/>
       <use transform="translate(63.623047 0.78125)" xlink:href="#DejaVuSans-50"/>
       <use transform="translate(127.246094 0.78125)" xlink:href="#DejaVuSans-54"/>
       <use transform="translate(190.869141 0.78125)" xlink:href="#DejaVuSans-57"/>
      </g>
     </g>
    </g>
    <g id="ytick_17">
     <g id="line2d_69">
      <path clip-path="url(#p56693dbac6)" d="M 75.183068 196.048238 
L 645.165354 196.048238 
" style="fill:none;stroke:#000000;stroke-linecap:square;stroke-opacity:0.1;stroke-width:0.5;"/>
     </g>
     <g id="line2d_70">
      <g>
       <use style="stroke:#000000;stroke-width:0.5;" x="75.183068" xlink:href="#m778d881cef" y="196.048238"/>
      </g>
     </g>
     <g id="line2d_71">
      <g>
       <use style="stroke:#000000;stroke-width:0.5;" x="645.165354" xlink:href="#m2db5308ee1" y="196.048238"/>
      </g>
     </g>
     <g id="text_26">
      <!-- $\mathregular{1272}$ -->
      <g transform="translate(41.083068 200.607301)scale(0.12 -0.12)">
       <use transform="translate(0 0.78125)" xlink:href="#DejaVuSans-49"/>
       <use transform="translate(63.623047 0.78125)" xlink:href="#DejaVuSans-50"/>
       <use transform="translate(127.246094 0.78125)" xlink:href="#DejaVuSans-55"/>
       <use transform="translate(190.869141 0.78125)" xlink:href="#DejaVuSans-50"/>
      </g>
     </g>
    </g>
    <g id="ytick_18">
     <g id="line2d_72">
      <path clip-path="url(#p56693dbac6)" d="M 75.183068 181.112228 
L 645.165354 181.112228 
" style="fill:none;stroke:#000000;stroke-linecap:square;stroke-opacity:0.1;stroke-width:0.5;"/>
     </g>
     <g id="line2d_73">
      <g>
       <use style="stroke:#000000;stroke-width:0.5;" x="75.183068" xlink:href="#m778d881cef" y="181.112228"/>
      </g>
     </g>
     <g id="line2d_74">
      <g>
       <use style="stroke:#000000;stroke-width:0.5;" x="645.165354" xlink:href="#m2db5308ee1" y="181.112228"/>
      </g>
     </g>
     <g id="text_27">
      <!-- $\mathregular{1275}$ -->
      <g transform="translate(41.083068 185.67129)scale(0.12 -0.12)">
       <use transform="translate(0 0.78125)" xlink:href="#DejaVuSans-49"/>
       <use transform="translate(63.623047 0.78125)" xlink:href="#DejaVuSans-50"/>
       <use transform="translate(127.246094 0.78125)" xlink:href="#DejaVuSans-55"/>
       <use transform="translate(190.869141 0.78125)" xlink:href="#DejaVuSans-53"/>
      </g>
     </g>
    </g>
    <g id="text_28">
     <!-- T [K] -->
     <g transform="translate(33.755568 229.8675)rotate(-90)scale(0.16 -0.16)">
      <defs>
       <path d="M 9.8125 72.90625 
L 19.671875 72.90625 
L 19.671875 42.09375 
L 52.390625 72.90625 
L 65.09375 72.90625 
L 28.90625 38.921875 
L 67.671875 0 
L 54.6875 0 
L 19.671875 35.109375 
L 19.671875 0 
L 9.8125 0 
z
" id="DejaVuSans-75"/>
      </defs>
      <use xlink:href="#DejaVuSans-84"/>
      <use x="61.083984" xlink:href="#DejaVuSans-32"/>
      <use x="92.871094" xlink:href="#DejaVuSans-91"/>
      <use x="131.884766" xlink:href="#DejaVuSans-75"/>
      <use x="197.460938" xlink:href="#DejaVuSans-93"/>
     </g>
    </g>
   </g>
   <g id="PathCollection_3">
    <g clip-path="url(#p56693dbac6)">
     <use x="91.314642" xlink:href="#m3b4abf81cc" y="219.216277"/>
     <use x="96.746149" xlink:href="#m3b4abf81cc" y="219.727398"/>
     <use x="102.177655" xlink:href="#m3b4abf81cc" y="219.818513"/>
     <use x="107.609162" xlink:href="#m3b4abf81cc" y="220.261981"/>
     <use x="113.040668" xlink:href="#m3b4abf81cc" y="220.589871"/>
     <use x="118.472174" xlink:href="#m3b4abf81cc" y="220.137031"/>
     <use x="123.903681" xlink:href="#m3b4abf81cc" y="220.24171"/>
     <use x="129.335187" xlink:href="#m3b4abf81cc" y="219.412204"/>
     <use x="134.766694" xlink:href="#m3b4abf81cc" y="218.897887"/>
     <use x="140.1982" xlink:href="#m3b4abf81cc" y="219.449306"/>
     <use x="145.629707" xlink:href="#m3b4abf81cc" y="220.92848"/>
     <use x="151.061213" xlink:href="#m3b4abf81cc" y="221.14775"/>
     <use x="156.49272" xlink:href="#m3b4abf81cc" y="220.807582"/>
     <use x="161.924226" xlink:href="#m3b4abf81cc" y="220.557304"/>
     <use x="167.355732" xlink:href="#m3b4abf81cc" y="219.070877"/>
     <use x="172.787239" xlink:href="#m3b4abf81cc" y="218.746799"/>
     <use x="178.218745" xlink:href="#m3b4abf81cc" y="219.170196"/>
     <use x="183.650252" xlink:href="#m3b4abf81cc" y="220.793386"/>
     <use x="189.081758" xlink:href="#m3b4abf81cc" y="222.13259"/>
     <use x="194.513265" xlink:href="#m3b4abf81cc" y="222.501706"/>
     <use x="199.944771" xlink:href="#m3b4abf81cc" y="221.300011"/>
     <use x="205.376278" xlink:href="#m3b4abf81cc" y="219.142918"/>
     <use x="210.807784" xlink:href="#m3b4abf81cc" y="217.819346"/>
     <use x="216.23929" xlink:href="#m3b4abf81cc" y="218.532149"/>
     <use x="221.670797" xlink:href="#m3b4abf81cc" y="221.129489"/>
     <use x="227.102303" xlink:href="#m3b4abf81cc" y="224.488088"/>
     <use x="232.53381" xlink:href="#m3b4abf81cc" y="225.68339"/>
     <use x="237.965316" xlink:href="#m3b4abf81cc" y="223.497972"/>
     <use x="243.396823" xlink:href="#m3b4abf81cc" y="219.247774"/>
     <use x="248.828329" xlink:href="#m3b4abf81cc" y="216.521532"/>
     <use x="254.259836" xlink:href="#m3b4abf81cc" y="216.833157"/>
     <use x="259.691342" xlink:href="#m3b4abf81cc" y="220.509024"/>
     <use x="265.122848" xlink:href="#m3b4abf81cc" y="225.059452"/>
     <use x="270.554355" xlink:href="#m3b4abf81cc" y="227.467506"/>
     <use x="275.985861" xlink:href="#m3b4abf81cc" y="224.179003"/>
     <use x="281.417368" xlink:href="#m3b4abf81cc" y="215.906626"/>
     <use x="286.848874" xlink:href="#m3b4abf81cc" y="211.082468"/>
     <use x="292.280381" xlink:href="#m3b4abf81cc" y="212.075646"/>
     <use x="297.711887" xlink:href="#m3b4abf81cc" y="216.33623"/>
     <use x="303.143394" xlink:href="#m3b4abf81cc" y="221.283232"/>
     <use x="308.5749" xlink:href="#m3b4abf81cc" y="221.252526"/>
     <use x="314.006406" xlink:href="#m3b4abf81cc" y="216.47806"/>
     <use x="319.437913" xlink:href="#m3b4abf81cc" y="210.211527"/>
     <use x="324.869419" xlink:href="#m3b4abf81cc" y="208.869518"/>
     <use x="330.300926" xlink:href="#m3b4abf81cc" y="210.944276"/>
     <use x="335.732432" xlink:href="#m3b4abf81cc" y="212.72331"/>
     <use x="341.163939" xlink:href="#m3b4abf81cc" y="213.594913"/>
     <use x="346.595445" xlink:href="#m3b4abf81cc" y="211.194647"/>
     <use x="352.026952" xlink:href="#m3b4abf81cc" y="207.927134"/>
     <use x="357.458458" xlink:href="#m3b4abf81cc" y="206.475623"/>
     <use x="362.889964" xlink:href="#m3b4abf81cc" y="206.352846"/>
     <use x="368.321471" xlink:href="#m3b4abf81cc" y="206.806278"/>
     <use x="373.752977" xlink:href="#m3b4abf81cc" y="206.908562"/>
     <use x="379.184484" xlink:href="#m3b4abf81cc" y="205.182047"/>
     <use x="384.61599" xlink:href="#m3b4abf81cc" y="203.710231"/>
     <use x="390.047497" xlink:href="#m3b4abf81cc" y="202.903805"/>
     <use x="395.479003" xlink:href="#m3b4abf81cc" y="202.024241"/>
     <use x="400.91051" xlink:href="#m3b4abf81cc" y="202.058816"/>
     <use x="406.342016" xlink:href="#m3b4abf81cc" y="201.09955"/>
     <use x="411.773522" xlink:href="#m3b4abf81cc" y="199.417007"/>
     <use x="417.205029" xlink:href="#m3b4abf81cc" y="198.794569"/>
     <use x="422.636535" xlink:href="#m3b4abf81cc" y="198.139553"/>
     <use x="428.068042" xlink:href="#m3b4abf81cc" y="196.782759"/>
     <use x="433.499548" xlink:href="#m3b4abf81cc" y="196.374195"/>
     <use x="438.931055" xlink:href="#m3b4abf81cc" y="195.265674"/>
     <use x="444.362561" xlink:href="#m3b4abf81cc" y="194.189532"/>
     <use x="449.794068" xlink:href="#m3b4abf81cc" y="193.557969"/>
     <use x="455.225574" xlink:href="#m3b4abf81cc" y="192.987928"/>
     <use x="460.65708" xlink:href="#m3b4abf81cc" y="191.685373"/>
     <use x="466.088587" xlink:href="#m3b4abf81cc" y="190.539672"/>
     <use x="471.520093" xlink:href="#m3b4abf81cc" y="189.945009"/>
     <use x="476.9516" xlink:href="#m3b4abf81cc" y="188.480514"/>
     <use x="482.383106" xlink:href="#m3b4abf81cc" y="188.36817"/>
     <use x="487.814613" xlink:href="#m3b4abf81cc" y="187.245663"/>
     <use x="493.246119" xlink:href="#m3b4abf81cc" y="186.522454"/>
     <use x="498.677626" xlink:href="#m3b4abf81cc" y="185.980151"/>
     <use x="504.109132" xlink:href="#m3b4abf81cc" y="184.882361"/>
     <use x="509.540638" xlink:href="#m3b4abf81cc" y="184.2111"/>
     <use x="514.972145" xlink:href="#m3b4abf81cc" y="184.123575"/>
     <use x="520.403651" xlink:href="#m3b4abf81cc" y="183.714517"/>
     <use x="525.835158" xlink:href="#m3b4abf81cc" y="182.340318"/>
     <use x="531.266664" xlink:href="#m3b4abf81cc" y="181.768231"/>
     <use x="536.698171" xlink:href="#m3b4abf81cc" y="181.507271"/>
     <use x="542.129677" xlink:href="#m3b4abf81cc" y="181.503727"/>
     <use x="547.561184" xlink:href="#m3b4abf81cc" y="180.051615"/>
     <use x="552.99269" xlink:href="#m3b4abf81cc" y="180.305457"/>
     <use x="558.424196" xlink:href="#m3b4abf81cc" y="179.290656"/>
     <use x="563.855703" xlink:href="#m3b4abf81cc" y="179.094464"/>
     <use x="569.287209" xlink:href="#m3b4abf81cc" y="178.50945"/>
     <use x="574.718716" xlink:href="#m3b4abf81cc" y="177.762229"/>
     <use x="580.150222" xlink:href="#m3b4abf81cc" y="177.005341"/>
     <use x="585.581729" xlink:href="#m3b4abf81cc" y="176.887241"/>
     <use x="591.013235" xlink:href="#m3b4abf81cc" y="176.454736"/>
     <use x="596.444742" xlink:href="#m3b4abf81cc" y="176.204372"/>
     <use x="601.876248" xlink:href="#m3b4abf81cc" y="175.458284"/>
     <use x="607.307754" xlink:href="#m3b4abf81cc" y="175.299507"/>
     <use x="612.739261" xlink:href="#m3b4abf81cc" y="175.331784"/>
     <use x="618.170767" xlink:href="#m3b4abf81cc" y="174.588732"/>
     <use x="623.602274" xlink:href="#m3b4abf81cc" y="174.099975"/>
     <use x="629.03378" xlink:href="#m3b4abf81cc" y="173.822307"/>
    </g>
   </g>
   <g id="line2d_75">
    <path clip-path="url(#p56693dbac6)" d="M 91.314642 219.128487 
L 96.746149 219.16152 
L 102.177655 219.349764 
L 107.609162 219.630579 
L 113.040668 219.854219 
L 118.472174 219.883307 
L 123.903681 219.701655 
L 129.335187 219.454557 
L 134.766694 219.363632 
L 140.1982 219.563442 
L 145.629707 219.98871 
L 151.061213 220.394386 
L 156.49272 220.500598 
L 161.924226 220.198488 
L 167.355732 219.680271 
L 172.787239 219.348693 
L 178.218745 219.521255 
L 183.650252 220.178781 
L 189.081758 220.946539 
L 194.513265 221.294394 
L 199.944771 220.885989 
L 205.376278 219.913605 
L 210.807784 219.087222 
L 216.23929 219.10379 
L 221.670797 220.091743 
L 227.102303 221.516137 
L 232.53381 222.445675 
L 237.965316 222.063025 
L 243.396823 220.372918 
L 248.828329 218.561012 
L 254.259836 218.106344 
L 259.691342 219.495693 
L 265.122848 222.019627 
L 270.554355 224.183744 
L 275.985861 224.29597 
L 281.417368 221.627965 
L 286.848874 217.916731 
L 292.280381 216.298595 
L 297.711887 218.038684 
L 303.143394 222.210173 
L 308.5749 226.652151 
L 314.006406 228.454526 
L 319.437913 225.070912 
L 324.869419 217.961341 
L 330.300926 213.730553 
L 335.732432 215.386923 
L 341.163939 221.520354 
L 346.595445 229.309893 
L 352.026952 234.721266 
L 357.458458 232.749696 
L 362.889964 221.249642 
L 368.321471 211.586474 
L 373.752977 211.706227 
L 379.184484 218.97932 
L 384.61599 229.914164 
L 390.047497 239.860146 
L 395.479003 242.562055 
L 400.91051 230.730181 
L 406.342016 212.660447 
L 411.773522 208.326047 
L 417.205029 214.416586 
L 422.636535 226.324229 
L 428.068042 239.398634 
L 433.499548 247.341305 
L 438.931055 241.822965 
L 444.362561 219.20334 
L 449.794068 207.125242 
L 455.225574 209.711812 
L 460.65708 220.216743 
L 466.088587 234.198926 
L 471.520093 245.819178 
L 476.9516 247.545605 
L 482.383106 229.985402 
L 487.814613 209.232103 
L 493.246119 206.507782 
L 498.677626 214.213147 
L 504.109132 227.40645 
L 509.540638 240.952977 
L 514.972145 248.077693 
L 520.403651 239.663882 
L 525.835158 215.22664 
L 531.266664 205.409762 
L 536.698171 209.445045 
L 542.129677 220.774583 
L 547.561184 234.831123 
L 552.99269 245.525376 
L 558.424196 244.950867 
L 563.855703 224.643106 
L 569.287209 206.801422 
L 574.718716 206.219624 
L 580.150222 214.98499 
L 585.581729 228.449275 
L 591.013235 241.250973 
L 596.444742 246.37619 
L 601.876248 234.436021 
L 607.307754 211.181463 
L 612.739261 204.682234 
L 618.170767 210.297901 
L 623.602274 222.321526 
L 629.03378 236.040654 
" style="fill:none;stroke:#ff0000;stroke-dasharray:3.7,1.6;stroke-dashoffset:0;"/>
   </g>
   <g id="patch_13">
    <path d="M 75.183068 250.305354 
L 75.183068 171.594646 
" style="fill:none;stroke:#000000;stroke-linecap:square;stroke-linejoin:miter;"/>
   </g>
   <g id="patch_14">
    <path d="M 645.165354 250.305354 
L 645.165354 171.594646 
" style="fill:none;stroke:#000000;stroke-linecap:square;stroke-linejoin:miter;"/>
   </g>
   <g id="patch_15">
    <path d="M 75.183068 250.305354 
L 645.165354 250.305354 
" style="fill:none;stroke:#000000;stroke-linecap:square;stroke-linejoin:miter;"/>
   </g>
   <g id="patch_16">
    <path d="M 75.183068 171.594646 
L 645.165354 171.594646 
" style="fill:none;stroke:#000000;stroke-linecap:square;stroke-linejoin:miter;"/>
   </g>
  </g>
 </g>
 <defs>
  <clipPath id="pe57c894c93">
   <rect height="78.710709" width="569.982286" x="75.183068" y="2.834646"/>
  </clipPath>
  <clipPath id="p5bf3f2ec64">
   <rect height="78.710709" width="569.982286" x="75.183068" y="87.214646"/>
  </clipPath>
  <clipPath id="p56693dbac6">
   <rect height="78.710709" width="569.982286" x="75.183068" y="171.594646"/>
  </clipPath>
 </defs>
</svg>
