<?xml version="1.0" encoding="utf-8" standalone="no"?>
<!DOCTYPE svg PUBLIC "-//W3C//DTD SVG 1.1//EN"
  "http://www.w3.org/Graphics/SVG/1.1/DTD/svg11.dtd">
<!-- Created with matplotlib (https://matplotlib.org/) -->
<svg height="288pt" version="1.1" viewBox="0 0 648 288" width="648pt" xmlns="http://www.w3.org/2000/svg" xmlns:xlink="http://www.w3.org/1999/xlink">
 <metadata>
  <rdf:RDF xmlns:cc="http://creativecommons.org/ns#" xmlns:dc="http://purl.org/dc/elements/1.1/" xmlns:rdf="http://www.w3.org/1999/02/22-rdf-syntax-ns#">
   <cc:Work>
    <dc:type rdf:resource="http://purl.org/dc/dcmitype/StillImage"/>
    <dc:date>2021-04-29T16:57:45.668087</dc:date>
    <dc:format>image/svg+xml</dc:format>
    <dc:creator>
     <cc:Agent>
      <dc:title>Matplotlib v3.3.2, https://matplotlib.org/</dc:title>
     </cc:Agent>
    </dc:creator>
   </cc:Work>
  </rdf:RDF>
 </metadata>
 <defs>
  <style type="text/css">*{stroke-linecap:butt;stroke-linejoin:round;}</style>
 </defs>
 <g id="figure_1">
  <g id="patch_1">
   <path d="M 0 288 
L 648 288 
L 648 0 
L 0 0 
z
" style="fill:#ffffff;"/>
  </g>
  <g id="axes_1">
   <g id="patch_2">
    <path d="M 86.603664 80.830966 
L 645.165354 80.830966 
L 645.165354 2.834646 
L 86.603664 2.834646 
z
" style="fill:#ffffff;"/>
   </g>
   <g id="matplotlib.axis_1">
    <g id="xtick_1"/>
    <g id="xtick_2"/>
    <g id="xtick_3"/>
    <g id="xtick_4"/>
    <g id="xtick_5"/>
    <g id="xtick_6"/>
   </g>
   <g id="matplotlib.axis_2">
    <g id="ytick_1">
     <g id="line2d_1">
      <path clip-path="url(#p077be6961b)" d="M 86.603664 78.739898 
L 645.165354 78.739898 
" style="fill:none;stroke:#000000;stroke-linecap:square;stroke-opacity:0.1;stroke-width:0.5;"/>
     </g>
     <g id="line2d_2">
      <defs>
       <path d="M 0 0 
L 2.5 0 
" id="m3626a2ef29" style="stroke:#000000;stroke-width:0.5;"/>
      </defs>
      <g>
       <use style="stroke:#000000;stroke-width:0.5;" x="86.603664" xlink:href="#m3626a2ef29" y="78.739898"/>
      </g>
     </g>
     <g id="line2d_3">
      <defs>
       <path d="M 0 0 
L -2.5 0 
" id="m3a29b782d9" style="stroke:#000000;stroke-width:0.5;"/>
      </defs>
      <g>
       <use style="stroke:#000000;stroke-width:0.5;" x="645.165354" xlink:href="#m3a29b782d9" y="78.739898"/>
      </g>
     </g>
     <g id="text_1">
      <!-- $\mathregular{2.5×10^{-5}}$ -->
      <g transform="translate(25.863664 83.298961)scale(0.12 -0.12)">
       <defs>
        <path d="M 19.1875 8.296875 
L 53.609375 8.296875 
L 53.609375 0 
L 7.328125 0 
L 7.328125 8.296875 
Q 12.9375 14.109375 22.625 23.890625 
Q 32.328125 33.6875 34.8125 36.53125 
Q 39.546875 41.84375 41.421875 45.53125 
Q 43.3125 49.21875 43.3125 52.78125 
Q 43.3125 58.59375 39.234375 62.25 
Q 35.15625 65.921875 28.609375 65.921875 
Q 23.96875 65.921875 18.8125 64.3125 
Q 13.671875 62.703125 7.8125 59.421875 
L 7.8125 69.390625 
Q 13.765625 71.78125 18.9375 73 
Q 24.125 74.21875 28.421875 74.21875 
Q 39.75 74.21875 46.484375 68.546875 
Q 53.21875 62.890625 53.21875 53.421875 
Q 53.21875 48.921875 51.53125 44.890625 
Q 49.859375 40.875 45.40625 35.40625 
Q 44.1875 33.984375 37.640625 27.21875 
Q 31.109375 20.453125 19.1875 8.296875 
z
" id="DejaVuSans-50"/>
        <path d="M 10.6875 12.40625 
L 21 12.40625 
L 21 0 
L 10.6875 0 
z
" id="DejaVuSans-46"/>
        <path d="M 10.796875 72.90625 
L 49.515625 72.90625 
L 49.515625 64.59375 
L 19.828125 64.59375 
L 19.828125 46.734375 
Q 21.96875 47.46875 24.109375 47.828125 
Q 26.265625 48.1875 28.421875 48.1875 
Q 40.625 48.1875 47.75 41.5 
Q 54.890625 34.8125 54.890625 23.390625 
Q 54.890625 11.625 47.5625 5.09375 
Q 40.234375 -1.421875 26.90625 -1.421875 
Q 22.3125 -1.421875 17.546875 -0.640625 
Q 12.796875 0.140625 7.71875 1.703125 
L 7.71875 11.625 
Q 12.109375 9.234375 16.796875 8.0625 
Q 21.484375 6.890625 26.703125 6.890625 
Q 35.15625 6.890625 40.078125 11.328125 
Q 45.015625 15.765625 45.015625 23.390625 
Q 45.015625 31 40.078125 35.4375 
Q 35.15625 39.890625 26.703125 39.890625 
Q 22.75 39.890625 18.8125 39.015625 
Q 14.890625 38.140625 10.796875 36.28125 
z
" id="DejaVuSans-53"/>
        <path d="M 70.125 53.71875 
L 47.796875 31.296875 
L 70.125 8.984375 
L 64.3125 3.078125 
L 41.890625 25.484375 
L 19.484375 3.078125 
L 13.71875 8.984375 
L 35.984375 31.296875 
L 13.71875 53.71875 
L 19.484375 59.625 
L 41.890625 37.203125 
L 64.3125 59.625 
z
" id="DejaVuSans-215"/>
        <path d="M 12.40625 8.296875 
L 28.515625 8.296875 
L 28.515625 63.921875 
L 10.984375 60.40625 
L 10.984375 69.390625 
L 28.421875 72.90625 
L 38.28125 72.90625 
L 38.28125 8.296875 
L 54.390625 8.296875 
L 54.390625 0 
L 12.40625 0 
z
" id="DejaVuSans-49"/>
        <path d="M 31.78125 66.40625 
Q 24.171875 66.40625 20.328125 58.90625 
Q 16.5 51.421875 16.5 36.375 
Q 16.5 21.390625 20.328125 13.890625 
Q 24.171875 6.390625 31.78125 6.390625 
Q 39.453125 6.390625 43.28125 13.890625 
Q 47.125 21.390625 47.125 36.375 
Q 47.125 51.421875 43.28125 58.90625 
Q 39.453125 66.40625 31.78125 66.40625 
z
M 31.78125 74.21875 
Q 44.046875 74.21875 50.515625 64.515625 
Q 56.984375 54.828125 56.984375 36.375 
Q 56.984375 17.96875 50.515625 8.265625 
Q 44.046875 -1.421875 31.78125 -1.421875 
Q 19.53125 -1.421875 13.0625 8.265625 
Q 6.59375 17.96875 6.59375 36.375 
Q 6.59375 54.828125 13.0625 64.515625 
Q 19.53125 74.21875 31.78125 74.21875 
z
" id="DejaVuSans-48"/>
        <path d="M 10.59375 35.5 
L 73.1875 35.5 
L 73.1875 27.203125 
L 10.59375 27.203125 
z
" id="DejaVuSans-8722"/>
       </defs>
       <use transform="translate(0 0.684375)" xlink:href="#DejaVuSans-50"/>
       <use transform="translate(63.623047 0.684375)" xlink:href="#DejaVuSans-46"/>
       <use transform="translate(95.410156 0.684375)" xlink:href="#DejaVuSans-53"/>
       <use transform="translate(159.033203 0.684375)" xlink:href="#DejaVuSans-215"/>
       <use transform="translate(242.822266 0.684375)" xlink:href="#DejaVuSans-49"/>
       <use transform="translate(306.445312 0.684375)" xlink:href="#DejaVuSans-48"/>
       <use transform="translate(371.025391 38.965625)scale(0.7)" xlink:href="#DejaVuSans-8722"/>
       <use transform="translate(429.677734 38.965625)scale(0.7)" xlink:href="#DejaVuSans-53"/>
      </g>
     </g>
    </g>
    <g id="ytick_2">
     <g id="line2d_4">
      <path clip-path="url(#p077be6961b)" d="M 86.603664 66.517411 
L 645.165354 66.517411 
" style="fill:none;stroke:#000000;stroke-linecap:square;stroke-opacity:0.1;stroke-width:0.5;"/>
     </g>
     <g id="line2d_5">
      <g>
       <use style="stroke:#000000;stroke-width:0.5;" x="86.603664" xlink:href="#m3626a2ef29" y="66.517411"/>
      </g>
     </g>
     <g id="line2d_6">
      <g>
       <use style="stroke:#000000;stroke-width:0.5;" x="645.165354" xlink:href="#m3a29b782d9" y="66.517411"/>
      </g>
     </g>
     <g id="text_2">
      <!-- $\mathregular{3.0×10^{-5}}$ -->
      <g transform="translate(25.863664 71.076473)scale(0.12 -0.12)">
       <defs>
        <path d="M 40.578125 39.3125 
Q 47.65625 37.796875 51.625 33 
Q 55.609375 28.21875 55.609375 21.1875 
Q 55.609375 10.40625 48.1875 4.484375 
Q 40.765625 -1.421875 27.09375 -1.421875 
Q 22.515625 -1.421875 17.65625 -0.515625 
Q 12.796875 0.390625 7.625 2.203125 
L 7.625 11.71875 
Q 11.71875 9.328125 16.59375 8.109375 
Q 21.484375 6.890625 26.8125 6.890625 
Q 36.078125 6.890625 40.9375 10.546875 
Q 45.796875 14.203125 45.796875 21.1875 
Q 45.796875 27.640625 41.28125 31.265625 
Q 36.765625 34.90625 28.71875 34.90625 
L 20.21875 34.90625 
L 20.21875 43.015625 
L 29.109375 43.015625 
Q 36.375 43.015625 40.234375 45.921875 
Q 44.09375 48.828125 44.09375 54.296875 
Q 44.09375 59.90625 40.109375 62.90625 
Q 36.140625 65.921875 28.71875 65.921875 
Q 24.65625 65.921875 20.015625 65.03125 
Q 15.375 64.15625 9.8125 62.3125 
L 9.8125 71.09375 
Q 15.4375 72.65625 20.34375 73.4375 
Q 25.25 74.21875 29.59375 74.21875 
Q 40.828125 74.21875 47.359375 69.109375 
Q 53.90625 64.015625 53.90625 55.328125 
Q 53.90625 49.265625 50.4375 45.09375 
Q 46.96875 40.921875 40.578125 39.3125 
z
" id="DejaVuSans-51"/>
       </defs>
       <use transform="translate(0 0.684375)" xlink:href="#DejaVuSans-51"/>
       <use transform="translate(63.623047 0.684375)" xlink:href="#DejaVuSans-46"/>
       <use transform="translate(95.410156 0.684375)" xlink:href="#DejaVuSans-48"/>
       <use transform="translate(159.033203 0.684375)" xlink:href="#DejaVuSans-215"/>
       <use transform="translate(242.822266 0.684375)" xlink:href="#DejaVuSans-49"/>
       <use transform="translate(306.445312 0.684375)" xlink:href="#DejaVuSans-48"/>
       <use transform="translate(371.025391 38.965625)scale(0.7)" xlink:href="#DejaVuSans-8722"/>
       <use transform="translate(429.677734 38.965625)scale(0.7)" xlink:href="#DejaVuSans-53"/>
      </g>
     </g>
    </g>
    <g id="ytick_3">
     <g id="line2d_7">
      <path clip-path="url(#p077be6961b)" d="M 86.603664 54.294923 
L 645.165354 54.294923 
" style="fill:none;stroke:#000000;stroke-linecap:square;stroke-opacity:0.1;stroke-width:0.5;"/>
     </g>
     <g id="line2d_8">
      <g>
       <use style="stroke:#000000;stroke-width:0.5;" x="86.603664" xlink:href="#m3626a2ef29" y="54.294923"/>
      </g>
     </g>
     <g id="line2d_9">
      <g>
       <use style="stroke:#000000;stroke-width:0.5;" x="645.165354" xlink:href="#m3a29b782d9" y="54.294923"/>
      </g>
     </g>
     <g id="text_3">
      <!-- $\mathregular{3.5×10^{-5}}$ -->
      <g transform="translate(25.863664 58.853986)scale(0.12 -0.12)">
       <use transform="translate(0 0.684375)" xlink:href="#DejaVuSans-51"/>
       <use transform="translate(63.623047 0.684375)" xlink:href="#DejaVuSans-46"/>
       <use transform="translate(95.410156 0.684375)" xlink:href="#DejaVuSans-53"/>
       <use transform="translate(159.033203 0.684375)" xlink:href="#DejaVuSans-215"/>
       <use transform="translate(242.822266 0.684375)" xlink:href="#DejaVuSans-49"/>
       <use transform="translate(306.445312 0.684375)" xlink:href="#DejaVuSans-48"/>
       <use transform="translate(371.025391 38.965625)scale(0.7)" xlink:href="#DejaVuSans-8722"/>
       <use transform="translate(429.677734 38.965625)scale(0.7)" xlink:href="#DejaVuSans-53"/>
      </g>
     </g>
    </g>
    <g id="ytick_4">
     <g id="line2d_10">
      <path clip-path="url(#p077be6961b)" d="M 86.603664 42.072436 
L 645.165354 42.072436 
" style="fill:none;stroke:#000000;stroke-linecap:square;stroke-opacity:0.1;stroke-width:0.5;"/>
     </g>
     <g id="line2d_11">
      <g>
       <use style="stroke:#000000;stroke-width:0.5;" x="86.603664" xlink:href="#m3626a2ef29" y="42.072436"/>
      </g>
     </g>
     <g id="line2d_12">
      <g>
       <use style="stroke:#000000;stroke-width:0.5;" x="645.165354" xlink:href="#m3a29b782d9" y="42.072436"/>
      </g>
     </g>
     <g id="text_4">
      <!-- $\mathregular{4.0×10^{-5}}$ -->
      <g transform="translate(25.863664 46.631498)scale(0.12 -0.12)">
       <defs>
        <path d="M 37.796875 64.3125 
L 12.890625 25.390625 
L 37.796875 25.390625 
z
M 35.203125 72.90625 
L 47.609375 72.90625 
L 47.609375 25.390625 
L 58.015625 25.390625 
L 58.015625 17.1875 
L 47.609375 17.1875 
L 47.609375 0 
L 37.796875 0 
L 37.796875 17.1875 
L 4.890625 17.1875 
L 4.890625 26.703125 
z
" id="DejaVuSans-52"/>
       </defs>
       <use transform="translate(0 0.684375)" xlink:href="#DejaVuSans-52"/>
       <use transform="translate(63.623047 0.684375)" xlink:href="#DejaVuSans-46"/>
       <use transform="translate(95.410156 0.684375)" xlink:href="#DejaVuSans-48"/>
       <use transform="translate(159.033203 0.684375)" xlink:href="#DejaVuSans-215"/>
       <use transform="translate(242.822266 0.684375)" xlink:href="#DejaVuSans-49"/>
       <use transform="translate(306.445312 0.684375)" xlink:href="#DejaVuSans-48"/>
       <use transform="translate(371.025391 38.965625)scale(0.7)" xlink:href="#DejaVuSans-8722"/>
       <use transform="translate(429.677734 38.965625)scale(0.7)" xlink:href="#DejaVuSans-53"/>
      </g>
     </g>
    </g>
    <g id="ytick_5">
     <g id="line2d_13">
      <path clip-path="url(#p077be6961b)" d="M 86.603664 29.849948 
L 645.165354 29.849948 
" style="fill:none;stroke:#000000;stroke-linecap:square;stroke-opacity:0.1;stroke-width:0.5;"/>
     </g>
     <g id="line2d_14">
      <g>
       <use style="stroke:#000000;stroke-width:0.5;" x="86.603664" xlink:href="#m3626a2ef29" y="29.849948"/>
      </g>
     </g>
     <g id="line2d_15">
      <g>
       <use style="stroke:#000000;stroke-width:0.5;" x="645.165354" xlink:href="#m3a29b782d9" y="29.849948"/>
      </g>
     </g>
     <g id="text_5">
      <!-- $\mathregular{4.5×10^{-5}}$ -->
      <g transform="translate(25.863664 34.40901)scale(0.12 -0.12)">
       <use transform="translate(0 0.684375)" xlink:href="#DejaVuSans-52"/>
       <use transform="translate(63.623047 0.684375)" xlink:href="#DejaVuSans-46"/>
       <use transform="translate(95.410156 0.684375)" xlink:href="#DejaVuSans-53"/>
       <use transform="translate(159.033203 0.684375)" xlink:href="#DejaVuSans-215"/>
       <use transform="translate(242.822266 0.684375)" xlink:href="#DejaVuSans-49"/>
       <use transform="translate(306.445312 0.684375)" xlink:href="#DejaVuSans-48"/>
       <use transform="translate(371.025391 38.965625)scale(0.7)" xlink:href="#DejaVuSans-8722"/>
       <use transform="translate(429.677734 38.965625)scale(0.7)" xlink:href="#DejaVuSans-53"/>
      </g>
     </g>
    </g>
    <g id="ytick_6">
     <g id="line2d_16">
      <path clip-path="url(#p077be6961b)" d="M 86.603664 17.62746 
L 645.165354 17.62746 
" style="fill:none;stroke:#000000;stroke-linecap:square;stroke-opacity:0.1;stroke-width:0.5;"/>
     </g>
     <g id="line2d_17">
      <g>
       <use style="stroke:#000000;stroke-width:0.5;" x="86.603664" xlink:href="#m3626a2ef29" y="17.62746"/>
      </g>
     </g>
     <g id="line2d_18">
      <g>
       <use style="stroke:#000000;stroke-width:0.5;" x="645.165354" xlink:href="#m3a29b782d9" y="17.62746"/>
      </g>
     </g>
     <g id="text_6">
      <!-- $\mathregular{5.0×10^{-5}}$ -->
      <g transform="translate(25.863664 22.186523)scale(0.12 -0.12)">
       <use transform="translate(0 0.684375)" xlink:href="#DejaVuSans-53"/>
       <use transform="translate(63.623047 0.684375)" xlink:href="#DejaVuSans-46"/>
       <use transform="translate(95.410156 0.684375)" xlink:href="#DejaVuSans-48"/>
       <use transform="translate(159.033203 0.684375)" xlink:href="#DejaVuSans-215"/>
       <use transform="translate(242.822266 0.684375)" xlink:href="#DejaVuSans-49"/>
       <use transform="translate(306.445312 0.684375)" xlink:href="#DejaVuSans-48"/>
       <use transform="translate(371.025391 38.965625)scale(0.7)" xlink:href="#DejaVuSans-8722"/>
       <use transform="translate(429.677734 38.965625)scale(0.7)" xlink:href="#DejaVuSans-53"/>
      </g>
     </g>
    </g>
    <g id="ytick_7">
     <g id="line2d_19">
      <path clip-path="url(#p077be6961b)" d="M 86.603664 5.404973 
L 645.165354 5.404973 
" style="fill:none;stroke:#000000;stroke-linecap:square;stroke-opacity:0.1;stroke-width:0.5;"/>
     </g>
     <g id="line2d_20">
      <g>
       <use style="stroke:#000000;stroke-width:0.5;" x="86.603664" xlink:href="#m3626a2ef29" y="5.404973"/>
      </g>
     </g>
     <g id="line2d_21">
      <g>
       <use style="stroke:#000000;stroke-width:0.5;" x="645.165354" xlink:href="#m3a29b782d9" y="5.404973"/>
      </g>
     </g>
     <g id="text_7">
      <!-- $\mathregular{5.5×10^{-5}}$ -->
      <g transform="translate(25.863664 9.964035)scale(0.12 -0.12)">
       <use transform="translate(0 0.684375)" xlink:href="#DejaVuSans-53"/>
       <use transform="translate(63.623047 0.684375)" xlink:href="#DejaVuSans-46"/>
       <use transform="translate(95.410156 0.684375)" xlink:href="#DejaVuSans-53"/>
       <use transform="translate(159.033203 0.684375)" xlink:href="#DejaVuSans-215"/>
       <use transform="translate(242.822266 0.684375)" xlink:href="#DejaVuSans-49"/>
       <use transform="translate(306.445312 0.684375)" xlink:href="#DejaVuSans-48"/>
       <use transform="translate(371.025391 38.965625)scale(0.7)" xlink:href="#DejaVuSans-8722"/>
       <use transform="translate(429.677734 38.965625)scale(0.7)" xlink:href="#DejaVuSans-53"/>
      </g>
     </g>
    </g>
    <g id="text_8">
     <!-- $Y_{CH_4}$ -->
     <g transform="translate(17.383664 57.752806)rotate(-90)scale(0.16 -0.16)">
      <defs>
       <path d="M 6.296875 72.90625 
L 16.890625 72.90625 
L 30.515625 42.921875 
L 56.5 72.90625 
L 67.578125 72.90625 
L 34.515625 34.71875 
L 27.78125 0 
L 17.921875 0 
L 24.609375 34.71875 
z
" id="DejaVuSans-Oblique-89"/>
       <path d="M 69.484375 67.28125 
L 67.484375 56.890625 
Q 62.796875 61.625 57.546875 63.921875 
Q 52.296875 66.21875 46.1875 66.21875 
Q 37.84375 66.21875 31.515625 62.203125 
Q 25.203125 58.203125 20.609375 50 
Q 17.671875 44.734375 16.125 38.84375 
Q 14.59375 32.953125 14.59375 27 
Q 14.59375 17.046875 19.75 11.8125 
Q 24.90625 6.59375 34.71875 6.59375 
Q 41.5 6.59375 47.75 8.765625 
Q 54 10.9375 59.90625 15.28125 
L 57.625 3.609375 
Q 51.8125 1.125 45.875 -0.140625 
Q 39.9375 -1.421875 33.984375 -1.421875 
Q 19.96875 -1.421875 12.078125 6.1875 
Q 4.203125 13.8125 4.203125 27.390625 
Q 4.203125 36.078125 7.203125 44.46875 
Q 10.203125 52.875 15.828125 59.8125 
Q 21.78125 67.1875 29.421875 70.703125 
Q 37.0625 74.21875 47.21875 74.21875 
Q 53.46875 74.21875 59.0625 72.484375 
Q 64.65625 70.75 69.484375 67.28125 
z
" id="DejaVuSans-Oblique-67"/>
       <path d="M 16.890625 72.90625 
L 26.8125 72.90625 
L 21 43.015625 
L 56.78125 43.015625 
L 62.59375 72.90625 
L 72.515625 72.90625 
L 58.296875 0 
L 48.390625 0 
L 55.171875 34.71875 
L 19.390625 34.71875 
L 12.59375 0 
L 2.6875 0 
z
" id="DejaVuSans-Oblique-72"/>
      </defs>
      <use transform="translate(0 0.09375)" xlink:href="#DejaVuSans-Oblique-89"/>
      <use transform="translate(61.083984 -16.3125)scale(0.7)" xlink:href="#DejaVuSans-Oblique-67"/>
      <use transform="translate(109.960938 -16.3125)scale(0.7)" xlink:href="#DejaVuSans-Oblique-72"/>
      <use transform="translate(162.597656 -27.796875)scale(0.49)" xlink:href="#DejaVuSans-52"/>
     </g>
    </g>
   </g>
   <g id="PathCollection_1">
    <defs>
     <path d="M 0 2 
C 0.530406 2 1.03916 1.789267 1.414214 1.414214 
C 1.789267 1.03916 2 0.530406 2 0 
C 2 -0.530406 1.789267 -1.03916 1.414214 -1.414214 
C 1.03916 -1.789267 0.530406 -2 0 -2 
C -0.530406 -2 -1.03916 -1.789267 -1.414214 -1.414214 
C -1.789267 -1.03916 -2 -0.530406 -2 0 
C -2 0.530406 -1.789267 1.03916 -1.414214 1.414214 
C -1.03916 1.789267 -0.530406 2 0 2 
z
" id="maebb161d94"/>
    </defs>
    <g clip-path="url(#p077be6961b)">
     <use x="102.412014" xlink:href="#maebb161d94" y="30.926285"/>
     <use x="107.73469" xlink:href="#maebb161d94" y="29.837206"/>
     <use x="113.057367" xlink:href="#maebb161d94" y="28.731915"/>
     <use x="118.380044" xlink:href="#maebb161d94" y="27.222884"/>
     <use x="123.70272" xlink:href="#maebb161d94" y="26.908357"/>
     <use x="129.025397" xlink:href="#maebb161d94" y="28.629984"/>
     <use x="134.348074" xlink:href="#maebb161d94" y="30.951006"/>
     <use x="139.67075" xlink:href="#maebb161d94" y="32.5865"/>
     <use x="144.993427" xlink:href="#maebb161d94" y="31.105649"/>
     <use x="150.316104" xlink:href="#maebb161d94" y="28.611782"/>
     <use x="155.63878" xlink:href="#maebb161d94" y="25.276823"/>
     <use x="160.961457" xlink:href="#maebb161d94" y="25.198977"/>
     <use x="166.284134" xlink:href="#maebb161d94" y="26.877072"/>
     <use x="171.60681" xlink:href="#maebb161d94" y="31.61832"/>
     <use x="176.929487" xlink:href="#maebb161d94" y="34.974599"/>
     <use x="182.252164" xlink:href="#maebb161d94" y="33.454314"/>
     <use x="187.57484" xlink:href="#maebb161d94" y="29.01255"/>
     <use x="192.897517" xlink:href="#maebb161d94" y="23.485771"/>
     <use x="198.220194" xlink:href="#maebb161d94" y="19.794511"/>
     <use x="203.54287" xlink:href="#maebb161d94" y="23.051617"/>
     <use x="208.865547" xlink:href="#maebb161d94" y="31.171073"/>
     <use x="214.188224" xlink:href="#maebb161d94" y="37.645396"/>
     <use x="219.5109" xlink:href="#maebb161d94" y="38.584608"/>
     <use x="224.833577" xlink:href="#maebb161d94" y="30.401349"/>
     <use x="230.156254" xlink:href="#maebb161d94" y="19.409977"/>
     <use x="235.47893" xlink:href="#maebb161d94" y="13.035521"/>
     <use x="240.801607" xlink:href="#maebb161d94" y="15.18329"/>
     <use x="246.124284" xlink:href="#maebb161d94" y="28.218383"/>
     <use x="251.446961" xlink:href="#maebb161d94" y="43.105631"/>
     <use x="256.769637" xlink:href="#maebb161d94" y="45.857889"/>
     <use x="262.092314" xlink:href="#maebb161d94" y="35.153283"/>
     <use x="267.414991" xlink:href="#maebb161d94" y="17.825209"/>
     <use x="272.737667" xlink:href="#maebb161d94" y="5.042089"/>
     <use x="278.060344" xlink:href="#maebb161d94" y="7.499858"/>
     <use x="283.383021" xlink:href="#maebb161d94" y="32.030012"/>
     <use x="288.705697" xlink:href="#maebb161d94" y="57.829823"/>
     <use x="294.028374" xlink:href="#maebb161d94" y="58.526177"/>
     <use x="299.351051" xlink:href="#maebb161d94" y="44.064542"/>
     <use x="304.673727" xlink:href="#maebb161d94" y="26.582079"/>
     <use x="309.996404" xlink:href="#maebb161d94" y="16.405009"/>
     <use x="315.319081" xlink:href="#maebb161d94" y="27.539937"/>
     <use x="320.641757" xlink:href="#maebb161d94" y="53.261185"/>
     <use x="325.964434" xlink:href="#maebb161d94" y="63.799788"/>
     <use x="331.287111" xlink:href="#maebb161d94" y="57.066076"/>
     <use x="336.609787" xlink:href="#maebb161d94" y="45.223048"/>
     <use x="341.932464" xlink:href="#maebb161d94" y="39.343868"/>
     <use x="347.255141" xlink:href="#maebb161d94" y="42.869906"/>
     <use x="352.577817" xlink:href="#maebb161d94" y="55.312959"/>
     <use x="357.900494" xlink:href="#maebb161d94" y="62.598077"/>
     <use x="363.223171" xlink:href="#maebb161d94" y="60.322226"/>
     <use x="368.545847" xlink:href="#maebb161d94" y="56.080015"/>
     <use x="373.868524" xlink:href="#maebb161d94" y="54.685584"/>
     <use x="379.191201" xlink:href="#maebb161d94" y="57.073075"/>
     <use x="384.513877" xlink:href="#maebb161d94" y="61.499212"/>
     <use x="389.836554" xlink:href="#maebb161d94" y="63.164686"/>
     <use x="395.159231" xlink:href="#maebb161d94" y="63.82731"/>
     <use x="400.481907" xlink:href="#maebb161d94" y="63.187396"/>
     <use x="405.804584" xlink:href="#maebb161d94" y="64.208999"/>
     <use x="411.127261" xlink:href="#maebb161d94" y="65.082177"/>
     <use x="416.449938" xlink:href="#maebb161d94" y="66.839659"/>
     <use x="421.772614" xlink:href="#maebb161d94" y="68.254693"/>
     <use x="427.095291" xlink:href="#maebb161d94" y="69.029838"/>
     <use x="432.417968" xlink:href="#maebb161d94" y="69.252826"/>
     <use x="437.740644" xlink:href="#maebb161d94" y="70.495991"/>
     <use x="443.063321" xlink:href="#maebb161d94" y="71.666224"/>
     <use x="448.385998" xlink:href="#maebb161d94" y="71.609933"/>
     <use x="453.708674" xlink:href="#maebb161d94" y="73.171347"/>
     <use x="459.031351" xlink:href="#maebb161d94" y="72.855991"/>
     <use x="464.354028" xlink:href="#maebb161d94" y="74.134081"/>
     <use x="469.676704" xlink:href="#maebb161d94" y="74.652303"/>
     <use x="474.999381" xlink:href="#maebb161d94" y="75.498579"/>
     <use x="480.322058" xlink:href="#maebb161d94" y="75.369526"/>
     <use x="485.644734" xlink:href="#maebb161d94" y="76.054726"/>
     <use x="490.967411" xlink:href="#maebb161d94" y="76.044968"/>
     <use x="496.290088" xlink:href="#maebb161d94" y="75.763869"/>
     <use x="501.612764" xlink:href="#maebb161d94" y="75.820524"/>
     <use x="506.935441" xlink:href="#maebb161d94" y="76.367147"/>
     <use x="512.258118" xlink:href="#maebb161d94" y="76.058812"/>
     <use x="517.580794" xlink:href="#maebb161d94" y="76.509827"/>
     <use x="522.903471" xlink:href="#maebb161d94" y="76.762458"/>
     <use x="528.226148" xlink:href="#maebb161d94" y="76.411112"/>
     <use x="533.548824" xlink:href="#maebb161d94" y="77.355849"/>
     <use x="538.871501" xlink:href="#maebb161d94" y="76.174361"/>
     <use x="544.194178" xlink:href="#maebb161d94" y="76.368547"/>
     <use x="549.516854" xlink:href="#maebb161d94" y="77.261734"/>
     <use x="554.839531" xlink:href="#maebb161d94" y="76.902627"/>
     <use x="560.162208" xlink:href="#maebb161d94" y="76.971068"/>
     <use x="565.484884" xlink:href="#maebb161d94" y="77.167115"/>
     <use x="570.807561" xlink:href="#maebb161d94" y="77.576233"/>
     <use x="576.130238" xlink:href="#maebb161d94" y="76.86781"/>
     <use x="581.452915" xlink:href="#maebb161d94" y="77.316638"/>
     <use x="586.775591" xlink:href="#maebb161d94" y="77.935402"/>
     <use x="592.098268" xlink:href="#maebb161d94" y="76.757559"/>
     <use x="597.420945" xlink:href="#maebb161d94" y="78.193139"/>
     <use x="602.743621" xlink:href="#maebb161d94" y="77.169276"/>
     <use x="608.066298" xlink:href="#maebb161d94" y="77.557217"/>
     <use x="613.388975" xlink:href="#maebb161d94" y="77.967256"/>
     <use x="618.711651" xlink:href="#maebb161d94" y="78.329967"/>
     <use x="624.034328" xlink:href="#maebb161d94" y="77.446753"/>
     <use x="629.357005" xlink:href="#maebb161d94" y="77.206635"/>
    </g>
   </g>
   <g id="line2d_22">
    <path clip-path="url(#p077be6961b)" d="M 102.412014 30.768731 
L 107.73469 30.182106 
L 113.057367 29.105211 
L 118.380044 28.240401 
L 123.70272 28.275347 
L 129.025397 29.348711 
L 134.348074 30.807036 
L 139.67075 31.563382 
L 144.993427 30.915955 
L 150.316104 29.134438 
L 155.63878 27.358988 
L 160.961457 26.939848 
L 166.284134 28.500946 
L 171.60681 31.219103 
L 176.929487 33.126293 
L 182.252164 32.621063 
L 187.57484 29.790851 
L 192.897517 26.381283 
L 198.220194 24.849469 
L 203.54287 26.868655 
L 208.865547 31.66827 
L 214.188224 35.820712 
L 219.5109 35.944321 
L 224.833577 31.690837 
L 230.156254 25.69028 
L 235.47893 22.04268 
L 240.801607 24.299634 
L 246.124284 32.308449 
L 251.446961 40.301018 
L 256.769637 41.633545 
L 262.092314 35.569534 
L 267.414991 26.323899 
L 272.737667 20.16507 
L 278.060344 23.042768 
L 283.383021 35.46475 
L 288.705697 47.689916 
L 294.028374 49.119997 
L 299.351051 40.896293 
L 304.673727 30.160818 
L 309.996404 25.149144 
L 315.319081 32.079118 
L 320.641757 47.389654 
L 325.964434 56.539001 
L 331.287111 53.801347 
L 336.609787 45.919279 
L 341.932464 40.987634 
L 347.255141 44.249226 
L 352.577817 53.461795 
L 357.900494 59.772677 
L 363.223171 59.610797 
L 368.545847 56.946682 
L 373.868524 56.234902 
L 379.191201 58.714374 
L 384.513877 62.146252 
L 389.836554 64.065793 
L 395.159231 64.499929 
L 400.481907 64.79358 
L 405.804584 65.701922 
L 411.127261 66.971878 
L 416.449938 68.076862 
L 421.772614 68.865375 
L 427.095291 69.508301 
L 432.417968 70.16298 
L 437.740644 70.834556 
L 443.063321 71.464411 
L 448.385998 72.024201 
L 453.708674 72.527152 
L 459.031351 72.993255 
L 464.354028 73.430615 
L 469.676704 73.837514 
L 474.999381 74.212831 
L 480.322058 74.558525 
L 485.644734 74.877715 
L 490.967411 75.174204 
L 496.290088 75.449644 
L 501.612764 75.705278 
L 506.935441 75.942653 
L 512.258118 76.163443 
L 517.580794 76.368658 
L 522.903471 76.560012 
L 528.226148 76.738565 
L 533.548824 76.905267 
L 538.871501 77.06081 
L 544.194178 77.206368 
L 549.516854 77.342635 
L 554.839531 77.470337 
L 560.162208 77.589884 
L 565.484884 77.702155 
L 570.807561 77.807464 
L 576.130238 77.906442 
L 581.452915 77.999471 
L 586.775591 78.086845 
L 592.098268 78.169114 
L 597.420945 78.246444 
L 602.743621 78.319208 
L 608.066298 78.38774 
L 613.388975 78.452155 
L 618.711651 78.512811 
L 624.034328 78.569903 
L 629.357005 78.623523 
" style="fill:none;stroke:#ff0000;"/>
   </g>
   <g id="patch_3">
    <path d="M 86.603664 80.830966 
L 86.603664 2.834646 
" style="fill:none;stroke:#000000;stroke-linecap:square;stroke-linejoin:miter;"/>
   </g>
   <g id="patch_4">
    <path d="M 645.165354 80.830966 
L 645.165354 2.834646 
" style="fill:none;stroke:#000000;stroke-linecap:square;stroke-linejoin:miter;"/>
   </g>
   <g id="patch_5">
    <path d="M 86.603664 80.830966 
L 645.165354 80.830966 
" style="fill:none;stroke:#000000;stroke-linecap:square;stroke-linejoin:miter;"/>
   </g>
   <g id="patch_6">
    <path d="M 86.603664 2.834646 
L 645.165354 2.834646 
" style="fill:none;stroke:#000000;stroke-linecap:square;stroke-linejoin:miter;"/>
   </g>
  </g>
  <g id="axes_2">
   <g id="patch_7">
    <path d="M 86.603664 165.451349 
L 645.165354 165.451349 
L 645.165354 87.455029 
L 86.603664 87.455029 
z
" style="fill:#ffffff;"/>
   </g>
   <g id="matplotlib.axis_3">
    <g id="xtick_7"/>
    <g id="xtick_8"/>
    <g id="xtick_9"/>
    <g id="xtick_10"/>
    <g id="xtick_11"/>
    <g id="xtick_12"/>
   </g>
   <g id="matplotlib.axis_4">
    <g id="ytick_8">
     <g id="line2d_23">
      <path clip-path="url(#p8eeab5bab7)" d="M 86.603664 163.628292 
L 645.165354 163.628292 
" style="fill:none;stroke:#000000;stroke-linecap:square;stroke-opacity:0.1;stroke-width:0.5;"/>
     </g>
     <g id="line2d_24">
      <g>
       <use style="stroke:#000000;stroke-width:0.5;" x="86.603664" xlink:href="#m3626a2ef29" y="163.628292"/>
      </g>
     </g>
     <g id="line2d_25">
      <g>
       <use style="stroke:#000000;stroke-width:0.5;" x="645.165354" xlink:href="#m3a29b782d9" y="163.628292"/>
      </g>
     </g>
     <g id="text_9">
      <!-- $\mathregular{0.00115}$ -->
      <g transform="translate(33.423664 168.187354)scale(0.12 -0.12)">
       <use transform="translate(0 0.78125)" xlink:href="#DejaVuSans-48"/>
       <use transform="translate(63.623047 0.78125)" xlink:href="#DejaVuSans-46"/>
       <use transform="translate(95.410156 0.78125)" xlink:href="#DejaVuSans-48"/>
       <use transform="translate(159.033203 0.78125)" xlink:href="#DejaVuSans-48"/>
       <use transform="translate(222.65625 0.78125)" xlink:href="#DejaVuSans-49"/>
       <use transform="translate(286.279297 0.78125)" xlink:href="#DejaVuSans-49"/>
       <use transform="translate(349.902344 0.78125)" xlink:href="#DejaVuSans-53"/>
      </g>
     </g>
    </g>
    <g id="ytick_9">
     <g id="line2d_26">
      <path clip-path="url(#p8eeab5bab7)" d="M 86.603664 151.641743 
L 645.165354 151.641743 
" style="fill:none;stroke:#000000;stroke-linecap:square;stroke-opacity:0.1;stroke-width:0.5;"/>
     </g>
     <g id="line2d_27">
      <g>
       <use style="stroke:#000000;stroke-width:0.5;" x="86.603664" xlink:href="#m3626a2ef29" y="151.641743"/>
      </g>
     </g>
     <g id="line2d_28">
      <g>
       <use style="stroke:#000000;stroke-width:0.5;" x="645.165354" xlink:href="#m3a29b782d9" y="151.641743"/>
      </g>
     </g>
     <g id="text_10">
      <!-- $\mathregular{0.00120}$ -->
      <g transform="translate(33.423664 156.200806)scale(0.12 -0.12)">
       <use transform="translate(0 0.78125)" xlink:href="#DejaVuSans-48"/>
       <use transform="translate(63.623047 0.78125)" xlink:href="#DejaVuSans-46"/>
       <use transform="translate(95.410156 0.78125)" xlink:href="#DejaVuSans-48"/>
       <use transform="translate(159.033203 0.78125)" xlink:href="#DejaVuSans-48"/>
       <use transform="translate(222.65625 0.78125)" xlink:href="#DejaVuSans-49"/>
       <use transform="translate(286.279297 0.78125)" xlink:href="#DejaVuSans-50"/>
       <use transform="translate(349.902344 0.78125)" xlink:href="#DejaVuSans-48"/>
      </g>
     </g>
    </g>
    <g id="ytick_10">
     <g id="line2d_29">
      <path clip-path="url(#p8eeab5bab7)" d="M 86.603664 139.655194 
L 645.165354 139.655194 
" style="fill:none;stroke:#000000;stroke-linecap:square;stroke-opacity:0.1;stroke-width:0.5;"/>
     </g>
     <g id="line2d_30">
      <g>
       <use style="stroke:#000000;stroke-width:0.5;" x="86.603664" xlink:href="#m3626a2ef29" y="139.655194"/>
      </g>
     </g>
     <g id="line2d_31">
      <g>
       <use style="stroke:#000000;stroke-width:0.5;" x="645.165354" xlink:href="#m3a29b782d9" y="139.655194"/>
      </g>
     </g>
     <g id="text_11">
      <!-- $\mathregular{0.00125}$ -->
      <g transform="translate(33.423664 144.214257)scale(0.12 -0.12)">
       <use transform="translate(0 0.78125)" xlink:href="#DejaVuSans-48"/>
       <use transform="translate(63.623047 0.78125)" xlink:href="#DejaVuSans-46"/>
       <use transform="translate(95.410156 0.78125)" xlink:href="#DejaVuSans-48"/>
       <use transform="translate(159.033203 0.78125)" xlink:href="#DejaVuSans-48"/>
       <use transform="translate(222.65625 0.78125)" xlink:href="#DejaVuSans-49"/>
       <use transform="translate(286.279297 0.78125)" xlink:href="#DejaVuSans-50"/>
       <use transform="translate(349.902344 0.78125)" xlink:href="#DejaVuSans-53"/>
      </g>
     </g>
    </g>
    <g id="ytick_11">
     <g id="line2d_32">
      <path clip-path="url(#p8eeab5bab7)" d="M 86.603664 127.668646 
L 645.165354 127.668646 
" style="fill:none;stroke:#000000;stroke-linecap:square;stroke-opacity:0.1;stroke-width:0.5;"/>
     </g>
     <g id="line2d_33">
      <g>
       <use style="stroke:#000000;stroke-width:0.5;" x="86.603664" xlink:href="#m3626a2ef29" y="127.668646"/>
      </g>
     </g>
     <g id="line2d_34">
      <g>
       <use style="stroke:#000000;stroke-width:0.5;" x="645.165354" xlink:href="#m3a29b782d9" y="127.668646"/>
      </g>
     </g>
     <g id="text_12">
      <!-- $\mathregular{0.00130}$ -->
      <g transform="translate(33.423664 132.227708)scale(0.12 -0.12)">
       <use transform="translate(0 0.78125)" xlink:href="#DejaVuSans-48"/>
       <use transform="translate(63.623047 0.78125)" xlink:href="#DejaVuSans-46"/>
       <use transform="translate(95.410156 0.78125)" xlink:href="#DejaVuSans-48"/>
       <use transform="translate(159.033203 0.78125)" xlink:href="#DejaVuSans-48"/>
       <use transform="translate(222.65625 0.78125)" xlink:href="#DejaVuSans-49"/>
       <use transform="translate(286.279297 0.78125)" xlink:href="#DejaVuSans-51"/>
       <use transform="translate(349.902344 0.78125)" xlink:href="#DejaVuSans-48"/>
      </g>
     </g>
    </g>
    <g id="ytick_12">
     <g id="line2d_35">
      <path clip-path="url(#p8eeab5bab7)" d="M 86.603664 115.682097 
L 645.165354 115.682097 
" style="fill:none;stroke:#000000;stroke-linecap:square;stroke-opacity:0.1;stroke-width:0.5;"/>
     </g>
     <g id="line2d_36">
      <g>
       <use style="stroke:#000000;stroke-width:0.5;" x="86.603664" xlink:href="#m3626a2ef29" y="115.682097"/>
      </g>
     </g>
     <g id="line2d_37">
      <g>
       <use style="stroke:#000000;stroke-width:0.5;" x="645.165354" xlink:href="#m3a29b782d9" y="115.682097"/>
      </g>
     </g>
     <g id="text_13">
      <!-- $\mathregular{0.00135}$ -->
      <g transform="translate(33.423664 120.24116)scale(0.12 -0.12)">
       <use transform="translate(0 0.78125)" xlink:href="#DejaVuSans-48"/>
       <use transform="translate(63.623047 0.78125)" xlink:href="#DejaVuSans-46"/>
       <use transform="translate(95.410156 0.78125)" xlink:href="#DejaVuSans-48"/>
       <use transform="translate(159.033203 0.78125)" xlink:href="#DejaVuSans-48"/>
       <use transform="translate(222.65625 0.78125)" xlink:href="#DejaVuSans-49"/>
       <use transform="translate(286.279297 0.78125)" xlink:href="#DejaVuSans-51"/>
       <use transform="translate(349.902344 0.78125)" xlink:href="#DejaVuSans-53"/>
      </g>
     </g>
    </g>
    <g id="ytick_13">
     <g id="line2d_38">
      <path clip-path="url(#p8eeab5bab7)" d="M 86.603664 103.695549 
L 645.165354 103.695549 
" style="fill:none;stroke:#000000;stroke-linecap:square;stroke-opacity:0.1;stroke-width:0.5;"/>
     </g>
     <g id="line2d_39">
      <g>
       <use style="stroke:#000000;stroke-width:0.5;" x="86.603664" xlink:href="#m3626a2ef29" y="103.695549"/>
      </g>
     </g>
     <g id="line2d_40">
      <g>
       <use style="stroke:#000000;stroke-width:0.5;" x="645.165354" xlink:href="#m3a29b782d9" y="103.695549"/>
      </g>
     </g>
     <g id="text_14">
      <!-- $\mathregular{0.00140}$ -->
      <g transform="translate(33.423664 108.254611)scale(0.12 -0.12)">
       <use transform="translate(0 0.78125)" xlink:href="#DejaVuSans-48"/>
       <use transform="translate(63.623047 0.78125)" xlink:href="#DejaVuSans-46"/>
       <use transform="translate(95.410156 0.78125)" xlink:href="#DejaVuSans-48"/>
       <use transform="translate(159.033203 0.78125)" xlink:href="#DejaVuSans-48"/>
       <use transform="translate(222.65625 0.78125)" xlink:href="#DejaVuSans-49"/>
       <use transform="translate(286.279297 0.78125)" xlink:href="#DejaVuSans-52"/>
       <use transform="translate(349.902344 0.78125)" xlink:href="#DejaVuSans-48"/>
      </g>
     </g>
    </g>
    <g id="ytick_14">
     <g id="line2d_41">
      <path clip-path="url(#p8eeab5bab7)" d="M 86.603664 91.709 
L 645.165354 91.709 
" style="fill:none;stroke:#000000;stroke-linecap:square;stroke-opacity:0.1;stroke-width:0.5;"/>
     </g>
     <g id="line2d_42">
      <g>
       <use style="stroke:#000000;stroke-width:0.5;" x="86.603664" xlink:href="#m3626a2ef29" y="91.709"/>
      </g>
     </g>
     <g id="line2d_43">
      <g>
       <use style="stroke:#000000;stroke-width:0.5;" x="645.165354" xlink:href="#m3a29b782d9" y="91.709"/>
      </g>
     </g>
     <g id="text_15">
      <!-- $\mathregular{0.00145}$ -->
      <g transform="translate(33.423664 96.268063)scale(0.12 -0.12)">
       <use transform="translate(0 0.78125)" xlink:href="#DejaVuSans-48"/>
       <use transform="translate(63.623047 0.78125)" xlink:href="#DejaVuSans-46"/>
       <use transform="translate(95.410156 0.78125)" xlink:href="#DejaVuSans-48"/>
       <use transform="translate(159.033203 0.78125)" xlink:href="#DejaVuSans-48"/>
       <use transform="translate(222.65625 0.78125)" xlink:href="#DejaVuSans-49"/>
       <use transform="translate(286.279297 0.78125)" xlink:href="#DejaVuSans-52"/>
       <use transform="translate(349.902344 0.78125)" xlink:href="#DejaVuSans-53"/>
      </g>
     </g>
    </g>
    <g id="text_16">
     <!-- $Y_{CO}$ -->
     <g transform="translate(26.096164 139.893189)rotate(-90)scale(0.16 -0.16)">
      <defs>
       <path d="M 45.609375 66.21875 
Q 37.5 66.21875 31.296875 62.28125 
Q 25.09375 58.34375 20.515625 50.296875 
Q 17.578125 45.171875 16.03125 39.40625 
Q 14.5 33.640625 14.5 27.78125 
Q 14.5 17.625 19.359375 12.109375 
Q 24.21875 6.59375 33.109375 6.59375 
Q 41.109375 6.59375 47.375 10.5625 
Q 53.65625 14.546875 58.109375 22.40625 
Q 61.078125 27.6875 62.640625 33.46875 
Q 64.203125 39.265625 64.203125 45.015625 
Q 64.203125 55.125 59.3125 60.671875 
Q 54.4375 66.21875 45.609375 66.21875 
z
M 32.8125 -1.421875 
Q 19.390625 -1.421875 11.6875 6.53125 
Q 4 14.5 4 28.328125 
Q 4 36.234375 7 44.484375 
Q 10.015625 52.734375 15.28125 59.1875 
Q 21.484375 66.75 29.09375 70.484375 
Q 36.71875 74.21875 45.90625 74.21875 
Q 59.28125 74.21875 66.984375 66.328125 
Q 74.703125 58.453125 74.703125 44.828125 
Q 74.703125 36.421875 71.765625 28.3125 
Q 68.84375 20.21875 63.375 13.625 
Q 57.125 6 49.578125 2.28125 
Q 42.046875 -1.421875 32.8125 -1.421875 
z
" id="DejaVuSans-Oblique-79"/>
      </defs>
      <use transform="translate(0 0.09375)" xlink:href="#DejaVuSans-Oblique-89"/>
      <use transform="translate(61.083984 -16.3125)scale(0.7)" xlink:href="#DejaVuSans-Oblique-67"/>
      <use transform="translate(109.960938 -16.3125)scale(0.7)" xlink:href="#DejaVuSans-Oblique-79"/>
     </g>
    </g>
   </g>
   <g id="PathCollection_2">
    <g clip-path="url(#p8eeab5bab7)">
     <use x="102.412014" xlink:href="#maebb161d94" y="108.618154"/>
     <use x="107.73469" xlink:href="#maebb161d94" y="109.57729"/>
     <use x="113.057367" xlink:href="#maebb161d94" y="108.99223"/>
     <use x="118.380044" xlink:href="#maebb161d94" y="106.426698"/>
     <use x="123.70272" xlink:href="#maebb161d94" y="105.923358"/>
     <use x="129.025397" xlink:href="#maebb161d94" y="105.852083"/>
     <use x="134.348074" xlink:href="#maebb161d94" y="107.662421"/>
     <use x="139.67075" xlink:href="#maebb161d94" y="108.537911"/>
     <use x="144.993427" xlink:href="#maebb161d94" y="109.532834"/>
     <use x="150.316104" xlink:href="#maebb161d94" y="109.698763"/>
     <use x="155.63878" xlink:href="#maebb161d94" y="106.130584"/>
     <use x="160.961457" xlink:href="#maebb161d94" y="104.216299"/>
     <use x="166.284134" xlink:href="#maebb161d94" y="103.137985"/>
     <use x="171.60681" xlink:href="#maebb161d94" y="105.129929"/>
     <use x="176.929487" xlink:href="#maebb161d94" y="109.482347"/>
     <use x="182.252164" xlink:href="#maebb161d94" y="112.383337"/>
     <use x="187.57484" xlink:href="#maebb161d94" y="110.607045"/>
     <use x="192.897517" xlink:href="#maebb161d94" y="108.014128"/>
     <use x="198.220194" xlink:href="#maebb161d94" y="102.990168"/>
     <use x="203.54287" xlink:href="#maebb161d94" y="100.283094"/>
     <use x="208.865547" xlink:href="#maebb161d94" y="103.020161"/>
     <use x="214.188224" xlink:href="#maebb161d94" y="109.139518"/>
     <use x="219.5109" xlink:href="#maebb161d94" y="114.270904"/>
     <use x="224.833577" xlink:href="#maebb161d94" y="114.957605"/>
     <use x="230.156254" xlink:href="#maebb161d94" y="109.312648"/>
     <use x="235.47893" xlink:href="#maebb161d94" y="101.031806"/>
     <use x="240.801607" xlink:href="#maebb161d94" y="93.728244"/>
     <use x="246.124284" xlink:href="#maebb161d94" y="94.520945"/>
     <use x="251.446961" xlink:href="#maebb161d94" y="105.596266"/>
     <use x="256.769637" xlink:href="#maebb161d94" y="119.217356"/>
     <use x="262.092314" xlink:href="#maebb161d94" y="122.288264"/>
     <use x="267.414991" xlink:href="#maebb161d94" y="114.377661"/>
     <use x="272.737667" xlink:href="#maebb161d94" y="101.279783"/>
     <use x="278.060344" xlink:href="#maebb161d94" y="89.662472"/>
     <use x="283.383021" xlink:href="#maebb161d94" y="90.566288"/>
     <use x="288.705697" xlink:href="#maebb161d94" y="113.315422"/>
     <use x="294.028374" xlink:href="#maebb161d94" y="133.564681"/>
     <use x="299.351051" xlink:href="#maebb161d94" y="135.51414"/>
     <use x="304.673727" xlink:href="#maebb161d94" y="124.651563"/>
     <use x="309.996404" xlink:href="#maebb161d94" y="109.912547"/>
     <use x="315.319081" xlink:href="#maebb161d94" y="102.139953"/>
     <use x="320.641757" xlink:href="#maebb161d94" y="110.436696"/>
     <use x="325.964434" xlink:href="#maebb161d94" y="131.506139"/>
     <use x="331.287111" xlink:href="#maebb161d94" y="141.241943"/>
     <use x="336.609787" xlink:href="#maebb161d94" y="136.592636"/>
     <use x="341.932464" xlink:href="#maebb161d94" y="127.395297"/>
     <use x="347.255141" xlink:href="#maebb161d94" y="123.030957"/>
     <use x="352.577817" xlink:href="#maebb161d94" y="126.139825"/>
     <use x="357.900494" xlink:href="#maebb161d94" y="135.931253"/>
     <use x="363.223171" xlink:href="#maebb161d94" y="141.813602"/>
     <use x="368.545847" xlink:href="#maebb161d94" y="140.22264"/>
     <use x="373.868524" xlink:href="#maebb161d94" y="137.617894"/>
     <use x="379.191201" xlink:href="#maebb161d94" y="136.878217"/>
     <use x="384.513877" xlink:href="#maebb161d94" y="139.606883"/>
     <use x="389.836554" xlink:href="#maebb161d94" y="143.351046"/>
     <use x="395.159231" xlink:href="#maebb161d94" y="145.084621"/>
     <use x="400.481907" xlink:href="#maebb161d94" y="145.483036"/>
     <use x="405.804584" xlink:href="#maebb161d94" y="145.299222"/>
     <use x="411.127261" xlink:href="#maebb161d94" y="146.602483"/>
     <use x="416.449938" xlink:href="#maebb161d94" y="148.070373"/>
     <use x="421.772614" xlink:href="#maebb161d94" y="149.494404"/>
     <use x="427.095291" xlink:href="#maebb161d94" y="150.477273"/>
     <use x="432.417968" xlink:href="#maebb161d94" y="151.499443"/>
     <use x="437.740644" xlink:href="#maebb161d94" y="151.817383"/>
     <use x="443.063321" xlink:href="#maebb161d94" y="152.730569"/>
     <use x="448.385998" xlink:href="#maebb161d94" y="154.268189"/>
     <use x="453.708674" xlink:href="#maebb161d94" y="154.442565"/>
     <use x="459.031351" xlink:href="#maebb161d94" y="155.866321"/>
     <use x="464.354028" xlink:href="#maebb161d94" y="157.101796"/>
     <use x="469.676704" xlink:href="#maebb161d94" y="156.762232"/>
     <use x="474.999381" xlink:href="#maebb161d94" y="158.607303"/>
     <use x="480.322058" xlink:href="#maebb161d94" y="159.135914"/>
     <use x="485.644734" xlink:href="#maebb161d94" y="158.707669"/>
     <use x="490.967411" xlink:href="#maebb161d94" y="158.9758"/>
     <use x="496.290088" xlink:href="#maebb161d94" y="159.747999"/>
     <use x="501.612764" xlink:href="#maebb161d94" y="159.119787"/>
     <use x="506.935441" xlink:href="#maebb161d94" y="159.951249"/>
     <use x="512.258118" xlink:href="#maebb161d94" y="160.001369"/>
     <use x="517.580794" xlink:href="#maebb161d94" y="159.115091"/>
     <use x="522.903471" xlink:href="#maebb161d94" y="160.031966"/>
     <use x="528.226148" xlink:href="#maebb161d94" y="160.150939"/>
     <use x="533.548824" xlink:href="#maebb161d94" y="160.913179"/>
     <use x="538.871501" xlink:href="#maebb161d94" y="160.971119"/>
     <use x="544.194178" xlink:href="#maebb161d94" y="161.054678"/>
     <use x="549.516854" xlink:href="#maebb161d94" y="160.428714"/>
     <use x="554.839531" xlink:href="#maebb161d94" y="160.128291"/>
     <use x="560.162208" xlink:href="#maebb161d94" y="160.418163"/>
     <use x="565.484884" xlink:href="#maebb161d94" y="161.16046"/>
     <use x="570.807561" xlink:href="#maebb161d94" y="161.829636"/>
     <use x="576.130238" xlink:href="#maebb161d94" y="161.3406"/>
     <use x="581.452915" xlink:href="#maebb161d94" y="161.153563"/>
     <use x="586.775591" xlink:href="#maebb161d94" y="161.5707"/>
     <use x="592.098268" xlink:href="#maebb161d94" y="162.163248"/>
     <use x="597.420945" xlink:href="#maebb161d94" y="161.698341"/>
     <use x="602.743621" xlink:href="#maebb161d94" y="162.025198"/>
     <use x="608.066298" xlink:href="#maebb161d94" y="162.215887"/>
     <use x="613.388975" xlink:href="#maebb161d94" y="161.792493"/>
     <use x="618.711651" xlink:href="#maebb161d94" y="162.471188"/>
     <use x="624.034328" xlink:href="#maebb161d94" y="162.500136"/>
     <use x="629.357005" xlink:href="#maebb161d94" y="163.051955"/>
    </g>
   </g>
   <g id="line2d_44">
    <path clip-path="url(#p8eeab5bab7)" d="M 102.412014 108.777026 
L 107.73469 109.083453 
L 113.057367 108.659318 
L 118.380044 107.765945 
L 123.70272 106.993562 
L 129.025397 106.951977 
L 134.348074 107.813565 
L 139.67075 109.061633 
L 144.993427 109.771036 
L 150.316104 109.317295 
L 155.63878 107.863809 
L 160.961457 106.316222 
L 166.284134 105.840125 
L 171.60681 107.067543 
L 176.929487 109.377196 
L 182.252164 111.095429 
L 187.57484 110.838541 
L 192.897517 108.586931 
L 198.220194 105.683535 
L 203.54287 104.186644 
L 208.865547 105.712287 
L 214.188224 109.783773 
L 219.5109 113.444235 
L 224.833577 113.828952 
L 230.156254 110.554938 
L 235.47893 105.566732 
L 240.801607 102.179861 
L 246.124284 103.758455 
L 251.446961 110.601546 
L 256.769637 117.551982 
L 262.092314 119.090882 
L 267.414991 114.597179 
L 272.737667 107.107646 
L 278.060344 101.519441 
L 283.383021 103.515457 
L 288.705697 114.319976 
L 294.028374 124.770923 
L 299.351051 126.581976 
L 304.673727 120.644539 
L 309.996404 112.029692 
L 315.319081 107.448659 
L 320.641757 113.337177 
L 325.964434 126.485209 
L 331.287111 134.253737 
L 336.609787 132.991811 
L 341.932464 127.283405 
L 347.255141 123.434641 
L 352.577817 126.347907 
L 357.900494 134.140219 
L 363.223171 139.566915 
L 368.545847 140.173959 
L 373.868524 138.699412 
L 379.191201 138.546545 
L 384.513877 140.812792 
L 389.836554 143.806862 
L 395.159231 145.714176 
L 400.481907 146.511649 
L 405.804584 147.132453 
L 411.127261 148.141108 
L 416.449938 149.391798 
L 421.772614 150.519903 
L 427.095291 151.407605 
L 432.417968 152.163618 
L 437.740644 152.898573 
L 443.063321 153.624962 
L 448.385998 154.307501 
L 453.708674 154.92692 
L 459.031351 155.49065 
L 464.354028 156.014503 
L 469.676704 156.505162 
L 474.999381 156.963908 
L 480.322058 157.390909 
L 485.644734 157.787819 
L 490.967411 158.158275 
L 496.290088 158.505346 
L 501.612764 158.830893 
L 506.935441 159.136763 
L 512.258118 159.424713 
L 517.580794 159.695835 
L 522.903471 159.951898 
L 528.226148 160.194294 
L 533.548824 160.424228 
L 538.871501 160.642439 
L 544.194178 160.850098 
L 549.516854 161.048072 
L 554.839531 161.237217 
L 560.162208 161.417994 
L 565.484884 161.591285 
L 570.807561 161.757472 
L 576.130238 161.917245 
L 581.452915 162.071035 
L 586.775591 162.219175 
L 592.098268 162.362219 
L 597.420945 162.500363 
L 602.743621 162.633997 
L 608.066298 162.763461 
L 613.388975 162.888899 
L 618.711651 163.010668 
L 624.034328 163.128969 
L 629.357005 163.243906 
" style="fill:none;stroke:#ff0000;"/>
   </g>
   <g id="patch_8">
    <path d="M 86.603664 165.451349 
L 86.603664 87.455029 
" style="fill:none;stroke:#000000;stroke-linecap:square;stroke-linejoin:miter;"/>
   </g>
   <g id="patch_9">
    <path d="M 645.165354 165.451349 
L 645.165354 87.455029 
" style="fill:none;stroke:#000000;stroke-linecap:square;stroke-linejoin:miter;"/>
   </g>
   <g id="patch_10">
    <path d="M 86.603664 165.451349 
L 645.165354 165.451349 
" style="fill:none;stroke:#000000;stroke-linecap:square;stroke-linejoin:miter;"/>
   </g>
   <g id="patch_11">
    <path d="M 86.603664 87.455029 
L 645.165354 87.455029 
" style="fill:none;stroke:#000000;stroke-linecap:square;stroke-linejoin:miter;"/>
   </g>
  </g>
  <g id="axes_3">
   <g id="patch_12">
    <path d="M 86.603664 250.305354 
L 645.165354 250.305354 
L 645.165354 172.309034 
L 86.603664 172.309034 
z
" style="fill:#ffffff;"/>
   </g>
   <g id="matplotlib.axis_5">
    <g id="xtick_13">
     <g id="line2d_45">
      <path clip-path="url(#pd34cb84398)" d="M 102.412014 250.305354 
L 102.412014 172.309034 
" style="fill:none;stroke:#000000;stroke-linecap:square;stroke-opacity:0.1;stroke-width:0.5;"/>
     </g>
     <g id="line2d_46">
      <defs>
       <path d="M 0 0 
L 0 -2.5 
" id="mb465765d5d" style="stroke:#000000;stroke-width:0.5;"/>
      </defs>
      <g>
       <use style="stroke:#000000;stroke-width:0.5;" x="102.412014" xlink:href="#mb465765d5d" y="250.305354"/>
      </g>
     </g>
     <g id="line2d_47">
      <defs>
       <path d="M 0 0 
L 0 2.5 
" id="md8ee1bde6d" style="stroke:#000000;stroke-width:0.5;"/>
      </defs>
      <g>
       <use style="stroke:#000000;stroke-width:0.5;" x="102.412014" xlink:href="#md8ee1bde6d" y="172.309034"/>
      </g>
     </g>
     <g id="text_17">
      <!-- $\mathregular{0.0}$ -->
      <g transform="translate(92.812014 262.923479)scale(0.12 -0.12)">
       <use transform="translate(0 0.78125)" xlink:href="#DejaVuSans-48"/>
       <use transform="translate(63.623047 0.78125)" xlink:href="#DejaVuSans-46"/>
       <use transform="translate(95.410156 0.78125)" xlink:href="#DejaVuSans-48"/>
      </g>
     </g>
    </g>
    <g id="xtick_14">
     <g id="line2d_48">
      <path clip-path="url(#pd34cb84398)" d="M 207.801012 250.305354 
L 207.801012 172.309034 
" style="fill:none;stroke:#000000;stroke-linecap:square;stroke-opacity:0.1;stroke-width:0.5;"/>
     </g>
     <g id="line2d_49">
      <g>
       <use style="stroke:#000000;stroke-width:0.5;" x="207.801012" xlink:href="#mb465765d5d" y="250.305354"/>
      </g>
     </g>
     <g id="line2d_50">
      <g>
       <use style="stroke:#000000;stroke-width:0.5;" x="207.801012" xlink:href="#md8ee1bde6d" y="172.309034"/>
      </g>
     </g>
     <g id="text_18">
      <!-- $\mathregular{0.1}$ -->
      <g transform="translate(198.201012 262.923479)scale(0.12 -0.12)">
       <use transform="translate(0 0.78125)" xlink:href="#DejaVuSans-48"/>
       <use transform="translate(63.623047 0.78125)" xlink:href="#DejaVuSans-46"/>
       <use transform="translate(95.410156 0.78125)" xlink:href="#DejaVuSans-49"/>
      </g>
     </g>
    </g>
    <g id="xtick_15">
     <g id="line2d_51">
      <path clip-path="url(#pd34cb84398)" d="M 313.19001 250.305354 
L 313.19001 172.309034 
" style="fill:none;stroke:#000000;stroke-linecap:square;stroke-opacity:0.1;stroke-width:0.5;"/>
     </g>
     <g id="line2d_52">
      <g>
       <use style="stroke:#000000;stroke-width:0.5;" x="313.19001" xlink:href="#mb465765d5d" y="250.305354"/>
      </g>
     </g>
     <g id="line2d_53">
      <g>
       <use style="stroke:#000000;stroke-width:0.5;" x="313.19001" xlink:href="#md8ee1bde6d" y="172.309034"/>
      </g>
     </g>
     <g id="text_19">
      <!-- $\mathregular{0.2}$ -->
      <g transform="translate(303.95001 262.923479)scale(0.12 -0.12)">
       <use transform="translate(0 0.78125)" xlink:href="#DejaVuSans-48"/>
       <use transform="translate(63.623047 0.78125)" xlink:href="#DejaVuSans-46"/>
       <use transform="translate(89.910156 0.78125)" xlink:href="#DejaVuSans-50"/>
      </g>
     </g>
    </g>
    <g id="xtick_16">
     <g id="line2d_54">
      <path clip-path="url(#pd34cb84398)" d="M 418.579008 250.305354 
L 418.579008 172.309034 
" style="fill:none;stroke:#000000;stroke-linecap:square;stroke-opacity:0.1;stroke-width:0.5;"/>
     </g>
     <g id="line2d_55">
      <g>
       <use style="stroke:#000000;stroke-width:0.5;" x="418.579008" xlink:href="#mb465765d5d" y="250.305354"/>
      </g>
     </g>
     <g id="line2d_56">
      <g>
       <use style="stroke:#000000;stroke-width:0.5;" x="418.579008" xlink:href="#md8ee1bde6d" y="172.309034"/>
      </g>
     </g>
     <g id="text_20">
      <!-- $\mathregular{0.3}$ -->
      <g transform="translate(408.979008 262.923479)scale(0.12 -0.12)">
       <use transform="translate(0 0.78125)" xlink:href="#DejaVuSans-48"/>
       <use transform="translate(63.623047 0.78125)" xlink:href="#DejaVuSans-46"/>
       <use transform="translate(95.410156 0.78125)" xlink:href="#DejaVuSans-51"/>
      </g>
     </g>
    </g>
    <g id="xtick_17">
     <g id="line2d_57">
      <path clip-path="url(#pd34cb84398)" d="M 523.968006 250.305354 
L 523.968006 172.309034 
" style="fill:none;stroke:#000000;stroke-linecap:square;stroke-opacity:0.1;stroke-width:0.5;"/>
     </g>
     <g id="line2d_58">
      <g>
       <use style="stroke:#000000;stroke-width:0.5;" x="523.968006" xlink:href="#mb465765d5d" y="250.305354"/>
      </g>
     </g>
     <g id="line2d_59">
      <g>
       <use style="stroke:#000000;stroke-width:0.5;" x="523.968006" xlink:href="#md8ee1bde6d" y="172.309034"/>
      </g>
     </g>
     <g id="text_21">
      <!-- $\mathregular{0.4}$ -->
      <g transform="translate(514.368006 262.923479)scale(0.12 -0.12)">
       <use transform="translate(0 0.78125)" xlink:href="#DejaVuSans-48"/>
       <use transform="translate(63.623047 0.78125)" xlink:href="#DejaVuSans-46"/>
       <use transform="translate(95.410156 0.78125)" xlink:href="#DejaVuSans-52"/>
      </g>
     </g>
    </g>
    <g id="xtick_18">
     <g id="line2d_60">
      <path clip-path="url(#pd34cb84398)" d="M 629.357005 250.305354 
L 629.357005 172.309034 
" style="fill:none;stroke:#000000;stroke-linecap:square;stroke-opacity:0.1;stroke-width:0.5;"/>
     </g>
     <g id="line2d_61">
      <g>
       <use style="stroke:#000000;stroke-width:0.5;" x="629.357005" xlink:href="#mb465765d5d" y="250.305354"/>
      </g>
     </g>
     <g id="line2d_62">
      <g>
       <use style="stroke:#000000;stroke-width:0.5;" x="629.357005" xlink:href="#md8ee1bde6d" y="172.309034"/>
      </g>
     </g>
     <g id="text_22">
      <!-- $\mathregular{0.5}$ -->
      <g transform="translate(619.757005 262.923479)scale(0.12 -0.12)">
       <use transform="translate(0 0.78125)" xlink:href="#DejaVuSans-48"/>
       <use transform="translate(63.623047 0.78125)" xlink:href="#DejaVuSans-46"/>
       <use transform="translate(95.410156 0.78125)" xlink:href="#DejaVuSans-53"/>
      </g>
     </g>
    </g>
    <g id="text_23">
     <!-- Time [s] -->
     <g transform="translate(333.358259 281.576604)scale(0.16 -0.16)">
      <defs>
       <path d="M -0.296875 72.90625 
L 61.375 72.90625 
L 61.375 64.59375 
L 35.5 64.59375 
L 35.5 0 
L 25.59375 0 
L 25.59375 64.59375 
L -0.296875 64.59375 
z
" id="DejaVuSans-84"/>
       <path d="M 9.421875 54.6875 
L 18.40625 54.6875 
L 18.40625 0 
L 9.421875 0 
z
M 9.421875 75.984375 
L 18.40625 75.984375 
L 18.40625 64.59375 
L 9.421875 64.59375 
z
" id="DejaVuSans-105"/>
       <path d="M 52 44.1875 
Q 55.375 50.25 60.0625 53.125 
Q 64.75 56 71.09375 56 
Q 79.640625 56 84.28125 50.015625 
Q 88.921875 44.046875 88.921875 33.015625 
L 88.921875 0 
L 79.890625 0 
L 79.890625 32.71875 
Q 79.890625 40.578125 77.09375 44.375 
Q 74.3125 48.1875 68.609375 48.1875 
Q 61.625 48.1875 57.5625 43.546875 
Q 53.515625 38.921875 53.515625 30.90625 
L 53.515625 0 
L 44.484375 0 
L 44.484375 32.71875 
Q 44.484375 40.625 41.703125 44.40625 
Q 38.921875 48.1875 33.109375 48.1875 
Q 26.21875 48.1875 22.15625 43.53125 
Q 18.109375 38.875 18.109375 30.90625 
L 18.109375 0 
L 9.078125 0 
L 9.078125 54.6875 
L 18.109375 54.6875 
L 18.109375 46.1875 
Q 21.1875 51.21875 25.484375 53.609375 
Q 29.78125 56 35.6875 56 
Q 41.65625 56 45.828125 52.96875 
Q 50 49.953125 52 44.1875 
z
" id="DejaVuSans-109"/>
       <path d="M 56.203125 29.59375 
L 56.203125 25.203125 
L 14.890625 25.203125 
Q 15.484375 15.921875 20.484375 11.0625 
Q 25.484375 6.203125 34.421875 6.203125 
Q 39.59375 6.203125 44.453125 7.46875 
Q 49.3125 8.734375 54.109375 11.28125 
L 54.109375 2.78125 
Q 49.265625 0.734375 44.1875 -0.34375 
Q 39.109375 -1.421875 33.890625 -1.421875 
Q 20.796875 -1.421875 13.15625 6.1875 
Q 5.515625 13.8125 5.515625 26.8125 
Q 5.515625 40.234375 12.765625 48.109375 
Q 20.015625 56 32.328125 56 
Q 43.359375 56 49.78125 48.890625 
Q 56.203125 41.796875 56.203125 29.59375 
z
M 47.21875 32.234375 
Q 47.125 39.59375 43.09375 43.984375 
Q 39.0625 48.390625 32.421875 48.390625 
Q 24.90625 48.390625 20.390625 44.140625 
Q 15.875 39.890625 15.1875 32.171875 
z
" id="DejaVuSans-101"/>
       <path id="DejaVuSans-32"/>
       <path d="M 8.59375 75.984375 
L 29.296875 75.984375 
L 29.296875 69 
L 17.578125 69 
L 17.578125 -6.203125 
L 29.296875 -6.203125 
L 29.296875 -13.1875 
L 8.59375 -13.1875 
z
" id="DejaVuSans-91"/>
       <path d="M 44.28125 53.078125 
L 44.28125 44.578125 
Q 40.484375 46.53125 36.375 47.5 
Q 32.28125 48.484375 27.875 48.484375 
Q 21.1875 48.484375 17.84375 46.4375 
Q 14.5 44.390625 14.5 40.28125 
Q 14.5 37.15625 16.890625 35.375 
Q 19.28125 33.59375 26.515625 31.984375 
L 29.59375 31.296875 
Q 39.15625 29.25 43.1875 25.515625 
Q 47.21875 21.78125 47.21875 15.09375 
Q 47.21875 7.46875 41.1875 3.015625 
Q 35.15625 -1.421875 24.609375 -1.421875 
Q 20.21875 -1.421875 15.453125 -0.5625 
Q 10.6875 0.296875 5.421875 2 
L 5.421875 11.28125 
Q 10.40625 8.6875 15.234375 7.390625 
Q 20.0625 6.109375 24.8125 6.109375 
Q 31.15625 6.109375 34.5625 8.28125 
Q 37.984375 10.453125 37.984375 14.40625 
Q 37.984375 18.0625 35.515625 20.015625 
Q 33.0625 21.96875 24.703125 23.78125 
L 21.578125 24.515625 
Q 13.234375 26.265625 9.515625 29.90625 
Q 5.8125 33.546875 5.8125 39.890625 
Q 5.8125 47.609375 11.28125 51.796875 
Q 16.75 56 26.8125 56 
Q 31.78125 56 36.171875 55.265625 
Q 40.578125 54.546875 44.28125 53.078125 
z
" id="DejaVuSans-115"/>
       <path d="M 30.421875 75.984375 
L 30.421875 -13.1875 
L 9.71875 -13.1875 
L 9.71875 -6.203125 
L 21.390625 -6.203125 
L 21.390625 69 
L 9.71875 69 
L 9.71875 75.984375 
z
" id="DejaVuSans-93"/>
      </defs>
      <use xlink:href="#DejaVuSans-84"/>
      <use x="57.958984" xlink:href="#DejaVuSans-105"/>
      <use x="85.742188" xlink:href="#DejaVuSans-109"/>
      <use x="183.154297" xlink:href="#DejaVuSans-101"/>
      <use x="244.677734" xlink:href="#DejaVuSans-32"/>
      <use x="276.464844" xlink:href="#DejaVuSans-91"/>
      <use x="315.478516" xlink:href="#DejaVuSans-115"/>
      <use x="367.578125" xlink:href="#DejaVuSans-93"/>
     </g>
    </g>
   </g>
   <g id="matplotlib.axis_6">
    <g id="ytick_15">
     <g id="line2d_63">
      <path clip-path="url(#pd34cb84398)" d="M 86.603664 235.844403 
L 645.165354 235.844403 
" style="fill:none;stroke:#000000;stroke-linecap:square;stroke-opacity:0.1;stroke-width:0.5;"/>
     </g>
     <g id="line2d_64">
      <g>
       <use style="stroke:#000000;stroke-width:0.5;" x="86.603664" xlink:href="#m3626a2ef29" y="235.844403"/>
      </g>
     </g>
     <g id="line2d_65">
      <g>
       <use style="stroke:#000000;stroke-width:0.5;" x="645.165354" xlink:href="#m3a29b782d9" y="235.844403"/>
      </g>
     </g>
     <g id="text_24">
      <!-- $\mathregular{1267.5}$ -->
      <g transform="translate(41.103664 240.403466)scale(0.12 -0.12)">
       <defs>
        <path d="M 33.015625 40.375 
Q 26.375 40.375 22.484375 35.828125 
Q 18.609375 31.296875 18.609375 23.390625 
Q 18.609375 15.53125 22.484375 10.953125 
Q 26.375 6.390625 33.015625 6.390625 
Q 39.65625 6.390625 43.53125 10.953125 
Q 47.40625 15.53125 47.40625 23.390625 
Q 47.40625 31.296875 43.53125 35.828125 
Q 39.65625 40.375 33.015625 40.375 
z
M 52.59375 71.296875 
L 52.59375 62.3125 
Q 48.875 64.0625 45.09375 64.984375 
Q 41.3125 65.921875 37.59375 65.921875 
Q 27.828125 65.921875 22.671875 59.328125 
Q 17.53125 52.734375 16.796875 39.40625 
Q 19.671875 43.65625 24.015625 45.921875 
Q 28.375 48.1875 33.59375 48.1875 
Q 44.578125 48.1875 50.953125 41.515625 
Q 57.328125 34.859375 57.328125 23.390625 
Q 57.328125 12.15625 50.6875 5.359375 
Q 44.046875 -1.421875 33.015625 -1.421875 
Q 20.359375 -1.421875 13.671875 8.265625 
Q 6.984375 17.96875 6.984375 36.375 
Q 6.984375 53.65625 15.1875 63.9375 
Q 23.390625 74.21875 37.203125 74.21875 
Q 40.921875 74.21875 44.703125 73.484375 
Q 48.484375 72.75 52.59375 71.296875 
z
" id="DejaVuSans-54"/>
        <path d="M 8.203125 72.90625 
L 55.078125 72.90625 
L 55.078125 68.703125 
L 28.609375 0 
L 18.3125 0 
L 43.21875 64.59375 
L 8.203125 64.59375 
z
" id="DejaVuSans-55"/>
       </defs>
       <use transform="translate(0 0.78125)" xlink:href="#DejaVuSans-49"/>
       <use transform="translate(63.623047 0.78125)" xlink:href="#DejaVuSans-50"/>
       <use transform="translate(127.246094 0.78125)" xlink:href="#DejaVuSans-54"/>
       <use transform="translate(190.869141 0.78125)" xlink:href="#DejaVuSans-55"/>
       <use transform="translate(254.492188 0.78125)" xlink:href="#DejaVuSans-46"/>
       <use transform="translate(286.279297 0.78125)" xlink:href="#DejaVuSans-53"/>
      </g>
     </g>
    </g>
    <g id="ytick_16">
     <g id="line2d_66">
      <path clip-path="url(#pd34cb84398)" d="M 86.603664 218.926912 
L 645.165354 218.926912 
" style="fill:none;stroke:#000000;stroke-linecap:square;stroke-opacity:0.1;stroke-width:0.5;"/>
     </g>
     <g id="line2d_67">
      <g>
       <use style="stroke:#000000;stroke-width:0.5;" x="86.603664" xlink:href="#m3626a2ef29" y="218.926912"/>
      </g>
     </g>
     <g id="line2d_68">
      <g>
       <use style="stroke:#000000;stroke-width:0.5;" x="645.165354" xlink:href="#m3a29b782d9" y="218.926912"/>
      </g>
     </g>
     <g id="text_25">
      <!-- $\mathregular{1270.0}$ -->
      <g transform="translate(41.103664 223.485975)scale(0.12 -0.12)">
       <use transform="translate(0 0.78125)" xlink:href="#DejaVuSans-49"/>
       <use transform="translate(63.623047 0.78125)" xlink:href="#DejaVuSans-50"/>
       <use transform="translate(127.246094 0.78125)" xlink:href="#DejaVuSans-55"/>
       <use transform="translate(190.869141 0.78125)" xlink:href="#DejaVuSans-48"/>
       <use transform="translate(254.492188 0.78125)" xlink:href="#DejaVuSans-46"/>
       <use transform="translate(286.279297 0.78125)" xlink:href="#DejaVuSans-48"/>
      </g>
     </g>
    </g>
    <g id="ytick_17">
     <g id="line2d_69">
      <path clip-path="url(#pd34cb84398)" d="M 86.603664 202.009421 
L 645.165354 202.009421 
" style="fill:none;stroke:#000000;stroke-linecap:square;stroke-opacity:0.1;stroke-width:0.5;"/>
     </g>
     <g id="line2d_70">
      <g>
       <use style="stroke:#000000;stroke-width:0.5;" x="86.603664" xlink:href="#m3626a2ef29" y="202.009421"/>
      </g>
     </g>
     <g id="line2d_71">
      <g>
       <use style="stroke:#000000;stroke-width:0.5;" x="645.165354" xlink:href="#m3a29b782d9" y="202.009421"/>
      </g>
     </g>
     <g id="text_26">
      <!-- $\mathregular{1272.5}$ -->
      <g transform="translate(41.103664 206.568484)scale(0.12 -0.12)">
       <use transform="translate(0 0.78125)" xlink:href="#DejaVuSans-49"/>
       <use transform="translate(63.623047 0.78125)" xlink:href="#DejaVuSans-50"/>
       <use transform="translate(127.246094 0.78125)" xlink:href="#DejaVuSans-55"/>
       <use transform="translate(190.869141 0.78125)" xlink:href="#DejaVuSans-50"/>
       <use transform="translate(254.492188 0.78125)" xlink:href="#DejaVuSans-46"/>
       <use transform="translate(286.279297 0.78125)" xlink:href="#DejaVuSans-53"/>
      </g>
     </g>
    </g>
    <g id="ytick_18">
     <g id="line2d_72">
      <path clip-path="url(#pd34cb84398)" d="M 86.603664 185.09193 
L 645.165354 185.09193 
" style="fill:none;stroke:#000000;stroke-linecap:square;stroke-opacity:0.1;stroke-width:0.5;"/>
     </g>
     <g id="line2d_73">
      <g>
       <use style="stroke:#000000;stroke-width:0.5;" x="86.603664" xlink:href="#m3626a2ef29" y="185.09193"/>
      </g>
     </g>
     <g id="line2d_74">
      <g>
       <use style="stroke:#000000;stroke-width:0.5;" x="645.165354" xlink:href="#m3a29b782d9" y="185.09193"/>
      </g>
     </g>
     <g id="text_27">
      <!-- $\mathregular{1275.0}$ -->
      <g transform="translate(41.103664 189.650993)scale(0.12 -0.12)">
       <use transform="translate(0 0.78125)" xlink:href="#DejaVuSans-49"/>
       <use transform="translate(63.623047 0.78125)" xlink:href="#DejaVuSans-50"/>
       <use transform="translate(127.246094 0.78125)" xlink:href="#DejaVuSans-55"/>
       <use transform="translate(190.869141 0.78125)" xlink:href="#DejaVuSans-53"/>
       <use transform="translate(254.492188 0.78125)" xlink:href="#DejaVuSans-46"/>
       <use transform="translate(286.279297 0.78125)" xlink:href="#DejaVuSans-48"/>
      </g>
     </g>
    </g>
    <g id="text_28">
     <!-- T [K] -->
     <g transform="translate(33.776164 230.224694)rotate(-90)scale(0.16 -0.16)">
      <defs>
       <path d="M 9.8125 72.90625 
L 19.671875 72.90625 
L 19.671875 42.09375 
L 52.390625 72.90625 
L 65.09375 72.90625 
L 28.90625 38.921875 
L 67.671875 0 
L 54.6875 0 
L 19.671875 35.109375 
L 19.671875 0 
L 9.8125 0 
z
" id="DejaVuSans-75"/>
      </defs>
      <use xlink:href="#DejaVuSans-84"/>
      <use x="61.083984" xlink:href="#DejaVuSans-32"/>
      <use x="92.871094" xlink:href="#DejaVuSans-91"/>
      <use x="131.884766" xlink:href="#DejaVuSans-75"/>
      <use x="197.460938" xlink:href="#DejaVuSans-93"/>
     </g>
    </g>
   </g>
   <g id="PathCollection_3">
    <g clip-path="url(#pd34cb84398)">
     <use x="102.412014" xlink:href="#maebb161d94" y="236.88286"/>
     <use x="107.73469" xlink:href="#maebb161d94" y="237.577575"/>
     <use x="113.057367" xlink:href="#maebb161d94" y="237.701419"/>
     <use x="118.380044" xlink:href="#maebb161d94" y="238.30418"/>
     <use x="123.70272" xlink:href="#maebb161d94" y="238.749846"/>
     <use x="129.025397" xlink:href="#maebb161d94" y="238.134347"/>
     <use x="134.348074" xlink:href="#maebb161d94" y="238.276627"/>
     <use x="139.67075" xlink:href="#maebb161d94" y="237.149164"/>
     <use x="144.993427" xlink:href="#maebb161d94" y="236.450106"/>
     <use x="150.316104" xlink:href="#maebb161d94" y="237.199594"/>
     <use x="155.63878" xlink:href="#maebb161d94" y="239.210083"/>
     <use x="160.961457" xlink:href="#maebb161d94" y="239.508114"/>
     <use x="166.284134" xlink:href="#maebb161d94" y="239.045759"/>
     <use x="171.60681" xlink:href="#maebb161d94" y="238.705581"/>
     <use x="176.929487" xlink:href="#maebb161d94" y="236.685233"/>
     <use x="182.252164" xlink:href="#maebb161d94" y="236.244747"/>
     <use x="187.57484" xlink:href="#maebb161d94" y="236.820228"/>
     <use x="192.897517" xlink:href="#maebb161d94" y="239.026464"/>
     <use x="198.220194" xlink:href="#maebb161d94" y="240.846706"/>
     <use x="203.54287" xlink:href="#maebb161d94" y="241.348408"/>
     <use x="208.865547" xlink:href="#maebb161d94" y="239.715067"/>
     <use x="214.188224" xlink:href="#maebb161d94" y="236.783152"/>
     <use x="219.5109" xlink:href="#maebb161d94" y="234.984155"/>
     <use x="224.833577" xlink:href="#maebb161d94" y="235.952997"/>
     <use x="230.156254" xlink:href="#maebb161d94" y="239.483294"/>
     <use x="235.47893" xlink:href="#maebb161d94" y="244.048293"/>
     <use x="240.801607" xlink:href="#maebb161d94" y="245.672946"/>
     <use x="246.124284" xlink:href="#maebb161d94" y="242.70253"/>
     <use x="251.446961" xlink:href="#maebb161d94" y="236.925671"/>
     <use x="256.769637" xlink:href="#maebb161d94" y="233.220171"/>
     <use x="262.092314" xlink:href="#maebb161d94" y="233.64373"/>
     <use x="267.414991" xlink:href="#maebb161d94" y="238.639959"/>
     <use x="272.737667" xlink:href="#maebb161d94" y="244.82489"/>
     <use x="278.060344" xlink:href="#maebb161d94" y="248.097911"/>
     <use x="283.383021" xlink:href="#maebb161d94" y="243.628186"/>
     <use x="288.705697" xlink:href="#maebb161d94" y="232.384392"/>
     <use x="294.028374" xlink:href="#maebb161d94" y="225.827408"/>
     <use x="299.351051" xlink:href="#maebb161d94" y="227.177333"/>
     <use x="304.673727" xlink:href="#maebb161d94" y="232.968309"/>
     <use x="309.996404" xlink:href="#maebb161d94" y="239.692261"/>
     <use x="315.319081" xlink:href="#maebb161d94" y="239.650526"/>
     <use x="320.641757" xlink:href="#maebb161d94" y="233.161083"/>
     <use x="325.964434" xlink:href="#maebb161d94" y="224.643626"/>
     <use x="331.287111" xlink:href="#maebb161d94" y="222.819571"/>
     <use x="336.609787" xlink:href="#maebb161d94" y="225.639577"/>
     <use x="341.932464" xlink:href="#maebb161d94" y="228.057636"/>
     <use x="347.255141" xlink:href="#maebb161d94" y="229.242316"/>
     <use x="352.577817" xlink:href="#maebb161d94" y="225.979881"/>
     <use x="357.900494" xlink:href="#maebb161d94" y="221.538685"/>
     <use x="363.223171" xlink:href="#maebb161d94" y="219.565795"/>
     <use x="368.545847" xlink:href="#maebb161d94" y="219.398917"/>
     <use x="373.868524" xlink:href="#maebb161d94" y="220.015221"/>
     <use x="379.191201" xlink:href="#maebb161d94" y="220.154244"/>
     <use x="384.513877" xlink:href="#maebb161d94" y="217.807569"/>
     <use x="389.836554" xlink:href="#maebb161d94" y="215.807081"/>
     <use x="395.159231" xlink:href="#maebb161d94" y="214.710989"/>
     <use x="400.481907" xlink:href="#maebb161d94" y="213.515487"/>
     <use x="405.804584" xlink:href="#maebb161d94" y="213.562481"/>
     <use x="411.127261" xlink:href="#maebb161d94" y="212.25865"/>
     <use x="416.449938" xlink:href="#maebb161d94" y="209.971742"/>
     <use x="421.772614" xlink:href="#maebb161d94" y="209.125725"/>
     <use x="427.095291" xlink:href="#maebb161d94" y="208.23543"/>
     <use x="432.417968" xlink:href="#maebb161d94" y="206.391278"/>
     <use x="437.740644" xlink:href="#maebb161d94" y="205.83596"/>
     <use x="443.063321" xlink:href="#maebb161d94" y="204.329259"/>
     <use x="448.385998" xlink:href="#maebb161d94" y="202.86657"/>
     <use x="453.708674" xlink:href="#maebb161d94" y="202.008151"/>
     <use x="459.031351" xlink:href="#maebb161d94" y="201.233353"/>
     <use x="464.354028" xlink:href="#maebb161d94" y="199.462924"/>
     <use x="469.676704" xlink:href="#maebb161d94" y="197.90569"/>
     <use x="474.999381" xlink:href="#maebb161d94" y="197.097426"/>
     <use x="480.322058" xlink:href="#maebb161d94" y="195.106887"/>
     <use x="485.644734" xlink:href="#maebb161d94" y="194.95419"/>
     <use x="490.967411" xlink:href="#maebb161d94" y="193.42848"/>
     <use x="496.290088" xlink:href="#maebb161d94" y="192.445497"/>
     <use x="501.612764" xlink:href="#maebb161d94" y="191.7084"/>
     <use x="506.935441" xlink:href="#maebb161d94" y="190.216286"/>
     <use x="512.258118" xlink:href="#maebb161d94" y="189.30391"/>
     <use x="517.580794" xlink:href="#maebb161d94" y="189.184946"/>
     <use x="522.903471" xlink:href="#maebb161d94" y="188.628955"/>
     <use x="528.226148" xlink:href="#maebb161d94" y="186.761148"/>
     <use x="533.548824" xlink:href="#maebb161d94" y="185.983568"/>
     <use x="538.871501" xlink:href="#maebb161d94" y="185.628872"/>
     <use x="544.194178" xlink:href="#maebb161d94" y="185.624056"/>
     <use x="549.516854" xlink:href="#maebb161d94" y="183.650349"/>
     <use x="554.839531" xlink:href="#maebb161d94" y="183.995369"/>
     <use x="560.162208" xlink:href="#maebb161d94" y="182.616055"/>
     <use x="565.484884" xlink:href="#maebb161d94" y="182.349392"/>
     <use x="570.807561" xlink:href="#maebb161d94" y="181.554241"/>
     <use x="576.130238" xlink:href="#maebb161d94" y="180.538621"/>
     <use x="581.452915" xlink:href="#maebb161d94" y="179.509861"/>
     <use x="586.775591" xlink:href="#maebb161d94" y="179.349339"/>
     <use x="592.098268" xlink:href="#maebb161d94" y="178.761479"/>
     <use x="597.420945" xlink:href="#maebb161d94" y="178.421185"/>
     <use x="602.743621" xlink:href="#maebb161d94" y="177.407104"/>
     <use x="608.066298" xlink:href="#maebb161d94" y="177.191295"/>
     <use x="613.388975" xlink:href="#maebb161d94" y="177.235165"/>
     <use x="618.711651" xlink:href="#maebb161d94" y="176.225211"/>
     <use x="624.034328" xlink:href="#maebb161d94" y="175.560893"/>
     <use x="629.357005" xlink:href="#maebb161d94" y="175.183488"/>
    </g>
   </g>
   <g id="line2d_75">
    <path clip-path="url(#pd34cb84398)" d="M 102.412014 236.763538 
L 107.73469 236.847609 
L 113.057367 237.209106 
L 118.380044 237.67743 
L 123.70272 237.965627 
L 129.025397 237.864973 
L 134.348074 237.426532 
L 139.67075 236.977655 
L 144.993427 236.908987 
L 150.316104 237.372569 
L 155.63878 238.143864 
L 160.961457 238.730508 
L 166.284134 238.674012 
L 171.60681 237.915 
L 176.929487 236.952647 
L 182.252164 236.539943 
L 187.57484 237.090743 
L 192.897517 238.352139 
L 198.220194 239.52196 
L 203.54287 239.691779 
L 208.865547 238.500178 
L 214.188224 236.643959 
L 219.5109 235.525456 
L 224.833577 236.07299 
L 230.156254 238.037302 
L 235.47893 240.17752 
L 240.801607 240.870442 
L 246.124284 239.128769 
L 251.446961 235.82859 
L 256.769637 233.499883 
L 262.092314 233.910529 
L 267.414991 236.715199 
L 272.737667 240.013678 
L 278.060344 241.251366 
L 283.383021 238.632213 
L 288.705697 233.467917 
L 294.028374 229.988028 
L 299.351051 230.505165 
L 304.673727 233.890215 
L 309.996404 237.281577 
L 315.319081 237.476812 
L 320.641757 233.177825 
L 325.964434 227.66768 
L 331.287111 225.381731 
L 336.609787 226.611889 
L 341.932464 228.861394 
L 347.255141 229.27673 
L 352.577817 226.679205 
L 357.900494 222.987605 
L 363.223171 220.84958 
L 368.545847 220.514731 
L 373.868524 220.551132 
L 379.191201 219.697964 
L 384.513877 217.918337 
L 389.836554 216.071225 
L 395.159231 214.718957 
L 400.481907 213.703457 
L 405.804584 212.637188 
L 411.127261 211.375119 
L 416.449938 210.031867 
L 421.772614 208.744533 
L 427.095291 207.53308 
L 432.417968 206.347321 
L 437.740644 205.154396 
L 443.063321 203.96001 
L 448.385998 202.781444 
L 453.708674 201.625924 
L 459.031351 200.491126 
L 464.354028 199.373421 
L 469.676704 198.272799 
L 474.999381 197.19084 
L 480.322058 196.129 
L 485.644734 195.087637 
L 490.967411 194.066751 
L 496.290088 193.066312 
L 501.612764 192.086508 
L 506.935441 191.127543 
L 512.258118 190.18953 
L 517.580794 189.272476 
L 522.903471 188.376297 
L 528.226148 187.50087 
L 533.548824 186.646081 
L 538.871501 185.811829 
L 544.194178 184.997898 
L 549.516854 184.204061 
L 554.839531 183.430064 
L 560.162208 182.675738 
L 565.484884 181.940714 
L 570.807561 181.224802 
L 576.130238 180.527607 
L 581.452915 179.848854 
L 586.775591 179.188288 
L 592.098268 178.545453 
L 597.420945 177.920158 
L 602.743621 177.311999 
L 608.066298 176.720589 
L 613.388975 176.145744 
L 618.711651 175.586961 
L 624.034328 175.043932 
L 629.357005 174.516477 
" style="fill:none;stroke:#ff0000;"/>
   </g>
   <g id="patch_13">
    <path d="M 86.603664 250.305354 
L 86.603664 172.309034 
" style="fill:none;stroke:#000000;stroke-linecap:square;stroke-linejoin:miter;"/>
   </g>
   <g id="patch_14">
    <path d="M 645.165354 250.305354 
L 645.165354 172.309034 
" style="fill:none;stroke:#000000;stroke-linecap:square;stroke-linejoin:miter;"/>
   </g>
   <g id="patch_15">
    <path d="M 86.603664 250.305354 
L 645.165354 250.305354 
" style="fill:none;stroke:#000000;stroke-linecap:square;stroke-linejoin:miter;"/>
   </g>
   <g id="patch_16">
    <path d="M 86.603664 172.309034 
L 645.165354 172.309034 
" style="fill:none;stroke:#000000;stroke-linecap:square;stroke-linejoin:miter;"/>
   </g>
  </g>
 </g>
 <defs>
  <clipPath id="p077be6961b">
   <rect height="77.99632" width="558.56169" x="86.603664" y="2.834646"/>
  </clipPath>
  <clipPath id="p8eeab5bab7">
   <rect height="77.99632" width="558.56169" x="86.603664" y="87.455029"/>
  </clipPath>
  <clipPath id="pd34cb84398">
   <rect height="77.99632" width="558.56169" x="86.603664" y="172.309034"/>
  </clipPath>
 </defs>
</svg>
