<?xml version="1.0" encoding="utf-8" standalone="no"?>
<!DOCTYPE svg PUBLIC "-//W3C//DTD SVG 1.1//EN"
  "http://www.w3.org/Graphics/SVG/1.1/DTD/svg11.dtd">
<!-- Created with matplotlib (https://matplotlib.org/) -->
<svg height="288pt" version="1.1" viewBox="0 0 648 288" width="648pt" xmlns="http://www.w3.org/2000/svg" xmlns:xlink="http://www.w3.org/1999/xlink">
 <metadata>
  <rdf:RDF xmlns:cc="http://creativecommons.org/ns#" xmlns:dc="http://purl.org/dc/elements/1.1/" xmlns:rdf="http://www.w3.org/1999/02/22-rdf-syntax-ns#">
   <cc:Work>
    <dc:type rdf:resource="http://purl.org/dc/dcmitype/StillImage"/>
    <dc:date>2021-04-29T17:20:49.202626</dc:date>
    <dc:format>image/svg+xml</dc:format>
    <dc:creator>
     <cc:Agent>
      <dc:title>Matplotlib v3.3.2, https://matplotlib.org/</dc:title>
     </cc:Agent>
    </dc:creator>
   </cc:Work>
  </rdf:RDF>
 </metadata>
 <defs>
  <style type="text/css">*{stroke-linecap:butt;stroke-linejoin:round;}</style>
 </defs>
 <g id="figure_1">
  <g id="patch_1">
   <path d="M 0 288 
L 648 288 
L 648 0 
L 0 0 
z
" style="fill:#ffffff;"/>
  </g>
  <g id="axes_1">
   <g id="patch_2">
    <path d="M 86.603664 80.974961 
L 645.165354 80.974961 
L 645.165354 2.834646 
L 86.603664 2.834646 
z
" style="fill:#ffffff;"/>
   </g>
   <g id="matplotlib.axis_1">
    <g id="xtick_1"/>
    <g id="xtick_2"/>
    <g id="xtick_3"/>
    <g id="xtick_4"/>
    <g id="xtick_5"/>
    <g id="xtick_6"/>
   </g>
   <g id="matplotlib.axis_2">
    <g id="ytick_1">
     <g id="line2d_1">
      <path clip-path="url(#pfc98d8e758)" d="M 86.603664 78.808668 
L 645.165354 78.808668 
" style="fill:none;stroke:#000000;stroke-linecap:square;stroke-opacity:0.1;stroke-width:0.5;"/>
     </g>
     <g id="line2d_2">
      <defs>
       <path d="M 0 0 
L 2.5 0 
" id="md6bdf36d08" style="stroke:#000000;stroke-width:0.5;"/>
      </defs>
      <g>
       <use style="stroke:#000000;stroke-width:0.5;" x="86.603664" xlink:href="#md6bdf36d08" y="78.808668"/>
      </g>
     </g>
     <g id="line2d_3">
      <defs>
       <path d="M 0 0 
L -2.5 0 
" id="m966219c65f" style="stroke:#000000;stroke-width:0.5;"/>
      </defs>
      <g>
       <use style="stroke:#000000;stroke-width:0.5;" x="645.165354" xlink:href="#m966219c65f" y="78.808668"/>
      </g>
     </g>
     <g id="text_1">
      <!-- $\mathregular{2.5×10^{-5}}$ -->
      <g transform="translate(25.863664 83.367731)scale(0.12 -0.12)">
       <defs>
        <path d="M 19.1875 8.296875 
L 53.609375 8.296875 
L 53.609375 0 
L 7.328125 0 
L 7.328125 8.296875 
Q 12.9375 14.109375 22.625 23.890625 
Q 32.328125 33.6875 34.8125 36.53125 
Q 39.546875 41.84375 41.421875 45.53125 
Q 43.3125 49.21875 43.3125 52.78125 
Q 43.3125 58.59375 39.234375 62.25 
Q 35.15625 65.921875 28.609375 65.921875 
Q 23.96875 65.921875 18.8125 64.3125 
Q 13.671875 62.703125 7.8125 59.421875 
L 7.8125 69.390625 
Q 13.765625 71.78125 18.9375 73 
Q 24.125 74.21875 28.421875 74.21875 
Q 39.75 74.21875 46.484375 68.546875 
Q 53.21875 62.890625 53.21875 53.421875 
Q 53.21875 48.921875 51.53125 44.890625 
Q 49.859375 40.875 45.40625 35.40625 
Q 44.1875 33.984375 37.640625 27.21875 
Q 31.109375 20.453125 19.1875 8.296875 
z
" id="DejaVuSans-50"/>
        <path d="M 10.6875 12.40625 
L 21 12.40625 
L 21 0 
L 10.6875 0 
z
" id="DejaVuSans-46"/>
        <path d="M 10.796875 72.90625 
L 49.515625 72.90625 
L 49.515625 64.59375 
L 19.828125 64.59375 
L 19.828125 46.734375 
Q 21.96875 47.46875 24.109375 47.828125 
Q 26.265625 48.1875 28.421875 48.1875 
Q 40.625 48.1875 47.75 41.5 
Q 54.890625 34.8125 54.890625 23.390625 
Q 54.890625 11.625 47.5625 5.09375 
Q 40.234375 -1.421875 26.90625 -1.421875 
Q 22.3125 -1.421875 17.546875 -0.640625 
Q 12.796875 0.140625 7.71875 1.703125 
L 7.71875 11.625 
Q 12.109375 9.234375 16.796875 8.0625 
Q 21.484375 6.890625 26.703125 6.890625 
Q 35.15625 6.890625 40.078125 11.328125 
Q 45.015625 15.765625 45.015625 23.390625 
Q 45.015625 31 40.078125 35.4375 
Q 35.15625 39.890625 26.703125 39.890625 
Q 22.75 39.890625 18.8125 39.015625 
Q 14.890625 38.140625 10.796875 36.28125 
z
" id="DejaVuSans-53"/>
        <path d="M 70.125 53.71875 
L 47.796875 31.296875 
L 70.125 8.984375 
L 64.3125 3.078125 
L 41.890625 25.484375 
L 19.484375 3.078125 
L 13.71875 8.984375 
L 35.984375 31.296875 
L 13.71875 53.71875 
L 19.484375 59.625 
L 41.890625 37.203125 
L 64.3125 59.625 
z
" id="DejaVuSans-215"/>
        <path d="M 12.40625 8.296875 
L 28.515625 8.296875 
L 28.515625 63.921875 
L 10.984375 60.40625 
L 10.984375 69.390625 
L 28.421875 72.90625 
L 38.28125 72.90625 
L 38.28125 8.296875 
L 54.390625 8.296875 
L 54.390625 0 
L 12.40625 0 
z
" id="DejaVuSans-49"/>
        <path d="M 31.78125 66.40625 
Q 24.171875 66.40625 20.328125 58.90625 
Q 16.5 51.421875 16.5 36.375 
Q 16.5 21.390625 20.328125 13.890625 
Q 24.171875 6.390625 31.78125 6.390625 
Q 39.453125 6.390625 43.28125 13.890625 
Q 47.125 21.390625 47.125 36.375 
Q 47.125 51.421875 43.28125 58.90625 
Q 39.453125 66.40625 31.78125 66.40625 
z
M 31.78125 74.21875 
Q 44.046875 74.21875 50.515625 64.515625 
Q 56.984375 54.828125 56.984375 36.375 
Q 56.984375 17.96875 50.515625 8.265625 
Q 44.046875 -1.421875 31.78125 -1.421875 
Q 19.53125 -1.421875 13.0625 8.265625 
Q 6.59375 17.96875 6.59375 36.375 
Q 6.59375 54.828125 13.0625 64.515625 
Q 19.53125 74.21875 31.78125 74.21875 
z
" id="DejaVuSans-48"/>
        <path d="M 10.59375 35.5 
L 73.1875 35.5 
L 73.1875 27.203125 
L 10.59375 27.203125 
z
" id="DejaVuSans-8722"/>
       </defs>
       <use transform="translate(0 0.684375)" xlink:href="#DejaVuSans-50"/>
       <use transform="translate(63.623047 0.684375)" xlink:href="#DejaVuSans-46"/>
       <use transform="translate(95.410156 0.684375)" xlink:href="#DejaVuSans-53"/>
       <use transform="translate(159.033203 0.684375)" xlink:href="#DejaVuSans-215"/>
       <use transform="translate(242.822266 0.684375)" xlink:href="#DejaVuSans-49"/>
       <use transform="translate(306.445312 0.684375)" xlink:href="#DejaVuSans-48"/>
       <use transform="translate(371.025391 38.965625)scale(0.7)" xlink:href="#DejaVuSans-8722"/>
       <use transform="translate(429.677734 38.965625)scale(0.7)" xlink:href="#DejaVuSans-53"/>
      </g>
     </g>
    </g>
    <g id="ytick_2">
     <g id="line2d_4">
      <path clip-path="url(#pfc98d8e758)" d="M 86.603664 66.575451 
L 645.165354 66.575451 
" style="fill:none;stroke:#000000;stroke-linecap:square;stroke-opacity:0.1;stroke-width:0.5;"/>
     </g>
     <g id="line2d_5">
      <g>
       <use style="stroke:#000000;stroke-width:0.5;" x="86.603664" xlink:href="#md6bdf36d08" y="66.575451"/>
      </g>
     </g>
     <g id="line2d_6">
      <g>
       <use style="stroke:#000000;stroke-width:0.5;" x="645.165354" xlink:href="#m966219c65f" y="66.575451"/>
      </g>
     </g>
     <g id="text_2">
      <!-- $\mathregular{3.0×10^{-5}}$ -->
      <g transform="translate(25.863664 71.134514)scale(0.12 -0.12)">
       <defs>
        <path d="M 40.578125 39.3125 
Q 47.65625 37.796875 51.625 33 
Q 55.609375 28.21875 55.609375 21.1875 
Q 55.609375 10.40625 48.1875 4.484375 
Q 40.765625 -1.421875 27.09375 -1.421875 
Q 22.515625 -1.421875 17.65625 -0.515625 
Q 12.796875 0.390625 7.625 2.203125 
L 7.625 11.71875 
Q 11.71875 9.328125 16.59375 8.109375 
Q 21.484375 6.890625 26.8125 6.890625 
Q 36.078125 6.890625 40.9375 10.546875 
Q 45.796875 14.203125 45.796875 21.1875 
Q 45.796875 27.640625 41.28125 31.265625 
Q 36.765625 34.90625 28.71875 34.90625 
L 20.21875 34.90625 
L 20.21875 43.015625 
L 29.109375 43.015625 
Q 36.375 43.015625 40.234375 45.921875 
Q 44.09375 48.828125 44.09375 54.296875 
Q 44.09375 59.90625 40.109375 62.90625 
Q 36.140625 65.921875 28.71875 65.921875 
Q 24.65625 65.921875 20.015625 65.03125 
Q 15.375 64.15625 9.8125 62.3125 
L 9.8125 71.09375 
Q 15.4375 72.65625 20.34375 73.4375 
Q 25.25 74.21875 29.59375 74.21875 
Q 40.828125 74.21875 47.359375 69.109375 
Q 53.90625 64.015625 53.90625 55.328125 
Q 53.90625 49.265625 50.4375 45.09375 
Q 46.96875 40.921875 40.578125 39.3125 
z
" id="DejaVuSans-51"/>
       </defs>
       <use transform="translate(0 0.684375)" xlink:href="#DejaVuSans-51"/>
       <use transform="translate(63.623047 0.684375)" xlink:href="#DejaVuSans-46"/>
       <use transform="translate(95.410156 0.684375)" xlink:href="#DejaVuSans-48"/>
       <use transform="translate(159.033203 0.684375)" xlink:href="#DejaVuSans-215"/>
       <use transform="translate(242.822266 0.684375)" xlink:href="#DejaVuSans-49"/>
       <use transform="translate(306.445312 0.684375)" xlink:href="#DejaVuSans-48"/>
       <use transform="translate(371.025391 38.965625)scale(0.7)" xlink:href="#DejaVuSans-8722"/>
       <use transform="translate(429.677734 38.965625)scale(0.7)" xlink:href="#DejaVuSans-53"/>
      </g>
     </g>
    </g>
    <g id="ytick_3">
     <g id="line2d_7">
      <path clip-path="url(#pfc98d8e758)" d="M 86.603664 54.342234 
L 645.165354 54.342234 
" style="fill:none;stroke:#000000;stroke-linecap:square;stroke-opacity:0.1;stroke-width:0.5;"/>
     </g>
     <g id="line2d_8">
      <g>
       <use style="stroke:#000000;stroke-width:0.5;" x="86.603664" xlink:href="#md6bdf36d08" y="54.342234"/>
      </g>
     </g>
     <g id="line2d_9">
      <g>
       <use style="stroke:#000000;stroke-width:0.5;" x="645.165354" xlink:href="#m966219c65f" y="54.342234"/>
      </g>
     </g>
     <g id="text_3">
      <!-- $\mathregular{3.5×10^{-5}}$ -->
      <g transform="translate(25.863664 58.901297)scale(0.12 -0.12)">
       <use transform="translate(0 0.684375)" xlink:href="#DejaVuSans-51"/>
       <use transform="translate(63.623047 0.684375)" xlink:href="#DejaVuSans-46"/>
       <use transform="translate(95.410156 0.684375)" xlink:href="#DejaVuSans-53"/>
       <use transform="translate(159.033203 0.684375)" xlink:href="#DejaVuSans-215"/>
       <use transform="translate(242.822266 0.684375)" xlink:href="#DejaVuSans-49"/>
       <use transform="translate(306.445312 0.684375)" xlink:href="#DejaVuSans-48"/>
       <use transform="translate(371.025391 38.965625)scale(0.7)" xlink:href="#DejaVuSans-8722"/>
       <use transform="translate(429.677734 38.965625)scale(0.7)" xlink:href="#DejaVuSans-53"/>
      </g>
     </g>
    </g>
    <g id="ytick_4">
     <g id="line2d_10">
      <path clip-path="url(#pfc98d8e758)" d="M 86.603664 42.109017 
L 645.165354 42.109017 
" style="fill:none;stroke:#000000;stroke-linecap:square;stroke-opacity:0.1;stroke-width:0.5;"/>
     </g>
     <g id="line2d_11">
      <g>
       <use style="stroke:#000000;stroke-width:0.5;" x="86.603664" xlink:href="#md6bdf36d08" y="42.109017"/>
      </g>
     </g>
     <g id="line2d_12">
      <g>
       <use style="stroke:#000000;stroke-width:0.5;" x="645.165354" xlink:href="#m966219c65f" y="42.109017"/>
      </g>
     </g>
     <g id="text_4">
      <!-- $\mathregular{4.0×10^{-5}}$ -->
      <g transform="translate(25.863664 46.66808)scale(0.12 -0.12)">
       <defs>
        <path d="M 37.796875 64.3125 
L 12.890625 25.390625 
L 37.796875 25.390625 
z
M 35.203125 72.90625 
L 47.609375 72.90625 
L 47.609375 25.390625 
L 58.015625 25.390625 
L 58.015625 17.1875 
L 47.609375 17.1875 
L 47.609375 0 
L 37.796875 0 
L 37.796875 17.1875 
L 4.890625 17.1875 
L 4.890625 26.703125 
z
" id="DejaVuSans-52"/>
       </defs>
       <use transform="translate(0 0.684375)" xlink:href="#DejaVuSans-52"/>
       <use transform="translate(63.623047 0.684375)" xlink:href="#DejaVuSans-46"/>
       <use transform="translate(95.410156 0.684375)" xlink:href="#DejaVuSans-48"/>
       <use transform="translate(159.033203 0.684375)" xlink:href="#DejaVuSans-215"/>
       <use transform="translate(242.822266 0.684375)" xlink:href="#DejaVuSans-49"/>
       <use transform="translate(306.445312 0.684375)" xlink:href="#DejaVuSans-48"/>
       <use transform="translate(371.025391 38.965625)scale(0.7)" xlink:href="#DejaVuSans-8722"/>
       <use transform="translate(429.677734 38.965625)scale(0.7)" xlink:href="#DejaVuSans-53"/>
      </g>
     </g>
    </g>
    <g id="ytick_5">
     <g id="line2d_13">
      <path clip-path="url(#pfc98d8e758)" d="M 86.603664 29.875801 
L 645.165354 29.875801 
" style="fill:none;stroke:#000000;stroke-linecap:square;stroke-opacity:0.1;stroke-width:0.5;"/>
     </g>
     <g id="line2d_14">
      <g>
       <use style="stroke:#000000;stroke-width:0.5;" x="86.603664" xlink:href="#md6bdf36d08" y="29.875801"/>
      </g>
     </g>
     <g id="line2d_15">
      <g>
       <use style="stroke:#000000;stroke-width:0.5;" x="645.165354" xlink:href="#m966219c65f" y="29.875801"/>
      </g>
     </g>
     <g id="text_5">
      <!-- $\mathregular{4.5×10^{-5}}$ -->
      <g transform="translate(25.863664 34.434863)scale(0.12 -0.12)">
       <use transform="translate(0 0.684375)" xlink:href="#DejaVuSans-52"/>
       <use transform="translate(63.623047 0.684375)" xlink:href="#DejaVuSans-46"/>
       <use transform="translate(95.410156 0.684375)" xlink:href="#DejaVuSans-53"/>
       <use transform="translate(159.033203 0.684375)" xlink:href="#DejaVuSans-215"/>
       <use transform="translate(242.822266 0.684375)" xlink:href="#DejaVuSans-49"/>
       <use transform="translate(306.445312 0.684375)" xlink:href="#DejaVuSans-48"/>
       <use transform="translate(371.025391 38.965625)scale(0.7)" xlink:href="#DejaVuSans-8722"/>
       <use transform="translate(429.677734 38.965625)scale(0.7)" xlink:href="#DejaVuSans-53"/>
      </g>
     </g>
    </g>
    <g id="ytick_6">
     <g id="line2d_16">
      <path clip-path="url(#pfc98d8e758)" d="M 86.603664 17.642584 
L 645.165354 17.642584 
" style="fill:none;stroke:#000000;stroke-linecap:square;stroke-opacity:0.1;stroke-width:0.5;"/>
     </g>
     <g id="line2d_17">
      <g>
       <use style="stroke:#000000;stroke-width:0.5;" x="86.603664" xlink:href="#md6bdf36d08" y="17.642584"/>
      </g>
     </g>
     <g id="line2d_18">
      <g>
       <use style="stroke:#000000;stroke-width:0.5;" x="645.165354" xlink:href="#m966219c65f" y="17.642584"/>
      </g>
     </g>
     <g id="text_6">
      <!-- $\mathregular{5.0×10^{-5}}$ -->
      <g transform="translate(25.863664 22.201646)scale(0.12 -0.12)">
       <use transform="translate(0 0.684375)" xlink:href="#DejaVuSans-53"/>
       <use transform="translate(63.623047 0.684375)" xlink:href="#DejaVuSans-46"/>
       <use transform="translate(95.410156 0.684375)" xlink:href="#DejaVuSans-48"/>
       <use transform="translate(159.033203 0.684375)" xlink:href="#DejaVuSans-215"/>
       <use transform="translate(242.822266 0.684375)" xlink:href="#DejaVuSans-49"/>
       <use transform="translate(306.445312 0.684375)" xlink:href="#DejaVuSans-48"/>
       <use transform="translate(371.025391 38.965625)scale(0.7)" xlink:href="#DejaVuSans-8722"/>
       <use transform="translate(429.677734 38.965625)scale(0.7)" xlink:href="#DejaVuSans-53"/>
      </g>
     </g>
    </g>
    <g id="ytick_7">
     <g id="line2d_19">
      <path clip-path="url(#pfc98d8e758)" d="M 86.603664 5.409367 
L 645.165354 5.409367 
" style="fill:none;stroke:#000000;stroke-linecap:square;stroke-opacity:0.1;stroke-width:0.5;"/>
     </g>
     <g id="line2d_20">
      <g>
       <use style="stroke:#000000;stroke-width:0.5;" x="86.603664" xlink:href="#md6bdf36d08" y="5.409367"/>
      </g>
     </g>
     <g id="line2d_21">
      <g>
       <use style="stroke:#000000;stroke-width:0.5;" x="645.165354" xlink:href="#m966219c65f" y="5.409367"/>
      </g>
     </g>
     <g id="text_7">
      <!-- $\mathregular{5.5×10^{-5}}$ -->
      <g transform="translate(25.863664 9.968429)scale(0.12 -0.12)">
       <use transform="translate(0 0.684375)" xlink:href="#DejaVuSans-53"/>
       <use transform="translate(63.623047 0.684375)" xlink:href="#DejaVuSans-46"/>
       <use transform="translate(95.410156 0.684375)" xlink:href="#DejaVuSans-53"/>
       <use transform="translate(159.033203 0.684375)" xlink:href="#DejaVuSans-215"/>
       <use transform="translate(242.822266 0.684375)" xlink:href="#DejaVuSans-49"/>
       <use transform="translate(306.445312 0.684375)" xlink:href="#DejaVuSans-48"/>
       <use transform="translate(371.025391 38.965625)scale(0.7)" xlink:href="#DejaVuSans-8722"/>
       <use transform="translate(429.677734 38.965625)scale(0.7)" xlink:href="#DejaVuSans-53"/>
      </g>
     </g>
    </g>
    <g id="text_8">
     <!-- $Y_{CH_4}$ -->
     <g transform="translate(17.383664 57.824803)rotate(-90)scale(0.16 -0.16)">
      <defs>
       <path d="M 6.296875 72.90625 
L 16.890625 72.90625 
L 30.515625 42.921875 
L 56.5 72.90625 
L 67.578125 72.90625 
L 34.515625 34.71875 
L 27.78125 0 
L 17.921875 0 
L 24.609375 34.71875 
z
" id="DejaVuSans-Oblique-89"/>
       <path d="M 69.484375 67.28125 
L 67.484375 56.890625 
Q 62.796875 61.625 57.546875 63.921875 
Q 52.296875 66.21875 46.1875 66.21875 
Q 37.84375 66.21875 31.515625 62.203125 
Q 25.203125 58.203125 20.609375 50 
Q 17.671875 44.734375 16.125 38.84375 
Q 14.59375 32.953125 14.59375 27 
Q 14.59375 17.046875 19.75 11.8125 
Q 24.90625 6.59375 34.71875 6.59375 
Q 41.5 6.59375 47.75 8.765625 
Q 54 10.9375 59.90625 15.28125 
L 57.625 3.609375 
Q 51.8125 1.125 45.875 -0.140625 
Q 39.9375 -1.421875 33.984375 -1.421875 
Q 19.96875 -1.421875 12.078125 6.1875 
Q 4.203125 13.8125 4.203125 27.390625 
Q 4.203125 36.078125 7.203125 44.46875 
Q 10.203125 52.875 15.828125 59.8125 
Q 21.78125 67.1875 29.421875 70.703125 
Q 37.0625 74.21875 47.21875 74.21875 
Q 53.46875 74.21875 59.0625 72.484375 
Q 64.65625 70.75 69.484375 67.28125 
z
" id="DejaVuSans-Oblique-67"/>
       <path d="M 16.890625 72.90625 
L 26.8125 72.90625 
L 21 43.015625 
L 56.78125 43.015625 
L 62.59375 72.90625 
L 72.515625 72.90625 
L 58.296875 0 
L 48.390625 0 
L 55.171875 34.71875 
L 19.390625 34.71875 
L 12.59375 0 
L 2.6875 0 
z
" id="DejaVuSans-Oblique-72"/>
      </defs>
      <use transform="translate(0 0.09375)" xlink:href="#DejaVuSans-Oblique-89"/>
      <use transform="translate(61.083984 -16.3125)scale(0.7)" xlink:href="#DejaVuSans-Oblique-67"/>
      <use transform="translate(109.960938 -16.3125)scale(0.7)" xlink:href="#DejaVuSans-Oblique-72"/>
      <use transform="translate(162.597656 -27.796875)scale(0.49)" xlink:href="#DejaVuSans-52"/>
     </g>
    </g>
   </g>
   <g id="PathCollection_1">
    <defs>
     <path d="M 0 2 
C 0.530406 2 1.03916 1.789267 1.414214 1.414214 
C 1.789267 1.03916 2 0.530406 2 0 
C 2 -0.530406 1.789267 -1.03916 1.414214 -1.414214 
C 1.03916 -1.789267 0.530406 -2 0 -2 
C -0.530406 -2 -1.03916 -1.789267 -1.414214 -1.414214 
C -1.789267 -1.03916 -2 -0.530406 -2 0 
C -2 0.530406 -1.789267 1.03916 -1.414214 1.414214 
C -1.03916 1.789267 -0.530406 2 0 2 
z
" id="m575e51f8a8"/>
    </defs>
    <g clip-path="url(#pfc98d8e758)">
     <use x="102.412014" xlink:href="#m575e51f8a8" y="30.953083"/>
     <use x="107.73469" xlink:href="#m575e51f8a8" y="29.863047"/>
     <use x="113.057367" xlink:href="#m575e51f8a8" y="28.756786"/>
     <use x="118.380044" xlink:href="#m575e51f8a8" y="27.24643"/>
     <use x="123.70272" xlink:href="#m575e51f8a8" y="26.931627"/>
     <use x="129.025397" xlink:href="#m575e51f8a8" y="28.654765"/>
     <use x="134.348074" xlink:href="#m575e51f8a8" y="30.977825"/>
     <use x="139.67075" xlink:href="#m575e51f8a8" y="32.614754"/>
     <use x="144.993427" xlink:href="#m575e51f8a8" y="31.132604"/>
     <use x="150.316104" xlink:href="#m575e51f8a8" y="28.636547"/>
     <use x="155.63878" xlink:href="#m575e51f8a8" y="25.298661"/>
     <use x="160.961457" xlink:href="#m575e51f8a8" y="25.220746"/>
     <use x="166.284134" xlink:href="#m575e51f8a8" y="26.900315"/>
     <use x="171.60681" xlink:href="#m575e51f8a8" y="31.645725"/>
     <use x="176.929487" xlink:href="#m575e51f8a8" y="35.00495"/>
     <use x="182.252164" xlink:href="#m575e51f8a8" y="33.483331"/>
     <use x="187.57484" xlink:href="#m575e51f8a8" y="29.037667"/>
     <use x="192.897517" xlink:href="#m575e51f8a8" y="23.506037"/>
     <use x="198.220194" xlink:href="#m575e51f8a8" y="19.811537"/>
     <use x="203.54287" xlink:href="#m575e51f8a8" y="23.071502"/>
     <use x="208.865547" xlink:href="#m575e51f8a8" y="31.198085"/>
     <use x="214.188224" xlink:href="#m575e51f8a8" y="37.678091"/>
     <use x="219.5109" xlink:href="#m575e51f8a8" y="38.618128"/>
     <use x="224.833577" xlink:href="#m575e51f8a8" y="30.427686"/>
     <use x="230.156254" xlink:href="#m575e51f8a8" y="19.426665"/>
     <use x="235.47893" xlink:href="#m575e51f8a8" y="13.046613"/>
     <use x="240.801607" xlink:href="#m575e51f8a8" y="15.196268"/>
     <use x="246.124284" xlink:href="#m575e51f8a8" y="28.242804"/>
     <use x="251.446961" xlink:href="#m575e51f8a8" y="43.14312"/>
     <use x="256.769637" xlink:href="#m575e51f8a8" y="45.897794"/>
     <use x="262.092314" xlink:href="#m575e51f8a8" y="35.183791"/>
     <use x="267.414991" xlink:href="#m575e51f8a8" y="17.840506"/>
     <use x="272.737667" xlink:href="#m575e51f8a8" y="5.046164"/>
     <use x="278.060344" xlink:href="#m575e51f8a8" y="7.506091"/>
     <use x="283.383021" xlink:href="#m575e51f8a8" y="32.057779"/>
     <use x="288.705697" xlink:href="#m575e51f8a8" y="57.880237"/>
     <use x="294.028374" xlink:href="#m575e51f8a8" y="58.577202"/>
     <use x="299.351051" xlink:href="#m575e51f8a8" y="44.102873"/>
     <use x="304.673727" xlink:href="#m575e51f8a8" y="26.605063"/>
     <use x="309.996404" xlink:href="#m575e51f8a8" y="16.419059"/>
     <use x="315.319081" xlink:href="#m575e51f8a8" y="27.563761"/>
     <use x="320.641757" xlink:href="#m575e51f8a8" y="53.307589"/>
     <use x="325.964434" xlink:href="#m575e51f8a8" y="63.855443"/>
     <use x="331.287111" xlink:href="#m575e51f8a8" y="57.11582"/>
     <use x="336.609787" xlink:href="#m575e51f8a8" y="45.262396"/>
     <use x="341.932464" xlink:href="#m575e51f8a8" y="39.378054"/>
     <use x="347.255141" xlink:href="#m575e51f8a8" y="42.907188"/>
     <use x="352.577817" xlink:href="#m575e51f8a8" y="55.361164"/>
     <use x="357.900494" xlink:href="#m575e51f8a8" y="62.652677"/>
     <use x="363.223171" xlink:href="#m575e51f8a8" y="60.374828"/>
     <use x="368.545847" xlink:href="#m575e51f8a8" y="56.128893"/>
     <use x="373.868524" xlink:href="#m575e51f8a8" y="54.733239"/>
     <use x="379.191201" xlink:href="#m575e51f8a8" y="57.122825"/>
     <use x="384.513877" xlink:href="#m575e51f8a8" y="61.552847"/>
     <use x="389.836554" xlink:href="#m575e51f8a8" y="63.219783"/>
     <use x="395.159231" xlink:href="#m575e51f8a8" y="63.882989"/>
     <use x="400.481907" xlink:href="#m575e51f8a8" y="63.242514"/>
     <use x="405.804584" xlink:href="#m575e51f8a8" y="64.265013"/>
     <use x="411.127261" xlink:href="#m575e51f8a8" y="65.138957"/>
     <use x="416.449938" xlink:href="#m575e51f8a8" y="66.897983"/>
     <use x="421.772614" xlink:href="#m575e51f8a8" y="68.314258"/>
     <use x="427.095291" xlink:href="#m575e51f8a8" y="69.090084"/>
     <use x="432.417968" xlink:href="#m575e51f8a8" y="69.313268"/>
     <use x="437.740644" xlink:href="#m575e51f8a8" y="70.557524"/>
     <use x="443.063321" xlink:href="#m575e51f8a8" y="71.728784"/>
     <use x="448.385998" xlink:href="#m575e51f8a8" y="71.672444"/>
     <use x="453.708674" xlink:href="#m575e51f8a8" y="73.235229"/>
     <use x="459.031351" xlink:href="#m575e51f8a8" y="72.919596"/>
     <use x="464.354028" xlink:href="#m575e51f8a8" y="74.198808"/>
     <use x="469.676704" xlink:href="#m575e51f8a8" y="74.717485"/>
     <use x="474.999381" xlink:href="#m575e51f8a8" y="75.564503"/>
     <use x="480.322058" xlink:href="#m575e51f8a8" y="75.435337"/>
     <use x="485.644734" xlink:href="#m575e51f8a8" y="76.121139"/>
     <use x="490.967411" xlink:href="#m575e51f8a8" y="76.111372"/>
     <use x="496.290088" xlink:href="#m575e51f8a8" y="75.830027"/>
     <use x="501.612764" xlink:href="#m575e51f8a8" y="75.886731"/>
     <use x="506.935441" xlink:href="#m575e51f8a8" y="76.433834"/>
     <use x="512.258118" xlink:href="#m575e51f8a8" y="76.125228"/>
     <use x="517.580794" xlink:href="#m575e51f8a8" y="76.576639"/>
     <use x="522.903471" xlink:href="#m575e51f8a8" y="76.829492"/>
     <use x="528.226148" xlink:href="#m575e51f8a8" y="76.477837"/>
     <use x="533.548824" xlink:href="#m575e51f8a8" y="77.423403"/>
     <use x="538.871501" xlink:href="#m575e51f8a8" y="76.240878"/>
     <use x="544.194178" xlink:href="#m575e51f8a8" y="76.435235"/>
     <use x="549.516854" xlink:href="#m575e51f8a8" y="77.329206"/>
     <use x="554.839531" xlink:href="#m575e51f8a8" y="76.969784"/>
     <use x="560.162208" xlink:href="#m575e51f8a8" y="77.038285"/>
     <use x="565.484884" xlink:href="#m575e51f8a8" y="77.234505"/>
     <use x="570.807561" xlink:href="#m575e51f8a8" y="77.643982"/>
     <use x="576.130238" xlink:href="#m575e51f8a8" y="76.934936"/>
     <use x="581.452915" xlink:href="#m575e51f8a8" y="77.384158"/>
     <use x="586.775591" xlink:href="#m575e51f8a8" y="78.003465"/>
     <use x="592.098268" xlink:href="#m575e51f8a8" y="76.824589"/>
     <use x="597.420945" xlink:href="#m575e51f8a8" y="78.261429"/>
     <use x="602.743621" xlink:href="#m575e51f8a8" y="77.236667"/>
     <use x="608.066298" xlink:href="#m575e51f8a8" y="77.624948"/>
     <use x="613.388975" xlink:href="#m575e51f8a8" y="78.035348"/>
     <use x="618.711651" xlink:href="#m575e51f8a8" y="78.398377"/>
     <use x="624.034328" xlink:href="#m575e51f8a8" y="77.514388"/>
     <use x="629.357005" xlink:href="#m575e51f8a8" y="77.274059"/>
    </g>
   </g>
   <g id="line2d_22">
    <path clip-path="url(#pfc98d8e758)" d="M 102.412014 30.79539 
L 107.73469 29.976136 
L 113.057367 28.557217 
L 118.380044 27.47402 
L 123.70272 27.602867 
L 129.025397 29.077638 
L 134.348074 30.980433 
L 139.67075 31.861091 
L 144.993427 30.862151 
L 150.316104 28.427273 
L 155.63878 26.08837 
L 160.961457 25.618342 
L 166.284134 27.804965 
L 171.60681 31.468737 
L 176.929487 33.889533 
L 182.252164 32.979872 
L 187.57484 28.999478 
L 192.897517 24.313811 
L 198.220194 22.2021 
L 203.54287 24.99165 
L 208.865547 31.676987 
L 214.188224 37.346304 
L 219.5109 37.249196 
L 224.833577 31.130807 
L 230.156254 22.556962 
L 235.47893 16.997272 
L 240.801607 19.665661 
L 246.124284 31.092312 
L 251.446961 42.916239 
L 256.769637 44.78354 
L 262.092314 36.021233 
L 267.414991 22.448809 
L 272.737667 12.281368 
L 278.060344 14.598145 
L 283.383021 32.51338 
L 288.705697 51.9283 
L 294.028374 54.340649 
L 299.351051 42.612405 
L 304.673727 26.880442 
L 309.996404 17.919361 
L 315.319081 25.781251 
L 320.641757 48.072171 
L 325.964434 61.740429 
L 331.287111 57.626795 
L 336.609787 46.74446 
L 341.932464 39.564574 
L 347.255141 43.056629 
L 352.577817 54.705713 
L 357.900494 62.343339 
L 363.223171 61.530114 
L 368.545847 57.85054 
L 373.868524 56.70045 
L 379.191201 59.374533 
L 384.513877 63.05919 
L 389.836554 64.888316 
L 395.159231 65.052395 
L 400.481907 65.143278 
L 405.804584 65.964626 
L 411.127261 67.186332 
L 416.449938 68.216752 
L 421.772614 68.910881 
L 427.095291 69.470214 
L 432.417968 70.061721 
L 437.740644 70.685821 
L 443.063321 71.276464 
L 448.385998 71.80127 
L 453.708674 72.27516 
L 459.031351 72.720061 
L 464.354028 73.143414 
L 469.676704 73.542104 
L 474.999381 73.913865 
L 480.322058 74.25994 
L 485.644734 74.583571 
L 490.967411 74.887416 
L 496.290088 75.173113 
L 501.612764 75.441295 
L 506.935441 75.692941 
L 512.258118 75.929363 
L 517.580794 76.151837 
L 522.903471 76.36107 
L 528.226148 76.558188 
L 533.548824 76.743795 
L 538.871501 76.91882 
L 544.194178 77.083774 
L 549.516854 77.239391 
L 554.839531 77.386282 
L 560.162208 77.524894 
L 565.484884 77.655883 
L 570.807561 77.77949 
L 576.130238 77.896354 
L 581.452915 78.006772 
L 586.775591 78.111061 
L 592.098268 78.209714 
L 597.420945 78.302875 
L 602.743621 78.390956 
L 608.066298 78.474223 
L 613.388975 78.552807 
L 618.711651 78.627098 
L 624.034328 78.697274 
L 629.357005 78.763442 
" style="fill:none;stroke:#ff0000;"/>
   </g>
   <g id="patch_3">
    <path d="M 86.603664 80.974961 
L 86.603664 2.834646 
" style="fill:none;stroke:#000000;stroke-linecap:square;stroke-linejoin:miter;"/>
   </g>
   <g id="patch_4">
    <path d="M 645.165354 80.974961 
L 645.165354 2.834646 
" style="fill:none;stroke:#000000;stroke-linecap:square;stroke-linejoin:miter;"/>
   </g>
   <g id="patch_5">
    <path d="M 86.603664 80.974961 
L 645.165354 80.974961 
" style="fill:none;stroke:#000000;stroke-linecap:square;stroke-linejoin:miter;"/>
   </g>
   <g id="patch_6">
    <path d="M 86.603664 2.834646 
L 645.165354 2.834646 
" style="fill:none;stroke:#000000;stroke-linecap:square;stroke-linejoin:miter;"/>
   </g>
  </g>
  <g id="axes_2">
   <g id="patch_7">
    <path d="M 86.603664 165.476312 
L 645.165354 165.476312 
L 645.165354 87.335997 
L 86.603664 87.335997 
z
" style="fill:#ffffff;"/>
   </g>
   <g id="matplotlib.axis_3">
    <g id="xtick_7"/>
    <g id="xtick_8"/>
    <g id="xtick_9"/>
    <g id="xtick_10"/>
    <g id="xtick_11"/>
    <g id="xtick_12"/>
   </g>
   <g id="matplotlib.axis_4">
    <g id="ytick_8">
     <g id="line2d_23">
      <path clip-path="url(#p32f2ab04a1)" d="M 86.603664 163.604047 
L 645.165354 163.604047 
" style="fill:none;stroke:#000000;stroke-linecap:square;stroke-opacity:0.1;stroke-width:0.5;"/>
     </g>
     <g id="line2d_24">
      <g>
       <use style="stroke:#000000;stroke-width:0.5;" x="86.603664" xlink:href="#md6bdf36d08" y="163.604047"/>
      </g>
     </g>
     <g id="line2d_25">
      <g>
       <use style="stroke:#000000;stroke-width:0.5;" x="645.165354" xlink:href="#m966219c65f" y="163.604047"/>
      </g>
     </g>
     <g id="text_9">
      <!-- $\mathregular{0.00115}$ -->
      <g transform="translate(33.423664 168.16311)scale(0.12 -0.12)">
       <use transform="translate(0 0.78125)" xlink:href="#DejaVuSans-48"/>
       <use transform="translate(63.623047 0.78125)" xlink:href="#DejaVuSans-46"/>
       <use transform="translate(95.410156 0.78125)" xlink:href="#DejaVuSans-48"/>
       <use transform="translate(159.033203 0.78125)" xlink:href="#DejaVuSans-48"/>
       <use transform="translate(222.65625 0.78125)" xlink:href="#DejaVuSans-49"/>
       <use transform="translate(286.279297 0.78125)" xlink:href="#DejaVuSans-49"/>
       <use transform="translate(349.902344 0.78125)" xlink:href="#DejaVuSans-53"/>
      </g>
     </g>
    </g>
    <g id="ytick_9">
     <g id="line2d_26">
      <path clip-path="url(#p32f2ab04a1)" d="M 86.603664 151.602798 
L 645.165354 151.602798 
" style="fill:none;stroke:#000000;stroke-linecap:square;stroke-opacity:0.1;stroke-width:0.5;"/>
     </g>
     <g id="line2d_27">
      <g>
       <use style="stroke:#000000;stroke-width:0.5;" x="86.603664" xlink:href="#md6bdf36d08" y="151.602798"/>
      </g>
     </g>
     <g id="line2d_28">
      <g>
       <use style="stroke:#000000;stroke-width:0.5;" x="645.165354" xlink:href="#m966219c65f" y="151.602798"/>
      </g>
     </g>
     <g id="text_10">
      <!-- $\mathregular{0.00120}$ -->
      <g transform="translate(33.423664 156.161861)scale(0.12 -0.12)">
       <use transform="translate(0 0.78125)" xlink:href="#DejaVuSans-48"/>
       <use transform="translate(63.623047 0.78125)" xlink:href="#DejaVuSans-46"/>
       <use transform="translate(95.410156 0.78125)" xlink:href="#DejaVuSans-48"/>
       <use transform="translate(159.033203 0.78125)" xlink:href="#DejaVuSans-48"/>
       <use transform="translate(222.65625 0.78125)" xlink:href="#DejaVuSans-49"/>
       <use transform="translate(286.279297 0.78125)" xlink:href="#DejaVuSans-50"/>
       <use transform="translate(349.902344 0.78125)" xlink:href="#DejaVuSans-48"/>
      </g>
     </g>
    </g>
    <g id="ytick_10">
     <g id="line2d_29">
      <path clip-path="url(#p32f2ab04a1)" d="M 86.603664 139.601549 
L 645.165354 139.601549 
" style="fill:none;stroke:#000000;stroke-linecap:square;stroke-opacity:0.1;stroke-width:0.5;"/>
     </g>
     <g id="line2d_30">
      <g>
       <use style="stroke:#000000;stroke-width:0.5;" x="86.603664" xlink:href="#md6bdf36d08" y="139.601549"/>
      </g>
     </g>
     <g id="line2d_31">
      <g>
       <use style="stroke:#000000;stroke-width:0.5;" x="645.165354" xlink:href="#m966219c65f" y="139.601549"/>
      </g>
     </g>
     <g id="text_11">
      <!-- $\mathregular{0.00125}$ -->
      <g transform="translate(33.423664 144.160612)scale(0.12 -0.12)">
       <use transform="translate(0 0.78125)" xlink:href="#DejaVuSans-48"/>
       <use transform="translate(63.623047 0.78125)" xlink:href="#DejaVuSans-46"/>
       <use transform="translate(95.410156 0.78125)" xlink:href="#DejaVuSans-48"/>
       <use transform="translate(159.033203 0.78125)" xlink:href="#DejaVuSans-48"/>
       <use transform="translate(222.65625 0.78125)" xlink:href="#DejaVuSans-49"/>
       <use transform="translate(286.279297 0.78125)" xlink:href="#DejaVuSans-50"/>
       <use transform="translate(349.902344 0.78125)" xlink:href="#DejaVuSans-53"/>
      </g>
     </g>
    </g>
    <g id="ytick_11">
     <g id="line2d_32">
      <path clip-path="url(#p32f2ab04a1)" d="M 86.603664 127.6003 
L 645.165354 127.6003 
" style="fill:none;stroke:#000000;stroke-linecap:square;stroke-opacity:0.1;stroke-width:0.5;"/>
     </g>
     <g id="line2d_33">
      <g>
       <use style="stroke:#000000;stroke-width:0.5;" x="86.603664" xlink:href="#md6bdf36d08" y="127.6003"/>
      </g>
     </g>
     <g id="line2d_34">
      <g>
       <use style="stroke:#000000;stroke-width:0.5;" x="645.165354" xlink:href="#m966219c65f" y="127.6003"/>
      </g>
     </g>
     <g id="text_12">
      <!-- $\mathregular{0.00130}$ -->
      <g transform="translate(33.423664 132.159363)scale(0.12 -0.12)">
       <use transform="translate(0 0.78125)" xlink:href="#DejaVuSans-48"/>
       <use transform="translate(63.623047 0.78125)" xlink:href="#DejaVuSans-46"/>
       <use transform="translate(95.410156 0.78125)" xlink:href="#DejaVuSans-48"/>
       <use transform="translate(159.033203 0.78125)" xlink:href="#DejaVuSans-48"/>
       <use transform="translate(222.65625 0.78125)" xlink:href="#DejaVuSans-49"/>
       <use transform="translate(286.279297 0.78125)" xlink:href="#DejaVuSans-51"/>
       <use transform="translate(349.902344 0.78125)" xlink:href="#DejaVuSans-48"/>
      </g>
     </g>
    </g>
    <g id="ytick_12">
     <g id="line2d_35">
      <path clip-path="url(#p32f2ab04a1)" d="M 86.603664 115.599051 
L 645.165354 115.599051 
" style="fill:none;stroke:#000000;stroke-linecap:square;stroke-opacity:0.1;stroke-width:0.5;"/>
     </g>
     <g id="line2d_36">
      <g>
       <use style="stroke:#000000;stroke-width:0.5;" x="86.603664" xlink:href="#md6bdf36d08" y="115.599051"/>
      </g>
     </g>
     <g id="line2d_37">
      <g>
       <use style="stroke:#000000;stroke-width:0.5;" x="645.165354" xlink:href="#m966219c65f" y="115.599051"/>
      </g>
     </g>
     <g id="text_13">
      <!-- $\mathregular{0.00135}$ -->
      <g transform="translate(33.423664 120.158114)scale(0.12 -0.12)">
       <use transform="translate(0 0.78125)" xlink:href="#DejaVuSans-48"/>
       <use transform="translate(63.623047 0.78125)" xlink:href="#DejaVuSans-46"/>
       <use transform="translate(95.410156 0.78125)" xlink:href="#DejaVuSans-48"/>
       <use transform="translate(159.033203 0.78125)" xlink:href="#DejaVuSans-48"/>
       <use transform="translate(222.65625 0.78125)" xlink:href="#DejaVuSans-49"/>
       <use transform="translate(286.279297 0.78125)" xlink:href="#DejaVuSans-51"/>
       <use transform="translate(349.902344 0.78125)" xlink:href="#DejaVuSans-53"/>
      </g>
     </g>
    </g>
    <g id="ytick_13">
     <g id="line2d_38">
      <path clip-path="url(#p32f2ab04a1)" d="M 86.603664 103.597802 
L 645.165354 103.597802 
" style="fill:none;stroke:#000000;stroke-linecap:square;stroke-opacity:0.1;stroke-width:0.5;"/>
     </g>
     <g id="line2d_39">
      <g>
       <use style="stroke:#000000;stroke-width:0.5;" x="86.603664" xlink:href="#md6bdf36d08" y="103.597802"/>
      </g>
     </g>
     <g id="line2d_40">
      <g>
       <use style="stroke:#000000;stroke-width:0.5;" x="645.165354" xlink:href="#m966219c65f" y="103.597802"/>
      </g>
     </g>
     <g id="text_14">
      <!-- $\mathregular{0.00140}$ -->
      <g transform="translate(33.423664 108.156865)scale(0.12 -0.12)">
       <use transform="translate(0 0.78125)" xlink:href="#DejaVuSans-48"/>
       <use transform="translate(63.623047 0.78125)" xlink:href="#DejaVuSans-46"/>
       <use transform="translate(95.410156 0.78125)" xlink:href="#DejaVuSans-48"/>
       <use transform="translate(159.033203 0.78125)" xlink:href="#DejaVuSans-48"/>
       <use transform="translate(222.65625 0.78125)" xlink:href="#DejaVuSans-49"/>
       <use transform="translate(286.279297 0.78125)" xlink:href="#DejaVuSans-52"/>
       <use transform="translate(349.902344 0.78125)" xlink:href="#DejaVuSans-48"/>
      </g>
     </g>
    </g>
    <g id="ytick_14">
     <g id="line2d_41">
      <path clip-path="url(#p32f2ab04a1)" d="M 86.603664 91.596553 
L 645.165354 91.596553 
" style="fill:none;stroke:#000000;stroke-linecap:square;stroke-opacity:0.1;stroke-width:0.5;"/>
     </g>
     <g id="line2d_42">
      <g>
       <use style="stroke:#000000;stroke-width:0.5;" x="86.603664" xlink:href="#md6bdf36d08" y="91.596553"/>
      </g>
     </g>
     <g id="line2d_43">
      <g>
       <use style="stroke:#000000;stroke-width:0.5;" x="645.165354" xlink:href="#m966219c65f" y="91.596553"/>
      </g>
     </g>
     <g id="text_15">
      <!-- $\mathregular{0.00145}$ -->
      <g transform="translate(33.423664 96.155616)scale(0.12 -0.12)">
       <use transform="translate(0 0.78125)" xlink:href="#DejaVuSans-48"/>
       <use transform="translate(63.623047 0.78125)" xlink:href="#DejaVuSans-46"/>
       <use transform="translate(95.410156 0.78125)" xlink:href="#DejaVuSans-48"/>
       <use transform="translate(159.033203 0.78125)" xlink:href="#DejaVuSans-48"/>
       <use transform="translate(222.65625 0.78125)" xlink:href="#DejaVuSans-49"/>
       <use transform="translate(286.279297 0.78125)" xlink:href="#DejaVuSans-52"/>
       <use transform="translate(349.902344 0.78125)" xlink:href="#DejaVuSans-53"/>
      </g>
     </g>
    </g>
    <g id="text_16">
     <!-- $Y_{CO}$ -->
     <g transform="translate(26.096164 139.846154)rotate(-90)scale(0.16 -0.16)">
      <defs>
       <path d="M 45.609375 66.21875 
Q 37.5 66.21875 31.296875 62.28125 
Q 25.09375 58.34375 20.515625 50.296875 
Q 17.578125 45.171875 16.03125 39.40625 
Q 14.5 33.640625 14.5 27.78125 
Q 14.5 17.625 19.359375 12.109375 
Q 24.21875 6.59375 33.109375 6.59375 
Q 41.109375 6.59375 47.375 10.5625 
Q 53.65625 14.546875 58.109375 22.40625 
Q 61.078125 27.6875 62.640625 33.46875 
Q 64.203125 39.265625 64.203125 45.015625 
Q 64.203125 55.125 59.3125 60.671875 
Q 54.4375 66.21875 45.609375 66.21875 
z
M 32.8125 -1.421875 
Q 19.390625 -1.421875 11.6875 6.53125 
Q 4 14.5 4 28.328125 
Q 4 36.234375 7 44.484375 
Q 10.015625 52.734375 15.28125 59.1875 
Q 21.484375 66.75 29.09375 70.484375 
Q 36.71875 74.21875 45.90625 74.21875 
Q 59.28125 74.21875 66.984375 66.328125 
Q 74.703125 58.453125 74.703125 44.828125 
Q 74.703125 36.421875 71.765625 28.3125 
Q 68.84375 20.21875 63.375 13.625 
Q 57.125 6 49.578125 2.28125 
Q 42.046875 -1.421875 32.8125 -1.421875 
z
" id="DejaVuSans-Oblique-79"/>
      </defs>
      <use transform="translate(0 0.09375)" xlink:href="#DejaVuSans-Oblique-89"/>
      <use transform="translate(61.083984 -16.3125)scale(0.7)" xlink:href="#DejaVuSans-Oblique-67"/>
      <use transform="translate(109.960938 -16.3125)scale(0.7)" xlink:href="#DejaVuSans-Oblique-79"/>
     </g>
    </g>
   </g>
   <g id="PathCollection_2">
    <g clip-path="url(#p32f2ab04a1)">
     <use x="102.412014" xlink:href="#m575e51f8a8" y="108.526445"/>
     <use x="107.73469" xlink:href="#m575e51f8a8" y="109.486757"/>
     <use x="113.057367" xlink:href="#m575e51f8a8" y="108.900979"/>
     <use x="118.380044" xlink:href="#m575e51f8a8" y="106.332301"/>
     <use x="123.70272" xlink:href="#m575e51f8a8" y="105.828344"/>
     <use x="129.025397" xlink:href="#m575e51f8a8" y="105.756982"/>
     <use x="134.348074" xlink:href="#m575e51f8a8" y="107.56954"/>
     <use x="139.67075" xlink:href="#m575e51f8a8" y="108.446103"/>
     <use x="144.993427" xlink:href="#m575e51f8a8" y="109.442247"/>
     <use x="150.316104" xlink:href="#m575e51f8a8" y="109.608379"/>
     <use x="155.63878" xlink:href="#m575e51f8a8" y="106.035824"/>
     <use x="160.961457" xlink:href="#m575e51f8a8" y="104.119191"/>
     <use x="166.284134" xlink:href="#m575e51f8a8" y="103.039554"/>
     <use x="171.60681" xlink:href="#m575e51f8a8" y="105.033941"/>
     <use x="176.929487" xlink:href="#m575e51f8a8" y="109.391697"/>
     <use x="182.252164" xlink:href="#m575e51f8a8" y="112.296245"/>
     <use x="187.57484" xlink:href="#m575e51f8a8" y="110.517775"/>
     <use x="192.897517" xlink:href="#m575e51f8a8" y="107.921677"/>
     <use x="198.220194" xlink:href="#m575e51f8a8" y="102.891557"/>
     <use x="203.54287" xlink:href="#m575e51f8a8" y="100.181163"/>
     <use x="208.865547" xlink:href="#m575e51f8a8" y="102.921586"/>
     <use x="214.188224" xlink:href="#m575e51f8a8" y="109.048448"/>
     <use x="219.5109" xlink:href="#m575e51f8a8" y="114.186127"/>
     <use x="224.833577" xlink:href="#m575e51f8a8" y="114.873671"/>
     <use x="230.156254" xlink:href="#m575e51f8a8" y="109.221791"/>
     <use x="235.47893" xlink:href="#m575e51f8a8" y="100.930793"/>
     <use x="240.801607" xlink:href="#m575e51f8a8" y="93.618273"/>
     <use x="246.124284" xlink:href="#m575e51f8a8" y="94.411946"/>
     <use x="251.446961" xlink:href="#m575e51f8a8" y="105.500851"/>
     <use x="256.769637" xlink:href="#m575e51f8a8" y="119.138645"/>
     <use x="262.092314" xlink:href="#m575e51f8a8" y="122.21332"/>
     <use x="267.414991" xlink:href="#m575e51f8a8" y="114.293016"/>
     <use x="272.737667" xlink:href="#m575e51f8a8" y="101.179074"/>
     <use x="278.060344" xlink:href="#m575e51f8a8" y="89.547515"/>
     <use x="283.383021" xlink:href="#m575e51f8a8" y="90.45244"/>
     <use x="288.705697" xlink:href="#m575e51f8a8" y="113.229473"/>
     <use x="294.028374" xlink:href="#m575e51f8a8" y="133.503566"/>
     <use x="299.351051" xlink:href="#m575e51f8a8" y="135.455416"/>
     <use x="304.673727" xlink:href="#m575e51f8a8" y="124.579517"/>
     <use x="309.996404" xlink:href="#m575e51f8a8" y="109.822425"/>
     <use x="315.319081" xlink:href="#m575e51f8a8" y="102.040299"/>
     <use x="320.641757" xlink:href="#m575e51f8a8" y="110.347217"/>
     <use x="325.964434" xlink:href="#m575e51f8a8" y="131.4425"/>
     <use x="331.287111" xlink:href="#m575e51f8a8" y="141.190244"/>
     <use x="336.609787" xlink:href="#m575e51f8a8" y="136.535235"/>
     <use x="341.932464" xlink:href="#m575e51f8a8" y="127.326616"/>
     <use x="347.255141" xlink:href="#m575e51f8a8" y="122.956923"/>
     <use x="352.577817" xlink:href="#m575e51f8a8" y="126.069604"/>
     <use x="357.900494" xlink:href="#m575e51f8a8" y="135.87304"/>
     <use x="363.223171" xlink:href="#m575e51f8a8" y="141.762604"/>
     <use x="368.545847" xlink:href="#m575e51f8a8" y="140.16969"/>
     <use x="373.868524" xlink:href="#m575e51f8a8" y="137.56175"/>
     <use x="379.191201" xlink:href="#m575e51f8a8" y="136.821166"/>
     <use x="384.513877" xlink:href="#m575e51f8a8" y="139.553178"/>
     <use x="389.836554" xlink:href="#m575e51f8a8" y="143.301934"/>
     <use x="395.159231" xlink:href="#m575e51f8a8" y="145.037635"/>
     <use x="400.481907" xlink:href="#m575e51f8a8" y="145.436538"/>
     <use x="405.804584" xlink:href="#m575e51f8a8" y="145.252499"/>
     <use x="411.127261" xlink:href="#m575e51f8a8" y="146.557358"/>
     <use x="416.449938" xlink:href="#m575e51f8a8" y="148.027048"/>
     <use x="421.772614" xlink:href="#m575e51f8a8" y="149.452825"/>
     <use x="427.095291" xlink:href="#m575e51f8a8" y="150.4369"/>
     <use x="432.417968" xlink:href="#m575e51f8a8" y="151.460323"/>
     <use x="437.740644" xlink:href="#m575e51f8a8" y="151.778654"/>
     <use x="443.063321" xlink:href="#m575e51f8a8" y="152.69296"/>
     <use x="448.385998" xlink:href="#m575e51f8a8" y="154.232465"/>
     <use x="453.708674" xlink:href="#m575e51f8a8" y="154.407055"/>
     <use x="459.031351" xlink:href="#m575e51f8a8" y="155.832557"/>
     <use x="464.354028" xlink:href="#m575e51f8a8" y="157.069548"/>
     <use x="469.676704" xlink:href="#m575e51f8a8" y="156.729567"/>
     <use x="474.999381" xlink:href="#m575e51f8a8" y="158.5769"/>
     <use x="480.322058" xlink:href="#m575e51f8a8" y="159.10616"/>
     <use x="485.644734" xlink:href="#m575e51f8a8" y="158.67739"/>
     <use x="490.967411" xlink:href="#m575e51f8a8" y="158.94585"/>
     <use x="496.290088" xlink:href="#m575e51f8a8" y="159.718996"/>
     <use x="501.612764" xlink:href="#m575e51f8a8" y="159.090014"/>
     <use x="506.935441" xlink:href="#m575e51f8a8" y="159.922495"/>
     <use x="512.258118" xlink:href="#m575e51f8a8" y="159.972676"/>
     <use x="517.580794" xlink:href="#m575e51f8a8" y="159.085312"/>
     <use x="522.903471" xlink:href="#m575e51f8a8" y="160.003311"/>
     <use x="528.226148" xlink:href="#m575e51f8a8" y="160.12243"/>
     <use x="533.548824" xlink:href="#m575e51f8a8" y="160.885604"/>
     <use x="538.871501" xlink:href="#m575e51f8a8" y="160.943616"/>
     <use x="544.194178" xlink:href="#m575e51f8a8" y="161.027278"/>
     <use x="549.516854" xlink:href="#m575e51f8a8" y="160.400546"/>
     <use x="554.839531" xlink:href="#m575e51f8a8" y="160.099754"/>
     <use x="560.162208" xlink:href="#m575e51f8a8" y="160.389982"/>
     <use x="565.484884" xlink:href="#m575e51f8a8" y="161.133189"/>
     <use x="570.807561" xlink:href="#m575e51f8a8" y="161.803186"/>
     <use x="576.130238" xlink:href="#m575e51f8a8" y="161.31355"/>
     <use x="581.452915" xlink:href="#m575e51f8a8" y="161.126284"/>
     <use x="586.775591" xlink:href="#m575e51f8a8" y="161.543932"/>
     <use x="592.098268" xlink:href="#m575e51f8a8" y="162.137206"/>
     <use x="597.420945" xlink:href="#m575e51f8a8" y="161.67173"/>
     <use x="602.743621" xlink:href="#m575e51f8a8" y="161.998987"/>
     <use x="608.066298" xlink:href="#m575e51f8a8" y="162.189911"/>
     <use x="613.388975" xlink:href="#m575e51f8a8" y="161.765997"/>
     <use x="618.711651" xlink:href="#m575e51f8a8" y="162.445524"/>
     <use x="624.034328" xlink:href="#m575e51f8a8" y="162.474508"/>
     <use x="629.357005" xlink:href="#m575e51f8a8" y="163.027003"/>
    </g>
   </g>
   <g id="line2d_44">
    <path clip-path="url(#p32f2ab04a1)" d="M 102.412014 108.685512 
L 107.73469 108.94966 
L 113.057367 108.322305 
L 118.380044 107.132946 
L 123.70272 106.155989 
L 129.025397 106.167338 
L 134.348074 107.358454 
L 139.67075 108.990047 
L 144.993427 109.82475 
L 150.316104 109.098984 
L 155.63878 107.099985 
L 160.961457 105.046987 
L 166.284134 104.47137 
L 171.60681 106.197947 
L 176.929487 109.317526 
L 182.252164 111.498413 
L 187.57484 110.950742 
L 192.897517 107.771369 
L 198.220194 103.765446 
L 203.54287 101.663393 
L 208.865547 103.756359 
L 214.188224 109.447918 
L 219.5109 114.416731 
L 224.833577 114.696181 
L 230.156254 109.988782 
L 235.47893 102.889188 
L 240.801607 97.687402 
L 246.124284 99.365503 
L 251.446961 109.206717 
L 256.769637 119.385672 
L 262.092314 121.456183 
L 267.414991 115.027551 
L 272.737667 104.186663 
L 278.060344 95.002535 
L 283.383021 95.976185 
L 288.705697 111.805819 
L 294.028374 128.030258 
L 299.351051 130.755844 
L 304.673727 122.443879 
L 309.996404 109.96412 
L 315.319081 101.700026 
L 320.641757 108.186254 
L 325.964434 127.361284 
L 331.287111 138.354049 
L 336.609787 136.365755 
L 341.932464 128.450838 
L 347.255141 122.663131 
L 352.577817 125.69877 
L 357.900494 135.384651 
L 363.223171 141.733389 
L 368.545847 141.918901 
L 373.868524 139.681941 
L 379.191201 139.13797 
L 384.513877 141.489036 
L 389.836554 144.612534 
L 395.159231 146.419551 
L 400.481907 146.990904 
L 405.804584 147.424968 
L 411.127261 148.329451 
L 416.449938 149.508615 
L 421.772614 150.553089 
L 427.095291 151.34864 
L 432.417968 152.021273 
L 437.740644 152.69052 
L 443.063321 153.366755 
L 448.385998 154.007662 
L 453.708674 154.591886 
L 459.031351 155.127432 
L 464.354028 155.630204 
L 469.676704 156.107276 
L 474.999381 156.558229 
L 480.322058 156.982342 
L 485.644734 157.380717 
L 490.967411 157.756066 
L 496.290088 158.111309 
L 501.612764 158.447903 
L 506.935441 158.766863 
L 512.258118 159.069436 
L 517.580794 159.357036 
L 522.903471 159.630535 
L 528.226148 159.891208 
L 533.548824 160.139798 
L 538.871501 160.377345 
L 544.194178 160.604442 
L 549.516854 160.821876 
L 554.839531 161.030318 
L 560.162208 161.230292 
L 565.484884 161.422507 
L 570.807561 161.607257 
L 576.130238 161.785192 
L 581.452915 161.956649 
L 586.775591 162.121981 
L 592.098268 162.281692 
L 597.420945 162.435963 
L 602.743621 162.585213 
L 608.066298 162.72972 
L 613.388975 162.869634 
L 618.711651 163.005337 
L 624.034328 163.137016 
L 629.357005 163.264793 
" style="fill:none;stroke:#ff0000;"/>
   </g>
   <g id="patch_8">
    <path d="M 86.603664 165.476312 
L 86.603664 87.335997 
" style="fill:none;stroke:#000000;stroke-linecap:square;stroke-linejoin:miter;"/>
   </g>
   <g id="patch_9">
    <path d="M 645.165354 165.476312 
L 645.165354 87.335997 
" style="fill:none;stroke:#000000;stroke-linecap:square;stroke-linejoin:miter;"/>
   </g>
   <g id="patch_10">
    <path d="M 86.603664 165.476312 
L 645.165354 165.476312 
" style="fill:none;stroke:#000000;stroke-linecap:square;stroke-linejoin:miter;"/>
   </g>
   <g id="patch_11">
    <path d="M 86.603664 87.335997 
L 645.165354 87.335997 
" style="fill:none;stroke:#000000;stroke-linecap:square;stroke-linejoin:miter;"/>
   </g>
  </g>
  <g id="axes_3">
   <g id="patch_12">
    <path d="M 86.603664 250.305354 
L 645.165354 250.305354 
L 645.165354 172.165039 
L 86.603664 172.165039 
z
" style="fill:#ffffff;"/>
   </g>
   <g id="matplotlib.axis_5">
    <g id="xtick_13">
     <g id="line2d_45">
      <path clip-path="url(#p399277a2d0)" d="M 102.412014 250.305354 
L 102.412014 172.165039 
" style="fill:none;stroke:#000000;stroke-linecap:square;stroke-opacity:0.1;stroke-width:0.5;"/>
     </g>
     <g id="line2d_46">
      <defs>
       <path d="M 0 0 
L 0 -2.5 
" id="m603d2a4cd8" style="stroke:#000000;stroke-width:0.5;"/>
      </defs>
      <g>
       <use style="stroke:#000000;stroke-width:0.5;" x="102.412014" xlink:href="#m603d2a4cd8" y="250.305354"/>
      </g>
     </g>
     <g id="line2d_47">
      <defs>
       <path d="M 0 0 
L 0 2.5 
" id="meada2ea5a2" style="stroke:#000000;stroke-width:0.5;"/>
      </defs>
      <g>
       <use style="stroke:#000000;stroke-width:0.5;" x="102.412014" xlink:href="#meada2ea5a2" y="172.165039"/>
      </g>
     </g>
     <g id="text_17">
      <!-- $\mathregular{0.0}$ -->
      <g transform="translate(92.812014 262.923479)scale(0.12 -0.12)">
       <use transform="translate(0 0.78125)" xlink:href="#DejaVuSans-48"/>
       <use transform="translate(63.623047 0.78125)" xlink:href="#DejaVuSans-46"/>
       <use transform="translate(95.410156 0.78125)" xlink:href="#DejaVuSans-48"/>
      </g>
     </g>
    </g>
    <g id="xtick_14">
     <g id="line2d_48">
      <path clip-path="url(#p399277a2d0)" d="M 207.801012 250.305354 
L 207.801012 172.165039 
" style="fill:none;stroke:#000000;stroke-linecap:square;stroke-opacity:0.1;stroke-width:0.5;"/>
     </g>
     <g id="line2d_49">
      <g>
       <use style="stroke:#000000;stroke-width:0.5;" x="207.801012" xlink:href="#m603d2a4cd8" y="250.305354"/>
      </g>
     </g>
     <g id="line2d_50">
      <g>
       <use style="stroke:#000000;stroke-width:0.5;" x="207.801012" xlink:href="#meada2ea5a2" y="172.165039"/>
      </g>
     </g>
     <g id="text_18">
      <!-- $\mathregular{0.1}$ -->
      <g transform="translate(198.201012 262.923479)scale(0.12 -0.12)">
       <use transform="translate(0 0.78125)" xlink:href="#DejaVuSans-48"/>
       <use transform="translate(63.623047 0.78125)" xlink:href="#DejaVuSans-46"/>
       <use transform="translate(95.410156 0.78125)" xlink:href="#DejaVuSans-49"/>
      </g>
     </g>
    </g>
    <g id="xtick_15">
     <g id="line2d_51">
      <path clip-path="url(#p399277a2d0)" d="M 313.19001 250.305354 
L 313.19001 172.165039 
" style="fill:none;stroke:#000000;stroke-linecap:square;stroke-opacity:0.1;stroke-width:0.5;"/>
     </g>
     <g id="line2d_52">
      <g>
       <use style="stroke:#000000;stroke-width:0.5;" x="313.19001" xlink:href="#m603d2a4cd8" y="250.305354"/>
      </g>
     </g>
     <g id="line2d_53">
      <g>
       <use style="stroke:#000000;stroke-width:0.5;" x="313.19001" xlink:href="#meada2ea5a2" y="172.165039"/>
      </g>
     </g>
     <g id="text_19">
      <!-- $\mathregular{0.2}$ -->
      <g transform="translate(303.95001 262.923479)scale(0.12 -0.12)">
       <use transform="translate(0 0.78125)" xlink:href="#DejaVuSans-48"/>
       <use transform="translate(63.623047 0.78125)" xlink:href="#DejaVuSans-46"/>
       <use transform="translate(89.910156 0.78125)" xlink:href="#DejaVuSans-50"/>
      </g>
     </g>
    </g>
    <g id="xtick_16">
     <g id="line2d_54">
      <path clip-path="url(#p399277a2d0)" d="M 418.579008 250.305354 
L 418.579008 172.165039 
" style="fill:none;stroke:#000000;stroke-linecap:square;stroke-opacity:0.1;stroke-width:0.5;"/>
     </g>
     <g id="line2d_55">
      <g>
       <use style="stroke:#000000;stroke-width:0.5;" x="418.579008" xlink:href="#m603d2a4cd8" y="250.305354"/>
      </g>
     </g>
     <g id="line2d_56">
      <g>
       <use style="stroke:#000000;stroke-width:0.5;" x="418.579008" xlink:href="#meada2ea5a2" y="172.165039"/>
      </g>
     </g>
     <g id="text_20">
      <!-- $\mathregular{0.3}$ -->
      <g transform="translate(408.979008 262.923479)scale(0.12 -0.12)">
       <use transform="translate(0 0.78125)" xlink:href="#DejaVuSans-48"/>
       <use transform="translate(63.623047 0.78125)" xlink:href="#DejaVuSans-46"/>
       <use transform="translate(95.410156 0.78125)" xlink:href="#DejaVuSans-51"/>
      </g>
     </g>
    </g>
    <g id="xtick_17">
     <g id="line2d_57">
      <path clip-path="url(#p399277a2d0)" d="M 523.968006 250.305354 
L 523.968006 172.165039 
" style="fill:none;stroke:#000000;stroke-linecap:square;stroke-opacity:0.1;stroke-width:0.5;"/>
     </g>
     <g id="line2d_58">
      <g>
       <use style="stroke:#000000;stroke-width:0.5;" x="523.968006" xlink:href="#m603d2a4cd8" y="250.305354"/>
      </g>
     </g>
     <g id="line2d_59">
      <g>
       <use style="stroke:#000000;stroke-width:0.5;" x="523.968006" xlink:href="#meada2ea5a2" y="172.165039"/>
      </g>
     </g>
     <g id="text_21">
      <!-- $\mathregular{0.4}$ -->
      <g transform="translate(514.368006 262.923479)scale(0.12 -0.12)">
       <use transform="translate(0 0.78125)" xlink:href="#DejaVuSans-48"/>
       <use transform="translate(63.623047 0.78125)" xlink:href="#DejaVuSans-46"/>
       <use transform="translate(95.410156 0.78125)" xlink:href="#DejaVuSans-52"/>
      </g>
     </g>
    </g>
    <g id="xtick_18">
     <g id="line2d_60">
      <path clip-path="url(#p399277a2d0)" d="M 629.357005 250.305354 
L 629.357005 172.165039 
" style="fill:none;stroke:#000000;stroke-linecap:square;stroke-opacity:0.1;stroke-width:0.5;"/>
     </g>
     <g id="line2d_61">
      <g>
       <use style="stroke:#000000;stroke-width:0.5;" x="629.357005" xlink:href="#m603d2a4cd8" y="250.305354"/>
      </g>
     </g>
     <g id="line2d_62">
      <g>
       <use style="stroke:#000000;stroke-width:0.5;" x="629.357005" xlink:href="#meada2ea5a2" y="172.165039"/>
      </g>
     </g>
     <g id="text_22">
      <!-- $\mathregular{0.5}$ -->
      <g transform="translate(619.757005 262.923479)scale(0.12 -0.12)">
       <use transform="translate(0 0.78125)" xlink:href="#DejaVuSans-48"/>
       <use transform="translate(63.623047 0.78125)" xlink:href="#DejaVuSans-46"/>
       <use transform="translate(95.410156 0.78125)" xlink:href="#DejaVuSans-53"/>
      </g>
     </g>
    </g>
    <g id="text_23">
     <!-- Time [s] -->
     <g transform="translate(333.358259 281.576604)scale(0.16 -0.16)">
      <defs>
       <path d="M -0.296875 72.90625 
L 61.375 72.90625 
L 61.375 64.59375 
L 35.5 64.59375 
L 35.5 0 
L 25.59375 0 
L 25.59375 64.59375 
L -0.296875 64.59375 
z
" id="DejaVuSans-84"/>
       <path d="M 9.421875 54.6875 
L 18.40625 54.6875 
L 18.40625 0 
L 9.421875 0 
z
M 9.421875 75.984375 
L 18.40625 75.984375 
L 18.40625 64.59375 
L 9.421875 64.59375 
z
" id="DejaVuSans-105"/>
       <path d="M 52 44.1875 
Q 55.375 50.25 60.0625 53.125 
Q 64.75 56 71.09375 56 
Q 79.640625 56 84.28125 50.015625 
Q 88.921875 44.046875 88.921875 33.015625 
L 88.921875 0 
L 79.890625 0 
L 79.890625 32.71875 
Q 79.890625 40.578125 77.09375 44.375 
Q 74.3125 48.1875 68.609375 48.1875 
Q 61.625 48.1875 57.5625 43.546875 
Q 53.515625 38.921875 53.515625 30.90625 
L 53.515625 0 
L 44.484375 0 
L 44.484375 32.71875 
Q 44.484375 40.625 41.703125 44.40625 
Q 38.921875 48.1875 33.109375 48.1875 
Q 26.21875 48.1875 22.15625 43.53125 
Q 18.109375 38.875 18.109375 30.90625 
L 18.109375 0 
L 9.078125 0 
L 9.078125 54.6875 
L 18.109375 54.6875 
L 18.109375 46.1875 
Q 21.1875 51.21875 25.484375 53.609375 
Q 29.78125 56 35.6875 56 
Q 41.65625 56 45.828125 52.96875 
Q 50 49.953125 52 44.1875 
z
" id="DejaVuSans-109"/>
       <path d="M 56.203125 29.59375 
L 56.203125 25.203125 
L 14.890625 25.203125 
Q 15.484375 15.921875 20.484375 11.0625 
Q 25.484375 6.203125 34.421875 6.203125 
Q 39.59375 6.203125 44.453125 7.46875 
Q 49.3125 8.734375 54.109375 11.28125 
L 54.109375 2.78125 
Q 49.265625 0.734375 44.1875 -0.34375 
Q 39.109375 -1.421875 33.890625 -1.421875 
Q 20.796875 -1.421875 13.15625 6.1875 
Q 5.515625 13.8125 5.515625 26.8125 
Q 5.515625 40.234375 12.765625 48.109375 
Q 20.015625 56 32.328125 56 
Q 43.359375 56 49.78125 48.890625 
Q 56.203125 41.796875 56.203125 29.59375 
z
M 47.21875 32.234375 
Q 47.125 39.59375 43.09375 43.984375 
Q 39.0625 48.390625 32.421875 48.390625 
Q 24.90625 48.390625 20.390625 44.140625 
Q 15.875 39.890625 15.1875 32.171875 
z
" id="DejaVuSans-101"/>
       <path id="DejaVuSans-32"/>
       <path d="M 8.59375 75.984375 
L 29.296875 75.984375 
L 29.296875 69 
L 17.578125 69 
L 17.578125 -6.203125 
L 29.296875 -6.203125 
L 29.296875 -13.1875 
L 8.59375 -13.1875 
z
" id="DejaVuSans-91"/>
       <path d="M 44.28125 53.078125 
L 44.28125 44.578125 
Q 40.484375 46.53125 36.375 47.5 
Q 32.28125 48.484375 27.875 48.484375 
Q 21.1875 48.484375 17.84375 46.4375 
Q 14.5 44.390625 14.5 40.28125 
Q 14.5 37.15625 16.890625 35.375 
Q 19.28125 33.59375 26.515625 31.984375 
L 29.59375 31.296875 
Q 39.15625 29.25 43.1875 25.515625 
Q 47.21875 21.78125 47.21875 15.09375 
Q 47.21875 7.46875 41.1875 3.015625 
Q 35.15625 -1.421875 24.609375 -1.421875 
Q 20.21875 -1.421875 15.453125 -0.5625 
Q 10.6875 0.296875 5.421875 2 
L 5.421875 11.28125 
Q 10.40625 8.6875 15.234375 7.390625 
Q 20.0625 6.109375 24.8125 6.109375 
Q 31.15625 6.109375 34.5625 8.28125 
Q 37.984375 10.453125 37.984375 14.40625 
Q 37.984375 18.0625 35.515625 20.015625 
Q 33.0625 21.96875 24.703125 23.78125 
L 21.578125 24.515625 
Q 13.234375 26.265625 9.515625 29.90625 
Q 5.8125 33.546875 5.8125 39.890625 
Q 5.8125 47.609375 11.28125 51.796875 
Q 16.75 56 26.8125 56 
Q 31.78125 56 36.171875 55.265625 
Q 40.578125 54.546875 44.28125 53.078125 
z
" id="DejaVuSans-115"/>
       <path d="M 30.421875 75.984375 
L 30.421875 -13.1875 
L 9.71875 -13.1875 
L 9.71875 -6.203125 
L 21.390625 -6.203125 
L 21.390625 69 
L 9.71875 69 
L 9.71875 75.984375 
z
" id="DejaVuSans-93"/>
      </defs>
      <use xlink:href="#DejaVuSans-84"/>
      <use x="57.958984" xlink:href="#DejaVuSans-105"/>
      <use x="85.742188" xlink:href="#DejaVuSans-109"/>
      <use x="183.154297" xlink:href="#DejaVuSans-101"/>
      <use x="244.677734" xlink:href="#DejaVuSans-32"/>
      <use x="276.464844" xlink:href="#DejaVuSans-91"/>
      <use x="315.478516" xlink:href="#DejaVuSans-115"/>
      <use x="367.578125" xlink:href="#DejaVuSans-93"/>
     </g>
    </g>
   </g>
   <g id="matplotlib.axis_6">
    <g id="ytick_15">
     <g id="line2d_63">
      <path clip-path="url(#p399277a2d0)" d="M 86.603664 235.801006 
L 645.165354 235.801006 
" style="fill:none;stroke:#000000;stroke-linecap:square;stroke-opacity:0.1;stroke-width:0.5;"/>
     </g>
     <g id="line2d_64">
      <g>
       <use style="stroke:#000000;stroke-width:0.5;" x="86.603664" xlink:href="#md6bdf36d08" y="235.801006"/>
      </g>
     </g>
     <g id="line2d_65">
      <g>
       <use style="stroke:#000000;stroke-width:0.5;" x="645.165354" xlink:href="#m966219c65f" y="235.801006"/>
      </g>
     </g>
     <g id="text_24">
      <!-- $\mathregular{1267.5}$ -->
      <g transform="translate(41.103664 240.360068)scale(0.12 -0.12)">
       <defs>
        <path d="M 33.015625 40.375 
Q 26.375 40.375 22.484375 35.828125 
Q 18.609375 31.296875 18.609375 23.390625 
Q 18.609375 15.53125 22.484375 10.953125 
Q 26.375 6.390625 33.015625 6.390625 
Q 39.65625 6.390625 43.53125 10.953125 
Q 47.40625 15.53125 47.40625 23.390625 
Q 47.40625 31.296875 43.53125 35.828125 
Q 39.65625 40.375 33.015625 40.375 
z
M 52.59375 71.296875 
L 52.59375 62.3125 
Q 48.875 64.0625 45.09375 64.984375 
Q 41.3125 65.921875 37.59375 65.921875 
Q 27.828125 65.921875 22.671875 59.328125 
Q 17.53125 52.734375 16.796875 39.40625 
Q 19.671875 43.65625 24.015625 45.921875 
Q 28.375 48.1875 33.59375 48.1875 
Q 44.578125 48.1875 50.953125 41.515625 
Q 57.328125 34.859375 57.328125 23.390625 
Q 57.328125 12.15625 50.6875 5.359375 
Q 44.046875 -1.421875 33.015625 -1.421875 
Q 20.359375 -1.421875 13.671875 8.265625 
Q 6.984375 17.96875 6.984375 36.375 
Q 6.984375 53.65625 15.1875 63.9375 
Q 23.390625 74.21875 37.203125 74.21875 
Q 40.921875 74.21875 44.703125 73.484375 
Q 48.484375 72.75 52.59375 71.296875 
z
" id="DejaVuSans-54"/>
        <path d="M 8.203125 72.90625 
L 55.078125 72.90625 
L 55.078125 68.703125 
L 28.609375 0 
L 18.3125 0 
L 43.21875 64.59375 
L 8.203125 64.59375 
z
" id="DejaVuSans-55"/>
       </defs>
       <use transform="translate(0 0.78125)" xlink:href="#DejaVuSans-49"/>
       <use transform="translate(63.623047 0.78125)" xlink:href="#DejaVuSans-50"/>
       <use transform="translate(127.246094 0.78125)" xlink:href="#DejaVuSans-54"/>
       <use transform="translate(190.869141 0.78125)" xlink:href="#DejaVuSans-55"/>
       <use transform="translate(254.492188 0.78125)" xlink:href="#DejaVuSans-46"/>
       <use transform="translate(286.279297 0.78125)" xlink:href="#DejaVuSans-53"/>
      </g>
     </g>
    </g>
    <g id="ytick_16">
     <g id="line2d_66">
      <path clip-path="url(#p399277a2d0)" d="M 86.603664 218.829226 
L 645.165354 218.829226 
" style="fill:none;stroke:#000000;stroke-linecap:square;stroke-opacity:0.1;stroke-width:0.5;"/>
     </g>
     <g id="line2d_67">
      <g>
       <use style="stroke:#000000;stroke-width:0.5;" x="86.603664" xlink:href="#md6bdf36d08" y="218.829226"/>
      </g>
     </g>
     <g id="line2d_68">
      <g>
       <use style="stroke:#000000;stroke-width:0.5;" x="645.165354" xlink:href="#m966219c65f" y="218.829226"/>
      </g>
     </g>
     <g id="text_25">
      <!-- $\mathregular{1270.0}$ -->
      <g transform="translate(41.103664 223.388288)scale(0.12 -0.12)">
       <use transform="translate(0 0.78125)" xlink:href="#DejaVuSans-49"/>
       <use transform="translate(63.623047 0.78125)" xlink:href="#DejaVuSans-50"/>
       <use transform="translate(127.246094 0.78125)" xlink:href="#DejaVuSans-55"/>
       <use transform="translate(190.869141 0.78125)" xlink:href="#DejaVuSans-48"/>
       <use transform="translate(254.492188 0.78125)" xlink:href="#DejaVuSans-46"/>
       <use transform="translate(286.279297 0.78125)" xlink:href="#DejaVuSans-48"/>
      </g>
     </g>
    </g>
    <g id="ytick_17">
     <g id="line2d_69">
      <path clip-path="url(#p399277a2d0)" d="M 86.603664 201.857445 
L 645.165354 201.857445 
" style="fill:none;stroke:#000000;stroke-linecap:square;stroke-opacity:0.1;stroke-width:0.5;"/>
     </g>
     <g id="line2d_70">
      <g>
       <use style="stroke:#000000;stroke-width:0.5;" x="86.603664" xlink:href="#md6bdf36d08" y="201.857445"/>
      </g>
     </g>
     <g id="line2d_71">
      <g>
       <use style="stroke:#000000;stroke-width:0.5;" x="645.165354" xlink:href="#m966219c65f" y="201.857445"/>
      </g>
     </g>
     <g id="text_26">
      <!-- $\mathregular{1272.5}$ -->
      <g transform="translate(41.103664 206.416508)scale(0.12 -0.12)">
       <use transform="translate(0 0.78125)" xlink:href="#DejaVuSans-49"/>
       <use transform="translate(63.623047 0.78125)" xlink:href="#DejaVuSans-50"/>
       <use transform="translate(127.246094 0.78125)" xlink:href="#DejaVuSans-55"/>
       <use transform="translate(190.869141 0.78125)" xlink:href="#DejaVuSans-50"/>
       <use transform="translate(254.492188 0.78125)" xlink:href="#DejaVuSans-46"/>
       <use transform="translate(286.279297 0.78125)" xlink:href="#DejaVuSans-53"/>
      </g>
     </g>
    </g>
    <g id="ytick_18">
     <g id="line2d_72">
      <path clip-path="url(#p399277a2d0)" d="M 86.603664 184.885665 
L 645.165354 184.885665 
" style="fill:none;stroke:#000000;stroke-linecap:square;stroke-opacity:0.1;stroke-width:0.5;"/>
     </g>
     <g id="line2d_73">
      <g>
       <use style="stroke:#000000;stroke-width:0.5;" x="86.603664" xlink:href="#md6bdf36d08" y="184.885665"/>
      </g>
     </g>
     <g id="line2d_74">
      <g>
       <use style="stroke:#000000;stroke-width:0.5;" x="645.165354" xlink:href="#m966219c65f" y="184.885665"/>
      </g>
     </g>
     <g id="text_27">
      <!-- $\mathregular{1275.0}$ -->
      <g transform="translate(41.103664 189.444728)scale(0.12 -0.12)">
       <use transform="translate(0 0.78125)" xlink:href="#DejaVuSans-49"/>
       <use transform="translate(63.623047 0.78125)" xlink:href="#DejaVuSans-50"/>
       <use transform="translate(127.246094 0.78125)" xlink:href="#DejaVuSans-55"/>
       <use transform="translate(190.869141 0.78125)" xlink:href="#DejaVuSans-53"/>
       <use transform="translate(254.492188 0.78125)" xlink:href="#DejaVuSans-46"/>
       <use transform="translate(286.279297 0.78125)" xlink:href="#DejaVuSans-48"/>
      </g>
     </g>
    </g>
    <g id="text_28">
     <!-- T [K] -->
     <g transform="translate(33.776164 230.152697)rotate(-90)scale(0.16 -0.16)">
      <defs>
       <path d="M 9.8125 72.90625 
L 19.671875 72.90625 
L 19.671875 42.09375 
L 52.390625 72.90625 
L 65.09375 72.90625 
L 28.90625 38.921875 
L 67.671875 0 
L 54.6875 0 
L 19.671875 35.109375 
L 19.671875 0 
L 9.8125 0 
z
" id="DejaVuSans-75"/>
      </defs>
      <use xlink:href="#DejaVuSans-84"/>
      <use x="61.083984" xlink:href="#DejaVuSans-32"/>
      <use x="92.871094" xlink:href="#DejaVuSans-91"/>
      <use x="131.884766" xlink:href="#DejaVuSans-75"/>
      <use x="197.460938" xlink:href="#DejaVuSans-93"/>
     </g>
    </g>
   </g>
   <g id="PathCollection_3">
    <g clip-path="url(#p399277a2d0)">
     <use x="102.412014" xlink:href="#m575e51f8a8" y="236.842795"/>
     <use x="107.73469" xlink:href="#m575e51f8a8" y="237.53974"/>
     <use x="113.057367" xlink:href="#m575e51f8a8" y="237.663981"/>
     <use x="118.380044" xlink:href="#m575e51f8a8" y="238.268676"/>
     <use x="123.70272" xlink:href="#m575e51f8a8" y="238.715772"/>
     <use x="129.025397" xlink:href="#m575e51f8a8" y="238.098299"/>
     <use x="134.348074" xlink:href="#m575e51f8a8" y="238.241035"/>
     <use x="139.67075" xlink:href="#m575e51f8a8" y="237.109954"/>
     <use x="144.993427" xlink:href="#m575e51f8a8" y="236.408652"/>
     <use x="150.316104" xlink:href="#m575e51f8a8" y="237.160545"/>
     <use x="155.63878" xlink:href="#m575e51f8a8" y="239.177486"/>
     <use x="160.961457" xlink:href="#m575e51f8a8" y="239.476474"/>
     <use x="166.284134" xlink:href="#m575e51f8a8" y="239.012635"/>
     <use x="171.60681" xlink:href="#m575e51f8a8" y="238.671365"/>
     <use x="176.929487" xlink:href="#m575e51f8a8" y="236.644534"/>
     <use x="182.252164" xlink:href="#m575e51f8a8" y="236.202634"/>
     <use x="187.57484" xlink:href="#m575e51f8a8" y="236.779962"/>
     <use x="192.897517" xlink:href="#m575e51f8a8" y="238.993278"/>
     <use x="198.220194" xlink:href="#m575e51f8a8" y="240.819361"/>
     <use x="203.54287" xlink:href="#m575e51f8a8" y="241.322673"/>
     <use x="208.865547" xlink:href="#m575e51f8a8" y="239.684091"/>
     <use x="214.188224" xlink:href="#m575e51f8a8" y="236.742767"/>
     <use x="219.5109" xlink:href="#m575e51f8a8" y="234.937997"/>
     <use x="224.833577" xlink:href="#m575e51f8a8" y="235.909948"/>
     <use x="230.156254" xlink:href="#m575e51f8a8" y="239.451573"/>
     <use x="235.47893" xlink:href="#m575e51f8a8" y="244.031222"/>
     <use x="240.801607" xlink:href="#m575e51f8a8" y="245.661088"/>
     <use x="246.124284" xlink:href="#m575e51f8a8" y="242.681141"/>
     <use x="251.446961" xlink:href="#m575e51f8a8" y="236.885744"/>
     <use x="256.769637" xlink:href="#m575e51f8a8" y="233.168352"/>
     <use x="262.092314" xlink:href="#m575e51f8a8" y="233.59327"/>
     <use x="267.414991" xlink:href="#m575e51f8a8" y="238.605533"/>
     <use x="272.737667" xlink:href="#m575e51f8a8" y="244.810311"/>
     <use x="278.060344" xlink:href="#m575e51f8a8" y="248.093836"/>
     <use x="283.383021" xlink:href="#m575e51f8a8" y="243.609767"/>
     <use x="288.705697" xlink:href="#m575e51f8a8" y="232.329891"/>
     <use x="294.028374" xlink:href="#m575e51f8a8" y="225.751865"/>
     <use x="299.351051" xlink:href="#m575e51f8a8" y="227.106122"/>
     <use x="304.673727" xlink:href="#m575e51f8a8" y="232.915682"/>
     <use x="309.996404" xlink:href="#m575e51f8a8" y="239.661212"/>
     <use x="315.319081" xlink:href="#m575e51f8a8" y="239.619342"/>
     <use x="320.641757" xlink:href="#m575e51f8a8" y="233.109075"/>
     <use x="325.964434" xlink:href="#m575e51f8a8" y="224.564285"/>
     <use x="331.287111" xlink:href="#m575e51f8a8" y="222.734377"/>
     <use x="336.609787" xlink:href="#m575e51f8a8" y="225.563432"/>
     <use x="341.932464" xlink:href="#m575e51f8a8" y="227.98925"/>
     <use x="347.255141" xlink:href="#m575e51f8a8" y="229.177732"/>
     <use x="352.577817" xlink:href="#m575e51f8a8" y="225.904828"/>
     <use x="357.900494" xlink:href="#m575e51f8a8" y="221.44938"/>
     <use x="363.223171" xlink:href="#m575e51f8a8" y="219.470159"/>
     <use x="368.545847" xlink:href="#m575e51f8a8" y="219.302745"/>
     <use x="373.868524" xlink:href="#m575e51f8a8" y="219.921027"/>
     <use x="379.191201" xlink:href="#m575e51f8a8" y="220.060496"/>
     <use x="384.513877" xlink:href="#m575e51f8a8" y="217.706291"/>
     <use x="389.836554" xlink:href="#m575e51f8a8" y="215.699383"/>
     <use x="395.159231" xlink:href="#m575e51f8a8" y="214.599774"/>
     <use x="400.481907" xlink:href="#m575e51f8a8" y="213.400435"/>
     <use x="405.804584" xlink:href="#m575e51f8a8" y="213.44758"/>
     <use x="411.127261" xlink:href="#m575e51f8a8" y="212.139564"/>
     <use x="416.449938" xlink:href="#m575e51f8a8" y="209.845318"/>
     <use x="421.772614" xlink:href="#m575e51f8a8" y="208.996586"/>
     <use x="427.095291" xlink:href="#m575e51f8a8" y="208.103434"/>
     <use x="432.417968" xlink:href="#m575e51f8a8" y="206.253363"/>
     <use x="437.740644" xlink:href="#m575e51f8a8" y="205.696263"/>
     <use x="443.063321" xlink:href="#m575e51f8a8" y="204.184728"/>
     <use x="448.385998" xlink:href="#m575e51f8a8" y="202.717345"/>
     <use x="453.708674" xlink:href="#m575e51f8a8" y="201.856172"/>
     <use x="459.031351" xlink:href="#m575e51f8a8" y="201.078887"/>
     <use x="464.354028" xlink:href="#m575e51f8a8" y="199.302777"/>
     <use x="469.676704" xlink:href="#m575e51f8a8" y="197.740545"/>
     <use x="474.999381" xlink:href="#m575e51f8a8" y="196.929687"/>
     <use x="480.322058" xlink:href="#m575e51f8a8" y="194.932761"/>
     <use x="485.644734" xlink:href="#m575e51f8a8" y="194.779574"/>
     <use x="490.967411" xlink:href="#m575e51f8a8" y="193.248968"/>
     <use x="496.290088" xlink:href="#m575e51f8a8" y="192.26283"/>
     <use x="501.612764" xlink:href="#m575e51f8a8" y="191.523367"/>
     <use x="506.935441" xlink:href="#m575e51f8a8" y="190.026465"/>
     <use x="512.258118" xlink:href="#m575e51f8a8" y="189.111161"/>
     <use x="517.580794" xlink:href="#m575e51f8a8" y="188.991816"/>
     <use x="522.903471" xlink:href="#m575e51f8a8" y="188.434041"/>
     <use x="528.226148" xlink:href="#m575e51f8a8" y="186.560239"/>
     <use x="533.548824" xlink:href="#m575e51f8a8" y="185.780165"/>
     <use x="538.871501" xlink:href="#m575e51f8a8" y="185.42433"/>
     <use x="544.194178" xlink:href="#m575e51f8a8" y="185.419498"/>
     <use x="549.516854" xlink:href="#m575e51f8a8" y="183.439458"/>
     <use x="554.839531" xlink:href="#m575e51f8a8" y="183.785586"/>
     <use x="560.162208" xlink:href="#m575e51f8a8" y="182.401845"/>
     <use x="565.484884" xlink:href="#m575e51f8a8" y="182.134326"/>
     <use x="570.807561" xlink:href="#m575e51f8a8" y="181.336624"/>
     <use x="576.130238" xlink:href="#m575e51f8a8" y="180.317744"/>
     <use x="581.452915" xlink:href="#m575e51f8a8" y="179.285683"/>
     <use x="586.775591" xlink:href="#m575e51f8a8" y="179.124646"/>
     <use x="592.098268" xlink:href="#m575e51f8a8" y="178.5349"/>
     <use x="597.420945" xlink:href="#m575e51f8a8" y="178.193513"/>
     <use x="602.743621" xlink:href="#m575e51f8a8" y="177.176178"/>
     <use x="608.066298" xlink:href="#m575e51f8a8" y="176.959677"/>
     <use x="613.388975" xlink:href="#m575e51f8a8" y="177.003687"/>
     <use x="618.711651" xlink:href="#m575e51f8a8" y="175.990492"/>
     <use x="624.034328" xlink:href="#m575e51f8a8" y="175.324043"/>
     <use x="629.357005" xlink:href="#m575e51f8a8" y="174.945427"/>
    </g>
   </g>
   <g id="line2d_75">
    <path clip-path="url(#p399277a2d0)" d="M 102.412014 236.72309 
L 107.73469 236.846397 
L 113.057367 237.328409 
L 118.380044 237.929208 
L 123.70272 238.271981 
L 129.025397 238.097155 
L 134.348074 237.49314 
L 139.67075 236.91242 
L 144.993427 236.865035 
L 150.316104 237.521103 
L 155.63878 238.557859 
L 160.961457 239.315626 
L 166.284134 239.194982 
L 171.60681 238.138916 
L 176.929487 236.854739 
L 182.252164 236.366968 
L 187.57484 237.192197 
L 192.897517 238.953505 
L 198.220194 240.568368 
L 203.54287 240.804148 
L 208.865547 239.142122 
L 214.188224 236.566998 
L 219.5109 235.087029 
L 224.833577 235.955118 
L 230.156254 238.786275 
L 235.47893 241.915203 
L 240.801607 243.104199 
L 246.124284 240.769593 
L 251.446961 235.987248 
L 256.769637 232.60687 
L 262.092314 233.23921 
L 267.414991 237.338533 
L 272.737667 242.384192 
L 278.060344 244.83606 
L 283.383021 241.57804 
L 288.705697 233.824415 
L 294.028374 228.450519 
L 299.351051 229.112168 
L 304.673727 234.003965 
L 309.996404 239.287933 
L 315.319081 240.443262 
L 320.641757 234.790675 
L 325.964434 226.811417 
L 331.287111 223.627774 
L 336.609787 225.42457 
L 341.932464 228.680156 
L 347.255141 229.632008 
L 352.577817 226.580471 
L 357.900494 222.074403 
L 363.223171 219.670482 
L 368.545847 219.545845 
L 373.868524 219.840199 
L 379.191201 219.043525 
L 384.513877 217.165282 
L 389.836554 215.254342 
L 395.159231 213.938862 
L 400.481907 212.999013 
L 405.804584 211.987724 
L 411.127261 210.754995 
L 416.449938 209.439355 
L 421.772614 208.191314 
L 427.095291 207.0257 
L 432.417968 205.885022 
L 437.740644 204.733505 
L 443.063321 203.577831 
L 448.385998 202.437534 
L 453.708674 201.319704 
L 459.031351 200.22114 
L 464.354028 199.137628 
L 469.676704 198.068822 
L 474.999381 197.016522 
L 480.322058 195.982084 
L 485.644734 194.965982 
L 490.967411 193.96804 
L 496.290088 192.988222 
L 501.612764 192.02671 
L 506.935441 191.083737 
L 512.258118 190.159469 
L 517.580794 189.253931 
L 522.903471 188.367126 
L 528.226148 187.499021 
L 533.548824 186.649584 
L 538.871501 185.818726 
L 544.194178 185.006378 
L 549.516854 184.212404 
L 554.839531 183.43666 
L 560.162208 182.679002 
L 565.484884 181.939204 
L 570.807561 181.217153 
L 576.130238 180.512558 
L 581.452915 179.825249 
L 586.775591 179.155017 
L 592.098268 178.501539 
L 597.420945 177.864676 
L 602.743621 177.244084 
L 608.066298 176.63951 
L 613.388975 176.0508 
L 618.711651 175.477544 
L 624.034328 174.919515 
L 629.357005 174.376558 
" style="fill:none;stroke:#ff0000;"/>
   </g>
   <g id="patch_13">
    <path d="M 86.603664 250.305354 
L 86.603664 172.165039 
" style="fill:none;stroke:#000000;stroke-linecap:square;stroke-linejoin:miter;"/>
   </g>
   <g id="patch_14">
    <path d="M 645.165354 250.305354 
L 645.165354 172.165039 
" style="fill:none;stroke:#000000;stroke-linecap:square;stroke-linejoin:miter;"/>
   </g>
   <g id="patch_15">
    <path d="M 86.603664 250.305354 
L 645.165354 250.305354 
" style="fill:none;stroke:#000000;stroke-linecap:square;stroke-linejoin:miter;"/>
   </g>
   <g id="patch_16">
    <path d="M 86.603664 172.165039 
L 645.165354 172.165039 
" style="fill:none;stroke:#000000;stroke-linecap:square;stroke-linejoin:miter;"/>
   </g>
  </g>
 </g>
 <defs>
  <clipPath id="pfc98d8e758">
   <rect height="78.140315" width="558.56169" x="86.603664" y="2.834646"/>
  </clipPath>
  <clipPath id="p32f2ab04a1">
   <rect height="78.140315" width="558.56169" x="86.603664" y="87.335997"/>
  </clipPath>
  <clipPath id="p399277a2d0">
   <rect height="78.140315" width="558.56169" x="86.603664" y="172.165039"/>
  </clipPath>
 </defs>
</svg>
