<?xml version="1.0" encoding="utf-8" standalone="no"?>
<!DOCTYPE svg PUBLIC "-//W3C//DTD SVG 1.1//EN"
  "http://www.w3.org/Graphics/SVG/1.1/DTD/svg11.dtd">
<!-- Created with matplotlib (https://matplotlib.org/) -->
<svg height="288pt" version="1.1" viewBox="0 0 648 288" width="648pt" xmlns="http://www.w3.org/2000/svg" xmlns:xlink="http://www.w3.org/1999/xlink">
 <metadata>
  <rdf:RDF xmlns:cc="http://creativecommons.org/ns#" xmlns:dc="http://purl.org/dc/elements/1.1/" xmlns:rdf="http://www.w3.org/1999/02/22-rdf-syntax-ns#">
   <cc:Work>
    <dc:type rdf:resource="http://purl.org/dc/dcmitype/StillImage"/>
    <dc:date>2021-04-26T15:00:03.176507</dc:date>
    <dc:format>image/svg+xml</dc:format>
    <dc:creator>
     <cc:Agent>
      <dc:title>Matplotlib v3.3.2, https://matplotlib.org/</dc:title>
     </cc:Agent>
    </dc:creator>
   </cc:Work>
  </rdf:RDF>
 </metadata>
 <defs>
  <style type="text/css">*{stroke-linecap:butt;stroke-linejoin:round;}</style>
 </defs>
 <g id="figure_1">
  <g id="patch_1">
   <path d="M 0 288 
L 648 288 
L 648 0 
L 0 0 
z
" style="fill:#ffffff;"/>
  </g>
  <g id="axes_1">
   <g id="patch_2">
    <path d="M 75.183068 81.545354 
L 645.165354 81.545354 
L 645.165354 2.834646 
L 75.183068 2.834646 
z
" style="fill:#ffffff;"/>
   </g>
   <g id="matplotlib.axis_1">
    <g id="xtick_1"/>
    <g id="xtick_2"/>
    <g id="xtick_3"/>
    <g id="xtick_4"/>
    <g id="xtick_5"/>
    <g id="xtick_6"/>
   </g>
   <g id="matplotlib.axis_2">
    <g id="ytick_1">
     <g id="line2d_1">
      <path clip-path="url(#pf6a62e2173)" d="M 75.183068 72.095344 
L 645.165354 72.095344 
" style="fill:none;stroke:#000000;stroke-linecap:square;stroke-opacity:0.1;stroke-width:0.5;"/>
     </g>
     <g id="line2d_2">
      <defs>
       <path d="M 0 0 
L 2.5 0 
" id="m4a89d8653d" style="stroke:#000000;stroke-width:0.5;"/>
      </defs>
      <g>
       <use style="stroke:#000000;stroke-width:0.5;" x="75.183068" xlink:href="#m4a89d8653d" y="72.095344"/>
      </g>
     </g>
     <g id="line2d_3">
      <defs>
       <path d="M 0 0 
L -2.5 0 
" id="mc63839ee49" style="stroke:#000000;stroke-width:0.5;"/>
      </defs>
      <g>
       <use style="stroke:#000000;stroke-width:0.5;" x="645.165354" xlink:href="#mc63839ee49" y="72.095344"/>
      </g>
     </g>
     <g id="text_1">
      <!-- $\mathregular{3×10^{-5}}$ -->
      <g transform="translate(25.843068 76.654407)scale(0.12 -0.12)">
       <defs>
        <path d="M 40.578125 39.3125 
Q 47.65625 37.796875 51.625 33 
Q 55.609375 28.21875 55.609375 21.1875 
Q 55.609375 10.40625 48.1875 4.484375 
Q 40.765625 -1.421875 27.09375 -1.421875 
Q 22.515625 -1.421875 17.65625 -0.515625 
Q 12.796875 0.390625 7.625 2.203125 
L 7.625 11.71875 
Q 11.71875 9.328125 16.59375 8.109375 
Q 21.484375 6.890625 26.8125 6.890625 
Q 36.078125 6.890625 40.9375 10.546875 
Q 45.796875 14.203125 45.796875 21.1875 
Q 45.796875 27.640625 41.28125 31.265625 
Q 36.765625 34.90625 28.71875 34.90625 
L 20.21875 34.90625 
L 20.21875 43.015625 
L 29.109375 43.015625 
Q 36.375 43.015625 40.234375 45.921875 
Q 44.09375 48.828125 44.09375 54.296875 
Q 44.09375 59.90625 40.109375 62.90625 
Q 36.140625 65.921875 28.71875 65.921875 
Q 24.65625 65.921875 20.015625 65.03125 
Q 15.375 64.15625 9.8125 62.3125 
L 9.8125 71.09375 
Q 15.4375 72.65625 20.34375 73.4375 
Q 25.25 74.21875 29.59375 74.21875 
Q 40.828125 74.21875 47.359375 69.109375 
Q 53.90625 64.015625 53.90625 55.328125 
Q 53.90625 49.265625 50.4375 45.09375 
Q 46.96875 40.921875 40.578125 39.3125 
z
" id="DejaVuSans-51"/>
        <path d="M 70.125 53.71875 
L 47.796875 31.296875 
L 70.125 8.984375 
L 64.3125 3.078125 
L 41.890625 25.484375 
L 19.484375 3.078125 
L 13.71875 8.984375 
L 35.984375 31.296875 
L 13.71875 53.71875 
L 19.484375 59.625 
L 41.890625 37.203125 
L 64.3125 59.625 
z
" id="DejaVuSans-215"/>
        <path d="M 12.40625 8.296875 
L 28.515625 8.296875 
L 28.515625 63.921875 
L 10.984375 60.40625 
L 10.984375 69.390625 
L 28.421875 72.90625 
L 38.28125 72.90625 
L 38.28125 8.296875 
L 54.390625 8.296875 
L 54.390625 0 
L 12.40625 0 
z
" id="DejaVuSans-49"/>
        <path d="M 31.78125 66.40625 
Q 24.171875 66.40625 20.328125 58.90625 
Q 16.5 51.421875 16.5 36.375 
Q 16.5 21.390625 20.328125 13.890625 
Q 24.171875 6.390625 31.78125 6.390625 
Q 39.453125 6.390625 43.28125 13.890625 
Q 47.125 21.390625 47.125 36.375 
Q 47.125 51.421875 43.28125 58.90625 
Q 39.453125 66.40625 31.78125 66.40625 
z
M 31.78125 74.21875 
Q 44.046875 74.21875 50.515625 64.515625 
Q 56.984375 54.828125 56.984375 36.375 
Q 56.984375 17.96875 50.515625 8.265625 
Q 44.046875 -1.421875 31.78125 -1.421875 
Q 19.53125 -1.421875 13.0625 8.265625 
Q 6.59375 17.96875 6.59375 36.375 
Q 6.59375 54.828125 13.0625 64.515625 
Q 19.53125 74.21875 31.78125 74.21875 
z
" id="DejaVuSans-48"/>
        <path d="M 10.59375 35.5 
L 73.1875 35.5 
L 73.1875 27.203125 
L 10.59375 27.203125 
z
" id="DejaVuSans-8722"/>
        <path d="M 10.796875 72.90625 
L 49.515625 72.90625 
L 49.515625 64.59375 
L 19.828125 64.59375 
L 19.828125 46.734375 
Q 21.96875 47.46875 24.109375 47.828125 
Q 26.265625 48.1875 28.421875 48.1875 
Q 40.625 48.1875 47.75 41.5 
Q 54.890625 34.8125 54.890625 23.390625 
Q 54.890625 11.625 47.5625 5.09375 
Q 40.234375 -1.421875 26.90625 -1.421875 
Q 22.3125 -1.421875 17.546875 -0.640625 
Q 12.796875 0.140625 7.71875 1.703125 
L 7.71875 11.625 
Q 12.109375 9.234375 16.796875 8.0625 
Q 21.484375 6.890625 26.703125 6.890625 
Q 35.15625 6.890625 40.078125 11.328125 
Q 45.015625 15.765625 45.015625 23.390625 
Q 45.015625 31 40.078125 35.4375 
Q 35.15625 39.890625 26.703125 39.890625 
Q 22.75 39.890625 18.8125 39.015625 
Q 14.890625 38.140625 10.796875 36.28125 
z
" id="DejaVuSans-53"/>
       </defs>
       <use transform="translate(0 0.684375)" xlink:href="#DejaVuSans-51"/>
       <use transform="translate(63.623047 0.684375)" xlink:href="#DejaVuSans-215"/>
       <use transform="translate(147.412109 0.684375)" xlink:href="#DejaVuSans-49"/>
       <use transform="translate(211.035156 0.684375)" xlink:href="#DejaVuSans-48"/>
       <use transform="translate(275.615234 38.965625)scale(0.7)" xlink:href="#DejaVuSans-8722"/>
       <use transform="translate(334.267578 38.965625)scale(0.7)" xlink:href="#DejaVuSans-53"/>
      </g>
     </g>
    </g>
    <g id="ytick_2">
     <g id="line2d_4">
      <path clip-path="url(#pf6a62e2173)" d="M 75.183068 61.391085 
L 645.165354 61.391085 
" style="fill:none;stroke:#000000;stroke-linecap:square;stroke-opacity:0.1;stroke-width:0.5;"/>
     </g>
     <g id="line2d_5">
      <g>
       <use style="stroke:#000000;stroke-width:0.5;" x="75.183068" xlink:href="#m4a89d8653d" y="61.391085"/>
      </g>
     </g>
     <g id="line2d_6">
      <g>
       <use style="stroke:#000000;stroke-width:0.5;" x="645.165354" xlink:href="#mc63839ee49" y="61.391085"/>
      </g>
     </g>
     <g id="text_2">
      <!-- $\mathregular{4×10^{-5}}$ -->
      <g transform="translate(25.843068 65.950148)scale(0.12 -0.12)">
       <defs>
        <path d="M 37.796875 64.3125 
L 12.890625 25.390625 
L 37.796875 25.390625 
z
M 35.203125 72.90625 
L 47.609375 72.90625 
L 47.609375 25.390625 
L 58.015625 25.390625 
L 58.015625 17.1875 
L 47.609375 17.1875 
L 47.609375 0 
L 37.796875 0 
L 37.796875 17.1875 
L 4.890625 17.1875 
L 4.890625 26.703125 
z
" id="DejaVuSans-52"/>
       </defs>
       <use transform="translate(0 0.684375)" xlink:href="#DejaVuSans-52"/>
       <use transform="translate(63.623047 0.684375)" xlink:href="#DejaVuSans-215"/>
       <use transform="translate(147.412109 0.684375)" xlink:href="#DejaVuSans-49"/>
       <use transform="translate(211.035156 0.684375)" xlink:href="#DejaVuSans-48"/>
       <use transform="translate(275.615234 38.965625)scale(0.7)" xlink:href="#DejaVuSans-8722"/>
       <use transform="translate(334.267578 38.965625)scale(0.7)" xlink:href="#DejaVuSans-53"/>
      </g>
     </g>
    </g>
    <g id="ytick_3">
     <g id="line2d_7">
      <path clip-path="url(#pf6a62e2173)" d="M 75.183068 50.686826 
L 645.165354 50.686826 
" style="fill:none;stroke:#000000;stroke-linecap:square;stroke-opacity:0.1;stroke-width:0.5;"/>
     </g>
     <g id="line2d_8">
      <g>
       <use style="stroke:#000000;stroke-width:0.5;" x="75.183068" xlink:href="#m4a89d8653d" y="50.686826"/>
      </g>
     </g>
     <g id="line2d_9">
      <g>
       <use style="stroke:#000000;stroke-width:0.5;" x="645.165354" xlink:href="#mc63839ee49" y="50.686826"/>
      </g>
     </g>
     <g id="text_3">
      <!-- $\mathregular{5×10^{-5}}$ -->
      <g transform="translate(25.843068 55.245888)scale(0.12 -0.12)">
       <use transform="translate(0 0.684375)" xlink:href="#DejaVuSans-53"/>
       <use transform="translate(63.623047 0.684375)" xlink:href="#DejaVuSans-215"/>
       <use transform="translate(147.412109 0.684375)" xlink:href="#DejaVuSans-49"/>
       <use transform="translate(211.035156 0.684375)" xlink:href="#DejaVuSans-48"/>
       <use transform="translate(275.615234 38.965625)scale(0.7)" xlink:href="#DejaVuSans-8722"/>
       <use transform="translate(334.267578 38.965625)scale(0.7)" xlink:href="#DejaVuSans-53"/>
      </g>
     </g>
    </g>
    <g id="ytick_4">
     <g id="line2d_10">
      <path clip-path="url(#pf6a62e2173)" d="M 75.183068 39.982566 
L 645.165354 39.982566 
" style="fill:none;stroke:#000000;stroke-linecap:square;stroke-opacity:0.1;stroke-width:0.5;"/>
     </g>
     <g id="line2d_11">
      <g>
       <use style="stroke:#000000;stroke-width:0.5;" x="75.183068" xlink:href="#m4a89d8653d" y="39.982566"/>
      </g>
     </g>
     <g id="line2d_12">
      <g>
       <use style="stroke:#000000;stroke-width:0.5;" x="645.165354" xlink:href="#mc63839ee49" y="39.982566"/>
      </g>
     </g>
     <g id="text_4">
      <!-- $\mathregular{6×10^{-5}}$ -->
      <g transform="translate(25.843068 44.541629)scale(0.12 -0.12)">
       <defs>
        <path d="M 33.015625 40.375 
Q 26.375 40.375 22.484375 35.828125 
Q 18.609375 31.296875 18.609375 23.390625 
Q 18.609375 15.53125 22.484375 10.953125 
Q 26.375 6.390625 33.015625 6.390625 
Q 39.65625 6.390625 43.53125 10.953125 
Q 47.40625 15.53125 47.40625 23.390625 
Q 47.40625 31.296875 43.53125 35.828125 
Q 39.65625 40.375 33.015625 40.375 
z
M 52.59375 71.296875 
L 52.59375 62.3125 
Q 48.875 64.0625 45.09375 64.984375 
Q 41.3125 65.921875 37.59375 65.921875 
Q 27.828125 65.921875 22.671875 59.328125 
Q 17.53125 52.734375 16.796875 39.40625 
Q 19.671875 43.65625 24.015625 45.921875 
Q 28.375 48.1875 33.59375 48.1875 
Q 44.578125 48.1875 50.953125 41.515625 
Q 57.328125 34.859375 57.328125 23.390625 
Q 57.328125 12.15625 50.6875 5.359375 
Q 44.046875 -1.421875 33.015625 -1.421875 
Q 20.359375 -1.421875 13.671875 8.265625 
Q 6.984375 17.96875 6.984375 36.375 
Q 6.984375 53.65625 15.1875 63.9375 
Q 23.390625 74.21875 37.203125 74.21875 
Q 40.921875 74.21875 44.703125 73.484375 
Q 48.484375 72.75 52.59375 71.296875 
z
" id="DejaVuSans-54"/>
       </defs>
       <use transform="translate(0 0.684375)" xlink:href="#DejaVuSans-54"/>
       <use transform="translate(63.623047 0.684375)" xlink:href="#DejaVuSans-215"/>
       <use transform="translate(147.412109 0.684375)" xlink:href="#DejaVuSans-49"/>
       <use transform="translate(211.035156 0.684375)" xlink:href="#DejaVuSans-48"/>
       <use transform="translate(275.615234 38.965625)scale(0.7)" xlink:href="#DejaVuSans-8722"/>
       <use transform="translate(334.267578 38.965625)scale(0.7)" xlink:href="#DejaVuSans-53"/>
      </g>
     </g>
    </g>
    <g id="ytick_5">
     <g id="line2d_13">
      <path clip-path="url(#pf6a62e2173)" d="M 75.183068 29.278307 
L 645.165354 29.278307 
" style="fill:none;stroke:#000000;stroke-linecap:square;stroke-opacity:0.1;stroke-width:0.5;"/>
     </g>
     <g id="line2d_14">
      <g>
       <use style="stroke:#000000;stroke-width:0.5;" x="75.183068" xlink:href="#m4a89d8653d" y="29.278307"/>
      </g>
     </g>
     <g id="line2d_15">
      <g>
       <use style="stroke:#000000;stroke-width:0.5;" x="645.165354" xlink:href="#mc63839ee49" y="29.278307"/>
      </g>
     </g>
     <g id="text_5">
      <!-- $\mathregular{7×10^{-5}}$ -->
      <g transform="translate(25.843068 33.83737)scale(0.12 -0.12)">
       <defs>
        <path d="M 8.203125 72.90625 
L 55.078125 72.90625 
L 55.078125 68.703125 
L 28.609375 0 
L 18.3125 0 
L 43.21875 64.59375 
L 8.203125 64.59375 
z
" id="DejaVuSans-55"/>
       </defs>
       <use transform="translate(0 0.684375)" xlink:href="#DejaVuSans-55"/>
       <use transform="translate(63.623047 0.684375)" xlink:href="#DejaVuSans-215"/>
       <use transform="translate(147.412109 0.684375)" xlink:href="#DejaVuSans-49"/>
       <use transform="translate(211.035156 0.684375)" xlink:href="#DejaVuSans-48"/>
       <use transform="translate(275.615234 38.965625)scale(0.7)" xlink:href="#DejaVuSans-8722"/>
       <use transform="translate(334.267578 38.965625)scale(0.7)" xlink:href="#DejaVuSans-53"/>
      </g>
     </g>
    </g>
    <g id="ytick_6">
     <g id="line2d_16">
      <path clip-path="url(#pf6a62e2173)" d="M 75.183068 18.574048 
L 645.165354 18.574048 
" style="fill:none;stroke:#000000;stroke-linecap:square;stroke-opacity:0.1;stroke-width:0.5;"/>
     </g>
     <g id="line2d_17">
      <g>
       <use style="stroke:#000000;stroke-width:0.5;" x="75.183068" xlink:href="#m4a89d8653d" y="18.574048"/>
      </g>
     </g>
     <g id="line2d_18">
      <g>
       <use style="stroke:#000000;stroke-width:0.5;" x="645.165354" xlink:href="#mc63839ee49" y="18.574048"/>
      </g>
     </g>
     <g id="text_6">
      <!-- $\mathregular{8×10^{-5}}$ -->
      <g transform="translate(25.843068 23.13311)scale(0.12 -0.12)">
       <defs>
        <path d="M 31.78125 34.625 
Q 24.75 34.625 20.71875 30.859375 
Q 16.703125 27.09375 16.703125 20.515625 
Q 16.703125 13.921875 20.71875 10.15625 
Q 24.75 6.390625 31.78125 6.390625 
Q 38.8125 6.390625 42.859375 10.171875 
Q 46.921875 13.96875 46.921875 20.515625 
Q 46.921875 27.09375 42.890625 30.859375 
Q 38.875 34.625 31.78125 34.625 
z
M 21.921875 38.8125 
Q 15.578125 40.375 12.03125 44.71875 
Q 8.5 49.078125 8.5 55.328125 
Q 8.5 64.0625 14.71875 69.140625 
Q 20.953125 74.21875 31.78125 74.21875 
Q 42.671875 74.21875 48.875 69.140625 
Q 55.078125 64.0625 55.078125 55.328125 
Q 55.078125 49.078125 51.53125 44.71875 
Q 48 40.375 41.703125 38.8125 
Q 48.828125 37.15625 52.796875 32.3125 
Q 56.78125 27.484375 56.78125 20.515625 
Q 56.78125 9.90625 50.3125 4.234375 
Q 43.84375 -1.421875 31.78125 -1.421875 
Q 19.734375 -1.421875 13.25 4.234375 
Q 6.78125 9.90625 6.78125 20.515625 
Q 6.78125 27.484375 10.78125 32.3125 
Q 14.796875 37.15625 21.921875 38.8125 
z
M 18.3125 54.390625 
Q 18.3125 48.734375 21.84375 45.5625 
Q 25.390625 42.390625 31.78125 42.390625 
Q 38.140625 42.390625 41.71875 45.5625 
Q 45.3125 48.734375 45.3125 54.390625 
Q 45.3125 60.0625 41.71875 63.234375 
Q 38.140625 66.40625 31.78125 66.40625 
Q 25.390625 66.40625 21.84375 63.234375 
Q 18.3125 60.0625 18.3125 54.390625 
z
" id="DejaVuSans-56"/>
       </defs>
       <use transform="translate(0 0.684375)" xlink:href="#DejaVuSans-56"/>
       <use transform="translate(63.623047 0.684375)" xlink:href="#DejaVuSans-215"/>
       <use transform="translate(147.412109 0.684375)" xlink:href="#DejaVuSans-49"/>
       <use transform="translate(211.035156 0.684375)" xlink:href="#DejaVuSans-48"/>
       <use transform="translate(275.615234 38.965625)scale(0.7)" xlink:href="#DejaVuSans-8722"/>
       <use transform="translate(334.267578 38.965625)scale(0.7)" xlink:href="#DejaVuSans-53"/>
      </g>
     </g>
    </g>
    <g id="ytick_7">
     <g id="line2d_19">
      <path clip-path="url(#pf6a62e2173)" d="M 75.183068 7.869789 
L 645.165354 7.869789 
" style="fill:none;stroke:#000000;stroke-linecap:square;stroke-opacity:0.1;stroke-width:0.5;"/>
     </g>
     <g id="line2d_20">
      <g>
       <use style="stroke:#000000;stroke-width:0.5;" x="75.183068" xlink:href="#m4a89d8653d" y="7.869789"/>
      </g>
     </g>
     <g id="line2d_21">
      <g>
       <use style="stroke:#000000;stroke-width:0.5;" x="645.165354" xlink:href="#mc63839ee49" y="7.869789"/>
      </g>
     </g>
     <g id="text_7">
      <!-- $\mathregular{9×10^{-5}}$ -->
      <g transform="translate(25.843068 12.428851)scale(0.12 -0.12)">
       <defs>
        <path d="M 10.984375 1.515625 
L 10.984375 10.5 
Q 14.703125 8.734375 18.5 7.8125 
Q 22.3125 6.890625 25.984375 6.890625 
Q 35.75 6.890625 40.890625 13.453125 
Q 46.046875 20.015625 46.78125 33.40625 
Q 43.953125 29.203125 39.59375 26.953125 
Q 35.25 24.703125 29.984375 24.703125 
Q 19.046875 24.703125 12.671875 31.3125 
Q 6.296875 37.9375 6.296875 49.421875 
Q 6.296875 60.640625 12.9375 67.421875 
Q 19.578125 74.21875 30.609375 74.21875 
Q 43.265625 74.21875 49.921875 64.515625 
Q 56.59375 54.828125 56.59375 36.375 
Q 56.59375 19.140625 48.40625 8.859375 
Q 40.234375 -1.421875 26.421875 -1.421875 
Q 22.703125 -1.421875 18.890625 -0.6875 
Q 15.09375 0.046875 10.984375 1.515625 
z
M 30.609375 32.421875 
Q 37.25 32.421875 41.125 36.953125 
Q 45.015625 41.5 45.015625 49.421875 
Q 45.015625 57.28125 41.125 61.84375 
Q 37.25 66.40625 30.609375 66.40625 
Q 23.96875 66.40625 20.09375 61.84375 
Q 16.21875 57.28125 16.21875 49.421875 
Q 16.21875 41.5 20.09375 36.953125 
Q 23.96875 32.421875 30.609375 32.421875 
z
" id="DejaVuSans-57"/>
       </defs>
       <use transform="translate(0 0.684375)" xlink:href="#DejaVuSans-57"/>
       <use transform="translate(63.623047 0.684375)" xlink:href="#DejaVuSans-215"/>
       <use transform="translate(147.412109 0.684375)" xlink:href="#DejaVuSans-49"/>
       <use transform="translate(211.035156 0.684375)" xlink:href="#DejaVuSans-48"/>
       <use transform="translate(275.615234 38.965625)scale(0.7)" xlink:href="#DejaVuSans-8722"/>
       <use transform="translate(334.267578 38.965625)scale(0.7)" xlink:href="#DejaVuSans-53"/>
      </g>
     </g>
    </g>
    <g id="text_8">
     <!-- $Y_{CH_4}$ -->
     <g transform="translate(17.363068 58.11)rotate(-90)scale(0.16 -0.16)">
      <defs>
       <path d="M 6.296875 72.90625 
L 16.890625 72.90625 
L 30.515625 42.921875 
L 56.5 72.90625 
L 67.578125 72.90625 
L 34.515625 34.71875 
L 27.78125 0 
L 17.921875 0 
L 24.609375 34.71875 
z
" id="DejaVuSans-Oblique-89"/>
       <path d="M 69.484375 67.28125 
L 67.484375 56.890625 
Q 62.796875 61.625 57.546875 63.921875 
Q 52.296875 66.21875 46.1875 66.21875 
Q 37.84375 66.21875 31.515625 62.203125 
Q 25.203125 58.203125 20.609375 50 
Q 17.671875 44.734375 16.125 38.84375 
Q 14.59375 32.953125 14.59375 27 
Q 14.59375 17.046875 19.75 11.8125 
Q 24.90625 6.59375 34.71875 6.59375 
Q 41.5 6.59375 47.75 8.765625 
Q 54 10.9375 59.90625 15.28125 
L 57.625 3.609375 
Q 51.8125 1.125 45.875 -0.140625 
Q 39.9375 -1.421875 33.984375 -1.421875 
Q 19.96875 -1.421875 12.078125 6.1875 
Q 4.203125 13.8125 4.203125 27.390625 
Q 4.203125 36.078125 7.203125 44.46875 
Q 10.203125 52.875 15.828125 59.8125 
Q 21.78125 67.1875 29.421875 70.703125 
Q 37.0625 74.21875 47.21875 74.21875 
Q 53.46875 74.21875 59.0625 72.484375 
Q 64.65625 70.75 69.484375 67.28125 
z
" id="DejaVuSans-Oblique-67"/>
       <path d="M 16.890625 72.90625 
L 26.8125 72.90625 
L 21 43.015625 
L 56.78125 43.015625 
L 62.59375 72.90625 
L 72.515625 72.90625 
L 58.296875 0 
L 48.390625 0 
L 55.171875 34.71875 
L 19.390625 34.71875 
L 12.59375 0 
L 2.6875 0 
z
" id="DejaVuSans-Oblique-72"/>
      </defs>
      <use transform="translate(0 0.09375)" xlink:href="#DejaVuSans-Oblique-89"/>
      <use transform="translate(61.083984 -16.3125)scale(0.7)" xlink:href="#DejaVuSans-Oblique-67"/>
      <use transform="translate(109.960938 -16.3125)scale(0.7)" xlink:href="#DejaVuSans-Oblique-72"/>
      <use transform="translate(162.597656 -27.796875)scale(0.49)" xlink:href="#DejaVuSans-52"/>
     </g>
    </g>
   </g>
   <g id="PathCollection_1">
    <defs>
     <path d="M 0 2 
C 0.530406 2 1.03916 1.789267 1.414214 1.414214 
C 1.789267 1.03916 2 0.530406 2 0 
C 2 -0.530406 1.789267 -1.03916 1.414214 -1.414214 
C 1.03916 -1.789267 0.530406 -2 0 -2 
C -0.530406 -2 -1.03916 -1.789267 -1.414214 -1.414214 
C -1.789267 -1.03916 -2 -0.530406 -2 0 
C -2 0.530406 -1.789267 1.03916 -1.414214 1.414214 
C -1.03916 1.789267 -0.530406 2 0 2 
z
" id="m15eab796ea"/>
    </defs>
    <g clip-path="url(#pf6a62e2173)">
     <use x="91.314642" xlink:href="#m15eab796ea" y="56.510275"/>
     <use x="96.746149" xlink:href="#m15eab796ea" y="56.033376"/>
     <use x="102.177655" xlink:href="#m15eab796ea" y="55.549378"/>
     <use x="107.609162" xlink:href="#m15eab796ea" y="54.888585"/>
     <use x="113.040668" xlink:href="#m15eab796ea" y="54.750856"/>
     <use x="118.472174" xlink:href="#m15eab796ea" y="55.504743"/>
     <use x="123.903681" xlink:href="#m15eab796ea" y="56.5211"/>
     <use x="129.335187" xlink:href="#m15eab796ea" y="57.237269"/>
     <use x="134.766694" xlink:href="#m15eab796ea" y="56.588817"/>
     <use x="140.1982" xlink:href="#m15eab796ea" y="55.496772"/>
     <use x="145.629707" xlink:href="#m15eab796ea" y="54.036421"/>
     <use x="151.061213" xlink:href="#m15eab796ea" y="54.002332"/>
     <use x="156.49272" xlink:href="#m15eab796ea" y="54.737157"/>
     <use x="161.924226" xlink:href="#m15eab796ea" y="56.813311"/>
     <use x="167.355732" xlink:href="#m15eab796ea" y="58.282999"/>
     <use x="172.787239" xlink:href="#m15eab796ea" y="57.617279"/>
     <use x="178.218745" xlink:href="#m15eab796ea" y="55.672265"/>
     <use x="183.650252" xlink:href="#m15eab796ea" y="53.252133"/>
     <use x="189.081758" xlink:href="#m15eab796ea" y="51.63576"/>
     <use x="194.513265" xlink:href="#m15eab796ea" y="53.062021"/>
     <use x="199.944771" xlink:href="#m15eab796ea" y="56.617465"/>
     <use x="205.376278" xlink:href="#m15eab796ea" y="59.45252"/>
     <use x="210.807784" xlink:href="#m15eab796ea" y="59.863793"/>
     <use x="216.23929" xlink:href="#m15eab796ea" y="56.28041"/>
     <use x="221.670797" xlink:href="#m15eab796ea" y="51.467376"/>
     <use x="227.102303" xlink:href="#m15eab796ea" y="48.676052"/>
     <use x="232.53381" xlink:href="#m15eab796ea" y="49.616543"/>
     <use x="237.965316" xlink:href="#m15eab796ea" y="55.324506"/>
     <use x="243.396823" xlink:href="#m15eab796ea" y="61.843513"/>
     <use x="248.828329" xlink:href="#m15eab796ea" y="63.048705"/>
     <use x="254.259836" xlink:href="#m15eab796ea" y="58.361243"/>
     <use x="259.691342" xlink:href="#m15eab796ea" y="50.773418"/>
     <use x="265.122848" xlink:href="#m15eab796ea" y="45.175792"/>
     <use x="270.554355" xlink:href="#m15eab796ea" y="46.25203"/>
     <use x="275.985861" xlink:href="#m15eab796ea" y="56.993588"/>
     <use x="281.417368" xlink:href="#m15eab796ea" y="68.291119"/>
     <use x="286.848874" xlink:href="#m15eab796ea" y="68.596047"/>
     <use x="292.280381" xlink:href="#m15eab796ea" y="62.263413"/>
     <use x="297.711887" xlink:href="#m15eab796ea" y="54.607982"/>
     <use x="303.143394" xlink:href="#m15eab796ea" y="50.151524"/>
     <use x="308.5749" xlink:href="#m15eab796ea" y="55.02742"/>
     <use x="314.006406" xlink:href="#m15eab796ea" y="66.290549"/>
     <use x="319.437913" xlink:href="#m15eab796ea" y="70.905319"/>
     <use x="324.869419" xlink:href="#m15eab796ea" y="67.95668"/>
     <use x="330.300926" xlink:href="#m15eab796ea" y="62.770713"/>
     <use x="335.732432" xlink:href="#m15eab796ea" y="60.196267"/>
     <use x="341.163939" xlink:href="#m15eab796ea" y="61.740291"/>
     <use x="346.595445" xlink:href="#m15eab796ea" y="67.189004"/>
     <use x="352.026952" xlink:href="#m15eab796ea" y="70.379099"/>
     <use x="357.458458" xlink:href="#m15eab796ea" y="69.382522"/>
     <use x="362.889964" xlink:href="#m15eab796ea" y="67.524892"/>
     <use x="368.321471" xlink:href="#m15eab796ea" y="66.914282"/>
     <use x="373.752977" xlink:href="#m15eab796ea" y="67.959745"/>
     <use x="379.184484" xlink:href="#m15eab796ea" y="69.897915"/>
     <use x="384.61599" xlink:href="#m15eab796ea" y="70.627213"/>
     <use x="390.047497" xlink:href="#m15eab796ea" y="70.917371"/>
     <use x="395.479003" xlink:href="#m15eab796ea" y="70.637158"/>
     <use x="400.91051" xlink:href="#m15eab796ea" y="71.084509"/>
     <use x="406.342016" xlink:href="#m15eab796ea" y="71.466867"/>
     <use x="411.773522" xlink:href="#m15eab796ea" y="72.236454"/>
     <use x="417.205029" xlink:href="#m15eab796ea" y="72.856086"/>
     <use x="422.636535" xlink:href="#m15eab796ea" y="73.195516"/>
     <use x="428.068042" xlink:href="#m15eab796ea" y="73.293161"/>
     <use x="433.499548" xlink:href="#m15eab796ea" y="73.837533"/>
     <use x="438.931055" xlink:href="#m15eab796ea" y="74.349968"/>
     <use x="444.362561" xlink:href="#m15eab796ea" y="74.325319"/>
     <use x="449.794068" xlink:href="#m15eab796ea" y="75.00905"/>
     <use x="455.225574" xlink:href="#m15eab796ea" y="74.870958"/>
     <use x="460.65708" xlink:href="#m15eab796ea" y="75.430624"/>
     <use x="466.088587" xlink:href="#m15eab796ea" y="75.657549"/>
     <use x="471.520093" xlink:href="#m15eab796ea" y="76.028126"/>
     <use x="476.9516" xlink:href="#m15eab796ea" y="75.971615"/>
     <use x="482.383106" xlink:href="#m15eab796ea" y="76.271659"/>
     <use x="487.814613" xlink:href="#m15eab796ea" y="76.267385"/>
     <use x="493.246119" xlink:href="#m15eab796ea" y="76.144295"/>
     <use x="498.677626" xlink:href="#m15eab796ea" y="76.169103"/>
     <use x="504.109132" xlink:href="#m15eab796ea" y="76.408465"/>
     <use x="509.540638" xlink:href="#m15eab796ea" y="76.273448"/>
     <use x="514.972145" xlink:href="#m15eab796ea" y="76.470943"/>
     <use x="520.403651" xlink:href="#m15eab796ea" y="76.581569"/>
     <use x="525.835158" xlink:href="#m15eab796ea" y="76.427717"/>
     <use x="531.266664" xlink:href="#m15eab796ea" y="76.84141"/>
     <use x="536.698171" xlink:href="#m15eab796ea" y="76.324045"/>
     <use x="542.129677" xlink:href="#m15eab796ea" y="76.409078"/>
     <use x="547.561184" xlink:href="#m15eab796ea" y="76.800198"/>
     <use x="552.99269" xlink:href="#m15eab796ea" y="76.642947"/>
     <use x="558.424196" xlink:href="#m15eab796ea" y="76.672917"/>
     <use x="563.855703" xlink:href="#m15eab796ea" y="76.758765"/>
     <use x="569.287209" xlink:href="#m15eab796ea" y="76.937914"/>
     <use x="574.718716" xlink:href="#m15eab796ea" y="76.627701"/>
     <use x="580.150222" xlink:href="#m15eab796ea" y="76.82424"/>
     <use x="585.581729" xlink:href="#m15eab796ea" y="77.095191"/>
     <use x="591.013235" xlink:href="#m15eab796ea" y="76.579423"/>
     <use x="596.444742" xlink:href="#m15eab796ea" y="77.208052"/>
     <use x="601.876248" xlink:href="#m15eab796ea" y="76.759711"/>
     <use x="607.307754" xlink:href="#m15eab796ea" y="76.929587"/>
     <use x="612.739261" xlink:href="#m15eab796ea" y="77.10914"/>
     <use x="618.170767" xlink:href="#m15eab796ea" y="77.267968"/>
     <use x="623.602274" xlink:href="#m15eab796ea" y="76.881216"/>
     <use x="629.03378" xlink:href="#m15eab796ea" y="76.77607"/>
    </g>
   </g>
   <g id="line2d_22">
    <path clip-path="url(#pf6a62e2173)" d="M 91.314642 56.441283 
L 96.746149 56.162396 
L 102.177655 55.64061 
L 107.609162 55.200765 
L 113.040668 55.174866 
L 118.472174 55.649488 
L 123.903681 56.335041 
L 129.335187 56.713983 
L 134.766694 56.428829 
L 140.1982 55.57691 
L 145.629707 54.678678 
L 151.061213 54.391114 
L 156.49272 55.06191 
L 161.924226 56.355803 
L 167.355732 57.336572 
L 172.787239 57.171072 
L 178.218745 55.815671 
L 183.650252 54.051689 
L 189.081758 53.074816 
L 194.513265 53.82148 
L 199.944771 56.119016 
L 205.376278 58.361218 
L 210.807784 58.68777 
L 216.23929 56.659377 
L 221.670797 53.388714 
L 227.102303 50.864577 
L 232.53381 51.152016 
L 237.965316 54.908883 
L 243.396823 59.70899 
L 248.828329 61.416462 
L 254.259836 58.624635 
L 259.691342 52.965023 
L 265.122848 47.396246 
L 270.554355 45.706366 
L 275.985861 50.829072 
L 281.417368 60.509142 
L 286.848874 65.671771 
L 292.280381 62.304423 
L 297.711887 53.429183 
L 303.143394 42.875638 
L 308.5749 36.227546 
L 314.006406 40.245626 
L 319.437913 56.954804 
L 324.869419 70.603951 
L 330.300926 67.831301 
L 335.732432 56.064949 
L 341.163939 39.825555 
L 346.595445 25.397991 
L 352.026952 23.116734 
L 357.458458 42.086956 
L 362.889964 71.711155 
L 368.321471 74.040383 
L 373.752977 61.898916 
L 379.184484 42.901721 
L 384.61599 21.867597 
L 390.047497 10.355736 
L 395.479003 21.48811 
L 400.91051 59.898818 
L 406.342016 78.464864 
L 411.773522 69.026707 
L 417.205029 51.319808 
L 422.636535 28.216701 
L 428.068042 9.159301 
L 433.499548 8.566536 
L 438.931055 38.013336 
L 444.362561 77.292144 
L 449.794068 75.03967 
L 455.225574 60.359498 
L 460.65708 38.760259 
L 466.088587 15.858895 
L 471.520093 5.062307 
L 476.9516 20.254089 
L 482.383106 64.202625 
L 487.814613 78.911527 
L 493.246119 67.939466 
L 498.677626 49.286123 
L 504.109132 25.822726 
L 509.540638 7.939326 
L 514.972145 10.221852 
L 520.403651 43.425532 
L 525.835158 78.746108 
L 531.266664 73.819274 
L 536.698171 58.383314 
L 542.129677 36.484546 
L 547.561184 14.682658 
L 552.99269 6.700748 
L 558.424196 25.857051 
L 563.855703 69.672601 
L 569.287209 77.928641 
L 574.718716 65.854277 
L 580.150222 46.557206 
L 585.581729 23.554582 
L 591.013235 8.119404 
L 596.444742 14.539149 
L 601.876248 51.539305 
L 607.307754 79.317693 
L 612.739261 71.830458 
L 618.170767 55.455237 
L 623.602274 33.270741 
L 629.03378 13.130249 
" style="fill:none;stroke:#ff0000;stroke-dasharray:3.7,1.6;stroke-dashoffset:0;"/>
   </g>
   <g id="patch_3">
    <path d="M 75.183068 81.545354 
L 75.183068 2.834646 
" style="fill:none;stroke:#000000;stroke-linecap:square;stroke-linejoin:miter;"/>
   </g>
   <g id="patch_4">
    <path d="M 645.165354 81.545354 
L 645.165354 2.834646 
" style="fill:none;stroke:#000000;stroke-linecap:square;stroke-linejoin:miter;"/>
   </g>
   <g id="patch_5">
    <path d="M 75.183068 81.545354 
L 645.165354 81.545354 
" style="fill:none;stroke:#000000;stroke-linecap:square;stroke-linejoin:miter;"/>
   </g>
   <g id="patch_6">
    <path d="M 75.183068 2.834646 
L 645.165354 2.834646 
" style="fill:none;stroke:#000000;stroke-linecap:square;stroke-linejoin:miter;"/>
   </g>
  </g>
  <g id="axes_2">
   <g id="patch_7">
    <path d="M 75.183068 165.925354 
L 645.165354 165.925354 
L 645.165354 87.214646 
L 75.183068 87.214646 
z
" style="fill:#ffffff;"/>
   </g>
   <g id="matplotlib.axis_3">
    <g id="xtick_7"/>
    <g id="xtick_8"/>
    <g id="xtick_9"/>
    <g id="xtick_10"/>
    <g id="xtick_11"/>
    <g id="xtick_12"/>
   </g>
   <g id="matplotlib.axis_4">
    <g id="ytick_8">
     <g id="line2d_23">
      <path clip-path="url(#p98e90f2e3f)" d="M 75.183068 157.635334 
L 645.165354 157.635334 
" style="fill:none;stroke:#000000;stroke-linecap:square;stroke-opacity:0.1;stroke-width:0.5;"/>
     </g>
     <g id="line2d_24">
      <g>
       <use style="stroke:#000000;stroke-width:0.5;" x="75.183068" xlink:href="#m4a89d8653d" y="157.635334"/>
      </g>
     </g>
     <g id="line2d_25">
      <g>
       <use style="stroke:#000000;stroke-width:0.5;" x="645.165354" xlink:href="#mc63839ee49" y="157.635334"/>
      </g>
     </g>
     <g id="text_9">
      <!-- $\mathregular{0.0012}$ -->
      <g transform="translate(29.683068 162.194397)scale(0.12 -0.12)">
       <defs>
        <path d="M 10.6875 12.40625 
L 21 12.40625 
L 21 0 
L 10.6875 0 
z
" id="DejaVuSans-46"/>
        <path d="M 19.1875 8.296875 
L 53.609375 8.296875 
L 53.609375 0 
L 7.328125 0 
L 7.328125 8.296875 
Q 12.9375 14.109375 22.625 23.890625 
Q 32.328125 33.6875 34.8125 36.53125 
Q 39.546875 41.84375 41.421875 45.53125 
Q 43.3125 49.21875 43.3125 52.78125 
Q 43.3125 58.59375 39.234375 62.25 
Q 35.15625 65.921875 28.609375 65.921875 
Q 23.96875 65.921875 18.8125 64.3125 
Q 13.671875 62.703125 7.8125 59.421875 
L 7.8125 69.390625 
Q 13.765625 71.78125 18.9375 73 
Q 24.125 74.21875 28.421875 74.21875 
Q 39.75 74.21875 46.484375 68.546875 
Q 53.21875 62.890625 53.21875 53.421875 
Q 53.21875 48.921875 51.53125 44.890625 
Q 49.859375 40.875 45.40625 35.40625 
Q 44.1875 33.984375 37.640625 27.21875 
Q 31.109375 20.453125 19.1875 8.296875 
z
" id="DejaVuSans-50"/>
       </defs>
       <use transform="translate(0 0.78125)" xlink:href="#DejaVuSans-48"/>
       <use transform="translate(63.623047 0.78125)" xlink:href="#DejaVuSans-46"/>
       <use transform="translate(95.410156 0.78125)" xlink:href="#DejaVuSans-48"/>
       <use transform="translate(159.033203 0.78125)" xlink:href="#DejaVuSans-48"/>
       <use transform="translate(222.65625 0.78125)" xlink:href="#DejaVuSans-49"/>
       <use transform="translate(286.279297 0.78125)" xlink:href="#DejaVuSans-50"/>
      </g>
     </g>
    </g>
    <g id="ytick_9">
     <g id="line2d_26">
      <path clip-path="url(#p98e90f2e3f)" d="M 75.183068 144.898189 
L 645.165354 144.898189 
" style="fill:none;stroke:#000000;stroke-linecap:square;stroke-opacity:0.1;stroke-width:0.5;"/>
     </g>
     <g id="line2d_27">
      <g>
       <use style="stroke:#000000;stroke-width:0.5;" x="75.183068" xlink:href="#m4a89d8653d" y="144.898189"/>
      </g>
     </g>
     <g id="line2d_28">
      <g>
       <use style="stroke:#000000;stroke-width:0.5;" x="645.165354" xlink:href="#mc63839ee49" y="144.898189"/>
      </g>
     </g>
     <g id="text_10">
      <!-- $\mathregular{0.0013}$ -->
      <g transform="translate(29.683068 149.457252)scale(0.12 -0.12)">
       <use transform="translate(0 0.78125)" xlink:href="#DejaVuSans-48"/>
       <use transform="translate(63.623047 0.78125)" xlink:href="#DejaVuSans-46"/>
       <use transform="translate(95.410156 0.78125)" xlink:href="#DejaVuSans-48"/>
       <use transform="translate(159.033203 0.78125)" xlink:href="#DejaVuSans-48"/>
       <use transform="translate(222.65625 0.78125)" xlink:href="#DejaVuSans-49"/>
       <use transform="translate(286.279297 0.78125)" xlink:href="#DejaVuSans-51"/>
      </g>
     </g>
    </g>
    <g id="ytick_10">
     <g id="line2d_29">
      <path clip-path="url(#p98e90f2e3f)" d="M 75.183068 132.161045 
L 645.165354 132.161045 
" style="fill:none;stroke:#000000;stroke-linecap:square;stroke-opacity:0.1;stroke-width:0.5;"/>
     </g>
     <g id="line2d_30">
      <g>
       <use style="stroke:#000000;stroke-width:0.5;" x="75.183068" xlink:href="#m4a89d8653d" y="132.161045"/>
      </g>
     </g>
     <g id="line2d_31">
      <g>
       <use style="stroke:#000000;stroke-width:0.5;" x="645.165354" xlink:href="#mc63839ee49" y="132.161045"/>
      </g>
     </g>
     <g id="text_11">
      <!-- $\mathregular{0.0014}$ -->
      <g transform="translate(29.683068 136.720107)scale(0.12 -0.12)">
       <use transform="translate(0 0.78125)" xlink:href="#DejaVuSans-48"/>
       <use transform="translate(63.623047 0.78125)" xlink:href="#DejaVuSans-46"/>
       <use transform="translate(95.410156 0.78125)" xlink:href="#DejaVuSans-48"/>
       <use transform="translate(159.033203 0.78125)" xlink:href="#DejaVuSans-48"/>
       <use transform="translate(222.65625 0.78125)" xlink:href="#DejaVuSans-49"/>
       <use transform="translate(286.279297 0.78125)" xlink:href="#DejaVuSans-52"/>
      </g>
     </g>
    </g>
    <g id="ytick_11">
     <g id="line2d_32">
      <path clip-path="url(#p98e90f2e3f)" d="M 75.183068 119.4239 
L 645.165354 119.4239 
" style="fill:none;stroke:#000000;stroke-linecap:square;stroke-opacity:0.1;stroke-width:0.5;"/>
     </g>
     <g id="line2d_33">
      <g>
       <use style="stroke:#000000;stroke-width:0.5;" x="75.183068" xlink:href="#m4a89d8653d" y="119.4239"/>
      </g>
     </g>
     <g id="line2d_34">
      <g>
       <use style="stroke:#000000;stroke-width:0.5;" x="645.165354" xlink:href="#mc63839ee49" y="119.4239"/>
      </g>
     </g>
     <g id="text_12">
      <!-- $\mathregular{0.0015}$ -->
      <g transform="translate(29.683068 123.982963)scale(0.12 -0.12)">
       <use transform="translate(0 0.78125)" xlink:href="#DejaVuSans-48"/>
       <use transform="translate(63.623047 0.78125)" xlink:href="#DejaVuSans-46"/>
       <use transform="translate(95.410156 0.78125)" xlink:href="#DejaVuSans-48"/>
       <use transform="translate(159.033203 0.78125)" xlink:href="#DejaVuSans-48"/>
       <use transform="translate(222.65625 0.78125)" xlink:href="#DejaVuSans-49"/>
       <use transform="translate(286.279297 0.78125)" xlink:href="#DejaVuSans-53"/>
      </g>
     </g>
    </g>
    <g id="ytick_12">
     <g id="line2d_35">
      <path clip-path="url(#p98e90f2e3f)" d="M 75.183068 106.686756 
L 645.165354 106.686756 
" style="fill:none;stroke:#000000;stroke-linecap:square;stroke-opacity:0.1;stroke-width:0.5;"/>
     </g>
     <g id="line2d_36">
      <g>
       <use style="stroke:#000000;stroke-width:0.5;" x="75.183068" xlink:href="#m4a89d8653d" y="106.686756"/>
      </g>
     </g>
     <g id="line2d_37">
      <g>
       <use style="stroke:#000000;stroke-width:0.5;" x="645.165354" xlink:href="#mc63839ee49" y="106.686756"/>
      </g>
     </g>
     <g id="text_13">
      <!-- $\mathregular{0.0016}$ -->
      <g transform="translate(29.683068 111.245818)scale(0.12 -0.12)">
       <use transform="translate(0 0.78125)" xlink:href="#DejaVuSans-48"/>
       <use transform="translate(63.623047 0.78125)" xlink:href="#DejaVuSans-46"/>
       <use transform="translate(95.410156 0.78125)" xlink:href="#DejaVuSans-48"/>
       <use transform="translate(159.033203 0.78125)" xlink:href="#DejaVuSans-48"/>
       <use transform="translate(222.65625 0.78125)" xlink:href="#DejaVuSans-49"/>
       <use transform="translate(286.279297 0.78125)" xlink:href="#DejaVuSans-54"/>
      </g>
     </g>
    </g>
    <g id="ytick_13">
     <g id="line2d_38">
      <path clip-path="url(#p98e90f2e3f)" d="M 75.183068 93.949611 
L 645.165354 93.949611 
" style="fill:none;stroke:#000000;stroke-linecap:square;stroke-opacity:0.1;stroke-width:0.5;"/>
     </g>
     <g id="line2d_39">
      <g>
       <use style="stroke:#000000;stroke-width:0.5;" x="75.183068" xlink:href="#m4a89d8653d" y="93.949611"/>
      </g>
     </g>
     <g id="line2d_40">
      <g>
       <use style="stroke:#000000;stroke-width:0.5;" x="645.165354" xlink:href="#mc63839ee49" y="93.949611"/>
      </g>
     </g>
     <g id="text_14">
      <!-- $\mathregular{0.0017}$ -->
      <g transform="translate(29.683068 98.508673)scale(0.12 -0.12)">
       <use transform="translate(0 0.78125)" xlink:href="#DejaVuSans-48"/>
       <use transform="translate(63.623047 0.78125)" xlink:href="#DejaVuSans-46"/>
       <use transform="translate(95.410156 0.78125)" xlink:href="#DejaVuSans-48"/>
       <use transform="translate(159.033203 0.78125)" xlink:href="#DejaVuSans-48"/>
       <use transform="translate(222.65625 0.78125)" xlink:href="#DejaVuSans-49"/>
       <use transform="translate(286.279297 0.78125)" xlink:href="#DejaVuSans-55"/>
      </g>
     </g>
    </g>
    <g id="text_15">
     <!-- $Y_{CO}$ -->
     <g transform="translate(22.355568 140.01)rotate(-90)scale(0.16 -0.16)">
      <defs>
       <path d="M 45.609375 66.21875 
Q 37.5 66.21875 31.296875 62.28125 
Q 25.09375 58.34375 20.515625 50.296875 
Q 17.578125 45.171875 16.03125 39.40625 
Q 14.5 33.640625 14.5 27.78125 
Q 14.5 17.625 19.359375 12.109375 
Q 24.21875 6.59375 33.109375 6.59375 
Q 41.109375 6.59375 47.375 10.5625 
Q 53.65625 14.546875 58.109375 22.40625 
Q 61.078125 27.6875 62.640625 33.46875 
Q 64.203125 39.265625 64.203125 45.015625 
Q 64.203125 55.125 59.3125 60.671875 
Q 54.4375 66.21875 45.609375 66.21875 
z
M 32.8125 -1.421875 
Q 19.390625 -1.421875 11.6875 6.53125 
Q 4 14.5 4 28.328125 
Q 4 36.234375 7 44.484375 
Q 10.015625 52.734375 15.28125 59.1875 
Q 21.484375 66.75 29.09375 70.484375 
Q 36.71875 74.21875 45.90625 74.21875 
Q 59.28125 74.21875 66.984375 66.328125 
Q 74.703125 58.453125 74.703125 44.828125 
Q 74.703125 36.421875 71.765625 28.3125 
Q 68.84375 20.21875 63.375 13.625 
Q 57.125 6 49.578125 2.28125 
Q 42.046875 -1.421875 32.8125 -1.421875 
z
" id="DejaVuSans-Oblique-79"/>
      </defs>
      <use transform="translate(0 0.09375)" xlink:href="#DejaVuSans-Oblique-89"/>
      <use transform="translate(61.083984 -16.3125)scale(0.7)" xlink:href="#DejaVuSans-Oblique-67"/>
      <use transform="translate(109.960938 -16.3125)scale(0.7)" xlink:href="#DejaVuSans-Oblique-79"/>
     </g>
    </g>
   </g>
   <g id="PathCollection_2">
    <g clip-path="url(#p98e90f2e3f)">
     <use x="91.314642" xlink:href="#m15eab796ea" y="134.776474"/>
     <use x="96.746149" xlink:href="#m15eab796ea" y="135.286072"/>
     <use x="102.177655" xlink:href="#m15eab796ea" y="134.975224"/>
     <use x="107.609162" xlink:href="#m15eab796ea" y="133.612131"/>
     <use x="113.040668" xlink:href="#m15eab796ea" y="133.344702"/>
     <use x="118.472174" xlink:href="#m15eab796ea" y="133.306833"/>
     <use x="123.903681" xlink:href="#m15eab796ea" y="134.268684"/>
     <use x="129.335187" xlink:href="#m15eab796ea" y="134.73384"/>
     <use x="134.766694" xlink:href="#m15eab796ea" y="135.262453"/>
     <use x="140.1982" xlink:href="#m15eab796ea" y="135.350612"/>
     <use x="145.629707" xlink:href="#m15eab796ea" y="133.454803"/>
     <use x="151.061213" xlink:href="#m15eab796ea" y="132.437725"/>
     <use x="156.49272" xlink:href="#m15eab796ea" y="131.864805"/>
     <use x="161.924226" xlink:href="#m15eab796ea" y="132.923145"/>
     <use x="167.355732" xlink:href="#m15eab796ea" y="135.235628"/>
     <use x="172.787239" xlink:href="#m15eab796ea" y="136.776953"/>
     <use x="178.218745" xlink:href="#m15eab796ea" y="135.833191"/>
     <use x="183.650252" xlink:href="#m15eab796ea" y="134.455549"/>
     <use x="189.081758" xlink:href="#m15eab796ea" y="131.786269"/>
     <use x="194.513265" xlink:href="#m15eab796ea" y="130.347974"/>
     <use x="199.944771" xlink:href="#m15eab796ea" y="131.802204"/>
     <use x="205.376278" xlink:href="#m15eab796ea" y="135.05348"/>
     <use x="210.807784" xlink:href="#m15eab796ea" y="137.779836"/>
     <use x="216.23929" xlink:href="#m15eab796ea" y="138.144687"/>
     <use x="221.670797" xlink:href="#m15eab796ea" y="135.145466"/>
     <use x="227.102303" xlink:href="#m15eab796ea" y="130.745772"/>
     <use x="232.53381" xlink:href="#m15eab796ea" y="126.865317"/>
     <use x="237.965316" xlink:href="#m15eab796ea" y="127.286487"/>
     <use x="243.396823" xlink:href="#m15eab796ea" y="133.170915"/>
     <use x="248.828329" xlink:href="#m15eab796ea" y="140.407935"/>
     <use x="254.259836" xlink:href="#m15eab796ea" y="142.039539"/>
     <use x="259.691342" xlink:href="#m15eab796ea" y="137.836557"/>
     <use x="265.122848" xlink:href="#m15eab796ea" y="130.877525"/>
     <use x="270.554355" xlink:href="#m15eab796ea" y="124.705132"/>
     <use x="275.985861" xlink:href="#m15eab796ea" y="125.185338"/>
     <use x="281.417368" xlink:href="#m15eab796ea" y="137.272179"/>
     <use x="286.848874" xlink:href="#m15eab796ea" y="148.030811"/>
     <use x="292.280381" xlink:href="#m15eab796ea" y="149.066578"/>
     <use x="297.711887" xlink:href="#m15eab796ea" y="143.295183"/>
     <use x="303.143394" xlink:href="#m15eab796ea" y="135.464198"/>
     <use x="308.5749" xlink:href="#m15eab796ea" y="131.334541"/>
     <use x="314.006406" xlink:href="#m15eab796ea" y="135.742683"/>
     <use x="319.437913" xlink:href="#m15eab796ea" y="146.937088"/>
     <use x="324.869419" xlink:href="#m15eab796ea" y="152.109817"/>
     <use x="330.300926" xlink:href="#m15eab796ea" y="149.639594"/>
     <use x="335.732432" xlink:href="#m15eab796ea" y="144.752957"/>
     <use x="341.163939" xlink:href="#m15eab796ea" y="142.434139"/>
     <use x="346.595445" xlink:href="#m15eab796ea" y="144.085912"/>
     <use x="352.026952" xlink:href="#m15eab796ea" y="149.288194"/>
     <use x="357.458458" xlink:href="#m15eab796ea" y="152.413545"/>
     <use x="362.889964" xlink:href="#m15eab796ea" y="151.568251"/>
     <use x="368.321471" xlink:href="#m15eab796ea" y="150.184324"/>
     <use x="373.752977" xlink:href="#m15eab796ea" y="149.791326"/>
     <use x="379.184484" xlink:href="#m15eab796ea" y="151.241093"/>
     <use x="384.61599" xlink:href="#m15eab796ea" y="153.230404"/>
     <use x="390.047497" xlink:href="#m15eab796ea" y="154.15147"/>
     <use x="395.479003" xlink:href="#m15eab796ea" y="154.363152"/>
     <use x="400.91051" xlink:href="#m15eab796ea" y="154.26549"/>
     <use x="406.342016" xlink:href="#m15eab796ea" y="154.957925"/>
     <use x="411.773522" xlink:href="#m15eab796ea" y="155.73783"/>
     <use x="417.205029" xlink:href="#m15eab796ea" y="156.494431"/>
     <use x="422.636535" xlink:href="#m15eab796ea" y="157.01664"/>
     <use x="428.068042" xlink:href="#m15eab796ea" y="157.559728"/>
     <use x="433.499548" xlink:href="#m15eab796ea" y="157.728653"/>
     <use x="438.931055" xlink:href="#m15eab796ea" y="158.213838"/>
     <use x="444.362561" xlink:href="#m15eab796ea" y="159.030791"/>
     <use x="449.794068" xlink:href="#m15eab796ea" y="159.123438"/>
     <use x="455.225574" xlink:href="#m15eab796ea" y="159.879894"/>
     <use x="460.65708" xlink:href="#m15eab796ea" y="160.536315"/>
     <use x="466.088587" xlink:href="#m15eab796ea" y="160.355901"/>
     <use x="471.520093" xlink:href="#m15eab796ea" y="161.336205"/>
     <use x="476.9516" xlink:href="#m15eab796ea" y="161.617062"/>
     <use x="482.383106" xlink:href="#m15eab796ea" y="161.389531"/>
     <use x="487.814613" xlink:href="#m15eab796ea" y="161.531991"/>
     <use x="493.246119" xlink:href="#m15eab796ea" y="161.942268"/>
     <use x="498.677626" xlink:href="#m15eab796ea" y="161.608493"/>
     <use x="504.109132" xlink:href="#m15eab796ea" y="162.050257"/>
     <use x="509.540638" xlink:href="#m15eab796ea" y="162.076886"/>
     <use x="514.972145" xlink:href="#m15eab796ea" y="161.605998"/>
     <use x="520.403651" xlink:href="#m15eab796ea" y="162.093143"/>
     <use x="525.835158" xlink:href="#m15eab796ea" y="162.156354"/>
     <use x="531.266664" xlink:href="#m15eab796ea" y="162.56134"/>
     <use x="536.698171" xlink:href="#m15eab796ea" y="162.592124"/>
     <use x="542.129677" xlink:href="#m15eab796ea" y="162.63652"/>
     <use x="547.561184" xlink:href="#m15eab796ea" y="162.303939"/>
     <use x="552.99269" xlink:href="#m15eab796ea" y="162.144321"/>
     <use x="558.424196" xlink:href="#m15eab796ea" y="162.298333"/>
     <use x="563.855703" xlink:href="#m15eab796ea" y="162.692723"/>
     <use x="569.287209" xlink:href="#m15eab796ea" y="163.048263"/>
     <use x="574.718716" xlink:href="#m15eab796ea" y="162.788433"/>
     <use x="580.150222" xlink:href="#m15eab796ea" y="162.689058"/>
     <use x="585.581729" xlink:href="#m15eab796ea" y="162.910687"/>
     <use x="591.013235" xlink:href="#m15eab796ea" y="163.225514"/>
     <use x="596.444742" xlink:href="#m15eab796ea" y="162.978505"/>
     <use x="601.876248" xlink:href="#m15eab796ea" y="163.152167"/>
     <use x="607.307754" xlink:href="#m15eab796ea" y="163.253482"/>
     <use x="612.739261" xlink:href="#m15eab796ea" y="163.028528"/>
     <use x="618.170767" xlink:href="#m15eab796ea" y="163.389125"/>
     <use x="623.602274" xlink:href="#m15eab796ea" y="163.404506"/>
     <use x="629.03378" xlink:href="#m15eab796ea" y="163.697693"/>
    </g>
   </g>
   <g id="line2d_41">
    <path clip-path="url(#p98e90f2e3f)" d="M 91.314642 134.860884 
L 96.746149 135.019474 
L 102.177655 134.767118 
L 107.609162 134.236726 
L 113.040668 133.757168 
L 118.472174 133.683923 
L 123.903681 134.137888 
L 129.335187 134.842686 
L 134.766694 135.265833 
L 140.1982 135.023149 
L 145.629707 134.176826 
L 151.061213 133.227024 
L 156.49272 132.854632 
L 161.924226 133.477551 
L 167.355732 134.800902 
L 172.787239 135.858659 
L 178.218745 135.780989 
L 183.650252 134.473935 
L 189.081758 132.655284 
L 194.513265 131.520715 
L 199.944771 132.146212 
L 205.376278 134.486849 
L 210.807784 136.854385 
L 216.23929 137.334356 
L 221.670797 135.452141 
L 227.102303 132.181708 
L 232.53381 129.393283 
L 237.965316 129.360388 
L 243.396823 133.177708 
L 248.828329 138.197628 
L 254.259836 140.111373 
L 259.691342 137.65911 
L 265.122848 132.244852 
L 270.554355 126.412628 
L 275.985861 123.897979 
L 281.417368 128.956406 
L 286.848874 139.169671 
L 292.280381 144.377619 
L 297.711887 141.680318 
L 303.143394 133.6985 
L 308.5749 123.574689 
L 314.006406 115.545214 
L 319.437913 118.058673 
L 324.869419 136.550609 
L 330.300926 149.084229 
L 335.732432 147.407118 
L 341.163939 137.540737 
L 346.595445 123.655451 
L 352.026952 109.21058 
L 357.458458 102.153022 
L 362.889964 123.016654 
L 368.321471 150.237768 
L 373.752977 153.065228 
L 379.184484 143.618693 
L 384.61599 128.503756 
L 390.047497 110.79496 
L 395.479003 95.192318 
L 400.91051 100.60398 
L 406.342016 142.497696 
L 411.773522 155.974029 
L 417.205029 149.871797 
L 422.636535 135.886456 
L 428.068042 118.02498 
L 433.499548 99.216112 
L 438.931055 89.442307 
L 444.362561 123.069857 
L 449.794068 154.232401 
L 455.225574 154.50663 
L 460.65708 143.136559 
L 466.088587 126.532099 
L 471.520093 107.429696 
L 476.9516 90.936639 
L 482.383106 100.585582 
L 487.814613 145.956597 
L 493.246119 156.642648 
L 498.677626 149.206307 
L 504.109132 134.52901 
L 509.540638 116.265585 
L 514.972145 97.550617 
L 520.403651 90.36125 
L 525.835158 129.114144 
L 531.266664 155.422511 
L 536.698171 153.703624 
L 542.129677 141.572605 
L 547.561184 124.653931 
L 552.99269 105.663151 
L 558.424196 90.808665 
L 563.855703 107.576523 
L 569.287209 149.392105 
L 574.718716 156.251462 
L 580.150222 147.522765 
L 585.581729 132.324941 
L 591.013235 113.950507 
L 596.444742 96.076671 
L 601.876248 93.925546 
L 607.307754 136.487806 
L 612.739261 156.223531 
L 618.170767 152.217903 
L 623.602274 139.199467 
L 629.03378 121.920807 
" style="fill:none;stroke:#ff0000;stroke-dasharray:3.7,1.6;stroke-dashoffset:0;"/>
   </g>
   <g id="patch_8">
    <path d="M 75.183068 165.925354 
L 75.183068 87.214646 
" style="fill:none;stroke:#000000;stroke-linecap:square;stroke-linejoin:miter;"/>
   </g>
   <g id="patch_9">
    <path d="M 645.165354 165.925354 
L 645.165354 87.214646 
" style="fill:none;stroke:#000000;stroke-linecap:square;stroke-linejoin:miter;"/>
   </g>
   <g id="patch_10">
    <path d="M 75.183068 165.925354 
L 645.165354 165.925354 
" style="fill:none;stroke:#000000;stroke-linecap:square;stroke-linejoin:miter;"/>
   </g>
   <g id="patch_11">
    <path d="M 75.183068 87.214646 
L 645.165354 87.214646 
" style="fill:none;stroke:#000000;stroke-linecap:square;stroke-linejoin:miter;"/>
   </g>
  </g>
  <g id="axes_3">
   <g id="patch_12">
    <path d="M 75.183068 250.305354 
L 645.165354 250.305354 
L 645.165354 171.594646 
L 75.183068 171.594646 
z
" style="fill:#ffffff;"/>
   </g>
   <g id="matplotlib.axis_5">
    <g id="xtick_13">
     <g id="line2d_42">
      <path clip-path="url(#pb0c3b6ca51)" d="M 91.314642 250.305354 
L 91.314642 171.594646 
" style="fill:none;stroke:#000000;stroke-linecap:square;stroke-opacity:0.1;stroke-width:0.5;"/>
     </g>
     <g id="line2d_43">
      <defs>
       <path d="M 0 0 
L 0 -2.5 
" id="m35b16302bb" style="stroke:#000000;stroke-width:0.5;"/>
      </defs>
      <g>
       <use style="stroke:#000000;stroke-width:0.5;" x="91.314642" xlink:href="#m35b16302bb" y="250.305354"/>
      </g>
     </g>
     <g id="line2d_44">
      <defs>
       <path d="M 0 0 
L 0 2.5 
" id="m3721416315" style="stroke:#000000;stroke-width:0.5;"/>
      </defs>
      <g>
       <use style="stroke:#000000;stroke-width:0.5;" x="91.314642" xlink:href="#m3721416315" y="171.594646"/>
      </g>
     </g>
     <g id="text_16">
      <!-- $\mathregular{0.0}$ -->
      <g transform="translate(81.714642 262.923479)scale(0.12 -0.12)">
       <use transform="translate(0 0.78125)" xlink:href="#DejaVuSans-48"/>
       <use transform="translate(63.623047 0.78125)" xlink:href="#DejaVuSans-46"/>
       <use transform="translate(95.410156 0.78125)" xlink:href="#DejaVuSans-48"/>
      </g>
     </g>
    </g>
    <g id="xtick_14">
     <g id="line2d_45">
      <path clip-path="url(#pb0c3b6ca51)" d="M 198.85847 250.305354 
L 198.85847 171.594646 
" style="fill:none;stroke:#000000;stroke-linecap:square;stroke-opacity:0.1;stroke-width:0.5;"/>
     </g>
     <g id="line2d_46">
      <g>
       <use style="stroke:#000000;stroke-width:0.5;" x="198.85847" xlink:href="#m35b16302bb" y="250.305354"/>
      </g>
     </g>
     <g id="line2d_47">
      <g>
       <use style="stroke:#000000;stroke-width:0.5;" x="198.85847" xlink:href="#m3721416315" y="171.594646"/>
      </g>
     </g>
     <g id="text_17">
      <!-- $\mathregular{0.1}$ -->
      <g transform="translate(189.25847 262.923479)scale(0.12 -0.12)">
       <use transform="translate(0 0.78125)" xlink:href="#DejaVuSans-48"/>
       <use transform="translate(63.623047 0.78125)" xlink:href="#DejaVuSans-46"/>
       <use transform="translate(95.410156 0.78125)" xlink:href="#DejaVuSans-49"/>
      </g>
     </g>
    </g>
    <g id="xtick_15">
     <g id="line2d_48">
      <path clip-path="url(#pb0c3b6ca51)" d="M 306.402297 250.305354 
L 306.402297 171.594646 
" style="fill:none;stroke:#000000;stroke-linecap:square;stroke-opacity:0.1;stroke-width:0.5;"/>
     </g>
     <g id="line2d_49">
      <g>
       <use style="stroke:#000000;stroke-width:0.5;" x="306.402297" xlink:href="#m35b16302bb" y="250.305354"/>
      </g>
     </g>
     <g id="line2d_50">
      <g>
       <use style="stroke:#000000;stroke-width:0.5;" x="306.402297" xlink:href="#m3721416315" y="171.594646"/>
      </g>
     </g>
     <g id="text_18">
      <!-- $\mathregular{0.2}$ -->
      <g transform="translate(297.162297 262.923479)scale(0.12 -0.12)">
       <use transform="translate(0 0.78125)" xlink:href="#DejaVuSans-48"/>
       <use transform="translate(63.623047 0.78125)" xlink:href="#DejaVuSans-46"/>
       <use transform="translate(89.910156 0.78125)" xlink:href="#DejaVuSans-50"/>
      </g>
     </g>
    </g>
    <g id="xtick_16">
     <g id="line2d_51">
      <path clip-path="url(#pb0c3b6ca51)" d="M 413.946125 250.305354 
L 413.946125 171.594646 
" style="fill:none;stroke:#000000;stroke-linecap:square;stroke-opacity:0.1;stroke-width:0.5;"/>
     </g>
     <g id="line2d_52">
      <g>
       <use style="stroke:#000000;stroke-width:0.5;" x="413.946125" xlink:href="#m35b16302bb" y="250.305354"/>
      </g>
     </g>
     <g id="line2d_53">
      <g>
       <use style="stroke:#000000;stroke-width:0.5;" x="413.946125" xlink:href="#m3721416315" y="171.594646"/>
      </g>
     </g>
     <g id="text_19">
      <!-- $\mathregular{0.3}$ -->
      <g transform="translate(404.346125 262.923479)scale(0.12 -0.12)">
       <use transform="translate(0 0.78125)" xlink:href="#DejaVuSans-48"/>
       <use transform="translate(63.623047 0.78125)" xlink:href="#DejaVuSans-46"/>
       <use transform="translate(95.410156 0.78125)" xlink:href="#DejaVuSans-51"/>
      </g>
     </g>
    </g>
    <g id="xtick_17">
     <g id="line2d_54">
      <path clip-path="url(#pb0c3b6ca51)" d="M 521.489953 250.305354 
L 521.489953 171.594646 
" style="fill:none;stroke:#000000;stroke-linecap:square;stroke-opacity:0.1;stroke-width:0.5;"/>
     </g>
     <g id="line2d_55">
      <g>
       <use style="stroke:#000000;stroke-width:0.5;" x="521.489953" xlink:href="#m35b16302bb" y="250.305354"/>
      </g>
     </g>
     <g id="line2d_56">
      <g>
       <use style="stroke:#000000;stroke-width:0.5;" x="521.489953" xlink:href="#m3721416315" y="171.594646"/>
      </g>
     </g>
     <g id="text_20">
      <!-- $\mathregular{0.4}$ -->
      <g transform="translate(511.889953 262.923479)scale(0.12 -0.12)">
       <use transform="translate(0 0.78125)" xlink:href="#DejaVuSans-48"/>
       <use transform="translate(63.623047 0.78125)" xlink:href="#DejaVuSans-46"/>
       <use transform="translate(95.410156 0.78125)" xlink:href="#DejaVuSans-52"/>
      </g>
     </g>
    </g>
    <g id="xtick_18">
     <g id="line2d_57">
      <path clip-path="url(#pb0c3b6ca51)" d="M 629.03378 250.305354 
L 629.03378 171.594646 
" style="fill:none;stroke:#000000;stroke-linecap:square;stroke-opacity:0.1;stroke-width:0.5;"/>
     </g>
     <g id="line2d_58">
      <g>
       <use style="stroke:#000000;stroke-width:0.5;" x="629.03378" xlink:href="#m35b16302bb" y="250.305354"/>
      </g>
     </g>
     <g id="line2d_59">
      <g>
       <use style="stroke:#000000;stroke-width:0.5;" x="629.03378" xlink:href="#m3721416315" y="171.594646"/>
      </g>
     </g>
     <g id="text_21">
      <!-- $\mathregular{0.5}$ -->
      <g transform="translate(619.43378 262.923479)scale(0.12 -0.12)">
       <use transform="translate(0 0.78125)" xlink:href="#DejaVuSans-48"/>
       <use transform="translate(63.623047 0.78125)" xlink:href="#DejaVuSans-46"/>
       <use transform="translate(95.410156 0.78125)" xlink:href="#DejaVuSans-53"/>
      </g>
     </g>
    </g>
    <g id="text_22">
     <!-- Time [s] -->
     <g transform="translate(327.647961 281.576604)scale(0.16 -0.16)">
      <defs>
       <path d="M -0.296875 72.90625 
L 61.375 72.90625 
L 61.375 64.59375 
L 35.5 64.59375 
L 35.5 0 
L 25.59375 0 
L 25.59375 64.59375 
L -0.296875 64.59375 
z
" id="DejaVuSans-84"/>
       <path d="M 9.421875 54.6875 
L 18.40625 54.6875 
L 18.40625 0 
L 9.421875 0 
z
M 9.421875 75.984375 
L 18.40625 75.984375 
L 18.40625 64.59375 
L 9.421875 64.59375 
z
" id="DejaVuSans-105"/>
       <path d="M 52 44.1875 
Q 55.375 50.25 60.0625 53.125 
Q 64.75 56 71.09375 56 
Q 79.640625 56 84.28125 50.015625 
Q 88.921875 44.046875 88.921875 33.015625 
L 88.921875 0 
L 79.890625 0 
L 79.890625 32.71875 
Q 79.890625 40.578125 77.09375 44.375 
Q 74.3125 48.1875 68.609375 48.1875 
Q 61.625 48.1875 57.5625 43.546875 
Q 53.515625 38.921875 53.515625 30.90625 
L 53.515625 0 
L 44.484375 0 
L 44.484375 32.71875 
Q 44.484375 40.625 41.703125 44.40625 
Q 38.921875 48.1875 33.109375 48.1875 
Q 26.21875 48.1875 22.15625 43.53125 
Q 18.109375 38.875 18.109375 30.90625 
L 18.109375 0 
L 9.078125 0 
L 9.078125 54.6875 
L 18.109375 54.6875 
L 18.109375 46.1875 
Q 21.1875 51.21875 25.484375 53.609375 
Q 29.78125 56 35.6875 56 
Q 41.65625 56 45.828125 52.96875 
Q 50 49.953125 52 44.1875 
z
" id="DejaVuSans-109"/>
       <path d="M 56.203125 29.59375 
L 56.203125 25.203125 
L 14.890625 25.203125 
Q 15.484375 15.921875 20.484375 11.0625 
Q 25.484375 6.203125 34.421875 6.203125 
Q 39.59375 6.203125 44.453125 7.46875 
Q 49.3125 8.734375 54.109375 11.28125 
L 54.109375 2.78125 
Q 49.265625 0.734375 44.1875 -0.34375 
Q 39.109375 -1.421875 33.890625 -1.421875 
Q 20.796875 -1.421875 13.15625 6.1875 
Q 5.515625 13.8125 5.515625 26.8125 
Q 5.515625 40.234375 12.765625 48.109375 
Q 20.015625 56 32.328125 56 
Q 43.359375 56 49.78125 48.890625 
Q 56.203125 41.796875 56.203125 29.59375 
z
M 47.21875 32.234375 
Q 47.125 39.59375 43.09375 43.984375 
Q 39.0625 48.390625 32.421875 48.390625 
Q 24.90625 48.390625 20.390625 44.140625 
Q 15.875 39.890625 15.1875 32.171875 
z
" id="DejaVuSans-101"/>
       <path id="DejaVuSans-32"/>
       <path d="M 8.59375 75.984375 
L 29.296875 75.984375 
L 29.296875 69 
L 17.578125 69 
L 17.578125 -6.203125 
L 29.296875 -6.203125 
L 29.296875 -13.1875 
L 8.59375 -13.1875 
z
" id="DejaVuSans-91"/>
       <path d="M 44.28125 53.078125 
L 44.28125 44.578125 
Q 40.484375 46.53125 36.375 47.5 
Q 32.28125 48.484375 27.875 48.484375 
Q 21.1875 48.484375 17.84375 46.4375 
Q 14.5 44.390625 14.5 40.28125 
Q 14.5 37.15625 16.890625 35.375 
Q 19.28125 33.59375 26.515625 31.984375 
L 29.59375 31.296875 
Q 39.15625 29.25 43.1875 25.515625 
Q 47.21875 21.78125 47.21875 15.09375 
Q 47.21875 7.46875 41.1875 3.015625 
Q 35.15625 -1.421875 24.609375 -1.421875 
Q 20.21875 -1.421875 15.453125 -0.5625 
Q 10.6875 0.296875 5.421875 2 
L 5.421875 11.28125 
Q 10.40625 8.6875 15.234375 7.390625 
Q 20.0625 6.109375 24.8125 6.109375 
Q 31.15625 6.109375 34.5625 8.28125 
Q 37.984375 10.453125 37.984375 14.40625 
Q 37.984375 18.0625 35.515625 20.015625 
Q 33.0625 21.96875 24.703125 23.78125 
L 21.578125 24.515625 
Q 13.234375 26.265625 9.515625 29.90625 
Q 5.8125 33.546875 5.8125 39.890625 
Q 5.8125 47.609375 11.28125 51.796875 
Q 16.75 56 26.8125 56 
Q 31.78125 56 36.171875 55.265625 
Q 40.578125 54.546875 44.28125 53.078125 
z
" id="DejaVuSans-115"/>
       <path d="M 30.421875 75.984375 
L 30.421875 -13.1875 
L 9.71875 -13.1875 
L 9.71875 -6.203125 
L 21.390625 -6.203125 
L 21.390625 69 
L 9.71875 69 
L 9.71875 75.984375 
z
" id="DejaVuSans-93"/>
      </defs>
      <use xlink:href="#DejaVuSans-84"/>
      <use x="57.958984" xlink:href="#DejaVuSans-105"/>
      <use x="85.742188" xlink:href="#DejaVuSans-109"/>
      <use x="183.154297" xlink:href="#DejaVuSans-101"/>
      <use x="244.677734" xlink:href="#DejaVuSans-32"/>
      <use x="276.464844" xlink:href="#DejaVuSans-91"/>
      <use x="315.478516" xlink:href="#DejaVuSans-115"/>
      <use x="367.578125" xlink:href="#DejaVuSans-93"/>
     </g>
    </g>
   </g>
   <g id="matplotlib.axis_6">
    <g id="ytick_14">
     <g id="line2d_60">
      <path clip-path="url(#pb0c3b6ca51)" d="M 75.183068 239.987997 
L 645.165354 239.987997 
" style="fill:none;stroke:#000000;stroke-linecap:square;stroke-opacity:0.1;stroke-width:0.5;"/>
     </g>
     <g id="line2d_61">
      <g>
       <use style="stroke:#000000;stroke-width:0.5;" x="75.183068" xlink:href="#m4a89d8653d" y="239.987997"/>
      </g>
     </g>
     <g id="line2d_62">
      <g>
       <use style="stroke:#000000;stroke-width:0.5;" x="645.165354" xlink:href="#mc63839ee49" y="239.987997"/>
      </g>
     </g>
     <g id="text_23">
      <!-- $\mathregular{1263}$ -->
      <g transform="translate(41.083068 244.54706)scale(0.12 -0.12)">
       <use transform="translate(0 0.78125)" xlink:href="#DejaVuSans-49"/>
       <use transform="translate(63.623047 0.78125)" xlink:href="#DejaVuSans-50"/>
       <use transform="translate(127.246094 0.78125)" xlink:href="#DejaVuSans-54"/>
       <use transform="translate(190.869141 0.78125)" xlink:href="#DejaVuSans-51"/>
      </g>
     </g>
    </g>
    <g id="ytick_15">
     <g id="line2d_63">
      <path clip-path="url(#pb0c3b6ca51)" d="M 75.183068 225.245449 
L 645.165354 225.245449 
" style="fill:none;stroke:#000000;stroke-linecap:square;stroke-opacity:0.1;stroke-width:0.5;"/>
     </g>
     <g id="line2d_64">
      <g>
       <use style="stroke:#000000;stroke-width:0.5;" x="75.183068" xlink:href="#m4a89d8653d" y="225.245449"/>
      </g>
     </g>
     <g id="line2d_65">
      <g>
       <use style="stroke:#000000;stroke-width:0.5;" x="645.165354" xlink:href="#mc63839ee49" y="225.245449"/>
      </g>
     </g>
     <g id="text_24">
      <!-- $\mathregular{1266}$ -->
      <g transform="translate(41.083068 229.804511)scale(0.12 -0.12)">
       <use transform="translate(0 0.78125)" xlink:href="#DejaVuSans-49"/>
       <use transform="translate(63.623047 0.78125)" xlink:href="#DejaVuSans-50"/>
       <use transform="translate(127.246094 0.78125)" xlink:href="#DejaVuSans-54"/>
       <use transform="translate(190.869141 0.78125)" xlink:href="#DejaVuSans-54"/>
      </g>
     </g>
    </g>
    <g id="ytick_16">
     <g id="line2d_66">
      <path clip-path="url(#pb0c3b6ca51)" d="M 75.183068 210.5029 
L 645.165354 210.5029 
" style="fill:none;stroke:#000000;stroke-linecap:square;stroke-opacity:0.1;stroke-width:0.5;"/>
     </g>
     <g id="line2d_67">
      <g>
       <use style="stroke:#000000;stroke-width:0.5;" x="75.183068" xlink:href="#m4a89d8653d" y="210.5029"/>
      </g>
     </g>
     <g id="line2d_68">
      <g>
       <use style="stroke:#000000;stroke-width:0.5;" x="645.165354" xlink:href="#mc63839ee49" y="210.5029"/>
      </g>
     </g>
     <g id="text_25">
      <!-- $\mathregular{1269}$ -->
      <g transform="translate(41.083068 215.061963)scale(0.12 -0.12)">
       <use transform="translate(0 0.78125)" xlink:href="#DejaVuSans-49"/>
       <use transform="translate(63.623047 0.78125)" xlink:href="#DejaVuSans-50"/>
       <use transform="translate(127.246094 0.78125)" xlink:href="#DejaVuSans-54"/>
       <use transform="translate(190.869141 0.78125)" xlink:href="#DejaVuSans-57"/>
      </g>
     </g>
    </g>
    <g id="ytick_17">
     <g id="line2d_69">
      <path clip-path="url(#pb0c3b6ca51)" d="M 75.183068 195.760352 
L 645.165354 195.760352 
" style="fill:none;stroke:#000000;stroke-linecap:square;stroke-opacity:0.1;stroke-width:0.5;"/>
     </g>
     <g id="line2d_70">
      <g>
       <use style="stroke:#000000;stroke-width:0.5;" x="75.183068" xlink:href="#m4a89d8653d" y="195.760352"/>
      </g>
     </g>
     <g id="line2d_71">
      <g>
       <use style="stroke:#000000;stroke-width:0.5;" x="645.165354" xlink:href="#mc63839ee49" y="195.760352"/>
      </g>
     </g>
     <g id="text_26">
      <!-- $\mathregular{1272}$ -->
      <g transform="translate(41.083068 200.319414)scale(0.12 -0.12)">
       <use transform="translate(0 0.78125)" xlink:href="#DejaVuSans-49"/>
       <use transform="translate(63.623047 0.78125)" xlink:href="#DejaVuSans-50"/>
       <use transform="translate(127.246094 0.78125)" xlink:href="#DejaVuSans-55"/>
       <use transform="translate(190.869141 0.78125)" xlink:href="#DejaVuSans-50"/>
      </g>
     </g>
    </g>
    <g id="ytick_18">
     <g id="line2d_72">
      <path clip-path="url(#pb0c3b6ca51)" d="M 75.183068 181.017803 
L 645.165354 181.017803 
" style="fill:none;stroke:#000000;stroke-linecap:square;stroke-opacity:0.1;stroke-width:0.5;"/>
     </g>
     <g id="line2d_73">
      <g>
       <use style="stroke:#000000;stroke-width:0.5;" x="75.183068" xlink:href="#m4a89d8653d" y="181.017803"/>
      </g>
     </g>
     <g id="line2d_74">
      <g>
       <use style="stroke:#000000;stroke-width:0.5;" x="645.165354" xlink:href="#mc63839ee49" y="181.017803"/>
      </g>
     </g>
     <g id="text_27">
      <!-- $\mathregular{1275}$ -->
      <g transform="translate(41.083068 185.576866)scale(0.12 -0.12)">
       <use transform="translate(0 0.78125)" xlink:href="#DejaVuSans-49"/>
       <use transform="translate(63.623047 0.78125)" xlink:href="#DejaVuSans-50"/>
       <use transform="translate(127.246094 0.78125)" xlink:href="#DejaVuSans-55"/>
       <use transform="translate(190.869141 0.78125)" xlink:href="#DejaVuSans-53"/>
      </g>
     </g>
    </g>
    <g id="text_28">
     <!-- T [K] -->
     <g transform="translate(33.755568 229.8675)rotate(-90)scale(0.16 -0.16)">
      <defs>
       <path d="M 9.8125 72.90625 
L 19.671875 72.90625 
L 19.671875 42.09375 
L 52.390625 72.90625 
L 65.09375 72.90625 
L 28.90625 38.921875 
L 67.671875 0 
L 54.6875 0 
L 19.671875 35.109375 
L 19.671875 0 
L 9.8125 0 
z
" id="DejaVuSans-75"/>
      </defs>
      <use xlink:href="#DejaVuSans-84"/>
      <use x="61.083984" xlink:href="#DejaVuSans-32"/>
      <use x="92.871094" xlink:href="#DejaVuSans-91"/>
      <use x="131.884766" xlink:href="#DejaVuSans-75"/>
      <use x="197.460938" xlink:href="#DejaVuSans-93"/>
     </g>
    </g>
   </g>
   <g id="PathCollection_3">
    <g clip-path="url(#pb0c3b6ca51)">
     <use x="91.314642" xlink:href="#m15eab796ea" y="218.628301"/>
     <use x="96.746149" xlink:href="#m15eab796ea" y="219.132802"/>
     <use x="102.177655" xlink:href="#m15eab796ea" y="219.222737"/>
     <use x="107.609162" xlink:href="#m15eab796ea" y="219.660461"/>
     <use x="113.040668" xlink:href="#m15eab796ea" y="219.984103"/>
     <use x="118.472174" xlink:href="#m15eab796ea" y="219.537129"/>
     <use x="123.903681" xlink:href="#m15eab796ea" y="219.640452"/>
     <use x="129.335187" xlink:href="#m15eab796ea" y="218.82169"/>
     <use x="134.766694" xlink:href="#m15eab796ea" y="218.314035"/>
     <use x="140.1982" xlink:href="#m15eab796ea" y="218.858312"/>
     <use x="145.629707" xlink:href="#m15eab796ea" y="220.318326"/>
     <use x="151.061213" xlink:href="#m15eab796ea" y="220.534756"/>
     <use x="156.49272" xlink:href="#m15eab796ea" y="220.198995"/>
     <use x="161.924226" xlink:href="#m15eab796ea" y="219.951958"/>
     <use x="167.355732" xlink:href="#m15eab796ea" y="218.484784"/>
     <use x="172.787239" xlink:href="#m15eab796ea" y="218.164904"/>
     <use x="178.218745" xlink:href="#m15eab796ea" y="218.582817"/>
     <use x="183.650252" xlink:href="#m15eab796ea" y="220.184983"/>
     <use x="189.081758" xlink:href="#m15eab796ea" y="221.50684"/>
     <use x="194.513265" xlink:href="#m15eab796ea" y="221.871175"/>
     <use x="199.944771" xlink:href="#m15eab796ea" y="220.685045"/>
     <use x="205.376278" xlink:href="#m15eab796ea" y="218.555893"/>
     <use x="210.807784" xlink:href="#m15eab796ea" y="217.249464"/>
     <use x="216.23929" xlink:href="#m15eab796ea" y="217.953035"/>
     <use x="221.670797" xlink:href="#m15eab796ea" y="220.516731"/>
     <use x="227.102303" xlink:href="#m15eab796ea" y="223.831827"/>
     <use x="232.53381" xlink:href="#m15eab796ea" y="225.011648"/>
     <use x="237.965316" xlink:href="#m15eab796ea" y="222.854536"/>
     <use x="243.396823" xlink:href="#m15eab796ea" y="218.65939"/>
     <use x="248.828329" xlink:href="#m15eab796ea" y="215.968461"/>
     <use x="254.259836" xlink:href="#m15eab796ea" y="216.276049"/>
     <use x="259.691342" xlink:href="#m15eab796ea" y="219.904303"/>
     <use x="265.122848" xlink:href="#m15eab796ea" y="224.395791"/>
     <use x="270.554355" xlink:href="#m15eab796ea" y="226.772654"/>
     <use x="275.985861" xlink:href="#m15eab796ea" y="223.526746"/>
     <use x="281.417368" xlink:href="#m15eab796ea" y="215.361519"/>
     <use x="286.848874" xlink:href="#m15eab796ea" y="210.599847"/>
     <use x="292.280381" xlink:href="#m15eab796ea" y="211.580161"/>
     <use x="297.711887" xlink:href="#m15eab796ea" y="215.785559"/>
     <use x="303.143394" xlink:href="#m15eab796ea" y="220.668484"/>
     <use x="308.5749" xlink:href="#m15eab796ea" y="220.638175"/>
     <use x="314.006406" xlink:href="#m15eab796ea" y="215.925551"/>
     <use x="319.437913" xlink:href="#m15eab796ea" y="209.740187"/>
     <use x="324.869419" xlink:href="#m15eab796ea" y="208.415561"/>
     <use x="330.300926" xlink:href="#m15eab796ea" y="210.463445"/>
     <use x="335.732432" xlink:href="#m15eab796ea" y="212.219436"/>
     <use x="341.163939" xlink:href="#m15eab796ea" y="213.079749"/>
     <use x="346.595445" xlink:href="#m15eab796ea" y="210.710573"/>
     <use x="352.026952" xlink:href="#m15eab796ea" y="207.485383"/>
     <use x="357.458458" xlink:href="#m15eab796ea" y="206.052673"/>
     <use x="362.889964" xlink:href="#m15eab796ea" y="205.931486"/>
     <use x="368.321471" xlink:href="#m15eab796ea" y="206.379046"/>
     <use x="373.752977" xlink:href="#m15eab796ea" y="206.480004"/>
     <use x="379.184484" xlink:href="#m15eab796ea" y="204.775852"/>
     <use x="384.61599" xlink:href="#m15eab796ea" y="203.323101"/>
     <use x="390.047497" xlink:href="#m15eab796ea" y="202.52712"/>
     <use x="395.479003" xlink:href="#m15eab796ea" y="201.658949"/>
     <use x="400.91051" xlink:href="#m15eab796ea" y="201.693076"/>
     <use x="406.342016" xlink:href="#m15eab796ea" y="200.746235"/>
     <use x="411.773522" xlink:href="#m15eab796ea" y="199.085486"/>
     <use x="417.205029" xlink:href="#m15eab796ea" y="198.47111"/>
     <use x="422.636535" xlink:href="#m15eab796ea" y="197.824579"/>
     <use x="428.068042" xlink:href="#m15eab796ea" y="196.485358"/>
     <use x="433.499548" xlink:href="#m15eab796ea" y="196.082087"/>
     <use x="438.931055" xlink:href="#m15eab796ea" y="194.987923"/>
     <use x="444.362561" xlink:href="#m15eab796ea" y="193.925721"/>
     <use x="449.794068" xlink:href="#m15eab796ea" y="193.302338"/>
     <use x="455.225574" xlink:href="#m15eab796ea" y="192.739681"/>
     <use x="460.65708" xlink:href="#m15eab796ea" y="191.453998"/>
     <use x="466.088587" xlink:href="#m15eab796ea" y="190.323137"/>
     <use x="471.520093" xlink:href="#m15eab796ea" y="189.736176"/>
     <use x="476.9516" xlink:href="#m15eab796ea" y="188.29065"/>
     <use x="482.383106" xlink:href="#m15eab796ea" y="188.179762"/>
     <use x="487.814613" xlink:href="#m15eab796ea" y="187.071794"/>
     <use x="493.246119" xlink:href="#m15eab796ea" y="186.357953"/>
     <use x="498.677626" xlink:href="#m15eab796ea" y="185.822674"/>
     <use x="504.109132" xlink:href="#m15eab796ea" y="184.739103"/>
     <use x="509.540638" xlink:href="#m15eab796ea" y="184.076537"/>
     <use x="514.972145" xlink:href="#m15eab796ea" y="183.990145"/>
     <use x="520.403651" xlink:href="#m15eab796ea" y="183.586386"/>
     <use x="525.835158" xlink:href="#m15eab796ea" y="182.229986"/>
     <use x="531.266664" xlink:href="#m15eab796ea" y="181.665309"/>
     <use x="536.698171" xlink:href="#m15eab796ea" y="181.40773"/>
     <use x="542.129677" xlink:href="#m15eab796ea" y="181.404232"/>
     <use x="547.561184" xlink:href="#m15eab796ea" y="179.970929"/>
     <use x="552.99269" xlink:href="#m15eab796ea" y="180.221482"/>
     <use x="558.424196" xlink:href="#m15eab796ea" y="179.219826"/>
     <use x="563.855703" xlink:href="#m15eab796ea" y="179.026176"/>
     <use x="569.287209" xlink:href="#m15eab796ea" y="178.448739"/>
     <use x="574.718716" xlink:href="#m15eab796ea" y="177.711197"/>
     <use x="580.150222" xlink:href="#m15eab796ea" y="176.964112"/>
     <use x="585.581729" xlink:href="#m15eab796ea" y="176.847542"/>
     <use x="591.013235" xlink:href="#m15eab796ea" y="176.420639"/>
     <use x="596.444742" xlink:href="#m15eab796ea" y="176.173517"/>
     <use x="601.876248" xlink:href="#m15eab796ea" y="175.437093"/>
     <use x="607.307754" xlink:href="#m15eab796ea" y="175.280374"/>
     <use x="612.739261" xlink:href="#m15eab796ea" y="175.312232"/>
     <use x="618.170767" xlink:href="#m15eab796ea" y="174.578805"/>
     <use x="623.602274" xlink:href="#m15eab796ea" y="174.096378"/>
     <use x="629.03378" xlink:href="#m15eab796ea" y="173.822307"/>
    </g>
   </g>
   <g id="line2d_75">
    <path clip-path="url(#pb0c3b6ca51)" d="M 91.314642 218.541649 
L 96.746149 218.608166 
L 102.177655 218.894416 
L 107.609162 219.274185 
L 113.040668 219.52429 
L 118.472174 219.472949 
L 123.903681 219.146087 
L 129.335187 218.793159 
L 134.766694 218.727565 
L 140.1982 219.087007 
L 145.629707 219.713756 
L 151.061213 220.224877 
L 156.49272 220.241229 
L 161.924226 219.6795 
L 167.355732 218.90847 
L 172.787239 218.540021 
L 178.218745 218.951194 
L 183.650252 219.991351 
L 189.081758 221.045457 
L 194.513265 221.353338 
L 199.944771 220.518273 
L 205.376278 218.996038 
L 210.807784 217.950376 
L 216.23929 218.28428 
L 221.670797 219.949619 
L 227.102303 222.028659 
L 232.53381 223.147153 
L 237.965316 222.175834 
L 243.396823 219.377706 
L 248.828329 216.888367 
L 254.259836 216.779349 
L 259.691342 219.276472 
L 265.122848 223.094943 
L 270.554355 226.050623 
L 275.985861 225.681973 
L 281.417368 221.047081 
L 286.848874 215.61194 
L 292.280381 214.190243 
L 297.711887 217.518307 
L 303.143394 223.804475 
L 308.5749 230.063585 
L 314.006406 232.259097 
L 319.437913 226.467312 
L 324.869419 215.668266 
L 330.300926 210.960888 
L 335.732432 214.30881 
L 341.163939 222.905728 
L 346.595445 233.174112 
L 352.026952 240.082422 
L 357.458458 237.104722 
L 362.889964 220.778075 
L 368.321471 209.10067 
L 373.752977 210.134242 
L 379.184484 219.012825 
L 384.61599 231.736352 
L 390.047497 243.065456 
L 395.479003 246.120896 
L 400.91051 232.163756 
L 406.342016 211.269365 
L 411.773522 206.866896 
L 417.205029 213.441825 
L 422.636535 225.992434 
L 428.068042 239.689913 
L 433.499548 248.077693 
L 438.931055 242.582452 
L 444.362561 218.755212 
L 449.794068 206.093599 
L 455.225574 208.617786 
L 460.65708 219.153668 
L 466.088587 233.248671 
L 471.520093 245.07994 
L 476.9516 247.175273 
L 482.383106 229.927237 
L 487.814613 208.633726 
L 493.246119 205.596261 
L 498.677626 213.105039 
L 504.109132 226.182584 
L 509.540638 239.773431 
L 514.972145 247.204851 
L 520.403651 239.491031 
L 525.835158 215.109544 
L 531.266664 204.745986 
L 536.698171 208.453767 
L 542.129677 219.551177 
L 547.561184 233.543805 
L 552.99269 244.454966 
L 558.424196 244.547058 
L 563.855703 225.015739 
L 569.287209 206.48391 
L 574.718716 205.387906 
L 580.150222 213.818041 
L 585.581729 227.117765 
L 591.013235 240.048716 
L 596.444742 245.747642 
L 601.876248 234.951897 
L 607.307754 211.412424 
L 612.739261 204.078404 
L 618.170767 209.216785 
L 623.602274 220.957086 
L 629.03378 234.696854 
" style="fill:none;stroke:#ff0000;stroke-dasharray:3.7,1.6;stroke-dashoffset:0;"/>
   </g>
   <g id="patch_13">
    <path d="M 75.183068 250.305354 
L 75.183068 171.594646 
" style="fill:none;stroke:#000000;stroke-linecap:square;stroke-linejoin:miter;"/>
   </g>
   <g id="patch_14">
    <path d="M 645.165354 250.305354 
L 645.165354 171.594646 
" style="fill:none;stroke:#000000;stroke-linecap:square;stroke-linejoin:miter;"/>
   </g>
   <g id="patch_15">
    <path d="M 75.183068 250.305354 
L 645.165354 250.305354 
" style="fill:none;stroke:#000000;stroke-linecap:square;stroke-linejoin:miter;"/>
   </g>
   <g id="patch_16">
    <path d="M 75.183068 171.594646 
L 645.165354 171.594646 
" style="fill:none;stroke:#000000;stroke-linecap:square;stroke-linejoin:miter;"/>
   </g>
  </g>
 </g>
 <defs>
  <clipPath id="pf6a62e2173">
   <rect height="78.710709" width="569.982286" x="75.183068" y="2.834646"/>
  </clipPath>
  <clipPath id="p98e90f2e3f">
   <rect height="78.710709" width="569.982286" x="75.183068" y="87.214646"/>
  </clipPath>
  <clipPath id="pb0c3b6ca51">
   <rect height="78.710709" width="569.982286" x="75.183068" y="171.594646"/>
  </clipPath>
 </defs>
</svg>
