<?xml version="1.0" encoding="utf-8" standalone="no"?>
<!DOCTYPE svg PUBLIC "-//W3C//DTD SVG 1.1//EN"
  "http://www.w3.org/Graphics/SVG/1.1/DTD/svg11.dtd">
<!-- Created with matplotlib (https://matplotlib.org/) -->
<svg height="288pt" version="1.1" viewBox="0 0 720 288" width="720pt" xmlns="http://www.w3.org/2000/svg" xmlns:xlink="http://www.w3.org/1999/xlink">
 <metadata>
  <rdf:RDF xmlns:cc="http://creativecommons.org/ns#" xmlns:dc="http://purl.org/dc/elements/1.1/" xmlns:rdf="http://www.w3.org/1999/02/22-rdf-syntax-ns#">
   <cc:Work>
    <dc:type rdf:resource="http://purl.org/dc/dcmitype/StillImage"/>
    <dc:date>2021-04-25T02:01:45.772468</dc:date>
    <dc:format>image/svg+xml</dc:format>
    <dc:creator>
     <cc:Agent>
      <dc:title>Matplotlib v3.3.2, https://matplotlib.org/</dc:title>
     </cc:Agent>
    </dc:creator>
   </cc:Work>
  </rdf:RDF>
 </metadata>
 <defs>
  <style type="text/css">*{stroke-linecap:butt;stroke-linejoin:round;}</style>
 </defs>
 <g id="figure_1">
  <g id="patch_1">
   <path d="M 0 288 
L 720 288 
L 720 0 
L 0 0 
z
" style="fill:#ffffff;"/>
  </g>
  <g id="axes_1">
   <g id="patch_2">
    <path d="M 86.603664 81.497646 
L 585.015354 81.497646 
L 585.015354 2.834646 
L 86.603664 2.834646 
z
" style="fill:#ffffff;"/>
   </g>
   <g id="matplotlib.axis_1">
    <g id="xtick_1"/>
    <g id="xtick_2"/>
    <g id="xtick_3"/>
    <g id="xtick_4"/>
    <g id="xtick_5"/>
    <g id="xtick_6"/>
   </g>
   <g id="matplotlib.axis_2">
    <g id="ytick_1">
     <g id="line2d_1">
      <path clip-path="url(#p6d07b3d8ed)" d="M 86.603664 79.088291 
L 585.015354 79.088291 
" style="fill:none;stroke:#000000;stroke-linecap:square;stroke-opacity:0.1;stroke-width:0.5;"/>
     </g>
     <g id="line2d_2">
      <defs>
       <path d="M 0 0 
L 2.5 0 
" id="m88e444908c" style="stroke:#000000;stroke-width:0.5;"/>
      </defs>
      <g>
       <use style="stroke:#000000;stroke-width:0.5;" x="86.603664" xlink:href="#m88e444908c" y="79.088291"/>
      </g>
     </g>
     <g id="line2d_3">
      <defs>
       <path d="M 0 0 
L -2.5 0 
" id="m4c7f4a1252" style="stroke:#000000;stroke-width:0.5;"/>
      </defs>
      <g>
       <use style="stroke:#000000;stroke-width:0.5;" x="585.015354" xlink:href="#m4c7f4a1252" y="79.088291"/>
      </g>
     </g>
     <g id="text_1">
      <!-- $\mathregular{2.5×10^{-5}}$ -->
      <g transform="translate(25.863664 83.647353)scale(0.12 -0.12)">
       <defs>
        <path d="M 19.1875 8.296875 
L 53.609375 8.296875 
L 53.609375 0 
L 7.328125 0 
L 7.328125 8.296875 
Q 12.9375 14.109375 22.625 23.890625 
Q 32.328125 33.6875 34.8125 36.53125 
Q 39.546875 41.84375 41.421875 45.53125 
Q 43.3125 49.21875 43.3125 52.78125 
Q 43.3125 58.59375 39.234375 62.25 
Q 35.15625 65.921875 28.609375 65.921875 
Q 23.96875 65.921875 18.8125 64.3125 
Q 13.671875 62.703125 7.8125 59.421875 
L 7.8125 69.390625 
Q 13.765625 71.78125 18.9375 73 
Q 24.125 74.21875 28.421875 74.21875 
Q 39.75 74.21875 46.484375 68.546875 
Q 53.21875 62.890625 53.21875 53.421875 
Q 53.21875 48.921875 51.53125 44.890625 
Q 49.859375 40.875 45.40625 35.40625 
Q 44.1875 33.984375 37.640625 27.21875 
Q 31.109375 20.453125 19.1875 8.296875 
z
" id="DejaVuSans-50"/>
        <path d="M 10.6875 12.40625 
L 21 12.40625 
L 21 0 
L 10.6875 0 
z
" id="DejaVuSans-46"/>
        <path d="M 10.796875 72.90625 
L 49.515625 72.90625 
L 49.515625 64.59375 
L 19.828125 64.59375 
L 19.828125 46.734375 
Q 21.96875 47.46875 24.109375 47.828125 
Q 26.265625 48.1875 28.421875 48.1875 
Q 40.625 48.1875 47.75 41.5 
Q 54.890625 34.8125 54.890625 23.390625 
Q 54.890625 11.625 47.5625 5.09375 
Q 40.234375 -1.421875 26.90625 -1.421875 
Q 22.3125 -1.421875 17.546875 -0.640625 
Q 12.796875 0.140625 7.71875 1.703125 
L 7.71875 11.625 
Q 12.109375 9.234375 16.796875 8.0625 
Q 21.484375 6.890625 26.703125 6.890625 
Q 35.15625 6.890625 40.078125 11.328125 
Q 45.015625 15.765625 45.015625 23.390625 
Q 45.015625 31 40.078125 35.4375 
Q 35.15625 39.890625 26.703125 39.890625 
Q 22.75 39.890625 18.8125 39.015625 
Q 14.890625 38.140625 10.796875 36.28125 
z
" id="DejaVuSans-53"/>
        <path d="M 70.125 53.71875 
L 47.796875 31.296875 
L 70.125 8.984375 
L 64.3125 3.078125 
L 41.890625 25.484375 
L 19.484375 3.078125 
L 13.71875 8.984375 
L 35.984375 31.296875 
L 13.71875 53.71875 
L 19.484375 59.625 
L 41.890625 37.203125 
L 64.3125 59.625 
z
" id="DejaVuSans-215"/>
        <path d="M 12.40625 8.296875 
L 28.515625 8.296875 
L 28.515625 63.921875 
L 10.984375 60.40625 
L 10.984375 69.390625 
L 28.421875 72.90625 
L 38.28125 72.90625 
L 38.28125 8.296875 
L 54.390625 8.296875 
L 54.390625 0 
L 12.40625 0 
z
" id="DejaVuSans-49"/>
        <path d="M 31.78125 66.40625 
Q 24.171875 66.40625 20.328125 58.90625 
Q 16.5 51.421875 16.5 36.375 
Q 16.5 21.390625 20.328125 13.890625 
Q 24.171875 6.390625 31.78125 6.390625 
Q 39.453125 6.390625 43.28125 13.890625 
Q 47.125 21.390625 47.125 36.375 
Q 47.125 51.421875 43.28125 58.90625 
Q 39.453125 66.40625 31.78125 66.40625 
z
M 31.78125 74.21875 
Q 44.046875 74.21875 50.515625 64.515625 
Q 56.984375 54.828125 56.984375 36.375 
Q 56.984375 17.96875 50.515625 8.265625 
Q 44.046875 -1.421875 31.78125 -1.421875 
Q 19.53125 -1.421875 13.0625 8.265625 
Q 6.59375 17.96875 6.59375 36.375 
Q 6.59375 54.828125 13.0625 64.515625 
Q 19.53125 74.21875 31.78125 74.21875 
z
" id="DejaVuSans-48"/>
        <path d="M 10.59375 35.5 
L 73.1875 35.5 
L 73.1875 27.203125 
L 10.59375 27.203125 
z
" id="DejaVuSans-8722"/>
       </defs>
       <use transform="translate(0 0.684375)" xlink:href="#DejaVuSans-50"/>
       <use transform="translate(63.623047 0.684375)" xlink:href="#DejaVuSans-46"/>
       <use transform="translate(95.410156 0.684375)" xlink:href="#DejaVuSans-53"/>
       <use transform="translate(159.033203 0.684375)" xlink:href="#DejaVuSans-215"/>
       <use transform="translate(242.822266 0.684375)" xlink:href="#DejaVuSans-49"/>
       <use transform="translate(306.445312 0.684375)" xlink:href="#DejaVuSans-48"/>
       <use transform="translate(371.025391 38.965625)scale(0.7)" xlink:href="#DejaVuSans-8722"/>
       <use transform="translate(429.677734 38.965625)scale(0.7)" xlink:href="#DejaVuSans-53"/>
      </g>
     </g>
    </g>
    <g id="ytick_2">
     <g id="line2d_4">
      <path clip-path="url(#p6d07b3d8ed)" d="M 86.603664 66.811153 
L 585.015354 66.811153 
" style="fill:none;stroke:#000000;stroke-linecap:square;stroke-opacity:0.1;stroke-width:0.5;"/>
     </g>
     <g id="line2d_5">
      <g>
       <use style="stroke:#000000;stroke-width:0.5;" x="86.603664" xlink:href="#m88e444908c" y="66.811153"/>
      </g>
     </g>
     <g id="line2d_6">
      <g>
       <use style="stroke:#000000;stroke-width:0.5;" x="585.015354" xlink:href="#m4c7f4a1252" y="66.811153"/>
      </g>
     </g>
     <g id="text_2">
      <!-- $\mathregular{3.0×10^{-5}}$ -->
      <g transform="translate(25.863664 71.370216)scale(0.12 -0.12)">
       <defs>
        <path d="M 40.578125 39.3125 
Q 47.65625 37.796875 51.625 33 
Q 55.609375 28.21875 55.609375 21.1875 
Q 55.609375 10.40625 48.1875 4.484375 
Q 40.765625 -1.421875 27.09375 -1.421875 
Q 22.515625 -1.421875 17.65625 -0.515625 
Q 12.796875 0.390625 7.625 2.203125 
L 7.625 11.71875 
Q 11.71875 9.328125 16.59375 8.109375 
Q 21.484375 6.890625 26.8125 6.890625 
Q 36.078125 6.890625 40.9375 10.546875 
Q 45.796875 14.203125 45.796875 21.1875 
Q 45.796875 27.640625 41.28125 31.265625 
Q 36.765625 34.90625 28.71875 34.90625 
L 20.21875 34.90625 
L 20.21875 43.015625 
L 29.109375 43.015625 
Q 36.375 43.015625 40.234375 45.921875 
Q 44.09375 48.828125 44.09375 54.296875 
Q 44.09375 59.90625 40.109375 62.90625 
Q 36.140625 65.921875 28.71875 65.921875 
Q 24.65625 65.921875 20.015625 65.03125 
Q 15.375 64.15625 9.8125 62.3125 
L 9.8125 71.09375 
Q 15.4375 72.65625 20.34375 73.4375 
Q 25.25 74.21875 29.59375 74.21875 
Q 40.828125 74.21875 47.359375 69.109375 
Q 53.90625 64.015625 53.90625 55.328125 
Q 53.90625 49.265625 50.4375 45.09375 
Q 46.96875 40.921875 40.578125 39.3125 
z
" id="DejaVuSans-51"/>
       </defs>
       <use transform="translate(0 0.684375)" xlink:href="#DejaVuSans-51"/>
       <use transform="translate(63.623047 0.684375)" xlink:href="#DejaVuSans-46"/>
       <use transform="translate(95.410156 0.684375)" xlink:href="#DejaVuSans-48"/>
       <use transform="translate(159.033203 0.684375)" xlink:href="#DejaVuSans-215"/>
       <use transform="translate(242.822266 0.684375)" xlink:href="#DejaVuSans-49"/>
       <use transform="translate(306.445312 0.684375)" xlink:href="#DejaVuSans-48"/>
       <use transform="translate(371.025391 38.965625)scale(0.7)" xlink:href="#DejaVuSans-8722"/>
       <use transform="translate(429.677734 38.965625)scale(0.7)" xlink:href="#DejaVuSans-53"/>
      </g>
     </g>
    </g>
    <g id="ytick_3">
     <g id="line2d_7">
      <path clip-path="url(#p6d07b3d8ed)" d="M 86.603664 54.534015 
L 585.015354 54.534015 
" style="fill:none;stroke:#000000;stroke-linecap:square;stroke-opacity:0.1;stroke-width:0.5;"/>
     </g>
     <g id="line2d_8">
      <g>
       <use style="stroke:#000000;stroke-width:0.5;" x="86.603664" xlink:href="#m88e444908c" y="54.534015"/>
      </g>
     </g>
     <g id="line2d_9">
      <g>
       <use style="stroke:#000000;stroke-width:0.5;" x="585.015354" xlink:href="#m4c7f4a1252" y="54.534015"/>
      </g>
     </g>
     <g id="text_3">
      <!-- $\mathregular{3.5×10^{-5}}$ -->
      <g transform="translate(25.863664 59.093078)scale(0.12 -0.12)">
       <use transform="translate(0 0.684375)" xlink:href="#DejaVuSans-51"/>
       <use transform="translate(63.623047 0.684375)" xlink:href="#DejaVuSans-46"/>
       <use transform="translate(95.410156 0.684375)" xlink:href="#DejaVuSans-53"/>
       <use transform="translate(159.033203 0.684375)" xlink:href="#DejaVuSans-215"/>
       <use transform="translate(242.822266 0.684375)" xlink:href="#DejaVuSans-49"/>
       <use transform="translate(306.445312 0.684375)" xlink:href="#DejaVuSans-48"/>
       <use transform="translate(371.025391 38.965625)scale(0.7)" xlink:href="#DejaVuSans-8722"/>
       <use transform="translate(429.677734 38.965625)scale(0.7)" xlink:href="#DejaVuSans-53"/>
      </g>
     </g>
    </g>
    <g id="ytick_4">
     <g id="line2d_10">
      <path clip-path="url(#p6d07b3d8ed)" d="M 86.603664 42.256877 
L 585.015354 42.256877 
" style="fill:none;stroke:#000000;stroke-linecap:square;stroke-opacity:0.1;stroke-width:0.5;"/>
     </g>
     <g id="line2d_11">
      <g>
       <use style="stroke:#000000;stroke-width:0.5;" x="86.603664" xlink:href="#m88e444908c" y="42.256877"/>
      </g>
     </g>
     <g id="line2d_12">
      <g>
       <use style="stroke:#000000;stroke-width:0.5;" x="585.015354" xlink:href="#m4c7f4a1252" y="42.256877"/>
      </g>
     </g>
     <g id="text_4">
      <!-- $\mathregular{4.0×10^{-5}}$ -->
      <g transform="translate(25.863664 46.81594)scale(0.12 -0.12)">
       <defs>
        <path d="M 37.796875 64.3125 
L 12.890625 25.390625 
L 37.796875 25.390625 
z
M 35.203125 72.90625 
L 47.609375 72.90625 
L 47.609375 25.390625 
L 58.015625 25.390625 
L 58.015625 17.1875 
L 47.609375 17.1875 
L 47.609375 0 
L 37.796875 0 
L 37.796875 17.1875 
L 4.890625 17.1875 
L 4.890625 26.703125 
z
" id="DejaVuSans-52"/>
       </defs>
       <use transform="translate(0 0.684375)" xlink:href="#DejaVuSans-52"/>
       <use transform="translate(63.623047 0.684375)" xlink:href="#DejaVuSans-46"/>
       <use transform="translate(95.410156 0.684375)" xlink:href="#DejaVuSans-48"/>
       <use transform="translate(159.033203 0.684375)" xlink:href="#DejaVuSans-215"/>
       <use transform="translate(242.822266 0.684375)" xlink:href="#DejaVuSans-49"/>
       <use transform="translate(306.445312 0.684375)" xlink:href="#DejaVuSans-48"/>
       <use transform="translate(371.025391 38.965625)scale(0.7)" xlink:href="#DejaVuSans-8722"/>
       <use transform="translate(429.677734 38.965625)scale(0.7)" xlink:href="#DejaVuSans-53"/>
      </g>
     </g>
    </g>
    <g id="ytick_5">
     <g id="line2d_13">
      <path clip-path="url(#p6d07b3d8ed)" d="M 86.603664 29.979739 
L 585.015354 29.979739 
" style="fill:none;stroke:#000000;stroke-linecap:square;stroke-opacity:0.1;stroke-width:0.5;"/>
     </g>
     <g id="line2d_14">
      <g>
       <use style="stroke:#000000;stroke-width:0.5;" x="86.603664" xlink:href="#m88e444908c" y="29.979739"/>
      </g>
     </g>
     <g id="line2d_15">
      <g>
       <use style="stroke:#000000;stroke-width:0.5;" x="585.015354" xlink:href="#m4c7f4a1252" y="29.979739"/>
      </g>
     </g>
     <g id="text_5">
      <!-- $\mathregular{4.5×10^{-5}}$ -->
      <g transform="translate(25.863664 34.538802)scale(0.12 -0.12)">
       <use transform="translate(0 0.684375)" xlink:href="#DejaVuSans-52"/>
       <use transform="translate(63.623047 0.684375)" xlink:href="#DejaVuSans-46"/>
       <use transform="translate(95.410156 0.684375)" xlink:href="#DejaVuSans-53"/>
       <use transform="translate(159.033203 0.684375)" xlink:href="#DejaVuSans-215"/>
       <use transform="translate(242.822266 0.684375)" xlink:href="#DejaVuSans-49"/>
       <use transform="translate(306.445312 0.684375)" xlink:href="#DejaVuSans-48"/>
       <use transform="translate(371.025391 38.965625)scale(0.7)" xlink:href="#DejaVuSans-8722"/>
       <use transform="translate(429.677734 38.965625)scale(0.7)" xlink:href="#DejaVuSans-53"/>
      </g>
     </g>
    </g>
    <g id="ytick_6">
     <g id="line2d_16">
      <path clip-path="url(#p6d07b3d8ed)" d="M 86.603664 17.702602 
L 585.015354 17.702602 
" style="fill:none;stroke:#000000;stroke-linecap:square;stroke-opacity:0.1;stroke-width:0.5;"/>
     </g>
     <g id="line2d_17">
      <g>
       <use style="stroke:#000000;stroke-width:0.5;" x="86.603664" xlink:href="#m88e444908c" y="17.702602"/>
      </g>
     </g>
     <g id="line2d_18">
      <g>
       <use style="stroke:#000000;stroke-width:0.5;" x="585.015354" xlink:href="#m4c7f4a1252" y="17.702602"/>
      </g>
     </g>
     <g id="text_6">
      <!-- $\mathregular{5.0×10^{-5}}$ -->
      <g transform="translate(25.863664 22.261664)scale(0.12 -0.12)">
       <use transform="translate(0 0.684375)" xlink:href="#DejaVuSans-53"/>
       <use transform="translate(63.623047 0.684375)" xlink:href="#DejaVuSans-46"/>
       <use transform="translate(95.410156 0.684375)" xlink:href="#DejaVuSans-48"/>
       <use transform="translate(159.033203 0.684375)" xlink:href="#DejaVuSans-215"/>
       <use transform="translate(242.822266 0.684375)" xlink:href="#DejaVuSans-49"/>
       <use transform="translate(306.445312 0.684375)" xlink:href="#DejaVuSans-48"/>
       <use transform="translate(371.025391 38.965625)scale(0.7)" xlink:href="#DejaVuSans-8722"/>
       <use transform="translate(429.677734 38.965625)scale(0.7)" xlink:href="#DejaVuSans-53"/>
      </g>
     </g>
    </g>
    <g id="ytick_7">
     <g id="line2d_19">
      <path clip-path="url(#p6d07b3d8ed)" d="M 86.603664 5.425464 
L 585.015354 5.425464 
" style="fill:none;stroke:#000000;stroke-linecap:square;stroke-opacity:0.1;stroke-width:0.5;"/>
     </g>
     <g id="line2d_20">
      <g>
       <use style="stroke:#000000;stroke-width:0.5;" x="86.603664" xlink:href="#m88e444908c" y="5.425464"/>
      </g>
     </g>
     <g id="line2d_21">
      <g>
       <use style="stroke:#000000;stroke-width:0.5;" x="585.015354" xlink:href="#m4c7f4a1252" y="5.425464"/>
      </g>
     </g>
     <g id="text_7">
      <!-- $\mathregular{5.5×10^{-5}}$ -->
      <g transform="translate(25.863664 9.984526)scale(0.12 -0.12)">
       <use transform="translate(0 0.684375)" xlink:href="#DejaVuSans-53"/>
       <use transform="translate(63.623047 0.684375)" xlink:href="#DejaVuSans-46"/>
       <use transform="translate(95.410156 0.684375)" xlink:href="#DejaVuSans-53"/>
       <use transform="translate(159.033203 0.684375)" xlink:href="#DejaVuSans-215"/>
       <use transform="translate(242.822266 0.684375)" xlink:href="#DejaVuSans-49"/>
       <use transform="translate(306.445312 0.684375)" xlink:href="#DejaVuSans-48"/>
       <use transform="translate(371.025391 38.965625)scale(0.7)" xlink:href="#DejaVuSans-8722"/>
       <use transform="translate(429.677734 38.965625)scale(0.7)" xlink:href="#DejaVuSans-53"/>
      </g>
     </g>
    </g>
    <g id="text_8">
     <!-- $Y_{CH_4}$ -->
     <g transform="translate(17.383664 58.086146)rotate(-90)scale(0.16 -0.16)">
      <defs>
       <path d="M 6.296875 72.90625 
L 16.890625 72.90625 
L 30.515625 42.921875 
L 56.5 72.90625 
L 67.578125 72.90625 
L 34.515625 34.71875 
L 27.78125 0 
L 17.921875 0 
L 24.609375 34.71875 
z
" id="DejaVuSans-Oblique-89"/>
       <path d="M 69.484375 67.28125 
L 67.484375 56.890625 
Q 62.796875 61.625 57.546875 63.921875 
Q 52.296875 66.21875 46.1875 66.21875 
Q 37.84375 66.21875 31.515625 62.203125 
Q 25.203125 58.203125 20.609375 50 
Q 17.671875 44.734375 16.125 38.84375 
Q 14.59375 32.953125 14.59375 27 
Q 14.59375 17.046875 19.75 11.8125 
Q 24.90625 6.59375 34.71875 6.59375 
Q 41.5 6.59375 47.75 8.765625 
Q 54 10.9375 59.90625 15.28125 
L 57.625 3.609375 
Q 51.8125 1.125 45.875 -0.140625 
Q 39.9375 -1.421875 33.984375 -1.421875 
Q 19.96875 -1.421875 12.078125 6.1875 
Q 4.203125 13.8125 4.203125 27.390625 
Q 4.203125 36.078125 7.203125 44.46875 
Q 10.203125 52.875 15.828125 59.8125 
Q 21.78125 67.1875 29.421875 70.703125 
Q 37.0625 74.21875 47.21875 74.21875 
Q 53.46875 74.21875 59.0625 72.484375 
Q 64.65625 70.75 69.484375 67.28125 
z
" id="DejaVuSans-Oblique-67"/>
       <path d="M 16.890625 72.90625 
L 26.8125 72.90625 
L 21 43.015625 
L 56.78125 43.015625 
L 62.59375 72.90625 
L 72.515625 72.90625 
L 58.296875 0 
L 48.390625 0 
L 55.171875 34.71875 
L 19.390625 34.71875 
L 12.59375 0 
L 2.6875 0 
z
" id="DejaVuSans-Oblique-72"/>
      </defs>
      <use transform="translate(0 0.09375)" xlink:href="#DejaVuSans-Oblique-89"/>
      <use transform="translate(61.083984 -16.3125)scale(0.7)" xlink:href="#DejaVuSans-Oblique-67"/>
      <use transform="translate(109.960938 -16.3125)scale(0.7)" xlink:href="#DejaVuSans-Oblique-72"/>
      <use transform="translate(162.597656 -27.796875)scale(0.49)" xlink:href="#DejaVuSans-52"/>
     </g>
    </g>
   </g>
   <g id="PathCollection_1">
    <defs>
     <path d="M 0 2 
C 0.530406 2 1.03916 1.789267 1.414214 1.414214 
C 1.789267 1.03916 2 0.530406 2 0 
C 2 -0.530406 1.789267 -1.03916 1.414214 -1.414214 
C 1.03916 -1.789267 0.530406 -2 0 -2 
C -0.530406 -2 -1.03916 -1.789267 -1.414214 -1.414214 
C -1.789267 -1.03916 -2 -0.530406 -2 0 
C -2 0.530406 -1.789267 1.03916 -1.414214 1.414214 
C -1.03916 1.789267 -0.530406 2 0 2 
z
" id="mf46f0743bb"/>
    </defs>
    <g clip-path="url(#p6d07b3d8ed)">
     <use x="100.709655" xlink:href="#mf46f0743bb" y="31.060889"/>
     <use x="105.459147" xlink:href="#mf46f0743bb" y="29.96694"/>
     <use x="110.208639" xlink:href="#mf46f0743bb" y="28.856708"/>
     <use x="114.958131" xlink:href="#mf46f0743bb" y="27.340929"/>
     <use x="119.707623" xlink:href="#mf46f0743bb" y="27.024995"/>
     <use x="124.457115" xlink:href="#mf46f0743bb" y="28.75432"/>
     <use x="129.206607" xlink:href="#mf46f0743bb" y="31.085721"/>
     <use x="133.956099" xlink:href="#mf46f0743bb" y="32.728527"/>
     <use x="138.705591" xlink:href="#mf46f0743bb" y="31.241055"/>
     <use x="143.455083" xlink:href="#mf46f0743bb" y="28.736037"/>
     <use x="148.204575" xlink:href="#mf46f0743bb" y="25.386167"/>
     <use x="152.954067" xlink:href="#mf46f0743bb" y="25.307972"/>
     <use x="157.703559" xlink:href="#mf46f0743bb" y="26.993571"/>
     <use x="162.453051" xlink:href="#mf46f0743bb" y="31.756019"/>
     <use x="167.202543" xlink:href="#mf46f0743bb" y="35.127304"/>
     <use x="171.952035" xlink:href="#mf46f0743bb" y="33.600222"/>
     <use x="176.701527" xlink:href="#mf46f0743bb" y="29.138597"/>
     <use x="181.451019" xlink:href="#mf46f0743bb" y="23.587107"/>
     <use x="186.200511" xlink:href="#mf46f0743bb" y="19.879342"/>
     <use x="190.950003" xlink:href="#mf46f0743bb" y="23.151012"/>
     <use x="195.699495" xlink:href="#mf46f0743bb" y="31.306771"/>
     <use x="200.448987" xlink:href="#mf46f0743bb" y="37.810043"/>
     <use x="205.198479" xlink:href="#mf46f0743bb" y="38.753455"/>
     <use x="209.947971" xlink:href="#mf46f0743bb" y="30.533606"/>
     <use x="214.697463" xlink:href="#mf46f0743bb" y="19.493089"/>
     <use x="219.446955" xlink:href="#mf46f0743bb" y="13.09013"/>
     <use x="224.196447" xlink:href="#mf46f0743bb" y="15.247503"/>
     <use x="228.945939" xlink:href="#mf46f0743bb" y="28.34088"/>
     <use x="233.695431" xlink:href="#mf46f0743bb" y="43.294692"/>
     <use x="238.444923" xlink:href="#mf46f0743bb" y="46.059256"/>
     <use x="243.194415" xlink:href="#mf46f0743bb" y="35.306787"/>
     <use x="247.943907" xlink:href="#mf46f0743bb" y="17.901234"/>
     <use x="252.693399" xlink:href="#mf46f0743bb" y="5.060957"/>
     <use x="257.442891" xlink:href="#mf46f0743bb" y="7.529715"/>
     <use x="262.192383" xlink:href="#mf46f0743bb" y="32.169551"/>
     <use x="266.941875" xlink:href="#mf46f0743bb" y="58.08472"/>
     <use x="271.691367" xlink:href="#mf46f0743bb" y="58.784188"/>
     <use x="276.440859" xlink:href="#mf46f0743bb" y="44.257891"/>
     <use x="281.190351" xlink:href="#mf46f0743bb" y="26.697259"/>
     <use x="285.939843" xlink:href="#mf46f0743bb" y="16.474684"/>
     <use x="290.689335" xlink:href="#mf46f0743bb" y="27.659399"/>
     <use x="295.438827" xlink:href="#mf46f0743bb" y="53.495655"/>
     <use x="300.188319" xlink:href="#mf46f0743bb" y="64.081379"/>
     <use x="304.937811" xlink:href="#mf46f0743bb" y="57.317559"/>
     <use x="309.687303" xlink:href="#mf46f0743bb" y="45.421577"/>
     <use x="314.436795" xlink:href="#mf46f0743bb" y="39.516109"/>
     <use x="319.186287" xlink:href="#mf46f0743bb" y="43.057914"/>
     <use x="323.935779" xlink:href="#mf46f0743bb" y="55.556603"/>
     <use x="328.685271" xlink:href="#mf46f0743bb" y="62.874294"/>
     <use x="333.434763" xlink:href="#mf46f0743bb" y="60.588268"/>
     <use x="338.184255" xlink:href="#mf46f0743bb" y="56.327088"/>
     <use x="342.933747" xlink:href="#mf46f0743bb" y="54.926423"/>
     <use x="347.683239" xlink:href="#mf46f0743bb" y="57.324589"/>
     <use x="352.432731" xlink:href="#mf46f0743bb" y="61.770516"/>
     <use x="357.182223" xlink:href="#mf46f0743bb" y="63.443437"/>
     <use x="361.931715" xlink:href="#mf46f0743bb" y="64.109024"/>
     <use x="366.681207" xlink:href="#mf46f0743bb" y="63.466249"/>
     <use x="371.430699" xlink:href="#mf46f0743bb" y="64.49242"/>
     <use x="376.180191" xlink:href="#mf46f0743bb" y="65.369502"/>
     <use x="380.929683" xlink:href="#mf46f0743bb" y="67.134843"/>
     <use x="385.679175" xlink:href="#mf46f0743bb" y="68.556203"/>
     <use x="390.428667" xlink:href="#mf46f0743bb" y="69.334814"/>
     <use x="395.178159" xlink:href="#mf46f0743bb" y="69.5588"/>
     <use x="399.927651" xlink:href="#mf46f0743bb" y="70.807523"/>
     <use x="404.677143" xlink:href="#mf46f0743bb" y="71.982988"/>
     <use x="409.426635" xlink:href="#mf46f0743bb" y="71.926446"/>
     <use x="414.176127" xlink:href="#mf46f0743bb" y="73.494841"/>
     <use x="418.925619" xlink:href="#mf46f0743bb" y="73.178075"/>
     <use x="423.675111" xlink:href="#mf46f0743bb" y="74.46188"/>
     <use x="428.424603" xlink:href="#mf46f0743bb" y="74.982419"/>
     <use x="433.174095" xlink:href="#mf46f0743bb" y="75.832478"/>
     <use x="437.923587" xlink:href="#mf46f0743bb" y="75.702849"/>
     <use x="442.673079" xlink:href="#mf46f0743bb" y="76.391113"/>
     <use x="447.422571" xlink:href="#mf46f0743bb" y="76.381311"/>
     <use x="452.172063" xlink:href="#mf46f0743bb" y="76.098955"/>
     <use x="456.921555" xlink:href="#mf46f0743bb" y="76.155863"/>
     <use x="461.671047" xlink:href="#mf46f0743bb" y="76.70493"/>
     <use x="466.420539" xlink:href="#mf46f0743bb" y="76.395217"/>
     <use x="471.170031" xlink:href="#mf46f0743bb" y="76.848248"/>
     <use x="475.919523" xlink:href="#mf46f0743bb" y="77.102009"/>
     <use x="480.669015" xlink:href="#mf46f0743bb" y="76.749092"/>
     <use x="485.418507" xlink:href="#mf46f0743bb" y="77.698053"/>
     <use x="490.167999" xlink:href="#mf46f0743bb" y="76.511282"/>
     <use x="494.917491" xlink:href="#mf46f0743bb" y="76.706336"/>
     <use x="499.666983" xlink:href="#mf46f0743bb" y="77.603517"/>
     <use x="504.416475" xlink:href="#mf46f0743bb" y="77.242804"/>
     <use x="509.165967" xlink:href="#mf46f0743bb" y="77.311551"/>
     <use x="513.915459" xlink:href="#mf46f0743bb" y="77.508476"/>
     <use x="518.664951" xlink:href="#mf46f0743bb" y="77.919423"/>
     <use x="523.414443" xlink:href="#mf46f0743bb" y="77.207831"/>
     <use x="528.163935" xlink:href="#mf46f0743bb" y="77.658667"/>
     <use x="532.913427" xlink:href="#mf46f0743bb" y="78.280197"/>
     <use x="537.662919" xlink:href="#mf46f0743bb" y="77.097088"/>
     <use x="542.412411" xlink:href="#mf46f0743bb" y="78.539087"/>
     <use x="547.161903" xlink:href="#mf46f0743bb" y="77.510646"/>
     <use x="551.911395" xlink:href="#mf46f0743bb" y="77.900321"/>
     <use x="556.660887" xlink:href="#mf46f0743bb" y="78.312194"/>
     <use x="561.410379" xlink:href="#mf46f0743bb" y="78.676526"/>
     <use x="566.159871" xlink:href="#mf46f0743bb" y="77.789364"/>
     <use x="570.909363" xlink:href="#mf46f0743bb" y="77.548172"/>
    </g>
   </g>
   <g id="line2d_22">
    <path clip-path="url(#p6d07b3d8ed)" d="M 100.709655 30.90263 
L 105.459147 30.388102 
L 110.208639 29.410859 
L 114.958131 28.598664 
L 119.707623 28.587138 
L 124.457115 29.527705 
L 129.206607 30.853982 
L 133.956099 31.584701 
L 138.705591 31.054528 
L 143.455083 29.468781 
L 148.204575 27.836414 
L 152.954067 27.397604 
L 157.703559 28.750942 
L 162.453051 31.198089 
L 167.202543 32.991549 
L 171.952035 32.643732 
L 176.701527 30.1616 
L 181.451019 27.082985 
L 186.200511 25.637767 
L 190.950003 27.370972 
L 195.699495 31.654588 
L 200.448987 35.482974 
L 205.198479 35.781202 
L 209.947971 32.108181 
L 214.697463 26.781514 
L 219.446955 23.51506 
L 224.196447 25.496888 
L 228.945939 32.588625 
L 233.695431 39.776705 
L 238.444923 41.195998 
L 243.194415 36.014146 
L 247.943907 27.979979 
L 252.693399 22.779584 
L 257.442891 25.578213 
L 262.192383 36.465175 
L 266.941875 46.978829 
L 271.691367 48.280295 
L 276.440859 41.249121 
L 281.190351 32.238777 
L 285.939843 28.563759 
L 290.689335 35.098197 
L 295.438827 47.970561 
L 300.188319 55.33484 
L 304.937811 52.94306 
L 309.687303 46.412257 
L 314.436795 42.707747 
L 319.186287 45.984598 
L 323.935779 53.835075 
L 328.685271 59.031574 
L 333.434763 58.924409 
L 338.184255 56.819911 
L 342.933747 56.444098 
L 347.683239 58.764364 
L 352.432731 61.843077 
L 357.182223 63.619505 
L 361.931715 64.116245 
L 366.681207 64.488908 
L 371.430699 65.405028 
L 376.180191 66.650312 
L 380.929683 67.751505 
L 385.679175 68.563267 
L 390.428667 69.237999 
L 395.178159 69.921317 
L 399.927651 70.622211 
L 404.677143 71.286138 
L 409.426635 71.882577 
L 414.176127 72.422859 
L 418.925619 72.926651 
L 423.675111 73.40185 
L 428.424603 73.846698 
L 433.174095 74.259655 
L 437.923587 74.642073 
L 442.673079 74.997456 
L 447.422571 75.328631 
L 452.172063 75.637738 
L 456.921555 75.925852 
L 461.671047 76.194194 
L 466.420539 76.444481 
L 471.170031 76.678281 
L 475.919523 76.896501 
L 480.669015 77.100618 
L 485.418507 77.291402 
L 490.167999 77.470088 
L 494.917491 77.637278 
L 499.666983 77.794053 
L 504.416475 77.940953 
L 509.165967 78.078838 
L 513.915459 78.208237 
L 518.664951 78.329719 
L 523.414443 78.443928 
L 528.163935 78.551165 
L 532.913427 78.6521 
L 537.662919 78.746968 
L 542.412411 78.836207 
L 547.161903 78.920232 
L 551.911395 78.999216 
L 556.660887 79.073619 
L 561.410379 79.143621 
L 566.159871 79.209405 
L 570.909363 79.271334 
" style="fill:none;stroke:#ff0000;"/>
   </g>
   <g id="patch_3">
    <path d="M 86.603664 81.497646 
L 86.603664 2.834646 
" style="fill:none;stroke:#000000;stroke-linecap:square;stroke-linejoin:miter;"/>
   </g>
   <g id="patch_4">
    <path d="M 585.015354 81.497646 
L 585.015354 2.834646 
" style="fill:none;stroke:#000000;stroke-linecap:square;stroke-linejoin:miter;"/>
   </g>
   <g id="patch_5">
    <path d="M 86.603664 81.497646 
L 585.015354 81.497646 
" style="fill:none;stroke:#000000;stroke-linecap:square;stroke-linejoin:miter;"/>
   </g>
   <g id="patch_6">
    <path d="M 86.603664 2.834646 
L 585.015354 2.834646 
" style="fill:none;stroke:#000000;stroke-linecap:square;stroke-linejoin:miter;"/>
   </g>
  </g>
  <g id="axes_2">
   <g id="patch_7">
    <path d="M 86.603664 165.829937 
L 585.015354 165.829937 
L 585.015354 87.166937 
L 86.603664 87.166937 
z
" style="fill:#ffffff;"/>
   </g>
   <g id="matplotlib.axis_3">
    <g id="xtick_7"/>
    <g id="xtick_8"/>
    <g id="xtick_9"/>
    <g id="xtick_10"/>
    <g id="xtick_11"/>
    <g id="xtick_12"/>
   </g>
   <g id="matplotlib.axis_4">
    <g id="ytick_8">
     <g id="line2d_23">
      <path clip-path="url(#p517e174ffd)" d="M 86.603664 163.705797 
L 585.015354 163.705797 
" style="fill:none;stroke:#000000;stroke-linecap:square;stroke-opacity:0.1;stroke-width:0.5;"/>
     </g>
     <g id="line2d_24">
      <g>
       <use style="stroke:#000000;stroke-width:0.5;" x="86.603664" xlink:href="#m88e444908c" y="163.705797"/>
      </g>
     </g>
     <g id="line2d_25">
      <g>
       <use style="stroke:#000000;stroke-width:0.5;" x="585.015354" xlink:href="#m4c7f4a1252" y="163.705797"/>
      </g>
     </g>
     <g id="text_9">
      <!-- $\mathregular{0.00115}$ -->
      <g transform="translate(33.423664 168.26486)scale(0.12 -0.12)">
       <use transform="translate(0 0.78125)" xlink:href="#DejaVuSans-48"/>
       <use transform="translate(63.623047 0.78125)" xlink:href="#DejaVuSans-46"/>
       <use transform="translate(95.410156 0.78125)" xlink:href="#DejaVuSans-48"/>
       <use transform="translate(159.033203 0.78125)" xlink:href="#DejaVuSans-48"/>
       <use transform="translate(222.65625 0.78125)" xlink:href="#DejaVuSans-49"/>
       <use transform="translate(286.279297 0.78125)" xlink:href="#DejaVuSans-49"/>
       <use transform="translate(349.902344 0.78125)" xlink:href="#DejaVuSans-53"/>
      </g>
     </g>
    </g>
    <g id="ytick_9">
     <g id="line2d_26">
      <path clip-path="url(#p517e174ffd)" d="M 86.603664 151.663059 
L 585.015354 151.663059 
" style="fill:none;stroke:#000000;stroke-linecap:square;stroke-opacity:0.1;stroke-width:0.5;"/>
     </g>
     <g id="line2d_27">
      <g>
       <use style="stroke:#000000;stroke-width:0.5;" x="86.603664" xlink:href="#m88e444908c" y="151.663059"/>
      </g>
     </g>
     <g id="line2d_28">
      <g>
       <use style="stroke:#000000;stroke-width:0.5;" x="585.015354" xlink:href="#m4c7f4a1252" y="151.663059"/>
      </g>
     </g>
     <g id="text_10">
      <!-- $\mathregular{0.00120}$ -->
      <g transform="translate(33.423664 156.222122)scale(0.12 -0.12)">
       <use transform="translate(0 0.78125)" xlink:href="#DejaVuSans-48"/>
       <use transform="translate(63.623047 0.78125)" xlink:href="#DejaVuSans-46"/>
       <use transform="translate(95.410156 0.78125)" xlink:href="#DejaVuSans-48"/>
       <use transform="translate(159.033203 0.78125)" xlink:href="#DejaVuSans-48"/>
       <use transform="translate(222.65625 0.78125)" xlink:href="#DejaVuSans-49"/>
       <use transform="translate(286.279297 0.78125)" xlink:href="#DejaVuSans-50"/>
       <use transform="translate(349.902344 0.78125)" xlink:href="#DejaVuSans-48"/>
      </g>
     </g>
    </g>
    <g id="ytick_10">
     <g id="line2d_29">
      <path clip-path="url(#p517e174ffd)" d="M 86.603664 139.620321 
L 585.015354 139.620321 
" style="fill:none;stroke:#000000;stroke-linecap:square;stroke-opacity:0.1;stroke-width:0.5;"/>
     </g>
     <g id="line2d_30">
      <g>
       <use style="stroke:#000000;stroke-width:0.5;" x="86.603664" xlink:href="#m88e444908c" y="139.620321"/>
      </g>
     </g>
     <g id="line2d_31">
      <g>
       <use style="stroke:#000000;stroke-width:0.5;" x="585.015354" xlink:href="#m4c7f4a1252" y="139.620321"/>
      </g>
     </g>
     <g id="text_11">
      <!-- $\mathregular{0.00125}$ -->
      <g transform="translate(33.423664 144.179384)scale(0.12 -0.12)">
       <use transform="translate(0 0.78125)" xlink:href="#DejaVuSans-48"/>
       <use transform="translate(63.623047 0.78125)" xlink:href="#DejaVuSans-46"/>
       <use transform="translate(95.410156 0.78125)" xlink:href="#DejaVuSans-48"/>
       <use transform="translate(159.033203 0.78125)" xlink:href="#DejaVuSans-48"/>
       <use transform="translate(222.65625 0.78125)" xlink:href="#DejaVuSans-49"/>
       <use transform="translate(286.279297 0.78125)" xlink:href="#DejaVuSans-50"/>
       <use transform="translate(349.902344 0.78125)" xlink:href="#DejaVuSans-53"/>
      </g>
     </g>
    </g>
    <g id="ytick_11">
     <g id="line2d_32">
      <path clip-path="url(#p517e174ffd)" d="M 86.603664 127.577583 
L 585.015354 127.577583 
" style="fill:none;stroke:#000000;stroke-linecap:square;stroke-opacity:0.1;stroke-width:0.5;"/>
     </g>
     <g id="line2d_33">
      <g>
       <use style="stroke:#000000;stroke-width:0.5;" x="86.603664" xlink:href="#m88e444908c" y="127.577583"/>
      </g>
     </g>
     <g id="line2d_34">
      <g>
       <use style="stroke:#000000;stroke-width:0.5;" x="585.015354" xlink:href="#m4c7f4a1252" y="127.577583"/>
      </g>
     </g>
     <g id="text_12">
      <!-- $\mathregular{0.00130}$ -->
      <g transform="translate(33.423664 132.136646)scale(0.12 -0.12)">
       <use transform="translate(0 0.78125)" xlink:href="#DejaVuSans-48"/>
       <use transform="translate(63.623047 0.78125)" xlink:href="#DejaVuSans-46"/>
       <use transform="translate(95.410156 0.78125)" xlink:href="#DejaVuSans-48"/>
       <use transform="translate(159.033203 0.78125)" xlink:href="#DejaVuSans-48"/>
       <use transform="translate(222.65625 0.78125)" xlink:href="#DejaVuSans-49"/>
       <use transform="translate(286.279297 0.78125)" xlink:href="#DejaVuSans-51"/>
       <use transform="translate(349.902344 0.78125)" xlink:href="#DejaVuSans-48"/>
      </g>
     </g>
    </g>
    <g id="ytick_12">
     <g id="line2d_35">
      <path clip-path="url(#p517e174ffd)" d="M 86.603664 115.534846 
L 585.015354 115.534846 
" style="fill:none;stroke:#000000;stroke-linecap:square;stroke-opacity:0.1;stroke-width:0.5;"/>
     </g>
     <g id="line2d_36">
      <g>
       <use style="stroke:#000000;stroke-width:0.5;" x="86.603664" xlink:href="#m88e444908c" y="115.534846"/>
      </g>
     </g>
     <g id="line2d_37">
      <g>
       <use style="stroke:#000000;stroke-width:0.5;" x="585.015354" xlink:href="#m4c7f4a1252" y="115.534846"/>
      </g>
     </g>
     <g id="text_13">
      <!-- $\mathregular{0.00135}$ -->
      <g transform="translate(33.423664 120.093908)scale(0.12 -0.12)">
       <use transform="translate(0 0.78125)" xlink:href="#DejaVuSans-48"/>
       <use transform="translate(63.623047 0.78125)" xlink:href="#DejaVuSans-46"/>
       <use transform="translate(95.410156 0.78125)" xlink:href="#DejaVuSans-48"/>
       <use transform="translate(159.033203 0.78125)" xlink:href="#DejaVuSans-48"/>
       <use transform="translate(222.65625 0.78125)" xlink:href="#DejaVuSans-49"/>
       <use transform="translate(286.279297 0.78125)" xlink:href="#DejaVuSans-51"/>
       <use transform="translate(349.902344 0.78125)" xlink:href="#DejaVuSans-53"/>
      </g>
     </g>
    </g>
    <g id="ytick_13">
     <g id="line2d_38">
      <path clip-path="url(#p517e174ffd)" d="M 86.603664 103.492108 
L 585.015354 103.492108 
" style="fill:none;stroke:#000000;stroke-linecap:square;stroke-opacity:0.1;stroke-width:0.5;"/>
     </g>
     <g id="line2d_39">
      <g>
       <use style="stroke:#000000;stroke-width:0.5;" x="86.603664" xlink:href="#m88e444908c" y="103.492108"/>
      </g>
     </g>
     <g id="line2d_40">
      <g>
       <use style="stroke:#000000;stroke-width:0.5;" x="585.015354" xlink:href="#m4c7f4a1252" y="103.492108"/>
      </g>
     </g>
     <g id="text_14">
      <!-- $\mathregular{0.00140}$ -->
      <g transform="translate(33.423664 108.05117)scale(0.12 -0.12)">
       <use transform="translate(0 0.78125)" xlink:href="#DejaVuSans-48"/>
       <use transform="translate(63.623047 0.78125)" xlink:href="#DejaVuSans-46"/>
       <use transform="translate(95.410156 0.78125)" xlink:href="#DejaVuSans-48"/>
       <use transform="translate(159.033203 0.78125)" xlink:href="#DejaVuSans-48"/>
       <use transform="translate(222.65625 0.78125)" xlink:href="#DejaVuSans-49"/>
       <use transform="translate(286.279297 0.78125)" xlink:href="#DejaVuSans-52"/>
       <use transform="translate(349.902344 0.78125)" xlink:href="#DejaVuSans-48"/>
      </g>
     </g>
    </g>
    <g id="ytick_14">
     <g id="line2d_41">
      <path clip-path="url(#p517e174ffd)" d="M 86.603664 91.44937 
L 585.015354 91.44937 
" style="fill:none;stroke:#000000;stroke-linecap:square;stroke-opacity:0.1;stroke-width:0.5;"/>
     </g>
     <g id="line2d_42">
      <g>
       <use style="stroke:#000000;stroke-width:0.5;" x="86.603664" xlink:href="#m88e444908c" y="91.44937"/>
      </g>
     </g>
     <g id="line2d_43">
      <g>
       <use style="stroke:#000000;stroke-width:0.5;" x="585.015354" xlink:href="#m4c7f4a1252" y="91.44937"/>
      </g>
     </g>
     <g id="text_15">
      <!-- $\mathregular{0.00145}$ -->
      <g transform="translate(33.423664 96.008432)scale(0.12 -0.12)">
       <use transform="translate(0 0.78125)" xlink:href="#DejaVuSans-48"/>
       <use transform="translate(63.623047 0.78125)" xlink:href="#DejaVuSans-46"/>
       <use transform="translate(95.410156 0.78125)" xlink:href="#DejaVuSans-48"/>
       <use transform="translate(159.033203 0.78125)" xlink:href="#DejaVuSans-48"/>
       <use transform="translate(222.65625 0.78125)" xlink:href="#DejaVuSans-49"/>
       <use transform="translate(286.279297 0.78125)" xlink:href="#DejaVuSans-52"/>
       <use transform="translate(349.902344 0.78125)" xlink:href="#DejaVuSans-53"/>
      </g>
     </g>
    </g>
    <g id="text_16">
     <!-- $Y_{CO}$ -->
     <g transform="translate(26.096164 139.938437)rotate(-90)scale(0.16 -0.16)">
      <defs>
       <path d="M 45.609375 66.21875 
Q 37.5 66.21875 31.296875 62.28125 
Q 25.09375 58.34375 20.515625 50.296875 
Q 17.578125 45.171875 16.03125 39.40625 
Q 14.5 33.640625 14.5 27.78125 
Q 14.5 17.625 19.359375 12.109375 
Q 24.21875 6.59375 33.109375 6.59375 
Q 41.109375 6.59375 47.375 10.5625 
Q 53.65625 14.546875 58.109375 22.40625 
Q 61.078125 27.6875 62.640625 33.46875 
Q 64.203125 39.265625 64.203125 45.015625 
Q 64.203125 55.125 59.3125 60.671875 
Q 54.4375 66.21875 45.609375 66.21875 
z
M 32.8125 -1.421875 
Q 19.390625 -1.421875 11.6875 6.53125 
Q 4 14.5 4 28.328125 
Q 4 36.234375 7 44.484375 
Q 10.015625 52.734375 15.28125 59.1875 
Q 21.484375 66.75 29.09375 70.484375 
Q 36.71875 74.21875 45.90625 74.21875 
Q 59.28125 74.21875 66.984375 66.328125 
Q 74.703125 58.453125 74.703125 44.828125 
Q 74.703125 36.421875 71.765625 28.3125 
Q 68.84375 20.21875 63.375 13.625 
Q 57.125 6 49.578125 2.28125 
Q 42.046875 -1.421875 32.8125 -1.421875 
z
" id="DejaVuSans-Oblique-79"/>
      </defs>
      <use transform="translate(0 0.09375)" xlink:href="#DejaVuSans-Oblique-89"/>
      <use transform="translate(61.083984 -16.3125)scale(0.7)" xlink:href="#DejaVuSans-Oblique-67"/>
      <use transform="translate(109.960938 -16.3125)scale(0.7)" xlink:href="#DejaVuSans-Oblique-79"/>
     </g>
    </g>
   </g>
   <g id="PathCollection_2">
    <g clip-path="url(#p517e174ffd)">
     <use x="100.709655" xlink:href="#mf46f0743bb" y="108.437789"/>
     <use x="105.459147" xlink:href="#mf46f0743bb" y="109.401421"/>
     <use x="110.208639" xlink:href="#mf46f0743bb" y="108.813618"/>
     <use x="114.958131" xlink:href="#mf46f0743bb" y="106.236059"/>
     <use x="119.707623" xlink:href="#mf46f0743bb" y="105.73036"/>
     <use x="124.457115" xlink:href="#mf46f0743bb" y="105.658751"/>
     <use x="129.206607" xlink:href="#mf46f0743bb" y="107.477576"/>
     <use x="133.956099" xlink:href="#mf46f0743bb" y="108.357169"/>
     <use x="138.705591" xlink:href="#mf46f0743bb" y="109.356757"/>
     <use x="143.455083" xlink:href="#mf46f0743bb" y="109.523464"/>
     <use x="148.204575" xlink:href="#mf46f0743bb" y="105.938558"/>
     <use x="152.954067" xlink:href="#mf46f0743bb" y="104.015299"/>
     <use x="157.703559" xlink:href="#mf46f0743bb" y="102.93193"/>
     <use x="162.453051" xlink:href="#mf46f0743bb" y="104.933212"/>
     <use x="167.202543" xlink:href="#mf46f0743bb" y="109.306033"/>
     <use x="171.952035" xlink:href="#mf46f0743bb" y="112.220622"/>
     <use x="176.701527" xlink:href="#mf46f0743bb" y="110.436003"/>
     <use x="181.451019" xlink:href="#mf46f0743bb" y="107.830931"/>
     <use x="186.200511" xlink:href="#mf46f0743bb" y="102.78342"/>
     <use x="190.950003" xlink:href="#mf46f0743bb" y="100.063657"/>
     <use x="195.699495" xlink:href="#mf46f0743bb" y="102.813554"/>
     <use x="200.448987" xlink:href="#mf46f0743bb" y="108.961596"/>
     <use x="205.198479" xlink:href="#mf46f0743bb" y="114.117037"/>
     <use x="209.947971" xlink:href="#mf46f0743bb" y="114.806958"/>
     <use x="214.697463" xlink:href="#mf46f0743bb" y="109.135539"/>
     <use x="219.446955" xlink:href="#mf46f0743bb" y="100.815878"/>
     <use x="224.196447" xlink:href="#mf46f0743bb" y="93.478079"/>
     <use x="228.945939" xlink:href="#mf46f0743bb" y="94.274496"/>
     <use x="233.695431" xlink:href="#mf46f0743bb" y="105.401735"/>
     <use x="238.444923" xlink:href="#mf46f0743bb" y="119.086676"/>
     <use x="243.194415" xlink:href="#mf46f0743bb" y="122.17198"/>
     <use x="247.943907" xlink:href="#mf46f0743bb" y="114.224295"/>
     <use x="252.693399" xlink:href="#mf46f0743bb" y="101.065018"/>
     <use x="257.442891" xlink:href="#mf46f0743bb" y="89.393248"/>
     <use x="262.192383" xlink:href="#mf46f0743bb" y="90.301301"/>
     <use x="266.941875" xlink:href="#mf46f0743bb" y="113.157076"/>
     <use x="271.691367" xlink:href="#mf46f0743bb" y="133.501257"/>
     <use x="276.440859" xlink:href="#mf46f0743bb" y="135.459855"/>
     <use x="281.190351" xlink:href="#mf46f0743bb" y="124.546357"/>
     <use x="285.939843" xlink:href="#mf46f0743bb" y="109.738249"/>
     <use x="290.689335" xlink:href="#mf46f0743bb" y="101.92922"/>
     <use x="295.438827" xlink:href="#mf46f0743bb" y="110.264855"/>
     <use x="300.188319" xlink:href="#mf46f0743bb" y="131.433066"/>
     <use x="304.937811" xlink:href="#mf46f0743bb" y="141.214508"/>
     <use x="309.687303" xlink:href="#mf46f0743bb" y="136.543407"/>
     <use x="314.436795" xlink:href="#mf46f0743bb" y="127.302954"/>
     <use x="319.186287" xlink:href="#mf46f0743bb" y="122.918154"/>
     <use x="323.935779" xlink:href="#mf46f0743bb" y="126.041596"/>
     <use x="328.685271" xlink:href="#mf46f0743bb" y="135.878923"/>
     <use x="333.434763" xlink:href="#mf46f0743bb" y="141.788847"/>
     <use x="338.184255" xlink:href="#mf46f0743bb" y="140.190426"/>
     <use x="342.933747" xlink:href="#mf46f0743bb" y="137.57347"/>
     <use x="347.683239" xlink:href="#mf46f0743bb" y="136.830326"/>
     <use x="352.432731" xlink:href="#mf46f0743bb" y="139.571783"/>
     <use x="357.182223" xlink:href="#mf46f0743bb" y="143.333498"/>
     <use x="361.931715" xlink:href="#mf46f0743bb" y="145.0752"/>
     <use x="366.681207" xlink:href="#mf46f0743bb" y="145.475482"/>
     <use x="371.430699" xlink:href="#mf46f0743bb" y="145.290807"/>
     <use x="376.180191" xlink:href="#mf46f0743bb" y="146.600177"/>
     <use x="380.929683" xlink:href="#mf46f0743bb" y="148.074948"/>
     <use x="385.679175" xlink:href="#mf46f0743bb" y="149.505654"/>
     <use x="390.428667" xlink:href="#mf46f0743bb" y="150.493131"/>
     <use x="395.178159" xlink:href="#mf46f0743bb" y="151.520092"/>
     <use x="399.927651" xlink:href="#mf46f0743bb" y="151.839523"/>
     <use x="404.677143" xlink:href="#mf46f0743bb" y="152.75699"/>
     <use x="409.426635" xlink:href="#mf46f0743bb" y="154.301817"/>
     <use x="414.176127" xlink:href="#mf46f0743bb" y="154.47701"/>
     <use x="418.925619" xlink:href="#mf46f0743bb" y="155.907441"/>
     <use x="423.675111" xlink:href="#mf46f0743bb" y="157.148708"/>
     <use x="428.424603" xlink:href="#mf46f0743bb" y="156.807552"/>
     <use x="433.174095" xlink:href="#mf46f0743bb" y="158.661271"/>
     <use x="437.923587" xlink:href="#mf46f0743bb" y="159.192361"/>
     <use x="442.673079" xlink:href="#mf46f0743bb" y="158.762108"/>
     <use x="447.422571" xlink:href="#mf46f0743bb" y="159.031496"/>
     <use x="452.172063" xlink:href="#mf46f0743bb" y="159.807315"/>
     <use x="456.921555" xlink:href="#mf46f0743bb" y="159.176158"/>
     <use x="461.671047" xlink:href="#mf46f0743bb" y="160.011518"/>
     <use x="466.420539" xlink:href="#mf46f0743bb" y="160.061873"/>
     <use x="471.170031" xlink:href="#mf46f0743bb" y="159.17144"/>
     <use x="475.919523" xlink:href="#mf46f0743bb" y="160.092613"/>
     <use x="480.669015" xlink:href="#mf46f0743bb" y="160.212143"/>
     <use x="485.418507" xlink:href="#mf46f0743bb" y="160.977957"/>
     <use x="490.167999" xlink:href="#mf46f0743bb" y="161.036169"/>
     <use x="494.917491" xlink:href="#mf46f0743bb" y="161.120119"/>
     <use x="499.666983" xlink:href="#mf46f0743bb" y="160.491221"/>
     <use x="504.416475" xlink:href="#mf46f0743bb" y="160.18939"/>
     <use x="509.165967" xlink:href="#mf46f0743bb" y="160.480621"/>
     <use x="513.915459" xlink:href="#mf46f0743bb" y="161.226397"/>
     <use x="518.664951" xlink:href="#mf46f0743bb" y="161.89871"/>
     <use x="523.414443" xlink:href="#mf46f0743bb" y="161.407382"/>
     <use x="528.163935" xlink:href="#mf46f0743bb" y="161.219468"/>
     <use x="532.913427" xlink:href="#mf46f0743bb" y="161.63856"/>
     <use x="537.662919" xlink:href="#mf46f0743bb" y="162.233885"/>
     <use x="542.412411" xlink:href="#mf46f0743bb" y="161.7668"/>
     <use x="547.161903" xlink:href="#mf46f0743bb" y="162.095189"/>
     <use x="551.911395" xlink:href="#mf46f0743bb" y="162.286772"/>
     <use x="556.660887" xlink:href="#mf46f0743bb" y="161.861393"/>
     <use x="561.410379" xlink:href="#mf46f0743bb" y="162.543269"/>
     <use x="566.159871" xlink:href="#mf46f0743bb" y="162.572353"/>
     <use x="570.909363" xlink:href="#mf46f0743bb" y="163.126758"/>
    </g>
   </g>
   <g id="line2d_44">
    <path clip-path="url(#p517e174ffd)" d="M 100.709655 108.597406 
L 105.459147 108.919215 
L 110.208639 108.557758 
L 114.958131 107.749553 
L 119.707623 107.027053 
L 124.457115 106.95251 
L 129.206607 107.703397 
L 133.956099 108.835578 
L 138.705591 109.516163 
L 143.455083 109.153762 
L 148.204575 107.860835 
L 152.954067 106.444638 
L 157.703559 105.966275 
L 162.453051 107.024159 
L 167.202543 109.101472 
L 171.952035 110.713527 
L 176.701527 110.575468 
L 181.451019 108.607105 
L 186.200511 105.99373 
L 190.950003 104.601378 
L 195.699495 105.905241 
L 200.448987 109.535719 
L 205.198479 112.91332 
L 209.947971 113.42355 
L 214.697463 110.610611 
L 219.446955 106.19464 
L 224.196447 103.188784 
L 228.945939 104.590881 
L 233.695431 110.64764 
L 238.444923 116.922113 
L 243.194415 118.509356 
L 247.943907 114.690556 
L 252.693399 108.188209 
L 257.442891 103.506697 
L 262.192383 105.561567 
L 266.941875 115.015891 
L 271.691367 124.07262 
L 276.440859 125.744843 
L 281.190351 120.675953 
L 285.939843 113.456714 
L 290.689335 110.14346 
L 295.438827 115.749058 
L 300.188319 126.795143 
L 304.937811 133.192733 
L 309.687303 132.092663 
L 314.436795 127.391545 
L 319.186287 124.579505 
L 323.935779 127.514832 
L 328.685271 134.187848 
L 333.434763 138.754032 
L 338.184255 139.334823 
L 342.933747 138.24135 
L 347.683239 138.337122 
L 352.432731 140.47962 
L 357.182223 143.210042 
L 361.931715 145.000294 
L 366.681207 145.827744 
L 371.430699 146.499892 
L 376.180191 147.518664 
L 380.929683 148.758827 
L 385.679175 149.890681 
L 390.428667 150.802424 
L 395.178159 151.589851 
L 399.927651 152.356127 
L 404.677143 153.115888 
L 409.426635 153.834803 
L 414.176127 154.492967 
L 418.925619 155.096497 
L 423.675111 155.659745 
L 428.424603 156.190141 
L 433.174095 156.688266 
L 437.923587 157.154088 
L 442.673079 157.58915 
L 447.422571 157.996322 
L 452.172063 158.378861 
L 456.921555 158.738808 
L 461.671047 159.077454 
L 466.420539 159.396488 
L 471.170031 159.697704 
L 475.919523 159.982209 
L 480.669015 160.25164 
L 485.418507 160.506938 
L 490.167999 160.749476 
L 494.917491 160.979976 
L 499.666983 161.199592 
L 504.416475 161.408961 
L 509.165967 161.609018 
L 513.915459 161.800365 
L 518.664951 161.983628 
L 523.414443 162.15949 
L 528.163935 162.32831 
L 532.913427 162.490778 
L 537.662919 162.647174 
L 542.412411 162.797955 
L 547.161903 162.943551 
L 551.911395 163.084172 
L 556.660887 163.220281 
L 561.410379 163.352075 
L 566.159871 163.479744 
L 570.909363 163.603625 
" style="fill:none;stroke:#ff0000;"/>
   </g>
   <g id="patch_8">
    <path d="M 86.603664 165.829937 
L 86.603664 87.166937 
" style="fill:none;stroke:#000000;stroke-linecap:square;stroke-linejoin:miter;"/>
   </g>
   <g id="patch_9">
    <path d="M 585.015354 165.829937 
L 585.015354 87.166937 
" style="fill:none;stroke:#000000;stroke-linecap:square;stroke-linejoin:miter;"/>
   </g>
   <g id="patch_10">
    <path d="M 86.603664 165.829937 
L 585.015354 165.829937 
" style="fill:none;stroke:#000000;stroke-linecap:square;stroke-linejoin:miter;"/>
   </g>
   <g id="patch_11">
    <path d="M 86.603664 87.166937 
L 585.015354 87.166937 
" style="fill:none;stroke:#000000;stroke-linecap:square;stroke-linejoin:miter;"/>
   </g>
   <g id="legend_1">
    <g id="line2d_45">
     <path d="M 600.615354 116.802812 
L 624.615354 116.802812 
" style="fill:none;"/>
    </g>
    <g id="line2d_46">
     <defs>
      <path d="M 0 4.8 
C 1.272975 4.8 2.493983 4.294242 3.394113 3.394113 
C 4.294242 2.493983 4.8 1.272975 4.8 0 
C 4.8 -1.272975 4.294242 -2.493983 3.394113 -3.394113 
C 2.493983 -4.294242 1.272975 -4.8 0 -4.8 
C -1.272975 -4.8 -2.493983 -4.294242 -3.394113 -3.394113 
C -4.294242 -2.493983 -4.8 -1.272975 -4.8 0 
C -4.8 1.272975 -4.294242 2.493983 -3.394113 3.394113 
C -2.493983 4.294242 -1.272975 4.8 0 4.8 
z
" id="m594476f121"/>
     </defs>
     <g>
      <use x="612.615354" xlink:href="#m594476f121" y="116.802812"/>
     </g>
    </g>
    <g id="text_17">
     <!-- Groundtruth -->
     <g transform="translate(634.215354 121.002812)scale(0.12 -0.12)">
      <defs>
       <path d="M 59.515625 10.40625 
L 59.515625 29.984375 
L 43.40625 29.984375 
L 43.40625 38.09375 
L 69.28125 38.09375 
L 69.28125 6.78125 
Q 63.578125 2.734375 56.6875 0.65625 
Q 49.8125 -1.421875 42 -1.421875 
Q 24.90625 -1.421875 15.25 8.5625 
Q 5.609375 18.5625 5.609375 36.375 
Q 5.609375 54.25 15.25 64.234375 
Q 24.90625 74.21875 42 74.21875 
Q 49.125 74.21875 55.546875 72.453125 
Q 61.96875 70.703125 67.390625 67.28125 
L 67.390625 56.78125 
Q 61.921875 61.421875 55.765625 63.765625 
Q 49.609375 66.109375 42.828125 66.109375 
Q 29.4375 66.109375 22.71875 58.640625 
Q 16.015625 51.171875 16.015625 36.375 
Q 16.015625 21.625 22.71875 14.15625 
Q 29.4375 6.6875 42.828125 6.6875 
Q 48.046875 6.6875 52.140625 7.59375 
Q 56.25 8.5 59.515625 10.40625 
z
" id="DejaVuSans-71"/>
       <path d="M 41.109375 46.296875 
Q 39.59375 47.171875 37.8125 47.578125 
Q 36.03125 48 33.890625 48 
Q 26.265625 48 22.1875 43.046875 
Q 18.109375 38.09375 18.109375 28.8125 
L 18.109375 0 
L 9.078125 0 
L 9.078125 54.6875 
L 18.109375 54.6875 
L 18.109375 46.1875 
Q 20.953125 51.171875 25.484375 53.578125 
Q 30.03125 56 36.53125 56 
Q 37.453125 56 38.578125 55.875 
Q 39.703125 55.765625 41.0625 55.515625 
z
" id="DejaVuSans-114"/>
       <path d="M 30.609375 48.390625 
Q 23.390625 48.390625 19.1875 42.75 
Q 14.984375 37.109375 14.984375 27.296875 
Q 14.984375 17.484375 19.15625 11.84375 
Q 23.34375 6.203125 30.609375 6.203125 
Q 37.796875 6.203125 41.984375 11.859375 
Q 46.1875 17.53125 46.1875 27.296875 
Q 46.1875 37.015625 41.984375 42.703125 
Q 37.796875 48.390625 30.609375 48.390625 
z
M 30.609375 56 
Q 42.328125 56 49.015625 48.375 
Q 55.71875 40.765625 55.71875 27.296875 
Q 55.71875 13.875 49.015625 6.21875 
Q 42.328125 -1.421875 30.609375 -1.421875 
Q 18.84375 -1.421875 12.171875 6.21875 
Q 5.515625 13.875 5.515625 27.296875 
Q 5.515625 40.765625 12.171875 48.375 
Q 18.84375 56 30.609375 56 
z
" id="DejaVuSans-111"/>
       <path d="M 8.5 21.578125 
L 8.5 54.6875 
L 17.484375 54.6875 
L 17.484375 21.921875 
Q 17.484375 14.15625 20.5 10.265625 
Q 23.53125 6.390625 29.59375 6.390625 
Q 36.859375 6.390625 41.078125 11.03125 
Q 45.3125 15.671875 45.3125 23.6875 
L 45.3125 54.6875 
L 54.296875 54.6875 
L 54.296875 0 
L 45.3125 0 
L 45.3125 8.40625 
Q 42.046875 3.421875 37.71875 1 
Q 33.40625 -1.421875 27.6875 -1.421875 
Q 18.265625 -1.421875 13.375 4.4375 
Q 8.5 10.296875 8.5 21.578125 
z
M 31.109375 56 
z
" id="DejaVuSans-117"/>
       <path d="M 54.890625 33.015625 
L 54.890625 0 
L 45.90625 0 
L 45.90625 32.71875 
Q 45.90625 40.484375 42.875 44.328125 
Q 39.84375 48.1875 33.796875 48.1875 
Q 26.515625 48.1875 22.3125 43.546875 
Q 18.109375 38.921875 18.109375 30.90625 
L 18.109375 0 
L 9.078125 0 
L 9.078125 54.6875 
L 18.109375 54.6875 
L 18.109375 46.1875 
Q 21.34375 51.125 25.703125 53.5625 
Q 30.078125 56 35.796875 56 
Q 45.21875 56 50.046875 50.171875 
Q 54.890625 44.34375 54.890625 33.015625 
z
" id="DejaVuSans-110"/>
       <path d="M 45.40625 46.390625 
L 45.40625 75.984375 
L 54.390625 75.984375 
L 54.390625 0 
L 45.40625 0 
L 45.40625 8.203125 
Q 42.578125 3.328125 38.25 0.953125 
Q 33.9375 -1.421875 27.875 -1.421875 
Q 17.96875 -1.421875 11.734375 6.484375 
Q 5.515625 14.40625 5.515625 27.296875 
Q 5.515625 40.1875 11.734375 48.09375 
Q 17.96875 56 27.875 56 
Q 33.9375 56 38.25 53.625 
Q 42.578125 51.265625 45.40625 46.390625 
z
M 14.796875 27.296875 
Q 14.796875 17.390625 18.875 11.75 
Q 22.953125 6.109375 30.078125 6.109375 
Q 37.203125 6.109375 41.296875 11.75 
Q 45.40625 17.390625 45.40625 27.296875 
Q 45.40625 37.203125 41.296875 42.84375 
Q 37.203125 48.484375 30.078125 48.484375 
Q 22.953125 48.484375 18.875 42.84375 
Q 14.796875 37.203125 14.796875 27.296875 
z
" id="DejaVuSans-100"/>
       <path d="M 18.3125 70.21875 
L 18.3125 54.6875 
L 36.8125 54.6875 
L 36.8125 47.703125 
L 18.3125 47.703125 
L 18.3125 18.015625 
Q 18.3125 11.328125 20.140625 9.421875 
Q 21.96875 7.515625 27.59375 7.515625 
L 36.8125 7.515625 
L 36.8125 0 
L 27.59375 0 
Q 17.1875 0 13.234375 3.875 
Q 9.28125 7.765625 9.28125 18.015625 
L 9.28125 47.703125 
L 2.6875 47.703125 
L 2.6875 54.6875 
L 9.28125 54.6875 
L 9.28125 70.21875 
z
" id="DejaVuSans-116"/>
       <path d="M 54.890625 33.015625 
L 54.890625 0 
L 45.90625 0 
L 45.90625 32.71875 
Q 45.90625 40.484375 42.875 44.328125 
Q 39.84375 48.1875 33.796875 48.1875 
Q 26.515625 48.1875 22.3125 43.546875 
Q 18.109375 38.921875 18.109375 30.90625 
L 18.109375 0 
L 9.078125 0 
L 9.078125 75.984375 
L 18.109375 75.984375 
L 18.109375 46.1875 
Q 21.34375 51.125 25.703125 53.5625 
Q 30.078125 56 35.796875 56 
Q 45.21875 56 50.046875 50.171875 
Q 54.890625 44.34375 54.890625 33.015625 
z
" id="DejaVuSans-104"/>
      </defs>
      <use xlink:href="#DejaVuSans-71"/>
      <use x="77.490234" xlink:href="#DejaVuSans-114"/>
      <use x="116.353516" xlink:href="#DejaVuSans-111"/>
      <use x="177.535156" xlink:href="#DejaVuSans-117"/>
      <use x="240.914062" xlink:href="#DejaVuSans-110"/>
      <use x="304.292969" xlink:href="#DejaVuSans-100"/>
      <use x="367.769531" xlink:href="#DejaVuSans-116"/>
      <use x="406.978516" xlink:href="#DejaVuSans-114"/>
      <use x="448.091797" xlink:href="#DejaVuSans-117"/>
      <use x="511.470703" xlink:href="#DejaVuSans-116"/>
      <use x="550.679688" xlink:href="#DejaVuSans-104"/>
     </g>
    </g>
    <g id="line2d_47">
     <path d="M 600.615354 134.416562 
L 624.615354 134.416562 
" style="fill:none;stroke:#ff0000;stroke-linejoin:miter;stroke-width:1.5;"/>
    </g>
    <g id="line2d_48"/>
    <g id="text_18">
     <!-- Prediction -->
     <g transform="translate(634.215354 138.616562)scale(0.12 -0.12)">
      <defs>
       <path d="M 19.671875 64.796875 
L 19.671875 37.40625 
L 32.078125 37.40625 
Q 38.96875 37.40625 42.71875 40.96875 
Q 46.484375 44.53125 46.484375 51.125 
Q 46.484375 57.671875 42.71875 61.234375 
Q 38.96875 64.796875 32.078125 64.796875 
z
M 9.8125 72.90625 
L 32.078125 72.90625 
Q 44.34375 72.90625 50.609375 67.359375 
Q 56.890625 61.8125 56.890625 51.125 
Q 56.890625 40.328125 50.609375 34.8125 
Q 44.34375 29.296875 32.078125 29.296875 
L 19.671875 29.296875 
L 19.671875 0 
L 9.8125 0 
z
" id="DejaVuSans-80"/>
       <path d="M 56.203125 29.59375 
L 56.203125 25.203125 
L 14.890625 25.203125 
Q 15.484375 15.921875 20.484375 11.0625 
Q 25.484375 6.203125 34.421875 6.203125 
Q 39.59375 6.203125 44.453125 7.46875 
Q 49.3125 8.734375 54.109375 11.28125 
L 54.109375 2.78125 
Q 49.265625 0.734375 44.1875 -0.34375 
Q 39.109375 -1.421875 33.890625 -1.421875 
Q 20.796875 -1.421875 13.15625 6.1875 
Q 5.515625 13.8125 5.515625 26.8125 
Q 5.515625 40.234375 12.765625 48.109375 
Q 20.015625 56 32.328125 56 
Q 43.359375 56 49.78125 48.890625 
Q 56.203125 41.796875 56.203125 29.59375 
z
M 47.21875 32.234375 
Q 47.125 39.59375 43.09375 43.984375 
Q 39.0625 48.390625 32.421875 48.390625 
Q 24.90625 48.390625 20.390625 44.140625 
Q 15.875 39.890625 15.1875 32.171875 
z
" id="DejaVuSans-101"/>
       <path d="M 9.421875 54.6875 
L 18.40625 54.6875 
L 18.40625 0 
L 9.421875 0 
z
M 9.421875 75.984375 
L 18.40625 75.984375 
L 18.40625 64.59375 
L 9.421875 64.59375 
z
" id="DejaVuSans-105"/>
       <path d="M 48.78125 52.59375 
L 48.78125 44.1875 
Q 44.96875 46.296875 41.140625 47.34375 
Q 37.3125 48.390625 33.40625 48.390625 
Q 24.65625 48.390625 19.8125 42.84375 
Q 14.984375 37.3125 14.984375 27.296875 
Q 14.984375 17.28125 19.8125 11.734375 
Q 24.65625 6.203125 33.40625 6.203125 
Q 37.3125 6.203125 41.140625 7.25 
Q 44.96875 8.296875 48.78125 10.40625 
L 48.78125 2.09375 
Q 45.015625 0.34375 40.984375 -0.53125 
Q 36.96875 -1.421875 32.421875 -1.421875 
Q 20.0625 -1.421875 12.78125 6.34375 
Q 5.515625 14.109375 5.515625 27.296875 
Q 5.515625 40.671875 12.859375 48.328125 
Q 20.21875 56 33.015625 56 
Q 37.15625 56 41.109375 55.140625 
Q 45.0625 54.296875 48.78125 52.59375 
z
" id="DejaVuSans-99"/>
      </defs>
      <use xlink:href="#DejaVuSans-80"/>
      <use x="58.552734" xlink:href="#DejaVuSans-114"/>
      <use x="97.416016" xlink:href="#DejaVuSans-101"/>
      <use x="158.939453" xlink:href="#DejaVuSans-100"/>
      <use x="222.416016" xlink:href="#DejaVuSans-105"/>
      <use x="250.199219" xlink:href="#DejaVuSans-99"/>
      <use x="305.179688" xlink:href="#DejaVuSans-116"/>
      <use x="344.388672" xlink:href="#DejaVuSans-105"/>
      <use x="372.171875" xlink:href="#DejaVuSans-111"/>
      <use x="433.353516" xlink:href="#DejaVuSans-110"/>
     </g>
    </g>
   </g>
  </g>
  <g id="axes_3">
   <g id="patch_12">
    <path d="M 86.603664 250.305354 
L 585.015354 250.305354 
L 585.015354 171.642354 
L 86.603664 171.642354 
z
" style="fill:#ffffff;"/>
   </g>
   <g id="matplotlib.axis_5">
    <g id="xtick_13">
     <g id="line2d_49">
      <path clip-path="url(#p1f7dffd52f)" d="M 100.709655 250.305354 
L 100.709655 171.642354 
" style="fill:none;stroke:#000000;stroke-linecap:square;stroke-opacity:0.1;stroke-width:0.5;"/>
     </g>
     <g id="line2d_50">
      <defs>
       <path d="M 0 0 
L 0 -2.5 
" id="me6fed7ebba" style="stroke:#000000;stroke-width:0.5;"/>
      </defs>
      <g>
       <use style="stroke:#000000;stroke-width:0.5;" x="100.709655" xlink:href="#me6fed7ebba" y="250.305354"/>
      </g>
     </g>
     <g id="line2d_51">
      <defs>
       <path d="M 0 0 
L 0 2.5 
" id="m6ab5f731f5" style="stroke:#000000;stroke-width:0.5;"/>
      </defs>
      <g>
       <use style="stroke:#000000;stroke-width:0.5;" x="100.709655" xlink:href="#m6ab5f731f5" y="171.642354"/>
      </g>
     </g>
     <g id="text_19">
      <!-- $\mathregular{0.0}$ -->
      <g transform="translate(91.109655 262.923479)scale(0.12 -0.12)">
       <use transform="translate(0 0.78125)" xlink:href="#DejaVuSans-48"/>
       <use transform="translate(63.623047 0.78125)" xlink:href="#DejaVuSans-46"/>
       <use transform="translate(95.410156 0.78125)" xlink:href="#DejaVuSans-48"/>
      </g>
     </g>
    </g>
    <g id="xtick_14">
     <g id="line2d_52">
      <path clip-path="url(#p1f7dffd52f)" d="M 194.749597 250.305354 
L 194.749597 171.642354 
" style="fill:none;stroke:#000000;stroke-linecap:square;stroke-opacity:0.1;stroke-width:0.5;"/>
     </g>
     <g id="line2d_53">
      <g>
       <use style="stroke:#000000;stroke-width:0.5;" x="194.749597" xlink:href="#me6fed7ebba" y="250.305354"/>
      </g>
     </g>
     <g id="line2d_54">
      <g>
       <use style="stroke:#000000;stroke-width:0.5;" x="194.749597" xlink:href="#m6ab5f731f5" y="171.642354"/>
      </g>
     </g>
     <g id="text_20">
      <!-- $\mathregular{0.1}$ -->
      <g transform="translate(185.149597 262.923479)scale(0.12 -0.12)">
       <use transform="translate(0 0.78125)" xlink:href="#DejaVuSans-48"/>
       <use transform="translate(63.623047 0.78125)" xlink:href="#DejaVuSans-46"/>
       <use transform="translate(95.410156 0.78125)" xlink:href="#DejaVuSans-49"/>
      </g>
     </g>
    </g>
    <g id="xtick_15">
     <g id="line2d_55">
      <path clip-path="url(#p1f7dffd52f)" d="M 288.789538 250.305354 
L 288.789538 171.642354 
" style="fill:none;stroke:#000000;stroke-linecap:square;stroke-opacity:0.1;stroke-width:0.5;"/>
     </g>
     <g id="line2d_56">
      <g>
       <use style="stroke:#000000;stroke-width:0.5;" x="288.789538" xlink:href="#me6fed7ebba" y="250.305354"/>
      </g>
     </g>
     <g id="line2d_57">
      <g>
       <use style="stroke:#000000;stroke-width:0.5;" x="288.789538" xlink:href="#m6ab5f731f5" y="171.642354"/>
      </g>
     </g>
     <g id="text_21">
      <!-- $\mathregular{0.2}$ -->
      <g transform="translate(279.549538 262.923479)scale(0.12 -0.12)">
       <use transform="translate(0 0.78125)" xlink:href="#DejaVuSans-48"/>
       <use transform="translate(63.623047 0.78125)" xlink:href="#DejaVuSans-46"/>
       <use transform="translate(89.910156 0.78125)" xlink:href="#DejaVuSans-50"/>
      </g>
     </g>
    </g>
    <g id="xtick_16">
     <g id="line2d_58">
      <path clip-path="url(#p1f7dffd52f)" d="M 382.82948 250.305354 
L 382.82948 171.642354 
" style="fill:none;stroke:#000000;stroke-linecap:square;stroke-opacity:0.1;stroke-width:0.5;"/>
     </g>
     <g id="line2d_59">
      <g>
       <use style="stroke:#000000;stroke-width:0.5;" x="382.82948" xlink:href="#me6fed7ebba" y="250.305354"/>
      </g>
     </g>
     <g id="line2d_60">
      <g>
       <use style="stroke:#000000;stroke-width:0.5;" x="382.82948" xlink:href="#m6ab5f731f5" y="171.642354"/>
      </g>
     </g>
     <g id="text_22">
      <!-- $\mathregular{0.3}$ -->
      <g transform="translate(373.22948 262.923479)scale(0.12 -0.12)">
       <use transform="translate(0 0.78125)" xlink:href="#DejaVuSans-48"/>
       <use transform="translate(63.623047 0.78125)" xlink:href="#DejaVuSans-46"/>
       <use transform="translate(95.410156 0.78125)" xlink:href="#DejaVuSans-51"/>
      </g>
     </g>
    </g>
    <g id="xtick_17">
     <g id="line2d_61">
      <path clip-path="url(#p1f7dffd52f)" d="M 476.869421 250.305354 
L 476.869421 171.642354 
" style="fill:none;stroke:#000000;stroke-linecap:square;stroke-opacity:0.1;stroke-width:0.5;"/>
     </g>
     <g id="line2d_62">
      <g>
       <use style="stroke:#000000;stroke-width:0.5;" x="476.869421" xlink:href="#me6fed7ebba" y="250.305354"/>
      </g>
     </g>
     <g id="line2d_63">
      <g>
       <use style="stroke:#000000;stroke-width:0.5;" x="476.869421" xlink:href="#m6ab5f731f5" y="171.642354"/>
      </g>
     </g>
     <g id="text_23">
      <!-- $\mathregular{0.4}$ -->
      <g transform="translate(467.269421 262.923479)scale(0.12 -0.12)">
       <use transform="translate(0 0.78125)" xlink:href="#DejaVuSans-48"/>
       <use transform="translate(63.623047 0.78125)" xlink:href="#DejaVuSans-46"/>
       <use transform="translate(95.410156 0.78125)" xlink:href="#DejaVuSans-52"/>
      </g>
     </g>
    </g>
    <g id="xtick_18">
     <g id="line2d_64">
      <path clip-path="url(#p1f7dffd52f)" d="M 570.909363 250.305354 
L 570.909363 171.642354 
" style="fill:none;stroke:#000000;stroke-linecap:square;stroke-opacity:0.1;stroke-width:0.5;"/>
     </g>
     <g id="line2d_65">
      <g>
       <use style="stroke:#000000;stroke-width:0.5;" x="570.909363" xlink:href="#me6fed7ebba" y="250.305354"/>
      </g>
     </g>
     <g id="line2d_66">
      <g>
       <use style="stroke:#000000;stroke-width:0.5;" x="570.909363" xlink:href="#m6ab5f731f5" y="171.642354"/>
      </g>
     </g>
     <g id="text_24">
      <!-- $\mathregular{0.5}$ -->
      <g transform="translate(561.309363 262.923479)scale(0.12 -0.12)">
       <use transform="translate(0 0.78125)" xlink:href="#DejaVuSans-48"/>
       <use transform="translate(63.623047 0.78125)" xlink:href="#DejaVuSans-46"/>
       <use transform="translate(95.410156 0.78125)" xlink:href="#DejaVuSans-53"/>
      </g>
     </g>
    </g>
    <g id="text_25">
     <!-- Time [s] -->
     <g transform="translate(303.283259 281.576604)scale(0.16 -0.16)">
      <defs>
       <path d="M -0.296875 72.90625 
L 61.375 72.90625 
L 61.375 64.59375 
L 35.5 64.59375 
L 35.5 0 
L 25.59375 0 
L 25.59375 64.59375 
L -0.296875 64.59375 
z
" id="DejaVuSans-84"/>
       <path d="M 52 44.1875 
Q 55.375 50.25 60.0625 53.125 
Q 64.75 56 71.09375 56 
Q 79.640625 56 84.28125 50.015625 
Q 88.921875 44.046875 88.921875 33.015625 
L 88.921875 0 
L 79.890625 0 
L 79.890625 32.71875 
Q 79.890625 40.578125 77.09375 44.375 
Q 74.3125 48.1875 68.609375 48.1875 
Q 61.625 48.1875 57.5625 43.546875 
Q 53.515625 38.921875 53.515625 30.90625 
L 53.515625 0 
L 44.484375 0 
L 44.484375 32.71875 
Q 44.484375 40.625 41.703125 44.40625 
Q 38.921875 48.1875 33.109375 48.1875 
Q 26.21875 48.1875 22.15625 43.53125 
Q 18.109375 38.875 18.109375 30.90625 
L 18.109375 0 
L 9.078125 0 
L 9.078125 54.6875 
L 18.109375 54.6875 
L 18.109375 46.1875 
Q 21.1875 51.21875 25.484375 53.609375 
Q 29.78125 56 35.6875 56 
Q 41.65625 56 45.828125 52.96875 
Q 50 49.953125 52 44.1875 
z
" id="DejaVuSans-109"/>
       <path id="DejaVuSans-32"/>
       <path d="M 8.59375 75.984375 
L 29.296875 75.984375 
L 29.296875 69 
L 17.578125 69 
L 17.578125 -6.203125 
L 29.296875 -6.203125 
L 29.296875 -13.1875 
L 8.59375 -13.1875 
z
" id="DejaVuSans-91"/>
       <path d="M 44.28125 53.078125 
L 44.28125 44.578125 
Q 40.484375 46.53125 36.375 47.5 
Q 32.28125 48.484375 27.875 48.484375 
Q 21.1875 48.484375 17.84375 46.4375 
Q 14.5 44.390625 14.5 40.28125 
Q 14.5 37.15625 16.890625 35.375 
Q 19.28125 33.59375 26.515625 31.984375 
L 29.59375 31.296875 
Q 39.15625 29.25 43.1875 25.515625 
Q 47.21875 21.78125 47.21875 15.09375 
Q 47.21875 7.46875 41.1875 3.015625 
Q 35.15625 -1.421875 24.609375 -1.421875 
Q 20.21875 -1.421875 15.453125 -0.5625 
Q 10.6875 0.296875 5.421875 2 
L 5.421875 11.28125 
Q 10.40625 8.6875 15.234375 7.390625 
Q 20.0625 6.109375 24.8125 6.109375 
Q 31.15625 6.109375 34.5625 8.28125 
Q 37.984375 10.453125 37.984375 14.40625 
Q 37.984375 18.0625 35.515625 20.015625 
Q 33.0625 21.96875 24.703125 23.78125 
L 21.578125 24.515625 
Q 13.234375 26.265625 9.515625 29.90625 
Q 5.8125 33.546875 5.8125 39.890625 
Q 5.8125 47.609375 11.28125 51.796875 
Q 16.75 56 26.8125 56 
Q 31.78125 56 36.171875 55.265625 
Q 40.578125 54.546875 44.28125 53.078125 
z
" id="DejaVuSans-115"/>
       <path d="M 30.421875 75.984375 
L 30.421875 -13.1875 
L 9.71875 -13.1875 
L 9.71875 -6.203125 
L 21.390625 -6.203125 
L 21.390625 69 
L 9.71875 69 
L 9.71875 75.984375 
z
" id="DejaVuSans-93"/>
      </defs>
      <use xlink:href="#DejaVuSans-84"/>
      <use x="57.958984" xlink:href="#DejaVuSans-105"/>
      <use x="85.742188" xlink:href="#DejaVuSans-109"/>
      <use x="183.154297" xlink:href="#DejaVuSans-101"/>
      <use x="244.677734" xlink:href="#DejaVuSans-32"/>
      <use x="276.464844" xlink:href="#DejaVuSans-91"/>
      <use x="315.478516" xlink:href="#DejaVuSans-115"/>
      <use x="367.578125" xlink:href="#DejaVuSans-93"/>
     </g>
    </g>
   </g>
   <g id="matplotlib.axis_6">
    <g id="ytick_15">
     <g id="line2d_67">
      <path clip-path="url(#p1f7dffd52f)" d="M 86.603664 235.747267 
L 585.015354 235.747267 
" style="fill:none;stroke:#000000;stroke-linecap:square;stroke-opacity:0.1;stroke-width:0.5;"/>
     </g>
     <g id="line2d_68">
      <g>
       <use style="stroke:#000000;stroke-width:0.5;" x="86.603664" xlink:href="#m88e444908c" y="235.747267"/>
      </g>
     </g>
     <g id="line2d_69">
      <g>
       <use style="stroke:#000000;stroke-width:0.5;" x="585.015354" xlink:href="#m4c7f4a1252" y="235.747267"/>
      </g>
     </g>
     <g id="text_26">
      <!-- $\mathregular{1267.5}$ -->
      <g transform="translate(41.103664 240.30633)scale(0.12 -0.12)">
       <defs>
        <path d="M 33.015625 40.375 
Q 26.375 40.375 22.484375 35.828125 
Q 18.609375 31.296875 18.609375 23.390625 
Q 18.609375 15.53125 22.484375 10.953125 
Q 26.375 6.390625 33.015625 6.390625 
Q 39.65625 6.390625 43.53125 10.953125 
Q 47.40625 15.53125 47.40625 23.390625 
Q 47.40625 31.296875 43.53125 35.828125 
Q 39.65625 40.375 33.015625 40.375 
z
M 52.59375 71.296875 
L 52.59375 62.3125 
Q 48.875 64.0625 45.09375 64.984375 
Q 41.3125 65.921875 37.59375 65.921875 
Q 27.828125 65.921875 22.671875 59.328125 
Q 17.53125 52.734375 16.796875 39.40625 
Q 19.671875 43.65625 24.015625 45.921875 
Q 28.375 48.1875 33.59375 48.1875 
Q 44.578125 48.1875 50.953125 41.515625 
Q 57.328125 34.859375 57.328125 23.390625 
Q 57.328125 12.15625 50.6875 5.359375 
Q 44.046875 -1.421875 33.015625 -1.421875 
Q 20.359375 -1.421875 13.671875 8.265625 
Q 6.984375 17.96875 6.984375 36.375 
Q 6.984375 53.65625 15.1875 63.9375 
Q 23.390625 74.21875 37.203125 74.21875 
Q 40.921875 74.21875 44.703125 73.484375 
Q 48.484375 72.75 52.59375 71.296875 
z
" id="DejaVuSans-54"/>
        <path d="M 8.203125 72.90625 
L 55.078125 72.90625 
L 55.078125 68.703125 
L 28.609375 0 
L 18.3125 0 
L 43.21875 64.59375 
L 8.203125 64.59375 
z
" id="DejaVuSans-55"/>
       </defs>
       <use transform="translate(0 0.78125)" xlink:href="#DejaVuSans-49"/>
       <use transform="translate(63.623047 0.78125)" xlink:href="#DejaVuSans-50"/>
       <use transform="translate(127.246094 0.78125)" xlink:href="#DejaVuSans-54"/>
       <use transform="translate(190.869141 0.78125)" xlink:href="#DejaVuSans-55"/>
       <use transform="translate(254.492188 0.78125)" xlink:href="#DejaVuSans-46"/>
       <use transform="translate(286.279297 0.78125)" xlink:href="#DejaVuSans-53"/>
      </g>
     </g>
    </g>
    <g id="ytick_16">
     <g id="line2d_70">
      <path clip-path="url(#p1f7dffd52f)" d="M 86.603664 218.721718 
L 585.015354 218.721718 
" style="fill:none;stroke:#000000;stroke-linecap:square;stroke-opacity:0.1;stroke-width:0.5;"/>
     </g>
     <g id="line2d_71">
      <g>
       <use style="stroke:#000000;stroke-width:0.5;" x="86.603664" xlink:href="#m88e444908c" y="218.721718"/>
      </g>
     </g>
     <g id="line2d_72">
      <g>
       <use style="stroke:#000000;stroke-width:0.5;" x="585.015354" xlink:href="#m4c7f4a1252" y="218.721718"/>
      </g>
     </g>
     <g id="text_27">
      <!-- $\mathregular{1270.0}$ -->
      <g transform="translate(41.103664 223.280781)scale(0.12 -0.12)">
       <use transform="translate(0 0.78125)" xlink:href="#DejaVuSans-49"/>
       <use transform="translate(63.623047 0.78125)" xlink:href="#DejaVuSans-50"/>
       <use transform="translate(127.246094 0.78125)" xlink:href="#DejaVuSans-55"/>
       <use transform="translate(190.869141 0.78125)" xlink:href="#DejaVuSans-48"/>
       <use transform="translate(254.492188 0.78125)" xlink:href="#DejaVuSans-46"/>
       <use transform="translate(286.279297 0.78125)" xlink:href="#DejaVuSans-48"/>
      </g>
     </g>
    </g>
    <g id="ytick_17">
     <g id="line2d_73">
      <path clip-path="url(#p1f7dffd52f)" d="M 86.603664 201.696169 
L 585.015354 201.696169 
" style="fill:none;stroke:#000000;stroke-linecap:square;stroke-opacity:0.1;stroke-width:0.5;"/>
     </g>
     <g id="line2d_74">
      <g>
       <use style="stroke:#000000;stroke-width:0.5;" x="86.603664" xlink:href="#m88e444908c" y="201.696169"/>
      </g>
     </g>
     <g id="line2d_75">
      <g>
       <use style="stroke:#000000;stroke-width:0.5;" x="585.015354" xlink:href="#m4c7f4a1252" y="201.696169"/>
      </g>
     </g>
     <g id="text_28">
      <!-- $\mathregular{1272.5}$ -->
      <g transform="translate(41.103664 206.255231)scale(0.12 -0.12)">
       <use transform="translate(0 0.78125)" xlink:href="#DejaVuSans-49"/>
       <use transform="translate(63.623047 0.78125)" xlink:href="#DejaVuSans-50"/>
       <use transform="translate(127.246094 0.78125)" xlink:href="#DejaVuSans-55"/>
       <use transform="translate(190.869141 0.78125)" xlink:href="#DejaVuSans-50"/>
       <use transform="translate(254.492188 0.78125)" xlink:href="#DejaVuSans-46"/>
       <use transform="translate(286.279297 0.78125)" xlink:href="#DejaVuSans-53"/>
      </g>
     </g>
    </g>
    <g id="ytick_18">
     <g id="line2d_76">
      <path clip-path="url(#p1f7dffd52f)" d="M 86.603664 184.67062 
L 585.015354 184.67062 
" style="fill:none;stroke:#000000;stroke-linecap:square;stroke-opacity:0.1;stroke-width:0.5;"/>
     </g>
     <g id="line2d_77">
      <g>
       <use style="stroke:#000000;stroke-width:0.5;" x="86.603664" xlink:href="#m88e444908c" y="184.67062"/>
      </g>
     </g>
     <g id="line2d_78">
      <g>
       <use style="stroke:#000000;stroke-width:0.5;" x="585.015354" xlink:href="#m4c7f4a1252" y="184.67062"/>
      </g>
     </g>
     <g id="text_29">
      <!-- $\mathregular{1275.0}$ -->
      <g transform="translate(41.103664 189.229682)scale(0.12 -0.12)">
       <use transform="translate(0 0.78125)" xlink:href="#DejaVuSans-49"/>
       <use transform="translate(63.623047 0.78125)" xlink:href="#DejaVuSans-50"/>
       <use transform="translate(127.246094 0.78125)" xlink:href="#DejaVuSans-55"/>
       <use transform="translate(190.869141 0.78125)" xlink:href="#DejaVuSans-53"/>
       <use transform="translate(254.492188 0.78125)" xlink:href="#DejaVuSans-46"/>
       <use transform="translate(286.279297 0.78125)" xlink:href="#DejaVuSans-48"/>
      </g>
     </g>
    </g>
    <g id="text_30">
     <!-- T [K] -->
     <g transform="translate(33.776164 229.891354)rotate(-90)scale(0.16 -0.16)">
      <defs>
       <path d="M 9.8125 72.90625 
L 19.671875 72.90625 
L 19.671875 42.09375 
L 52.390625 72.90625 
L 65.09375 72.90625 
L 28.90625 38.921875 
L 67.671875 0 
L 54.6875 0 
L 19.671875 35.109375 
L 19.671875 0 
L 9.8125 0 
z
" id="DejaVuSans-75"/>
      </defs>
      <use xlink:href="#DejaVuSans-84"/>
      <use x="61.083984" xlink:href="#DejaVuSans-32"/>
      <use x="92.871094" xlink:href="#DejaVuSans-91"/>
      <use x="131.884766" xlink:href="#DejaVuSans-75"/>
      <use x="197.460938" xlink:href="#DejaVuSans-93"/>
     </g>
    </g>
   </g>
   <g id="PathCollection_3">
    <g clip-path="url(#p1f7dffd52f)">
     <use x="100.709655" xlink:href="#mf46f0743bb" y="236.792357"/>
     <use x="105.459147" xlink:href="#mf46f0743bb" y="237.49151"/>
     <use x="110.208639" xlink:href="#mf46f0743bb" y="237.616144"/>
     <use x="114.958131" xlink:href="#mf46f0743bb" y="238.222755"/>
     <use x="119.707623" xlink:href="#mf46f0743bb" y="238.671268"/>
     <use x="124.457115" xlink:href="#mf46f0743bb" y="238.051838"/>
     <use x="129.206607" xlink:href="#mf46f0743bb" y="238.195027"/>
     <use x="133.956099" xlink:href="#mf46f0743bb" y="237.060362"/>
     <use x="138.705591" xlink:href="#mf46f0743bb" y="236.356839"/>
     <use x="143.455083" xlink:href="#mf46f0743bb" y="237.111114"/>
     <use x="148.204575" xlink:href="#mf46f0743bb" y="239.134445"/>
     <use x="152.954067" xlink:href="#mf46f0743bb" y="239.43438"/>
     <use x="157.703559" xlink:href="#mf46f0743bb" y="238.969071"/>
     <use x="162.453051" xlink:href="#mf46f0743bb" y="238.626721"/>
     <use x="167.202543" xlink:href="#mf46f0743bb" y="236.593468"/>
     <use x="171.952035" xlink:href="#mf46f0743bb" y="236.150168"/>
     <use x="176.701527" xlink:href="#mf46f0743bb" y="236.729325"/>
     <use x="181.451019" xlink:href="#mf46f0743bb" y="238.949653"/>
     <use x="186.200511" xlink:href="#mf46f0743bb" y="240.781522"/>
     <use x="190.950003" xlink:href="#mf46f0743bb" y="241.286428"/>
     <use x="195.699495" xlink:href="#mf46f0743bb" y="239.642654"/>
     <use x="200.448987" xlink:href="#mf46f0743bb" y="236.692012"/>
     <use x="205.198479" xlink:href="#mf46f0743bb" y="234.881525"/>
     <use x="209.947971" xlink:href="#mf46f0743bb" y="235.856554"/>
     <use x="214.697463" xlink:href="#mf46f0743bb" y="239.409401"/>
     <use x="219.446955" xlink:href="#mf46f0743bb" y="244.003559"/>
     <use x="224.196447" xlink:href="#mf46f0743bb" y="245.638588"/>
     <use x="228.945939" xlink:href="#mf46f0743bb" y="242.649199"/>
     <use x="233.695431" xlink:href="#mf46f0743bb" y="236.835442"/>
     <use x="238.444923" xlink:href="#mf46f0743bb" y="233.106273"/>
     <use x="243.194415" xlink:href="#mf46f0743bb" y="233.532538"/>
     <use x="247.943907" xlink:href="#mf46f0743bb" y="238.56068"/>
     <use x="252.693399" xlink:href="#mf46f0743bb" y="244.785116"/>
     <use x="257.442891" xlink:href="#mf46f0743bb" y="248.079043"/>
     <use x="262.192383" xlink:href="#mf46f0743bb" y="243.580768"/>
     <use x="266.941875" xlink:href="#mf46f0743bb" y="232.265155"/>
     <use x="271.691367" xlink:href="#mf46f0743bb" y="225.66629"/>
     <use x="276.440859" xlink:href="#mf46f0743bb" y="227.024837"/>
     <use x="281.190351" xlink:href="#mf46f0743bb" y="232.852802"/>
     <use x="285.939843" xlink:href="#mf46f0743bb" y="239.619703"/>
     <use x="290.689335" xlink:href="#mf46f0743bb" y="239.577701"/>
     <use x="295.438827" xlink:href="#mf46f0743bb" y="233.046808"/>
     <use x="300.188319" xlink:href="#mf46f0743bb" y="224.474947"/>
     <use x="304.937811" xlink:href="#mf46f0743bb" y="222.639241"/>
     <use x="309.687303" xlink:href="#mf46f0743bb" y="225.477259"/>
     <use x="314.436795" xlink:href="#mf46f0743bb" y="227.910763"/>
     <use x="319.186287" xlink:href="#mf46f0743bb" y="229.10301"/>
     <use x="323.935779" xlink:href="#mf46f0743bb" y="225.819737"/>
     <use x="328.685271" xlink:href="#mf46f0743bb" y="221.350173"/>
     <use x="333.434763" xlink:href="#mf46f0743bb" y="219.364682"/>
     <use x="338.184255" xlink:href="#mf46f0743bb" y="219.196737"/>
     <use x="342.933747" xlink:href="#mf46f0743bb" y="219.816978"/>
     <use x="347.683239" xlink:href="#mf46f0743bb" y="219.95689"/>
     <use x="352.432731" xlink:href="#mf46f0743bb" y="217.595225"/>
     <use x="357.182223" xlink:href="#mf46f0743bb" y="215.58196"/>
     <use x="361.931715" xlink:href="#mf46f0743bb" y="214.478867"/>
     <use x="366.681207" xlink:href="#mf46f0743bb" y="213.275729"/>
     <use x="371.430699" xlink:href="#mf46f0743bb" y="213.323023"/>
     <use x="376.180191" xlink:href="#mf46f0743bb" y="212.010863"/>
     <use x="380.929683" xlink:href="#mf46f0743bb" y="209.709348"/>
     <use x="385.679175" xlink:href="#mf46f0743bb" y="208.857927"/>
     <use x="390.428667" xlink:href="#mf46f0743bb" y="207.961945"/>
     <use x="395.178159" xlink:href="#mf46f0743bb" y="206.106014"/>
     <use x="399.927651" xlink:href="#mf46f0743bb" y="205.547149"/>
     <use x="404.677143" xlink:href="#mf46f0743bb" y="204.030825"/>
     <use x="409.426635" xlink:href="#mf46f0743bb" y="202.558793"/>
     <use x="414.176127" xlink:href="#mf46f0743bb" y="201.694891"/>
     <use x="418.925619" xlink:href="#mf46f0743bb" y="200.915144"/>
     <use x="423.675111" xlink:href="#mf46f0743bb" y="199.133407"/>
     <use x="428.424603" xlink:href="#mf46f0743bb" y="197.566226"/>
     <use x="433.174095" xlink:href="#mf46f0743bb" y="196.752799"/>
     <use x="437.923587" xlink:href="#mf46f0743bb" y="194.749546"/>
     <use x="442.673079" xlink:href="#mf46f0743bb" y="194.595873"/>
     <use x="447.422571" xlink:href="#mf46f0743bb" y="193.060418"/>
     <use x="452.172063" xlink:href="#mf46f0743bb" y="192.071157"/>
     <use x="456.921555" xlink:href="#mf46f0743bb" y="191.329351"/>
     <use x="461.671047" xlink:href="#mf46f0743bb" y="189.827706"/>
     <use x="466.420539" xlink:href="#mf46f0743bb" y="188.909503"/>
     <use x="471.170031" xlink:href="#mf46f0743bb" y="188.78978"/>
     <use x="475.919523" xlink:href="#mf46f0743bb" y="188.230237"/>
     <use x="480.669015" xlink:href="#mf46f0743bb" y="186.350499"/>
     <use x="485.418507" xlink:href="#mf46f0743bb" y="185.567953"/>
     <use x="490.167999" xlink:href="#mf46f0743bb" y="185.210991"/>
     <use x="494.917491" xlink:href="#mf46f0743bb" y="185.206144"/>
     <use x="499.666983" xlink:href="#mf46f0743bb" y="183.21983"/>
     <use x="504.416475" xlink:href="#mf46f0743bb" y="183.567055"/>
     <use x="509.165967" xlink:href="#mf46f0743bb" y="182.178931"/>
     <use x="513.915459" xlink:href="#mf46f0743bb" y="181.910564"/>
     <use x="518.664951" xlink:href="#mf46f0743bb" y="181.110334"/>
     <use x="523.414443" xlink:href="#mf46f0743bb" y="180.088227"/>
     <use x="528.163935" xlink:href="#mf46f0743bb" y="179.052896"/>
     <use x="532.913427" xlink:href="#mf46f0743bb" y="178.891348"/>
     <use x="537.662919" xlink:href="#mf46f0743bb" y="178.299734"/>
     <use x="542.412411" xlink:href="#mf46f0743bb" y="177.957266"/>
     <use x="547.161903" xlink:href="#mf46f0743bb" y="176.936707"/>
     <use x="551.911395" xlink:href="#mf46f0743bb" y="176.71952"/>
     <use x="556.660887" xlink:href="#mf46f0743bb" y="176.763671"/>
     <use x="561.410379" xlink:href="#mf46f0743bb" y="175.747266"/>
     <use x="566.159871" xlink:href="#mf46f0743bb" y="175.078705"/>
     <use x="570.909363" xlink:href="#mf46f0743bb" y="174.698889"/>
    </g>
   </g>
   <g id="line2d_79">
    <path clip-path="url(#p1f7dffd52f)" d="M 100.709655 236.672273 
L 105.459147 236.744232 
L 110.208639 237.07046 
L 114.958131 237.503384 
L 119.707623 237.782406 
L 124.457115 237.71109 
L 129.206607 237.325011 
L 133.956099 236.913535 
L 138.705591 236.834356 
L 143.455083 237.239048 
L 148.204575 237.938405 
L 152.954067 238.487563 
L 157.703559 238.463689 
L 162.453051 237.796718 
L 167.202543 236.920174 
L 171.952035 236.514468 
L 176.701527 236.975148 
L 181.451019 238.097713 
L 186.200511 239.164687 
L 190.950003 239.347877 
L 195.699495 238.302556 
L 200.448987 236.625251 
L 205.198479 235.563773 
L 209.947971 235.984575 
L 214.697463 237.700827 
L 219.446955 239.601996 
L 224.196447 240.222493 
L 228.945939 238.678024 
L 233.695431 235.728446 
L 238.444923 233.584831 
L 243.194415 233.849366 
L 247.943907 236.253638 
L 252.693399 239.083792 
L 257.442891 240.053259 
L 262.192383 237.661907 
L 266.941875 233.14289 
L 271.691367 230.090689 
L 276.440859 230.481217 
L 281.190351 233.323812 
L 285.939843 236.050378 
L 290.689335 235.915854 
L 295.438827 232.075727 
L 300.188319 227.431017 
L 304.937811 225.519048 
L 309.687303 226.513734 
L 314.436795 228.256918 
L 319.186287 228.341398 
L 323.935779 225.935758 
L 328.685271 222.736894 
L 333.434763 220.865605 
L 338.184255 220.477361 
L 342.933747 220.35895 
L 347.683239 219.461369 
L 352.432731 217.781661 
L 357.182223 216.053466 
L 361.931715 214.751902 
L 366.681207 213.740471 
L 371.430699 212.680937 
L 376.180191 211.442953 
L 380.929683 210.127999 
L 385.679175 208.861177 
L 390.428667 207.662209 
L 395.178159 206.485805 
L 399.927651 205.300645 
L 404.677143 204.111007 
L 409.426635 202.933985 
L 414.176127 201.776981 
L 418.925619 200.638044 
L 423.675111 199.513817 
L 428.424603 198.404111 
L 433.174095 197.31075 
L 437.923587 196.235189 
L 442.673079 195.178178 
L 447.422571 194.139774 
L 452.172063 193.120115 
L 456.921555 192.119522 
L 461.671047 191.13831 
L 466.420539 190.176755 
L 471.170031 189.234971 
L 475.919523 188.313019 
L 480.669015 187.410936 
L 485.418507 186.52872 
L 490.167999 185.666315 
L 494.917491 184.823668 
L 499.666983 184.000639 
L 504.416475 183.197123 
L 509.165967 182.412911 
L 513.915459 181.647843 
L 518.664951 180.901707 
L 523.414443 180.174239 
L 528.163935 179.46527 
L 532.913427 178.774432 
L 537.662919 178.101554 
L 542.412411 177.446315 
L 547.161903 176.808387 
L 551.911395 176.18758 
L 556.660887 175.583443 
L 561.410379 174.995761 
L 566.159871 174.424306 
L 570.909363 173.868666 
" style="fill:none;stroke:#ff0000;"/>
   </g>
   <g id="patch_13">
    <path d="M 86.603664 250.305354 
L 86.603664 171.642354 
" style="fill:none;stroke:#000000;stroke-linecap:square;stroke-linejoin:miter;"/>
   </g>
   <g id="patch_14">
    <path d="M 585.015354 250.305354 
L 585.015354 171.642354 
" style="fill:none;stroke:#000000;stroke-linecap:square;stroke-linejoin:miter;"/>
   </g>
   <g id="patch_15">
    <path d="M 86.603664 250.305354 
L 585.015354 250.305354 
" style="fill:none;stroke:#000000;stroke-linecap:square;stroke-linejoin:miter;"/>
   </g>
   <g id="patch_16">
    <path d="M 86.603664 171.642354 
L 585.015354 171.642354 
" style="fill:none;stroke:#000000;stroke-linecap:square;stroke-linejoin:miter;"/>
   </g>
  </g>
 </g>
 <defs>
  <clipPath id="p6d07b3d8ed">
   <rect height="78.663" width="498.41169" x="86.603664" y="2.834646"/>
  </clipPath>
  <clipPath id="p517e174ffd">
   <rect height="78.663" width="498.41169" x="86.603664" y="87.166937"/>
  </clipPath>
  <clipPath id="p1f7dffd52f">
   <rect height="78.663" width="498.41169" x="86.603664" y="171.642354"/>
  </clipPath>
 </defs>
</svg>
