<?xml version="1.0" encoding="utf-8" standalone="no"?>
<!DOCTYPE svg PUBLIC "-//W3C//DTD SVG 1.1//EN"
  "http://www.w3.org/Graphics/SVG/1.1/DTD/svg11.dtd">
<!-- Created with matplotlib (https://matplotlib.org/) -->
<svg height="288pt" version="1.1" viewBox="0 0 648 288" width="648pt" xmlns="http://www.w3.org/2000/svg" xmlns:xlink="http://www.w3.org/1999/xlink">
 <metadata>
  <rdf:RDF xmlns:cc="http://creativecommons.org/ns#" xmlns:dc="http://purl.org/dc/elements/1.1/" xmlns:rdf="http://www.w3.org/1999/02/22-rdf-syntax-ns#">
   <cc:Work>
    <dc:type rdf:resource="http://purl.org/dc/dcmitype/StillImage"/>
    <dc:date>2021-04-26T15:00:54.885294</dc:date>
    <dc:format>image/svg+xml</dc:format>
    <dc:creator>
     <cc:Agent>
      <dc:title>Matplotlib v3.3.2, https://matplotlib.org/</dc:title>
     </cc:Agent>
    </dc:creator>
   </cc:Work>
  </rdf:RDF>
 </metadata>
 <defs>
  <style type="text/css">*{stroke-linecap:butt;stroke-linejoin:round;}</style>
 </defs>
 <g id="figure_1">
  <g id="patch_1">
   <path d="M 0 288 
L 648 288 
L 648 0 
L 0 0 
z
" style="fill:#ffffff;"/>
  </g>
  <g id="axes_1">
   <g id="patch_2">
    <path d="M 86.603664 80.229514 
L 645.165354 80.229514 
L 645.165354 2.834646 
L 86.603664 2.834646 
z
" style="fill:#ffffff;"/>
   </g>
   <g id="matplotlib.axis_1">
    <g id="xtick_1"/>
    <g id="xtick_2"/>
    <g id="xtick_3"/>
    <g id="xtick_4"/>
    <g id="xtick_5"/>
    <g id="xtick_6"/>
   </g>
   <g id="matplotlib.axis_2">
    <g id="ytick_1">
     <g id="line2d_1">
      <path clip-path="url(#p1a7ff53693)" d="M 86.603664 78.447493 
L 645.165354 78.447493 
" style="fill:none;stroke:#000000;stroke-linecap:square;stroke-opacity:0.1;stroke-width:0.5;"/>
     </g>
     <g id="line2d_2">
      <defs>
       <path d="M 0 0 
L 2.5 0 
" id="m4be232a42a" style="stroke:#000000;stroke-width:0.5;"/>
      </defs>
      <g>
       <use style="stroke:#000000;stroke-width:0.5;" x="86.603664" xlink:href="#m4be232a42a" y="78.447493"/>
      </g>
     </g>
     <g id="line2d_3">
      <defs>
       <path d="M 0 0 
L -2.5 0 
" id="m6c2c355edd" style="stroke:#000000;stroke-width:0.5;"/>
      </defs>
      <g>
       <use style="stroke:#000000;stroke-width:0.5;" x="645.165354" xlink:href="#m6c2c355edd" y="78.447493"/>
      </g>
     </g>
     <g id="text_1">
      <!-- $\mathregular{2.5×10^{-5}}$ -->
      <g transform="translate(25.863664 83.006555)scale(0.12 -0.12)">
       <defs>
        <path d="M 19.1875 8.296875 
L 53.609375 8.296875 
L 53.609375 0 
L 7.328125 0 
L 7.328125 8.296875 
Q 12.9375 14.109375 22.625 23.890625 
Q 32.328125 33.6875 34.8125 36.53125 
Q 39.546875 41.84375 41.421875 45.53125 
Q 43.3125 49.21875 43.3125 52.78125 
Q 43.3125 58.59375 39.234375 62.25 
Q 35.15625 65.921875 28.609375 65.921875 
Q 23.96875 65.921875 18.8125 64.3125 
Q 13.671875 62.703125 7.8125 59.421875 
L 7.8125 69.390625 
Q 13.765625 71.78125 18.9375 73 
Q 24.125 74.21875 28.421875 74.21875 
Q 39.75 74.21875 46.484375 68.546875 
Q 53.21875 62.890625 53.21875 53.421875 
Q 53.21875 48.921875 51.53125 44.890625 
Q 49.859375 40.875 45.40625 35.40625 
Q 44.1875 33.984375 37.640625 27.21875 
Q 31.109375 20.453125 19.1875 8.296875 
z
" id="DejaVuSans-50"/>
        <path d="M 10.6875 12.40625 
L 21 12.40625 
L 21 0 
L 10.6875 0 
z
" id="DejaVuSans-46"/>
        <path d="M 10.796875 72.90625 
L 49.515625 72.90625 
L 49.515625 64.59375 
L 19.828125 64.59375 
L 19.828125 46.734375 
Q 21.96875 47.46875 24.109375 47.828125 
Q 26.265625 48.1875 28.421875 48.1875 
Q 40.625 48.1875 47.75 41.5 
Q 54.890625 34.8125 54.890625 23.390625 
Q 54.890625 11.625 47.5625 5.09375 
Q 40.234375 -1.421875 26.90625 -1.421875 
Q 22.3125 -1.421875 17.546875 -0.640625 
Q 12.796875 0.140625 7.71875 1.703125 
L 7.71875 11.625 
Q 12.109375 9.234375 16.796875 8.0625 
Q 21.484375 6.890625 26.703125 6.890625 
Q 35.15625 6.890625 40.078125 11.328125 
Q 45.015625 15.765625 45.015625 23.390625 
Q 45.015625 31 40.078125 35.4375 
Q 35.15625 39.890625 26.703125 39.890625 
Q 22.75 39.890625 18.8125 39.015625 
Q 14.890625 38.140625 10.796875 36.28125 
z
" id="DejaVuSans-53"/>
        <path d="M 70.125 53.71875 
L 47.796875 31.296875 
L 70.125 8.984375 
L 64.3125 3.078125 
L 41.890625 25.484375 
L 19.484375 3.078125 
L 13.71875 8.984375 
L 35.984375 31.296875 
L 13.71875 53.71875 
L 19.484375 59.625 
L 41.890625 37.203125 
L 64.3125 59.625 
z
" id="DejaVuSans-215"/>
        <path d="M 12.40625 8.296875 
L 28.515625 8.296875 
L 28.515625 63.921875 
L 10.984375 60.40625 
L 10.984375 69.390625 
L 28.421875 72.90625 
L 38.28125 72.90625 
L 38.28125 8.296875 
L 54.390625 8.296875 
L 54.390625 0 
L 12.40625 0 
z
" id="DejaVuSans-49"/>
        <path d="M 31.78125 66.40625 
Q 24.171875 66.40625 20.328125 58.90625 
Q 16.5 51.421875 16.5 36.375 
Q 16.5 21.390625 20.328125 13.890625 
Q 24.171875 6.390625 31.78125 6.390625 
Q 39.453125 6.390625 43.28125 13.890625 
Q 47.125 21.390625 47.125 36.375 
Q 47.125 51.421875 43.28125 58.90625 
Q 39.453125 66.40625 31.78125 66.40625 
z
M 31.78125 74.21875 
Q 44.046875 74.21875 50.515625 64.515625 
Q 56.984375 54.828125 56.984375 36.375 
Q 56.984375 17.96875 50.515625 8.265625 
Q 44.046875 -1.421875 31.78125 -1.421875 
Q 19.53125 -1.421875 13.0625 8.265625 
Q 6.59375 17.96875 6.59375 36.375 
Q 6.59375 54.828125 13.0625 64.515625 
Q 19.53125 74.21875 31.78125 74.21875 
z
" id="DejaVuSans-48"/>
        <path d="M 10.59375 35.5 
L 73.1875 35.5 
L 73.1875 27.203125 
L 10.59375 27.203125 
z
" id="DejaVuSans-8722"/>
       </defs>
       <use transform="translate(0 0.684375)" xlink:href="#DejaVuSans-50"/>
       <use transform="translate(63.623047 0.684375)" xlink:href="#DejaVuSans-46"/>
       <use transform="translate(95.410156 0.684375)" xlink:href="#DejaVuSans-53"/>
       <use transform="translate(159.033203 0.684375)" xlink:href="#DejaVuSans-215"/>
       <use transform="translate(242.822266 0.684375)" xlink:href="#DejaVuSans-49"/>
       <use transform="translate(306.445312 0.684375)" xlink:href="#DejaVuSans-48"/>
       <use transform="translate(371.025391 38.965625)scale(0.7)" xlink:href="#DejaVuSans-8722"/>
       <use transform="translate(429.677734 38.965625)scale(0.7)" xlink:href="#DejaVuSans-53"/>
      </g>
     </g>
    </g>
    <g id="ytick_2">
     <g id="line2d_4">
      <path clip-path="url(#p1a7ff53693)" d="M 86.603664 66.270677 
L 645.165354 66.270677 
" style="fill:none;stroke:#000000;stroke-linecap:square;stroke-opacity:0.1;stroke-width:0.5;"/>
     </g>
     <g id="line2d_5">
      <g>
       <use style="stroke:#000000;stroke-width:0.5;" x="86.603664" xlink:href="#m4be232a42a" y="66.270677"/>
      </g>
     </g>
     <g id="line2d_6">
      <g>
       <use style="stroke:#000000;stroke-width:0.5;" x="645.165354" xlink:href="#m6c2c355edd" y="66.270677"/>
      </g>
     </g>
     <g id="text_2">
      <!-- $\mathregular{3.0×10^{-5}}$ -->
      <g transform="translate(25.863664 70.829739)scale(0.12 -0.12)">
       <defs>
        <path d="M 40.578125 39.3125 
Q 47.65625 37.796875 51.625 33 
Q 55.609375 28.21875 55.609375 21.1875 
Q 55.609375 10.40625 48.1875 4.484375 
Q 40.765625 -1.421875 27.09375 -1.421875 
Q 22.515625 -1.421875 17.65625 -0.515625 
Q 12.796875 0.390625 7.625 2.203125 
L 7.625 11.71875 
Q 11.71875 9.328125 16.59375 8.109375 
Q 21.484375 6.890625 26.8125 6.890625 
Q 36.078125 6.890625 40.9375 10.546875 
Q 45.796875 14.203125 45.796875 21.1875 
Q 45.796875 27.640625 41.28125 31.265625 
Q 36.765625 34.90625 28.71875 34.90625 
L 20.21875 34.90625 
L 20.21875 43.015625 
L 29.109375 43.015625 
Q 36.375 43.015625 40.234375 45.921875 
Q 44.09375 48.828125 44.09375 54.296875 
Q 44.09375 59.90625 40.109375 62.90625 
Q 36.140625 65.921875 28.71875 65.921875 
Q 24.65625 65.921875 20.015625 65.03125 
Q 15.375 64.15625 9.8125 62.3125 
L 9.8125 71.09375 
Q 15.4375 72.65625 20.34375 73.4375 
Q 25.25 74.21875 29.59375 74.21875 
Q 40.828125 74.21875 47.359375 69.109375 
Q 53.90625 64.015625 53.90625 55.328125 
Q 53.90625 49.265625 50.4375 45.09375 
Q 46.96875 40.921875 40.578125 39.3125 
z
" id="DejaVuSans-51"/>
       </defs>
       <use transform="translate(0 0.684375)" xlink:href="#DejaVuSans-51"/>
       <use transform="translate(63.623047 0.684375)" xlink:href="#DejaVuSans-46"/>
       <use transform="translate(95.410156 0.684375)" xlink:href="#DejaVuSans-48"/>
       <use transform="translate(159.033203 0.684375)" xlink:href="#DejaVuSans-215"/>
       <use transform="translate(242.822266 0.684375)" xlink:href="#DejaVuSans-49"/>
       <use transform="translate(306.445312 0.684375)" xlink:href="#DejaVuSans-48"/>
       <use transform="translate(371.025391 38.965625)scale(0.7)" xlink:href="#DejaVuSans-8722"/>
       <use transform="translate(429.677734 38.965625)scale(0.7)" xlink:href="#DejaVuSans-53"/>
      </g>
     </g>
    </g>
    <g id="ytick_3">
     <g id="line2d_7">
      <path clip-path="url(#p1a7ff53693)" d="M 86.603664 54.09386 
L 645.165354 54.09386 
" style="fill:none;stroke:#000000;stroke-linecap:square;stroke-opacity:0.1;stroke-width:0.5;"/>
     </g>
     <g id="line2d_8">
      <g>
       <use style="stroke:#000000;stroke-width:0.5;" x="86.603664" xlink:href="#m4be232a42a" y="54.09386"/>
      </g>
     </g>
     <g id="line2d_9">
      <g>
       <use style="stroke:#000000;stroke-width:0.5;" x="645.165354" xlink:href="#m6c2c355edd" y="54.09386"/>
      </g>
     </g>
     <g id="text_3">
      <!-- $\mathregular{3.5×10^{-5}}$ -->
      <g transform="translate(25.863664 58.652923)scale(0.12 -0.12)">
       <use transform="translate(0 0.684375)" xlink:href="#DejaVuSans-51"/>
       <use transform="translate(63.623047 0.684375)" xlink:href="#DejaVuSans-46"/>
       <use transform="translate(95.410156 0.684375)" xlink:href="#DejaVuSans-53"/>
       <use transform="translate(159.033203 0.684375)" xlink:href="#DejaVuSans-215"/>
       <use transform="translate(242.822266 0.684375)" xlink:href="#DejaVuSans-49"/>
       <use transform="translate(306.445312 0.684375)" xlink:href="#DejaVuSans-48"/>
       <use transform="translate(371.025391 38.965625)scale(0.7)" xlink:href="#DejaVuSans-8722"/>
       <use transform="translate(429.677734 38.965625)scale(0.7)" xlink:href="#DejaVuSans-53"/>
      </g>
     </g>
    </g>
    <g id="ytick_4">
     <g id="line2d_10">
      <path clip-path="url(#p1a7ff53693)" d="M 86.603664 41.917044 
L 645.165354 41.917044 
" style="fill:none;stroke:#000000;stroke-linecap:square;stroke-opacity:0.1;stroke-width:0.5;"/>
     </g>
     <g id="line2d_11">
      <g>
       <use style="stroke:#000000;stroke-width:0.5;" x="86.603664" xlink:href="#m4be232a42a" y="41.917044"/>
      </g>
     </g>
     <g id="line2d_12">
      <g>
       <use style="stroke:#000000;stroke-width:0.5;" x="645.165354" xlink:href="#m6c2c355edd" y="41.917044"/>
      </g>
     </g>
     <g id="text_4">
      <!-- $\mathregular{4.0×10^{-5}}$ -->
      <g transform="translate(25.863664 46.476106)scale(0.12 -0.12)">
       <defs>
        <path d="M 37.796875 64.3125 
L 12.890625 25.390625 
L 37.796875 25.390625 
z
M 35.203125 72.90625 
L 47.609375 72.90625 
L 47.609375 25.390625 
L 58.015625 25.390625 
L 58.015625 17.1875 
L 47.609375 17.1875 
L 47.609375 0 
L 37.796875 0 
L 37.796875 17.1875 
L 4.890625 17.1875 
L 4.890625 26.703125 
z
" id="DejaVuSans-52"/>
       </defs>
       <use transform="translate(0 0.684375)" xlink:href="#DejaVuSans-52"/>
       <use transform="translate(63.623047 0.684375)" xlink:href="#DejaVuSans-46"/>
       <use transform="translate(95.410156 0.684375)" xlink:href="#DejaVuSans-48"/>
       <use transform="translate(159.033203 0.684375)" xlink:href="#DejaVuSans-215"/>
       <use transform="translate(242.822266 0.684375)" xlink:href="#DejaVuSans-49"/>
       <use transform="translate(306.445312 0.684375)" xlink:href="#DejaVuSans-48"/>
       <use transform="translate(371.025391 38.965625)scale(0.7)" xlink:href="#DejaVuSans-8722"/>
       <use transform="translate(429.677734 38.965625)scale(0.7)" xlink:href="#DejaVuSans-53"/>
      </g>
     </g>
    </g>
    <g id="ytick_5">
     <g id="line2d_13">
      <path clip-path="url(#p1a7ff53693)" d="M 86.603664 29.740227 
L 645.165354 29.740227 
" style="fill:none;stroke:#000000;stroke-linecap:square;stroke-opacity:0.1;stroke-width:0.5;"/>
     </g>
     <g id="line2d_14">
      <g>
       <use style="stroke:#000000;stroke-width:0.5;" x="86.603664" xlink:href="#m4be232a42a" y="29.740227"/>
      </g>
     </g>
     <g id="line2d_15">
      <g>
       <use style="stroke:#000000;stroke-width:0.5;" x="645.165354" xlink:href="#m6c2c355edd" y="29.740227"/>
      </g>
     </g>
     <g id="text_5">
      <!-- $\mathregular{4.5×10^{-5}}$ -->
      <g transform="translate(25.863664 34.29929)scale(0.12 -0.12)">
       <use transform="translate(0 0.684375)" xlink:href="#DejaVuSans-52"/>
       <use transform="translate(63.623047 0.684375)" xlink:href="#DejaVuSans-46"/>
       <use transform="translate(95.410156 0.684375)" xlink:href="#DejaVuSans-53"/>
       <use transform="translate(159.033203 0.684375)" xlink:href="#DejaVuSans-215"/>
       <use transform="translate(242.822266 0.684375)" xlink:href="#DejaVuSans-49"/>
       <use transform="translate(306.445312 0.684375)" xlink:href="#DejaVuSans-48"/>
       <use transform="translate(371.025391 38.965625)scale(0.7)" xlink:href="#DejaVuSans-8722"/>
       <use transform="translate(429.677734 38.965625)scale(0.7)" xlink:href="#DejaVuSans-53"/>
      </g>
     </g>
    </g>
    <g id="ytick_6">
     <g id="line2d_16">
      <path clip-path="url(#p1a7ff53693)" d="M 86.603664 17.563411 
L 645.165354 17.563411 
" style="fill:none;stroke:#000000;stroke-linecap:square;stroke-opacity:0.1;stroke-width:0.5;"/>
     </g>
     <g id="line2d_17">
      <g>
       <use style="stroke:#000000;stroke-width:0.5;" x="86.603664" xlink:href="#m4be232a42a" y="17.563411"/>
      </g>
     </g>
     <g id="line2d_18">
      <g>
       <use style="stroke:#000000;stroke-width:0.5;" x="645.165354" xlink:href="#m6c2c355edd" y="17.563411"/>
      </g>
     </g>
     <g id="text_6">
      <!-- $\mathregular{5.0×10^{-5}}$ -->
      <g transform="translate(25.863664 22.122474)scale(0.12 -0.12)">
       <use transform="translate(0 0.684375)" xlink:href="#DejaVuSans-53"/>
       <use transform="translate(63.623047 0.684375)" xlink:href="#DejaVuSans-46"/>
       <use transform="translate(95.410156 0.684375)" xlink:href="#DejaVuSans-48"/>
       <use transform="translate(159.033203 0.684375)" xlink:href="#DejaVuSans-215"/>
       <use transform="translate(242.822266 0.684375)" xlink:href="#DejaVuSans-49"/>
       <use transform="translate(306.445312 0.684375)" xlink:href="#DejaVuSans-48"/>
       <use transform="translate(371.025391 38.965625)scale(0.7)" xlink:href="#DejaVuSans-8722"/>
       <use transform="translate(429.677734 38.965625)scale(0.7)" xlink:href="#DejaVuSans-53"/>
      </g>
     </g>
    </g>
    <g id="ytick_7">
     <g id="line2d_19">
      <path clip-path="url(#p1a7ff53693)" d="M 86.603664 5.386595 
L 645.165354 5.386595 
" style="fill:none;stroke:#000000;stroke-linecap:square;stroke-opacity:0.1;stroke-width:0.5;"/>
     </g>
     <g id="line2d_20">
      <g>
       <use style="stroke:#000000;stroke-width:0.5;" x="86.603664" xlink:href="#m4be232a42a" y="5.386595"/>
      </g>
     </g>
     <g id="line2d_21">
      <g>
       <use style="stroke:#000000;stroke-width:0.5;" x="645.165354" xlink:href="#m6c2c355edd" y="5.386595"/>
      </g>
     </g>
     <g id="text_7">
      <!-- $\mathregular{5.5×10^{-5}}$ -->
      <g transform="translate(25.863664 9.945657)scale(0.12 -0.12)">
       <use transform="translate(0 0.684375)" xlink:href="#DejaVuSans-53"/>
       <use transform="translate(63.623047 0.684375)" xlink:href="#DejaVuSans-46"/>
       <use transform="translate(95.410156 0.684375)" xlink:href="#DejaVuSans-53"/>
       <use transform="translate(159.033203 0.684375)" xlink:href="#DejaVuSans-215"/>
       <use transform="translate(242.822266 0.684375)" xlink:href="#DejaVuSans-49"/>
       <use transform="translate(306.445312 0.684375)" xlink:href="#DejaVuSans-48"/>
       <use transform="translate(371.025391 38.965625)scale(0.7)" xlink:href="#DejaVuSans-8722"/>
       <use transform="translate(429.677734 38.965625)scale(0.7)" xlink:href="#DejaVuSans-53"/>
      </g>
     </g>
    </g>
    <g id="text_8">
     <!-- $Y_{CH_4}$ -->
     <g transform="translate(17.383664 57.45208)rotate(-90)scale(0.16 -0.16)">
      <defs>
       <path d="M 6.296875 72.90625 
L 16.890625 72.90625 
L 30.515625 42.921875 
L 56.5 72.90625 
L 67.578125 72.90625 
L 34.515625 34.71875 
L 27.78125 0 
L 17.921875 0 
L 24.609375 34.71875 
z
" id="DejaVuSans-Oblique-89"/>
       <path d="M 69.484375 67.28125 
L 67.484375 56.890625 
Q 62.796875 61.625 57.546875 63.921875 
Q 52.296875 66.21875 46.1875 66.21875 
Q 37.84375 66.21875 31.515625 62.203125 
Q 25.203125 58.203125 20.609375 50 
Q 17.671875 44.734375 16.125 38.84375 
Q 14.59375 32.953125 14.59375 27 
Q 14.59375 17.046875 19.75 11.8125 
Q 24.90625 6.59375 34.71875 6.59375 
Q 41.5 6.59375 47.75 8.765625 
Q 54 10.9375 59.90625 15.28125 
L 57.625 3.609375 
Q 51.8125 1.125 45.875 -0.140625 
Q 39.9375 -1.421875 33.984375 -1.421875 
Q 19.96875 -1.421875 12.078125 6.1875 
Q 4.203125 13.8125 4.203125 27.390625 
Q 4.203125 36.078125 7.203125 44.46875 
Q 10.203125 52.875 15.828125 59.8125 
Q 21.78125 67.1875 29.421875 70.703125 
Q 37.0625 74.21875 47.21875 74.21875 
Q 53.46875 74.21875 59.0625 72.484375 
Q 64.65625 70.75 69.484375 67.28125 
z
" id="DejaVuSans-Oblique-67"/>
       <path d="M 16.890625 72.90625 
L 26.8125 72.90625 
L 21 43.015625 
L 56.78125 43.015625 
L 62.59375 72.90625 
L 72.515625 72.90625 
L 58.296875 0 
L 48.390625 0 
L 55.171875 34.71875 
L 19.390625 34.71875 
L 12.59375 0 
L 2.6875 0 
z
" id="DejaVuSans-Oblique-72"/>
      </defs>
      <use transform="translate(0 0.09375)" xlink:href="#DejaVuSans-Oblique-89"/>
      <use transform="translate(61.083984 -16.3125)scale(0.7)" xlink:href="#DejaVuSans-Oblique-67"/>
      <use transform="translate(109.960938 -16.3125)scale(0.7)" xlink:href="#DejaVuSans-Oblique-72"/>
      <use transform="translate(162.597656 -27.796875)scale(0.49)" xlink:href="#DejaVuSans-52"/>
     </g>
    </g>
   </g>
   <g id="PathCollection_1">
    <defs>
     <path d="M 0 2 
C 0.530406 2 1.03916 1.789267 1.414214 1.414214 
C 1.789267 1.03916 2 0.530406 2 0 
C 2 -0.530406 1.789267 -1.03916 1.414214 -1.414214 
C 1.03916 -1.789267 0.530406 -2 0 -2 
C -0.530406 -2 -1.03916 -1.789267 -1.414214 -1.414214 
C -1.789267 -1.03916 -2 -0.530406 -2 0 
C -2 0.530406 -1.789267 1.03916 -1.414214 1.414214 
C -1.03916 1.789267 -0.530406 2 0 2 
z
" id="m8c4381eb9b"/>
    </defs>
    <g clip-path="url(#p1a7ff53693)">
     <use x="102.412014" xlink:href="#m8c4381eb9b" y="30.812543"/>
     <use x="107.73469" xlink:href="#m8c4381eb9b" y="29.727533"/>
     <use x="113.057367" xlink:href="#m8c4381eb9b" y="28.626372"/>
     <use x="118.380044" xlink:href="#m8c4381eb9b" y="27.12298"/>
     <use x="123.70272" xlink:href="#m8c4381eb9b" y="26.809628"/>
     <use x="129.025397" xlink:href="#m8c4381eb9b" y="28.524822"/>
     <use x="134.348074" xlink:href="#m8c4381eb9b" y="30.837171"/>
     <use x="139.67075" xlink:href="#m8c4381eb9b" y="32.466554"/>
     <use x="144.993427" xlink:href="#m8c4381eb9b" y="30.991236"/>
     <use x="150.316104" xlink:href="#m8c4381eb9b" y="28.506688"/>
     <use x="155.63878" xlink:href="#m8c4381eb9b" y="25.184191"/>
     <use x="160.961457" xlink:href="#m8c4381eb9b" y="25.106635"/>
     <use x="166.284134" xlink:href="#m8c4381eb9b" y="26.77846"/>
     <use x="171.60681" xlink:href="#m8c4381eb9b" y="31.501992"/>
     <use x="176.929487" xlink:href="#m8c4381eb9b" y="34.84573"/>
     <use x="182.252164" xlink:href="#m8c4381eb9b" y="33.331126"/>
     <use x="187.57484" xlink:href="#m8c4381eb9b" y="28.905958"/>
     <use x="192.897517" xlink:href="#m8c4381eb9b" y="23.399831"/>
     <use x="198.220194" xlink:href="#m8c4381eb9b" y="19.722364"/>
     <use x="203.54287" xlink:href="#m8c4381eb9b" y="22.9673"/>
     <use x="208.865547" xlink:href="#m8c4381eb9b" y="31.056415"/>
     <use x="214.188224" xlink:href="#m8c4381eb9b" y="37.506546"/>
     <use x="219.5109" xlink:href="#m8c4381eb9b" y="38.442249"/>
     <use x="224.833577" xlink:href="#m8c4381eb9b" y="30.289568"/>
     <use x="230.156254" xlink:href="#m8c4381eb9b" y="19.339267"/>
     <use x="235.47893" xlink:href="#m8c4381eb9b" y="12.98863"/>
     <use x="240.801607" xlink:href="#m8c4381eb9b" y="15.128374"/>
     <use x="246.124284" xlink:href="#m8c4381eb9b" y="28.114759"/>
     <use x="251.446961" xlink:href="#m8c4381eb9b" y="42.946378"/>
     <use x="256.769637" xlink:href="#m8c4381eb9b" y="45.688352"/>
     <use x="262.092314" xlink:href="#m8c4381eb9b" y="35.023746"/>
     <use x="267.414991" xlink:href="#m8c4381eb9b" y="17.76042"/>
     <use x="272.737667" xlink:href="#m8c4381eb9b" y="5.025066"/>
     <use x="278.060344" xlink:href="#m8c4381eb9b" y="7.473652"/>
     <use x="283.383021" xlink:href="#m8c4381eb9b" y="31.912146"/>
     <use x="288.705697" xlink:href="#m8c4381eb9b" y="57.615551"/>
     <use x="294.028374" xlink:href="#m8c4381eb9b" y="58.309303"/>
     <use x="299.351051" xlink:href="#m8c4381eb9b" y="43.901707"/>
     <use x="304.673727" xlink:href="#m8c4381eb9b" y="26.48457"/>
     <use x="309.996404" xlink:href="#m8c4381eb9b" y="16.345527"/>
     <use x="315.319081" xlink:href="#m8c4381eb9b" y="27.438848"/>
     <use x="320.641757" xlink:href="#m8c4381eb9b" y="53.063985"/>
     <use x="325.964434" xlink:href="#m8c4381eb9b" y="63.563209"/>
     <use x="331.287111" xlink:href="#m8c4381eb9b" y="56.854658"/>
     <use x="336.609787" xlink:href="#m8c4381eb9b" y="45.055884"/>
     <use x="341.932464" xlink:href="#m8c4381eb9b" y="39.198672"/>
     <use x="347.255141" xlink:href="#m8c4381eb9b" y="42.711535"/>
     <use x="352.577817" xlink:href="#m8c4381eb9b" y="55.108092"/>
     <use x="357.900494" xlink:href="#m8c4381eb9b" y="62.365988"/>
     <use x="363.223171" xlink:href="#m8c4381eb9b" y="60.098641"/>
     <use x="368.545847" xlink:href="#m8c4381eb9b" y="55.872281"/>
     <use x="373.868524" xlink:href="#m8c4381eb9b" y="54.483062"/>
     <use x="379.191201" xlink:href="#m8c4381eb9b" y="56.861631"/>
     <use x="384.513877" xlink:href="#m8c4381eb9b" y="61.271229"/>
     <use x="389.836554" xlink:href="#m8c4381eb9b" y="62.930479"/>
     <use x="395.159231" xlink:href="#m8c4381eb9b" y="63.590628"/>
     <use x="400.481907" xlink:href="#m8c4381eb9b" y="62.953105"/>
     <use x="405.804584" xlink:href="#m8c4381eb9b" y="63.970891"/>
     <use x="411.127261" xlink:href="#m8c4381eb9b" y="64.840805"/>
     <use x="416.449938" xlink:href="#m8c4381eb9b" y="66.591721"/>
     <use x="421.772614" xlink:href="#m8c4381eb9b" y="68.001467"/>
     <use x="427.095291" xlink:href="#m8c4381eb9b" y="68.773715"/>
     <use x="432.417968" xlink:href="#m8c4381eb9b" y="68.995871"/>
     <use x="437.740644" xlink:href="#m8c4381eb9b" y="70.23439"/>
     <use x="443.063321" xlink:href="#m8c4381eb9b" y="71.400251"/>
     <use x="448.385998" xlink:href="#m8c4381eb9b" y="71.34417"/>
     <use x="453.708674" xlink:href="#m8c4381eb9b" y="72.89975"/>
     <use x="459.031351" xlink:href="#m8c4381eb9b" y="72.585572"/>
     <use x="464.354028" xlink:href="#m8c4381eb9b" y="73.858886"/>
     <use x="469.676704" xlink:href="#m8c4381eb9b" y="74.375171"/>
     <use x="474.999381" xlink:href="#m8c4381eb9b" y="75.218285"/>
     <use x="480.322058" xlink:href="#m8c4381eb9b" y="75.089715"/>
     <use x="485.644734" xlink:href="#m8c4381eb9b" y="75.772355"/>
     <use x="490.967411" xlink:href="#m8c4381eb9b" y="75.762633"/>
     <use x="496.290088" xlink:href="#m8c4381eb9b" y="75.482584"/>
     <use x="501.612764" xlink:href="#m8c4381eb9b" y="75.539027"/>
     <use x="506.935441" xlink:href="#m8c4381eb9b" y="76.083608"/>
     <use x="512.258118" xlink:href="#m8c4381eb9b" y="75.776425"/>
     <use x="517.580794" xlink:href="#m8c4381eb9b" y="76.225754"/>
     <use x="522.903471" xlink:href="#m8c4381eb9b" y="76.477442"/>
     <use x="528.226148" xlink:href="#m8c4381eb9b" y="76.127408"/>
     <use x="533.548824" xlink:href="#m8c4381eb9b" y="77.068615"/>
     <use x="538.871501" xlink:href="#m8c4381eb9b" y="75.891542"/>
     <use x="544.194178" xlink:href="#m8c4381eb9b" y="76.085003"/>
     <use x="549.516854" xlink:href="#m8c4381eb9b" y="76.974852"/>
     <use x="554.839531" xlink:href="#m8c4381eb9b" y="76.617087"/>
     <use x="560.162208" xlink:href="#m8c4381eb9b" y="76.685272"/>
     <use x="565.484884" xlink:href="#m8c4381eb9b" y="76.880587"/>
     <use x="570.807561" xlink:href="#m8c4381eb9b" y="77.288176"/>
     <use x="576.130238" xlink:href="#m8c4381eb9b" y="76.5824"/>
     <use x="581.452915" xlink:href="#m8c4381eb9b" y="77.029551"/>
     <use x="586.775591" xlink:href="#m8c4381eb9b" y="77.646003"/>
     <use x="592.098268" xlink:href="#m8c4381eb9b" y="76.472561"/>
     <use x="597.420945" xlink:href="#m8c4381eb9b" y="77.902777"/>
     <use x="602.743621" xlink:href="#m8c4381eb9b" y="76.88274"/>
     <use x="608.066298" xlink:href="#m8c4381eb9b" y="77.26923"/>
     <use x="613.388975" xlink:href="#m8c4381eb9b" y="77.677738"/>
     <use x="618.711651" xlink:href="#m8c4381eb9b" y="78.039093"/>
     <use x="624.034328" xlink:href="#m8c4381eb9b" y="77.15918"/>
     <use x="629.357005" xlink:href="#m8c4381eb9b" y="76.919959"/>
    </g>
   </g>
   <g id="line2d_22">
    <path clip-path="url(#p1a7ff53693)" d="M 102.412014 30.655577 
L 107.73469 29.928081 
L 113.057367 28.64292 
L 118.380044 27.642481 
L 123.70272 27.728805 
L 129.025397 29.040187 
L 134.348074 30.764842 
L 139.67075 31.597396 
L 144.993427 30.741196 
L 150.316104 28.567054 
L 155.63878 26.446838 
L 160.961457 25.989993 
L 166.284134 27.923007 
L 171.60681 31.208707 
L 176.929487 33.429027 
L 182.252164 32.685052 
L 187.57484 29.162133 
L 192.897517 24.981236 
L 198.220194 23.09609 
L 203.54287 25.57407 
L 208.865547 31.504171 
L 214.188224 36.574709 
L 219.5109 36.576384 
L 224.833577 31.200344 
L 230.156254 23.646654 
L 235.47893 18.856282 
L 240.801607 21.377862 
L 246.124284 31.433378 
L 251.446961 41.699458 
L 256.769637 43.354676 
L 262.092314 35.648068 
L 267.414991 23.756113 
L 272.737667 15.161198 
L 278.060344 17.718511 
L 283.383021 33.444412 
L 288.705697 49.974301 
L 294.028374 52.060528 
L 299.351051 41.635145 
L 304.673727 27.61598 
L 309.996404 19.880392 
L 315.319081 27.211886 
L 320.641757 47.057336 
L 325.964434 59.535605 
L 331.287111 56.113814 
L 336.609787 46.07447 
L 341.932464 39.241671 
L 347.255141 42.363749 
L 352.577817 53.466409 
L 357.900494 61.219974 
L 363.223171 60.812934 
L 368.545847 57.323235 
L 373.868524 56.127813 
L 379.191201 58.738556 
L 384.513877 62.514176 
L 389.836554 64.515587 
L 395.159231 64.797691 
L 400.481907 64.936621 
L 405.804584 65.787199 
L 411.127261 67.051039 
L 416.449938 68.13169 
L 421.772614 68.868253 
L 427.095291 69.455006 
L 432.417968 70.063275 
L 437.740644 70.696524 
L 443.063321 71.290296 
L 448.385998 71.813611 
L 453.708674 72.281339 
L 459.031351 72.71515 
L 464.354028 73.122874 
L 469.676704 73.502385 
L 474.999381 73.852118 
L 480.322058 74.173962 
L 485.644734 74.471402 
L 490.967411 74.74761 
L 496.290088 75.004487 
L 501.612764 75.242887 
L 506.935441 75.464385 
L 512.258118 75.67038 
L 517.580794 75.862311 
L 522.903471 76.041145 
L 528.226148 76.208147 
L 533.548824 76.364094 
L 538.871501 76.509973 
L 544.194178 76.646365 
L 549.516854 76.774218 
L 554.839531 76.89395 
L 560.162208 77.006377 
L 565.484884 77.11181 
L 570.807561 77.210888 
L 576.130238 77.304004 
L 581.452915 77.39147 
L 586.775591 77.473824 
L 592.098268 77.55123 
L 597.420945 77.62411 
L 602.743621 77.692721 
L 608.066298 77.757207 
L 613.388975 77.817956 
L 618.711651 77.875123 
L 624.034328 77.928832 
L 629.357005 77.979362 
" style="fill:none;stroke:#ff0000;"/>
   </g>
   <g id="patch_3">
    <path d="M 86.603664 80.229514 
L 86.603664 2.834646 
" style="fill:none;stroke:#000000;stroke-linecap:square;stroke-linejoin:miter;"/>
   </g>
   <g id="patch_4">
    <path d="M 645.165354 80.229514 
L 645.165354 2.834646 
" style="fill:none;stroke:#000000;stroke-linecap:square;stroke-linejoin:miter;"/>
   </g>
   <g id="patch_5">
    <path d="M 86.603664 80.229514 
L 645.165354 80.229514 
" style="fill:none;stroke:#000000;stroke-linecap:square;stroke-linejoin:miter;"/>
   </g>
   <g id="patch_6">
    <path d="M 86.603664 2.834646 
L 645.165354 2.834646 
" style="fill:none;stroke:#000000;stroke-linecap:square;stroke-linejoin:miter;"/>
   </g>
  </g>
  <g id="axes_2">
   <g id="patch_7">
    <path d="M 86.603664 165.338458 
L 645.165354 165.338458 
L 645.165354 87.94359 
L 86.603664 87.94359 
z
" style="fill:#ffffff;"/>
   </g>
   <g id="matplotlib.axis_3">
    <g id="xtick_7"/>
    <g id="xtick_8"/>
    <g id="xtick_9"/>
    <g id="xtick_10"/>
    <g id="xtick_11"/>
    <g id="xtick_12"/>
   </g>
   <g id="matplotlib.axis_4">
    <g id="ytick_8">
     <g id="line2d_23">
      <path clip-path="url(#pc8a6815a26)" d="M 86.603664 163.721426 
L 645.165354 163.721426 
" style="fill:none;stroke:#000000;stroke-linecap:square;stroke-opacity:0.1;stroke-width:0.5;"/>
     </g>
     <g id="line2d_24">
      <g>
       <use style="stroke:#000000;stroke-width:0.5;" x="86.603664" xlink:href="#m4be232a42a" y="163.721426"/>
      </g>
     </g>
     <g id="line2d_25">
      <g>
       <use style="stroke:#000000;stroke-width:0.5;" x="645.165354" xlink:href="#m6c2c355edd" y="163.721426"/>
      </g>
     </g>
     <g id="text_9">
      <!-- $\mathregular{0.00115}$ -->
      <g transform="translate(33.423664 168.280488)scale(0.12 -0.12)">
       <use transform="translate(0 0.78125)" xlink:href="#DejaVuSans-48"/>
       <use transform="translate(63.623047 0.78125)" xlink:href="#DejaVuSans-46"/>
       <use transform="translate(95.410156 0.78125)" xlink:href="#DejaVuSans-48"/>
       <use transform="translate(159.033203 0.78125)" xlink:href="#DejaVuSans-48"/>
       <use transform="translate(222.65625 0.78125)" xlink:href="#DejaVuSans-49"/>
       <use transform="translate(286.279297 0.78125)" xlink:href="#DejaVuSans-49"/>
       <use transform="translate(349.902344 0.78125)" xlink:href="#DejaVuSans-53"/>
      </g>
     </g>
    </g>
    <g id="ytick_9">
     <g id="line2d_26">
      <path clip-path="url(#pc8a6815a26)" d="M 86.603664 151.7962 
L 645.165354 151.7962 
" style="fill:none;stroke:#000000;stroke-linecap:square;stroke-opacity:0.1;stroke-width:0.5;"/>
     </g>
     <g id="line2d_27">
      <g>
       <use style="stroke:#000000;stroke-width:0.5;" x="86.603664" xlink:href="#m4be232a42a" y="151.7962"/>
      </g>
     </g>
     <g id="line2d_28">
      <g>
       <use style="stroke:#000000;stroke-width:0.5;" x="645.165354" xlink:href="#m6c2c355edd" y="151.7962"/>
      </g>
     </g>
     <g id="text_10">
      <!-- $\mathregular{0.00120}$ -->
      <g transform="translate(33.423664 156.355262)scale(0.12 -0.12)">
       <use transform="translate(0 0.78125)" xlink:href="#DejaVuSans-48"/>
       <use transform="translate(63.623047 0.78125)" xlink:href="#DejaVuSans-46"/>
       <use transform="translate(95.410156 0.78125)" xlink:href="#DejaVuSans-48"/>
       <use transform="translate(159.033203 0.78125)" xlink:href="#DejaVuSans-48"/>
       <use transform="translate(222.65625 0.78125)" xlink:href="#DejaVuSans-49"/>
       <use transform="translate(286.279297 0.78125)" xlink:href="#DejaVuSans-50"/>
       <use transform="translate(349.902344 0.78125)" xlink:href="#DejaVuSans-48"/>
      </g>
     </g>
    </g>
    <g id="ytick_10">
     <g id="line2d_29">
      <path clip-path="url(#pc8a6815a26)" d="M 86.603664 139.870974 
L 645.165354 139.870974 
" style="fill:none;stroke:#000000;stroke-linecap:square;stroke-opacity:0.1;stroke-width:0.5;"/>
     </g>
     <g id="line2d_30">
      <g>
       <use style="stroke:#000000;stroke-width:0.5;" x="86.603664" xlink:href="#m4be232a42a" y="139.870974"/>
      </g>
     </g>
     <g id="line2d_31">
      <g>
       <use style="stroke:#000000;stroke-width:0.5;" x="645.165354" xlink:href="#m6c2c355edd" y="139.870974"/>
      </g>
     </g>
     <g id="text_11">
      <!-- $\mathregular{0.00125}$ -->
      <g transform="translate(33.423664 144.430036)scale(0.12 -0.12)">
       <use transform="translate(0 0.78125)" xlink:href="#DejaVuSans-48"/>
       <use transform="translate(63.623047 0.78125)" xlink:href="#DejaVuSans-46"/>
       <use transform="translate(95.410156 0.78125)" xlink:href="#DejaVuSans-48"/>
       <use transform="translate(159.033203 0.78125)" xlink:href="#DejaVuSans-48"/>
       <use transform="translate(222.65625 0.78125)" xlink:href="#DejaVuSans-49"/>
       <use transform="translate(286.279297 0.78125)" xlink:href="#DejaVuSans-50"/>
       <use transform="translate(349.902344 0.78125)" xlink:href="#DejaVuSans-53"/>
      </g>
     </g>
    </g>
    <g id="ytick_11">
     <g id="line2d_32">
      <path clip-path="url(#pc8a6815a26)" d="M 86.603664 127.945747 
L 645.165354 127.945747 
" style="fill:none;stroke:#000000;stroke-linecap:square;stroke-opacity:0.1;stroke-width:0.5;"/>
     </g>
     <g id="line2d_33">
      <g>
       <use style="stroke:#000000;stroke-width:0.5;" x="86.603664" xlink:href="#m4be232a42a" y="127.945747"/>
      </g>
     </g>
     <g id="line2d_34">
      <g>
       <use style="stroke:#000000;stroke-width:0.5;" x="645.165354" xlink:href="#m6c2c355edd" y="127.945747"/>
      </g>
     </g>
     <g id="text_12">
      <!-- $\mathregular{0.00130}$ -->
      <g transform="translate(33.423664 132.50481)scale(0.12 -0.12)">
       <use transform="translate(0 0.78125)" xlink:href="#DejaVuSans-48"/>
       <use transform="translate(63.623047 0.78125)" xlink:href="#DejaVuSans-46"/>
       <use transform="translate(95.410156 0.78125)" xlink:href="#DejaVuSans-48"/>
       <use transform="translate(159.033203 0.78125)" xlink:href="#DejaVuSans-48"/>
       <use transform="translate(222.65625 0.78125)" xlink:href="#DejaVuSans-49"/>
       <use transform="translate(286.279297 0.78125)" xlink:href="#DejaVuSans-51"/>
       <use transform="translate(349.902344 0.78125)" xlink:href="#DejaVuSans-48"/>
      </g>
     </g>
    </g>
    <g id="ytick_12">
     <g id="line2d_35">
      <path clip-path="url(#pc8a6815a26)" d="M 86.603664 116.020521 
L 645.165354 116.020521 
" style="fill:none;stroke:#000000;stroke-linecap:square;stroke-opacity:0.1;stroke-width:0.5;"/>
     </g>
     <g id="line2d_36">
      <g>
       <use style="stroke:#000000;stroke-width:0.5;" x="86.603664" xlink:href="#m4be232a42a" y="116.020521"/>
      </g>
     </g>
     <g id="line2d_37">
      <g>
       <use style="stroke:#000000;stroke-width:0.5;" x="645.165354" xlink:href="#m6c2c355edd" y="116.020521"/>
      </g>
     </g>
     <g id="text_13">
      <!-- $\mathregular{0.00135}$ -->
      <g transform="translate(33.423664 120.579584)scale(0.12 -0.12)">
       <use transform="translate(0 0.78125)" xlink:href="#DejaVuSans-48"/>
       <use transform="translate(63.623047 0.78125)" xlink:href="#DejaVuSans-46"/>
       <use transform="translate(95.410156 0.78125)" xlink:href="#DejaVuSans-48"/>
       <use transform="translate(159.033203 0.78125)" xlink:href="#DejaVuSans-48"/>
       <use transform="translate(222.65625 0.78125)" xlink:href="#DejaVuSans-49"/>
       <use transform="translate(286.279297 0.78125)" xlink:href="#DejaVuSans-51"/>
       <use transform="translate(349.902344 0.78125)" xlink:href="#DejaVuSans-53"/>
      </g>
     </g>
    </g>
    <g id="ytick_13">
     <g id="line2d_38">
      <path clip-path="url(#pc8a6815a26)" d="M 86.603664 104.095295 
L 645.165354 104.095295 
" style="fill:none;stroke:#000000;stroke-linecap:square;stroke-opacity:0.1;stroke-width:0.5;"/>
     </g>
     <g id="line2d_39">
      <g>
       <use style="stroke:#000000;stroke-width:0.5;" x="86.603664" xlink:href="#m4be232a42a" y="104.095295"/>
      </g>
     </g>
     <g id="line2d_40">
      <g>
       <use style="stroke:#000000;stroke-width:0.5;" x="645.165354" xlink:href="#m6c2c355edd" y="104.095295"/>
      </g>
     </g>
     <g id="text_14">
      <!-- $\mathregular{0.00140}$ -->
      <g transform="translate(33.423664 108.654358)scale(0.12 -0.12)">
       <use transform="translate(0 0.78125)" xlink:href="#DejaVuSans-48"/>
       <use transform="translate(63.623047 0.78125)" xlink:href="#DejaVuSans-46"/>
       <use transform="translate(95.410156 0.78125)" xlink:href="#DejaVuSans-48"/>
       <use transform="translate(159.033203 0.78125)" xlink:href="#DejaVuSans-48"/>
       <use transform="translate(222.65625 0.78125)" xlink:href="#DejaVuSans-49"/>
       <use transform="translate(286.279297 0.78125)" xlink:href="#DejaVuSans-52"/>
       <use transform="translate(349.902344 0.78125)" xlink:href="#DejaVuSans-48"/>
      </g>
     </g>
    </g>
    <g id="ytick_14">
     <g id="line2d_41">
      <path clip-path="url(#pc8a6815a26)" d="M 86.603664 92.170069 
L 645.165354 92.170069 
" style="fill:none;stroke:#000000;stroke-linecap:square;stroke-opacity:0.1;stroke-width:0.5;"/>
     </g>
     <g id="line2d_42">
      <g>
       <use style="stroke:#000000;stroke-width:0.5;" x="86.603664" xlink:href="#m4be232a42a" y="92.170069"/>
      </g>
     </g>
     <g id="line2d_43">
      <g>
       <use style="stroke:#000000;stroke-width:0.5;" x="645.165354" xlink:href="#m6c2c355edd" y="92.170069"/>
      </g>
     </g>
     <g id="text_15">
      <!-- $\mathregular{0.00145}$ -->
      <g transform="translate(33.423664 96.729131)scale(0.12 -0.12)">
       <use transform="translate(0 0.78125)" xlink:href="#DejaVuSans-48"/>
       <use transform="translate(63.623047 0.78125)" xlink:href="#DejaVuSans-46"/>
       <use transform="translate(95.410156 0.78125)" xlink:href="#DejaVuSans-48"/>
       <use transform="translate(159.033203 0.78125)" xlink:href="#DejaVuSans-48"/>
       <use transform="translate(222.65625 0.78125)" xlink:href="#DejaVuSans-49"/>
       <use transform="translate(286.279297 0.78125)" xlink:href="#DejaVuSans-52"/>
       <use transform="translate(349.902344 0.78125)" xlink:href="#DejaVuSans-53"/>
      </g>
     </g>
    </g>
    <g id="text_16">
     <!-- $Y_{CO}$ -->
     <g transform="translate(26.096164 140.081024)rotate(-90)scale(0.16 -0.16)">
      <defs>
       <path d="M 45.609375 66.21875 
Q 37.5 66.21875 31.296875 62.28125 
Q 25.09375 58.34375 20.515625 50.296875 
Q 17.578125 45.171875 16.03125 39.40625 
Q 14.5 33.640625 14.5 27.78125 
Q 14.5 17.625 19.359375 12.109375 
Q 24.21875 6.59375 33.109375 6.59375 
Q 41.109375 6.59375 47.375 10.5625 
Q 53.65625 14.546875 58.109375 22.40625 
Q 61.078125 27.6875 62.640625 33.46875 
Q 64.203125 39.265625 64.203125 45.015625 
Q 64.203125 55.125 59.3125 60.671875 
Q 54.4375 66.21875 45.609375 66.21875 
z
M 32.8125 -1.421875 
Q 19.390625 -1.421875 11.6875 6.53125 
Q 4 14.5 4 28.328125 
Q 4 36.234375 7 44.484375 
Q 10.015625 52.734375 15.28125 59.1875 
Q 21.484375 66.75 29.09375 70.484375 
Q 36.71875 74.21875 45.90625 74.21875 
Q 59.28125 74.21875 66.984375 66.328125 
Q 74.703125 58.453125 74.703125 44.828125 
Q 74.703125 36.421875 71.765625 28.3125 
Q 68.84375 20.21875 63.375 13.625 
Q 57.125 6 49.578125 2.28125 
Q 42.046875 -1.421875 32.8125 -1.421875 
z
" id="DejaVuSans-Oblique-79"/>
      </defs>
      <use transform="translate(0 0.09375)" xlink:href="#DejaVuSans-Oblique-89"/>
      <use transform="translate(61.083984 -16.3125)scale(0.7)" xlink:href="#DejaVuSans-Oblique-67"/>
      <use transform="translate(109.960938 -16.3125)scale(0.7)" xlink:href="#DejaVuSans-Oblique-79"/>
     </g>
    </g>
   </g>
   <g id="PathCollection_2">
    <g clip-path="url(#pc8a6815a26)">
     <use x="102.412014" xlink:href="#m8c4381eb9b" y="108.992717"/>
     <use x="107.73469" xlink:href="#m8c4381eb9b" y="109.946946"/>
     <use x="113.057367" xlink:href="#m8c4381eb9b" y="109.364879"/>
     <use x="118.380044" xlink:href="#m8c4381eb9b" y="106.812472"/>
     <use x="123.70272" xlink:href="#m8c4381eb9b" y="106.311707"/>
     <use x="129.025397" xlink:href="#m8c4381eb9b" y="106.240797"/>
     <use x="134.348074" xlink:href="#m8c4381eb9b" y="108.041873"/>
     <use x="139.67075" xlink:href="#m8c4381eb9b" y="108.912884"/>
     <use x="144.993427" xlink:href="#m8c4381eb9b" y="109.902717"/>
     <use x="150.316104" xlink:href="#m8c4381eb9b" y="110.067798"/>
     <use x="155.63878" xlink:href="#m8c4381eb9b" y="106.517873"/>
     <use x="160.961457" xlink:href="#m8c4381eb9b" y="104.613381"/>
     <use x="166.284134" xlink:href="#m8c4381eb9b" y="103.540583"/>
     <use x="171.60681" xlink:href="#m8c4381eb9b" y="105.522337"/>
     <use x="176.929487" xlink:href="#m8c4381eb9b" y="109.852488"/>
     <use x="182.252164" xlink:href="#m8c4381eb9b" y="112.738637"/>
     <use x="187.57484" xlink:href="#m8c4381eb9b" y="110.971432"/>
     <use x="192.897517" xlink:href="#m8c4381eb9b" y="108.39178"/>
     <use x="198.220194" xlink:href="#m8c4381eb9b" y="103.393523"/>
     <use x="203.54287" xlink:href="#m8c4381eb9b" y="100.700299"/>
     <use x="208.865547" xlink:href="#m8c4381eb9b" y="103.423362"/>
     <use x="214.188224" xlink:href="#m8c4381eb9b" y="109.511413"/>
     <use x="219.5109" xlink:href="#m8c4381eb9b" y="114.616547"/>
     <use x="224.833577" xlink:href="#m8c4381eb9b" y="115.299736"/>
     <use x="230.156254" xlink:href="#m8c4381eb9b" y="109.683658"/>
     <use x="235.47893" xlink:href="#m8c4381eb9b" y="101.44518"/>
     <use x="240.801607" xlink:href="#m8c4381eb9b" y="94.178982"/>
     <use x="246.124284" xlink:href="#m8c4381eb9b" y="94.967628"/>
     <use x="251.446961" xlink:href="#m8c4381eb9b" y="105.986289"/>
     <use x="256.769637" xlink:href="#m8c4381eb9b" y="119.537694"/>
     <use x="262.092314" xlink:href="#m8c4381eb9b" y="122.592891"/>
     <use x="267.414991" xlink:href="#m8c4381eb9b" y="114.722759"/>
     <use x="272.737667" xlink:href="#m8c4381eb9b" y="101.691889"/>
     <use x="278.060344" xlink:href="#m8c4381eb9b" y="90.134011"/>
     <use x="283.383021" xlink:href="#m8c4381eb9b" y="91.033203"/>
     <use x="288.705697" xlink:href="#m8c4381eb9b" y="113.665953"/>
     <use x="294.028374" xlink:href="#m8c4381eb9b" y="133.811619"/>
     <use x="299.351051" xlink:href="#m8c4381eb9b" y="135.751105"/>
     <use x="304.673727" xlink:href="#m8c4381eb9b" y="124.944099"/>
     <use x="309.996404" xlink:href="#m8c4381eb9b" y="110.280488"/>
     <use x="315.319081" xlink:href="#m8c4381eb9b" y="102.547658"/>
     <use x="320.641757" xlink:href="#m8c4381eb9b" y="110.801955"/>
     <use x="325.964434" xlink:href="#m8c4381eb9b" y="131.763608"/>
     <use x="331.287111" xlink:href="#m8c4381eb9b" y="141.449605"/>
     <use x="336.609787" xlink:href="#m8c4381eb9b" y="136.824083"/>
     <use x="341.932464" xlink:href="#m8c4381eb9b" y="127.673797"/>
     <use x="347.255141" xlink:href="#m8c4381eb9b" y="123.331784"/>
     <use x="352.577817" xlink:href="#m8c4381eb9b" y="126.424748"/>
     <use x="357.900494" xlink:href="#m8c4381eb9b" y="136.166083"/>
     <use x="363.223171" xlink:href="#m8c4381eb9b" y="142.018338"/>
     <use x="368.545847" xlink:href="#m8c4381eb9b" y="140.435516"/>
     <use x="373.868524" xlink:href="#m8c4381eb9b" y="137.844096"/>
     <use x="379.191201" xlink:href="#m8c4381eb9b" y="137.108203"/>
     <use x="384.513877" xlink:href="#m8c4381eb9b" y="139.822909"/>
     <use x="389.836554" xlink:href="#m8c4381eb9b" y="143.547918"/>
     <use x="395.159231" xlink:href="#m8c4381eb9b" y="145.272624"/>
     <use x="400.481907" xlink:href="#m8c4381eb9b" y="145.669"/>
     <use x="405.804584" xlink:href="#m8c4381eb9b" y="145.486127"/>
     <use x="411.127261" xlink:href="#m8c4381eb9b" y="146.78272"/>
     <use x="416.449938" xlink:href="#m8c4381eb9b" y="148.243101"/>
     <use x="421.772614" xlink:href="#m8c4381eb9b" y="149.659846"/>
     <use x="427.095291" xlink:href="#m8c4381eb9b" y="150.637687"/>
     <use x="432.417968" xlink:href="#m8c4381eb9b" y="151.654627"/>
     <use x="437.740644" xlink:href="#m8c4381eb9b" y="151.970941"/>
     <use x="443.063321" xlink:href="#m8c4381eb9b" y="152.879456"/>
     <use x="448.385998" xlink:href="#m8c4381eb9b" y="154.409209"/>
     <use x="453.708674" xlink:href="#m8c4381eb9b" y="154.582693"/>
     <use x="459.031351" xlink:href="#m8c4381eb9b" y="155.999165"/>
     <use x="464.354028" xlink:href="#m8c4381eb9b" y="157.22832"/>
     <use x="469.676704" xlink:href="#m8c4381eb9b" y="156.890493"/>
     <use x="474.999381" xlink:href="#m8c4381eb9b" y="158.726124"/>
     <use x="480.322058" xlink:href="#m8c4381eb9b" y="159.252031"/>
     <use x="485.644734" xlink:href="#m8c4381eb9b" y="158.825977"/>
     <use x="490.967411" xlink:href="#m8c4381eb9b" y="159.092736"/>
     <use x="496.290088" xlink:href="#m8c4381eb9b" y="159.860984"/>
     <use x="501.612764" xlink:href="#m8c4381eb9b" y="159.235987"/>
     <use x="506.935441" xlink:href="#m8c4381eb9b" y="160.063195"/>
     <use x="512.258118" xlink:href="#m8c4381eb9b" y="160.113058"/>
     <use x="517.580794" xlink:href="#m8c4381eb9b" y="159.231315"/>
     <use x="522.903471" xlink:href="#m8c4381eb9b" y="160.143499"/>
     <use x="528.226148" xlink:href="#m8c4381eb9b" y="160.261863"/>
     <use x="533.548824" xlink:href="#m8c4381eb9b" y="161.020203"/>
     <use x="538.871501" xlink:href="#m8c4381eb9b" y="161.077847"/>
     <use x="544.194178" xlink:href="#m8c4381eb9b" y="161.160979"/>
     <use x="549.516854" xlink:href="#m8c4381eb9b" y="160.538217"/>
     <use x="554.839531" xlink:href="#m8c4381eb9b" y="160.239331"/>
     <use x="560.162208" xlink:href="#m8c4381eb9b" y="160.52772"/>
     <use x="565.484884" xlink:href="#m8c4381eb9b" y="161.26622"/>
     <use x="570.807561" xlink:href="#m8c4381eb9b" y="161.931972"/>
     <use x="576.130238" xlink:href="#m8c4381eb9b" y="161.445438"/>
     <use x="581.452915" xlink:href="#m8c4381eb9b" y="161.259358"/>
     <use x="586.775591" xlink:href="#m8c4381eb9b" y="161.67436"/>
     <use x="592.098268" xlink:href="#m8c4381eb9b" y="162.263877"/>
     <use x="597.420945" xlink:href="#m8c4381eb9b" y="161.801349"/>
     <use x="602.743621" xlink:href="#m8c4381eb9b" y="162.126534"/>
     <use x="608.066298" xlink:href="#m8c4381eb9b" y="162.316247"/>
     <use x="613.388975" xlink:href="#m8c4381eb9b" y="161.895019"/>
     <use x="618.711651" xlink:href="#m8c4381eb9b" y="162.570241"/>
     <use x="624.034328" xlink:href="#m8c4381eb9b" y="162.599042"/>
     <use x="629.357005" xlink:href="#m8c4381eb9b" y="163.148037"/>
    </g>
   </g>
   <g id="line2d_44">
    <path clip-path="url(#pc8a6815a26)" d="M 102.412014 109.150776 
L 107.73469 109.429449 
L 113.057367 108.882306 
L 118.380044 107.809749 
L 123.70272 106.912053 
L 129.025397 106.897206 
L 134.348074 107.951283 
L 139.67075 109.424818 
L 144.993427 110.210418 
L 150.316104 109.595936 
L 155.63878 107.815487 
L 160.961457 105.96181 
L 166.284134 105.421395 
L 171.60681 106.941918 
L 176.929487 109.732396 
L 182.252164 111.728984 
L 187.57484 111.301033 
L 192.897517 108.494879 
L 198.220194 104.92966 
L 203.54287 103.068504 
L 208.865547 104.92838 
L 214.188224 109.961385 
L 219.5109 114.406821 
L 224.833577 114.736172 
L 230.156254 110.60318 
L 235.47893 104.345977 
L 240.801607 99.88066 
L 246.124284 101.536565 
L 251.446961 110.15119 
L 256.769637 119.008521 
L 262.092314 120.865763 
L 267.414991 115.192533 
L 272.737667 105.64871 
L 278.060344 97.873634 
L 283.383021 99.276656 
L 288.705697 113.052593 
L 294.028374 126.961016 
L 299.351051 129.367987 
L 304.673727 121.931303 
L 309.996404 110.774519 
L 315.319081 103.66706 
L 320.641757 109.734961 
L 325.964434 126.796992 
L 331.287111 136.987368 
L 336.609787 135.41073 
L 341.932464 128.130204 
L 347.255141 122.665089 
L 352.577817 125.406816 
L 357.900494 134.704791 
L 363.223171 141.169389 
L 368.545847 141.658578 
L 373.868524 139.594388 
L 379.191201 139.048626 
L 384.513877 141.380138 
L 389.836554 144.597795 
L 395.159231 146.552159 
L 400.481907 147.234553 
L 405.804584 147.728534 
L 411.127261 148.673283 
L 416.449938 149.896681 
L 421.772614 150.98812 
L 427.095291 151.822768 
L 432.417968 152.522813 
L 437.740644 153.208627 
L 443.063321 153.89281 
L 448.385998 154.535477 
L 453.708674 155.116218 
L 459.031351 155.643511 
L 464.354028 156.133255 
L 469.676704 156.592947 
L 474.999381 157.023003 
L 480.322058 157.423475 
L 485.644734 157.795966 
L 490.967411 158.143741 
L 496.290088 158.470093 
L 501.612764 158.776578 
L 506.935441 159.064838 
L 512.258118 159.336334 
L 517.580794 159.59265 
L 522.903471 159.83492 
L 528.226148 160.064569 
L 533.548824 160.282544 
L 538.871501 160.48996 
L 544.194178 160.687483 
L 549.516854 160.876117 
L 554.839531 161.056367 
L 560.162208 161.229111 
L 565.484884 161.394728 
L 570.807561 161.55389 
L 576.130238 161.707029 
L 581.452915 161.854496 
L 586.775591 161.996843 
L 592.098268 162.134274 
L 597.420945 162.267226 
L 602.743621 162.39597 
L 608.066298 162.520669 
L 613.388975 162.641703 
L 618.711651 162.759239 
L 624.034328 162.873414 
L 629.357005 162.984491 
" style="fill:none;stroke:#ff0000;"/>
   </g>
   <g id="patch_8">
    <path d="M 86.603664 165.338458 
L 86.603664 87.94359 
" style="fill:none;stroke:#000000;stroke-linecap:square;stroke-linejoin:miter;"/>
   </g>
   <g id="patch_9">
    <path d="M 645.165354 165.338458 
L 645.165354 87.94359 
" style="fill:none;stroke:#000000;stroke-linecap:square;stroke-linejoin:miter;"/>
   </g>
   <g id="patch_10">
    <path d="M 86.603664 165.338458 
L 645.165354 165.338458 
" style="fill:none;stroke:#000000;stroke-linecap:square;stroke-linejoin:miter;"/>
   </g>
   <g id="patch_11">
    <path d="M 86.603664 87.94359 
L 645.165354 87.94359 
" style="fill:none;stroke:#000000;stroke-linecap:square;stroke-linejoin:miter;"/>
   </g>
  </g>
  <g id="axes_3">
   <g id="patch_12">
    <path d="M 86.603664 250.305354 
L 645.165354 250.305354 
L 645.165354 172.910486 
L 86.603664 172.910486 
z
" style="fill:#ffffff;"/>
   </g>
   <g id="matplotlib.axis_5">
    <g id="xtick_13">
     <g id="line2d_45">
      <path clip-path="url(#p49bc423a31)" d="M 102.412014 250.305354 
L 102.412014 172.910486 
" style="fill:none;stroke:#000000;stroke-linecap:square;stroke-opacity:0.1;stroke-width:0.5;"/>
     </g>
     <g id="line2d_46">
      <defs>
       <path d="M 0 0 
L 0 -2.5 
" id="mfbebd5069e" style="stroke:#000000;stroke-width:0.5;"/>
      </defs>
      <g>
       <use style="stroke:#000000;stroke-width:0.5;" x="102.412014" xlink:href="#mfbebd5069e" y="250.305354"/>
      </g>
     </g>
     <g id="line2d_47">
      <defs>
       <path d="M 0 0 
L 0 2.5 
" id="mc2dc11214c" style="stroke:#000000;stroke-width:0.5;"/>
      </defs>
      <g>
       <use style="stroke:#000000;stroke-width:0.5;" x="102.412014" xlink:href="#mc2dc11214c" y="172.910486"/>
      </g>
     </g>
     <g id="text_17">
      <!-- $\mathregular{0.0}$ -->
      <g transform="translate(92.812014 262.923479)scale(0.12 -0.12)">
       <use transform="translate(0 0.78125)" xlink:href="#DejaVuSans-48"/>
       <use transform="translate(63.623047 0.78125)" xlink:href="#DejaVuSans-46"/>
       <use transform="translate(95.410156 0.78125)" xlink:href="#DejaVuSans-48"/>
      </g>
     </g>
    </g>
    <g id="xtick_14">
     <g id="line2d_48">
      <path clip-path="url(#p49bc423a31)" d="M 207.801012 250.305354 
L 207.801012 172.910486 
" style="fill:none;stroke:#000000;stroke-linecap:square;stroke-opacity:0.1;stroke-width:0.5;"/>
     </g>
     <g id="line2d_49">
      <g>
       <use style="stroke:#000000;stroke-width:0.5;" x="207.801012" xlink:href="#mfbebd5069e" y="250.305354"/>
      </g>
     </g>
     <g id="line2d_50">
      <g>
       <use style="stroke:#000000;stroke-width:0.5;" x="207.801012" xlink:href="#mc2dc11214c" y="172.910486"/>
      </g>
     </g>
     <g id="text_18">
      <!-- $\mathregular{0.1}$ -->
      <g transform="translate(198.201012 262.923479)scale(0.12 -0.12)">
       <use transform="translate(0 0.78125)" xlink:href="#DejaVuSans-48"/>
       <use transform="translate(63.623047 0.78125)" xlink:href="#DejaVuSans-46"/>
       <use transform="translate(95.410156 0.78125)" xlink:href="#DejaVuSans-49"/>
      </g>
     </g>
    </g>
    <g id="xtick_15">
     <g id="line2d_51">
      <path clip-path="url(#p49bc423a31)" d="M 313.19001 250.305354 
L 313.19001 172.910486 
" style="fill:none;stroke:#000000;stroke-linecap:square;stroke-opacity:0.1;stroke-width:0.5;"/>
     </g>
     <g id="line2d_52">
      <g>
       <use style="stroke:#000000;stroke-width:0.5;" x="313.19001" xlink:href="#mfbebd5069e" y="250.305354"/>
      </g>
     </g>
     <g id="line2d_53">
      <g>
       <use style="stroke:#000000;stroke-width:0.5;" x="313.19001" xlink:href="#mc2dc11214c" y="172.910486"/>
      </g>
     </g>
     <g id="text_19">
      <!-- $\mathregular{0.2}$ -->
      <g transform="translate(303.95001 262.923479)scale(0.12 -0.12)">
       <use transform="translate(0 0.78125)" xlink:href="#DejaVuSans-48"/>
       <use transform="translate(63.623047 0.78125)" xlink:href="#DejaVuSans-46"/>
       <use transform="translate(89.910156 0.78125)" xlink:href="#DejaVuSans-50"/>
      </g>
     </g>
    </g>
    <g id="xtick_16">
     <g id="line2d_54">
      <path clip-path="url(#p49bc423a31)" d="M 418.579008 250.305354 
L 418.579008 172.910486 
" style="fill:none;stroke:#000000;stroke-linecap:square;stroke-opacity:0.1;stroke-width:0.5;"/>
     </g>
     <g id="line2d_55">
      <g>
       <use style="stroke:#000000;stroke-width:0.5;" x="418.579008" xlink:href="#mfbebd5069e" y="250.305354"/>
      </g>
     </g>
     <g id="line2d_56">
      <g>
       <use style="stroke:#000000;stroke-width:0.5;" x="418.579008" xlink:href="#mc2dc11214c" y="172.910486"/>
      </g>
     </g>
     <g id="text_20">
      <!-- $\mathregular{0.3}$ -->
      <g transform="translate(408.979008 262.923479)scale(0.12 -0.12)">
       <use transform="translate(0 0.78125)" xlink:href="#DejaVuSans-48"/>
       <use transform="translate(63.623047 0.78125)" xlink:href="#DejaVuSans-46"/>
       <use transform="translate(95.410156 0.78125)" xlink:href="#DejaVuSans-51"/>
      </g>
     </g>
    </g>
    <g id="xtick_17">
     <g id="line2d_57">
      <path clip-path="url(#p49bc423a31)" d="M 523.968006 250.305354 
L 523.968006 172.910486 
" style="fill:none;stroke:#000000;stroke-linecap:square;stroke-opacity:0.1;stroke-width:0.5;"/>
     </g>
     <g id="line2d_58">
      <g>
       <use style="stroke:#000000;stroke-width:0.5;" x="523.968006" xlink:href="#mfbebd5069e" y="250.305354"/>
      </g>
     </g>
     <g id="line2d_59">
      <g>
       <use style="stroke:#000000;stroke-width:0.5;" x="523.968006" xlink:href="#mc2dc11214c" y="172.910486"/>
      </g>
     </g>
     <g id="text_21">
      <!-- $\mathregular{0.4}$ -->
      <g transform="translate(514.368006 262.923479)scale(0.12 -0.12)">
       <use transform="translate(0 0.78125)" xlink:href="#DejaVuSans-48"/>
       <use transform="translate(63.623047 0.78125)" xlink:href="#DejaVuSans-46"/>
       <use transform="translate(95.410156 0.78125)" xlink:href="#DejaVuSans-52"/>
      </g>
     </g>
    </g>
    <g id="xtick_18">
     <g id="line2d_60">
      <path clip-path="url(#p49bc423a31)" d="M 629.357005 250.305354 
L 629.357005 172.910486 
" style="fill:none;stroke:#000000;stroke-linecap:square;stroke-opacity:0.1;stroke-width:0.5;"/>
     </g>
     <g id="line2d_61">
      <g>
       <use style="stroke:#000000;stroke-width:0.5;" x="629.357005" xlink:href="#mfbebd5069e" y="250.305354"/>
      </g>
     </g>
     <g id="line2d_62">
      <g>
       <use style="stroke:#000000;stroke-width:0.5;" x="629.357005" xlink:href="#mc2dc11214c" y="172.910486"/>
      </g>
     </g>
     <g id="text_22">
      <!-- $\mathregular{0.5}$ -->
      <g transform="translate(619.757005 262.923479)scale(0.12 -0.12)">
       <use transform="translate(0 0.78125)" xlink:href="#DejaVuSans-48"/>
       <use transform="translate(63.623047 0.78125)" xlink:href="#DejaVuSans-46"/>
       <use transform="translate(95.410156 0.78125)" xlink:href="#DejaVuSans-53"/>
      </g>
     </g>
    </g>
    <g id="text_23">
     <!-- Time [s] -->
     <g transform="translate(333.358259 281.576604)scale(0.16 -0.16)">
      <defs>
       <path d="M -0.296875 72.90625 
L 61.375 72.90625 
L 61.375 64.59375 
L 35.5 64.59375 
L 35.5 0 
L 25.59375 0 
L 25.59375 64.59375 
L -0.296875 64.59375 
z
" id="DejaVuSans-84"/>
       <path d="M 9.421875 54.6875 
L 18.40625 54.6875 
L 18.40625 0 
L 9.421875 0 
z
M 9.421875 75.984375 
L 18.40625 75.984375 
L 18.40625 64.59375 
L 9.421875 64.59375 
z
" id="DejaVuSans-105"/>
       <path d="M 52 44.1875 
Q 55.375 50.25 60.0625 53.125 
Q 64.75 56 71.09375 56 
Q 79.640625 56 84.28125 50.015625 
Q 88.921875 44.046875 88.921875 33.015625 
L 88.921875 0 
L 79.890625 0 
L 79.890625 32.71875 
Q 79.890625 40.578125 77.09375 44.375 
Q 74.3125 48.1875 68.609375 48.1875 
Q 61.625 48.1875 57.5625 43.546875 
Q 53.515625 38.921875 53.515625 30.90625 
L 53.515625 0 
L 44.484375 0 
L 44.484375 32.71875 
Q 44.484375 40.625 41.703125 44.40625 
Q 38.921875 48.1875 33.109375 48.1875 
Q 26.21875 48.1875 22.15625 43.53125 
Q 18.109375 38.875 18.109375 30.90625 
L 18.109375 0 
L 9.078125 0 
L 9.078125 54.6875 
L 18.109375 54.6875 
L 18.109375 46.1875 
Q 21.1875 51.21875 25.484375 53.609375 
Q 29.78125 56 35.6875 56 
Q 41.65625 56 45.828125 52.96875 
Q 50 49.953125 52 44.1875 
z
" id="DejaVuSans-109"/>
       <path d="M 56.203125 29.59375 
L 56.203125 25.203125 
L 14.890625 25.203125 
Q 15.484375 15.921875 20.484375 11.0625 
Q 25.484375 6.203125 34.421875 6.203125 
Q 39.59375 6.203125 44.453125 7.46875 
Q 49.3125 8.734375 54.109375 11.28125 
L 54.109375 2.78125 
Q 49.265625 0.734375 44.1875 -0.34375 
Q 39.109375 -1.421875 33.890625 -1.421875 
Q 20.796875 -1.421875 13.15625 6.1875 
Q 5.515625 13.8125 5.515625 26.8125 
Q 5.515625 40.234375 12.765625 48.109375 
Q 20.015625 56 32.328125 56 
Q 43.359375 56 49.78125 48.890625 
Q 56.203125 41.796875 56.203125 29.59375 
z
M 47.21875 32.234375 
Q 47.125 39.59375 43.09375 43.984375 
Q 39.0625 48.390625 32.421875 48.390625 
Q 24.90625 48.390625 20.390625 44.140625 
Q 15.875 39.890625 15.1875 32.171875 
z
" id="DejaVuSans-101"/>
       <path id="DejaVuSans-32"/>
       <path d="M 8.59375 75.984375 
L 29.296875 75.984375 
L 29.296875 69 
L 17.578125 69 
L 17.578125 -6.203125 
L 29.296875 -6.203125 
L 29.296875 -13.1875 
L 8.59375 -13.1875 
z
" id="DejaVuSans-91"/>
       <path d="M 44.28125 53.078125 
L 44.28125 44.578125 
Q 40.484375 46.53125 36.375 47.5 
Q 32.28125 48.484375 27.875 48.484375 
Q 21.1875 48.484375 17.84375 46.4375 
Q 14.5 44.390625 14.5 40.28125 
Q 14.5 37.15625 16.890625 35.375 
Q 19.28125 33.59375 26.515625 31.984375 
L 29.59375 31.296875 
Q 39.15625 29.25 43.1875 25.515625 
Q 47.21875 21.78125 47.21875 15.09375 
Q 47.21875 7.46875 41.1875 3.015625 
Q 35.15625 -1.421875 24.609375 -1.421875 
Q 20.21875 -1.421875 15.453125 -0.5625 
Q 10.6875 0.296875 5.421875 2 
L 5.421875 11.28125 
Q 10.40625 8.6875 15.234375 7.390625 
Q 20.0625 6.109375 24.8125 6.109375 
Q 31.15625 6.109375 34.5625 8.28125 
Q 37.984375 10.453125 37.984375 14.40625 
Q 37.984375 18.0625 35.515625 20.015625 
Q 33.0625 21.96875 24.703125 23.78125 
L 21.578125 24.515625 
Q 13.234375 26.265625 9.515625 29.90625 
Q 5.8125 33.546875 5.8125 39.890625 
Q 5.8125 47.609375 11.28125 51.796875 
Q 16.75 56 26.8125 56 
Q 31.78125 56 36.171875 55.265625 
Q 40.578125 54.546875 44.28125 53.078125 
z
" id="DejaVuSans-115"/>
       <path d="M 30.421875 75.984375 
L 30.421875 -13.1875 
L 9.71875 -13.1875 
L 9.71875 -6.203125 
L 21.390625 -6.203125 
L 21.390625 69 
L 9.71875 69 
L 9.71875 75.984375 
z
" id="DejaVuSans-93"/>
      </defs>
      <use xlink:href="#DejaVuSans-84"/>
      <use x="57.958984" xlink:href="#DejaVuSans-105"/>
      <use x="85.742188" xlink:href="#DejaVuSans-109"/>
      <use x="183.154297" xlink:href="#DejaVuSans-101"/>
      <use x="244.677734" xlink:href="#DejaVuSans-32"/>
      <use x="276.464844" xlink:href="#DejaVuSans-91"/>
      <use x="315.478516" xlink:href="#DejaVuSans-115"/>
      <use x="367.578125" xlink:href="#DejaVuSans-93"/>
     </g>
    </g>
   </g>
   <g id="matplotlib.axis_6">
    <g id="ytick_15">
     <g id="line2d_63">
      <path clip-path="url(#p49bc423a31)" d="M 86.603664 235.881513 
L 645.165354 235.881513 
" style="fill:none;stroke:#000000;stroke-linecap:square;stroke-opacity:0.1;stroke-width:0.5;"/>
     </g>
     <g id="line2d_64">
      <g>
       <use style="stroke:#000000;stroke-width:0.5;" x="86.603664" xlink:href="#m4be232a42a" y="235.881513"/>
      </g>
     </g>
     <g id="line2d_65">
      <g>
       <use style="stroke:#000000;stroke-width:0.5;" x="645.165354" xlink:href="#m6c2c355edd" y="235.881513"/>
      </g>
     </g>
     <g id="text_24">
      <!-- $\mathregular{1267.5}$ -->
      <g transform="translate(41.103664 240.440575)scale(0.12 -0.12)">
       <defs>
        <path d="M 33.015625 40.375 
Q 26.375 40.375 22.484375 35.828125 
Q 18.609375 31.296875 18.609375 23.390625 
Q 18.609375 15.53125 22.484375 10.953125 
Q 26.375 6.390625 33.015625 6.390625 
Q 39.65625 6.390625 43.53125 10.953125 
Q 47.40625 15.53125 47.40625 23.390625 
Q 47.40625 31.296875 43.53125 35.828125 
Q 39.65625 40.375 33.015625 40.375 
z
M 52.59375 71.296875 
L 52.59375 62.3125 
Q 48.875 64.0625 45.09375 64.984375 
Q 41.3125 65.921875 37.59375 65.921875 
Q 27.828125 65.921875 22.671875 59.328125 
Q 17.53125 52.734375 16.796875 39.40625 
Q 19.671875 43.65625 24.015625 45.921875 
Q 28.375 48.1875 33.59375 48.1875 
Q 44.578125 48.1875 50.953125 41.515625 
Q 57.328125 34.859375 57.328125 23.390625 
Q 57.328125 12.15625 50.6875 5.359375 
Q 44.046875 -1.421875 33.015625 -1.421875 
Q 20.359375 -1.421875 13.671875 8.265625 
Q 6.984375 17.96875 6.984375 36.375 
Q 6.984375 53.65625 15.1875 63.9375 
Q 23.390625 74.21875 37.203125 74.21875 
Q 40.921875 74.21875 44.703125 73.484375 
Q 48.484375 72.75 52.59375 71.296875 
z
" id="DejaVuSans-54"/>
        <path d="M 8.203125 72.90625 
L 55.078125 72.90625 
L 55.078125 68.703125 
L 28.609375 0 
L 18.3125 0 
L 43.21875 64.59375 
L 8.203125 64.59375 
z
" id="DejaVuSans-55"/>
       </defs>
       <use transform="translate(0 0.78125)" xlink:href="#DejaVuSans-49"/>
       <use transform="translate(63.623047 0.78125)" xlink:href="#DejaVuSans-50"/>
       <use transform="translate(127.246094 0.78125)" xlink:href="#DejaVuSans-54"/>
       <use transform="translate(190.869141 0.78125)" xlink:href="#DejaVuSans-55"/>
       <use transform="translate(254.492188 0.78125)" xlink:href="#DejaVuSans-46"/>
       <use transform="translate(286.279297 0.78125)" xlink:href="#DejaVuSans-53"/>
      </g>
     </g>
    </g>
    <g id="ytick_16">
     <g id="line2d_66">
      <path clip-path="url(#p49bc423a31)" d="M 86.603664 218.991755 
L 645.165354 218.991755 
" style="fill:none;stroke:#000000;stroke-linecap:square;stroke-opacity:0.1;stroke-width:0.5;"/>
     </g>
     <g id="line2d_67">
      <g>
       <use style="stroke:#000000;stroke-width:0.5;" x="86.603664" xlink:href="#m4be232a42a" y="218.991755"/>
      </g>
     </g>
     <g id="line2d_68">
      <g>
       <use style="stroke:#000000;stroke-width:0.5;" x="645.165354" xlink:href="#m6c2c355edd" y="218.991755"/>
      </g>
     </g>
     <g id="text_25">
      <!-- $\mathregular{1270.0}$ -->
      <g transform="translate(41.103664 223.550818)scale(0.12 -0.12)">
       <use transform="translate(0 0.78125)" xlink:href="#DejaVuSans-49"/>
       <use transform="translate(63.623047 0.78125)" xlink:href="#DejaVuSans-50"/>
       <use transform="translate(127.246094 0.78125)" xlink:href="#DejaVuSans-55"/>
       <use transform="translate(190.869141 0.78125)" xlink:href="#DejaVuSans-48"/>
       <use transform="translate(254.492188 0.78125)" xlink:href="#DejaVuSans-46"/>
       <use transform="translate(286.279297 0.78125)" xlink:href="#DejaVuSans-48"/>
      </g>
     </g>
    </g>
    <g id="ytick_17">
     <g id="line2d_69">
      <path clip-path="url(#p49bc423a31)" d="M 86.603664 202.101997 
L 645.165354 202.101997 
" style="fill:none;stroke:#000000;stroke-linecap:square;stroke-opacity:0.1;stroke-width:0.5;"/>
     </g>
     <g id="line2d_70">
      <g>
       <use style="stroke:#000000;stroke-width:0.5;" x="86.603664" xlink:href="#m4be232a42a" y="202.101997"/>
      </g>
     </g>
     <g id="line2d_71">
      <g>
       <use style="stroke:#000000;stroke-width:0.5;" x="645.165354" xlink:href="#m6c2c355edd" y="202.101997"/>
      </g>
     </g>
     <g id="text_26">
      <!-- $\mathregular{1272.5}$ -->
      <g transform="translate(41.103664 206.66106)scale(0.12 -0.12)">
       <use transform="translate(0 0.78125)" xlink:href="#DejaVuSans-49"/>
       <use transform="translate(63.623047 0.78125)" xlink:href="#DejaVuSans-50"/>
       <use transform="translate(127.246094 0.78125)" xlink:href="#DejaVuSans-55"/>
       <use transform="translate(190.869141 0.78125)" xlink:href="#DejaVuSans-50"/>
       <use transform="translate(254.492188 0.78125)" xlink:href="#DejaVuSans-46"/>
       <use transform="translate(286.279297 0.78125)" xlink:href="#DejaVuSans-53"/>
      </g>
     </g>
    </g>
    <g id="ytick_18">
     <g id="line2d_72">
      <path clip-path="url(#p49bc423a31)" d="M 86.603664 185.21224 
L 645.165354 185.21224 
" style="fill:none;stroke:#000000;stroke-linecap:square;stroke-opacity:0.1;stroke-width:0.5;"/>
     </g>
     <g id="line2d_73">
      <g>
       <use style="stroke:#000000;stroke-width:0.5;" x="86.603664" xlink:href="#m4be232a42a" y="185.21224"/>
      </g>
     </g>
     <g id="line2d_74">
      <g>
       <use style="stroke:#000000;stroke-width:0.5;" x="645.165354" xlink:href="#m6c2c355edd" y="185.21224"/>
      </g>
     </g>
     <g id="text_27">
      <!-- $\mathregular{1275.0}$ -->
      <g transform="translate(41.103664 189.771302)scale(0.12 -0.12)">
       <use transform="translate(0 0.78125)" xlink:href="#DejaVuSans-49"/>
       <use transform="translate(63.623047 0.78125)" xlink:href="#DejaVuSans-50"/>
       <use transform="translate(127.246094 0.78125)" xlink:href="#DejaVuSans-55"/>
       <use transform="translate(190.869141 0.78125)" xlink:href="#DejaVuSans-53"/>
       <use transform="translate(254.492188 0.78125)" xlink:href="#DejaVuSans-46"/>
       <use transform="translate(286.279297 0.78125)" xlink:href="#DejaVuSans-48"/>
      </g>
     </g>
    </g>
    <g id="text_28">
     <!-- T [K] -->
     <g transform="translate(33.776164 230.52542)rotate(-90)scale(0.16 -0.16)">
      <defs>
       <path d="M 9.8125 72.90625 
L 19.671875 72.90625 
L 19.671875 42.09375 
L 52.390625 72.90625 
L 65.09375 72.90625 
L 28.90625 38.921875 
L 67.671875 0 
L 54.6875 0 
L 19.671875 35.109375 
L 19.671875 0 
L 9.8125 0 
z
" id="DejaVuSans-75"/>
      </defs>
      <use xlink:href="#DejaVuSans-84"/>
      <use x="61.083984" xlink:href="#DejaVuSans-32"/>
      <use x="92.871094" xlink:href="#DejaVuSans-91"/>
      <use x="131.884766" xlink:href="#DejaVuSans-75"/>
      <use x="197.460938" xlink:href="#DejaVuSans-93"/>
     </g>
    </g>
   </g>
   <g id="PathCollection_3">
    <g clip-path="url(#p49bc423a31)">
     <use x="102.412014" xlink:href="#m8c4381eb9b" y="236.918268"/>
     <use x="107.73469" xlink:href="#m8c4381eb9b" y="237.611844"/>
     <use x="113.057367" xlink:href="#m8c4381eb9b" y="237.735484"/>
     <use x="118.380044" xlink:href="#m8c4381eb9b" y="238.337257"/>
     <use x="123.70272" xlink:href="#m8c4381eb9b" y="238.782193"/>
     <use x="129.025397" xlink:href="#m8c4381eb9b" y="238.167703"/>
     <use x="134.348074" xlink:href="#m8c4381eb9b" y="238.30975"/>
     <use x="139.67075" xlink:href="#m8c4381eb9b" y="237.184135"/>
     <use x="144.993427" xlink:href="#m8c4381eb9b" y="236.486223"/>
     <use x="150.316104" xlink:href="#m8c4381eb9b" y="237.234482"/>
     <use x="155.63878" xlink:href="#m8c4381eb9b" y="239.241675"/>
     <use x="160.961457" xlink:href="#m8c4381eb9b" y="239.539218"/>
     <use x="166.284134" xlink:href="#m8c4381eb9b" y="239.077621"/>
     <use x="171.60681" xlink:href="#m8c4381eb9b" y="238.738001"/>
     <use x="176.929487" xlink:href="#m8c4381eb9b" y="236.720965"/>
     <use x="182.252164" xlink:href="#m8c4381eb9b" y="236.2812"/>
     <use x="187.57484" xlink:href="#m8c4381eb9b" y="236.855738"/>
     <use x="192.897517" xlink:href="#m8c4381eb9b" y="239.058358"/>
     <use x="198.220194" xlink:href="#m8c4381eb9b" y="240.875616"/>
     <use x="203.54287" xlink:href="#m8c4381eb9b" y="241.376495"/>
     <use x="208.865547" xlink:href="#m8c4381eb9b" y="239.745831"/>
     <use x="214.188224" xlink:href="#m8c4381eb9b" y="236.818723"/>
     <use x="219.5109" xlink:href="#m8c4381eb9b" y="235.022675"/>
     <use x="224.833577" xlink:href="#m8c4381eb9b" y="235.989928"/>
     <use x="230.156254" xlink:href="#m8c4381eb9b" y="239.514438"/>
     <use x="235.47893" xlink:href="#m8c4381eb9b" y="244.071954"/>
     <use x="240.801607" xlink:href="#m8c4381eb9b" y="245.693943"/>
     <use x="246.124284" xlink:href="#m8c4381eb9b" y="242.728397"/>
     <use x="251.446961" xlink:href="#m8c4381eb9b" y="236.961008"/>
     <use x="256.769637" xlink:href="#m8c4381eb9b" y="233.261582"/>
     <use x="262.092314" xlink:href="#m8c4381eb9b" y="233.684447"/>
     <use x="267.414991" xlink:href="#m8c4381eb9b" y="238.672486"/>
     <use x="272.737667" xlink:href="#m8c4381eb9b" y="244.847278"/>
     <use x="278.060344" xlink:href="#m8c4381eb9b" y="248.114934"/>
     <use x="283.383021" xlink:href="#m8c4381eb9b" y="243.652536"/>
     <use x="288.705697" xlink:href="#m8c4381eb9b" y="232.427174"/>
     <use x="294.028374" xlink:href="#m8c4381eb9b" y="225.880939"/>
     <use x="299.351051" xlink:href="#m8c4381eb9b" y="227.228651"/>
     <use x="304.673727" xlink:href="#m8c4381eb9b" y="233.010133"/>
     <use x="309.996404" xlink:href="#m8c4381eb9b" y="239.723063"/>
     <use x="315.319081" xlink:href="#m8c4381eb9b" y="239.681396"/>
     <use x="320.641757" xlink:href="#m8c4381eb9b" y="233.202592"/>
     <use x="325.964434" xlink:href="#m8c4381eb9b" y="224.699098"/>
     <use x="331.287111" xlink:href="#m8c4381eb9b" y="222.878033"/>
     <use x="336.609787" xlink:href="#m8c4381eb9b" y="225.693416"/>
     <use x="341.932464" xlink:href="#m8c4381eb9b" y="228.107511"/>
     <use x="347.255141" xlink:href="#m8c4381eb9b" y="229.290249"/>
     <use x="352.577817" xlink:href="#m8c4381eb9b" y="226.033162"/>
     <use x="357.900494" xlink:href="#m8c4381eb9b" y="221.599246"/>
     <use x="363.223171" xlink:href="#m8c4381eb9b" y="219.629591"/>
     <use x="368.545847" xlink:href="#m8c4381eb9b" y="219.462986"/>
     <use x="373.868524" xlink:href="#m8c4381eb9b" y="220.07828"/>
     <use x="379.191201" xlink:href="#m8c4381eb9b" y="220.217075"/>
     <use x="384.513877" xlink:href="#m8c4381eb9b" y="217.874247"/>
     <use x="389.836554" xlink:href="#m8c4381eb9b" y="215.877039"/>
     <use x="395.159231" xlink:href="#m8c4381eb9b" y="214.782744"/>
     <use x="400.481907" xlink:href="#m8c4381eb9b" y="213.589202"/>
     <use x="405.804584" xlink:href="#m8c4381eb9b" y="213.636118"/>
     <use x="411.127261" xlink:href="#m8c4381eb9b" y="212.334424"/>
     <use x="416.449938" xlink:href="#m8c4381eb9b" y="210.051265"/>
     <use x="421.772614" xlink:href="#m8c4381eb9b" y="209.206635"/>
     <use x="427.095291" xlink:href="#m8c4381eb9b" y="208.317799"/>
     <use x="432.417968" xlink:href="#m8c4381eb9b" y="206.476671"/>
     <use x="437.740644" xlink:href="#m8c4381eb9b" y="205.922263"/>
     <use x="443.063321" xlink:href="#m8c4381eb9b" y="204.418033"/>
     <use x="448.385998" xlink:href="#m8c4381eb9b" y="202.957741"/>
     <use x="453.708674" xlink:href="#m8c4381eb9b" y="202.10073"/>
     <use x="459.031351" xlink:href="#m8c4381eb9b" y="201.327202"/>
     <use x="464.354028" xlink:href="#m8c4381eb9b" y="199.559675"/>
     <use x="469.676704" xlink:href="#m8c4381eb9b" y="198.004993"/>
     <use x="474.999381" xlink:href="#m8c4381eb9b" y="197.198054"/>
     <use x="480.322058" xlink:href="#m8c4381eb9b" y="195.210779"/>
     <use x="485.644734" xlink:href="#m8c4381eb9b" y="195.058332"/>
     <use x="490.967411" xlink:href="#m8c4381eb9b" y="193.535123"/>
     <use x="496.290088" xlink:href="#m8c4381eb9b" y="192.553752"/>
     <use x="501.612764" xlink:href="#m8c4381eb9b" y="191.817863"/>
     <use x="506.935441" xlink:href="#m8c4381eb9b" y="190.328195"/>
     <use x="512.258118" xlink:href="#m8c4381eb9b" y="189.417315"/>
     <use x="517.580794" xlink:href="#m8c4381eb9b" y="189.298546"/>
     <use x="522.903471" xlink:href="#m8c4381eb9b" y="188.743467"/>
     <use x="528.226148" xlink:href="#m8c4381eb9b" y="186.878721"/>
     <use x="533.548824" xlink:href="#m8c4381eb9b" y="186.102416"/>
     <use x="538.871501" xlink:href="#m8c4381eb9b" y="185.748302"/>
     <use x="544.194178" xlink:href="#m8c4381eb9b" y="185.743493"/>
     <use x="549.516854" xlink:href="#m8c4381eb9b" y="183.773021"/>
     <use x="554.839531" xlink:href="#m8c4381eb9b" y="184.117477"/>
     <use x="560.162208" xlink:href="#m8c4381eb9b" y="182.740424"/>
     <use x="565.484884" xlink:href="#m8c4381eb9b" y="182.474197"/>
     <use x="570.807561" xlink:href="#m8c4381eb9b" y="181.68035"/>
     <use x="576.130238" xlink:href="#m8c4381eb9b" y="180.666395"/>
     <use x="581.452915" xlink:href="#m8c4381eb9b" y="179.639321"/>
     <use x="586.775591" xlink:href="#m8c4381eb9b" y="179.479062"/>
     <use x="592.098268" xlink:href="#m8c4381eb9b" y="178.892167"/>
     <use x="597.420945" xlink:href="#m8c4381eb9b" y="178.55243"/>
     <use x="602.743621" xlink:href="#m8c4381eb9b" y="177.540011"/>
     <use x="608.066298" xlink:href="#m8c4381eb9b" y="177.324556"/>
     <use x="613.388975" xlink:href="#m8c4381eb9b" y="177.368354"/>
     <use x="618.711651" xlink:href="#m8c4381eb9b" y="176.360056"/>
     <use x="624.034328" xlink:href="#m8c4381eb9b" y="175.696827"/>
     <use x="629.357005" xlink:href="#m8c4381eb9b" y="175.320041"/>
    </g>
   </g>
   <g id="line2d_75">
    <path clip-path="url(#p49bc423a31)" d="M 102.412014 236.799141 
L 107.73469 236.907031 
L 113.057367 237.341843 
L 118.380044 237.891498 
L 123.70272 238.214539 
L 129.025397 238.071256 
L 134.348074 237.53428 
L 139.67075 237.006461 
L 144.993427 236.94959 
L 150.316104 237.528728 
L 155.63878 238.461754 
L 160.961457 239.1546 
L 166.284134 239.062095 
L 171.60681 238.125763 
L 176.929487 236.969302 
L 182.252164 236.509855 
L 187.57484 237.225655 
L 192.897517 238.789678 
L 198.220194 240.230286 
L 203.54287 240.442274 
L 208.865547 238.969361 
L 214.188224 236.680139 
L 219.5109 235.340774 
L 224.833577 236.079803 
L 230.156254 238.56872 
L 235.47893 241.306159 
L 240.801607 242.293815 
L 246.124284 240.191792 
L 251.446961 236.00769 
L 256.769637 233.050854 
L 262.092314 233.59984 
L 267.414991 237.19993 
L 272.737667 241.570199 
L 278.060344 243.546262 
L 283.383021 240.539008 
L 288.705697 233.825912 
L 294.028374 229.194705 
L 299.351051 229.805272 
L 304.673727 234.172365 
L 309.996404 238.837513 
L 315.319081 239.738821 
L 320.641757 234.624654 
L 325.964434 227.449214 
L 331.287111 224.460659 
L 336.609787 226.051599 
L 341.932464 229.080843 
L 347.255141 230.014656 
L 352.577817 227.157581 
L 357.900494 222.774938 
L 363.223171 220.308996 
L 368.545847 220.08848 
L 373.868524 220.355835 
L 379.191201 219.585824 
L 384.513877 217.713896 
L 389.836554 215.759438 
L 395.159231 214.386922 
L 400.481907 213.406496 
L 405.804584 212.369552 
L 411.127261 211.112083 
L 416.449938 209.766026 
L 421.772614 208.484785 
L 427.095291 207.287985 
L 432.417968 206.119361 
L 437.740644 204.942939 
L 443.063321 203.764956 
L 448.385998 202.604458 
L 453.708674 201.468704 
L 459.031351 200.354752 
L 464.354028 199.258704 
L 469.676704 198.18024 
L 474.999381 197.121142 
L 480.322058 196.082597 
L 485.644734 195.065063 
L 490.967411 194.068325 
L 496.290088 193.092291 
L 501.612764 192.13707 
L 506.935441 191.202824 
L 512.258118 190.289573 
L 517.580794 189.39724 
L 522.903471 188.525729 
L 528.226148 187.674877 
L 533.548824 186.84453 
L 538.871501 186.034476 
L 544.194178 185.244542 
L 549.516854 184.474429 
L 554.839531 183.723949 
L 560.162208 182.992727 
L 565.484884 182.280575 
L 570.807561 181.587103 
L 576.130238 180.91203 
L 581.452915 180.255093 
L 586.775591 179.615839 
L 592.098268 178.994074 
L 597.420945 178.389342 
L 602.743621 177.801325 
L 608.066298 177.229813 
L 613.388975 176.674282 
L 618.711651 176.134476 
L 624.034328 175.610167 
L 629.357005 175.100907 
" style="fill:none;stroke:#ff0000;"/>
   </g>
   <g id="patch_13">
    <path d="M 86.603664 250.305354 
L 86.603664 172.910486 
" style="fill:none;stroke:#000000;stroke-linecap:square;stroke-linejoin:miter;"/>
   </g>
   <g id="patch_14">
    <path d="M 645.165354 250.305354 
L 645.165354 172.910486 
" style="fill:none;stroke:#000000;stroke-linecap:square;stroke-linejoin:miter;"/>
   </g>
   <g id="patch_15">
    <path d="M 86.603664 250.305354 
L 645.165354 250.305354 
" style="fill:none;stroke:#000000;stroke-linecap:square;stroke-linejoin:miter;"/>
   </g>
   <g id="patch_16">
    <path d="M 86.603664 172.910486 
L 645.165354 172.910486 
" style="fill:none;stroke:#000000;stroke-linecap:square;stroke-linejoin:miter;"/>
   </g>
  </g>
 </g>
 <defs>
  <clipPath id="p1a7ff53693">
   <rect height="77.394868" width="558.56169" x="86.603664" y="2.834646"/>
  </clipPath>
  <clipPath id="pc8a6815a26">
   <rect height="77.394868" width="558.56169" x="86.603664" y="87.94359"/>
  </clipPath>
  <clipPath id="p49bc423a31">
   <rect height="77.394868" width="558.56169" x="86.603664" y="172.910486"/>
  </clipPath>
 </defs>
</svg>
