<?xml version="1.0" encoding="utf-8" standalone="no"?>
<!DOCTYPE svg PUBLIC "-//W3C//DTD SVG 1.1//EN"
  "http://www.w3.org/Graphics/SVG/1.1/DTD/svg11.dtd">
<!-- Created with matplotlib (https://matplotlib.org/) -->
<svg height="288pt" version="1.1" viewBox="0 0 720 288" width="720pt" xmlns="http://www.w3.org/2000/svg" xmlns:xlink="http://www.w3.org/1999/xlink">
 <metadata>
  <rdf:RDF xmlns:cc="http://creativecommons.org/ns#" xmlns:dc="http://purl.org/dc/elements/1.1/" xmlns:rdf="http://www.w3.org/1999/02/22-rdf-syntax-ns#">
   <cc:Work>
    <dc:type rdf:resource="http://purl.org/dc/dcmitype/StillImage"/>
    <dc:date>2021-04-25T02:02:13.908839</dc:date>
    <dc:format>image/svg+xml</dc:format>
    <dc:creator>
     <cc:Agent>
      <dc:title>Matplotlib v3.3.2, https://matplotlib.org/</dc:title>
     </cc:Agent>
    </dc:creator>
   </cc:Work>
  </rdf:RDF>
 </metadata>
 <defs>
  <style type="text/css">*{stroke-linecap:butt;stroke-linejoin:round;}</style>
 </defs>
 <g id="figure_1">
  <g id="patch_1">
   <path d="M 0 288 
L 720 288 
L 720 0 
L 0 0 
z
" style="fill:#ffffff;"/>
  </g>
  <g id="axes_1">
   <g id="patch_2">
    <path d="M 86.603664 80.229514 
L 585.015354 80.229514 
L 585.015354 2.834646 
L 86.603664 2.834646 
z
" style="fill:#ffffff;"/>
   </g>
   <g id="matplotlib.axis_1">
    <g id="xtick_1"/>
    <g id="xtick_2"/>
    <g id="xtick_3"/>
    <g id="xtick_4"/>
    <g id="xtick_5"/>
    <g id="xtick_6"/>
   </g>
   <g id="matplotlib.axis_2">
    <g id="ytick_1">
     <g id="line2d_1">
      <path clip-path="url(#p1167d1dc85)" d="M 86.603664 78.447493 
L 585.015354 78.447493 
" style="fill:none;stroke:#000000;stroke-linecap:square;stroke-opacity:0.1;stroke-width:0.5;"/>
     </g>
     <g id="line2d_2">
      <defs>
       <path d="M 0 0 
L 2.5 0 
" id="mc55b216c86" style="stroke:#000000;stroke-width:0.5;"/>
      </defs>
      <g>
       <use style="stroke:#000000;stroke-width:0.5;" x="86.603664" xlink:href="#mc55b216c86" y="78.447493"/>
      </g>
     </g>
     <g id="line2d_3">
      <defs>
       <path d="M 0 0 
L -2.5 0 
" id="me8768b467d" style="stroke:#000000;stroke-width:0.5;"/>
      </defs>
      <g>
       <use style="stroke:#000000;stroke-width:0.5;" x="585.015354" xlink:href="#me8768b467d" y="78.447493"/>
      </g>
     </g>
     <g id="text_1">
      <!-- $\mathregular{2.5×10^{-5}}$ -->
      <g transform="translate(25.863664 83.006555)scale(0.12 -0.12)">
       <defs>
        <path d="M 19.1875 8.296875 
L 53.609375 8.296875 
L 53.609375 0 
L 7.328125 0 
L 7.328125 8.296875 
Q 12.9375 14.109375 22.625 23.890625 
Q 32.328125 33.6875 34.8125 36.53125 
Q 39.546875 41.84375 41.421875 45.53125 
Q 43.3125 49.21875 43.3125 52.78125 
Q 43.3125 58.59375 39.234375 62.25 
Q 35.15625 65.921875 28.609375 65.921875 
Q 23.96875 65.921875 18.8125 64.3125 
Q 13.671875 62.703125 7.8125 59.421875 
L 7.8125 69.390625 
Q 13.765625 71.78125 18.9375 73 
Q 24.125 74.21875 28.421875 74.21875 
Q 39.75 74.21875 46.484375 68.546875 
Q 53.21875 62.890625 53.21875 53.421875 
Q 53.21875 48.921875 51.53125 44.890625 
Q 49.859375 40.875 45.40625 35.40625 
Q 44.1875 33.984375 37.640625 27.21875 
Q 31.109375 20.453125 19.1875 8.296875 
z
" id="DejaVuSans-50"/>
        <path d="M 10.6875 12.40625 
L 21 12.40625 
L 21 0 
L 10.6875 0 
z
" id="DejaVuSans-46"/>
        <path d="M 10.796875 72.90625 
L 49.515625 72.90625 
L 49.515625 64.59375 
L 19.828125 64.59375 
L 19.828125 46.734375 
Q 21.96875 47.46875 24.109375 47.828125 
Q 26.265625 48.1875 28.421875 48.1875 
Q 40.625 48.1875 47.75 41.5 
Q 54.890625 34.8125 54.890625 23.390625 
Q 54.890625 11.625 47.5625 5.09375 
Q 40.234375 -1.421875 26.90625 -1.421875 
Q 22.3125 -1.421875 17.546875 -0.640625 
Q 12.796875 0.140625 7.71875 1.703125 
L 7.71875 11.625 
Q 12.109375 9.234375 16.796875 8.0625 
Q 21.484375 6.890625 26.703125 6.890625 
Q 35.15625 6.890625 40.078125 11.328125 
Q 45.015625 15.765625 45.015625 23.390625 
Q 45.015625 31 40.078125 35.4375 
Q 35.15625 39.890625 26.703125 39.890625 
Q 22.75 39.890625 18.8125 39.015625 
Q 14.890625 38.140625 10.796875 36.28125 
z
" id="DejaVuSans-53"/>
        <path d="M 70.125 53.71875 
L 47.796875 31.296875 
L 70.125 8.984375 
L 64.3125 3.078125 
L 41.890625 25.484375 
L 19.484375 3.078125 
L 13.71875 8.984375 
L 35.984375 31.296875 
L 13.71875 53.71875 
L 19.484375 59.625 
L 41.890625 37.203125 
L 64.3125 59.625 
z
" id="DejaVuSans-215"/>
        <path d="M 12.40625 8.296875 
L 28.515625 8.296875 
L 28.515625 63.921875 
L 10.984375 60.40625 
L 10.984375 69.390625 
L 28.421875 72.90625 
L 38.28125 72.90625 
L 38.28125 8.296875 
L 54.390625 8.296875 
L 54.390625 0 
L 12.40625 0 
z
" id="DejaVuSans-49"/>
        <path d="M 31.78125 66.40625 
Q 24.171875 66.40625 20.328125 58.90625 
Q 16.5 51.421875 16.5 36.375 
Q 16.5 21.390625 20.328125 13.890625 
Q 24.171875 6.390625 31.78125 6.390625 
Q 39.453125 6.390625 43.28125 13.890625 
Q 47.125 21.390625 47.125 36.375 
Q 47.125 51.421875 43.28125 58.90625 
Q 39.453125 66.40625 31.78125 66.40625 
z
M 31.78125 74.21875 
Q 44.046875 74.21875 50.515625 64.515625 
Q 56.984375 54.828125 56.984375 36.375 
Q 56.984375 17.96875 50.515625 8.265625 
Q 44.046875 -1.421875 31.78125 -1.421875 
Q 19.53125 -1.421875 13.0625 8.265625 
Q 6.59375 17.96875 6.59375 36.375 
Q 6.59375 54.828125 13.0625 64.515625 
Q 19.53125 74.21875 31.78125 74.21875 
z
" id="DejaVuSans-48"/>
        <path d="M 10.59375 35.5 
L 73.1875 35.5 
L 73.1875 27.203125 
L 10.59375 27.203125 
z
" id="DejaVuSans-8722"/>
       </defs>
       <use transform="translate(0 0.684375)" xlink:href="#DejaVuSans-50"/>
       <use transform="translate(63.623047 0.684375)" xlink:href="#DejaVuSans-46"/>
       <use transform="translate(95.410156 0.684375)" xlink:href="#DejaVuSans-53"/>
       <use transform="translate(159.033203 0.684375)" xlink:href="#DejaVuSans-215"/>
       <use transform="translate(242.822266 0.684375)" xlink:href="#DejaVuSans-49"/>
       <use transform="translate(306.445312 0.684375)" xlink:href="#DejaVuSans-48"/>
       <use transform="translate(371.025391 38.965625)scale(0.7)" xlink:href="#DejaVuSans-8722"/>
       <use transform="translate(429.677734 38.965625)scale(0.7)" xlink:href="#DejaVuSans-53"/>
      </g>
     </g>
    </g>
    <g id="ytick_2">
     <g id="line2d_4">
      <path clip-path="url(#p1167d1dc85)" d="M 86.603664 66.270677 
L 585.015354 66.270677 
" style="fill:none;stroke:#000000;stroke-linecap:square;stroke-opacity:0.1;stroke-width:0.5;"/>
     </g>
     <g id="line2d_5">
      <g>
       <use style="stroke:#000000;stroke-width:0.5;" x="86.603664" xlink:href="#mc55b216c86" y="66.270677"/>
      </g>
     </g>
     <g id="line2d_6">
      <g>
       <use style="stroke:#000000;stroke-width:0.5;" x="585.015354" xlink:href="#me8768b467d" y="66.270677"/>
      </g>
     </g>
     <g id="text_2">
      <!-- $\mathregular{3.0×10^{-5}}$ -->
      <g transform="translate(25.863664 70.829739)scale(0.12 -0.12)">
       <defs>
        <path d="M 40.578125 39.3125 
Q 47.65625 37.796875 51.625 33 
Q 55.609375 28.21875 55.609375 21.1875 
Q 55.609375 10.40625 48.1875 4.484375 
Q 40.765625 -1.421875 27.09375 -1.421875 
Q 22.515625 -1.421875 17.65625 -0.515625 
Q 12.796875 0.390625 7.625 2.203125 
L 7.625 11.71875 
Q 11.71875 9.328125 16.59375 8.109375 
Q 21.484375 6.890625 26.8125 6.890625 
Q 36.078125 6.890625 40.9375 10.546875 
Q 45.796875 14.203125 45.796875 21.1875 
Q 45.796875 27.640625 41.28125 31.265625 
Q 36.765625 34.90625 28.71875 34.90625 
L 20.21875 34.90625 
L 20.21875 43.015625 
L 29.109375 43.015625 
Q 36.375 43.015625 40.234375 45.921875 
Q 44.09375 48.828125 44.09375 54.296875 
Q 44.09375 59.90625 40.109375 62.90625 
Q 36.140625 65.921875 28.71875 65.921875 
Q 24.65625 65.921875 20.015625 65.03125 
Q 15.375 64.15625 9.8125 62.3125 
L 9.8125 71.09375 
Q 15.4375 72.65625 20.34375 73.4375 
Q 25.25 74.21875 29.59375 74.21875 
Q 40.828125 74.21875 47.359375 69.109375 
Q 53.90625 64.015625 53.90625 55.328125 
Q 53.90625 49.265625 50.4375 45.09375 
Q 46.96875 40.921875 40.578125 39.3125 
z
" id="DejaVuSans-51"/>
       </defs>
       <use transform="translate(0 0.684375)" xlink:href="#DejaVuSans-51"/>
       <use transform="translate(63.623047 0.684375)" xlink:href="#DejaVuSans-46"/>
       <use transform="translate(95.410156 0.684375)" xlink:href="#DejaVuSans-48"/>
       <use transform="translate(159.033203 0.684375)" xlink:href="#DejaVuSans-215"/>
       <use transform="translate(242.822266 0.684375)" xlink:href="#DejaVuSans-49"/>
       <use transform="translate(306.445312 0.684375)" xlink:href="#DejaVuSans-48"/>
       <use transform="translate(371.025391 38.965625)scale(0.7)" xlink:href="#DejaVuSans-8722"/>
       <use transform="translate(429.677734 38.965625)scale(0.7)" xlink:href="#DejaVuSans-53"/>
      </g>
     </g>
    </g>
    <g id="ytick_3">
     <g id="line2d_7">
      <path clip-path="url(#p1167d1dc85)" d="M 86.603664 54.09386 
L 585.015354 54.09386 
" style="fill:none;stroke:#000000;stroke-linecap:square;stroke-opacity:0.1;stroke-width:0.5;"/>
     </g>
     <g id="line2d_8">
      <g>
       <use style="stroke:#000000;stroke-width:0.5;" x="86.603664" xlink:href="#mc55b216c86" y="54.09386"/>
      </g>
     </g>
     <g id="line2d_9">
      <g>
       <use style="stroke:#000000;stroke-width:0.5;" x="585.015354" xlink:href="#me8768b467d" y="54.09386"/>
      </g>
     </g>
     <g id="text_3">
      <!-- $\mathregular{3.5×10^{-5}}$ -->
      <g transform="translate(25.863664 58.652923)scale(0.12 -0.12)">
       <use transform="translate(0 0.684375)" xlink:href="#DejaVuSans-51"/>
       <use transform="translate(63.623047 0.684375)" xlink:href="#DejaVuSans-46"/>
       <use transform="translate(95.410156 0.684375)" xlink:href="#DejaVuSans-53"/>
       <use transform="translate(159.033203 0.684375)" xlink:href="#DejaVuSans-215"/>
       <use transform="translate(242.822266 0.684375)" xlink:href="#DejaVuSans-49"/>
       <use transform="translate(306.445312 0.684375)" xlink:href="#DejaVuSans-48"/>
       <use transform="translate(371.025391 38.965625)scale(0.7)" xlink:href="#DejaVuSans-8722"/>
       <use transform="translate(429.677734 38.965625)scale(0.7)" xlink:href="#DejaVuSans-53"/>
      </g>
     </g>
    </g>
    <g id="ytick_4">
     <g id="line2d_10">
      <path clip-path="url(#p1167d1dc85)" d="M 86.603664 41.917044 
L 585.015354 41.917044 
" style="fill:none;stroke:#000000;stroke-linecap:square;stroke-opacity:0.1;stroke-width:0.5;"/>
     </g>
     <g id="line2d_11">
      <g>
       <use style="stroke:#000000;stroke-width:0.5;" x="86.603664" xlink:href="#mc55b216c86" y="41.917044"/>
      </g>
     </g>
     <g id="line2d_12">
      <g>
       <use style="stroke:#000000;stroke-width:0.5;" x="585.015354" xlink:href="#me8768b467d" y="41.917044"/>
      </g>
     </g>
     <g id="text_4">
      <!-- $\mathregular{4.0×10^{-5}}$ -->
      <g transform="translate(25.863664 46.476106)scale(0.12 -0.12)">
       <defs>
        <path d="M 37.796875 64.3125 
L 12.890625 25.390625 
L 37.796875 25.390625 
z
M 35.203125 72.90625 
L 47.609375 72.90625 
L 47.609375 25.390625 
L 58.015625 25.390625 
L 58.015625 17.1875 
L 47.609375 17.1875 
L 47.609375 0 
L 37.796875 0 
L 37.796875 17.1875 
L 4.890625 17.1875 
L 4.890625 26.703125 
z
" id="DejaVuSans-52"/>
       </defs>
       <use transform="translate(0 0.684375)" xlink:href="#DejaVuSans-52"/>
       <use transform="translate(63.623047 0.684375)" xlink:href="#DejaVuSans-46"/>
       <use transform="translate(95.410156 0.684375)" xlink:href="#DejaVuSans-48"/>
       <use transform="translate(159.033203 0.684375)" xlink:href="#DejaVuSans-215"/>
       <use transform="translate(242.822266 0.684375)" xlink:href="#DejaVuSans-49"/>
       <use transform="translate(306.445312 0.684375)" xlink:href="#DejaVuSans-48"/>
       <use transform="translate(371.025391 38.965625)scale(0.7)" xlink:href="#DejaVuSans-8722"/>
       <use transform="translate(429.677734 38.965625)scale(0.7)" xlink:href="#DejaVuSans-53"/>
      </g>
     </g>
    </g>
    <g id="ytick_5">
     <g id="line2d_13">
      <path clip-path="url(#p1167d1dc85)" d="M 86.603664 29.740227 
L 585.015354 29.740227 
" style="fill:none;stroke:#000000;stroke-linecap:square;stroke-opacity:0.1;stroke-width:0.5;"/>
     </g>
     <g id="line2d_14">
      <g>
       <use style="stroke:#000000;stroke-width:0.5;" x="86.603664" xlink:href="#mc55b216c86" y="29.740227"/>
      </g>
     </g>
     <g id="line2d_15">
      <g>
       <use style="stroke:#000000;stroke-width:0.5;" x="585.015354" xlink:href="#me8768b467d" y="29.740227"/>
      </g>
     </g>
     <g id="text_5">
      <!-- $\mathregular{4.5×10^{-5}}$ -->
      <g transform="translate(25.863664 34.29929)scale(0.12 -0.12)">
       <use transform="translate(0 0.684375)" xlink:href="#DejaVuSans-52"/>
       <use transform="translate(63.623047 0.684375)" xlink:href="#DejaVuSans-46"/>
       <use transform="translate(95.410156 0.684375)" xlink:href="#DejaVuSans-53"/>
       <use transform="translate(159.033203 0.684375)" xlink:href="#DejaVuSans-215"/>
       <use transform="translate(242.822266 0.684375)" xlink:href="#DejaVuSans-49"/>
       <use transform="translate(306.445312 0.684375)" xlink:href="#DejaVuSans-48"/>
       <use transform="translate(371.025391 38.965625)scale(0.7)" xlink:href="#DejaVuSans-8722"/>
       <use transform="translate(429.677734 38.965625)scale(0.7)" xlink:href="#DejaVuSans-53"/>
      </g>
     </g>
    </g>
    <g id="ytick_6">
     <g id="line2d_16">
      <path clip-path="url(#p1167d1dc85)" d="M 86.603664 17.563411 
L 585.015354 17.563411 
" style="fill:none;stroke:#000000;stroke-linecap:square;stroke-opacity:0.1;stroke-width:0.5;"/>
     </g>
     <g id="line2d_17">
      <g>
       <use style="stroke:#000000;stroke-width:0.5;" x="86.603664" xlink:href="#mc55b216c86" y="17.563411"/>
      </g>
     </g>
     <g id="line2d_18">
      <g>
       <use style="stroke:#000000;stroke-width:0.5;" x="585.015354" xlink:href="#me8768b467d" y="17.563411"/>
      </g>
     </g>
     <g id="text_6">
      <!-- $\mathregular{5.0×10^{-5}}$ -->
      <g transform="translate(25.863664 22.122474)scale(0.12 -0.12)">
       <use transform="translate(0 0.684375)" xlink:href="#DejaVuSans-53"/>
       <use transform="translate(63.623047 0.684375)" xlink:href="#DejaVuSans-46"/>
       <use transform="translate(95.410156 0.684375)" xlink:href="#DejaVuSans-48"/>
       <use transform="translate(159.033203 0.684375)" xlink:href="#DejaVuSans-215"/>
       <use transform="translate(242.822266 0.684375)" xlink:href="#DejaVuSans-49"/>
       <use transform="translate(306.445312 0.684375)" xlink:href="#DejaVuSans-48"/>
       <use transform="translate(371.025391 38.965625)scale(0.7)" xlink:href="#DejaVuSans-8722"/>
       <use transform="translate(429.677734 38.965625)scale(0.7)" xlink:href="#DejaVuSans-53"/>
      </g>
     </g>
    </g>
    <g id="ytick_7">
     <g id="line2d_19">
      <path clip-path="url(#p1167d1dc85)" d="M 86.603664 5.386595 
L 585.015354 5.386595 
" style="fill:none;stroke:#000000;stroke-linecap:square;stroke-opacity:0.1;stroke-width:0.5;"/>
     </g>
     <g id="line2d_20">
      <g>
       <use style="stroke:#000000;stroke-width:0.5;" x="86.603664" xlink:href="#mc55b216c86" y="5.386595"/>
      </g>
     </g>
     <g id="line2d_21">
      <g>
       <use style="stroke:#000000;stroke-width:0.5;" x="585.015354" xlink:href="#me8768b467d" y="5.386595"/>
      </g>
     </g>
     <g id="text_7">
      <!-- $\mathregular{5.5×10^{-5}}$ -->
      <g transform="translate(25.863664 9.945657)scale(0.12 -0.12)">
       <use transform="translate(0 0.684375)" xlink:href="#DejaVuSans-53"/>
       <use transform="translate(63.623047 0.684375)" xlink:href="#DejaVuSans-46"/>
       <use transform="translate(95.410156 0.684375)" xlink:href="#DejaVuSans-53"/>
       <use transform="translate(159.033203 0.684375)" xlink:href="#DejaVuSans-215"/>
       <use transform="translate(242.822266 0.684375)" xlink:href="#DejaVuSans-49"/>
       <use transform="translate(306.445312 0.684375)" xlink:href="#DejaVuSans-48"/>
       <use transform="translate(371.025391 38.965625)scale(0.7)" xlink:href="#DejaVuSans-8722"/>
       <use transform="translate(429.677734 38.965625)scale(0.7)" xlink:href="#DejaVuSans-53"/>
      </g>
     </g>
    </g>
    <g id="text_8">
     <!-- $Y_{CH_4}$ -->
     <g transform="translate(17.383664 57.45208)rotate(-90)scale(0.16 -0.16)">
      <defs>
       <path d="M 6.296875 72.90625 
L 16.890625 72.90625 
L 30.515625 42.921875 
L 56.5 72.90625 
L 67.578125 72.90625 
L 34.515625 34.71875 
L 27.78125 0 
L 17.921875 0 
L 24.609375 34.71875 
z
" id="DejaVuSans-Oblique-89"/>
       <path d="M 69.484375 67.28125 
L 67.484375 56.890625 
Q 62.796875 61.625 57.546875 63.921875 
Q 52.296875 66.21875 46.1875 66.21875 
Q 37.84375 66.21875 31.515625 62.203125 
Q 25.203125 58.203125 20.609375 50 
Q 17.671875 44.734375 16.125 38.84375 
Q 14.59375 32.953125 14.59375 27 
Q 14.59375 17.046875 19.75 11.8125 
Q 24.90625 6.59375 34.71875 6.59375 
Q 41.5 6.59375 47.75 8.765625 
Q 54 10.9375 59.90625 15.28125 
L 57.625 3.609375 
Q 51.8125 1.125 45.875 -0.140625 
Q 39.9375 -1.421875 33.984375 -1.421875 
Q 19.96875 -1.421875 12.078125 6.1875 
Q 4.203125 13.8125 4.203125 27.390625 
Q 4.203125 36.078125 7.203125 44.46875 
Q 10.203125 52.875 15.828125 59.8125 
Q 21.78125 67.1875 29.421875 70.703125 
Q 37.0625 74.21875 47.21875 74.21875 
Q 53.46875 74.21875 59.0625 72.484375 
Q 64.65625 70.75 69.484375 67.28125 
z
" id="DejaVuSans-Oblique-67"/>
       <path d="M 16.890625 72.90625 
L 26.8125 72.90625 
L 21 43.015625 
L 56.78125 43.015625 
L 62.59375 72.90625 
L 72.515625 72.90625 
L 58.296875 0 
L 48.390625 0 
L 55.171875 34.71875 
L 19.390625 34.71875 
L 12.59375 0 
L 2.6875 0 
z
" id="DejaVuSans-Oblique-72"/>
      </defs>
      <use transform="translate(0 0.09375)" xlink:href="#DejaVuSans-Oblique-89"/>
      <use transform="translate(61.083984 -16.3125)scale(0.7)" xlink:href="#DejaVuSans-Oblique-67"/>
      <use transform="translate(109.960938 -16.3125)scale(0.7)" xlink:href="#DejaVuSans-Oblique-72"/>
      <use transform="translate(162.597656 -27.796875)scale(0.49)" xlink:href="#DejaVuSans-52"/>
     </g>
    </g>
   </g>
   <g id="PathCollection_1">
    <defs>
     <path d="M 0 2 
C 0.530406 2 1.03916 1.789267 1.414214 1.414214 
C 1.789267 1.03916 2 0.530406 2 0 
C 2 -0.530406 1.789267 -1.03916 1.414214 -1.414214 
C 1.03916 -1.789267 0.530406 -2 0 -2 
C -0.530406 -2 -1.03916 -1.789267 -1.414214 -1.414214 
C -1.789267 -1.03916 -2 -0.530406 -2 0 
C -2 0.530406 -1.789267 1.03916 -1.414214 1.414214 
C -1.03916 1.789267 -0.530406 2 0 2 
z
" id="m4267811363"/>
    </defs>
    <g clip-path="url(#p1167d1dc85)">
     <use x="100.709655" xlink:href="#m4267811363" y="30.812543"/>
     <use x="105.459147" xlink:href="#m4267811363" y="29.727533"/>
     <use x="110.208639" xlink:href="#m4267811363" y="28.626372"/>
     <use x="114.958131" xlink:href="#m4267811363" y="27.12298"/>
     <use x="119.707623" xlink:href="#m4267811363" y="26.809628"/>
     <use x="124.457115" xlink:href="#m4267811363" y="28.524822"/>
     <use x="129.206607" xlink:href="#m4267811363" y="30.837171"/>
     <use x="133.956099" xlink:href="#m4267811363" y="32.466554"/>
     <use x="138.705591" xlink:href="#m4267811363" y="30.991236"/>
     <use x="143.455083" xlink:href="#m4267811363" y="28.506688"/>
     <use x="148.204575" xlink:href="#m4267811363" y="25.184191"/>
     <use x="152.954067" xlink:href="#m4267811363" y="25.106635"/>
     <use x="157.703559" xlink:href="#m4267811363" y="26.77846"/>
     <use x="162.453051" xlink:href="#m4267811363" y="31.501992"/>
     <use x="167.202543" xlink:href="#m4267811363" y="34.84573"/>
     <use x="171.952035" xlink:href="#m4267811363" y="33.331126"/>
     <use x="176.701527" xlink:href="#m4267811363" y="28.905958"/>
     <use x="181.451019" xlink:href="#m4267811363" y="23.399831"/>
     <use x="186.200511" xlink:href="#m4267811363" y="19.722364"/>
     <use x="190.950003" xlink:href="#m4267811363" y="22.9673"/>
     <use x="195.699495" xlink:href="#m4267811363" y="31.056415"/>
     <use x="200.448987" xlink:href="#m4267811363" y="37.506546"/>
     <use x="205.198479" xlink:href="#m4267811363" y="38.442249"/>
     <use x="209.947971" xlink:href="#m4267811363" y="30.289568"/>
     <use x="214.697463" xlink:href="#m4267811363" y="19.339267"/>
     <use x="219.446955" xlink:href="#m4267811363" y="12.98863"/>
     <use x="224.196447" xlink:href="#m4267811363" y="15.128374"/>
     <use x="228.945939" xlink:href="#m4267811363" y="28.114759"/>
     <use x="233.695431" xlink:href="#m4267811363" y="42.946378"/>
     <use x="238.444923" xlink:href="#m4267811363" y="45.688352"/>
     <use x="243.194415" xlink:href="#m4267811363" y="35.023746"/>
     <use x="247.943907" xlink:href="#m4267811363" y="17.76042"/>
     <use x="252.693399" xlink:href="#m4267811363" y="5.025066"/>
     <use x="257.442891" xlink:href="#m4267811363" y="7.473652"/>
     <use x="262.192383" xlink:href="#m4267811363" y="31.912146"/>
     <use x="266.941875" xlink:href="#m4267811363" y="57.615551"/>
     <use x="271.691367" xlink:href="#m4267811363" y="58.309303"/>
     <use x="276.440859" xlink:href="#m4267811363" y="43.901707"/>
     <use x="281.190351" xlink:href="#m4267811363" y="26.48457"/>
     <use x="285.939843" xlink:href="#m4267811363" y="16.345527"/>
     <use x="290.689335" xlink:href="#m4267811363" y="27.438848"/>
     <use x="295.438827" xlink:href="#m4267811363" y="53.063985"/>
     <use x="300.188319" xlink:href="#m4267811363" y="63.563209"/>
     <use x="304.937811" xlink:href="#m4267811363" y="56.854658"/>
     <use x="309.687303" xlink:href="#m4267811363" y="45.055884"/>
     <use x="314.436795" xlink:href="#m4267811363" y="39.198672"/>
     <use x="319.186287" xlink:href="#m4267811363" y="42.711535"/>
     <use x="323.935779" xlink:href="#m4267811363" y="55.108092"/>
     <use x="328.685271" xlink:href="#m4267811363" y="62.365988"/>
     <use x="333.434763" xlink:href="#m4267811363" y="60.098641"/>
     <use x="338.184255" xlink:href="#m4267811363" y="55.872281"/>
     <use x="342.933747" xlink:href="#m4267811363" y="54.483062"/>
     <use x="347.683239" xlink:href="#m4267811363" y="56.861631"/>
     <use x="352.432731" xlink:href="#m4267811363" y="61.271229"/>
     <use x="357.182223" xlink:href="#m4267811363" y="62.930479"/>
     <use x="361.931715" xlink:href="#m4267811363" y="63.590628"/>
     <use x="366.681207" xlink:href="#m4267811363" y="62.953105"/>
     <use x="371.430699" xlink:href="#m4267811363" y="63.970891"/>
     <use x="376.180191" xlink:href="#m4267811363" y="64.840805"/>
     <use x="380.929683" xlink:href="#m4267811363" y="66.591721"/>
     <use x="385.679175" xlink:href="#m4267811363" y="68.001467"/>
     <use x="390.428667" xlink:href="#m4267811363" y="68.773715"/>
     <use x="395.178159" xlink:href="#m4267811363" y="68.995871"/>
     <use x="399.927651" xlink:href="#m4267811363" y="70.23439"/>
     <use x="404.677143" xlink:href="#m4267811363" y="71.400251"/>
     <use x="409.426635" xlink:href="#m4267811363" y="71.34417"/>
     <use x="414.176127" xlink:href="#m4267811363" y="72.89975"/>
     <use x="418.925619" xlink:href="#m4267811363" y="72.585572"/>
     <use x="423.675111" xlink:href="#m4267811363" y="73.858886"/>
     <use x="428.424603" xlink:href="#m4267811363" y="74.375171"/>
     <use x="433.174095" xlink:href="#m4267811363" y="75.218285"/>
     <use x="437.923587" xlink:href="#m4267811363" y="75.089715"/>
     <use x="442.673079" xlink:href="#m4267811363" y="75.772355"/>
     <use x="447.422571" xlink:href="#m4267811363" y="75.762633"/>
     <use x="452.172063" xlink:href="#m4267811363" y="75.482584"/>
     <use x="456.921555" xlink:href="#m4267811363" y="75.539027"/>
     <use x="461.671047" xlink:href="#m4267811363" y="76.083608"/>
     <use x="466.420539" xlink:href="#m4267811363" y="75.776425"/>
     <use x="471.170031" xlink:href="#m4267811363" y="76.225754"/>
     <use x="475.919523" xlink:href="#m4267811363" y="76.477442"/>
     <use x="480.669015" xlink:href="#m4267811363" y="76.127408"/>
     <use x="485.418507" xlink:href="#m4267811363" y="77.068615"/>
     <use x="490.167999" xlink:href="#m4267811363" y="75.891542"/>
     <use x="494.917491" xlink:href="#m4267811363" y="76.085003"/>
     <use x="499.666983" xlink:href="#m4267811363" y="76.974852"/>
     <use x="504.416475" xlink:href="#m4267811363" y="76.617087"/>
     <use x="509.165967" xlink:href="#m4267811363" y="76.685272"/>
     <use x="513.915459" xlink:href="#m4267811363" y="76.880587"/>
     <use x="518.664951" xlink:href="#m4267811363" y="77.288176"/>
     <use x="523.414443" xlink:href="#m4267811363" y="76.5824"/>
     <use x="528.163935" xlink:href="#m4267811363" y="77.029551"/>
     <use x="532.913427" xlink:href="#m4267811363" y="77.646003"/>
     <use x="537.662919" xlink:href="#m4267811363" y="76.472561"/>
     <use x="542.412411" xlink:href="#m4267811363" y="77.902777"/>
     <use x="547.161903" xlink:href="#m4267811363" y="76.88274"/>
     <use x="551.911395" xlink:href="#m4267811363" y="77.26923"/>
     <use x="556.660887" xlink:href="#m4267811363" y="77.677738"/>
     <use x="561.410379" xlink:href="#m4267811363" y="78.039093"/>
     <use x="566.159871" xlink:href="#m4267811363" y="77.15918"/>
     <use x="570.909363" xlink:href="#m4267811363" y="76.919959"/>
    </g>
   </g>
   <g id="line2d_22">
    <path clip-path="url(#p1167d1dc85)" d="M 100.709655 30.655577 
L 105.459147 29.928081 
L 110.208639 28.64292 
L 114.958131 27.642481 
L 119.707623 27.728805 
L 124.457115 29.040187 
L 129.206607 30.764842 
L 133.956099 31.597396 
L 138.705591 30.741196 
L 143.455083 28.567054 
L 148.204575 26.446838 
L 152.954067 25.989993 
L 157.703559 27.923007 
L 162.453051 31.208707 
L 167.202543 33.429027 
L 171.952035 32.685052 
L 176.701527 29.162133 
L 181.451019 24.981236 
L 186.200511 23.09609 
L 190.950003 25.57407 
L 195.699495 31.504171 
L 200.448987 36.574709 
L 205.198479 36.576384 
L 209.947971 31.200344 
L 214.697463 23.646654 
L 219.446955 18.856282 
L 224.196447 21.377862 
L 228.945939 31.433378 
L 233.695431 41.699458 
L 238.444923 43.354676 
L 243.194415 35.648068 
L 247.943907 23.756113 
L 252.693399 15.161198 
L 257.442891 17.718511 
L 262.192383 33.444412 
L 266.941875 49.974301 
L 271.691367 52.060528 
L 276.440859 41.635145 
L 281.190351 27.61598 
L 285.939843 19.880392 
L 290.689335 27.211886 
L 295.438827 47.057336 
L 300.188319 59.535605 
L 304.937811 56.113814 
L 309.687303 46.07447 
L 314.436795 39.241671 
L 319.186287 42.363749 
L 323.935779 53.466409 
L 328.685271 61.219974 
L 333.434763 60.812934 
L 338.184255 57.323235 
L 342.933747 56.127813 
L 347.683239 58.738556 
L 352.432731 62.514176 
L 357.182223 64.515587 
L 361.931715 64.797691 
L 366.681207 64.936621 
L 371.430699 65.787199 
L 376.180191 67.051039 
L 380.929683 68.13169 
L 385.679175 68.868253 
L 390.428667 69.455006 
L 395.178159 70.063275 
L 399.927651 70.696524 
L 404.677143 71.290296 
L 409.426635 71.813611 
L 414.176127 72.281339 
L 418.925619 72.71515 
L 423.675111 73.122874 
L 428.424603 73.502385 
L 433.174095 73.852118 
L 437.923587 74.173962 
L 442.673079 74.471402 
L 447.422571 74.74761 
L 452.172063 75.004487 
L 456.921555 75.242887 
L 461.671047 75.464385 
L 466.420539 75.67038 
L 471.170031 75.862311 
L 475.919523 76.041145 
L 480.669015 76.208147 
L 485.418507 76.364094 
L 490.167999 76.509973 
L 494.917491 76.646365 
L 499.666983 76.774218 
L 504.416475 76.89395 
L 509.165967 77.006377 
L 513.915459 77.11181 
L 518.664951 77.210888 
L 523.414443 77.304004 
L 528.163935 77.39147 
L 532.913427 77.473824 
L 537.662919 77.55123 
L 542.412411 77.62411 
L 547.161903 77.692721 
L 551.911395 77.757207 
L 556.660887 77.817956 
L 561.410379 77.875123 
L 566.159871 77.928832 
L 570.909363 77.979362 
" style="fill:none;stroke:#ff0000;"/>
   </g>
   <g id="patch_3">
    <path d="M 86.603664 80.229514 
L 86.603664 2.834646 
" style="fill:none;stroke:#000000;stroke-linecap:square;stroke-linejoin:miter;"/>
   </g>
   <g id="patch_4">
    <path d="M 585.015354 80.229514 
L 585.015354 2.834646 
" style="fill:none;stroke:#000000;stroke-linecap:square;stroke-linejoin:miter;"/>
   </g>
   <g id="patch_5">
    <path d="M 86.603664 80.229514 
L 585.015354 80.229514 
" style="fill:none;stroke:#000000;stroke-linecap:square;stroke-linejoin:miter;"/>
   </g>
   <g id="patch_6">
    <path d="M 86.603664 2.834646 
L 585.015354 2.834646 
" style="fill:none;stroke:#000000;stroke-linecap:square;stroke-linejoin:miter;"/>
   </g>
  </g>
  <g id="axes_2">
   <g id="patch_7">
    <path d="M 86.603664 165.338458 
L 585.015354 165.338458 
L 585.015354 87.94359 
L 86.603664 87.94359 
z
" style="fill:#ffffff;"/>
   </g>
   <g id="matplotlib.axis_3">
    <g id="xtick_7"/>
    <g id="xtick_8"/>
    <g id="xtick_9"/>
    <g id="xtick_10"/>
    <g id="xtick_11"/>
    <g id="xtick_12"/>
   </g>
   <g id="matplotlib.axis_4">
    <g id="ytick_8">
     <g id="line2d_23">
      <path clip-path="url(#p09fb487edf)" d="M 86.603664 163.721426 
L 585.015354 163.721426 
" style="fill:none;stroke:#000000;stroke-linecap:square;stroke-opacity:0.1;stroke-width:0.5;"/>
     </g>
     <g id="line2d_24">
      <g>
       <use style="stroke:#000000;stroke-width:0.5;" x="86.603664" xlink:href="#mc55b216c86" y="163.721426"/>
      </g>
     </g>
     <g id="line2d_25">
      <g>
       <use style="stroke:#000000;stroke-width:0.5;" x="585.015354" xlink:href="#me8768b467d" y="163.721426"/>
      </g>
     </g>
     <g id="text_9">
      <!-- $\mathregular{0.00115}$ -->
      <g transform="translate(33.423664 168.280488)scale(0.12 -0.12)">
       <use transform="translate(0 0.78125)" xlink:href="#DejaVuSans-48"/>
       <use transform="translate(63.623047 0.78125)" xlink:href="#DejaVuSans-46"/>
       <use transform="translate(95.410156 0.78125)" xlink:href="#DejaVuSans-48"/>
       <use transform="translate(159.033203 0.78125)" xlink:href="#DejaVuSans-48"/>
       <use transform="translate(222.65625 0.78125)" xlink:href="#DejaVuSans-49"/>
       <use transform="translate(286.279297 0.78125)" xlink:href="#DejaVuSans-49"/>
       <use transform="translate(349.902344 0.78125)" xlink:href="#DejaVuSans-53"/>
      </g>
     </g>
    </g>
    <g id="ytick_9">
     <g id="line2d_26">
      <path clip-path="url(#p09fb487edf)" d="M 86.603664 151.7962 
L 585.015354 151.7962 
" style="fill:none;stroke:#000000;stroke-linecap:square;stroke-opacity:0.1;stroke-width:0.5;"/>
     </g>
     <g id="line2d_27">
      <g>
       <use style="stroke:#000000;stroke-width:0.5;" x="86.603664" xlink:href="#mc55b216c86" y="151.7962"/>
      </g>
     </g>
     <g id="line2d_28">
      <g>
       <use style="stroke:#000000;stroke-width:0.5;" x="585.015354" xlink:href="#me8768b467d" y="151.7962"/>
      </g>
     </g>
     <g id="text_10">
      <!-- $\mathregular{0.00120}$ -->
      <g transform="translate(33.423664 156.355262)scale(0.12 -0.12)">
       <use transform="translate(0 0.78125)" xlink:href="#DejaVuSans-48"/>
       <use transform="translate(63.623047 0.78125)" xlink:href="#DejaVuSans-46"/>
       <use transform="translate(95.410156 0.78125)" xlink:href="#DejaVuSans-48"/>
       <use transform="translate(159.033203 0.78125)" xlink:href="#DejaVuSans-48"/>
       <use transform="translate(222.65625 0.78125)" xlink:href="#DejaVuSans-49"/>
       <use transform="translate(286.279297 0.78125)" xlink:href="#DejaVuSans-50"/>
       <use transform="translate(349.902344 0.78125)" xlink:href="#DejaVuSans-48"/>
      </g>
     </g>
    </g>
    <g id="ytick_10">
     <g id="line2d_29">
      <path clip-path="url(#p09fb487edf)" d="M 86.603664 139.870974 
L 585.015354 139.870974 
" style="fill:none;stroke:#000000;stroke-linecap:square;stroke-opacity:0.1;stroke-width:0.5;"/>
     </g>
     <g id="line2d_30">
      <g>
       <use style="stroke:#000000;stroke-width:0.5;" x="86.603664" xlink:href="#mc55b216c86" y="139.870974"/>
      </g>
     </g>
     <g id="line2d_31">
      <g>
       <use style="stroke:#000000;stroke-width:0.5;" x="585.015354" xlink:href="#me8768b467d" y="139.870974"/>
      </g>
     </g>
     <g id="text_11">
      <!-- $\mathregular{0.00125}$ -->
      <g transform="translate(33.423664 144.430036)scale(0.12 -0.12)">
       <use transform="translate(0 0.78125)" xlink:href="#DejaVuSans-48"/>
       <use transform="translate(63.623047 0.78125)" xlink:href="#DejaVuSans-46"/>
       <use transform="translate(95.410156 0.78125)" xlink:href="#DejaVuSans-48"/>
       <use transform="translate(159.033203 0.78125)" xlink:href="#DejaVuSans-48"/>
       <use transform="translate(222.65625 0.78125)" xlink:href="#DejaVuSans-49"/>
       <use transform="translate(286.279297 0.78125)" xlink:href="#DejaVuSans-50"/>
       <use transform="translate(349.902344 0.78125)" xlink:href="#DejaVuSans-53"/>
      </g>
     </g>
    </g>
    <g id="ytick_11">
     <g id="line2d_32">
      <path clip-path="url(#p09fb487edf)" d="M 86.603664 127.945747 
L 585.015354 127.945747 
" style="fill:none;stroke:#000000;stroke-linecap:square;stroke-opacity:0.1;stroke-width:0.5;"/>
     </g>
     <g id="line2d_33">
      <g>
       <use style="stroke:#000000;stroke-width:0.5;" x="86.603664" xlink:href="#mc55b216c86" y="127.945747"/>
      </g>
     </g>
     <g id="line2d_34">
      <g>
       <use style="stroke:#000000;stroke-width:0.5;" x="585.015354" xlink:href="#me8768b467d" y="127.945747"/>
      </g>
     </g>
     <g id="text_12">
      <!-- $\mathregular{0.00130}$ -->
      <g transform="translate(33.423664 132.50481)scale(0.12 -0.12)">
       <use transform="translate(0 0.78125)" xlink:href="#DejaVuSans-48"/>
       <use transform="translate(63.623047 0.78125)" xlink:href="#DejaVuSans-46"/>
       <use transform="translate(95.410156 0.78125)" xlink:href="#DejaVuSans-48"/>
       <use transform="translate(159.033203 0.78125)" xlink:href="#DejaVuSans-48"/>
       <use transform="translate(222.65625 0.78125)" xlink:href="#DejaVuSans-49"/>
       <use transform="translate(286.279297 0.78125)" xlink:href="#DejaVuSans-51"/>
       <use transform="translate(349.902344 0.78125)" xlink:href="#DejaVuSans-48"/>
      </g>
     </g>
    </g>
    <g id="ytick_12">
     <g id="line2d_35">
      <path clip-path="url(#p09fb487edf)" d="M 86.603664 116.020521 
L 585.015354 116.020521 
" style="fill:none;stroke:#000000;stroke-linecap:square;stroke-opacity:0.1;stroke-width:0.5;"/>
     </g>
     <g id="line2d_36">
      <g>
       <use style="stroke:#000000;stroke-width:0.5;" x="86.603664" xlink:href="#mc55b216c86" y="116.020521"/>
      </g>
     </g>
     <g id="line2d_37">
      <g>
       <use style="stroke:#000000;stroke-width:0.5;" x="585.015354" xlink:href="#me8768b467d" y="116.020521"/>
      </g>
     </g>
     <g id="text_13">
      <!-- $\mathregular{0.00135}$ -->
      <g transform="translate(33.423664 120.579584)scale(0.12 -0.12)">
       <use transform="translate(0 0.78125)" xlink:href="#DejaVuSans-48"/>
       <use transform="translate(63.623047 0.78125)" xlink:href="#DejaVuSans-46"/>
       <use transform="translate(95.410156 0.78125)" xlink:href="#DejaVuSans-48"/>
       <use transform="translate(159.033203 0.78125)" xlink:href="#DejaVuSans-48"/>
       <use transform="translate(222.65625 0.78125)" xlink:href="#DejaVuSans-49"/>
       <use transform="translate(286.279297 0.78125)" xlink:href="#DejaVuSans-51"/>
       <use transform="translate(349.902344 0.78125)" xlink:href="#DejaVuSans-53"/>
      </g>
     </g>
    </g>
    <g id="ytick_13">
     <g id="line2d_38">
      <path clip-path="url(#p09fb487edf)" d="M 86.603664 104.095295 
L 585.015354 104.095295 
" style="fill:none;stroke:#000000;stroke-linecap:square;stroke-opacity:0.1;stroke-width:0.5;"/>
     </g>
     <g id="line2d_39">
      <g>
       <use style="stroke:#000000;stroke-width:0.5;" x="86.603664" xlink:href="#mc55b216c86" y="104.095295"/>
      </g>
     </g>
     <g id="line2d_40">
      <g>
       <use style="stroke:#000000;stroke-width:0.5;" x="585.015354" xlink:href="#me8768b467d" y="104.095295"/>
      </g>
     </g>
     <g id="text_14">
      <!-- $\mathregular{0.00140}$ -->
      <g transform="translate(33.423664 108.654358)scale(0.12 -0.12)">
       <use transform="translate(0 0.78125)" xlink:href="#DejaVuSans-48"/>
       <use transform="translate(63.623047 0.78125)" xlink:href="#DejaVuSans-46"/>
       <use transform="translate(95.410156 0.78125)" xlink:href="#DejaVuSans-48"/>
       <use transform="translate(159.033203 0.78125)" xlink:href="#DejaVuSans-48"/>
       <use transform="translate(222.65625 0.78125)" xlink:href="#DejaVuSans-49"/>
       <use transform="translate(286.279297 0.78125)" xlink:href="#DejaVuSans-52"/>
       <use transform="translate(349.902344 0.78125)" xlink:href="#DejaVuSans-48"/>
      </g>
     </g>
    </g>
    <g id="ytick_14">
     <g id="line2d_41">
      <path clip-path="url(#p09fb487edf)" d="M 86.603664 92.170069 
L 585.015354 92.170069 
" style="fill:none;stroke:#000000;stroke-linecap:square;stroke-opacity:0.1;stroke-width:0.5;"/>
     </g>
     <g id="line2d_42">
      <g>
       <use style="stroke:#000000;stroke-width:0.5;" x="86.603664" xlink:href="#mc55b216c86" y="92.170069"/>
      </g>
     </g>
     <g id="line2d_43">
      <g>
       <use style="stroke:#000000;stroke-width:0.5;" x="585.015354" xlink:href="#me8768b467d" y="92.170069"/>
      </g>
     </g>
     <g id="text_15">
      <!-- $\mathregular{0.00145}$ -->
      <g transform="translate(33.423664 96.729131)scale(0.12 -0.12)">
       <use transform="translate(0 0.78125)" xlink:href="#DejaVuSans-48"/>
       <use transform="translate(63.623047 0.78125)" xlink:href="#DejaVuSans-46"/>
       <use transform="translate(95.410156 0.78125)" xlink:href="#DejaVuSans-48"/>
       <use transform="translate(159.033203 0.78125)" xlink:href="#DejaVuSans-48"/>
       <use transform="translate(222.65625 0.78125)" xlink:href="#DejaVuSans-49"/>
       <use transform="translate(286.279297 0.78125)" xlink:href="#DejaVuSans-52"/>
       <use transform="translate(349.902344 0.78125)" xlink:href="#DejaVuSans-53"/>
      </g>
     </g>
    </g>
    <g id="text_16">
     <!-- $Y_{CO}$ -->
     <g transform="translate(26.096164 140.081024)rotate(-90)scale(0.16 -0.16)">
      <defs>
       <path d="M 45.609375 66.21875 
Q 37.5 66.21875 31.296875 62.28125 
Q 25.09375 58.34375 20.515625 50.296875 
Q 17.578125 45.171875 16.03125 39.40625 
Q 14.5 33.640625 14.5 27.78125 
Q 14.5 17.625 19.359375 12.109375 
Q 24.21875 6.59375 33.109375 6.59375 
Q 41.109375 6.59375 47.375 10.5625 
Q 53.65625 14.546875 58.109375 22.40625 
Q 61.078125 27.6875 62.640625 33.46875 
Q 64.203125 39.265625 64.203125 45.015625 
Q 64.203125 55.125 59.3125 60.671875 
Q 54.4375 66.21875 45.609375 66.21875 
z
M 32.8125 -1.421875 
Q 19.390625 -1.421875 11.6875 6.53125 
Q 4 14.5 4 28.328125 
Q 4 36.234375 7 44.484375 
Q 10.015625 52.734375 15.28125 59.1875 
Q 21.484375 66.75 29.09375 70.484375 
Q 36.71875 74.21875 45.90625 74.21875 
Q 59.28125 74.21875 66.984375 66.328125 
Q 74.703125 58.453125 74.703125 44.828125 
Q 74.703125 36.421875 71.765625 28.3125 
Q 68.84375 20.21875 63.375 13.625 
Q 57.125 6 49.578125 2.28125 
Q 42.046875 -1.421875 32.8125 -1.421875 
z
" id="DejaVuSans-Oblique-79"/>
      </defs>
      <use transform="translate(0 0.09375)" xlink:href="#DejaVuSans-Oblique-89"/>
      <use transform="translate(61.083984 -16.3125)scale(0.7)" xlink:href="#DejaVuSans-Oblique-67"/>
      <use transform="translate(109.960938 -16.3125)scale(0.7)" xlink:href="#DejaVuSans-Oblique-79"/>
     </g>
    </g>
   </g>
   <g id="PathCollection_2">
    <g clip-path="url(#p09fb487edf)">
     <use x="100.709655" xlink:href="#m4267811363" y="108.992717"/>
     <use x="105.459147" xlink:href="#m4267811363" y="109.946946"/>
     <use x="110.208639" xlink:href="#m4267811363" y="109.364879"/>
     <use x="114.958131" xlink:href="#m4267811363" y="106.812472"/>
     <use x="119.707623" xlink:href="#m4267811363" y="106.311707"/>
     <use x="124.457115" xlink:href="#m4267811363" y="106.240797"/>
     <use x="129.206607" xlink:href="#m4267811363" y="108.041873"/>
     <use x="133.956099" xlink:href="#m4267811363" y="108.912884"/>
     <use x="138.705591" xlink:href="#m4267811363" y="109.902717"/>
     <use x="143.455083" xlink:href="#m4267811363" y="110.067798"/>
     <use x="148.204575" xlink:href="#m4267811363" y="106.517873"/>
     <use x="152.954067" xlink:href="#m4267811363" y="104.613381"/>
     <use x="157.703559" xlink:href="#m4267811363" y="103.540583"/>
     <use x="162.453051" xlink:href="#m4267811363" y="105.522337"/>
     <use x="167.202543" xlink:href="#m4267811363" y="109.852488"/>
     <use x="171.952035" xlink:href="#m4267811363" y="112.738637"/>
     <use x="176.701527" xlink:href="#m4267811363" y="110.971432"/>
     <use x="181.451019" xlink:href="#m4267811363" y="108.39178"/>
     <use x="186.200511" xlink:href="#m4267811363" y="103.393523"/>
     <use x="190.950003" xlink:href="#m4267811363" y="100.700299"/>
     <use x="195.699495" xlink:href="#m4267811363" y="103.423362"/>
     <use x="200.448987" xlink:href="#m4267811363" y="109.511413"/>
     <use x="205.198479" xlink:href="#m4267811363" y="114.616547"/>
     <use x="209.947971" xlink:href="#m4267811363" y="115.299736"/>
     <use x="214.697463" xlink:href="#m4267811363" y="109.683658"/>
     <use x="219.446955" xlink:href="#m4267811363" y="101.44518"/>
     <use x="224.196447" xlink:href="#m4267811363" y="94.178982"/>
     <use x="228.945939" xlink:href="#m4267811363" y="94.967628"/>
     <use x="233.695431" xlink:href="#m4267811363" y="105.986289"/>
     <use x="238.444923" xlink:href="#m4267811363" y="119.537694"/>
     <use x="243.194415" xlink:href="#m4267811363" y="122.592891"/>
     <use x="247.943907" xlink:href="#m4267811363" y="114.722759"/>
     <use x="252.693399" xlink:href="#m4267811363" y="101.691889"/>
     <use x="257.442891" xlink:href="#m4267811363" y="90.134011"/>
     <use x="262.192383" xlink:href="#m4267811363" y="91.033203"/>
     <use x="266.941875" xlink:href="#m4267811363" y="113.665953"/>
     <use x="271.691367" xlink:href="#m4267811363" y="133.811619"/>
     <use x="276.440859" xlink:href="#m4267811363" y="135.751105"/>
     <use x="281.190351" xlink:href="#m4267811363" y="124.944099"/>
     <use x="285.939843" xlink:href="#m4267811363" y="110.280488"/>
     <use x="290.689335" xlink:href="#m4267811363" y="102.547658"/>
     <use x="295.438827" xlink:href="#m4267811363" y="110.801955"/>
     <use x="300.188319" xlink:href="#m4267811363" y="131.763608"/>
     <use x="304.937811" xlink:href="#m4267811363" y="141.449605"/>
     <use x="309.687303" xlink:href="#m4267811363" y="136.824083"/>
     <use x="314.436795" xlink:href="#m4267811363" y="127.673797"/>
     <use x="319.186287" xlink:href="#m4267811363" y="123.331784"/>
     <use x="323.935779" xlink:href="#m4267811363" y="126.424748"/>
     <use x="328.685271" xlink:href="#m4267811363" y="136.166083"/>
     <use x="333.434763" xlink:href="#m4267811363" y="142.018338"/>
     <use x="338.184255" xlink:href="#m4267811363" y="140.435516"/>
     <use x="342.933747" xlink:href="#m4267811363" y="137.844096"/>
     <use x="347.683239" xlink:href="#m4267811363" y="137.108203"/>
     <use x="352.432731" xlink:href="#m4267811363" y="139.822909"/>
     <use x="357.182223" xlink:href="#m4267811363" y="143.547918"/>
     <use x="361.931715" xlink:href="#m4267811363" y="145.272624"/>
     <use x="366.681207" xlink:href="#m4267811363" y="145.669"/>
     <use x="371.430699" xlink:href="#m4267811363" y="145.486127"/>
     <use x="376.180191" xlink:href="#m4267811363" y="146.78272"/>
     <use x="380.929683" xlink:href="#m4267811363" y="148.243101"/>
     <use x="385.679175" xlink:href="#m4267811363" y="149.659846"/>
     <use x="390.428667" xlink:href="#m4267811363" y="150.637687"/>
     <use x="395.178159" xlink:href="#m4267811363" y="151.654627"/>
     <use x="399.927651" xlink:href="#m4267811363" y="151.970941"/>
     <use x="404.677143" xlink:href="#m4267811363" y="152.879456"/>
     <use x="409.426635" xlink:href="#m4267811363" y="154.409209"/>
     <use x="414.176127" xlink:href="#m4267811363" y="154.582693"/>
     <use x="418.925619" xlink:href="#m4267811363" y="155.999165"/>
     <use x="423.675111" xlink:href="#m4267811363" y="157.22832"/>
     <use x="428.424603" xlink:href="#m4267811363" y="156.890493"/>
     <use x="433.174095" xlink:href="#m4267811363" y="158.726124"/>
     <use x="437.923587" xlink:href="#m4267811363" y="159.252031"/>
     <use x="442.673079" xlink:href="#m4267811363" y="158.825977"/>
     <use x="447.422571" xlink:href="#m4267811363" y="159.092736"/>
     <use x="452.172063" xlink:href="#m4267811363" y="159.860984"/>
     <use x="456.921555" xlink:href="#m4267811363" y="159.235987"/>
     <use x="461.671047" xlink:href="#m4267811363" y="160.063195"/>
     <use x="466.420539" xlink:href="#m4267811363" y="160.113058"/>
     <use x="471.170031" xlink:href="#m4267811363" y="159.231315"/>
     <use x="475.919523" xlink:href="#m4267811363" y="160.143499"/>
     <use x="480.669015" xlink:href="#m4267811363" y="160.261863"/>
     <use x="485.418507" xlink:href="#m4267811363" y="161.020203"/>
     <use x="490.167999" xlink:href="#m4267811363" y="161.077847"/>
     <use x="494.917491" xlink:href="#m4267811363" y="161.160979"/>
     <use x="499.666983" xlink:href="#m4267811363" y="160.538217"/>
     <use x="504.416475" xlink:href="#m4267811363" y="160.239331"/>
     <use x="509.165967" xlink:href="#m4267811363" y="160.52772"/>
     <use x="513.915459" xlink:href="#m4267811363" y="161.26622"/>
     <use x="518.664951" xlink:href="#m4267811363" y="161.931972"/>
     <use x="523.414443" xlink:href="#m4267811363" y="161.445438"/>
     <use x="528.163935" xlink:href="#m4267811363" y="161.259358"/>
     <use x="532.913427" xlink:href="#m4267811363" y="161.67436"/>
     <use x="537.662919" xlink:href="#m4267811363" y="162.263877"/>
     <use x="542.412411" xlink:href="#m4267811363" y="161.801349"/>
     <use x="547.161903" xlink:href="#m4267811363" y="162.126534"/>
     <use x="551.911395" xlink:href="#m4267811363" y="162.316247"/>
     <use x="556.660887" xlink:href="#m4267811363" y="161.895019"/>
     <use x="561.410379" xlink:href="#m4267811363" y="162.570241"/>
     <use x="566.159871" xlink:href="#m4267811363" y="162.599042"/>
     <use x="570.909363" xlink:href="#m4267811363" y="163.148037"/>
    </g>
   </g>
   <g id="line2d_44">
    <path clip-path="url(#p09fb487edf)" d="M 100.709655 109.150776 
L 105.459147 109.429449 
L 110.208639 108.882306 
L 114.958131 107.809749 
L 119.707623 106.912053 
L 124.457115 106.897206 
L 129.206607 107.951283 
L 133.956099 109.424818 
L 138.705591 110.210418 
L 143.455083 109.595936 
L 148.204575 107.815487 
L 152.954067 105.96181 
L 157.703559 105.421395 
L 162.453051 106.941918 
L 167.202543 109.732396 
L 171.952035 111.728984 
L 176.701527 111.301033 
L 181.451019 108.494879 
L 186.200511 104.92966 
L 190.950003 103.068504 
L 195.699495 104.92838 
L 200.448987 109.961385 
L 205.198479 114.406821 
L 209.947971 114.736172 
L 214.697463 110.60318 
L 219.446955 104.345977 
L 224.196447 99.88066 
L 228.945939 101.536565 
L 233.695431 110.15119 
L 238.444923 119.008521 
L 243.194415 120.865763 
L 247.943907 115.192533 
L 252.693399 105.64871 
L 257.442891 97.873634 
L 262.192383 99.276656 
L 266.941875 113.052593 
L 271.691367 126.961016 
L 276.440859 129.367987 
L 281.190351 121.931303 
L 285.939843 110.774519 
L 290.689335 103.66706 
L 295.438827 109.734961 
L 300.188319 126.796992 
L 304.937811 136.987368 
L 309.687303 135.41073 
L 314.436795 128.130204 
L 319.186287 122.665089 
L 323.935779 125.406816 
L 328.685271 134.704791 
L 333.434763 141.169389 
L 338.184255 141.658578 
L 342.933747 139.594388 
L 347.683239 139.048626 
L 352.432731 141.380138 
L 357.182223 144.597795 
L 361.931715 146.552159 
L 366.681207 147.234553 
L 371.430699 147.728534 
L 376.180191 148.673283 
L 380.929683 149.896681 
L 385.679175 150.98812 
L 390.428667 151.822768 
L 395.178159 152.522813 
L 399.927651 153.208627 
L 404.677143 153.89281 
L 409.426635 154.535477 
L 414.176127 155.116218 
L 418.925619 155.643511 
L 423.675111 156.133255 
L 428.424603 156.592947 
L 433.174095 157.023003 
L 437.923587 157.423475 
L 442.673079 157.795966 
L 447.422571 158.143741 
L 452.172063 158.470093 
L 456.921555 158.776578 
L 461.671047 159.064838 
L 466.420539 159.336334 
L 471.170031 159.59265 
L 475.919523 159.83492 
L 480.669015 160.064569 
L 485.418507 160.282544 
L 490.167999 160.48996 
L 494.917491 160.687483 
L 499.666983 160.876117 
L 504.416475 161.056367 
L 509.165967 161.229111 
L 513.915459 161.394728 
L 518.664951 161.55389 
L 523.414443 161.707029 
L 528.163935 161.854496 
L 532.913427 161.996843 
L 537.662919 162.134274 
L 542.412411 162.267226 
L 547.161903 162.39597 
L 551.911395 162.520669 
L 556.660887 162.641703 
L 561.410379 162.759239 
L 566.159871 162.873414 
L 570.909363 162.984491 
" style="fill:none;stroke:#ff0000;"/>
   </g>
   <g id="patch_8">
    <path d="M 86.603664 165.338458 
L 86.603664 87.94359 
" style="fill:none;stroke:#000000;stroke-linecap:square;stroke-linejoin:miter;"/>
   </g>
   <g id="patch_9">
    <path d="M 585.015354 165.338458 
L 585.015354 87.94359 
" style="fill:none;stroke:#000000;stroke-linecap:square;stroke-linejoin:miter;"/>
   </g>
   <g id="patch_10">
    <path d="M 86.603664 165.338458 
L 585.015354 165.338458 
" style="fill:none;stroke:#000000;stroke-linecap:square;stroke-linejoin:miter;"/>
   </g>
   <g id="patch_11">
    <path d="M 86.603664 87.94359 
L 585.015354 87.94359 
" style="fill:none;stroke:#000000;stroke-linecap:square;stroke-linejoin:miter;"/>
   </g>
   <g id="legend_1">
    <g id="line2d_45">
     <path d="M 600.615354 116.945399 
L 624.615354 116.945399 
" style="fill:none;"/>
    </g>
    <g id="line2d_46">
     <defs>
      <path d="M 0 4.8 
C 1.272975 4.8 2.493983 4.294242 3.394113 3.394113 
C 4.294242 2.493983 4.8 1.272975 4.8 0 
C 4.8 -1.272975 4.294242 -2.493983 3.394113 -3.394113 
C 2.493983 -4.294242 1.272975 -4.8 0 -4.8 
C -1.272975 -4.8 -2.493983 -4.294242 -3.394113 -3.394113 
C -4.294242 -2.493983 -4.8 -1.272975 -4.8 0 
C -4.8 1.272975 -4.294242 2.493983 -3.394113 3.394113 
C -2.493983 4.294242 -1.272975 4.8 0 4.8 
z
" id="maa0c884079"/>
     </defs>
     <g>
      <use x="612.615354" xlink:href="#maa0c884079" y="116.945399"/>
     </g>
    </g>
    <g id="text_17">
     <!-- Groundtruth -->
     <g transform="translate(634.215354 121.145399)scale(0.12 -0.12)">
      <defs>
       <path d="M 59.515625 10.40625 
L 59.515625 29.984375 
L 43.40625 29.984375 
L 43.40625 38.09375 
L 69.28125 38.09375 
L 69.28125 6.78125 
Q 63.578125 2.734375 56.6875 0.65625 
Q 49.8125 -1.421875 42 -1.421875 
Q 24.90625 -1.421875 15.25 8.5625 
Q 5.609375 18.5625 5.609375 36.375 
Q 5.609375 54.25 15.25 64.234375 
Q 24.90625 74.21875 42 74.21875 
Q 49.125 74.21875 55.546875 72.453125 
Q 61.96875 70.703125 67.390625 67.28125 
L 67.390625 56.78125 
Q 61.921875 61.421875 55.765625 63.765625 
Q 49.609375 66.109375 42.828125 66.109375 
Q 29.4375 66.109375 22.71875 58.640625 
Q 16.015625 51.171875 16.015625 36.375 
Q 16.015625 21.625 22.71875 14.15625 
Q 29.4375 6.6875 42.828125 6.6875 
Q 48.046875 6.6875 52.140625 7.59375 
Q 56.25 8.5 59.515625 10.40625 
z
" id="DejaVuSans-71"/>
       <path d="M 41.109375 46.296875 
Q 39.59375 47.171875 37.8125 47.578125 
Q 36.03125 48 33.890625 48 
Q 26.265625 48 22.1875 43.046875 
Q 18.109375 38.09375 18.109375 28.8125 
L 18.109375 0 
L 9.078125 0 
L 9.078125 54.6875 
L 18.109375 54.6875 
L 18.109375 46.1875 
Q 20.953125 51.171875 25.484375 53.578125 
Q 30.03125 56 36.53125 56 
Q 37.453125 56 38.578125 55.875 
Q 39.703125 55.765625 41.0625 55.515625 
z
" id="DejaVuSans-114"/>
       <path d="M 30.609375 48.390625 
Q 23.390625 48.390625 19.1875 42.75 
Q 14.984375 37.109375 14.984375 27.296875 
Q 14.984375 17.484375 19.15625 11.84375 
Q 23.34375 6.203125 30.609375 6.203125 
Q 37.796875 6.203125 41.984375 11.859375 
Q 46.1875 17.53125 46.1875 27.296875 
Q 46.1875 37.015625 41.984375 42.703125 
Q 37.796875 48.390625 30.609375 48.390625 
z
M 30.609375 56 
Q 42.328125 56 49.015625 48.375 
Q 55.71875 40.765625 55.71875 27.296875 
Q 55.71875 13.875 49.015625 6.21875 
Q 42.328125 -1.421875 30.609375 -1.421875 
Q 18.84375 -1.421875 12.171875 6.21875 
Q 5.515625 13.875 5.515625 27.296875 
Q 5.515625 40.765625 12.171875 48.375 
Q 18.84375 56 30.609375 56 
z
" id="DejaVuSans-111"/>
       <path d="M 8.5 21.578125 
L 8.5 54.6875 
L 17.484375 54.6875 
L 17.484375 21.921875 
Q 17.484375 14.15625 20.5 10.265625 
Q 23.53125 6.390625 29.59375 6.390625 
Q 36.859375 6.390625 41.078125 11.03125 
Q 45.3125 15.671875 45.3125 23.6875 
L 45.3125 54.6875 
L 54.296875 54.6875 
L 54.296875 0 
L 45.3125 0 
L 45.3125 8.40625 
Q 42.046875 3.421875 37.71875 1 
Q 33.40625 -1.421875 27.6875 -1.421875 
Q 18.265625 -1.421875 13.375 4.4375 
Q 8.5 10.296875 8.5 21.578125 
z
M 31.109375 56 
z
" id="DejaVuSans-117"/>
       <path d="M 54.890625 33.015625 
L 54.890625 0 
L 45.90625 0 
L 45.90625 32.71875 
Q 45.90625 40.484375 42.875 44.328125 
Q 39.84375 48.1875 33.796875 48.1875 
Q 26.515625 48.1875 22.3125 43.546875 
Q 18.109375 38.921875 18.109375 30.90625 
L 18.109375 0 
L 9.078125 0 
L 9.078125 54.6875 
L 18.109375 54.6875 
L 18.109375 46.1875 
Q 21.34375 51.125 25.703125 53.5625 
Q 30.078125 56 35.796875 56 
Q 45.21875 56 50.046875 50.171875 
Q 54.890625 44.34375 54.890625 33.015625 
z
" id="DejaVuSans-110"/>
       <path d="M 45.40625 46.390625 
L 45.40625 75.984375 
L 54.390625 75.984375 
L 54.390625 0 
L 45.40625 0 
L 45.40625 8.203125 
Q 42.578125 3.328125 38.25 0.953125 
Q 33.9375 -1.421875 27.875 -1.421875 
Q 17.96875 -1.421875 11.734375 6.484375 
Q 5.515625 14.40625 5.515625 27.296875 
Q 5.515625 40.1875 11.734375 48.09375 
Q 17.96875 56 27.875 56 
Q 33.9375 56 38.25 53.625 
Q 42.578125 51.265625 45.40625 46.390625 
z
M 14.796875 27.296875 
Q 14.796875 17.390625 18.875 11.75 
Q 22.953125 6.109375 30.078125 6.109375 
Q 37.203125 6.109375 41.296875 11.75 
Q 45.40625 17.390625 45.40625 27.296875 
Q 45.40625 37.203125 41.296875 42.84375 
Q 37.203125 48.484375 30.078125 48.484375 
Q 22.953125 48.484375 18.875 42.84375 
Q 14.796875 37.203125 14.796875 27.296875 
z
" id="DejaVuSans-100"/>
       <path d="M 18.3125 70.21875 
L 18.3125 54.6875 
L 36.8125 54.6875 
L 36.8125 47.703125 
L 18.3125 47.703125 
L 18.3125 18.015625 
Q 18.3125 11.328125 20.140625 9.421875 
Q 21.96875 7.515625 27.59375 7.515625 
L 36.8125 7.515625 
L 36.8125 0 
L 27.59375 0 
Q 17.1875 0 13.234375 3.875 
Q 9.28125 7.765625 9.28125 18.015625 
L 9.28125 47.703125 
L 2.6875 47.703125 
L 2.6875 54.6875 
L 9.28125 54.6875 
L 9.28125 70.21875 
z
" id="DejaVuSans-116"/>
       <path d="M 54.890625 33.015625 
L 54.890625 0 
L 45.90625 0 
L 45.90625 32.71875 
Q 45.90625 40.484375 42.875 44.328125 
Q 39.84375 48.1875 33.796875 48.1875 
Q 26.515625 48.1875 22.3125 43.546875 
Q 18.109375 38.921875 18.109375 30.90625 
L 18.109375 0 
L 9.078125 0 
L 9.078125 75.984375 
L 18.109375 75.984375 
L 18.109375 46.1875 
Q 21.34375 51.125 25.703125 53.5625 
Q 30.078125 56 35.796875 56 
Q 45.21875 56 50.046875 50.171875 
Q 54.890625 44.34375 54.890625 33.015625 
z
" id="DejaVuSans-104"/>
      </defs>
      <use xlink:href="#DejaVuSans-71"/>
      <use x="77.490234" xlink:href="#DejaVuSans-114"/>
      <use x="116.353516" xlink:href="#DejaVuSans-111"/>
      <use x="177.535156" xlink:href="#DejaVuSans-117"/>
      <use x="240.914062" xlink:href="#DejaVuSans-110"/>
      <use x="304.292969" xlink:href="#DejaVuSans-100"/>
      <use x="367.769531" xlink:href="#DejaVuSans-116"/>
      <use x="406.978516" xlink:href="#DejaVuSans-114"/>
      <use x="448.091797" xlink:href="#DejaVuSans-117"/>
      <use x="511.470703" xlink:href="#DejaVuSans-116"/>
      <use x="550.679688" xlink:href="#DejaVuSans-104"/>
     </g>
    </g>
    <g id="line2d_47">
     <path d="M 600.615354 134.559149 
L 624.615354 134.559149 
" style="fill:none;stroke:#ff0000;stroke-linejoin:miter;stroke-width:1.5;"/>
    </g>
    <g id="line2d_48"/>
    <g id="text_18">
     <!-- Prediction -->
     <g transform="translate(634.215354 138.759149)scale(0.12 -0.12)">
      <defs>
       <path d="M 19.671875 64.796875 
L 19.671875 37.40625 
L 32.078125 37.40625 
Q 38.96875 37.40625 42.71875 40.96875 
Q 46.484375 44.53125 46.484375 51.125 
Q 46.484375 57.671875 42.71875 61.234375 
Q 38.96875 64.796875 32.078125 64.796875 
z
M 9.8125 72.90625 
L 32.078125 72.90625 
Q 44.34375 72.90625 50.609375 67.359375 
Q 56.890625 61.8125 56.890625 51.125 
Q 56.890625 40.328125 50.609375 34.8125 
Q 44.34375 29.296875 32.078125 29.296875 
L 19.671875 29.296875 
L 19.671875 0 
L 9.8125 0 
z
" id="DejaVuSans-80"/>
       <path d="M 56.203125 29.59375 
L 56.203125 25.203125 
L 14.890625 25.203125 
Q 15.484375 15.921875 20.484375 11.0625 
Q 25.484375 6.203125 34.421875 6.203125 
Q 39.59375 6.203125 44.453125 7.46875 
Q 49.3125 8.734375 54.109375 11.28125 
L 54.109375 2.78125 
Q 49.265625 0.734375 44.1875 -0.34375 
Q 39.109375 -1.421875 33.890625 -1.421875 
Q 20.796875 -1.421875 13.15625 6.1875 
Q 5.515625 13.8125 5.515625 26.8125 
Q 5.515625 40.234375 12.765625 48.109375 
Q 20.015625 56 32.328125 56 
Q 43.359375 56 49.78125 48.890625 
Q 56.203125 41.796875 56.203125 29.59375 
z
M 47.21875 32.234375 
Q 47.125 39.59375 43.09375 43.984375 
Q 39.0625 48.390625 32.421875 48.390625 
Q 24.90625 48.390625 20.390625 44.140625 
Q 15.875 39.890625 15.1875 32.171875 
z
" id="DejaVuSans-101"/>
       <path d="M 9.421875 54.6875 
L 18.40625 54.6875 
L 18.40625 0 
L 9.421875 0 
z
M 9.421875 75.984375 
L 18.40625 75.984375 
L 18.40625 64.59375 
L 9.421875 64.59375 
z
" id="DejaVuSans-105"/>
       <path d="M 48.78125 52.59375 
L 48.78125 44.1875 
Q 44.96875 46.296875 41.140625 47.34375 
Q 37.3125 48.390625 33.40625 48.390625 
Q 24.65625 48.390625 19.8125 42.84375 
Q 14.984375 37.3125 14.984375 27.296875 
Q 14.984375 17.28125 19.8125 11.734375 
Q 24.65625 6.203125 33.40625 6.203125 
Q 37.3125 6.203125 41.140625 7.25 
Q 44.96875 8.296875 48.78125 10.40625 
L 48.78125 2.09375 
Q 45.015625 0.34375 40.984375 -0.53125 
Q 36.96875 -1.421875 32.421875 -1.421875 
Q 20.0625 -1.421875 12.78125 6.34375 
Q 5.515625 14.109375 5.515625 27.296875 
Q 5.515625 40.671875 12.859375 48.328125 
Q 20.21875 56 33.015625 56 
Q 37.15625 56 41.109375 55.140625 
Q 45.0625 54.296875 48.78125 52.59375 
z
" id="DejaVuSans-99"/>
      </defs>
      <use xlink:href="#DejaVuSans-80"/>
      <use x="58.552734" xlink:href="#DejaVuSans-114"/>
      <use x="97.416016" xlink:href="#DejaVuSans-101"/>
      <use x="158.939453" xlink:href="#DejaVuSans-100"/>
      <use x="222.416016" xlink:href="#DejaVuSans-105"/>
      <use x="250.199219" xlink:href="#DejaVuSans-99"/>
      <use x="305.179688" xlink:href="#DejaVuSans-116"/>
      <use x="344.388672" xlink:href="#DejaVuSans-105"/>
      <use x="372.171875" xlink:href="#DejaVuSans-111"/>
      <use x="433.353516" xlink:href="#DejaVuSans-110"/>
     </g>
    </g>
   </g>
  </g>
  <g id="axes_3">
   <g id="patch_12">
    <path d="M 86.603664 250.305354 
L 585.015354 250.305354 
L 585.015354 172.910486 
L 86.603664 172.910486 
z
" style="fill:#ffffff;"/>
   </g>
   <g id="matplotlib.axis_5">
    <g id="xtick_13">
     <g id="line2d_49">
      <path clip-path="url(#pf08e3b2710)" d="M 100.709655 250.305354 
L 100.709655 172.910486 
" style="fill:none;stroke:#000000;stroke-linecap:square;stroke-opacity:0.1;stroke-width:0.5;"/>
     </g>
     <g id="line2d_50">
      <defs>
       <path d="M 0 0 
L 0 -2.5 
" id="mf4da85c0f2" style="stroke:#000000;stroke-width:0.5;"/>
      </defs>
      <g>
       <use style="stroke:#000000;stroke-width:0.5;" x="100.709655" xlink:href="#mf4da85c0f2" y="250.305354"/>
      </g>
     </g>
     <g id="line2d_51">
      <defs>
       <path d="M 0 0 
L 0 2.5 
" id="m2d0ca89fc1" style="stroke:#000000;stroke-width:0.5;"/>
      </defs>
      <g>
       <use style="stroke:#000000;stroke-width:0.5;" x="100.709655" xlink:href="#m2d0ca89fc1" y="172.910486"/>
      </g>
     </g>
     <g id="text_19">
      <!-- $\mathregular{0.0}$ -->
      <g transform="translate(91.109655 262.923479)scale(0.12 -0.12)">
       <use transform="translate(0 0.78125)" xlink:href="#DejaVuSans-48"/>
       <use transform="translate(63.623047 0.78125)" xlink:href="#DejaVuSans-46"/>
       <use transform="translate(95.410156 0.78125)" xlink:href="#DejaVuSans-48"/>
      </g>
     </g>
    </g>
    <g id="xtick_14">
     <g id="line2d_52">
      <path clip-path="url(#pf08e3b2710)" d="M 194.749597 250.305354 
L 194.749597 172.910486 
" style="fill:none;stroke:#000000;stroke-linecap:square;stroke-opacity:0.1;stroke-width:0.5;"/>
     </g>
     <g id="line2d_53">
      <g>
       <use style="stroke:#000000;stroke-width:0.5;" x="194.749597" xlink:href="#mf4da85c0f2" y="250.305354"/>
      </g>
     </g>
     <g id="line2d_54">
      <g>
       <use style="stroke:#000000;stroke-width:0.5;" x="194.749597" xlink:href="#m2d0ca89fc1" y="172.910486"/>
      </g>
     </g>
     <g id="text_20">
      <!-- $\mathregular{0.1}$ -->
      <g transform="translate(185.149597 262.923479)scale(0.12 -0.12)">
       <use transform="translate(0 0.78125)" xlink:href="#DejaVuSans-48"/>
       <use transform="translate(63.623047 0.78125)" xlink:href="#DejaVuSans-46"/>
       <use transform="translate(95.410156 0.78125)" xlink:href="#DejaVuSans-49"/>
      </g>
     </g>
    </g>
    <g id="xtick_15">
     <g id="line2d_55">
      <path clip-path="url(#pf08e3b2710)" d="M 288.789538 250.305354 
L 288.789538 172.910486 
" style="fill:none;stroke:#000000;stroke-linecap:square;stroke-opacity:0.1;stroke-width:0.5;"/>
     </g>
     <g id="line2d_56">
      <g>
       <use style="stroke:#000000;stroke-width:0.5;" x="288.789538" xlink:href="#mf4da85c0f2" y="250.305354"/>
      </g>
     </g>
     <g id="line2d_57">
      <g>
       <use style="stroke:#000000;stroke-width:0.5;" x="288.789538" xlink:href="#m2d0ca89fc1" y="172.910486"/>
      </g>
     </g>
     <g id="text_21">
      <!-- $\mathregular{0.2}$ -->
      <g transform="translate(279.549538 262.923479)scale(0.12 -0.12)">
       <use transform="translate(0 0.78125)" xlink:href="#DejaVuSans-48"/>
       <use transform="translate(63.623047 0.78125)" xlink:href="#DejaVuSans-46"/>
       <use transform="translate(89.910156 0.78125)" xlink:href="#DejaVuSans-50"/>
      </g>
     </g>
    </g>
    <g id="xtick_16">
     <g id="line2d_58">
      <path clip-path="url(#pf08e3b2710)" d="M 382.82948 250.305354 
L 382.82948 172.910486 
" style="fill:none;stroke:#000000;stroke-linecap:square;stroke-opacity:0.1;stroke-width:0.5;"/>
     </g>
     <g id="line2d_59">
      <g>
       <use style="stroke:#000000;stroke-width:0.5;" x="382.82948" xlink:href="#mf4da85c0f2" y="250.305354"/>
      </g>
     </g>
     <g id="line2d_60">
      <g>
       <use style="stroke:#000000;stroke-width:0.5;" x="382.82948" xlink:href="#m2d0ca89fc1" y="172.910486"/>
      </g>
     </g>
     <g id="text_22">
      <!-- $\mathregular{0.3}$ -->
      <g transform="translate(373.22948 262.923479)scale(0.12 -0.12)">
       <use transform="translate(0 0.78125)" xlink:href="#DejaVuSans-48"/>
       <use transform="translate(63.623047 0.78125)" xlink:href="#DejaVuSans-46"/>
       <use transform="translate(95.410156 0.78125)" xlink:href="#DejaVuSans-51"/>
      </g>
     </g>
    </g>
    <g id="xtick_17">
     <g id="line2d_61">
      <path clip-path="url(#pf08e3b2710)" d="M 476.869421 250.305354 
L 476.869421 172.910486 
" style="fill:none;stroke:#000000;stroke-linecap:square;stroke-opacity:0.1;stroke-width:0.5;"/>
     </g>
     <g id="line2d_62">
      <g>
       <use style="stroke:#000000;stroke-width:0.5;" x="476.869421" xlink:href="#mf4da85c0f2" y="250.305354"/>
      </g>
     </g>
     <g id="line2d_63">
      <g>
       <use style="stroke:#000000;stroke-width:0.5;" x="476.869421" xlink:href="#m2d0ca89fc1" y="172.910486"/>
      </g>
     </g>
     <g id="text_23">
      <!-- $\mathregular{0.4}$ -->
      <g transform="translate(467.269421 262.923479)scale(0.12 -0.12)">
       <use transform="translate(0 0.78125)" xlink:href="#DejaVuSans-48"/>
       <use transform="translate(63.623047 0.78125)" xlink:href="#DejaVuSans-46"/>
       <use transform="translate(95.410156 0.78125)" xlink:href="#DejaVuSans-52"/>
      </g>
     </g>
    </g>
    <g id="xtick_18">
     <g id="line2d_64">
      <path clip-path="url(#pf08e3b2710)" d="M 570.909363 250.305354 
L 570.909363 172.910486 
" style="fill:none;stroke:#000000;stroke-linecap:square;stroke-opacity:0.1;stroke-width:0.5;"/>
     </g>
     <g id="line2d_65">
      <g>
       <use style="stroke:#000000;stroke-width:0.5;" x="570.909363" xlink:href="#mf4da85c0f2" y="250.305354"/>
      </g>
     </g>
     <g id="line2d_66">
      <g>
       <use style="stroke:#000000;stroke-width:0.5;" x="570.909363" xlink:href="#m2d0ca89fc1" y="172.910486"/>
      </g>
     </g>
     <g id="text_24">
      <!-- $\mathregular{0.5}$ -->
      <g transform="translate(561.309363 262.923479)scale(0.12 -0.12)">
       <use transform="translate(0 0.78125)" xlink:href="#DejaVuSans-48"/>
       <use transform="translate(63.623047 0.78125)" xlink:href="#DejaVuSans-46"/>
       <use transform="translate(95.410156 0.78125)" xlink:href="#DejaVuSans-53"/>
      </g>
     </g>
    </g>
    <g id="text_25">
     <!-- Time [s] -->
     <g transform="translate(303.283259 281.576604)scale(0.16 -0.16)">
      <defs>
       <path d="M -0.296875 72.90625 
L 61.375 72.90625 
L 61.375 64.59375 
L 35.5 64.59375 
L 35.5 0 
L 25.59375 0 
L 25.59375 64.59375 
L -0.296875 64.59375 
z
" id="DejaVuSans-84"/>
       <path d="M 52 44.1875 
Q 55.375 50.25 60.0625 53.125 
Q 64.75 56 71.09375 56 
Q 79.640625 56 84.28125 50.015625 
Q 88.921875 44.046875 88.921875 33.015625 
L 88.921875 0 
L 79.890625 0 
L 79.890625 32.71875 
Q 79.890625 40.578125 77.09375 44.375 
Q 74.3125 48.1875 68.609375 48.1875 
Q 61.625 48.1875 57.5625 43.546875 
Q 53.515625 38.921875 53.515625 30.90625 
L 53.515625 0 
L 44.484375 0 
L 44.484375 32.71875 
Q 44.484375 40.625 41.703125 44.40625 
Q 38.921875 48.1875 33.109375 48.1875 
Q 26.21875 48.1875 22.15625 43.53125 
Q 18.109375 38.875 18.109375 30.90625 
L 18.109375 0 
L 9.078125 0 
L 9.078125 54.6875 
L 18.109375 54.6875 
L 18.109375 46.1875 
Q 21.1875 51.21875 25.484375 53.609375 
Q 29.78125 56 35.6875 56 
Q 41.65625 56 45.828125 52.96875 
Q 50 49.953125 52 44.1875 
z
" id="DejaVuSans-109"/>
       <path id="DejaVuSans-32"/>
       <path d="M 8.59375 75.984375 
L 29.296875 75.984375 
L 29.296875 69 
L 17.578125 69 
L 17.578125 -6.203125 
L 29.296875 -6.203125 
L 29.296875 -13.1875 
L 8.59375 -13.1875 
z
" id="DejaVuSans-91"/>
       <path d="M 44.28125 53.078125 
L 44.28125 44.578125 
Q 40.484375 46.53125 36.375 47.5 
Q 32.28125 48.484375 27.875 48.484375 
Q 21.1875 48.484375 17.84375 46.4375 
Q 14.5 44.390625 14.5 40.28125 
Q 14.5 37.15625 16.890625 35.375 
Q 19.28125 33.59375 26.515625 31.984375 
L 29.59375 31.296875 
Q 39.15625 29.25 43.1875 25.515625 
Q 47.21875 21.78125 47.21875 15.09375 
Q 47.21875 7.46875 41.1875 3.015625 
Q 35.15625 -1.421875 24.609375 -1.421875 
Q 20.21875 -1.421875 15.453125 -0.5625 
Q 10.6875 0.296875 5.421875 2 
L 5.421875 11.28125 
Q 10.40625 8.6875 15.234375 7.390625 
Q 20.0625 6.109375 24.8125 6.109375 
Q 31.15625 6.109375 34.5625 8.28125 
Q 37.984375 10.453125 37.984375 14.40625 
Q 37.984375 18.0625 35.515625 20.015625 
Q 33.0625 21.96875 24.703125 23.78125 
L 21.578125 24.515625 
Q 13.234375 26.265625 9.515625 29.90625 
Q 5.8125 33.546875 5.8125 39.890625 
Q 5.8125 47.609375 11.28125 51.796875 
Q 16.75 56 26.8125 56 
Q 31.78125 56 36.171875 55.265625 
Q 40.578125 54.546875 44.28125 53.078125 
z
" id="DejaVuSans-115"/>
       <path d="M 30.421875 75.984375 
L 30.421875 -13.1875 
L 9.71875 -13.1875 
L 9.71875 -6.203125 
L 21.390625 -6.203125 
L 21.390625 69 
L 9.71875 69 
L 9.71875 75.984375 
z
" id="DejaVuSans-93"/>
      </defs>
      <use xlink:href="#DejaVuSans-84"/>
      <use x="57.958984" xlink:href="#DejaVuSans-105"/>
      <use x="85.742188" xlink:href="#DejaVuSans-109"/>
      <use x="183.154297" xlink:href="#DejaVuSans-101"/>
      <use x="244.677734" xlink:href="#DejaVuSans-32"/>
      <use x="276.464844" xlink:href="#DejaVuSans-91"/>
      <use x="315.478516" xlink:href="#DejaVuSans-115"/>
      <use x="367.578125" xlink:href="#DejaVuSans-93"/>
     </g>
    </g>
   </g>
   <g id="matplotlib.axis_6">
    <g id="ytick_15">
     <g id="line2d_67">
      <path clip-path="url(#pf08e3b2710)" d="M 86.603664 235.881513 
L 585.015354 235.881513 
" style="fill:none;stroke:#000000;stroke-linecap:square;stroke-opacity:0.1;stroke-width:0.5;"/>
     </g>
     <g id="line2d_68">
      <g>
       <use style="stroke:#000000;stroke-width:0.5;" x="86.603664" xlink:href="#mc55b216c86" y="235.881513"/>
      </g>
     </g>
     <g id="line2d_69">
      <g>
       <use style="stroke:#000000;stroke-width:0.5;" x="585.015354" xlink:href="#me8768b467d" y="235.881513"/>
      </g>
     </g>
     <g id="text_26">
      <!-- $\mathregular{1267.5}$ -->
      <g transform="translate(41.103664 240.440575)scale(0.12 -0.12)">
       <defs>
        <path d="M 33.015625 40.375 
Q 26.375 40.375 22.484375 35.828125 
Q 18.609375 31.296875 18.609375 23.390625 
Q 18.609375 15.53125 22.484375 10.953125 
Q 26.375 6.390625 33.015625 6.390625 
Q 39.65625 6.390625 43.53125 10.953125 
Q 47.40625 15.53125 47.40625 23.390625 
Q 47.40625 31.296875 43.53125 35.828125 
Q 39.65625 40.375 33.015625 40.375 
z
M 52.59375 71.296875 
L 52.59375 62.3125 
Q 48.875 64.0625 45.09375 64.984375 
Q 41.3125 65.921875 37.59375 65.921875 
Q 27.828125 65.921875 22.671875 59.328125 
Q 17.53125 52.734375 16.796875 39.40625 
Q 19.671875 43.65625 24.015625 45.921875 
Q 28.375 48.1875 33.59375 48.1875 
Q 44.578125 48.1875 50.953125 41.515625 
Q 57.328125 34.859375 57.328125 23.390625 
Q 57.328125 12.15625 50.6875 5.359375 
Q 44.046875 -1.421875 33.015625 -1.421875 
Q 20.359375 -1.421875 13.671875 8.265625 
Q 6.984375 17.96875 6.984375 36.375 
Q 6.984375 53.65625 15.1875 63.9375 
Q 23.390625 74.21875 37.203125 74.21875 
Q 40.921875 74.21875 44.703125 73.484375 
Q 48.484375 72.75 52.59375 71.296875 
z
" id="DejaVuSans-54"/>
        <path d="M 8.203125 72.90625 
L 55.078125 72.90625 
L 55.078125 68.703125 
L 28.609375 0 
L 18.3125 0 
L 43.21875 64.59375 
L 8.203125 64.59375 
z
" id="DejaVuSans-55"/>
       </defs>
       <use transform="translate(0 0.78125)" xlink:href="#DejaVuSans-49"/>
       <use transform="translate(63.623047 0.78125)" xlink:href="#DejaVuSans-50"/>
       <use transform="translate(127.246094 0.78125)" xlink:href="#DejaVuSans-54"/>
       <use transform="translate(190.869141 0.78125)" xlink:href="#DejaVuSans-55"/>
       <use transform="translate(254.492188 0.78125)" xlink:href="#DejaVuSans-46"/>
       <use transform="translate(286.279297 0.78125)" xlink:href="#DejaVuSans-53"/>
      </g>
     </g>
    </g>
    <g id="ytick_16">
     <g id="line2d_70">
      <path clip-path="url(#pf08e3b2710)" d="M 86.603664 218.991755 
L 585.015354 218.991755 
" style="fill:none;stroke:#000000;stroke-linecap:square;stroke-opacity:0.1;stroke-width:0.5;"/>
     </g>
     <g id="line2d_71">
      <g>
       <use style="stroke:#000000;stroke-width:0.5;" x="86.603664" xlink:href="#mc55b216c86" y="218.991755"/>
      </g>
     </g>
     <g id="line2d_72">
      <g>
       <use style="stroke:#000000;stroke-width:0.5;" x="585.015354" xlink:href="#me8768b467d" y="218.991755"/>
      </g>
     </g>
     <g id="text_27">
      <!-- $\mathregular{1270.0}$ -->
      <g transform="translate(41.103664 223.550818)scale(0.12 -0.12)">
       <use transform="translate(0 0.78125)" xlink:href="#DejaVuSans-49"/>
       <use transform="translate(63.623047 0.78125)" xlink:href="#DejaVuSans-50"/>
       <use transform="translate(127.246094 0.78125)" xlink:href="#DejaVuSans-55"/>
       <use transform="translate(190.869141 0.78125)" xlink:href="#DejaVuSans-48"/>
       <use transform="translate(254.492188 0.78125)" xlink:href="#DejaVuSans-46"/>
       <use transform="translate(286.279297 0.78125)" xlink:href="#DejaVuSans-48"/>
      </g>
     </g>
    </g>
    <g id="ytick_17">
     <g id="line2d_73">
      <path clip-path="url(#pf08e3b2710)" d="M 86.603664 202.101997 
L 585.015354 202.101997 
" style="fill:none;stroke:#000000;stroke-linecap:square;stroke-opacity:0.1;stroke-width:0.5;"/>
     </g>
     <g id="line2d_74">
      <g>
       <use style="stroke:#000000;stroke-width:0.5;" x="86.603664" xlink:href="#mc55b216c86" y="202.101997"/>
      </g>
     </g>
     <g id="line2d_75">
      <g>
       <use style="stroke:#000000;stroke-width:0.5;" x="585.015354" xlink:href="#me8768b467d" y="202.101997"/>
      </g>
     </g>
     <g id="text_28">
      <!-- $\mathregular{1272.5}$ -->
      <g transform="translate(41.103664 206.66106)scale(0.12 -0.12)">
       <use transform="translate(0 0.78125)" xlink:href="#DejaVuSans-49"/>
       <use transform="translate(63.623047 0.78125)" xlink:href="#DejaVuSans-50"/>
       <use transform="translate(127.246094 0.78125)" xlink:href="#DejaVuSans-55"/>
       <use transform="translate(190.869141 0.78125)" xlink:href="#DejaVuSans-50"/>
       <use transform="translate(254.492188 0.78125)" xlink:href="#DejaVuSans-46"/>
       <use transform="translate(286.279297 0.78125)" xlink:href="#DejaVuSans-53"/>
      </g>
     </g>
    </g>
    <g id="ytick_18">
     <g id="line2d_76">
      <path clip-path="url(#pf08e3b2710)" d="M 86.603664 185.21224 
L 585.015354 185.21224 
" style="fill:none;stroke:#000000;stroke-linecap:square;stroke-opacity:0.1;stroke-width:0.5;"/>
     </g>
     <g id="line2d_77">
      <g>
       <use style="stroke:#000000;stroke-width:0.5;" x="86.603664" xlink:href="#mc55b216c86" y="185.21224"/>
      </g>
     </g>
     <g id="line2d_78">
      <g>
       <use style="stroke:#000000;stroke-width:0.5;" x="585.015354" xlink:href="#me8768b467d" y="185.21224"/>
      </g>
     </g>
     <g id="text_29">
      <!-- $\mathregular{1275.0}$ -->
      <g transform="translate(41.103664 189.771302)scale(0.12 -0.12)">
       <use transform="translate(0 0.78125)" xlink:href="#DejaVuSans-49"/>
       <use transform="translate(63.623047 0.78125)" xlink:href="#DejaVuSans-50"/>
       <use transform="translate(127.246094 0.78125)" xlink:href="#DejaVuSans-55"/>
       <use transform="translate(190.869141 0.78125)" xlink:href="#DejaVuSans-53"/>
       <use transform="translate(254.492188 0.78125)" xlink:href="#DejaVuSans-46"/>
       <use transform="translate(286.279297 0.78125)" xlink:href="#DejaVuSans-48"/>
      </g>
     </g>
    </g>
    <g id="text_30">
     <!-- T [K] -->
     <g transform="translate(33.776164 230.52542)rotate(-90)scale(0.16 -0.16)">
      <defs>
       <path d="M 9.8125 72.90625 
L 19.671875 72.90625 
L 19.671875 42.09375 
L 52.390625 72.90625 
L 65.09375 72.90625 
L 28.90625 38.921875 
L 67.671875 0 
L 54.6875 0 
L 19.671875 35.109375 
L 19.671875 0 
L 9.8125 0 
z
" id="DejaVuSans-75"/>
      </defs>
      <use xlink:href="#DejaVuSans-84"/>
      <use x="61.083984" xlink:href="#DejaVuSans-32"/>
      <use x="92.871094" xlink:href="#DejaVuSans-91"/>
      <use x="131.884766" xlink:href="#DejaVuSans-75"/>
      <use x="197.460938" xlink:href="#DejaVuSans-93"/>
     </g>
    </g>
   </g>
   <g id="PathCollection_3">
    <g clip-path="url(#pf08e3b2710)">
     <use x="100.709655" xlink:href="#m4267811363" y="236.918268"/>
     <use x="105.459147" xlink:href="#m4267811363" y="237.611844"/>
     <use x="110.208639" xlink:href="#m4267811363" y="237.735484"/>
     <use x="114.958131" xlink:href="#m4267811363" y="238.337257"/>
     <use x="119.707623" xlink:href="#m4267811363" y="238.782193"/>
     <use x="124.457115" xlink:href="#m4267811363" y="238.167703"/>
     <use x="129.206607" xlink:href="#m4267811363" y="238.30975"/>
     <use x="133.956099" xlink:href="#m4267811363" y="237.184135"/>
     <use x="138.705591" xlink:href="#m4267811363" y="236.486223"/>
     <use x="143.455083" xlink:href="#m4267811363" y="237.234482"/>
     <use x="148.204575" xlink:href="#m4267811363" y="239.241675"/>
     <use x="152.954067" xlink:href="#m4267811363" y="239.539218"/>
     <use x="157.703559" xlink:href="#m4267811363" y="239.077621"/>
     <use x="162.453051" xlink:href="#m4267811363" y="238.738001"/>
     <use x="167.202543" xlink:href="#m4267811363" y="236.720965"/>
     <use x="171.952035" xlink:href="#m4267811363" y="236.2812"/>
     <use x="176.701527" xlink:href="#m4267811363" y="236.855738"/>
     <use x="181.451019" xlink:href="#m4267811363" y="239.058358"/>
     <use x="186.200511" xlink:href="#m4267811363" y="240.875616"/>
     <use x="190.950003" xlink:href="#m4267811363" y="241.376495"/>
     <use x="195.699495" xlink:href="#m4267811363" y="239.745831"/>
     <use x="200.448987" xlink:href="#m4267811363" y="236.818723"/>
     <use x="205.198479" xlink:href="#m4267811363" y="235.022675"/>
     <use x="209.947971" xlink:href="#m4267811363" y="235.989928"/>
     <use x="214.697463" xlink:href="#m4267811363" y="239.514438"/>
     <use x="219.446955" xlink:href="#m4267811363" y="244.071954"/>
     <use x="224.196447" xlink:href="#m4267811363" y="245.693943"/>
     <use x="228.945939" xlink:href="#m4267811363" y="242.728397"/>
     <use x="233.695431" xlink:href="#m4267811363" y="236.961008"/>
     <use x="238.444923" xlink:href="#m4267811363" y="233.261582"/>
     <use x="243.194415" xlink:href="#m4267811363" y="233.684447"/>
     <use x="247.943907" xlink:href="#m4267811363" y="238.672486"/>
     <use x="252.693399" xlink:href="#m4267811363" y="244.847278"/>
     <use x="257.442891" xlink:href="#m4267811363" y="248.114934"/>
     <use x="262.192383" xlink:href="#m4267811363" y="243.652536"/>
     <use x="266.941875" xlink:href="#m4267811363" y="232.427174"/>
     <use x="271.691367" xlink:href="#m4267811363" y="225.880939"/>
     <use x="276.440859" xlink:href="#m4267811363" y="227.228651"/>
     <use x="281.190351" xlink:href="#m4267811363" y="233.010133"/>
     <use x="285.939843" xlink:href="#m4267811363" y="239.723063"/>
     <use x="290.689335" xlink:href="#m4267811363" y="239.681396"/>
     <use x="295.438827" xlink:href="#m4267811363" y="233.202592"/>
     <use x="300.188319" xlink:href="#m4267811363" y="224.699098"/>
     <use x="304.937811" xlink:href="#m4267811363" y="222.878033"/>
     <use x="309.687303" xlink:href="#m4267811363" y="225.693416"/>
     <use x="314.436795" xlink:href="#m4267811363" y="228.107511"/>
     <use x="319.186287" xlink:href="#m4267811363" y="229.290249"/>
     <use x="323.935779" xlink:href="#m4267811363" y="226.033162"/>
     <use x="328.685271" xlink:href="#m4267811363" y="221.599246"/>
     <use x="333.434763" xlink:href="#m4267811363" y="219.629591"/>
     <use x="338.184255" xlink:href="#m4267811363" y="219.462986"/>
     <use x="342.933747" xlink:href="#m4267811363" y="220.07828"/>
     <use x="347.683239" xlink:href="#m4267811363" y="220.217075"/>
     <use x="352.432731" xlink:href="#m4267811363" y="217.874247"/>
     <use x="357.182223" xlink:href="#m4267811363" y="215.877039"/>
     <use x="361.931715" xlink:href="#m4267811363" y="214.782744"/>
     <use x="366.681207" xlink:href="#m4267811363" y="213.589202"/>
     <use x="371.430699" xlink:href="#m4267811363" y="213.636118"/>
     <use x="376.180191" xlink:href="#m4267811363" y="212.334424"/>
     <use x="380.929683" xlink:href="#m4267811363" y="210.051265"/>
     <use x="385.679175" xlink:href="#m4267811363" y="209.206635"/>
     <use x="390.428667" xlink:href="#m4267811363" y="208.317799"/>
     <use x="395.178159" xlink:href="#m4267811363" y="206.476671"/>
     <use x="399.927651" xlink:href="#m4267811363" y="205.922263"/>
     <use x="404.677143" xlink:href="#m4267811363" y="204.418033"/>
     <use x="409.426635" xlink:href="#m4267811363" y="202.957741"/>
     <use x="414.176127" xlink:href="#m4267811363" y="202.10073"/>
     <use x="418.925619" xlink:href="#m4267811363" y="201.327202"/>
     <use x="423.675111" xlink:href="#m4267811363" y="199.559675"/>
     <use x="428.424603" xlink:href="#m4267811363" y="198.004993"/>
     <use x="433.174095" xlink:href="#m4267811363" y="197.198054"/>
     <use x="437.923587" xlink:href="#m4267811363" y="195.210779"/>
     <use x="442.673079" xlink:href="#m4267811363" y="195.058332"/>
     <use x="447.422571" xlink:href="#m4267811363" y="193.535123"/>
     <use x="452.172063" xlink:href="#m4267811363" y="192.553752"/>
     <use x="456.921555" xlink:href="#m4267811363" y="191.817863"/>
     <use x="461.671047" xlink:href="#m4267811363" y="190.328195"/>
     <use x="466.420539" xlink:href="#m4267811363" y="189.417315"/>
     <use x="471.170031" xlink:href="#m4267811363" y="189.298546"/>
     <use x="475.919523" xlink:href="#m4267811363" y="188.743467"/>
     <use x="480.669015" xlink:href="#m4267811363" y="186.878721"/>
     <use x="485.418507" xlink:href="#m4267811363" y="186.102416"/>
     <use x="490.167999" xlink:href="#m4267811363" y="185.748302"/>
     <use x="494.917491" xlink:href="#m4267811363" y="185.743493"/>
     <use x="499.666983" xlink:href="#m4267811363" y="183.773021"/>
     <use x="504.416475" xlink:href="#m4267811363" y="184.117477"/>
     <use x="509.165967" xlink:href="#m4267811363" y="182.740424"/>
     <use x="513.915459" xlink:href="#m4267811363" y="182.474197"/>
     <use x="518.664951" xlink:href="#m4267811363" y="181.68035"/>
     <use x="523.414443" xlink:href="#m4267811363" y="180.666395"/>
     <use x="528.163935" xlink:href="#m4267811363" y="179.639321"/>
     <use x="532.913427" xlink:href="#m4267811363" y="179.479062"/>
     <use x="537.662919" xlink:href="#m4267811363" y="178.892167"/>
     <use x="542.412411" xlink:href="#m4267811363" y="178.55243"/>
     <use x="547.161903" xlink:href="#m4267811363" y="177.540011"/>
     <use x="551.911395" xlink:href="#m4267811363" y="177.324556"/>
     <use x="556.660887" xlink:href="#m4267811363" y="177.368354"/>
     <use x="561.410379" xlink:href="#m4267811363" y="176.360056"/>
     <use x="566.159871" xlink:href="#m4267811363" y="175.696827"/>
     <use x="570.909363" xlink:href="#m4267811363" y="175.320041"/>
    </g>
   </g>
   <g id="line2d_79">
    <path clip-path="url(#pf08e3b2710)" d="M 100.709655 236.799141 
L 105.459147 236.907031 
L 110.208639 237.341843 
L 114.958131 237.891498 
L 119.707623 238.214539 
L 124.457115 238.071256 
L 129.206607 237.53428 
L 133.956099 237.006461 
L 138.705591 236.94959 
L 143.455083 237.528728 
L 148.204575 238.461754 
L 152.954067 239.1546 
L 157.703559 239.062095 
L 162.453051 238.125763 
L 167.202543 236.969302 
L 171.952035 236.509855 
L 176.701527 237.225655 
L 181.451019 238.789678 
L 186.200511 240.230286 
L 190.950003 240.442274 
L 195.699495 238.969361 
L 200.448987 236.680139 
L 205.198479 235.340774 
L 209.947971 236.079803 
L 214.697463 238.56872 
L 219.446955 241.306159 
L 224.196447 242.293815 
L 228.945939 240.191792 
L 233.695431 236.00769 
L 238.444923 233.050854 
L 243.194415 233.59984 
L 247.943907 237.19993 
L 252.693399 241.570199 
L 257.442891 243.546262 
L 262.192383 240.539008 
L 266.941875 233.825912 
L 271.691367 229.194705 
L 276.440859 229.805272 
L 281.190351 234.172365 
L 285.939843 238.837513 
L 290.689335 239.738821 
L 295.438827 234.624654 
L 300.188319 227.449214 
L 304.937811 224.460659 
L 309.687303 226.051599 
L 314.436795 229.080843 
L 319.186287 230.014656 
L 323.935779 227.157581 
L 328.685271 222.774938 
L 333.434763 220.308996 
L 338.184255 220.08848 
L 342.933747 220.355835 
L 347.683239 219.585824 
L 352.432731 217.713896 
L 357.182223 215.759438 
L 361.931715 214.386922 
L 366.681207 213.406496 
L 371.430699 212.369552 
L 376.180191 211.112083 
L 380.929683 209.766026 
L 385.679175 208.484785 
L 390.428667 207.287985 
L 395.178159 206.119361 
L 399.927651 204.942939 
L 404.677143 203.764956 
L 409.426635 202.604458 
L 414.176127 201.468704 
L 418.925619 200.354752 
L 423.675111 199.258704 
L 428.424603 198.18024 
L 433.174095 197.121142 
L 437.923587 196.082597 
L 442.673079 195.065063 
L 447.422571 194.068325 
L 452.172063 193.092291 
L 456.921555 192.13707 
L 461.671047 191.202824 
L 466.420539 190.289573 
L 471.170031 189.39724 
L 475.919523 188.525729 
L 480.669015 187.674877 
L 485.418507 186.84453 
L 490.167999 186.034476 
L 494.917491 185.244542 
L 499.666983 184.474429 
L 504.416475 183.723949 
L 509.165967 182.992727 
L 513.915459 182.280575 
L 518.664951 181.587103 
L 523.414443 180.91203 
L 528.163935 180.255093 
L 532.913427 179.615839 
L 537.662919 178.994074 
L 542.412411 178.389342 
L 547.161903 177.801325 
L 551.911395 177.229813 
L 556.660887 176.674282 
L 561.410379 176.134476 
L 566.159871 175.610167 
L 570.909363 175.100907 
" style="fill:none;stroke:#ff0000;"/>
   </g>
   <g id="patch_13">
    <path d="M 86.603664 250.305354 
L 86.603664 172.910486 
" style="fill:none;stroke:#000000;stroke-linecap:square;stroke-linejoin:miter;"/>
   </g>
   <g id="patch_14">
    <path d="M 585.015354 250.305354 
L 585.015354 172.910486 
" style="fill:none;stroke:#000000;stroke-linecap:square;stroke-linejoin:miter;"/>
   </g>
   <g id="patch_15">
    <path d="M 86.603664 250.305354 
L 585.015354 250.305354 
" style="fill:none;stroke:#000000;stroke-linecap:square;stroke-linejoin:miter;"/>
   </g>
   <g id="patch_16">
    <path d="M 86.603664 172.910486 
L 585.015354 172.910486 
" style="fill:none;stroke:#000000;stroke-linecap:square;stroke-linejoin:miter;"/>
   </g>
  </g>
 </g>
 <defs>
  <clipPath id="p1167d1dc85">
   <rect height="77.394868" width="498.41169" x="86.603664" y="2.834646"/>
  </clipPath>
  <clipPath id="p09fb487edf">
   <rect height="77.394868" width="498.41169" x="86.603664" y="87.94359"/>
  </clipPath>
  <clipPath id="pf08e3b2710">
   <rect height="77.394868" width="498.41169" x="86.603664" y="172.910486"/>
  </clipPath>
 </defs>
</svg>
