<?xml version="1.0" encoding="utf-8" standalone="no"?>
<!DOCTYPE svg PUBLIC "-//W3C//DTD SVG 1.1//EN"
  "http://www.w3.org/Graphics/SVG/1.1/DTD/svg11.dtd">
<!-- Created with matplotlib (https://matplotlib.org/) -->
<svg height="288pt" version="1.1" viewBox="0 0 648 288" width="648pt" xmlns="http://www.w3.org/2000/svg" xmlns:xlink="http://www.w3.org/1999/xlink">
 <metadata>
  <rdf:RDF xmlns:cc="http://creativecommons.org/ns#" xmlns:dc="http://purl.org/dc/elements/1.1/" xmlns:rdf="http://www.w3.org/1999/02/22-rdf-syntax-ns#">
   <cc:Work>
    <dc:type rdf:resource="http://purl.org/dc/dcmitype/StillImage"/>
    <dc:date>2021-04-27T00:30:28.532937</dc:date>
    <dc:format>image/svg+xml</dc:format>
    <dc:creator>
     <cc:Agent>
      <dc:title>Matplotlib v3.3.2, https://matplotlib.org/</dc:title>
     </cc:Agent>
    </dc:creator>
   </cc:Work>
  </rdf:RDF>
 </metadata>
 <defs>
  <style type="text/css">*{stroke-linecap:butt;stroke-linejoin:round;}</style>
 </defs>
 <g id="figure_1">
  <g id="patch_1">
   <path d="M 0 288 
L 648 288 
L 648 0 
L 0 0 
z
" style="fill:#ffffff;"/>
  </g>
  <g id="axes_1">
   <g id="patch_2">
    <path d="M 86.603664 80.229514 
L 645.165354 80.229514 
L 645.165354 2.834646 
L 86.603664 2.834646 
z
" style="fill:#ffffff;"/>
   </g>
   <g id="matplotlib.axis_1">
    <g id="xtick_1"/>
    <g id="xtick_2"/>
    <g id="xtick_3"/>
    <g id="xtick_4"/>
    <g id="xtick_5"/>
    <g id="xtick_6"/>
   </g>
   <g id="matplotlib.axis_2">
    <g id="ytick_1">
     <g id="line2d_1">
      <path clip-path="url(#pec908cd4c4)" d="M 86.603664 78.447493 
L 645.165354 78.447493 
" style="fill:none;stroke:#000000;stroke-linecap:square;stroke-opacity:0.1;stroke-width:0.5;"/>
     </g>
     <g id="line2d_2">
      <defs>
       <path d="M 0 0 
L 2.5 0 
" id="mc4341a3c2b" style="stroke:#000000;stroke-width:0.5;"/>
      </defs>
      <g>
       <use style="stroke:#000000;stroke-width:0.5;" x="86.603664" xlink:href="#mc4341a3c2b" y="78.447493"/>
      </g>
     </g>
     <g id="line2d_3">
      <defs>
       <path d="M 0 0 
L -2.5 0 
" id="m28babf9d01" style="stroke:#000000;stroke-width:0.5;"/>
      </defs>
      <g>
       <use style="stroke:#000000;stroke-width:0.5;" x="645.165354" xlink:href="#m28babf9d01" y="78.447493"/>
      </g>
     </g>
     <g id="text_1">
      <!-- $\mathregular{2.5×10^{-5}}$ -->
      <g transform="translate(25.863664 83.006555)scale(0.12 -0.12)">
       <defs>
        <path d="M 19.1875 8.296875 
L 53.609375 8.296875 
L 53.609375 0 
L 7.328125 0 
L 7.328125 8.296875 
Q 12.9375 14.109375 22.625 23.890625 
Q 32.328125 33.6875 34.8125 36.53125 
Q 39.546875 41.84375 41.421875 45.53125 
Q 43.3125 49.21875 43.3125 52.78125 
Q 43.3125 58.59375 39.234375 62.25 
Q 35.15625 65.921875 28.609375 65.921875 
Q 23.96875 65.921875 18.8125 64.3125 
Q 13.671875 62.703125 7.8125 59.421875 
L 7.8125 69.390625 
Q 13.765625 71.78125 18.9375 73 
Q 24.125 74.21875 28.421875 74.21875 
Q 39.75 74.21875 46.484375 68.546875 
Q 53.21875 62.890625 53.21875 53.421875 
Q 53.21875 48.921875 51.53125 44.890625 
Q 49.859375 40.875 45.40625 35.40625 
Q 44.1875 33.984375 37.640625 27.21875 
Q 31.109375 20.453125 19.1875 8.296875 
z
" id="DejaVuSans-50"/>
        <path d="M 10.6875 12.40625 
L 21 12.40625 
L 21 0 
L 10.6875 0 
z
" id="DejaVuSans-46"/>
        <path d="M 10.796875 72.90625 
L 49.515625 72.90625 
L 49.515625 64.59375 
L 19.828125 64.59375 
L 19.828125 46.734375 
Q 21.96875 47.46875 24.109375 47.828125 
Q 26.265625 48.1875 28.421875 48.1875 
Q 40.625 48.1875 47.75 41.5 
Q 54.890625 34.8125 54.890625 23.390625 
Q 54.890625 11.625 47.5625 5.09375 
Q 40.234375 -1.421875 26.90625 -1.421875 
Q 22.3125 -1.421875 17.546875 -0.640625 
Q 12.796875 0.140625 7.71875 1.703125 
L 7.71875 11.625 
Q 12.109375 9.234375 16.796875 8.0625 
Q 21.484375 6.890625 26.703125 6.890625 
Q 35.15625 6.890625 40.078125 11.328125 
Q 45.015625 15.765625 45.015625 23.390625 
Q 45.015625 31 40.078125 35.4375 
Q 35.15625 39.890625 26.703125 39.890625 
Q 22.75 39.890625 18.8125 39.015625 
Q 14.890625 38.140625 10.796875 36.28125 
z
" id="DejaVuSans-53"/>
        <path d="M 70.125 53.71875 
L 47.796875 31.296875 
L 70.125 8.984375 
L 64.3125 3.078125 
L 41.890625 25.484375 
L 19.484375 3.078125 
L 13.71875 8.984375 
L 35.984375 31.296875 
L 13.71875 53.71875 
L 19.484375 59.625 
L 41.890625 37.203125 
L 64.3125 59.625 
z
" id="DejaVuSans-215"/>
        <path d="M 12.40625 8.296875 
L 28.515625 8.296875 
L 28.515625 63.921875 
L 10.984375 60.40625 
L 10.984375 69.390625 
L 28.421875 72.90625 
L 38.28125 72.90625 
L 38.28125 8.296875 
L 54.390625 8.296875 
L 54.390625 0 
L 12.40625 0 
z
" id="DejaVuSans-49"/>
        <path d="M 31.78125 66.40625 
Q 24.171875 66.40625 20.328125 58.90625 
Q 16.5 51.421875 16.5 36.375 
Q 16.5 21.390625 20.328125 13.890625 
Q 24.171875 6.390625 31.78125 6.390625 
Q 39.453125 6.390625 43.28125 13.890625 
Q 47.125 21.390625 47.125 36.375 
Q 47.125 51.421875 43.28125 58.90625 
Q 39.453125 66.40625 31.78125 66.40625 
z
M 31.78125 74.21875 
Q 44.046875 74.21875 50.515625 64.515625 
Q 56.984375 54.828125 56.984375 36.375 
Q 56.984375 17.96875 50.515625 8.265625 
Q 44.046875 -1.421875 31.78125 -1.421875 
Q 19.53125 -1.421875 13.0625 8.265625 
Q 6.59375 17.96875 6.59375 36.375 
Q 6.59375 54.828125 13.0625 64.515625 
Q 19.53125 74.21875 31.78125 74.21875 
z
" id="DejaVuSans-48"/>
        <path d="M 10.59375 35.5 
L 73.1875 35.5 
L 73.1875 27.203125 
L 10.59375 27.203125 
z
" id="DejaVuSans-8722"/>
       </defs>
       <use transform="translate(0 0.684375)" xlink:href="#DejaVuSans-50"/>
       <use transform="translate(63.623047 0.684375)" xlink:href="#DejaVuSans-46"/>
       <use transform="translate(95.410156 0.684375)" xlink:href="#DejaVuSans-53"/>
       <use transform="translate(159.033203 0.684375)" xlink:href="#DejaVuSans-215"/>
       <use transform="translate(242.822266 0.684375)" xlink:href="#DejaVuSans-49"/>
       <use transform="translate(306.445312 0.684375)" xlink:href="#DejaVuSans-48"/>
       <use transform="translate(371.025391 38.965625)scale(0.7)" xlink:href="#DejaVuSans-8722"/>
       <use transform="translate(429.677734 38.965625)scale(0.7)" xlink:href="#DejaVuSans-53"/>
      </g>
     </g>
    </g>
    <g id="ytick_2">
     <g id="line2d_4">
      <path clip-path="url(#pec908cd4c4)" d="M 86.603664 66.270677 
L 645.165354 66.270677 
" style="fill:none;stroke:#000000;stroke-linecap:square;stroke-opacity:0.1;stroke-width:0.5;"/>
     </g>
     <g id="line2d_5">
      <g>
       <use style="stroke:#000000;stroke-width:0.5;" x="86.603664" xlink:href="#mc4341a3c2b" y="66.270677"/>
      </g>
     </g>
     <g id="line2d_6">
      <g>
       <use style="stroke:#000000;stroke-width:0.5;" x="645.165354" xlink:href="#m28babf9d01" y="66.270677"/>
      </g>
     </g>
     <g id="text_2">
      <!-- $\mathregular{3.0×10^{-5}}$ -->
      <g transform="translate(25.863664 70.829739)scale(0.12 -0.12)">
       <defs>
        <path d="M 40.578125 39.3125 
Q 47.65625 37.796875 51.625 33 
Q 55.609375 28.21875 55.609375 21.1875 
Q 55.609375 10.40625 48.1875 4.484375 
Q 40.765625 -1.421875 27.09375 -1.421875 
Q 22.515625 -1.421875 17.65625 -0.515625 
Q 12.796875 0.390625 7.625 2.203125 
L 7.625 11.71875 
Q 11.71875 9.328125 16.59375 8.109375 
Q 21.484375 6.890625 26.8125 6.890625 
Q 36.078125 6.890625 40.9375 10.546875 
Q 45.796875 14.203125 45.796875 21.1875 
Q 45.796875 27.640625 41.28125 31.265625 
Q 36.765625 34.90625 28.71875 34.90625 
L 20.21875 34.90625 
L 20.21875 43.015625 
L 29.109375 43.015625 
Q 36.375 43.015625 40.234375 45.921875 
Q 44.09375 48.828125 44.09375 54.296875 
Q 44.09375 59.90625 40.109375 62.90625 
Q 36.140625 65.921875 28.71875 65.921875 
Q 24.65625 65.921875 20.015625 65.03125 
Q 15.375 64.15625 9.8125 62.3125 
L 9.8125 71.09375 
Q 15.4375 72.65625 20.34375 73.4375 
Q 25.25 74.21875 29.59375 74.21875 
Q 40.828125 74.21875 47.359375 69.109375 
Q 53.90625 64.015625 53.90625 55.328125 
Q 53.90625 49.265625 50.4375 45.09375 
Q 46.96875 40.921875 40.578125 39.3125 
z
" id="DejaVuSans-51"/>
       </defs>
       <use transform="translate(0 0.684375)" xlink:href="#DejaVuSans-51"/>
       <use transform="translate(63.623047 0.684375)" xlink:href="#DejaVuSans-46"/>
       <use transform="translate(95.410156 0.684375)" xlink:href="#DejaVuSans-48"/>
       <use transform="translate(159.033203 0.684375)" xlink:href="#DejaVuSans-215"/>
       <use transform="translate(242.822266 0.684375)" xlink:href="#DejaVuSans-49"/>
       <use transform="translate(306.445312 0.684375)" xlink:href="#DejaVuSans-48"/>
       <use transform="translate(371.025391 38.965625)scale(0.7)" xlink:href="#DejaVuSans-8722"/>
       <use transform="translate(429.677734 38.965625)scale(0.7)" xlink:href="#DejaVuSans-53"/>
      </g>
     </g>
    </g>
    <g id="ytick_3">
     <g id="line2d_7">
      <path clip-path="url(#pec908cd4c4)" d="M 86.603664 54.09386 
L 645.165354 54.09386 
" style="fill:none;stroke:#000000;stroke-linecap:square;stroke-opacity:0.1;stroke-width:0.5;"/>
     </g>
     <g id="line2d_8">
      <g>
       <use style="stroke:#000000;stroke-width:0.5;" x="86.603664" xlink:href="#mc4341a3c2b" y="54.09386"/>
      </g>
     </g>
     <g id="line2d_9">
      <g>
       <use style="stroke:#000000;stroke-width:0.5;" x="645.165354" xlink:href="#m28babf9d01" y="54.09386"/>
      </g>
     </g>
     <g id="text_3">
      <!-- $\mathregular{3.5×10^{-5}}$ -->
      <g transform="translate(25.863664 58.652923)scale(0.12 -0.12)">
       <use transform="translate(0 0.684375)" xlink:href="#DejaVuSans-51"/>
       <use transform="translate(63.623047 0.684375)" xlink:href="#DejaVuSans-46"/>
       <use transform="translate(95.410156 0.684375)" xlink:href="#DejaVuSans-53"/>
       <use transform="translate(159.033203 0.684375)" xlink:href="#DejaVuSans-215"/>
       <use transform="translate(242.822266 0.684375)" xlink:href="#DejaVuSans-49"/>
       <use transform="translate(306.445312 0.684375)" xlink:href="#DejaVuSans-48"/>
       <use transform="translate(371.025391 38.965625)scale(0.7)" xlink:href="#DejaVuSans-8722"/>
       <use transform="translate(429.677734 38.965625)scale(0.7)" xlink:href="#DejaVuSans-53"/>
      </g>
     </g>
    </g>
    <g id="ytick_4">
     <g id="line2d_10">
      <path clip-path="url(#pec908cd4c4)" d="M 86.603664 41.917044 
L 645.165354 41.917044 
" style="fill:none;stroke:#000000;stroke-linecap:square;stroke-opacity:0.1;stroke-width:0.5;"/>
     </g>
     <g id="line2d_11">
      <g>
       <use style="stroke:#000000;stroke-width:0.5;" x="86.603664" xlink:href="#mc4341a3c2b" y="41.917044"/>
      </g>
     </g>
     <g id="line2d_12">
      <g>
       <use style="stroke:#000000;stroke-width:0.5;" x="645.165354" xlink:href="#m28babf9d01" y="41.917044"/>
      </g>
     </g>
     <g id="text_4">
      <!-- $\mathregular{4.0×10^{-5}}$ -->
      <g transform="translate(25.863664 46.476106)scale(0.12 -0.12)">
       <defs>
        <path d="M 37.796875 64.3125 
L 12.890625 25.390625 
L 37.796875 25.390625 
z
M 35.203125 72.90625 
L 47.609375 72.90625 
L 47.609375 25.390625 
L 58.015625 25.390625 
L 58.015625 17.1875 
L 47.609375 17.1875 
L 47.609375 0 
L 37.796875 0 
L 37.796875 17.1875 
L 4.890625 17.1875 
L 4.890625 26.703125 
z
" id="DejaVuSans-52"/>
       </defs>
       <use transform="translate(0 0.684375)" xlink:href="#DejaVuSans-52"/>
       <use transform="translate(63.623047 0.684375)" xlink:href="#DejaVuSans-46"/>
       <use transform="translate(95.410156 0.684375)" xlink:href="#DejaVuSans-48"/>
       <use transform="translate(159.033203 0.684375)" xlink:href="#DejaVuSans-215"/>
       <use transform="translate(242.822266 0.684375)" xlink:href="#DejaVuSans-49"/>
       <use transform="translate(306.445312 0.684375)" xlink:href="#DejaVuSans-48"/>
       <use transform="translate(371.025391 38.965625)scale(0.7)" xlink:href="#DejaVuSans-8722"/>
       <use transform="translate(429.677734 38.965625)scale(0.7)" xlink:href="#DejaVuSans-53"/>
      </g>
     </g>
    </g>
    <g id="ytick_5">
     <g id="line2d_13">
      <path clip-path="url(#pec908cd4c4)" d="M 86.603664 29.740227 
L 645.165354 29.740227 
" style="fill:none;stroke:#000000;stroke-linecap:square;stroke-opacity:0.1;stroke-width:0.5;"/>
     </g>
     <g id="line2d_14">
      <g>
       <use style="stroke:#000000;stroke-width:0.5;" x="86.603664" xlink:href="#mc4341a3c2b" y="29.740227"/>
      </g>
     </g>
     <g id="line2d_15">
      <g>
       <use style="stroke:#000000;stroke-width:0.5;" x="645.165354" xlink:href="#m28babf9d01" y="29.740227"/>
      </g>
     </g>
     <g id="text_5">
      <!-- $\mathregular{4.5×10^{-5}}$ -->
      <g transform="translate(25.863664 34.29929)scale(0.12 -0.12)">
       <use transform="translate(0 0.684375)" xlink:href="#DejaVuSans-52"/>
       <use transform="translate(63.623047 0.684375)" xlink:href="#DejaVuSans-46"/>
       <use transform="translate(95.410156 0.684375)" xlink:href="#DejaVuSans-53"/>
       <use transform="translate(159.033203 0.684375)" xlink:href="#DejaVuSans-215"/>
       <use transform="translate(242.822266 0.684375)" xlink:href="#DejaVuSans-49"/>
       <use transform="translate(306.445312 0.684375)" xlink:href="#DejaVuSans-48"/>
       <use transform="translate(371.025391 38.965625)scale(0.7)" xlink:href="#DejaVuSans-8722"/>
       <use transform="translate(429.677734 38.965625)scale(0.7)" xlink:href="#DejaVuSans-53"/>
      </g>
     </g>
    </g>
    <g id="ytick_6">
     <g id="line2d_16">
      <path clip-path="url(#pec908cd4c4)" d="M 86.603664 17.563411 
L 645.165354 17.563411 
" style="fill:none;stroke:#000000;stroke-linecap:square;stroke-opacity:0.1;stroke-width:0.5;"/>
     </g>
     <g id="line2d_17">
      <g>
       <use style="stroke:#000000;stroke-width:0.5;" x="86.603664" xlink:href="#mc4341a3c2b" y="17.563411"/>
      </g>
     </g>
     <g id="line2d_18">
      <g>
       <use style="stroke:#000000;stroke-width:0.5;" x="645.165354" xlink:href="#m28babf9d01" y="17.563411"/>
      </g>
     </g>
     <g id="text_6">
      <!-- $\mathregular{5.0×10^{-5}}$ -->
      <g transform="translate(25.863664 22.122474)scale(0.12 -0.12)">
       <use transform="translate(0 0.684375)" xlink:href="#DejaVuSans-53"/>
       <use transform="translate(63.623047 0.684375)" xlink:href="#DejaVuSans-46"/>
       <use transform="translate(95.410156 0.684375)" xlink:href="#DejaVuSans-48"/>
       <use transform="translate(159.033203 0.684375)" xlink:href="#DejaVuSans-215"/>
       <use transform="translate(242.822266 0.684375)" xlink:href="#DejaVuSans-49"/>
       <use transform="translate(306.445312 0.684375)" xlink:href="#DejaVuSans-48"/>
       <use transform="translate(371.025391 38.965625)scale(0.7)" xlink:href="#DejaVuSans-8722"/>
       <use transform="translate(429.677734 38.965625)scale(0.7)" xlink:href="#DejaVuSans-53"/>
      </g>
     </g>
    </g>
    <g id="ytick_7">
     <g id="line2d_19">
      <path clip-path="url(#pec908cd4c4)" d="M 86.603664 5.386595 
L 645.165354 5.386595 
" style="fill:none;stroke:#000000;stroke-linecap:square;stroke-opacity:0.1;stroke-width:0.5;"/>
     </g>
     <g id="line2d_20">
      <g>
       <use style="stroke:#000000;stroke-width:0.5;" x="86.603664" xlink:href="#mc4341a3c2b" y="5.386595"/>
      </g>
     </g>
     <g id="line2d_21">
      <g>
       <use style="stroke:#000000;stroke-width:0.5;" x="645.165354" xlink:href="#m28babf9d01" y="5.386595"/>
      </g>
     </g>
     <g id="text_7">
      <!-- $\mathregular{5.5×10^{-5}}$ -->
      <g transform="translate(25.863664 9.945657)scale(0.12 -0.12)">
       <use transform="translate(0 0.684375)" xlink:href="#DejaVuSans-53"/>
       <use transform="translate(63.623047 0.684375)" xlink:href="#DejaVuSans-46"/>
       <use transform="translate(95.410156 0.684375)" xlink:href="#DejaVuSans-53"/>
       <use transform="translate(159.033203 0.684375)" xlink:href="#DejaVuSans-215"/>
       <use transform="translate(242.822266 0.684375)" xlink:href="#DejaVuSans-49"/>
       <use transform="translate(306.445312 0.684375)" xlink:href="#DejaVuSans-48"/>
       <use transform="translate(371.025391 38.965625)scale(0.7)" xlink:href="#DejaVuSans-8722"/>
       <use transform="translate(429.677734 38.965625)scale(0.7)" xlink:href="#DejaVuSans-53"/>
      </g>
     </g>
    </g>
    <g id="text_8">
     <!-- $Y_{CH_4}$ -->
     <g transform="translate(17.383664 57.45208)rotate(-90)scale(0.16 -0.16)">
      <defs>
       <path d="M 6.296875 72.90625 
L 16.890625 72.90625 
L 30.515625 42.921875 
L 56.5 72.90625 
L 67.578125 72.90625 
L 34.515625 34.71875 
L 27.78125 0 
L 17.921875 0 
L 24.609375 34.71875 
z
" id="DejaVuSans-Oblique-89"/>
       <path d="M 69.484375 67.28125 
L 67.484375 56.890625 
Q 62.796875 61.625 57.546875 63.921875 
Q 52.296875 66.21875 46.1875 66.21875 
Q 37.84375 66.21875 31.515625 62.203125 
Q 25.203125 58.203125 20.609375 50 
Q 17.671875 44.734375 16.125 38.84375 
Q 14.59375 32.953125 14.59375 27 
Q 14.59375 17.046875 19.75 11.8125 
Q 24.90625 6.59375 34.71875 6.59375 
Q 41.5 6.59375 47.75 8.765625 
Q 54 10.9375 59.90625 15.28125 
L 57.625 3.609375 
Q 51.8125 1.125 45.875 -0.140625 
Q 39.9375 -1.421875 33.984375 -1.421875 
Q 19.96875 -1.421875 12.078125 6.1875 
Q 4.203125 13.8125 4.203125 27.390625 
Q 4.203125 36.078125 7.203125 44.46875 
Q 10.203125 52.875 15.828125 59.8125 
Q 21.78125 67.1875 29.421875 70.703125 
Q 37.0625 74.21875 47.21875 74.21875 
Q 53.46875 74.21875 59.0625 72.484375 
Q 64.65625 70.75 69.484375 67.28125 
z
" id="DejaVuSans-Oblique-67"/>
       <path d="M 16.890625 72.90625 
L 26.8125 72.90625 
L 21 43.015625 
L 56.78125 43.015625 
L 62.59375 72.90625 
L 72.515625 72.90625 
L 58.296875 0 
L 48.390625 0 
L 55.171875 34.71875 
L 19.390625 34.71875 
L 12.59375 0 
L 2.6875 0 
z
" id="DejaVuSans-Oblique-72"/>
      </defs>
      <use transform="translate(0 0.09375)" xlink:href="#DejaVuSans-Oblique-89"/>
      <use transform="translate(61.083984 -16.3125)scale(0.7)" xlink:href="#DejaVuSans-Oblique-67"/>
      <use transform="translate(109.960938 -16.3125)scale(0.7)" xlink:href="#DejaVuSans-Oblique-72"/>
      <use transform="translate(162.597656 -27.796875)scale(0.49)" xlink:href="#DejaVuSans-52"/>
     </g>
    </g>
   </g>
   <g id="PathCollection_1">
    <defs>
     <path d="M 0 2 
C 0.530406 2 1.03916 1.789267 1.414214 1.414214 
C 1.789267 1.03916 2 0.530406 2 0 
C 2 -0.530406 1.789267 -1.03916 1.414214 -1.414214 
C 1.03916 -1.789267 0.530406 -2 0 -2 
C -0.530406 -2 -1.03916 -1.789267 -1.414214 -1.414214 
C -1.789267 -1.03916 -2 -0.530406 -2 0 
C -2 0.530406 -1.789267 1.03916 -1.414214 1.414214 
C -1.03916 1.789267 -0.530406 2 0 2 
z
" id="m6944c5d36e"/>
    </defs>
    <g clip-path="url(#pec908cd4c4)">
     <use x="102.412014" xlink:href="#m6944c5d36e" y="30.812543"/>
     <use x="107.73469" xlink:href="#m6944c5d36e" y="29.727533"/>
     <use x="113.057367" xlink:href="#m6944c5d36e" y="28.626372"/>
     <use x="118.380044" xlink:href="#m6944c5d36e" y="27.12298"/>
     <use x="123.70272" xlink:href="#m6944c5d36e" y="26.809628"/>
     <use x="129.025397" xlink:href="#m6944c5d36e" y="28.524822"/>
     <use x="134.348074" xlink:href="#m6944c5d36e" y="30.837171"/>
     <use x="139.67075" xlink:href="#m6944c5d36e" y="32.466554"/>
     <use x="144.993427" xlink:href="#m6944c5d36e" y="30.991236"/>
     <use x="150.316104" xlink:href="#m6944c5d36e" y="28.506688"/>
     <use x="155.63878" xlink:href="#m6944c5d36e" y="25.184191"/>
     <use x="160.961457" xlink:href="#m6944c5d36e" y="25.106635"/>
     <use x="166.284134" xlink:href="#m6944c5d36e" y="26.77846"/>
     <use x="171.60681" xlink:href="#m6944c5d36e" y="31.501992"/>
     <use x="176.929487" xlink:href="#m6944c5d36e" y="34.84573"/>
     <use x="182.252164" xlink:href="#m6944c5d36e" y="33.331126"/>
     <use x="187.57484" xlink:href="#m6944c5d36e" y="28.905958"/>
     <use x="192.897517" xlink:href="#m6944c5d36e" y="23.399831"/>
     <use x="198.220194" xlink:href="#m6944c5d36e" y="19.722364"/>
     <use x="203.54287" xlink:href="#m6944c5d36e" y="22.9673"/>
     <use x="208.865547" xlink:href="#m6944c5d36e" y="31.056415"/>
     <use x="214.188224" xlink:href="#m6944c5d36e" y="37.506546"/>
     <use x="219.5109" xlink:href="#m6944c5d36e" y="38.442249"/>
     <use x="224.833577" xlink:href="#m6944c5d36e" y="30.289568"/>
     <use x="230.156254" xlink:href="#m6944c5d36e" y="19.339267"/>
     <use x="235.47893" xlink:href="#m6944c5d36e" y="12.98863"/>
     <use x="240.801607" xlink:href="#m6944c5d36e" y="15.128374"/>
     <use x="246.124284" xlink:href="#m6944c5d36e" y="28.114759"/>
     <use x="251.446961" xlink:href="#m6944c5d36e" y="42.946378"/>
     <use x="256.769637" xlink:href="#m6944c5d36e" y="45.688352"/>
     <use x="262.092314" xlink:href="#m6944c5d36e" y="35.023746"/>
     <use x="267.414991" xlink:href="#m6944c5d36e" y="17.76042"/>
     <use x="272.737667" xlink:href="#m6944c5d36e" y="5.025066"/>
     <use x="278.060344" xlink:href="#m6944c5d36e" y="7.473652"/>
     <use x="283.383021" xlink:href="#m6944c5d36e" y="31.912146"/>
     <use x="288.705697" xlink:href="#m6944c5d36e" y="57.615551"/>
     <use x="294.028374" xlink:href="#m6944c5d36e" y="58.309303"/>
     <use x="299.351051" xlink:href="#m6944c5d36e" y="43.901707"/>
     <use x="304.673727" xlink:href="#m6944c5d36e" y="26.48457"/>
     <use x="309.996404" xlink:href="#m6944c5d36e" y="16.345527"/>
     <use x="315.319081" xlink:href="#m6944c5d36e" y="27.438848"/>
     <use x="320.641757" xlink:href="#m6944c5d36e" y="53.063985"/>
     <use x="325.964434" xlink:href="#m6944c5d36e" y="63.563209"/>
     <use x="331.287111" xlink:href="#m6944c5d36e" y="56.854658"/>
     <use x="336.609787" xlink:href="#m6944c5d36e" y="45.055884"/>
     <use x="341.932464" xlink:href="#m6944c5d36e" y="39.198672"/>
     <use x="347.255141" xlink:href="#m6944c5d36e" y="42.711535"/>
     <use x="352.577817" xlink:href="#m6944c5d36e" y="55.108092"/>
     <use x="357.900494" xlink:href="#m6944c5d36e" y="62.365988"/>
     <use x="363.223171" xlink:href="#m6944c5d36e" y="60.098641"/>
     <use x="368.545847" xlink:href="#m6944c5d36e" y="55.872281"/>
     <use x="373.868524" xlink:href="#m6944c5d36e" y="54.483062"/>
     <use x="379.191201" xlink:href="#m6944c5d36e" y="56.861631"/>
     <use x="384.513877" xlink:href="#m6944c5d36e" y="61.271229"/>
     <use x="389.836554" xlink:href="#m6944c5d36e" y="62.930479"/>
     <use x="395.159231" xlink:href="#m6944c5d36e" y="63.590628"/>
     <use x="400.481907" xlink:href="#m6944c5d36e" y="62.953105"/>
     <use x="405.804584" xlink:href="#m6944c5d36e" y="63.970891"/>
     <use x="411.127261" xlink:href="#m6944c5d36e" y="64.840805"/>
     <use x="416.449938" xlink:href="#m6944c5d36e" y="66.591721"/>
     <use x="421.772614" xlink:href="#m6944c5d36e" y="68.001467"/>
     <use x="427.095291" xlink:href="#m6944c5d36e" y="68.773715"/>
     <use x="432.417968" xlink:href="#m6944c5d36e" y="68.995871"/>
     <use x="437.740644" xlink:href="#m6944c5d36e" y="70.23439"/>
     <use x="443.063321" xlink:href="#m6944c5d36e" y="71.400251"/>
     <use x="448.385998" xlink:href="#m6944c5d36e" y="71.34417"/>
     <use x="453.708674" xlink:href="#m6944c5d36e" y="72.89975"/>
     <use x="459.031351" xlink:href="#m6944c5d36e" y="72.585572"/>
     <use x="464.354028" xlink:href="#m6944c5d36e" y="73.858886"/>
     <use x="469.676704" xlink:href="#m6944c5d36e" y="74.375171"/>
     <use x="474.999381" xlink:href="#m6944c5d36e" y="75.218285"/>
     <use x="480.322058" xlink:href="#m6944c5d36e" y="75.089715"/>
     <use x="485.644734" xlink:href="#m6944c5d36e" y="75.772355"/>
     <use x="490.967411" xlink:href="#m6944c5d36e" y="75.762633"/>
     <use x="496.290088" xlink:href="#m6944c5d36e" y="75.482584"/>
     <use x="501.612764" xlink:href="#m6944c5d36e" y="75.539027"/>
     <use x="506.935441" xlink:href="#m6944c5d36e" y="76.083608"/>
     <use x="512.258118" xlink:href="#m6944c5d36e" y="75.776425"/>
     <use x="517.580794" xlink:href="#m6944c5d36e" y="76.225754"/>
     <use x="522.903471" xlink:href="#m6944c5d36e" y="76.477442"/>
     <use x="528.226148" xlink:href="#m6944c5d36e" y="76.127408"/>
     <use x="533.548824" xlink:href="#m6944c5d36e" y="77.068615"/>
     <use x="538.871501" xlink:href="#m6944c5d36e" y="75.891542"/>
     <use x="544.194178" xlink:href="#m6944c5d36e" y="76.085003"/>
     <use x="549.516854" xlink:href="#m6944c5d36e" y="76.974852"/>
     <use x="554.839531" xlink:href="#m6944c5d36e" y="76.617087"/>
     <use x="560.162208" xlink:href="#m6944c5d36e" y="76.685272"/>
     <use x="565.484884" xlink:href="#m6944c5d36e" y="76.880587"/>
     <use x="570.807561" xlink:href="#m6944c5d36e" y="77.288176"/>
     <use x="576.130238" xlink:href="#m6944c5d36e" y="76.5824"/>
     <use x="581.452915" xlink:href="#m6944c5d36e" y="77.029551"/>
     <use x="586.775591" xlink:href="#m6944c5d36e" y="77.646003"/>
     <use x="592.098268" xlink:href="#m6944c5d36e" y="76.472561"/>
     <use x="597.420945" xlink:href="#m6944c5d36e" y="77.902777"/>
     <use x="602.743621" xlink:href="#m6944c5d36e" y="76.88274"/>
     <use x="608.066298" xlink:href="#m6944c5d36e" y="77.26923"/>
     <use x="613.388975" xlink:href="#m6944c5d36e" y="77.677738"/>
     <use x="618.711651" xlink:href="#m6944c5d36e" y="78.039093"/>
     <use x="624.034328" xlink:href="#m6944c5d36e" y="77.15918"/>
     <use x="629.357005" xlink:href="#m6944c5d36e" y="76.919959"/>
    </g>
   </g>
   <g id="line2d_22">
    <path clip-path="url(#pec908cd4c4)" d="M 102.412014 30.655577 
L 107.73469 29.998702 
L 113.057367 28.81544 
L 118.380044 27.877922 
L 123.70272 27.930547 
L 129.025397 29.112921 
L 134.348074 30.69852 
L 139.67075 31.491747 
L 144.993427 30.740362 
L 150.316104 28.758881 
L 155.63878 26.797512 
L 160.961457 26.339359 
L 166.284134 28.066791 
L 171.60681 31.05892 
L 176.929487 33.127584 
L 182.252164 32.50908 
L 187.57484 29.32191 
L 192.897517 25.48501 
L 198.220194 23.710928 
L 203.54287 25.902234 
L 208.865547 31.260927 
L 214.188224 35.931137 
L 219.5109 36.055644 
L 224.833577 31.21798 
L 230.156254 24.292617 
L 235.47893 19.827662 
L 240.801607 21.996962 
L 246.124284 31.044669 
L 251.446961 40.514999 
L 256.769637 42.350288 
L 262.092314 35.450807 
L 267.414991 24.42236 
L 272.737667 16.234864 
L 278.060344 18.225854 
L 283.383021 32.496392 
L 288.705697 48.260703 
L 294.028374 51.0881 
L 299.351051 41.6649 
L 304.673727 28.22286 
L 309.996404 20.26067 
L 315.319081 26.472134 
L 320.641757 45.408719 
L 325.964434 58.624838 
L 331.287111 56.243822 
L 336.609787 46.62649 
L 341.932464 39.58035 
L 347.255141 42.089885 
L 352.577817 52.895519 
L 357.900494 61.062372 
L 363.223171 61.136 
L 368.545847 57.839449 
L 373.868524 56.597219 
L 379.191201 59.074535 
L 384.513877 62.797181 
L 389.836554 64.859085 
L 395.159231 65.231083 
L 400.481907 65.417989 
L 405.804584 66.257009 
L 411.127261 67.479076 
L 416.449938 68.528467 
L 421.772614 69.252183 
L 427.095291 69.828666 
L 432.417968 70.415735 
L 437.740644 71.01751 
L 443.063321 71.57775 
L 448.385998 72.070355 
L 453.708674 72.508495 
L 459.031351 72.911999 
L 464.354028 73.288799 
L 469.676704 73.637841 
L 474.999381 73.95802 
L 480.322058 74.251498 
L 485.644734 74.521511 
L 490.967411 74.77143 
L 496.290088 75.003182 
L 501.612764 75.217663 
L 506.935441 75.416495 
L 512.258118 75.601041 
L 517.580794 75.772693 
L 522.903471 75.932442 
L 528.226148 76.081468 
L 533.548824 76.220549 
L 538.871501 76.350581 
L 544.194178 76.472125 
L 549.516854 76.586062 
L 554.839531 76.692772 
L 560.162208 76.793007 
L 565.484884 76.887047 
L 570.807561 76.975452 
L 576.130238 77.058604 
L 581.452915 77.136742 
L 586.775591 77.210365 
L 592.098268 77.279633 
L 597.420945 77.344855 
L 602.743621 77.406324 
L 608.066298 77.464136 
L 613.388975 77.518585 
L 618.711651 77.569879 
L 624.034328 77.618088 
L 629.357005 77.663422 
" style="fill:none;stroke:#ff0000;"/>
   </g>
   <g id="patch_3">
    <path d="M 86.603664 80.229514 
L 86.603664 2.834646 
" style="fill:none;stroke:#000000;stroke-linecap:square;stroke-linejoin:miter;"/>
   </g>
   <g id="patch_4">
    <path d="M 645.165354 80.229514 
L 645.165354 2.834646 
" style="fill:none;stroke:#000000;stroke-linecap:square;stroke-linejoin:miter;"/>
   </g>
   <g id="patch_5">
    <path d="M 86.603664 80.229514 
L 645.165354 80.229514 
" style="fill:none;stroke:#000000;stroke-linecap:square;stroke-linejoin:miter;"/>
   </g>
   <g id="patch_6">
    <path d="M 86.603664 2.834646 
L 645.165354 2.834646 
" style="fill:none;stroke:#000000;stroke-linecap:square;stroke-linejoin:miter;"/>
   </g>
  </g>
  <g id="axes_2">
   <g id="patch_7">
    <path d="M 86.603664 165.338458 
L 645.165354 165.338458 
L 645.165354 87.94359 
L 86.603664 87.94359 
z
" style="fill:#ffffff;"/>
   </g>
   <g id="matplotlib.axis_3">
    <g id="xtick_7"/>
    <g id="xtick_8"/>
    <g id="xtick_9"/>
    <g id="xtick_10"/>
    <g id="xtick_11"/>
    <g id="xtick_12"/>
   </g>
   <g id="matplotlib.axis_4">
    <g id="ytick_8">
     <g id="line2d_23">
      <path clip-path="url(#pd9b8706a2a)" d="M 86.603664 163.721426 
L 645.165354 163.721426 
" style="fill:none;stroke:#000000;stroke-linecap:square;stroke-opacity:0.1;stroke-width:0.5;"/>
     </g>
     <g id="line2d_24">
      <g>
       <use style="stroke:#000000;stroke-width:0.5;" x="86.603664" xlink:href="#mc4341a3c2b" y="163.721426"/>
      </g>
     </g>
     <g id="line2d_25">
      <g>
       <use style="stroke:#000000;stroke-width:0.5;" x="645.165354" xlink:href="#m28babf9d01" y="163.721426"/>
      </g>
     </g>
     <g id="text_9">
      <!-- $\mathregular{0.00115}$ -->
      <g transform="translate(33.423664 168.280488)scale(0.12 -0.12)">
       <use transform="translate(0 0.78125)" xlink:href="#DejaVuSans-48"/>
       <use transform="translate(63.623047 0.78125)" xlink:href="#DejaVuSans-46"/>
       <use transform="translate(95.410156 0.78125)" xlink:href="#DejaVuSans-48"/>
       <use transform="translate(159.033203 0.78125)" xlink:href="#DejaVuSans-48"/>
       <use transform="translate(222.65625 0.78125)" xlink:href="#DejaVuSans-49"/>
       <use transform="translate(286.279297 0.78125)" xlink:href="#DejaVuSans-49"/>
       <use transform="translate(349.902344 0.78125)" xlink:href="#DejaVuSans-53"/>
      </g>
     </g>
    </g>
    <g id="ytick_9">
     <g id="line2d_26">
      <path clip-path="url(#pd9b8706a2a)" d="M 86.603664 151.7962 
L 645.165354 151.7962 
" style="fill:none;stroke:#000000;stroke-linecap:square;stroke-opacity:0.1;stroke-width:0.5;"/>
     </g>
     <g id="line2d_27">
      <g>
       <use style="stroke:#000000;stroke-width:0.5;" x="86.603664" xlink:href="#mc4341a3c2b" y="151.7962"/>
      </g>
     </g>
     <g id="line2d_28">
      <g>
       <use style="stroke:#000000;stroke-width:0.5;" x="645.165354" xlink:href="#m28babf9d01" y="151.7962"/>
      </g>
     </g>
     <g id="text_10">
      <!-- $\mathregular{0.00120}$ -->
      <g transform="translate(33.423664 156.355262)scale(0.12 -0.12)">
       <use transform="translate(0 0.78125)" xlink:href="#DejaVuSans-48"/>
       <use transform="translate(63.623047 0.78125)" xlink:href="#DejaVuSans-46"/>
       <use transform="translate(95.410156 0.78125)" xlink:href="#DejaVuSans-48"/>
       <use transform="translate(159.033203 0.78125)" xlink:href="#DejaVuSans-48"/>
       <use transform="translate(222.65625 0.78125)" xlink:href="#DejaVuSans-49"/>
       <use transform="translate(286.279297 0.78125)" xlink:href="#DejaVuSans-50"/>
       <use transform="translate(349.902344 0.78125)" xlink:href="#DejaVuSans-48"/>
      </g>
     </g>
    </g>
    <g id="ytick_10">
     <g id="line2d_29">
      <path clip-path="url(#pd9b8706a2a)" d="M 86.603664 139.870974 
L 645.165354 139.870974 
" style="fill:none;stroke:#000000;stroke-linecap:square;stroke-opacity:0.1;stroke-width:0.5;"/>
     </g>
     <g id="line2d_30">
      <g>
       <use style="stroke:#000000;stroke-width:0.5;" x="86.603664" xlink:href="#mc4341a3c2b" y="139.870974"/>
      </g>
     </g>
     <g id="line2d_31">
      <g>
       <use style="stroke:#000000;stroke-width:0.5;" x="645.165354" xlink:href="#m28babf9d01" y="139.870974"/>
      </g>
     </g>
     <g id="text_11">
      <!-- $\mathregular{0.00125}$ -->
      <g transform="translate(33.423664 144.430036)scale(0.12 -0.12)">
       <use transform="translate(0 0.78125)" xlink:href="#DejaVuSans-48"/>
       <use transform="translate(63.623047 0.78125)" xlink:href="#DejaVuSans-46"/>
       <use transform="translate(95.410156 0.78125)" xlink:href="#DejaVuSans-48"/>
       <use transform="translate(159.033203 0.78125)" xlink:href="#DejaVuSans-48"/>
       <use transform="translate(222.65625 0.78125)" xlink:href="#DejaVuSans-49"/>
       <use transform="translate(286.279297 0.78125)" xlink:href="#DejaVuSans-50"/>
       <use transform="translate(349.902344 0.78125)" xlink:href="#DejaVuSans-53"/>
      </g>
     </g>
    </g>
    <g id="ytick_11">
     <g id="line2d_32">
      <path clip-path="url(#pd9b8706a2a)" d="M 86.603664 127.945747 
L 645.165354 127.945747 
" style="fill:none;stroke:#000000;stroke-linecap:square;stroke-opacity:0.1;stroke-width:0.5;"/>
     </g>
     <g id="line2d_33">
      <g>
       <use style="stroke:#000000;stroke-width:0.5;" x="86.603664" xlink:href="#mc4341a3c2b" y="127.945747"/>
      </g>
     </g>
     <g id="line2d_34">
      <g>
       <use style="stroke:#000000;stroke-width:0.5;" x="645.165354" xlink:href="#m28babf9d01" y="127.945747"/>
      </g>
     </g>
     <g id="text_12">
      <!-- $\mathregular{0.00130}$ -->
      <g transform="translate(33.423664 132.50481)scale(0.12 -0.12)">
       <use transform="translate(0 0.78125)" xlink:href="#DejaVuSans-48"/>
       <use transform="translate(63.623047 0.78125)" xlink:href="#DejaVuSans-46"/>
       <use transform="translate(95.410156 0.78125)" xlink:href="#DejaVuSans-48"/>
       <use transform="translate(159.033203 0.78125)" xlink:href="#DejaVuSans-48"/>
       <use transform="translate(222.65625 0.78125)" xlink:href="#DejaVuSans-49"/>
       <use transform="translate(286.279297 0.78125)" xlink:href="#DejaVuSans-51"/>
       <use transform="translate(349.902344 0.78125)" xlink:href="#DejaVuSans-48"/>
      </g>
     </g>
    </g>
    <g id="ytick_12">
     <g id="line2d_35">
      <path clip-path="url(#pd9b8706a2a)" d="M 86.603664 116.020521 
L 645.165354 116.020521 
" style="fill:none;stroke:#000000;stroke-linecap:square;stroke-opacity:0.1;stroke-width:0.5;"/>
     </g>
     <g id="line2d_36">
      <g>
       <use style="stroke:#000000;stroke-width:0.5;" x="86.603664" xlink:href="#mc4341a3c2b" y="116.020521"/>
      </g>
     </g>
     <g id="line2d_37">
      <g>
       <use style="stroke:#000000;stroke-width:0.5;" x="645.165354" xlink:href="#m28babf9d01" y="116.020521"/>
      </g>
     </g>
     <g id="text_13">
      <!-- $\mathregular{0.00135}$ -->
      <g transform="translate(33.423664 120.579584)scale(0.12 -0.12)">
       <use transform="translate(0 0.78125)" xlink:href="#DejaVuSans-48"/>
       <use transform="translate(63.623047 0.78125)" xlink:href="#DejaVuSans-46"/>
       <use transform="translate(95.410156 0.78125)" xlink:href="#DejaVuSans-48"/>
       <use transform="translate(159.033203 0.78125)" xlink:href="#DejaVuSans-48"/>
       <use transform="translate(222.65625 0.78125)" xlink:href="#DejaVuSans-49"/>
       <use transform="translate(286.279297 0.78125)" xlink:href="#DejaVuSans-51"/>
       <use transform="translate(349.902344 0.78125)" xlink:href="#DejaVuSans-53"/>
      </g>
     </g>
    </g>
    <g id="ytick_13">
     <g id="line2d_38">
      <path clip-path="url(#pd9b8706a2a)" d="M 86.603664 104.095295 
L 645.165354 104.095295 
" style="fill:none;stroke:#000000;stroke-linecap:square;stroke-opacity:0.1;stroke-width:0.5;"/>
     </g>
     <g id="line2d_39">
      <g>
       <use style="stroke:#000000;stroke-width:0.5;" x="86.603664" xlink:href="#mc4341a3c2b" y="104.095295"/>
      </g>
     </g>
     <g id="line2d_40">
      <g>
       <use style="stroke:#000000;stroke-width:0.5;" x="645.165354" xlink:href="#m28babf9d01" y="104.095295"/>
      </g>
     </g>
     <g id="text_14">
      <!-- $\mathregular{0.00140}$ -->
      <g transform="translate(33.423664 108.654358)scale(0.12 -0.12)">
       <use transform="translate(0 0.78125)" xlink:href="#DejaVuSans-48"/>
       <use transform="translate(63.623047 0.78125)" xlink:href="#DejaVuSans-46"/>
       <use transform="translate(95.410156 0.78125)" xlink:href="#DejaVuSans-48"/>
       <use transform="translate(159.033203 0.78125)" xlink:href="#DejaVuSans-48"/>
       <use transform="translate(222.65625 0.78125)" xlink:href="#DejaVuSans-49"/>
       <use transform="translate(286.279297 0.78125)" xlink:href="#DejaVuSans-52"/>
       <use transform="translate(349.902344 0.78125)" xlink:href="#DejaVuSans-48"/>
      </g>
     </g>
    </g>
    <g id="ytick_14">
     <g id="line2d_41">
      <path clip-path="url(#pd9b8706a2a)" d="M 86.603664 92.170069 
L 645.165354 92.170069 
" style="fill:none;stroke:#000000;stroke-linecap:square;stroke-opacity:0.1;stroke-width:0.5;"/>
     </g>
     <g id="line2d_42">
      <g>
       <use style="stroke:#000000;stroke-width:0.5;" x="86.603664" xlink:href="#mc4341a3c2b" y="92.170069"/>
      </g>
     </g>
     <g id="line2d_43">
      <g>
       <use style="stroke:#000000;stroke-width:0.5;" x="645.165354" xlink:href="#m28babf9d01" y="92.170069"/>
      </g>
     </g>
     <g id="text_15">
      <!-- $\mathregular{0.00145}$ -->
      <g transform="translate(33.423664 96.729131)scale(0.12 -0.12)">
       <use transform="translate(0 0.78125)" xlink:href="#DejaVuSans-48"/>
       <use transform="translate(63.623047 0.78125)" xlink:href="#DejaVuSans-46"/>
       <use transform="translate(95.410156 0.78125)" xlink:href="#DejaVuSans-48"/>
       <use transform="translate(159.033203 0.78125)" xlink:href="#DejaVuSans-48"/>
       <use transform="translate(222.65625 0.78125)" xlink:href="#DejaVuSans-49"/>
       <use transform="translate(286.279297 0.78125)" xlink:href="#DejaVuSans-52"/>
       <use transform="translate(349.902344 0.78125)" xlink:href="#DejaVuSans-53"/>
      </g>
     </g>
    </g>
    <g id="text_16">
     <!-- $Y_{CO}$ -->
     <g transform="translate(26.096164 140.081024)rotate(-90)scale(0.16 -0.16)">
      <defs>
       <path d="M 45.609375 66.21875 
Q 37.5 66.21875 31.296875 62.28125 
Q 25.09375 58.34375 20.515625 50.296875 
Q 17.578125 45.171875 16.03125 39.40625 
Q 14.5 33.640625 14.5 27.78125 
Q 14.5 17.625 19.359375 12.109375 
Q 24.21875 6.59375 33.109375 6.59375 
Q 41.109375 6.59375 47.375 10.5625 
Q 53.65625 14.546875 58.109375 22.40625 
Q 61.078125 27.6875 62.640625 33.46875 
Q 64.203125 39.265625 64.203125 45.015625 
Q 64.203125 55.125 59.3125 60.671875 
Q 54.4375 66.21875 45.609375 66.21875 
z
M 32.8125 -1.421875 
Q 19.390625 -1.421875 11.6875 6.53125 
Q 4 14.5 4 28.328125 
Q 4 36.234375 7 44.484375 
Q 10.015625 52.734375 15.28125 59.1875 
Q 21.484375 66.75 29.09375 70.484375 
Q 36.71875 74.21875 45.90625 74.21875 
Q 59.28125 74.21875 66.984375 66.328125 
Q 74.703125 58.453125 74.703125 44.828125 
Q 74.703125 36.421875 71.765625 28.3125 
Q 68.84375 20.21875 63.375 13.625 
Q 57.125 6 49.578125 2.28125 
Q 42.046875 -1.421875 32.8125 -1.421875 
z
" id="DejaVuSans-Oblique-79"/>
      </defs>
      <use transform="translate(0 0.09375)" xlink:href="#DejaVuSans-Oblique-89"/>
      <use transform="translate(61.083984 -16.3125)scale(0.7)" xlink:href="#DejaVuSans-Oblique-67"/>
      <use transform="translate(109.960938 -16.3125)scale(0.7)" xlink:href="#DejaVuSans-Oblique-79"/>
     </g>
    </g>
   </g>
   <g id="PathCollection_2">
    <g clip-path="url(#pd9b8706a2a)">
     <use x="102.412014" xlink:href="#m6944c5d36e" y="108.992717"/>
     <use x="107.73469" xlink:href="#m6944c5d36e" y="109.946946"/>
     <use x="113.057367" xlink:href="#m6944c5d36e" y="109.364879"/>
     <use x="118.380044" xlink:href="#m6944c5d36e" y="106.812472"/>
     <use x="123.70272" xlink:href="#m6944c5d36e" y="106.311707"/>
     <use x="129.025397" xlink:href="#m6944c5d36e" y="106.240797"/>
     <use x="134.348074" xlink:href="#m6944c5d36e" y="108.041873"/>
     <use x="139.67075" xlink:href="#m6944c5d36e" y="108.912884"/>
     <use x="144.993427" xlink:href="#m6944c5d36e" y="109.902717"/>
     <use x="150.316104" xlink:href="#m6944c5d36e" y="110.067798"/>
     <use x="155.63878" xlink:href="#m6944c5d36e" y="106.517873"/>
     <use x="160.961457" xlink:href="#m6944c5d36e" y="104.613381"/>
     <use x="166.284134" xlink:href="#m6944c5d36e" y="103.540583"/>
     <use x="171.60681" xlink:href="#m6944c5d36e" y="105.522337"/>
     <use x="176.929487" xlink:href="#m6944c5d36e" y="109.852488"/>
     <use x="182.252164" xlink:href="#m6944c5d36e" y="112.738637"/>
     <use x="187.57484" xlink:href="#m6944c5d36e" y="110.971432"/>
     <use x="192.897517" xlink:href="#m6944c5d36e" y="108.39178"/>
     <use x="198.220194" xlink:href="#m6944c5d36e" y="103.393523"/>
     <use x="203.54287" xlink:href="#m6944c5d36e" y="100.700299"/>
     <use x="208.865547" xlink:href="#m6944c5d36e" y="103.423362"/>
     <use x="214.188224" xlink:href="#m6944c5d36e" y="109.511413"/>
     <use x="219.5109" xlink:href="#m6944c5d36e" y="114.616547"/>
     <use x="224.833577" xlink:href="#m6944c5d36e" y="115.299736"/>
     <use x="230.156254" xlink:href="#m6944c5d36e" y="109.683658"/>
     <use x="235.47893" xlink:href="#m6944c5d36e" y="101.44518"/>
     <use x="240.801607" xlink:href="#m6944c5d36e" y="94.178982"/>
     <use x="246.124284" xlink:href="#m6944c5d36e" y="94.967628"/>
     <use x="251.446961" xlink:href="#m6944c5d36e" y="105.986289"/>
     <use x="256.769637" xlink:href="#m6944c5d36e" y="119.537694"/>
     <use x="262.092314" xlink:href="#m6944c5d36e" y="122.592891"/>
     <use x="267.414991" xlink:href="#m6944c5d36e" y="114.722759"/>
     <use x="272.737667" xlink:href="#m6944c5d36e" y="101.691889"/>
     <use x="278.060344" xlink:href="#m6944c5d36e" y="90.134011"/>
     <use x="283.383021" xlink:href="#m6944c5d36e" y="91.033203"/>
     <use x="288.705697" xlink:href="#m6944c5d36e" y="113.665953"/>
     <use x="294.028374" xlink:href="#m6944c5d36e" y="133.811619"/>
     <use x="299.351051" xlink:href="#m6944c5d36e" y="135.751105"/>
     <use x="304.673727" xlink:href="#m6944c5d36e" y="124.944099"/>
     <use x="309.996404" xlink:href="#m6944c5d36e" y="110.280488"/>
     <use x="315.319081" xlink:href="#m6944c5d36e" y="102.547658"/>
     <use x="320.641757" xlink:href="#m6944c5d36e" y="110.801955"/>
     <use x="325.964434" xlink:href="#m6944c5d36e" y="131.763608"/>
     <use x="331.287111" xlink:href="#m6944c5d36e" y="141.449605"/>
     <use x="336.609787" xlink:href="#m6944c5d36e" y="136.824083"/>
     <use x="341.932464" xlink:href="#m6944c5d36e" y="127.673797"/>
     <use x="347.255141" xlink:href="#m6944c5d36e" y="123.331784"/>
     <use x="352.577817" xlink:href="#m6944c5d36e" y="126.424748"/>
     <use x="357.900494" xlink:href="#m6944c5d36e" y="136.166083"/>
     <use x="363.223171" xlink:href="#m6944c5d36e" y="142.018338"/>
     <use x="368.545847" xlink:href="#m6944c5d36e" y="140.435516"/>
     <use x="373.868524" xlink:href="#m6944c5d36e" y="137.844096"/>
     <use x="379.191201" xlink:href="#m6944c5d36e" y="137.108203"/>
     <use x="384.513877" xlink:href="#m6944c5d36e" y="139.822909"/>
     <use x="389.836554" xlink:href="#m6944c5d36e" y="143.547918"/>
     <use x="395.159231" xlink:href="#m6944c5d36e" y="145.272624"/>
     <use x="400.481907" xlink:href="#m6944c5d36e" y="145.669"/>
     <use x="405.804584" xlink:href="#m6944c5d36e" y="145.486127"/>
     <use x="411.127261" xlink:href="#m6944c5d36e" y="146.78272"/>
     <use x="416.449938" xlink:href="#m6944c5d36e" y="148.243101"/>
     <use x="421.772614" xlink:href="#m6944c5d36e" y="149.659846"/>
     <use x="427.095291" xlink:href="#m6944c5d36e" y="150.637687"/>
     <use x="432.417968" xlink:href="#m6944c5d36e" y="151.654627"/>
     <use x="437.740644" xlink:href="#m6944c5d36e" y="151.970941"/>
     <use x="443.063321" xlink:href="#m6944c5d36e" y="152.879456"/>
     <use x="448.385998" xlink:href="#m6944c5d36e" y="154.409209"/>
     <use x="453.708674" xlink:href="#m6944c5d36e" y="154.582693"/>
     <use x="459.031351" xlink:href="#m6944c5d36e" y="155.999165"/>
     <use x="464.354028" xlink:href="#m6944c5d36e" y="157.22832"/>
     <use x="469.676704" xlink:href="#m6944c5d36e" y="156.890493"/>
     <use x="474.999381" xlink:href="#m6944c5d36e" y="158.726124"/>
     <use x="480.322058" xlink:href="#m6944c5d36e" y="159.252031"/>
     <use x="485.644734" xlink:href="#m6944c5d36e" y="158.825977"/>
     <use x="490.967411" xlink:href="#m6944c5d36e" y="159.092736"/>
     <use x="496.290088" xlink:href="#m6944c5d36e" y="159.860984"/>
     <use x="501.612764" xlink:href="#m6944c5d36e" y="159.235987"/>
     <use x="506.935441" xlink:href="#m6944c5d36e" y="160.063195"/>
     <use x="512.258118" xlink:href="#m6944c5d36e" y="160.113058"/>
     <use x="517.580794" xlink:href="#m6944c5d36e" y="159.231315"/>
     <use x="522.903471" xlink:href="#m6944c5d36e" y="160.143499"/>
     <use x="528.226148" xlink:href="#m6944c5d36e" y="160.261863"/>
     <use x="533.548824" xlink:href="#m6944c5d36e" y="161.020203"/>
     <use x="538.871501" xlink:href="#m6944c5d36e" y="161.077847"/>
     <use x="544.194178" xlink:href="#m6944c5d36e" y="161.160979"/>
     <use x="549.516854" xlink:href="#m6944c5d36e" y="160.538217"/>
     <use x="554.839531" xlink:href="#m6944c5d36e" y="160.239331"/>
     <use x="560.162208" xlink:href="#m6944c5d36e" y="160.52772"/>
     <use x="565.484884" xlink:href="#m6944c5d36e" y="161.26622"/>
     <use x="570.807561" xlink:href="#m6944c5d36e" y="161.931972"/>
     <use x="576.130238" xlink:href="#m6944c5d36e" y="161.445438"/>
     <use x="581.452915" xlink:href="#m6944c5d36e" y="161.259358"/>
     <use x="586.775591" xlink:href="#m6944c5d36e" y="161.67436"/>
     <use x="592.098268" xlink:href="#m6944c5d36e" y="162.263877"/>
     <use x="597.420945" xlink:href="#m6944c5d36e" y="161.801349"/>
     <use x="602.743621" xlink:href="#m6944c5d36e" y="162.126534"/>
     <use x="608.066298" xlink:href="#m6944c5d36e" y="162.316247"/>
     <use x="613.388975" xlink:href="#m6944c5d36e" y="161.895019"/>
     <use x="618.711651" xlink:href="#m6944c5d36e" y="162.570241"/>
     <use x="624.034328" xlink:href="#m6944c5d36e" y="162.599042"/>
     <use x="629.357005" xlink:href="#m6944c5d36e" y="163.148037"/>
    </g>
   </g>
   <g id="line2d_44">
    <path clip-path="url(#pd9b8706a2a)" d="M 102.412014 109.150776 
L 107.73469 109.44244 
L 113.057367 108.956358 
L 118.380044 107.971913 
L 123.70272 107.132288 
L 129.025397 107.096398 
L 134.348074 108.044241 
L 139.67075 109.397543 
L 144.993427 110.141864 
L 150.316104 109.606856 
L 155.63878 107.985428 
L 160.961457 106.273329 
L 166.284134 105.746453 
L 171.60681 107.099298 
L 176.929487 109.636331 
L 182.252164 111.493506 
L 187.57484 111.154151 
L 192.897517 108.614919 
L 198.220194 105.344476 
L 203.54287 103.606011 
L 208.865547 105.238984 
L 214.188224 109.773945 
L 219.5109 113.869233 
L 224.833577 114.27345 
L 230.156254 110.552194 
L 235.47893 104.811157 
L 240.801607 100.667783 
L 246.124284 102.061426 
L 251.446961 109.77992 
L 256.769637 117.966398 
L 262.092314 119.936802 
L 267.414991 114.858813 
L 272.737667 106.001431 
L 278.060344 98.638078 
L 283.383021 99.605501 
L 288.705697 112.057026 
L 294.028374 125.425305 
L 299.351051 128.377468 
L 304.673727 121.695044 
L 309.996404 111.048677 
L 315.319081 103.84302 
L 320.641757 108.909282 
L 325.964434 125.317822 
L 331.287111 136.141341 
L 336.609787 135.346512 
L 341.932464 128.463219 
L 347.255141 122.894301 
L 352.577817 125.151713 
L 357.900494 134.26258 
L 363.223171 141.05847 
L 368.545847 141.925216 
L 373.868524 140.051724 
L 379.191201 139.504849 
L 384.513877 141.749254 
L 389.836554 144.931451 
L 395.159231 146.93086 
L 400.481907 147.684271 
L 405.804584 148.218218 
L 411.127261 149.15555 
L 416.449938 150.345187 
L 421.772614 151.407671 
L 427.095291 152.224879 
L 432.417968 152.909165 
L 437.740644 153.571074 
L 443.063321 154.223443 
L 448.385998 154.832441 
L 453.708674 155.38113 
L 459.031351 155.87718 
L 464.354028 156.335469 
L 469.676704 156.76347 
L 474.999381 157.162501 
L 480.322058 157.53298 
L 485.644734 157.876593 
L 490.967411 158.196694 
L 496.290088 158.49659 
L 501.612764 158.777844 
L 506.935441 159.042192 
L 512.258118 159.291073 
L 517.580794 159.526012 
L 522.903471 159.74816 
L 528.226148 159.958863 
L 533.548824 160.159066 
L 538.871501 160.349789 
L 544.194178 160.531674 
L 549.516854 160.705651 
L 554.839531 160.872183 
L 560.162208 161.032083 
L 565.484884 161.185689 
L 570.807561 161.333596 
L 576.130238 161.476217 
L 581.452915 161.613828 
L 586.775591 161.74694 
L 592.098268 161.875743 
L 597.420945 162.000564 
L 602.743621 162.121705 
L 608.066298 162.239278 
L 613.388975 162.353573 
L 618.711651 162.464797 
L 624.034328 162.57304 
L 629.357005 162.678492 
" style="fill:none;stroke:#ff0000;"/>
   </g>
   <g id="patch_8">
    <path d="M 86.603664 165.338458 
L 86.603664 87.94359 
" style="fill:none;stroke:#000000;stroke-linecap:square;stroke-linejoin:miter;"/>
   </g>
   <g id="patch_9">
    <path d="M 645.165354 165.338458 
L 645.165354 87.94359 
" style="fill:none;stroke:#000000;stroke-linecap:square;stroke-linejoin:miter;"/>
   </g>
   <g id="patch_10">
    <path d="M 86.603664 165.338458 
L 645.165354 165.338458 
" style="fill:none;stroke:#000000;stroke-linecap:square;stroke-linejoin:miter;"/>
   </g>
   <g id="patch_11">
    <path d="M 86.603664 87.94359 
L 645.165354 87.94359 
" style="fill:none;stroke:#000000;stroke-linecap:square;stroke-linejoin:miter;"/>
   </g>
  </g>
  <g id="axes_3">
   <g id="patch_12">
    <path d="M 86.603664 250.305354 
L 645.165354 250.305354 
L 645.165354 172.910486 
L 86.603664 172.910486 
z
" style="fill:#ffffff;"/>
   </g>
   <g id="matplotlib.axis_5">
    <g id="xtick_13">
     <g id="line2d_45">
      <path clip-path="url(#p0dc4db617a)" d="M 102.412014 250.305354 
L 102.412014 172.910486 
" style="fill:none;stroke:#000000;stroke-linecap:square;stroke-opacity:0.1;stroke-width:0.5;"/>
     </g>
     <g id="line2d_46">
      <defs>
       <path d="M 0 0 
L 0 -2.5 
" id="m8414d9440f" style="stroke:#000000;stroke-width:0.5;"/>
      </defs>
      <g>
       <use style="stroke:#000000;stroke-width:0.5;" x="102.412014" xlink:href="#m8414d9440f" y="250.305354"/>
      </g>
     </g>
     <g id="line2d_47">
      <defs>
       <path d="M 0 0 
L 0 2.5 
" id="m9084e9ca16" style="stroke:#000000;stroke-width:0.5;"/>
      </defs>
      <g>
       <use style="stroke:#000000;stroke-width:0.5;" x="102.412014" xlink:href="#m9084e9ca16" y="172.910486"/>
      </g>
     </g>
     <g id="text_17">
      <!-- $\mathregular{0.0}$ -->
      <g transform="translate(92.812014 262.923479)scale(0.12 -0.12)">
       <use transform="translate(0 0.78125)" xlink:href="#DejaVuSans-48"/>
       <use transform="translate(63.623047 0.78125)" xlink:href="#DejaVuSans-46"/>
       <use transform="translate(95.410156 0.78125)" xlink:href="#DejaVuSans-48"/>
      </g>
     </g>
    </g>
    <g id="xtick_14">
     <g id="line2d_48">
      <path clip-path="url(#p0dc4db617a)" d="M 207.801012 250.305354 
L 207.801012 172.910486 
" style="fill:none;stroke:#000000;stroke-linecap:square;stroke-opacity:0.1;stroke-width:0.5;"/>
     </g>
     <g id="line2d_49">
      <g>
       <use style="stroke:#000000;stroke-width:0.5;" x="207.801012" xlink:href="#m8414d9440f" y="250.305354"/>
      </g>
     </g>
     <g id="line2d_50">
      <g>
       <use style="stroke:#000000;stroke-width:0.5;" x="207.801012" xlink:href="#m9084e9ca16" y="172.910486"/>
      </g>
     </g>
     <g id="text_18">
      <!-- $\mathregular{0.1}$ -->
      <g transform="translate(198.201012 262.923479)scale(0.12 -0.12)">
       <use transform="translate(0 0.78125)" xlink:href="#DejaVuSans-48"/>
       <use transform="translate(63.623047 0.78125)" xlink:href="#DejaVuSans-46"/>
       <use transform="translate(95.410156 0.78125)" xlink:href="#DejaVuSans-49"/>
      </g>
     </g>
    </g>
    <g id="xtick_15">
     <g id="line2d_51">
      <path clip-path="url(#p0dc4db617a)" d="M 313.19001 250.305354 
L 313.19001 172.910486 
" style="fill:none;stroke:#000000;stroke-linecap:square;stroke-opacity:0.1;stroke-width:0.5;"/>
     </g>
     <g id="line2d_52">
      <g>
       <use style="stroke:#000000;stroke-width:0.5;" x="313.19001" xlink:href="#m8414d9440f" y="250.305354"/>
      </g>
     </g>
     <g id="line2d_53">
      <g>
       <use style="stroke:#000000;stroke-width:0.5;" x="313.19001" xlink:href="#m9084e9ca16" y="172.910486"/>
      </g>
     </g>
     <g id="text_19">
      <!-- $\mathregular{0.2}$ -->
      <g transform="translate(303.95001 262.923479)scale(0.12 -0.12)">
       <use transform="translate(0 0.78125)" xlink:href="#DejaVuSans-48"/>
       <use transform="translate(63.623047 0.78125)" xlink:href="#DejaVuSans-46"/>
       <use transform="translate(89.910156 0.78125)" xlink:href="#DejaVuSans-50"/>
      </g>
     </g>
    </g>
    <g id="xtick_16">
     <g id="line2d_54">
      <path clip-path="url(#p0dc4db617a)" d="M 418.579008 250.305354 
L 418.579008 172.910486 
" style="fill:none;stroke:#000000;stroke-linecap:square;stroke-opacity:0.1;stroke-width:0.5;"/>
     </g>
     <g id="line2d_55">
      <g>
       <use style="stroke:#000000;stroke-width:0.5;" x="418.579008" xlink:href="#m8414d9440f" y="250.305354"/>
      </g>
     </g>
     <g id="line2d_56">
      <g>
       <use style="stroke:#000000;stroke-width:0.5;" x="418.579008" xlink:href="#m9084e9ca16" y="172.910486"/>
      </g>
     </g>
     <g id="text_20">
      <!-- $\mathregular{0.3}$ -->
      <g transform="translate(408.979008 262.923479)scale(0.12 -0.12)">
       <use transform="translate(0 0.78125)" xlink:href="#DejaVuSans-48"/>
       <use transform="translate(63.623047 0.78125)" xlink:href="#DejaVuSans-46"/>
       <use transform="translate(95.410156 0.78125)" xlink:href="#DejaVuSans-51"/>
      </g>
     </g>
    </g>
    <g id="xtick_17">
     <g id="line2d_57">
      <path clip-path="url(#p0dc4db617a)" d="M 523.968006 250.305354 
L 523.968006 172.910486 
" style="fill:none;stroke:#000000;stroke-linecap:square;stroke-opacity:0.1;stroke-width:0.5;"/>
     </g>
     <g id="line2d_58">
      <g>
       <use style="stroke:#000000;stroke-width:0.5;" x="523.968006" xlink:href="#m8414d9440f" y="250.305354"/>
      </g>
     </g>
     <g id="line2d_59">
      <g>
       <use style="stroke:#000000;stroke-width:0.5;" x="523.968006" xlink:href="#m9084e9ca16" y="172.910486"/>
      </g>
     </g>
     <g id="text_21">
      <!-- $\mathregular{0.4}$ -->
      <g transform="translate(514.368006 262.923479)scale(0.12 -0.12)">
       <use transform="translate(0 0.78125)" xlink:href="#DejaVuSans-48"/>
       <use transform="translate(63.623047 0.78125)" xlink:href="#DejaVuSans-46"/>
       <use transform="translate(95.410156 0.78125)" xlink:href="#DejaVuSans-52"/>
      </g>
     </g>
    </g>
    <g id="xtick_18">
     <g id="line2d_60">
      <path clip-path="url(#p0dc4db617a)" d="M 629.357005 250.305354 
L 629.357005 172.910486 
" style="fill:none;stroke:#000000;stroke-linecap:square;stroke-opacity:0.1;stroke-width:0.5;"/>
     </g>
     <g id="line2d_61">
      <g>
       <use style="stroke:#000000;stroke-width:0.5;" x="629.357005" xlink:href="#m8414d9440f" y="250.305354"/>
      </g>
     </g>
     <g id="line2d_62">
      <g>
       <use style="stroke:#000000;stroke-width:0.5;" x="629.357005" xlink:href="#m9084e9ca16" y="172.910486"/>
      </g>
     </g>
     <g id="text_22">
      <!-- $\mathregular{0.5}$ -->
      <g transform="translate(619.757005 262.923479)scale(0.12 -0.12)">
       <use transform="translate(0 0.78125)" xlink:href="#DejaVuSans-48"/>
       <use transform="translate(63.623047 0.78125)" xlink:href="#DejaVuSans-46"/>
       <use transform="translate(95.410156 0.78125)" xlink:href="#DejaVuSans-53"/>
      </g>
     </g>
    </g>
    <g id="text_23">
     <!-- Time [s] -->
     <g transform="translate(333.358259 281.576604)scale(0.16 -0.16)">
      <defs>
       <path d="M -0.296875 72.90625 
L 61.375 72.90625 
L 61.375 64.59375 
L 35.5 64.59375 
L 35.5 0 
L 25.59375 0 
L 25.59375 64.59375 
L -0.296875 64.59375 
z
" id="DejaVuSans-84"/>
       <path d="M 9.421875 54.6875 
L 18.40625 54.6875 
L 18.40625 0 
L 9.421875 0 
z
M 9.421875 75.984375 
L 18.40625 75.984375 
L 18.40625 64.59375 
L 9.421875 64.59375 
z
" id="DejaVuSans-105"/>
       <path d="M 52 44.1875 
Q 55.375 50.25 60.0625 53.125 
Q 64.75 56 71.09375 56 
Q 79.640625 56 84.28125 50.015625 
Q 88.921875 44.046875 88.921875 33.015625 
L 88.921875 0 
L 79.890625 0 
L 79.890625 32.71875 
Q 79.890625 40.578125 77.09375 44.375 
Q 74.3125 48.1875 68.609375 48.1875 
Q 61.625 48.1875 57.5625 43.546875 
Q 53.515625 38.921875 53.515625 30.90625 
L 53.515625 0 
L 44.484375 0 
L 44.484375 32.71875 
Q 44.484375 40.625 41.703125 44.40625 
Q 38.921875 48.1875 33.109375 48.1875 
Q 26.21875 48.1875 22.15625 43.53125 
Q 18.109375 38.875 18.109375 30.90625 
L 18.109375 0 
L 9.078125 0 
L 9.078125 54.6875 
L 18.109375 54.6875 
L 18.109375 46.1875 
Q 21.1875 51.21875 25.484375 53.609375 
Q 29.78125 56 35.6875 56 
Q 41.65625 56 45.828125 52.96875 
Q 50 49.953125 52 44.1875 
z
" id="DejaVuSans-109"/>
       <path d="M 56.203125 29.59375 
L 56.203125 25.203125 
L 14.890625 25.203125 
Q 15.484375 15.921875 20.484375 11.0625 
Q 25.484375 6.203125 34.421875 6.203125 
Q 39.59375 6.203125 44.453125 7.46875 
Q 49.3125 8.734375 54.109375 11.28125 
L 54.109375 2.78125 
Q 49.265625 0.734375 44.1875 -0.34375 
Q 39.109375 -1.421875 33.890625 -1.421875 
Q 20.796875 -1.421875 13.15625 6.1875 
Q 5.515625 13.8125 5.515625 26.8125 
Q 5.515625 40.234375 12.765625 48.109375 
Q 20.015625 56 32.328125 56 
Q 43.359375 56 49.78125 48.890625 
Q 56.203125 41.796875 56.203125 29.59375 
z
M 47.21875 32.234375 
Q 47.125 39.59375 43.09375 43.984375 
Q 39.0625 48.390625 32.421875 48.390625 
Q 24.90625 48.390625 20.390625 44.140625 
Q 15.875 39.890625 15.1875 32.171875 
z
" id="DejaVuSans-101"/>
       <path id="DejaVuSans-32"/>
       <path d="M 8.59375 75.984375 
L 29.296875 75.984375 
L 29.296875 69 
L 17.578125 69 
L 17.578125 -6.203125 
L 29.296875 -6.203125 
L 29.296875 -13.1875 
L 8.59375 -13.1875 
z
" id="DejaVuSans-91"/>
       <path d="M 44.28125 53.078125 
L 44.28125 44.578125 
Q 40.484375 46.53125 36.375 47.5 
Q 32.28125 48.484375 27.875 48.484375 
Q 21.1875 48.484375 17.84375 46.4375 
Q 14.5 44.390625 14.5 40.28125 
Q 14.5 37.15625 16.890625 35.375 
Q 19.28125 33.59375 26.515625 31.984375 
L 29.59375 31.296875 
Q 39.15625 29.25 43.1875 25.515625 
Q 47.21875 21.78125 47.21875 15.09375 
Q 47.21875 7.46875 41.1875 3.015625 
Q 35.15625 -1.421875 24.609375 -1.421875 
Q 20.21875 -1.421875 15.453125 -0.5625 
Q 10.6875 0.296875 5.421875 2 
L 5.421875 11.28125 
Q 10.40625 8.6875 15.234375 7.390625 
Q 20.0625 6.109375 24.8125 6.109375 
Q 31.15625 6.109375 34.5625 8.28125 
Q 37.984375 10.453125 37.984375 14.40625 
Q 37.984375 18.0625 35.515625 20.015625 
Q 33.0625 21.96875 24.703125 23.78125 
L 21.578125 24.515625 
Q 13.234375 26.265625 9.515625 29.90625 
Q 5.8125 33.546875 5.8125 39.890625 
Q 5.8125 47.609375 11.28125 51.796875 
Q 16.75 56 26.8125 56 
Q 31.78125 56 36.171875 55.265625 
Q 40.578125 54.546875 44.28125 53.078125 
z
" id="DejaVuSans-115"/>
       <path d="M 30.421875 75.984375 
L 30.421875 -13.1875 
L 9.71875 -13.1875 
L 9.71875 -6.203125 
L 21.390625 -6.203125 
L 21.390625 69 
L 9.71875 69 
L 9.71875 75.984375 
z
" id="DejaVuSans-93"/>
      </defs>
      <use xlink:href="#DejaVuSans-84"/>
      <use x="57.958984" xlink:href="#DejaVuSans-105"/>
      <use x="85.742188" xlink:href="#DejaVuSans-109"/>
      <use x="183.154297" xlink:href="#DejaVuSans-101"/>
      <use x="244.677734" xlink:href="#DejaVuSans-32"/>
      <use x="276.464844" xlink:href="#DejaVuSans-91"/>
      <use x="315.478516" xlink:href="#DejaVuSans-115"/>
      <use x="367.578125" xlink:href="#DejaVuSans-93"/>
     </g>
    </g>
   </g>
   <g id="matplotlib.axis_6">
    <g id="ytick_15">
     <g id="line2d_63">
      <path clip-path="url(#p0dc4db617a)" d="M 86.603664 235.844687 
L 645.165354 235.844687 
" style="fill:none;stroke:#000000;stroke-linecap:square;stroke-opacity:0.1;stroke-width:0.5;"/>
     </g>
     <g id="line2d_64">
      <g>
       <use style="stroke:#000000;stroke-width:0.5;" x="86.603664" xlink:href="#mc4341a3c2b" y="235.844687"/>
      </g>
     </g>
     <g id="line2d_65">
      <g>
       <use style="stroke:#000000;stroke-width:0.5;" x="645.165354" xlink:href="#m28babf9d01" y="235.844687"/>
      </g>
     </g>
     <g id="text_24">
      <!-- $\mathregular{1267.5}$ -->
      <g transform="translate(41.103664 240.403749)scale(0.12 -0.12)">
       <defs>
        <path d="M 33.015625 40.375 
Q 26.375 40.375 22.484375 35.828125 
Q 18.609375 31.296875 18.609375 23.390625 
Q 18.609375 15.53125 22.484375 10.953125 
Q 26.375 6.390625 33.015625 6.390625 
Q 39.65625 6.390625 43.53125 10.953125 
Q 47.40625 15.53125 47.40625 23.390625 
Q 47.40625 31.296875 43.53125 35.828125 
Q 39.65625 40.375 33.015625 40.375 
z
M 52.59375 71.296875 
L 52.59375 62.3125 
Q 48.875 64.0625 45.09375 64.984375 
Q 41.3125 65.921875 37.59375 65.921875 
Q 27.828125 65.921875 22.671875 59.328125 
Q 17.53125 52.734375 16.796875 39.40625 
Q 19.671875 43.65625 24.015625 45.921875 
Q 28.375 48.1875 33.59375 48.1875 
Q 44.578125 48.1875 50.953125 41.515625 
Q 57.328125 34.859375 57.328125 23.390625 
Q 57.328125 12.15625 50.6875 5.359375 
Q 44.046875 -1.421875 33.015625 -1.421875 
Q 20.359375 -1.421875 13.671875 8.265625 
Q 6.984375 17.96875 6.984375 36.375 
Q 6.984375 53.65625 15.1875 63.9375 
Q 23.390625 74.21875 37.203125 74.21875 
Q 40.921875 74.21875 44.703125 73.484375 
Q 48.484375 72.75 52.59375 71.296875 
z
" id="DejaVuSans-54"/>
        <path d="M 8.203125 72.90625 
L 55.078125 72.90625 
L 55.078125 68.703125 
L 28.609375 0 
L 18.3125 0 
L 43.21875 64.59375 
L 8.203125 64.59375 
z
" id="DejaVuSans-55"/>
       </defs>
       <use transform="translate(0 0.78125)" xlink:href="#DejaVuSans-49"/>
       <use transform="translate(63.623047 0.78125)" xlink:href="#DejaVuSans-50"/>
       <use transform="translate(127.246094 0.78125)" xlink:href="#DejaVuSans-54"/>
       <use transform="translate(190.869141 0.78125)" xlink:href="#DejaVuSans-55"/>
       <use transform="translate(254.492188 0.78125)" xlink:href="#DejaVuSans-46"/>
       <use transform="translate(286.279297 0.78125)" xlink:href="#DejaVuSans-53"/>
      </g>
     </g>
    </g>
    <g id="ytick_16">
     <g id="line2d_66">
      <path clip-path="url(#p0dc4db617a)" d="M 86.603664 218.904086 
L 645.165354 218.904086 
" style="fill:none;stroke:#000000;stroke-linecap:square;stroke-opacity:0.1;stroke-width:0.5;"/>
     </g>
     <g id="line2d_67">
      <g>
       <use style="stroke:#000000;stroke-width:0.5;" x="86.603664" xlink:href="#mc4341a3c2b" y="218.904086"/>
      </g>
     </g>
     <g id="line2d_68">
      <g>
       <use style="stroke:#000000;stroke-width:0.5;" x="645.165354" xlink:href="#m28babf9d01" y="218.904086"/>
      </g>
     </g>
     <g id="text_25">
      <!-- $\mathregular{1270.0}$ -->
      <g transform="translate(41.103664 223.463148)scale(0.12 -0.12)">
       <use transform="translate(0 0.78125)" xlink:href="#DejaVuSans-49"/>
       <use transform="translate(63.623047 0.78125)" xlink:href="#DejaVuSans-50"/>
       <use transform="translate(127.246094 0.78125)" xlink:href="#DejaVuSans-55"/>
       <use transform="translate(190.869141 0.78125)" xlink:href="#DejaVuSans-48"/>
       <use transform="translate(254.492188 0.78125)" xlink:href="#DejaVuSans-46"/>
       <use transform="translate(286.279297 0.78125)" xlink:href="#DejaVuSans-48"/>
      </g>
     </g>
    </g>
    <g id="ytick_17">
     <g id="line2d_69">
      <path clip-path="url(#p0dc4db617a)" d="M 86.603664 201.963485 
L 645.165354 201.963485 
" style="fill:none;stroke:#000000;stroke-linecap:square;stroke-opacity:0.1;stroke-width:0.5;"/>
     </g>
     <g id="line2d_70">
      <g>
       <use style="stroke:#000000;stroke-width:0.5;" x="86.603664" xlink:href="#mc4341a3c2b" y="201.963485"/>
      </g>
     </g>
     <g id="line2d_71">
      <g>
       <use style="stroke:#000000;stroke-width:0.5;" x="645.165354" xlink:href="#m28babf9d01" y="201.963485"/>
      </g>
     </g>
     <g id="text_26">
      <!-- $\mathregular{1272.5}$ -->
      <g transform="translate(41.103664 206.522547)scale(0.12 -0.12)">
       <use transform="translate(0 0.78125)" xlink:href="#DejaVuSans-49"/>
       <use transform="translate(63.623047 0.78125)" xlink:href="#DejaVuSans-50"/>
       <use transform="translate(127.246094 0.78125)" xlink:href="#DejaVuSans-55"/>
       <use transform="translate(190.869141 0.78125)" xlink:href="#DejaVuSans-50"/>
       <use transform="translate(254.492188 0.78125)" xlink:href="#DejaVuSans-46"/>
       <use transform="translate(286.279297 0.78125)" xlink:href="#DejaVuSans-53"/>
      </g>
     </g>
    </g>
    <g id="ytick_18">
     <g id="line2d_72">
      <path clip-path="url(#p0dc4db617a)" d="M 86.603664 185.022884 
L 645.165354 185.022884 
" style="fill:none;stroke:#000000;stroke-linecap:square;stroke-opacity:0.1;stroke-width:0.5;"/>
     </g>
     <g id="line2d_73">
      <g>
       <use style="stroke:#000000;stroke-width:0.5;" x="86.603664" xlink:href="#mc4341a3c2b" y="185.022884"/>
      </g>
     </g>
     <g id="line2d_74">
      <g>
       <use style="stroke:#000000;stroke-width:0.5;" x="645.165354" xlink:href="#m28babf9d01" y="185.022884"/>
      </g>
     </g>
     <g id="text_27">
      <!-- $\mathregular{1275.0}$ -->
      <g transform="translate(41.103664 189.581946)scale(0.12 -0.12)">
       <use transform="translate(0 0.78125)" xlink:href="#DejaVuSans-49"/>
       <use transform="translate(63.623047 0.78125)" xlink:href="#DejaVuSans-50"/>
       <use transform="translate(127.246094 0.78125)" xlink:href="#DejaVuSans-55"/>
       <use transform="translate(190.869141 0.78125)" xlink:href="#DejaVuSans-53"/>
       <use transform="translate(254.492188 0.78125)" xlink:href="#DejaVuSans-46"/>
       <use transform="translate(286.279297 0.78125)" xlink:href="#DejaVuSans-48"/>
      </g>
     </g>
    </g>
    <g id="text_28">
     <!-- T [K] -->
     <g transform="translate(33.776164 230.52542)rotate(-90)scale(0.16 -0.16)">
      <defs>
       <path d="M 9.8125 72.90625 
L 19.671875 72.90625 
L 19.671875 42.09375 
L 52.390625 72.90625 
L 65.09375 72.90625 
L 28.90625 38.921875 
L 67.671875 0 
L 54.6875 0 
L 19.671875 35.109375 
L 19.671875 0 
L 9.8125 0 
z
" id="DejaVuSans-75"/>
      </defs>
      <use xlink:href="#DejaVuSans-84"/>
      <use x="61.083984" xlink:href="#DejaVuSans-32"/>
      <use x="92.871094" xlink:href="#DejaVuSans-91"/>
      <use x="131.884766" xlink:href="#DejaVuSans-75"/>
      <use x="197.460938" xlink:href="#DejaVuSans-93"/>
     </g>
    </g>
   </g>
   <g id="PathCollection_3">
    <g clip-path="url(#p0dc4db617a)">
     <use x="102.412014" xlink:href="#m6944c5d36e" y="236.884562"/>
     <use x="107.73469" xlink:href="#m6944c5d36e" y="237.580226"/>
     <use x="113.057367" xlink:href="#m6944c5d36e" y="237.704239"/>
     <use x="118.380044" xlink:href="#m6944c5d36e" y="238.307823"/>
     <use x="123.70272" xlink:href="#m6944c5d36e" y="238.754098"/>
     <use x="129.025397" xlink:href="#m6944c5d36e" y="238.137759"/>
     <use x="134.348074" xlink:href="#m6944c5d36e" y="238.280233"/>
     <use x="139.67075" xlink:href="#m6944c5d36e" y="237.15123"/>
     <use x="144.993427" xlink:href="#m6944c5d36e" y="236.451217"/>
     <use x="150.316104" xlink:href="#m6944c5d36e" y="237.201729"/>
     <use x="155.63878" xlink:href="#m6944c5d36e" y="239.214964"/>
     <use x="160.961457" xlink:href="#m6944c5d36e" y="239.513402"/>
     <use x="166.284134" xlink:href="#m6944c5d36e" y="239.050416"/>
     <use x="171.60681" xlink:href="#m6944c5d36e" y="238.709773"/>
     <use x="176.929487" xlink:href="#m6944c5d36e" y="236.686665"/>
     <use x="182.252164" xlink:href="#m6944c5d36e" y="236.245577"/>
     <use x="187.57484" xlink:href="#m6944c5d36e" y="236.821845"/>
     <use x="192.897517" xlink:href="#m6944c5d36e" y="239.031095"/>
     <use x="198.220194" xlink:href="#m6944c5d36e" y="240.853823"/>
     <use x="203.54287" xlink:href="#m6944c5d36e" y="241.35621"/>
     <use x="208.865547" xlink:href="#m6944c5d36e" y="239.720638"/>
     <use x="214.188224" xlink:href="#m6944c5d36e" y="236.784718"/>
     <use x="219.5109" xlink:href="#m6944c5d36e" y="234.983264"/>
     <use x="224.833577" xlink:href="#m6944c5d36e" y="235.953428"/>
     <use x="230.156254" xlink:href="#m6944c5d36e" y="239.488548"/>
     <use x="235.47893" xlink:href="#m6944c5d36e" y="244.059783"/>
     <use x="240.801607" xlink:href="#m6944c5d36e" y="245.686655"/>
     <use x="246.124284" xlink:href="#m6944c5d36e" y="242.712182"/>
     <use x="251.446961" xlink:href="#m6944c5d36e" y="236.927432"/>
     <use x="256.769637" xlink:href="#m6944c5d36e" y="233.216869"/>
     <use x="262.092314" xlink:href="#m6944c5d36e" y="233.641007"/>
     <use x="267.414991" xlink:href="#m6944c5d36e" y="238.644062"/>
     <use x="272.737667" xlink:href="#m6944c5d36e" y="244.837441"/>
     <use x="278.060344" xlink:href="#m6944c5d36e" y="248.114934"/>
     <use x="283.383021" xlink:href="#m6944c5d36e" y="243.639102"/>
     <use x="288.705697" xlink:href="#m6944c5d36e" y="232.379949"/>
     <use x="294.028374" xlink:href="#m6944c5d36e" y="225.814008"/>
     <use x="299.351051" xlink:href="#m6944c5d36e" y="227.165777"/>
     <use x="304.673727" xlink:href="#m6944c5d36e" y="232.964663"/>
     <use x="309.996404" xlink:href="#m6944c5d36e" y="239.697801"/>
     <use x="315.319081" xlink:href="#m6944c5d36e" y="239.656009"/>
     <use x="320.641757" xlink:href="#m6944c5d36e" y="233.157701"/>
     <use x="325.964434" xlink:href="#m6944c5d36e" y="224.628609"/>
     <use x="331.287111" xlink:href="#m6944c5d36e" y="222.802062"/>
     <use x="336.609787" xlink:href="#m6944c5d36e" y="225.62592"/>
     <use x="341.932464" xlink:href="#m6944c5d36e" y="228.047282"/>
     <use x="347.255141" xlink:href="#m6944c5d36e" y="229.233581"/>
     <use x="352.577817" xlink:href="#m6944c5d36e" y="225.966689"/>
     <use x="357.900494" xlink:href="#m6944c5d36e" y="221.519426"/>
     <use x="363.223171" xlink:href="#m6944c5d36e" y="219.543842"/>
     <use x="368.545847" xlink:href="#m6944c5d36e" y="219.376735"/>
     <use x="373.868524" xlink:href="#m6944c5d36e" y="219.993881"/>
     <use x="379.191201" xlink:href="#m6944c5d36e" y="220.133094"/>
     <use x="384.513877" xlink:href="#m6944c5d36e" y="217.783214"/>
     <use x="389.836554" xlink:href="#m6944c5d36e" y="215.779993"/>
     <use x="395.159231" xlink:href="#m6944c5d36e" y="214.682404"/>
     <use x="400.481907" xlink:href="#m6944c5d36e" y="213.485269"/>
     <use x="405.804584" xlink:href="#m6944c5d36e" y="213.532327"/>
     <use x="411.127261" xlink:href="#m6944c5d36e" y="212.226714"/>
     <use x="416.449938" xlink:href="#m6944c5d36e" y="209.936682"/>
     <use x="421.772614" xlink:href="#m6944c5d36e" y="209.08951"/>
     <use x="427.095291" xlink:href="#m6944c5d36e" y="208.197998"/>
     <use x="432.417968" xlink:href="#m6944c5d36e" y="206.351327"/>
     <use x="437.740644" xlink:href="#m6944c5d36e" y="205.79525"/>
     <use x="443.063321" xlink:href="#m6944c5d36e" y="204.286492"/>
     <use x="448.385998" xlink:href="#m6944c5d36e" y="202.821805"/>
     <use x="453.708674" xlink:href="#m6944c5d36e" y="201.962213"/>
     <use x="459.031351" xlink:href="#m6944c5d36e" y="201.186357"/>
     <use x="464.354028" xlink:href="#m6944c5d36e" y="199.413509"/>
     <use x="469.676704" xlink:href="#m6944c5d36e" y="197.854148"/>
     <use x="474.999381" xlink:href="#m6944c5d36e" y="197.044779"/>
     <use x="480.322058" xlink:href="#m6944c5d36e" y="195.051522"/>
     <use x="485.644734" xlink:href="#m6944c5d36e" y="194.898616"/>
     <use x="490.967411" xlink:href="#m6944c5d36e" y="193.370822"/>
     <use x="496.290088" xlink:href="#m6944c5d36e" y="192.386496"/>
     <use x="501.612764" xlink:href="#m6944c5d36e" y="191.648392"/>
     <use x="506.935441" xlink:href="#m6944c5d36e" y="190.15424"/>
     <use x="512.258118" xlink:href="#m6944c5d36e" y="189.240617"/>
     <use x="517.580794" xlink:href="#m6944c5d36e" y="189.121491"/>
     <use x="522.903471" xlink:href="#m6944c5d36e" y="188.564741"/>
     <use x="528.226148" xlink:href="#m6944c5d36e" y="186.694382"/>
     <use x="533.548824" xlink:href="#m6944c5d36e" y="185.91574"/>
     <use x="538.871501" xlink:href="#m6944c5d36e" y="185.560559"/>
     <use x="544.194178" xlink:href="#m6944c5d36e" y="185.555736"/>
     <use x="549.516854" xlink:href="#m6944c5d36e" y="183.579333"/>
     <use x="554.839531" xlink:href="#m6944c5d36e" y="183.924825"/>
     <use x="560.162208" xlink:href="#m6944c5d36e" y="182.543627"/>
     <use x="565.484884" xlink:href="#m6944c5d36e" y="182.276599"/>
     <use x="570.807561" xlink:href="#m6944c5d36e" y="181.480362"/>
     <use x="576.130238" xlink:href="#m6944c5d36e" y="180.463355"/>
     <use x="581.452915" xlink:href="#m6944c5d36e" y="179.433189"/>
     <use x="586.775591" xlink:href="#m6944c5d36e" y="179.272448"/>
     <use x="592.098268" xlink:href="#m6944c5d36e" y="178.683785"/>
     <use x="597.420945" xlink:href="#m6944c5d36e" y="178.343026"/>
     <use x="602.743621" xlink:href="#m6944c5d36e" y="177.327559"/>
     <use x="608.066298" xlink:href="#m6944c5d36e" y="177.111456"/>
     <use x="613.388975" xlink:href="#m6944c5d36e" y="177.155386"/>
     <use x="618.711651" xlink:href="#m6944c5d36e" y="176.144053"/>
     <use x="624.034328" xlink:href="#m6944c5d36e" y="175.478827"/>
     <use x="629.357005" xlink:href="#m6944c5d36e" y="175.100907"/>
    </g>
   </g>
   <g id="line2d_75">
    <path clip-path="url(#p0dc4db617a)" d="M 102.412014 236.765077 
L 107.73469 236.861379 
L 113.057367 237.261475 
L 118.380044 237.773739 
L 123.70272 238.083316 
L 129.025397 237.964769 
L 134.348074 237.478931 
L 139.67075 236.99095 
L 144.993427 236.92888 
L 150.316104 237.453521 
L 155.63878 238.313225 
L 160.961457 238.963025 
L 166.284134 238.897716 
L 171.60681 238.055029 
L 176.929487 236.994924 
L 182.252164 236.556979 
L 187.57484 237.194838 
L 192.897517 238.624741 
L 198.220194 239.958896 
L 203.54287 240.179887 
L 208.865547 238.862721 
L 214.188224 236.778927 
L 219.5109 235.524936 
L 224.833577 236.163024 
L 230.156254 238.431364 
L 235.47893 240.961079 
L 240.801607 241.911657 
L 246.124284 240.049371 
L 251.446961 236.244342 
L 256.769637 233.460375 
L 262.092314 233.867034 
L 267.414991 237.159586 
L 272.737667 241.258465 
L 278.060344 243.212312 
L 283.383021 240.576134 
L 288.705697 234.35389 
L 294.028374 229.78406 
L 299.351051 230.107058 
L 304.673727 234.166613 
L 309.996404 238.725923 
L 315.319081 239.859866 
L 320.641757 235.182886 
L 325.964434 228.083042 
L 331.287111 224.773922 
L 336.609787 226.070258 
L 341.932464 229.016589 
L 347.255141 230.087466 
L 352.577817 227.418613 
L 357.900494 223.022108 
L 363.223171 220.379945 
L 368.545847 220.003887 
L 373.868524 220.205572 
L 379.191201 219.439068 
L 384.513877 217.580543 
L 389.836554 215.604903 
L 395.159231 214.18125 
L 400.481907 213.14627 
L 405.804584 212.071518 
L 411.127261 210.794383 
L 416.449938 209.435534 
L 421.772614 208.138362 
L 427.095291 206.922829 
L 432.417968 205.737663 
L 437.740644 204.550129 
L 443.063321 203.36562 
L 448.385998 202.200885 
L 453.708674 201.062373 
L 459.031351 199.947694 
L 464.354028 198.853281 
L 469.676704 197.778744 
L 474.999381 196.725408 
L 480.322058 195.694264 
L 485.644734 194.68569 
L 490.967411 193.699365 
L 496.290088 192.735053 
L 501.612764 191.792759 
L 506.935441 190.872506 
L 512.258118 189.974196 
L 517.580794 189.097643 
L 522.903471 188.242652 
L 528.226148 187.408955 
L 533.548824 186.596308 
L 538.871501 185.804408 
L 544.194178 185.033017 
L 549.516854 184.281744 
L 554.839531 183.550353 
L 560.162208 182.838381 
L 565.484884 182.145603 
L 570.807561 181.471572 
L 576.130238 180.815943 
L 581.452915 180.178448 
L 586.775591 179.558556 
L 592.098268 178.956041 
L 597.420945 178.370468 
L 602.743621 177.801406 
L 608.066298 177.248666 
L 613.388975 176.71175 
L 618.711651 176.190273 
L 624.034328 175.684049 
L 629.357005 175.192673 
" style="fill:none;stroke:#ff0000;"/>
   </g>
   <g id="patch_13">
    <path d="M 86.603664 250.305354 
L 86.603664 172.910486 
" style="fill:none;stroke:#000000;stroke-linecap:square;stroke-linejoin:miter;"/>
   </g>
   <g id="patch_14">
    <path d="M 645.165354 250.305354 
L 645.165354 172.910486 
" style="fill:none;stroke:#000000;stroke-linecap:square;stroke-linejoin:miter;"/>
   </g>
   <g id="patch_15">
    <path d="M 86.603664 250.305354 
L 645.165354 250.305354 
" style="fill:none;stroke:#000000;stroke-linecap:square;stroke-linejoin:miter;"/>
   </g>
   <g id="patch_16">
    <path d="M 86.603664 172.910486 
L 645.165354 172.910486 
" style="fill:none;stroke:#000000;stroke-linecap:square;stroke-linejoin:miter;"/>
   </g>
  </g>
 </g>
 <defs>
  <clipPath id="pec908cd4c4">
   <rect height="77.394868" width="558.56169" x="86.603664" y="2.834646"/>
  </clipPath>
  <clipPath id="pd9b8706a2a">
   <rect height="77.394868" width="558.56169" x="86.603664" y="87.94359"/>
  </clipPath>
  <clipPath id="p0dc4db617a">
   <rect height="77.394868" width="558.56169" x="86.603664" y="172.910486"/>
  </clipPath>
 </defs>
</svg>
